{"asset":{"version":"2.0","generator":"Blockbench 4.2.4 glTF exporter"},"scenes":[{"nodes":[10],"name":"blockbench_export"}],"scene":0,"nodes":[{"name":"bolt"},{"name":"magazine"},{"translation":[0,0.0625,-0.5],"name":"AA_12","children":[0,1]},{"name":"aa_12","children":[2]},{"translation":[0.375,-0.6875,0],"name":"RightHand"},{"translation":[-0.375,0.75,-0.5],"name":"R","children":[4]},{"name":"bone","children":[3,5]},{"translation":[-0.375,-0.6875,0],"name":"LeftHand"},{"translation":[0.375,0.75,-0.5],"name":"l","children":[7]},{"translation":[0.5,0.4375,1],"name":"bone2","children":[6,8]},{"children":[9]}],"animations":[{"name":"draw","samplers":[{"input":0,"output":1,"interpolation":"LINEAR"},{"input":2,"output":3,"interpolation":"LINEAR"},{"input":4,"output":5,"interpolation":"LINEAR"},{"input":6,"output":7,"interpolation":"LINEAR"},{"input":8,"output":9,"interpolation":"LINEAR"},{"input":10,"output":11,"interpolation":"LINEAR"},{"input":12,"output":13,"interpolation":"LINEAR"},{"input":14,"output":15,"interpolation":"LINEAR"}],"channels":[{"sampler":0,"target":{"node":5,"path":"rotation"}},{"sampler":1,"target":{"node":5,"path":"translation"}},{"sampler":2,"target":{"node":5,"path":"scale"}},{"sampler":3,"target":{"node":8,"path":"rotation"}},{"sampler":4,"target":{"node":8,"path":"translation"}},{"sampler":5,"target":{"node":8,"path":"scale"}},{"sampler":6,"target":{"node":9,"path":"rotation"}},{"sampler":7,"target":{"node":9,"path":"translation"}}]}],"bufferViews":[{"buffer":0,"byteOffset":0,"byteLength":4},{"buffer":0,"byteOffset":4,"byteLength":16},{"buffer":0,"byteOffset":20,"byteLength":4},{"buffer":0,"byteOffset":24,"byteLength":12},{"buffer":0,"byteOffset":36,"byteLength":4},{"buffer":0,"byteOffset":40,"byteLength":12},{"buffer":0,"byteOffset":52,"byteLength":4},{"buffer":0,"byteOffset":56,"byteLength":16},{"buffer":0,"byteOffset":72,"byteLength":4},{"buffer":0,"byteOffset":76,"byteLength":12},{"buffer":0,"byteOffset":88,"byteLength":4},{"buffer":0,"byteOffset":92,"byteLength":12},{"buffer":0,"byteOffset":104,"byteLength":64},{"buffer":0,"byteOffset":168,"byteLength":256},{"buffer":0,"byteOffset":424,"byteLength":60},{"buffer":0,"byteOffset":484,"byteLength":180}],"buffers":[{"byteLength":664,"uri":"data:application/octet-stream;base64,"}],"accessors":[{"bufferView":0,"componentType":5126,"count":1,"max":[0],"min":[0],"type":"SCALAR"},{"bufferView":1,"componentType":5126,"count":1,"max":[-0.03203072398900986,0.7336236238479614,-0.6781546473503113,-0.02960887737572193],"min":[-0.03203072398900986,0.7336236238479614,-0.6781546473503113,-0.02960887737572193],"type":"VEC4"},{"bufferView":2,"componentType":5126,"count":1,"max":[0],"min":[0],"type":"SCALAR"},{"bufferView":3,"componentType":5126,"count":1,"max":[0.01875000074505806,-0.02500000037252903,-0.03750000149011612],"min":[0.01875000074505806,-0.02500000037252903,-0.03750000149011612],"type":"VEC3"},{"bufferView":4,"componentType":5126,"count":1,"max":[0],"min":[0],"type":"SCALAR"},{"bufferView":5,"componentType":5126,"count":1,"max":[1,1.5,1],"min":[1,1.5,1],"type":"VEC3"},{"bufferView":6,"componentType":5126,"count":1,"max":[0],"min":[0],"type":"SCALAR"},{"bufferView":7,"componentType":5126,"count":1,"max":[-0.1121026799082756,0.7024496793746948,-0.5356996059417725,0.4549982249736786],"min":[-0.1121026799082756,0.7024496793746948,-0.5356996059417725,0.4549982249736786],"type":"VEC4"},{"bufferView":8,"componentType":5126,"count":1,"max":[0],"min":[0],"type":"SCALAR"},{"bufferView":9,"componentType":5126,"count":1,"max":[-0.08749999850988388,0.15625,-0.887499988079071],"min":[-0.08749999850988388,0.15625,-0.887499988079071],"type":"VEC3"},{"bufferView":10,"componentType":5126,"count":1,"max":[0],"min":[0],"type":"SCALAR"},{"bufferView":11,"componentType":5126,"count":1,"max":[1,1.5,1],"min":[1,1.5,1],"type":"VEC3"},{"bufferView":12,"componentType":5126,"count":16,"max":[0.8999999761581421],"min":[0],"type":"SCALAR"},{"bufferView":13,"componentType":5126,"count":16,"max":[0.03907117247581482,0.3001847267150879,0.11622970551252365,1],"min":[-0.34353727102279663,-0.006316701881587505,-0.01129112858325243,0.8822482228279114],"type":"VEC4"},{"bufferView":14,"componentType":5126,"count":15,"max":[0.8999999761581421],"min":[0],"type":"SCALAR"},{"bufferView":15,"componentType":5126,"count":15,"max":[0.5,0.4405408203601837,1.3562500476837158],"min":[0.29374998807907104,-0.625,0.8161299824714661],"type":"VEC3"}]}