{"asset":{"version":"2.0","generator":"Blockbench 4.2.4 glTF exporter"},"scenes":[{"nodes":[10],"name":"blockbench_export"}],"scene":0,"nodes":[{"name":"bolt"},{"name":"magazine"},{"translation":[0,0.0625,-0.5],"name":"AA_12","children":[0,1]},{"name":"aa_12","children":[2]},{"translation":[0.375,-0.6875,0],"name":"RightHand"},{"translation":[-0.375,0.75,-0.5],"name":"R","children":[4]},{"name":"bone","children":[3,5]},{"translation":[-0.375,-0.6875,0],"name":"LeftHand"},{"translation":[0.375,0.75,-0.5],"name":"l","children":[7]},{"translation":[0.5,0.4375,1],"name":"bone2","children":[6,8]},{"children":[9]}],"animations":[{"name":"reload_empty","samplers":[{"input":0,"output":1,"interpolation":"LINEAR"},{"input":2,"output":3,"interpolation":"LINEAR"},{"input":4,"output":5,"interpolation":"LINEAR"},{"input":6,"output":7,"interpolation":"LINEAR"},{"input":8,"output":9,"interpolation":"LINEAR"},{"input":10,"output":11,"interpolation":"LINEAR"},{"input":12,"output":13,"interpolation":"LINEAR"},{"input":14,"output":15,"interpolation":"LINEAR"},{"input":16,"output":17,"interpolation":"LINEAR"},{"input":18,"output":19,"interpolation":"LINEAR"},{"input":20,"output":21,"interpolation":"LINEAR"}],"channels":[{"sampler":0,"target":{"node":5,"path":"rotation"}},{"sampler":1,"target":{"node":5,"path":"translation"}},{"sampler":2,"target":{"node":5,"path":"scale"}},{"sampler":3,"target":{"node":8,"path":"rotation"}},{"sampler":4,"target":{"node":8,"path":"translation"}},{"sampler":5,"target":{"node":8,"path":"scale"}},{"sampler":6,"target":{"node":9,"path":"rotation"}},{"sampler":7,"target":{"node":9,"path":"translation"}},{"sampler":8,"target":{"node":0,"path":"translation"}},{"sampler":9,"target":{"node":1,"path":"rotation"}},{"sampler":10,"target":{"node":1,"path":"translation"}}]}],"bufferViews":[{"buffer":0,"byteOffset":0,"byteLength":4},{"buffer":0,"byteOffset":4,"byteLength":16},{"buffer":0,"byteOffset":20,"byteLength":4},{"buffer":0,"byteOffset":24,"byteLength":12},{"buffer":0,"byteOffset":36,"byteLength":4},{"buffer":0,"byteOffset":40,"byteLength":12},{"buffer":0,"byteOffset":52,"byteLength":208},{"buffer":0,"byteOffset":260,"byteLength":832},{"buffer":0,"byteOffset":1092,"byteLength":200},{"buffer":0,"byteOffset":1292,"byteLength":600},{"buffer":0,"byteOffset":1892,"byteLength":4},{"buffer":0,"byteOffset":1896,"byteLength":12},{"buffer":0,"byteOffset":1908,"byteLength":236},{"buffer":0,"byteOffset":2144,"byteLength":944},{"buffer":0,"byteOffset":3088,"byteLength":232},{"buffer":0,"byteOffset":3320,"byteLength":696},{"buffer":0,"byteOffset":4016,"byteLength":20},{"buffer":0,"byteOffset":4036,"byteLength":60},{"buffer":0,"byteOffset":4096,"byteLength":40},{"buffer":0,"byteOffset":4136,"byteLength":160},{"buffer":0,"byteOffset":4296,"byteLength":40},{"buffer":0,"byteOffset":4336,"byteLength":120}],"buffers":[{"byteLength":4456,"uri":"data:application/octet-stream;base64,"}],"accessors":[{"bufferView":0,"componentType":5126,"count":1,"max":[0],"min":[0],"type":"SCALAR"},{"bufferView":1,"componentType":5126,"count":1,"max":[-0.03203072398900986,0.7336236238479614,-0.6781546473503113,-0.02960887737572193],"min":[-0.03203072398900986,0.7336236238479614,-0.6781546473503113,-0.02960887737572193],"type":"VEC4"},{"bufferView":2,"componentType":5126,"count":1,"max":[0],"min":[0],"type":"SCALAR"},{"bufferView":3,"componentType":5126,"count":1,"max":[0.01875000074505806,-0.02500000037252903,-0.03750000149011612],"min":[0.01875000074505806,-0.02500000037252903,-0.03750000149011612],"type":"VEC3"},{"bufferView":4,"componentType":5126,"count":1,"max":[0],"min":[0],"type":"SCALAR"},{"bufferView":5,"componentType":5126,"count":1,"max":[1,1.5,1],"min":[1,1.5,1],"type":"VEC3"},{"bufferView":6,"componentType":5126,"count":52,"max":[3.450000047683716],"min":[0],"type":"SCALAR"},{"bufferView":7,"componentType":5126,"count":52,"max":[0.393672376871109,0.8945760726928711,-0.32212358713150024,0.5262131690979004],"min":[-0.12466747313737869,0.6852177977561951,-0.6921796202659607,-0.2895766794681549],"type":"VEC4"},{"bufferView":8,"componentType":5126,"count":50,"max":[3.3499999046325684],"min":[0],"type":"SCALAR"},{"bufferView":9,"componentType":5126,"count":50,"max":[-0.03750000149011612,0.4318178594112396,-0.16759444773197174],"min":[-0.4802906811237335,-0.9563964605331421,-0.887499988079071],"type":"VEC3"},{"bufferView":10,"componentType":5126,"count":1,"max":[0],"min":[0],"type":"SCALAR"},{"bufferView":11,"componentType":5126,"count":1,"max":[1,1.5,1],"min":[1,1.5,1],"type":"VEC3"},{"bufferView":12,"componentType":5126,"count":59,"max":[3.950000047683716],"min":[0],"type":"SCALAR"},{"bufferView":13,"componentType":5126,"count":59,"max":[0.19251224398612976,0.1041550412774086,0.06716718524694443,1],"min":[-0.001589155406691134,-0.0008726376108825207,-0.22277800738811493,0.9547699093818665],"type":"VEC4"},{"bufferView":14,"componentType":5126,"count":58,"max":[3.8499999046325684],"min":[0],"type":"SCALAR"},{"bufferView":15,"componentType":5126,"count":58,"max":[0.5020833611488342,0.5956249833106995,1.058095932006836],"min":[0.3934027850627899,0.3425000011920929,0.8812500238418579],"type":"VEC3"},{"bufferView":16,"componentType":5126,"count":5,"max":[3.049999952316284],"min":[2.700000047683716],"type":"SCALAR"},{"bufferView":17,"componentType":5126,"count":5,"max":[0,0,0.3125],"min":[0,0,0],"type":"VEC3"},{"bufferView":18,"componentType":5126,"count":10,"max":[2.1500000953674316],"min":[0.75],"type":"SCALAR"},{"bufferView":19,"componentType":5126,"count":10,"max":[0.10452846437692642,0.0011161736911162734,0,1],"min":[-0.1736481785774231,-0.02782626636326313,-0.34088632464408875,0.9365774393081665],"type":"VEC4"},{"bufferView":20,"componentType":5126,"count":10,"max":[2.1500000953674316],"min":[0.75],"type":"SCALAR"},{"bufferView":21,"componentType":5126,"count":10,"max":[0,0,0.2981249988079071],"min":[-0.26249998807907104,-1.1124999523162842,-0.04374999925494194],"type":"VEC3"}]}