{"asset":{"version":"2.0","generator":"Blockbench 4.2.4 glTF exporter"},"scenes":[{"nodes":[10],"name":"blockbench_export"}],"scene":0,"nodes":[{"name":"bolt"},{"name":"magazine"},{"translation":[0,0.0625,-0.5],"name":"AA_12","children":[0,1]},{"name":"aa_12","children":[2]},{"translation":[0.375,-0.6875,0],"name":"RightHand"},{"translation":[-0.375,0.75,-0.5],"name":"R","children":[4]},{"name":"bone","children":[3,5]},{"translation":[-0.375,-0.6875,0],"name":"LeftHand"},{"translation":[0.375,0.75,-0.5],"name":"l","children":[7]},{"translation":[0.5,0.4375,1],"name":"bone2","children":[6,8]},{"children":[9]}],"animations":[{"name":"reload_norm","samplers":[{"input":0,"output":1,"interpolation":"LINEAR"},{"input":2,"output":3,"interpolation":"LINEAR"},{"input":4,"output":5,"interpolation":"LINEAR"},{"input":6,"output":7,"interpolation":"LINEAR"},{"input":8,"output":9,"interpolation":"LINEAR"},{"input":10,"output":11,"interpolation":"LINEAR"},{"input":12,"output":13,"interpolation":"LINEAR"},{"input":14,"output":15,"interpolation":"LINEAR"},{"input":16,"output":17,"interpolation":"LINEAR"},{"input":18,"output":19,"interpolation":"LINEAR"}],"channels":[{"sampler":0,"target":{"node":5,"path":"rotation"}},{"sampler":1,"target":{"node":5,"path":"translation"}},{"sampler":2,"target":{"node":5,"path":"scale"}},{"sampler":3,"target":{"node":8,"path":"rotation"}},{"sampler":4,"target":{"node":8,"path":"translation"}},{"sampler":5,"target":{"node":8,"path":"scale"}},{"sampler":6,"target":{"node":9,"path":"rotation"}},{"sampler":7,"target":{"node":9,"path":"translation"}},{"sampler":8,"target":{"node":1,"path":"rotation"}},{"sampler":9,"target":{"node":1,"path":"translation"}}]}],"bufferViews":[{"buffer":0,"byteOffset":0,"byteLength":4},{"buffer":0,"byteOffset":4,"byteLength":16},{"buffer":0,"byteOffset":20,"byteLength":4},{"buffer":0,"byteOffset":24,"byteLength":12},{"buffer":0,"byteOffset":36,"byteLength":4},{"buffer":0,"byteOffset":40,"byteLength":12},{"buffer":0,"byteOffset":52,"byteLength":192},{"buffer":0,"byteOffset":244,"byteLength":768},{"buffer":0,"byteOffset":1012,"byteLength":180},{"buffer":0,"byteOffset":1192,"byteLength":540},{"buffer":0,"byteOffset":1732,"byteLength":4},{"buffer":0,"byteOffset":1736,"byteLength":12},{"buffer":0,"byteOffset":1748,"byteLength":196},{"buffer":0,"byteOffset":1944,"byteLength":784},{"buffer":0,"byteOffset":2728,"byteLength":196},{"buffer":0,"byteOffset":2924,"byteLength":588},{"buffer":0,"byteOffset":3512,"byteLength":120},{"buffer":0,"byteOffset":3632,"byteLength":480},{"buffer":0,"byteOffset":4112,"byteLength":124},{"buffer":0,"byteOffset":4236,"byteLength":372}],"buffers":[{"byteLength":4608,"uri":"data:application/octet-stream;base64,"}],"accessors":[{"bufferView":0,"componentType":5126,"count":1,"max":[0],"min":[0],"type":"SCALAR"},{"bufferView":1,"componentType":5126,"count":1,"max":[-0.03203072398900986,0.7336236238479614,-0.6781546473503113,-0.02960887737572193],"min":[-0.03203072398900986,0.7336236238479614,-0.6781546473503113,-0.02960887737572193],"type":"VEC4"},{"bufferView":2,"componentType":5126,"count":1,"max":[0],"min":[0],"type":"SCALAR"},{"bufferView":3,"componentType":5126,"count":1,"max":[0.01875000074505806,-0.02500000037252903,-0.03750000149011612],"min":[0.01875000074505806,-0.02500000037252903,-0.03750000149011612],"type":"VEC3"},{"bufferView":4,"componentType":5126,"count":1,"max":[0],"min":[0],"type":"SCALAR"},{"bufferView":5,"componentType":5126,"count":1,"max":[1,1.5,1],"min":[1,1.5,1],"type":"VEC3"},{"bufferView":6,"componentType":5126,"count":48,"max":[2.799999952316284],"min":[0],"type":"SCALAR"},{"bufferView":7,"componentType":5126,"count":48,"max":[0.2106102705001831,0.7810678482055664,-0.46680358052253723,0.5248851180076599],"min":[-0.30345287919044495,0.5934486985206604,-0.6395288705825806,-0.11734214425086975],"type":"VEC4"},{"bufferView":8,"componentType":5126,"count":45,"max":[2.799999952316284],"min":[0],"type":"SCALAR"},{"bufferView":9,"componentType":5126,"count":45,"max":[-0.08090952783823013,0.1875,0.008124999701976776],"min":[-0.25687500834465027,-1.4578685760498047,-0.9125932455062866],"type":"VEC3"},{"bufferView":10,"componentType":5126,"count":1,"max":[0],"min":[0],"type":"SCALAR"},{"bufferView":11,"componentType":5126,"count":1,"max":[1,1.5,1],"min":[1,1.5,1],"type":"VEC3"},{"bufferView":12,"componentType":5126,"count":49,"max":[3.200000047683716],"min":[0],"type":"SCALAR"},{"bufferView":13,"componentType":5126,"count":49,"max":[0.2187659740447998,0.12343963980674744,0.032900527119636536,1],"min":[-0.013243808411061764,0,-0.34472891688346863,0.9085003733634949],"type":"VEC4"},{"bufferView":14,"componentType":5126,"count":49,"max":[3.1500000953674316],"min":[0],"type":"SCALAR"},{"bufferView":15,"componentType":5126,"count":49,"max":[0.5004788041114807,0.549905002117157,1.03125],"min":[0.3512499928474426,0.4357108175754547,0.8858941793441772],"type":"VEC3"},{"bufferView":16,"componentType":5126,"count":30,"max":[2.3499999046325684],"min":[0],"type":"SCALAR"},{"bufferView":17,"componentType":5126,"count":30,"max":[0.06103924289345741,0.01575484313070774,0.11647294461727142,1],"min":[-0.11210152506828308,-0.0038017123006284237,-0.13827846944332123,0.9839024543762207],"type":"VEC4"},{"bufferView":18,"componentType":5126,"count":31,"max":[2.3499999046325684],"min":[0],"type":"SCALAR"},{"bufferView":19,"componentType":5126,"count":31,"max":[0.013959304429590702,0,0.39996248483657837],"min":[-0.08002812415361404,-1.5860233306884766,-0.05999999865889549],"type":"VEC3"}]}