{"asset":{"version":"2.0","generator":"Blockbench 4.2.4 glTF exporter"},"scenes":[{"nodes":[10],"name":"blockbench_export"}],"scene":0,"nodes":[{"name":"bolt"},{"name":"magazine"},{"translation":[0,0.0625,-0.5],"name":"AA_12","children":[0,1]},{"name":"aa_12","children":[2]},{"translation":[0.375,-0.6875,0],"name":"RightHand"},{"translation":[-0.375,0.75,-0.5],"name":"R","children":[4]},{"name":"bone","children":[3,5]},{"translation":[-0.375,-0.6875,0],"name":"LeftHand"},{"translation":[0.375,0.75,-0.5],"name":"l","children":[7]},{"translation":[0.5,0.4375,1],"name":"bone2","children":[6,8]},{"children":[9]}],"animations":[{"name":"inspect","samplers":[{"input":0,"output":1,"interpolation":"LINEAR"},{"input":2,"output":3,"interpolation":"LINEAR"},{"input":4,"output":5,"interpolation":"LINEAR"},{"input":6,"output":7,"interpolation":"LINEAR"},{"input":8,"output":9,"interpolation":"LINEAR"},{"input":10,"output":11,"interpolation":"LINEAR"},{"input":12,"output":13,"interpolation":"LINEAR"},{"input":14,"output":15,"interpolation":"LINEAR"}],"channels":[{"sampler":0,"target":{"node":5,"path":"rotation"}},{"sampler":1,"target":{"node":5,"path":"translation"}},{"sampler":2,"target":{"node":5,"path":"scale"}},{"sampler":3,"target":{"node":8,"path":"rotation"}},{"sampler":4,"target":{"node":8,"path":"translation"}},{"sampler":5,"target":{"node":8,"path":"scale"}},{"sampler":6,"target":{"node":9,"path":"rotation"}},{"sampler":7,"target":{"node":9,"path":"translation"}}]}],"bufferViews":[{"buffer":0,"byteOffset":0,"byteLength":4},{"buffer":0,"byteOffset":4,"byteLength":16},{"buffer":0,"byteOffset":20,"byteLength":4},{"buffer":0,"byteOffset":24,"byteLength":12},{"buffer":0,"byteOffset":36,"byteLength":4},{"buffer":0,"byteOffset":40,"byteLength":12},{"buffer":0,"byteOffset":52,"byteLength":356},{"buffer":0,"byteOffset":408,"byteLength":1424},{"buffer":0,"byteOffset":1832,"byteLength":356},{"buffer":0,"byteOffset":2188,"byteLength":1068},{"buffer":0,"byteOffset":3256,"byteLength":4},{"buffer":0,"byteOffset":3260,"byteLength":12},{"buffer":0,"byteOffset":3272,"byteLength":364},{"buffer":0,"byteOffset":3636,"byteLength":1456},{"buffer":0,"byteOffset":5092,"byteLength":348},{"buffer":0,"byteOffset":5440,"byteLength":1044}],"buffers":[{"byteLength":6484,"uri":"data:application/octet-stream;base64,"}],"accessors":[{"bufferView":0,"componentType":5126,"count":1,"max":[0],"min":[0],"type":"SCALAR"},{"bufferView":1,"componentType":5126,"count":1,"max":[-0.03203072398900986,0.7336236238479614,-0.6781546473503113,-0.02960887737572193],"min":[-0.03203072398900986,0.7336236238479614,-0.6781546473503113,-0.02960887737572193],"type":"VEC4"},{"bufferView":2,"componentType":5126,"count":1,"max":[0],"min":[0],"type":"SCALAR"},{"bufferView":3,"componentType":5126,"count":1,"max":[0.01875000074505806,-0.02500000037252903,-0.03750000149011612],"min":[0.01875000074505806,-0.02500000037252903,-0.03750000149011612],"type":"VEC3"},{"bufferView":4,"componentType":5126,"count":1,"max":[0],"min":[0],"type":"SCALAR"},{"bufferView":5,"componentType":5126,"count":1,"max":[1,1.5,1],"min":[1,1.5,1],"type":"VEC3"},{"bufferView":6,"componentType":5126,"count":89,"max":[5.300000190734863],"min":[0],"type":"SCALAR"},{"bufferView":7,"componentType":5126,"count":89,"max":[0.15828309953212738,0.8289165496826172,-0.5140838623046875,0.4549982249736786],"min":[-0.1121026799082756,0.5547409057617188,-0.7146928310394287,-0.12482868134975433],"type":"VEC4"},{"bufferView":8,"componentType":5126,"count":89,"max":[5.300000190734863],"min":[0],"type":"SCALAR"},{"bufferView":9,"componentType":5126,"count":89,"max":[-0.08749999850988388,0.28123462200164795,-0.5343322157859802],"min":[-0.23650936782360077,-0.3330044746398926,-0.898566722869873],"type":"VEC3"},{"bufferView":10,"componentType":5126,"count":1,"max":[0],"min":[0],"type":"SCALAR"},{"bufferView":11,"componentType":5126,"count":1,"max":[1,1.5,1],"min":[1,1.5,1],"type":"VEC3"},{"bufferView":12,"componentType":5126,"count":91,"max":[5.550000190734863],"min":[0],"type":"SCALAR"},{"bufferView":13,"componentType":5126,"count":91,"max":[0.2788395285606384,0.1737052947282791,0.5216659903526306,1],"min":[-0.042460039258003235,-0.002678281394764781,-0.3846989870071411,0.7950198650360107],"type":"VEC4"},{"bufferView":14,"componentType":5126,"count":87,"max":[5.400000095367432],"min":[0],"type":"SCALAR"},{"bufferView":15,"componentType":5126,"count":87,"max":[0.5,0.59375,1.024999976158142],"min":[0.29684656858444214,0.3928379714488983,0.7644140720367432],"type":"VEC3"}]}