{"asset":{"version":"2.0","generator":"Blockbench 4.2.4 glTF exporter"},"scenes":[{"nodes":[11],"name":"blockbench_export"}],"scene":0,"nodes":[{"translation":[0.375,-0.6875,0],"name":"RightHand"},{"translation":[-0.375,0.75,-0.25],"name":"R","children":[0]},{"name":"bolt_fix2"},{"translation":[0,-0.04999999999999999,0.625],"name":"bolt_rotate2"},{"translation":[0,-0.31962250000000003,0.44089750000000005],"name":"magazine2"},{"translation":[0,0.0625,-0.25],"name":"group35","children":[2,3,4]},{"translation":[0,-0.07500000000000001,0.19999999999999996],"name":"762mmx51bullet3"},{"translation":[0,0.1875,-0.5],"name":"bone","children":[1,5,6]},{"translation":[-0.375,-0.6875,0],"name":"LeftHand"},{"translation":[0.375,0.9375,-0.75],"name":"l","children":[8]},{"translation":[0.5,0.25,1.25],"name":"bone2","children":[7,9]},{"children":[10]}],"animations":[{"name":"inspect","samplers":[{"input":0,"output":1,"interpolation":"LINEAR"},{"input":2,"output":3,"interpolation":"LINEAR"},{"input":4,"output":5,"interpolation":"LINEAR"},{"input":6,"output":7,"interpolation":"LINEAR"},{"input":8,"output":9,"interpolation":"LINEAR"},{"input":10,"output":11,"interpolation":"LINEAR"},{"input":12,"output":13,"interpolation":"LINEAR"},{"input":14,"output":15,"interpolation":"LINEAR"},{"input":16,"output":17,"interpolation":"LINEAR"},{"input":18,"output":19,"interpolation":"LINEAR"}],"channels":[{"sampler":0,"target":{"node":1,"path":"rotation"}},{"sampler":1,"target":{"node":1,"path":"translation"}},{"sampler":2,"target":{"node":1,"path":"scale"}},{"sampler":3,"target":{"node":9,"path":"rotation"}},{"sampler":4,"target":{"node":9,"path":"translation"}},{"sampler":5,"target":{"node":9,"path":"scale"}},{"sampler":6,"target":{"node":10,"path":"rotation"}},{"sampler":7,"target":{"node":10,"path":"translation"}},{"sampler":8,"target":{"node":7,"path":"rotation"}},{"sampler":9,"target":{"node":7,"path":"translation"}}]}],"bufferViews":[{"buffer":0,"byteOffset":0,"byteLength":4},{"buffer":0,"byteOffset":4,"byteLength":16},{"buffer":0,"byteOffset":20,"byteLength":4},{"buffer":0,"byteOffset":24,"byteLength":12},{"buffer":0,"byteOffset":36,"byteLength":4},{"buffer":0,"byteOffset":40,"byteLength":12},{"buffer":0,"byteOffset":52,"byteLength":184},{"buffer":0,"byteOffset":236,"byteLength":736},{"buffer":0,"byteOffset":972,"byteLength":180},{"buffer":0,"byteOffset":1152,"byteLength":540},{"buffer":0,"byteOffset":1692,"byteLength":4},{"buffer":0,"byteOffset":1696,"byteLength":12},{"buffer":0,"byteOffset":1708,"byteLength":272},{"buffer":0,"byteOffset":1980,"byteLength":1088},{"buffer":0,"byteOffset":3068,"byteLength":308},{"buffer":0,"byteOffset":3376,"byteLength":924},{"buffer":0,"byteOffset":4300,"byteLength":288},{"buffer":0,"byteOffset":4588,"byteLength":1152},{"buffer":0,"byteOffset":5740,"byteLength":244},{"buffer":0,"byteOffset":5984,"byteLength":732}],"buffers":[{"byteLength":6716,"uri":"data:application/octet-stream;base64,"}],"accessors":[{"bufferView":0,"componentType":5126,"count":1,"max":[0],"min":[0],"type":"SCALAR"},{"bufferView":1,"componentType":5126,"count":1,"max":[0.10603892803192139,-0.7920992970466614,0.6010925769805908,0.0047093406319618225],"min":[0.10603892803192139,-0.7920992970466614,0.6010925769805908,0.0047093406319618225],"type":"VEC4"},{"bufferView":2,"componentType":5126,"count":1,"max":[0],"min":[0],"type":"SCALAR"},{"bufferView":3,"componentType":5126,"count":1,"max":[0.0625,-0.21250000596046448,0.512499988079071],"min":[0.0625,-0.21250000596046448,0.512499988079071],"type":"VEC3"},{"bufferView":4,"componentType":5126,"count":1,"max":[0],"min":[0],"type":"SCALAR"},{"bufferView":5,"componentType":5126,"count":1,"max":[1,1.5,1],"min":[1,1.5,1],"type":"VEC3"},{"bufferView":6,"componentType":5126,"count":46,"max":[4.5],"min":[0],"type":"SCALAR"},{"bufferView":7,"componentType":5126,"count":46,"max":[0.14021943509578705,-0.5999351143836975,0.512414276599884,-0.4854765832424164],"min":[0.05244741961359978,-0.7237971425056458,0.34219375252723694,-0.7187193632125854],"type":"VEC4"},{"bufferView":8,"componentType":5126,"count":45,"max":[4.5],"min":[0],"type":"SCALAR"},{"bufferView":9,"componentType":5126,"count":45,"max":[-0.06875000149011612,0.01875000074505806,-0.5734723210334778],"min":[-0.3261111080646515,-0.07437500357627869,-0.96875],"type":"VEC3"},{"bufferView":10,"componentType":5126,"count":1,"max":[0],"min":[0],"type":"SCALAR"},{"bufferView":11,"componentType":5126,"count":1,"max":[1,1.5,1],"min":[1,1.5,1],"type":"VEC3"},{"bufferView":12,"componentType":5126,"count":68,"max":[4.949999809265137],"min":[0],"type":"SCALAR"},{"bufferView":13,"componentType":5126,"count":68,"max":[0.15108023583889008,0.02701861783862114,0.025933386757969856,1],"min":[-0.028850967064499855,-0.004969622008502483,-0.1050201952457428,0.9832462072372437],"type":"VEC4"},{"bufferView":14,"componentType":5126,"count":77,"max":[5],"min":[0],"type":"SCALAR"},{"bufferView":15,"componentType":5126,"count":77,"max":[0.5006992816925049,0.2753164768218994,1.3250000476837158],"min":[0.48079222440719604,0.19097734987735748,1.2143750190734863],"type":"VEC3"},{"bufferView":16,"componentType":5126,"count":72,"max":[4.5],"min":[0],"type":"SCALAR"},{"bufferView":17,"componentType":5126,"count":72,"max":[0.12554612755775452,0.19383671879768372,0.5774465203285217,1],"min":[-0.07100149989128113,-0.00021822479902766645,-0.2742054760456085,0.8067173957824707],"type":"VEC4"},{"bufferView":18,"componentType":5126,"count":61,"max":[4.5],"min":[0],"type":"SCALAR"},{"bufferView":19,"componentType":5126,"count":61,"max":[0,0.19374999403953552,-0.5],"min":[-0.18736325204372406,0.15625,-0.623796284198761],"type":"VEC3"}]}