{"asset":{"version":"2.0","generator":"Blockbench 4.2.4 glTF exporter"},"scenes":[{"nodes":[11],"name":"blockbench_export"}],"scene":0,"nodes":[{"translation":[0.375,-0.6875,0],"name":"RightHand"},{"translation":[-0.375,0.75,-0.25],"name":"R","children":[0]},{"name":"bolt_fix2"},{"translation":[0,-0.04999999999999999,0.625],"name":"bolt_rotate2"},{"translation":[0,-0.31962250000000003,0.44089750000000005],"name":"magazine2"},{"translation":[0,0.0625,-0.25],"name":"group35","children":[2,3,4]},{"translation":[0,-0.07500000000000001,0.19999999999999996],"name":"762mmx51bullet3"},{"translation":[0,0.1875,-0.5],"name":"bone","children":[1,5,6]},{"translation":[-0.375,-0.6875,0],"name":"LeftHand"},{"translation":[0.375,0.9375,-0.75],"name":"l","children":[8]},{"translation":[0.5,0.25,1.25],"name":"bone2","children":[7,9]},{"children":[10]}],"animations":[{"name":"reload_empty","samplers":[{"input":0,"output":1,"interpolation":"LINEAR"},{"input":2,"output":3,"interpolation":"LINEAR"},{"input":4,"output":5,"interpolation":"LINEAR"},{"input":6,"output":7,"interpolation":"LINEAR"},{"input":8,"output":9,"interpolation":"LINEAR"},{"input":10,"output":11,"interpolation":"LINEAR"},{"input":12,"output":13,"interpolation":"LINEAR"},{"input":14,"output":15,"interpolation":"LINEAR"},{"input":16,"output":17,"interpolation":"LINEAR"},{"input":18,"output":19,"interpolation":"LINEAR"},{"input":20,"output":21,"interpolation":"LINEAR"},{"input":22,"output":23,"interpolation":"LINEAR"},{"input":24,"output":25,"interpolation":"LINEAR"},{"input":26,"output":27,"interpolation":"LINEAR"},{"input":28,"output":29,"interpolation":"LINEAR"},{"input":30,"output":31,"interpolation":"LINEAR"},{"input":32,"output":33,"interpolation":"LINEAR"}],"channels":[{"sampler":0,"target":{"node":1,"path":"rotation"}},{"sampler":1,"target":{"node":1,"path":"translation"}},{"sampler":2,"target":{"node":1,"path":"scale"}},{"sampler":3,"target":{"node":9,"path":"rotation"}},{"sampler":4,"target":{"node":9,"path":"translation"}},{"sampler":5,"target":{"node":9,"path":"scale"}},{"sampler":6,"target":{"node":10,"path":"rotation"}},{"sampler":7,"target":{"node":10,"path":"translation"}},{"sampler":8,"target":{"node":7,"path":"rotation"}},{"sampler":9,"target":{"node":7,"path":"translation"}},{"sampler":10,"target":{"node":2,"path":"translation"}},{"sampler":11,"target":{"node":3,"path":"rotation"}},{"sampler":12,"target":{"node":3,"path":"translation"}},{"sampler":13,"target":{"node":4,"path":"rotation"}},{"sampler":14,"target":{"node":4,"path":"translation"}},{"sampler":15,"target":{"node":6,"path":"rotation"}},{"sampler":16,"target":{"node":6,"path":"translation"}}]}],"bufferViews":[{"buffer":0,"byteOffset":0,"byteLength":252},{"buffer":0,"byteOffset":252,"byteLength":1008},{"buffer":0,"byteOffset":1260,"byteLength":244},{"buffer":0,"byteOffset":1504,"byteLength":732},{"buffer":0,"byteOffset":2236,"byteLength":4},{"buffer":0,"byteOffset":2240,"byteLength":12},{"buffer":0,"byteOffset":2252,"byteLength":208},{"buffer":0,"byteOffset":2460,"byteLength":832},{"buffer":0,"byteOffset":3292,"byteLength":208},{"buffer":0,"byteOffset":3500,"byteLength":624},{"buffer":0,"byteOffset":4124,"byteLength":4},{"buffer":0,"byteOffset":4128,"byteLength":12},{"buffer":0,"byteOffset":4140,"byteLength":248},{"buffer":0,"byteOffset":4388,"byteLength":992},{"buffer":0,"byteOffset":5380,"byteLength":236},{"buffer":0,"byteOffset":5616,"byteLength":708},{"buffer":0,"byteOffset":6324,"byteLength":180},{"buffer":0,"byteOffset":6504,"byteLength":720},{"buffer":0,"byteOffset":7224,"byteLength":164},{"buffer":0,"byteOffset":7388,"byteLength":492},{"buffer":0,"byteOffset":7880,"byteLength":28},{"buffer":0,"byteOffset":7908,"byteLength":84},{"buffer":0,"byteOffset":7992,"byteLength":20},{"buffer":0,"byteOffset":8012,"byteLength":80},{"buffer":0,"byteOffset":8092,"byteLength":32},{"buffer":0,"byteOffset":8124,"byteLength":96},{"buffer":0,"byteOffset":8220,"byteLength":64},{"buffer":0,"byteOffset":8284,"byteLength":256},{"buffer":0,"byteOffset":8540,"byteLength":64},{"buffer":0,"byteOffset":8604,"byteLength":192},{"buffer":0,"byteOffset":8796,"byteLength":20},{"buffer":0,"byteOffset":8816,"byteLength":80},{"buffer":0,"byteOffset":8896,"byteLength":36},{"buffer":0,"byteOffset":8932,"byteLength":108}],"buffers":[{"byteLength":9040,"uri":"data:application/octet-stream;base64,"}],"accessors":[{"bufferView":0,"componentType":5126,"count":63,"max":[3.549999952316284],"min":[0],"type":"SCALAR"},{"bufferView":1,"componentType":5126,"count":63,"max":[0.17276394367218018,-0.5869958400726318,0.6010925769805908,0.6614534258842468],"min":[-0.2739185392856598,-0.8327866196632385,0.2459038496017456,-0.0777057334780693],"type":"VEC4"},{"bufferView":2,"componentType":5126,"count":61,"max":[3.549999952316284],"min":[0],"type":"SCALAR"},{"bufferView":3,"componentType":5126,"count":61,"max":[0.25,0.03750000149011612,0.5456249713897705],"min":[0.039063628762960434,-0.2199999988079071,0.3125],"type":"VEC3"},{"bufferView":4,"componentType":5126,"count":1,"max":[0],"min":[0],"type":"SCALAR"},{"bufferView":5,"componentType":5126,"count":1,"max":[1,1.5,1],"min":[1,1.5,1],"type":"VEC3"},{"bufferView":6,"componentType":5126,"count":52,"max":[3.4000000953674316],"min":[0],"type":"SCALAR"},{"bufferView":7,"componentType":5126,"count":52,"max":[0.18218223750591278,-0.6770018935203552,0.5602320432662964,0.19324956834316254],"min":[-0.4615332782268524,-0.8693732023239136,0.2525971829891205,-0.5554898381233215],"type":"VEC4"},{"bufferView":8,"componentType":5126,"count":52,"max":[3.4000000953674316],"min":[0],"type":"SCALAR"},{"bufferView":9,"componentType":5126,"count":52,"max":[-0.06495225429534912,0.011524027213454247,0.07828491181135178],"min":[-0.5577312111854553,-0.896399736404419,-0.9894932508468628],"type":"VEC3"},{"bufferView":10,"componentType":5126,"count":1,"max":[0],"min":[0],"type":"SCALAR"},{"bufferView":11,"componentType":5126,"count":1,"max":[1,1.5,1],"min":[1,1.5,1],"type":"VEC3"},{"bufferView":12,"componentType":5126,"count":62,"max":[3.950000047683716],"min":[0],"type":"SCALAR"},{"bufferView":13,"componentType":5126,"count":62,"max":[0.11063676327466965,0.035238612443208694,0.03641911968588829,1],"min":[-0.01760535128414631,-0.010570456273853779,-0.08533208817243576,0.990999698638916],"type":"VEC4"},{"bufferView":14,"componentType":5126,"count":59,"max":[3.9000000953674316],"min":[0],"type":"SCALAR"},{"bufferView":15,"componentType":5126,"count":59,"max":[0.53125,0.2750000059604645,1.274999976158142],"min":[0.49284443259239197,0.21875,1.169374942779541],"type":"VEC3"},{"bufferView":16,"componentType":5126,"count":45,"max":[3.450000047683716],"min":[0],"type":"SCALAR"},{"bufferView":17,"componentType":5126,"count":45,"max":[0.18142163753509521,0.014537322334945202,0.04361770674586296,1],"min":[-0.0332297720015049,-0.02085031010210514,-0.28944021463394165,0.946962833404541],"type":"VEC4"},{"bufferView":18,"componentType":5126,"count":41,"max":[3.4000000953674316],"min":[0],"type":"SCALAR"},{"bufferView":19,"componentType":5126,"count":41,"max":[0.07500000298023224,0.3062500059604645,-0.4749999940395355],"min":[0,0.1875,-0.53125],"type":"VEC3"},{"bufferView":20,"componentType":5126,"count":7,"max":[3.25],"min":[0.15000000596046448],"type":"SCALAR"},{"bufferView":21,"componentType":5126,"count":7,"max":[0,0,0.19374999403953552],"min":[0,0,0],"type":"VEC3"},{"bufferView":22,"componentType":5126,"count":5,"max":[3.299999952316284],"min":[0.05000000074505806],"type":"SCALAR"},{"bufferView":23,"componentType":5126,"count":5,"max":[0,0,0.4617486000061035,1],"min":[0,0,0,0.8870108127593994],"type":"VEC4"},{"bufferView":24,"componentType":5126,"count":8,"max":[3.25],"min":[0.05000000074505806],"type":"SCALAR"},{"bufferView":25,"componentType":5126,"count":8,"max":[0,-0.05000000074505806,0.8187500238418579],"min":[0,-0.05000000074505806,0.625],"type":"VEC3"},{"bufferView":26,"componentType":5126,"count":16,"max":[2.3499999046325684],"min":[0],"type":"SCALAR"},{"bufferView":27,"componentType":5126,"count":16,"max":[0.08947692811489105,0.02640204131603241,0.061048541218042374,1],"min":[-0.08614040911197662,-0.011676941066980362,-0.15329881012439728,0.984597384929657],"type":"VEC4"},{"bufferView":28,"componentType":5126,"count":16,"max":[2.3499999046325684],"min":[0],"type":"SCALAR"},{"bufferView":29,"componentType":5126,"count":16,"max":[0.05839774012565613,-0.3196224868297577,0.9221475124359131],"min":[-0.28125,-1.2133724689483643,0.3871474862098694],"type":"VEC3"},{"bufferView":30,"componentType":5126,"count":5,"max":[0.6000000238418579],"min":[0.20000000298023224],"type":"SCALAR"},{"bufferView":31,"componentType":5126,"count":5,"max":[0.532634437084198,0.7961608171463013,0.27951937913894653,1],"min":[-0.5237040519714355,-0.4685958921909332,-0.5986294746398926,0.06134366989135742],"type":"VEC4"},{"bufferView":32,"componentType":5126,"count":9,"max":[0.699999988079071],"min":[0],"type":"SCALAR"},{"bufferView":33,"componentType":5126,"count":9,"max":[1.8562500476837158,0.2844907343387604,0.17499999701976776],"min":[0,-1.618749976158142,0.17499999701976776],"type":"VEC3"}]}