{"asset":{"version":"2.0","generator":"Blockbench 4.2.4 glTF exporter"},"scenes":[{"nodes":[11],"name":"blockbench_export"}],"scene":0,"nodes":[{"translation":[0.375,-0.6875,0],"name":"RightHand"},{"translation":[-0.375,0.75,-0.25],"name":"R","children":[0]},{"name":"bolt_fix2"},{"translation":[0,-0.04999999999999999,0.625],"name":"bolt_rotate2"},{"translation":[0,-0.31962250000000003,0.44089750000000005],"name":"magazine2"},{"translation":[0,0.0625,-0.25],"name":"group35","children":[2,3,4]},{"translation":[0,-0.07500000000000001,0.19999999999999996],"name":"762mmx51bullet3"},{"translation":[0,0.1875,-0.5],"name":"bone","children":[1,5,6]},{"translation":[-0.375,-0.6875,0],"name":"LeftHand"},{"translation":[0.375,0.9375,-0.75],"name":"l","children":[8]},{"translation":[0.5,0.25,1.25],"name":"bone2","children":[7,9]},{"children":[10]}],"animations":[{"name":"draw","samplers":[{"input":0,"output":1,"interpolation":"LINEAR"},{"input":2,"output":3,"interpolation":"LINEAR"},{"input":4,"output":5,"interpolation":"LINEAR"},{"input":6,"output":7,"interpolation":"LINEAR"},{"input":8,"output":9,"interpolation":"LINEAR"},{"input":10,"output":11,"interpolation":"LINEAR"},{"input":12,"output":13,"interpolation":"LINEAR"},{"input":14,"output":15,"interpolation":"LINEAR"},{"input":16,"output":17,"interpolation":"LINEAR"},{"input":18,"output":19,"interpolation":"LINEAR"}],"channels":[{"sampler":0,"target":{"node":1,"path":"rotation"}},{"sampler":1,"target":{"node":1,"path":"translation"}},{"sampler":2,"target":{"node":1,"path":"scale"}},{"sampler":3,"target":{"node":9,"path":"rotation"}},{"sampler":4,"target":{"node":9,"path":"translation"}},{"sampler":5,"target":{"node":9,"path":"scale"}},{"sampler":6,"target":{"node":10,"path":"rotation"}},{"sampler":7,"target":{"node":10,"path":"translation"}},{"sampler":8,"target":{"node":7,"path":"rotation"}},{"sampler":9,"target":{"node":7,"path":"translation"}}]}],"bufferViews":[{"buffer":0,"byteOffset":0,"byteLength":4},{"buffer":0,"byteOffset":4,"byteLength":16},{"buffer":0,"byteOffset":20,"byteLength":4},{"buffer":0,"byteOffset":24,"byteLength":12},{"buffer":0,"byteOffset":36,"byteLength":4},{"buffer":0,"byteOffset":40,"byteLength":12},{"buffer":0,"byteOffset":52,"byteLength":64},{"buffer":0,"byteOffset":116,"byteLength":256},{"buffer":0,"byteOffset":372,"byteLength":64},{"buffer":0,"byteOffset":436,"byteLength":192},{"buffer":0,"byteOffset":628,"byteLength":4},{"buffer":0,"byteOffset":632,"byteLength":12},{"buffer":0,"byteOffset":644,"byteLength":64},{"buffer":0,"byteOffset":708,"byteLength":256},{"buffer":0,"byteOffset":964,"byteLength":68},{"buffer":0,"byteOffset":1032,"byteLength":204},{"buffer":0,"byteOffset":1236,"byteLength":4},{"buffer":0,"byteOffset":1240,"byteLength":16},{"buffer":0,"byteOffset":1256,"byteLength":4},{"buffer":0,"byteOffset":1260,"byteLength":12}],"buffers":[{"byteLength":1272,"uri":"data:application/octet-stream;base64,"}],"accessors":[{"bufferView":0,"componentType":5126,"count":1,"max":[0],"min":[0],"type":"SCALAR"},{"bufferView":1,"componentType":5126,"count":1,"max":[0.10603892803192139,-0.7920992970466614,0.6010925769805908,0.0047093406319618225],"min":[0.10603892803192139,-0.7920992970466614,0.6010925769805908,0.0047093406319618225],"type":"VEC4"},{"bufferView":2,"componentType":5126,"count":1,"max":[0],"min":[0],"type":"SCALAR"},{"bufferView":3,"componentType":5126,"count":1,"max":[0.0625,-0.21250000596046448,0.512499988079071],"min":[0.0625,-0.21250000596046448,0.512499988079071],"type":"VEC3"},{"bufferView":4,"componentType":5126,"count":1,"max":[0],"min":[0],"type":"SCALAR"},{"bufferView":5,"componentType":5126,"count":1,"max":[1,1.5,1],"min":[1,1.5,1],"type":"VEC3"},{"bufferView":6,"componentType":5126,"count":16,"max":[0.8999999761581421],"min":[0],"type":"SCALAR"},{"bufferView":7,"componentType":5126,"count":16,"max":[0.28559017181396484,-0.3335230052471161,0.5995250344276428,-0.48020854592323303],"min":[0.07848716527223587,-0.6993777751922607,0.4706330895423889,-0.6714945435523987],"type":"VEC4"},{"bufferView":8,"componentType":5126,"count":16,"max":[0.8999999761581421],"min":[0],"type":"SCALAR"},{"bufferView":9,"componentType":5126,"count":16,"max":[-0.0062500000931322575,0,-0.71875],"min":[-0.06875000149011612,-0.0625,-0.96875],"type":"VEC3"},{"bufferView":10,"componentType":5126,"count":1,"max":[0],"min":[0],"type":"SCALAR"},{"bufferView":11,"componentType":5126,"count":1,"max":[1,1.5,1],"min":[1,1.5,1],"type":"VEC3"},{"bufferView":12,"componentType":5126,"count":16,"max":[1.0499999523162842],"min":[0],"type":"SCALAR"},{"bufferView":13,"componentType":5126,"count":16,"max":[0.7832596302032471,0.09060589224100113,0.06540312618017197,1],"min":[-0.0431787446141243,-0.008808313868939877,-0.10310367494821548,0.6216947436332703],"type":"VEC4"},{"bufferView":14,"componentType":5126,"count":17,"max":[1.100000023841858],"min":[0],"type":"SCALAR"},{"bufferView":15,"componentType":5126,"count":17,"max":[1.0625,0.25187501311302185,1.375],"min":[0.49872684478759766,-2,1.0006250143051147],"type":"VEC3"},{"bufferView":16,"componentType":5126,"count":1,"max":[0],"min":[0],"type":"SCALAR"},{"bufferView":17,"componentType":5126,"count":1,"max":[0,0,0,1],"min":[0,0,0,1],"type":"VEC4"},{"bufferView":18,"componentType":5126,"count":1,"max":[0],"min":[0],"type":"SCALAR"},{"bufferView":19,"componentType":5126,"count":1,"max":[0,0.1875,-0.5],"min":[0,0.1875,-0.5],"type":"VEC3"}]}