{"asset":{"version":"2.0","generator":"Blockbench 4.2.4 glTF exporter"},"scenes":[{"nodes":[11],"name":"blockbench_export"}],"scene":0,"nodes":[{"translation":[0.375,-0.6875,0],"name":"RightHand"},{"translation":[-0.375,0.75,-0.25],"name":"R","children":[0]},{"name":"bolt_fix2"},{"translation":[0,-0.04999999999999999,0.625],"name":"bolt_rotate2"},{"translation":[0,-0.31962250000000003,0.44089750000000005],"name":"magazine2"},{"translation":[0,0.0625,-0.25],"name":"group35","children":[2,3,4]},{"translation":[0,-0.07500000000000001,0.19999999999999996],"name":"762mmx51bullet3"},{"translation":[0,0.1875,-0.5],"name":"bone","children":[1,5,6]},{"translation":[-0.375,-0.6875,0],"name":"LeftHand"},{"translation":[0.375,0.9375,-0.75],"name":"l","children":[8]},{"translation":[0.5,0.25,1.25],"name":"bone2","children":[7,9]},{"children":[10]}],"animations":[{"name":"Bolt_on","samplers":[{"input":0,"output":1,"interpolation":"LINEAR"},{"input":2,"output":3,"interpolation":"LINEAR"},{"input":4,"output":5,"interpolation":"LINEAR"},{"input":6,"output":7,"interpolation":"LINEAR"},{"input":8,"output":9,"interpolation":"LINEAR"},{"input":10,"output":11,"interpolation":"LINEAR"},{"input":12,"output":13,"interpolation":"LINEAR"},{"input":14,"output":15,"interpolation":"LINEAR"},{"input":16,"output":17,"interpolation":"LINEAR"},{"input":18,"output":19,"interpolation":"LINEAR"},{"input":20,"output":21,"interpolation":"LINEAR"},{"input":22,"output":23,"interpolation":"LINEAR"},{"input":24,"output":25,"interpolation":"LINEAR"}],"channels":[{"sampler":0,"target":{"node":1,"path":"rotation"}},{"sampler":1,"target":{"node":1,"path":"translation"}},{"sampler":2,"target":{"node":1,"path":"scale"}},{"sampler":3,"target":{"node":9,"path":"rotation"}},{"sampler":4,"target":{"node":9,"path":"translation"}},{"sampler":5,"target":{"node":9,"path":"scale"}},{"sampler":6,"target":{"node":10,"path":"rotation"}},{"sampler":7,"target":{"node":10,"path":"translation"}},{"sampler":8,"target":{"node":2,"path":"translation"}},{"sampler":9,"target":{"node":3,"path":"rotation"}},{"sampler":10,"target":{"node":3,"path":"translation"}},{"sampler":11,"target":{"node":6,"path":"rotation"}},{"sampler":12,"target":{"node":6,"path":"translation"}}]}],"bufferViews":[{"buffer":0,"byteOffset":0,"byteLength":72},{"buffer":0,"byteOffset":72,"byteLength":288},{"buffer":0,"byteOffset":360,"byteLength":68},{"buffer":0,"byteOffset":428,"byteLength":204},{"buffer":0,"byteOffset":632,"byteLength":4},{"buffer":0,"byteOffset":636,"byteLength":12},{"buffer":0,"byteOffset":648,"byteLength":4},{"buffer":0,"byteOffset":652,"byteLength":16},{"buffer":0,"byteOffset":668,"byteLength":4},{"buffer":0,"byteOffset":672,"byteLength":12},{"buffer":0,"byteOffset":684,"byteLength":4},{"buffer":0,"byteOffset":688,"byteLength":12},{"buffer":0,"byteOffset":700,"byteLength":72},{"buffer":0,"byteOffset":772,"byteLength":288},{"buffer":0,"byteOffset":1060,"byteLength":72},{"buffer":0,"byteOffset":1132,"byteLength":216},{"buffer":0,"byteOffset":1348,"byteLength":20},{"buffer":0,"byteOffset":1368,"byteLength":60},{"buffer":0,"byteOffset":1428,"byteLength":24},{"buffer":0,"byteOffset":1452,"byteLength":96},{"buffer":0,"byteOffset":1548,"byteLength":24},{"buffer":0,"byteOffset":1572,"byteLength":72},{"buffer":0,"byteOffset":1644,"byteLength":16},{"buffer":0,"byteOffset":1660,"byteLength":64},{"buffer":0,"byteOffset":1724,"byteLength":36},{"buffer":0,"byteOffset":1760,"byteLength":108}],"buffers":[{"byteLength":1868,"uri":"data:application/octet-stream;base64,"}],"accessors":[{"bufferView":0,"componentType":5126,"count":18,"max":[1],"min":[0],"type":"SCALAR"},{"bufferView":1,"componentType":5126,"count":18,"max":[0.3989964723587036,-0.5928797125816345,0.6216395497322083,0.6436334848403931],"min":[-0.2739185392856598,-0.9553598761558533,0.11520640552043915,-0.6215346455574036],"type":"VEC4"},{"bufferView":2,"componentType":5126,"count":17,"max":[1.0499999523162842],"min":[0],"type":"SCALAR"},{"bufferView":3,"componentType":5126,"count":17,"max":[0.25,0.03750000149011612,0.512499988079071],"min":[0.0625,-0.22031250596046448,0.3125],"type":"VEC3"},{"bufferView":4,"componentType":5126,"count":1,"max":[0],"min":[0],"type":"SCALAR"},{"bufferView":5,"componentType":5126,"count":1,"max":[1,1.5,1],"min":[1,1.5,1],"type":"VEC3"},{"bufferView":6,"componentType":5126,"count":1,"max":[0],"min":[0],"type":"SCALAR"},{"bufferView":7,"componentType":5126,"count":1,"max":[0.12978219985961914,-0.6917144060134888,0.49827730655670166,-0.5063669085502625],"min":[0.12978219985961914,-0.6917144060134888,0.49827730655670166,-0.5063669085502625],"type":"VEC4"},{"bufferView":8,"componentType":5126,"count":1,"max":[0],"min":[0],"type":"SCALAR"},{"bufferView":9,"componentType":5126,"count":1,"max":[-0.06875000149011612,0,-0.96875],"min":[-0.06875000149011612,0,-0.96875],"type":"VEC3"},{"bufferView":10,"componentType":5126,"count":1,"max":[0],"min":[0],"type":"SCALAR"},{"bufferView":11,"componentType":5126,"count":1,"max":[1,1.5,1],"min":[1,1.5,1],"type":"VEC3"},{"bufferView":12,"componentType":5126,"count":18,"max":[1.100000023841858],"min":[0],"type":"SCALAR"},{"bufferView":13,"componentType":5126,"count":18,"max":[0.01745704375207424,0.00030447301105596125,0.04361138492822647,1],"min":[-0.008726452477276325,-0.0002495103108230978,-0.008726241067051888,0.9988960027694702],"type":"VEC4"},{"bufferView":14,"componentType":5126,"count":18,"max":[1.100000023841858],"min":[0],"type":"SCALAR"},{"bufferView":15,"componentType":5126,"count":18,"max":[0.5,0.25687500834465027,1.287500023841858],"min":[0.5,0.25,1.25],"type":"VEC3"},{"bufferView":16,"componentType":5126,"count":5,"max":[0.550000011920929],"min":[0.25],"type":"SCALAR"},{"bufferView":17,"componentType":5126,"count":5,"max":[0,0,0.19374999403953552],"min":[0,0,0],"type":"VEC3"},{"bufferView":18,"componentType":5126,"count":6,"max":[0.75],"min":[0.15000000596046448],"type":"SCALAR"},{"bufferView":19,"componentType":5126,"count":6,"max":[0,0,0.4617486000061035,1],"min":[0,0,0,0.8870108127593994],"type":"VEC4"},{"bufferView":20,"componentType":5126,"count":6,"max":[0.550000011920929],"min":[0.15000000596046448],"type":"SCALAR"},{"bufferView":21,"componentType":5126,"count":6,"max":[0,-0.05000000074505806,0.8187500238418579],"min":[0,-0.05000000074505806,0.625],"type":"VEC3"},{"bufferView":22,"componentType":5126,"count":4,"max":[0.6000000238418579],"min":[0.25],"type":"SCALAR"},{"bufferView":23,"componentType":5126,"count":4,"max":[0.15890920162200928,0.7147564888000488,0.6682462692260742,1],"min":[-0.9851608872413635,-0.4685958921909332,-0.028660552576184273,-0.13159765303134918],"type":"VEC4"},{"bufferView":24,"componentType":5126,"count":9,"max":[0.75],"min":[0],"type":"SCALAR"},{"bufferView":25,"componentType":5126,"count":9,"max":[1.8562500476837158,0.15312500298023224,0.17499999701976776],"min":[0,-1.618749976158142,0.17499999701976776],"type":"VEC3"}]}