{"asset":{"version":"2.0","generator":"Blockbench 4.2.4 glTF exporter"},"scenes":[{"nodes":[11],"name":"blockbench_export"}],"scene":0,"nodes":[{"translation":[0.375,-0.6875,0],"name":"RightHand"},{"translation":[-0.375,0.75,-0.25],"name":"R","children":[0]},{"name":"bolt_fix2"},{"translation":[0,-0.04999999999999999,0.625],"name":"bolt_rotate2"},{"translation":[0,-0.31962250000000003,0.44089750000000005],"name":"magazine2"},{"translation":[0,0.0625,-0.25],"name":"group35","children":[2,3,4]},{"translation":[0,-0.07500000000000001,0.19999999999999996],"name":"762mmx51bullet3"},{"translation":[0,0.1875,-0.5],"name":"bone","children":[1,5,6]},{"translation":[-0.375,-0.6875,0],"name":"LeftHand"},{"translation":[0.375,0.9375,-0.75],"name":"l","children":[8]},{"translation":[0.5,0.25,1.25],"name":"bone2","children":[7,9]},{"children":[10]}],"animations":[{"name":"reload_norm","samplers":[{"input":0,"output":1,"interpolation":"LINEAR"},{"input":2,"output":3,"interpolation":"LINEAR"},{"input":4,"output":5,"interpolation":"LINEAR"},{"input":6,"output":7,"interpolation":"LINEAR"},{"input":8,"output":9,"interpolation":"LINEAR"},{"input":10,"output":11,"interpolation":"LINEAR"},{"input":12,"output":13,"interpolation":"LINEAR"},{"input":14,"output":15,"interpolation":"LINEAR"},{"input":16,"output":17,"interpolation":"LINEAR"},{"input":18,"output":19,"interpolation":"LINEAR"},{"input":20,"output":21,"interpolation":"LINEAR"},{"input":22,"output":23,"interpolation":"LINEAR"}],"channels":[{"sampler":0,"target":{"node":1,"path":"rotation"}},{"sampler":1,"target":{"node":1,"path":"translation"}},{"sampler":2,"target":{"node":1,"path":"scale"}},{"sampler":3,"target":{"node":9,"path":"rotation"}},{"sampler":4,"target":{"node":9,"path":"translation"}},{"sampler":5,"target":{"node":9,"path":"scale"}},{"sampler":6,"target":{"node":10,"path":"rotation"}},{"sampler":7,"target":{"node":10,"path":"translation"}},{"sampler":8,"target":{"node":7,"path":"rotation"}},{"sampler":9,"target":{"node":7,"path":"translation"}},{"sampler":10,"target":{"node":4,"path":"rotation"}},{"sampler":11,"target":{"node":4,"path":"translation"}}]}],"bufferViews":[{"buffer":0,"byteOffset":0,"byteLength":4},{"buffer":0,"byteOffset":4,"byteLength":16},{"buffer":0,"byteOffset":20,"byteLength":4},{"buffer":0,"byteOffset":24,"byteLength":12},{"buffer":0,"byteOffset":36,"byteLength":4},{"buffer":0,"byteOffset":40,"byteLength":12},{"buffer":0,"byteOffset":52,"byteLength":168},{"buffer":0,"byteOffset":220,"byteLength":672},{"buffer":0,"byteOffset":892,"byteLength":172},{"buffer":0,"byteOffset":1064,"byteLength":516},{"buffer":0,"byteOffset":1580,"byteLength":4},{"buffer":0,"byteOffset":1584,"byteLength":12},{"buffer":0,"byteOffset":1596,"byteLength":196},{"buffer":0,"byteOffset":1792,"byteLength":784},{"buffer":0,"byteOffset":2576,"byteLength":196},{"buffer":0,"byteOffset":2772,"byteLength":588},{"buffer":0,"byteOffset":3360,"byteLength":164},{"buffer":0,"byteOffset":3524,"byteLength":656},{"buffer":0,"byteOffset":4180,"byteLength":164},{"buffer":0,"byteOffset":4344,"byteLength":492},{"buffer":0,"byteOffset":4836,"byteLength":68},{"buffer":0,"byteOffset":4904,"byteLength":272},{"buffer":0,"byteOffset":5176,"byteLength":68},{"buffer":0,"byteOffset":5244,"byteLength":204}],"buffers":[{"byteLength":5448,"uri":"data:application/octet-stream;base64,"}],"accessors":[{"bufferView":0,"componentType":5126,"count":1,"max":[0],"min":[0],"type":"SCALAR"},{"bufferView":1,"componentType":5126,"count":1,"max":[0.10603892803192139,-0.7920992970466614,0.6010925769805908,0.0047093406319618225],"min":[0.10603892803192139,-0.7920992970466614,0.6010925769805908,0.0047093406319618225],"type":"VEC4"},{"bufferView":2,"componentType":5126,"count":1,"max":[0],"min":[0],"type":"SCALAR"},{"bufferView":3,"componentType":5126,"count":1,"max":[0.0625,-0.21250000596046448,0.512499988079071],"min":[0.0625,-0.21250000596046448,0.512499988079071],"type":"VEC3"},{"bufferView":4,"componentType":5126,"count":1,"max":[0],"min":[0],"type":"SCALAR"},{"bufferView":5,"componentType":5126,"count":1,"max":[1,1.5,1],"min":[1,1.5,1],"type":"VEC3"},{"bufferView":6,"componentType":5126,"count":42,"max":[2.6500000953674316],"min":[0],"type":"SCALAR"},{"bufferView":7,"componentType":5126,"count":42,"max":[0.1298104077577591,-0.6738030314445496,0.6052396893501282,0.19324956834316254],"min":[-0.4615332782268524,-0.8693732023239136,0.2525971829891205,-0.5896909236907959],"type":"VEC4"},{"bufferView":8,"componentType":5126,"count":43,"max":[2.6500000953674316],"min":[0],"type":"SCALAR"},{"bufferView":9,"componentType":5126,"count":43,"max":[-0.04244811832904816,0.018124999478459358,0.07843712717294693],"min":[-0.5577365159988403,-0.8964012265205383,-0.96875],"type":"VEC3"},{"bufferView":10,"componentType":5126,"count":1,"max":[0],"min":[0],"type":"SCALAR"},{"bufferView":11,"componentType":5126,"count":1,"max":[1,1.5,1],"min":[1,1.5,1],"type":"VEC3"},{"bufferView":12,"componentType":5126,"count":49,"max":[2.9000000953674316],"min":[0],"type":"SCALAR"},{"bufferView":13,"componentType":5126,"count":49,"max":[0.11063676327466965,0.035238612443208694,0,1],"min":[-0.061848897486925125,-0.010382057167589664,-0.07470005005598068,0.990999698638916],"type":"VEC4"},{"bufferView":14,"componentType":5126,"count":49,"max":[3],"min":[0],"type":"SCALAR"},{"bufferView":15,"componentType":5126,"count":49,"max":[0.53125,0.28125,1.2625000476837158],"min":[0.4929278790950775,0.20301233232021332,1.1838921308517456],"type":"VEC3"},{"bufferView":16,"componentType":5126,"count":41,"max":[2.5999999046325684],"min":[0],"type":"SCALAR"},{"bufferView":17,"componentType":5126,"count":41,"max":[0.18142163753509521,0.012695962563157082,0,1],"min":[-0.0050471085123717785,-0.0486544668674469,-0.28944021463394165,0.946962833404541],"type":"VEC4"},{"bufferView":18,"componentType":5126,"count":41,"max":[2.5999999046325684],"min":[0],"type":"SCALAR"},{"bufferView":19,"componentType":5126,"count":41,"max":[0.06921296566724777,0.3062988221645355,-0.4749999940395355],"min":[0,0.1817575991153717,-0.53125],"type":"VEC3"},{"bufferView":20,"componentType":5126,"count":17,"max":[1.9500000476837158],"min":[0],"type":"SCALAR"},{"bufferView":21,"componentType":5126,"count":17,"max":[0.08947692811489105,0.02640204131603241,0.017452405765652657,1],"min":[-0.08614040911197662,-0.014698599465191364,-0.15711760520935059,0.984597384929657],"type":"VEC4"},{"bufferView":22,"componentType":5126,"count":17,"max":[1.9500000476837158],"min":[0],"type":"SCALAR"},{"bufferView":23,"componentType":5126,"count":17,"max":[0.05839774012565613,-0.3196224868297577,0.9221475124359131],"min":[-0.28125,-1.2133724689483643,0.3871474862098694],"type":"VEC3"}]}