{"asset":{"version":"2.0","generator":"Blockbench 4.2.4 glTF exporter"},"scenes":[{"nodes":[10],"name":"blockbench_export"}],"scene":0,"nodes":[{"translation":[0,-0.125,-0.5],"name":"megazing_default"},{"translation":[0,-0.125,-0.5],"name":"megazing_default2"},{"translation":[-0.5,-0.375,-1],"name":"bolt"},{"name":"ak47","children":[0,1,2]},{"translation":[0.375,-0.6875,0],"name":"RightHand"},{"translation":[-0.375,0.8125,-0.5],"name":"R","children":[4]},{"name":"bone2","children":[3,5]},{"translation":[-0.375,-0.6875,0],"name":"LeftHand"},{"translation":[0.375,0.8125,-0.5],"name":"l","children":[7]},{"translation":[0.5,0.375,1],"name":"bone","children":[6,8]},{"children":[9]}],"animations":[{"name":"inspect","samplers":[{"input":0,"output":1,"interpolation":"LINEAR"},{"input":2,"output":3,"interpolation":"LINEAR"},{"input":4,"output":5,"interpolation":"LINEAR"},{"input":6,"output":7,"interpolation":"LINEAR"},{"input":8,"output":9,"interpolation":"LINEAR"},{"input":10,"output":11,"interpolation":"LINEAR"},{"input":12,"output":13,"interpolation":"LINEAR"},{"input":14,"output":15,"interpolation":"LINEAR"}],"channels":[{"sampler":0,"target":{"node":5,"path":"rotation"}},{"sampler":1,"target":{"node":5,"path":"translation"}},{"sampler":2,"target":{"node":5,"path":"scale"}},{"sampler":3,"target":{"node":8,"path":"rotation"}},{"sampler":4,"target":{"node":8,"path":"translation"}},{"sampler":5,"target":{"node":8,"path":"scale"}},{"sampler":6,"target":{"node":9,"path":"rotation"}},{"sampler":7,"target":{"node":9,"path":"translation"}}]}],"bufferViews":[{"buffer":0,"byteOffset":0,"byteLength":4},{"buffer":0,"byteOffset":4,"byteLength":16},{"buffer":0,"byteOffset":20,"byteLength":4},{"buffer":0,"byteOffset":24,"byteLength":12},{"buffer":0,"byteOffset":36,"byteLength":4},{"buffer":0,"byteOffset":40,"byteLength":12},{"buffer":0,"byteOffset":52,"byteLength":228},{"buffer":0,"byteOffset":280,"byteLength":912},{"buffer":0,"byteOffset":1192,"byteLength":216},{"buffer":0,"byteOffset":1408,"byteLength":648},{"buffer":0,"byteOffset":2056,"byteLength":4},{"buffer":0,"byteOffset":2060,"byteLength":12},{"buffer":0,"byteOffset":2072,"byteLength":344},{"buffer":0,"byteOffset":2416,"byteLength":1376},{"buffer":0,"byteOffset":3792,"byteLength":352},{"buffer":0,"byteOffset":4144,"byteLength":1056}],"buffers":[{"byteLength":5200,"uri":"data:application/octet-stream;base64,"}],"accessors":[{"bufferView":0,"componentType":5126,"count":1,"max":[0],"min":[0],"type":"SCALAR"},{"bufferView":1,"componentType":5126,"count":1,"max":[-0.033414360135793686,0.7653152942657471,-0.6421758532524109,-0.02803802862763405],"min":[-0.033414360135793686,0.7653152942657471,-0.6421758532524109,-0.02803802862763405],"type":"VEC4"},{"bufferView":2,"componentType":5126,"count":1,"max":[0],"min":[0],"type":"SCALAR"},{"bufferView":3,"componentType":5126,"count":1,"max":[0.01875000074505806,-0.07500000298023224,-0.03750000149011612],"min":[0.01875000074505806,-0.07500000298023224,-0.03750000149011612],"type":"VEC3"},{"bufferView":4,"componentType":5126,"count":1,"max":[0],"min":[0],"type":"SCALAR"},{"bufferView":5,"componentType":5126,"count":1,"max":[1,1.5,1],"min":[1,1.5,1],"type":"VEC3"},{"bufferView":6,"componentType":5126,"count":57,"max":[5.050000190734863],"min":[0],"type":"SCALAR"},{"bufferView":7,"componentType":5126,"count":57,"max":[0.1288091540336609,-0.6689535975456238,0.695633053779602,-0.0956273004412651],"min":[-0.2980654835700989,-0.738783597946167,0.5382931232452393,-0.4547587037086487],"type":"VEC4"},{"bufferView":8,"componentType":5126,"count":54,"max":[5.050000190734863],"min":[0],"type":"SCALAR"},{"bufferView":9,"componentType":5126,"count":54,"max":[0.1565767377614975,0.08124999701976776,0.20358234643936157],"min":[-0.23820437490940094,-0.9516853094100952,-1.03125],"type":"VEC3"},{"bufferView":10,"componentType":5126,"count":1,"max":[0],"min":[0],"type":"SCALAR"},{"bufferView":11,"componentType":5126,"count":1,"max":[1,1.5,1],"min":[1,1.5,1],"type":"VEC3"},{"bufferView":12,"componentType":5126,"count":86,"max":[5.5],"min":[0],"type":"SCALAR"},{"bufferView":13,"componentType":5126,"count":86,"max":[0.19476206600666046,0.13824611902236938,0.5419924259185791,1],"min":[-0.014271636493504047,-0.0032263845205307007,-0.43710508942604065,0.8189135789871216],"type":"VEC4"},{"bufferView":14,"componentType":5126,"count":88,"max":[5.5],"min":[0],"type":"SCALAR"},{"bufferView":15,"componentType":5126,"count":88,"max":[0.5006250143051147,0.43312498927116394,1.0250465869903564],"min":[0.4048349857330322,0.31453704833984375,0.9355092644691467],"type":"VEC3"}]}