{"asset":{"version":"2.0","generator":"Blockbench 4.2.4 glTF exporter"},"scenes":[{"nodes":[10],"name":"blockbench_export"}],"scene":0,"nodes":[{"translation":[0,-0.125,-0.5],"name":"megazing_default"},{"translation":[0,-0.125,-0.5],"name":"megazing_default2"},{"translation":[-0.5,-0.375,-1],"name":"bolt"},{"name":"ak47","children":[0,1,2]},{"translation":[0.375,-0.6875,0],"name":"RightHand"},{"translation":[-0.375,0.8125,-0.5],"name":"R","children":[4]},{"name":"bone2","children":[3,5]},{"translation":[-0.375,-0.6875,0],"name":"LeftHand"},{"translation":[0.375,0.8125,-0.5],"name":"l","children":[7]},{"translation":[0.5,0.375,1],"name":"bone","children":[6,8]},{"children":[9]}],"animations":[{"name":"draw","samplers":[{"input":0,"output":1,"interpolation":"LINEAR"},{"input":2,"output":3,"interpolation":"LINEAR"},{"input":4,"output":5,"interpolation":"LINEAR"},{"input":6,"output":7,"interpolation":"LINEAR"},{"input":8,"output":9,"interpolation":"LINEAR"},{"input":10,"output":11,"interpolation":"LINEAR"},{"input":12,"output":13,"interpolation":"LINEAR"},{"input":14,"output":15,"interpolation":"LINEAR"}],"channels":[{"sampler":0,"target":{"node":5,"path":"rotation"}},{"sampler":1,"target":{"node":5,"path":"translation"}},{"sampler":2,"target":{"node":5,"path":"scale"}},{"sampler":3,"target":{"node":8,"path":"rotation"}},{"sampler":4,"target":{"node":8,"path":"translation"}},{"sampler":5,"target":{"node":8,"path":"scale"}},{"sampler":6,"target":{"node":9,"path":"rotation"}},{"sampler":7,"target":{"node":9,"path":"translation"}}]}],"bufferViews":[{"buffer":0,"byteOffset":0,"byteLength":8},{"buffer":0,"byteOffset":8,"byteLength":32},{"buffer":0,"byteOffset":40,"byteLength":8},{"buffer":0,"byteOffset":48,"byteLength":24},{"buffer":0,"byteOffset":72,"byteLength":4},{"buffer":0,"byteOffset":76,"byteLength":12},{"buffer":0,"byteOffset":88,"byteLength":4},{"buffer":0,"byteOffset":92,"byteLength":16},{"buffer":0,"byteOffset":108,"byteLength":4},{"buffer":0,"byteOffset":112,"byteLength":12},{"buffer":0,"byteOffset":124,"byteLength":4},{"buffer":0,"byteOffset":128,"byteLength":12},{"buffer":0,"byteOffset":140,"byteLength":52},{"buffer":0,"byteOffset":192,"byteLength":208},{"buffer":0,"byteOffset":400,"byteLength":48},{"buffer":0,"byteOffset":448,"byteLength":144}],"buffers":[{"byteLength":592,"uri":"data:application/octet-stream;base64,"}],"accessors":[{"bufferView":0,"componentType":5126,"count":2,"max":[0.3499999940395355],"min":[0],"type":"SCALAR"},{"bufferView":1,"componentType":5126,"count":2,"max":[0.33425313234329224,0.8837569952011108,-0.3158656656742096,0.08647144585847855],"min":[-0.033414360135793686,0.7653152942657471,-0.6421758532524109,-0.02803802862763405],"type":"VEC4"},{"bufferView":2,"componentType":5126,"count":2,"max":[0.3499999940395355],"min":[0],"type":"SCALAR"},{"bufferView":3,"componentType":5126,"count":2,"max":[0.01875000074505806,-0.07500000298023224,-0.03750000149011612],"min":[0.01875000074505806,-0.33125001192092896,-0.21250000596046448],"type":"VEC3"},{"bufferView":4,"componentType":5126,"count":1,"max":[0],"min":[0],"type":"SCALAR"},{"bufferView":5,"componentType":5126,"count":1,"max":[1,1.5,1],"min":[1,1.5,1],"type":"VEC3"},{"bufferView":6,"componentType":5126,"count":1,"max":[0],"min":[0],"type":"SCALAR"},{"bufferView":7,"componentType":5126,"count":1,"max":[0.1288091540336609,-0.6977415084838867,0.5382931232452393,-0.4547587037086487],"min":[0.1288091540336609,-0.6977415084838867,0.5382931232452393,-0.4547587037086487],"type":"VEC4"},{"bufferView":8,"componentType":5126,"count":1,"max":[0],"min":[0],"type":"SCALAR"},{"bufferView":9,"componentType":5126,"count":1,"max":[-0.08749999850988388,0.08124999701976776,-1.03125],"min":[-0.08749999850988388,0.08124999701976776,-1.03125],"type":"VEC3"},{"bufferView":10,"componentType":5126,"count":1,"max":[0],"min":[0],"type":"SCALAR"},{"bufferView":11,"componentType":5126,"count":1,"max":[1,1.5,1],"min":[1,1.5,1],"type":"VEC3"},{"bufferView":12,"componentType":5126,"count":13,"max":[0.75],"min":[0],"type":"SCALAR"},{"bufferView":13,"componentType":5126,"count":13,"max":[0.005722180474549532,0.4016157388687134,0.48859259486198425,1],"min":[-0.4395137131214142,0,0,0.6378164291381836],"type":"VEC4"},{"bufferView":14,"componentType":5126,"count":12,"max":[0.699999988079071],"min":[0],"type":"SCALAR"},{"bufferView":15,"componentType":5126,"count":12,"max":[0.5,0.375,1.0625],"min":[0.5,-0.0625,0.6875],"type":"VEC3"}]}