{"asset":{"version":"2.0","generator":"Blockbench 4.2.4 glTF exporter"},"scenes":[{"nodes":[10],"name":"blockbench_export"}],"scene":0,"nodes":[{"translation":[0,-0.125,-0.5],"name":"megazing_default"},{"translation":[0,-0.125,-0.5],"name":"megazing_default2"},{"translation":[-0.5,-0.375,-1],"name":"bolt"},{"name":"ak47","children":[0,1,2]},{"translation":[0.375,-0.6875,0],"name":"RightHand"},{"translation":[-0.375,0.8125,-0.5],"name":"R","children":[4]},{"name":"bone2","children":[3,5]},{"translation":[-0.375,-0.6875,0],"name":"LeftHand"},{"translation":[0.375,0.8125,-0.5],"name":"l","children":[7]},{"translation":[0.5,0.375,1],"name":"bone","children":[6,8]},{"children":[9]}],"animations":[{"name":"reload_empty","samplers":[{"input":0,"output":1,"interpolation":"LINEAR"},{"input":2,"output":3,"interpolation":"LINEAR"},{"input":4,"output":5,"interpolation":"LINEAR"},{"input":6,"output":7,"interpolation":"LINEAR"},{"input":8,"output":9,"interpolation":"LINEAR"},{"input":10,"output":11,"interpolation":"LINEAR"},{"input":12,"output":13,"interpolation":"LINEAR"},{"input":14,"output":15,"interpolation":"LINEAR"},{"input":16,"output":17,"interpolation":"LINEAR"},{"input":18,"output":19,"interpolation":"LINEAR"},{"input":20,"output":21,"interpolation":"LINEAR"},{"input":22,"output":23,"interpolation":"LINEAR"},{"input":24,"output":25,"interpolation":"LINEAR"}],"channels":[{"sampler":0,"target":{"node":5,"path":"rotation"}},{"sampler":1,"target":{"node":5,"path":"translation"}},{"sampler":2,"target":{"node":5,"path":"scale"}},{"sampler":3,"target":{"node":8,"path":"rotation"}},{"sampler":4,"target":{"node":8,"path":"translation"}},{"sampler":5,"target":{"node":8,"path":"scale"}},{"sampler":6,"target":{"node":9,"path":"rotation"}},{"sampler":7,"target":{"node":9,"path":"translation"}},{"sampler":8,"target":{"node":0,"path":"rotation"}},{"sampler":9,"target":{"node":0,"path":"translation"}},{"sampler":10,"target":{"node":2,"path":"translation"}},{"sampler":11,"target":{"node":1,"path":"rotation"}},{"sampler":12,"target":{"node":1,"path":"translation"}}]}],"bufferViews":[{"buffer":0,"byteOffset":0,"byteLength":4},{"buffer":0,"byteOffset":4,"byteLength":16},{"buffer":0,"byteOffset":20,"byteLength":4},{"buffer":0,"byteOffset":24,"byteLength":12},{"buffer":0,"byteOffset":36,"byteLength":4},{"buffer":0,"byteOffset":40,"byteLength":12},{"buffer":0,"byteOffset":52,"byteLength":208},{"buffer":0,"byteOffset":260,"byteLength":832},{"buffer":0,"byteOffset":1092,"byteLength":200},{"buffer":0,"byteOffset":1292,"byteLength":600},{"buffer":0,"byteOffset":1892,"byteLength":4},{"buffer":0,"byteOffset":1896,"byteLength":12},{"buffer":0,"byteOffset":1908,"byteLength":232},{"buffer":0,"byteOffset":2140,"byteLength":928},{"buffer":0,"byteOffset":3068,"byteLength":208},{"buffer":0,"byteOffset":3276,"byteLength":624},{"buffer":0,"byteOffset":3900,"byteLength":80},{"buffer":0,"byteOffset":3980,"byteLength":320},{"buffer":0,"byteOffset":4300,"byteLength":84},{"buffer":0,"byteOffset":4384,"byteLength":252},{"buffer":0,"byteOffset":4636,"byteLength":16},{"buffer":0,"byteOffset":4652,"byteLength":48},{"buffer":0,"byteOffset":4700,"byteLength":124},{"buffer":0,"byteOffset":4824,"byteLength":496},{"buffer":0,"byteOffset":5320,"byteLength":116},{"buffer":0,"byteOffset":5436,"byteLength":348}],"buffers":[{"byteLength":5784,"uri":"data:application/octet-stream;base64,"}],"accessors":[{"bufferView":0,"componentType":5126,"count":1,"max":[0],"min":[0],"type":"SCALAR"},{"bufferView":1,"componentType":5126,"count":1,"max":[-0.033414360135793686,0.7653152942657471,-0.6421758532524109,-0.02803802862763405],"min":[-0.033414360135793686,0.7653152942657471,-0.6421758532524109,-0.02803802862763405],"type":"VEC4"},{"bufferView":2,"componentType":5126,"count":1,"max":[0],"min":[0],"type":"SCALAR"},{"bufferView":3,"componentType":5126,"count":1,"max":[0.01875000074505806,-0.07500000298023224,-0.03750000149011612],"min":[0.01875000074505806,-0.07500000298023224,-0.03750000149011612],"type":"VEC3"},{"bufferView":4,"componentType":5126,"count":1,"max":[0],"min":[0],"type":"SCALAR"},{"bufferView":5,"componentType":5126,"count":1,"max":[1,1.5,1],"min":[1,1.5,1],"type":"VEC3"},{"bufferView":6,"componentType":5126,"count":52,"max":[3.3499999046325684],"min":[0],"type":"SCALAR"},{"bufferView":7,"componentType":5126,"count":52,"max":[0.5965687036514282,-0.037191737443208694,0.6871296763420105,-0.43370988965034485],"min":[-0.08003370463848114,-0.720557451248169,-0.12150479108095169,-0.9130168557167053],"type":"VEC4"},{"bufferView":8,"componentType":5126,"count":50,"max":[3.25],"min":[0],"type":"SCALAR"},{"bufferView":9,"componentType":5126,"count":50,"max":[0.30951687693595886,0.19276000559329987,-0.06624999642372131],"min":[-0.41167500615119934,-1.402087926864624,-1.03125],"type":"VEC3"},{"bufferView":10,"componentType":5126,"count":1,"max":[0],"min":[0],"type":"SCALAR"},{"bufferView":11,"componentType":5126,"count":1,"max":[1,1.5,1],"min":[1,1.5,1],"type":"VEC3"},{"bufferView":12,"componentType":5126,"count":58,"max":[3.5],"min":[0],"type":"SCALAR"},{"bufferView":13,"componentType":5126,"count":58,"max":[0.1302766352891922,0.09633134305477142,0,1],"min":[-0.000410784559790045,-0.002887336304411292,-0.516466498374939,0.8426687121391296],"type":"VEC4"},{"bufferView":14,"componentType":5126,"count":52,"max":[3.450000047683716],"min":[0],"type":"SCALAR"},{"bufferView":15,"componentType":5126,"count":52,"max":[0.512499988079071,0.375,1.0774999856948853],"min":[0.49911385774612427,0.3018749952316284,0.90625],"type":"VEC3"},{"bufferView":16,"componentType":5126,"count":20,"max":[2.049999952316284],"min":[0],"type":"SCALAR"},{"bufferView":17,"componentType":5126,"count":20,"max":[0.9156915545463562,0.40432995557785034,0.12273389846086502,1],"min":[0,-0.02180449850857258,-0.5184257626533508,-0.7906746864318848],"type":"VEC4"},{"bufferView":18,"componentType":5126,"count":21,"max":[2.049999952316284],"min":[0],"type":"SCALAR"},{"bufferView":19,"componentType":5126,"count":21,"max":[2.011474370956421,-0.125,0.3670131266117096],"min":[0,-1.7343730926513672,-0.986807644367218],"type":"VEC3"},{"bufferView":20,"componentType":5126,"count":4,"max":[2.9000000953674316],"min":[2.700000047683716],"type":"SCALAR"},{"bufferView":21,"componentType":5126,"count":4,"max":[-0.5,-0.375,-0.625],"min":[-0.5,-0.375,-1],"type":"VEC3"},{"bufferView":22,"componentType":5126,"count":31,"max":[2.299999952316284],"min":[0],"type":"SCALAR"},{"bufferView":23,"componentType":5126,"count":31,"max":[0.3062058389186859,0.28374072909355164,0.13664363324642181,1],"min":[-0.10579472035169601,-0.03164173662662506,-0.8275702595710754,0.38083556294441223],"type":"VEC4"},{"bufferView":24,"componentType":5126,"count":29,"max":[2.299999952316284],"min":[0],"type":"SCALAR"},{"bufferView":25,"componentType":5126,"count":29,"max":[0.10437499731779099,-0.05000000074505806,-0.20160029828548431],"min":[-0.29499998688697815,-1.3456250429153442,-0.6662499904632568],"type":"VEC3"}]}