{"asset":{"version":"2.0","generator":"Blockbench 4.2.4 glTF exporter"},"scenes":[{"nodes":[10],"name":"blockbench_export"}],"scene":0,"nodes":[{"translation":[0,-0.125,-0.5],"name":"megazing_default"},{"translation":[0,-0.125,-0.5],"name":"megazing_default2"},{"translation":[-0.5,-0.375,-1],"name":"bolt"},{"name":"ak47","children":[0,1,2]},{"translation":[0.375,-0.6875,0],"name":"RightHand"},{"translation":[-0.375,0.8125,-0.5],"name":"R","children":[4]},{"name":"bone2","children":[3,5]},{"translation":[-0.375,-0.6875,0],"name":"LeftHand"},{"translation":[0.375,0.8125,-0.5],"name":"l","children":[7]},{"translation":[0.5,0.375,1],"name":"bone","children":[6,8]},{"children":[9]}],"animations":[{"name":"reload_normal","samplers":[{"input":0,"output":1,"interpolation":"LINEAR"},{"input":2,"output":3,"interpolation":"LINEAR"},{"input":4,"output":5,"interpolation":"LINEAR"},{"input":6,"output":7,"interpolation":"LINEAR"},{"input":8,"output":9,"interpolation":"LINEAR"},{"input":10,"output":11,"interpolation":"LINEAR"},{"input":12,"output":13,"interpolation":"LINEAR"},{"input":14,"output":15,"interpolation":"LINEAR"},{"input":16,"output":17,"interpolation":"LINEAR"},{"input":18,"output":19,"interpolation":"LINEAR"},{"input":20,"output":21,"interpolation":"LINEAR"}],"channels":[{"sampler":0,"target":{"node":5,"path":"rotation"}},{"sampler":1,"target":{"node":5,"path":"translation"}},{"sampler":2,"target":{"node":5,"path":"scale"}},{"sampler":3,"target":{"node":8,"path":"rotation"}},{"sampler":4,"target":{"node":8,"path":"translation"}},{"sampler":5,"target":{"node":8,"path":"scale"}},{"sampler":6,"target":{"node":9,"path":"rotation"}},{"sampler":7,"target":{"node":9,"path":"translation"}},{"sampler":8,"target":{"node":0,"path":"rotation"}},{"sampler":9,"target":{"node":0,"path":"translation"}},{"sampler":10,"target":{"node":1,"path":"translation"}}]}],"bufferViews":[{"buffer":0,"byteOffset":0,"byteLength":4},{"buffer":0,"byteOffset":4,"byteLength":16},{"buffer":0,"byteOffset":20,"byteLength":4},{"buffer":0,"byteOffset":24,"byteLength":12},{"buffer":0,"byteOffset":36,"byteLength":4},{"buffer":0,"byteOffset":40,"byteLength":12},{"buffer":0,"byteOffset":52,"byteLength":160},{"buffer":0,"byteOffset":212,"byteLength":640},{"buffer":0,"byteOffset":852,"byteLength":156},{"buffer":0,"byteOffset":1008,"byteLength":468},{"buffer":0,"byteOffset":1476,"byteLength":4},{"buffer":0,"byteOffset":1480,"byteLength":12},{"buffer":0,"byteOffset":1492,"byteLength":180},{"buffer":0,"byteOffset":1672,"byteLength":720},{"buffer":0,"byteOffset":2392,"byteLength":180},{"buffer":0,"byteOffset":2572,"byteLength":540},{"buffer":0,"byteOffset":3112,"byteLength":108},{"buffer":0,"byteOffset":3220,"byteLength":432},{"buffer":0,"byteOffset":3652,"byteLength":104},{"buffer":0,"byteOffset":3756,"byteLength":312},{"buffer":0,"byteOffset":4068,"byteLength":4},{"buffer":0,"byteOffset":4072,"byteLength":12}],"buffers":[{"byteLength":4084,"uri":"data:application/octet-stream;base64,"}],"accessors":[{"bufferView":0,"componentType":5126,"count":1,"max":[0],"min":[0],"type":"SCALAR"},{"bufferView":1,"componentType":5126,"count":1,"max":[-0.033414360135793686,0.7653152942657471,-0.6421758532524109,-0.02803802862763405],"min":[-0.033414360135793686,0.7653152942657471,-0.6421758532524109,-0.02803802862763405],"type":"VEC4"},{"bufferView":2,"componentType":5126,"count":1,"max":[0],"min":[0],"type":"SCALAR"},{"bufferView":3,"componentType":5126,"count":1,"max":[0.01875000074505806,-0.07500000298023224,-0.03750000149011612],"min":[0.01875000074505806,-0.07500000298023224,-0.03750000149011612],"type":"VEC3"},{"bufferView":4,"componentType":5126,"count":1,"max":[0],"min":[0],"type":"SCALAR"},{"bufferView":5,"componentType":5126,"count":1,"max":[1,1.5,1],"min":[1,1.5,1],"type":"VEC3"},{"bufferView":6,"componentType":5126,"count":40,"max":[2.3499999046325684],"min":[0],"type":"SCALAR"},{"bufferView":7,"componentType":5126,"count":40,"max":[0.6538692712783813,0.0593997985124588,0.6317338943481445,0.4915485978126526],"min":[-0.3703954517841339,-0.9452961683273315,0.1321934312582016,-0.920473039150238],"type":"VEC4"},{"bufferView":8,"componentType":5126,"count":39,"max":[2.3499999046325684],"min":[0],"type":"SCALAR"},{"bufferView":9,"componentType":5126,"count":39,"max":[0.1731249988079071,0.08947844058275223,-0.15625],"min":[-0.543749988079071,-1.4764600992202759,-1.058500051498413],"type":"VEC3"},{"bufferView":10,"componentType":5126,"count":1,"max":[0],"min":[0],"type":"SCALAR"},{"bufferView":11,"componentType":5126,"count":1,"max":[1,1.5,1],"min":[1,1.5,1],"type":"VEC3"},{"bufferView":12,"componentType":5126,"count":45,"max":[2.549999952316284],"min":[0],"type":"SCALAR"},{"bufferView":13,"componentType":5126,"count":45,"max":[0.09513216465711594,0.04864146560430527,0.01570615917444229,1],"min":[-0.006790171377360821,-0.0007828114903531969,-0.32438331842422485,0.941131591796875],"type":"VEC4"},{"bufferView":14,"componentType":5126,"count":45,"max":[2.5],"min":[0],"type":"SCALAR"},{"bufferView":15,"componentType":5126,"count":45,"max":[0.5036222338676453,0.37848126888275146,1.0125000476837158],"min":[0.44566404819488525,0.3062500059604645,0.875],"type":"VEC3"},{"bufferView":16,"componentType":5126,"count":27,"max":[1.899999976158142],"min":[0],"type":"SCALAR"},{"bufferView":17,"componentType":5126,"count":27,"max":[0.9369966387748718,0.09404544532299042,0.1821003407239914,1],"min":[-0.461279034614563,-0.3446238338947296,-0.684407114982605,-0.11622896045446396],"type":"VEC4"},{"bufferView":18,"componentType":5126,"count":26,"max":[1.899999976158142],"min":[0],"type":"SCALAR"},{"bufferView":19,"componentType":5126,"count":26,"max":[0,-0.125,-0.23125000298023224],"min":[-0.2973953187465668,-1.4513025283813477,-0.8140331506729126],"type":"VEC3"},{"bufferView":20,"componentType":5126,"count":1,"max":[0],"min":[0],"type":"SCALAR"},{"bufferView":21,"componentType":5126,"count":1,"max":[0,-1.125,-0.5],"min":[0,-1.125,-0.5],"type":"VEC3"}]}