{"asset":{"version":"2.0","generator":"Blockbench 4.1.1 glTF exporter"},"scenes":[{"nodes":[11],"name":"blockbench_export"}],"scene":0,"nodes":[{"rotation":[0.020887057977031574,0.001238481242215493,-0.014155905374514244,0.9996808527306627],"translation":[-0.11543993138007458,-0.3460674654477942,0.1424217509571969],"name":"cube","mesh":0},{"translation":[0.5928668652134519,0.08624696061120596,0.7838339714175468],"name":"hand","children":[0]},{"rotation":[0.3826834323650898,0,0,0.9238795325112867],"translation":[0.5,0.52158625,0.698248125],"name":"cube","mesh":1},{"translation":[-0.5,-0.5,-0.5],"name":"megazing","children":[2]},{"translation":[0.06078,0.09964875,0.126445625],"name":"cube","mesh":2},{"translation":[-0.5,-0.5,-0.5],"name":"bolt","children":[4]},{"translation":[0.265625,-0.4375,0.515625],"name":"AK","children":[3,5]},{"translation":[0.234375,0.9375,-0.015625],"name":"right","children":[1,6]},{"rotation":[0.01341493713040007,0.044307603888380835,-0.10838073263805179,0.9930309625043404],"translation":[-0.27223816440387505,-0.0679568234159671,-0.5202251124175097],"name":"cube","mesh":3},{"rotation":[0.037584344535285384,-0.21315140986521292,-0.16953202249987687,0.9614638770465723],"translation":[0.1022375381370342,0.8804086163573075,0.8451916632845025],"name":"left","children":[8]},{"name":"All","children":[7,9]},{"children":[10]}],"bufferViews":[{"buffer":0,"byteOffset":0,"byteLength":288,"target":34962,"byteStride":12},{"buffer":0,"byteOffset":288,"byteLength":288,"target":34962,"byteStride":12},{"buffer":0,"byteOffset":576,"byteLength":192,"target":34962,"byteStride":8},{"buffer":0,"byteOffset":768,"byteLength":72,"target":34963},{"buffer":0,"byteOffset":840,"byteLength":288,"target":34962,"byteStride":12},{"buffer":0,"byteOffset":1128,"byteLength":288,"target":34962,"byteStride":12},{"buffer":0,"byteOffset":1416,"byteLength":192,"target":34962,"byteStride":8},{"buffer":0,"byteOffset":1608,"byteLength":72,"target":34963},{"buffer":0,"byteOffset":1680,"byteLength":288,"target":34962,"byteStride":12},{"buffer":0,"byteOffset":1968,"byteLength":288,"target":34962,"byteStride":12},{"buffer":0,"byteOffset":2256,"byteLength":192,"target":34962,"byteStride":8},{"buffer":0,"byteOffset":2448,"byteLength":72,"target":34963},{"buffer":0,"byteOffset":2520,"byteLength":288,"target":34962,"byteStride":12},{"buffer":0,"byteOffset":2808,"byteLength":288,"target":34962,"byteStride":12},{"buffer":0,"byteOffset":3096,"byteLength":192,"target":34962,"byteStride":8},{"buffer":0,"byteOffset":3288,"byteLength":72,"target":34963},{"buffer":0,"byteOffset":3360,"byteLength":120},{"buffer":0,"byteOffset":3480,"byteLength":480},{"buffer":0,"byteOffset":3960,"byteLength":116},{"buffer":0,"byteOffset":4076,"byteLength":348},{"buffer":0,"byteOffset":4424,"byteLength":20},{"buffer":0,"byteOffset":4444,"byteLength":80},{"buffer":0,"byteOffset":4524,"byteLength":40},{"buffer":0,"byteOffset":4564,"byteLength":120},{"buffer":0,"byteOffset":4684,"byteLength":8},{"buffer":0,"byteOffset":4692,"byteLength":32},{"buffer":0,"byteOffset":4724,"byteLength":20},{"buffer":0,"byteOffset":4744,"byteLength":60}],"buffers":[{"byteLength":4804,"uri":"data:application/octet-stream;base64,"}],"accessors":[{"bufferView":0,"componentType":5126,"count":24,"max":[-0.11812499910593033,-0.09449999779462814,1.2521250247955322],"min":[-0.3071250021457672,-0.28349998593330383,-0.023624999448657036],"type":"VEC3"},{"bufferView":1,"componentType":5126,"count":24,"max":[1,1,1],"min":[-1,-1,-1],"type":"VEC3"},{"bufferView":2,"componentType":5126,"count":24,"max":[0.8125,0.75],"min":[0.625,0.5],"type":"VEC2"},{"bufferView":3,"componentType":5123,"count":36,"max":[23],"min":[0],"type":"SCALAR"},{"bufferView":4,"componentType":5126,"count":24,"max":[0.04119874909520149,-0.43167126178741455,0.08651687204837799],"min":[-0.04119812324643135,-0.44300124049186707,-0.07518749684095383],"type":"VEC3"},{"bufferView":5,"componentType":5126,"count":24,"max":[1,1,1],"min":[-1,-1,-1],"type":"VEC3"},{"bufferView":6,"componentType":5126,"count":24,"max":[0.3960793614387512,1],"min":[0,0.8382956385612488],"type":"VEC2"},{"bufferView":7,"componentType":5123,"count":36,"max":[23],"min":[0],"type":"SCALAR"},{"bufferView":8,"componentType":5126,"count":24,"max":[0.47437500953674316,0.7149999737739563,0.5362499952316284],"min":[0.45375001430511475,0.6600000262260437,0.33000001311302185],"type":"VEC3"},{"bufferView":9,"componentType":5126,"count":24,"max":[1,1,1],"min":[-1,-1,-1],"type":"VEC3"},{"bufferView":10,"componentType":5126,"count":24,"max":[0.33125001192092896,1],"min":[0,0.793749988079071],"type":"VEC2"},{"bufferView":11,"componentType":5123,"count":36,"max":[23],"min":[0],"type":"SCALAR"},{"bufferView":12,"componentType":5126,"count":24,"max":[0.47602444887161255,-0.04904220253229141,0.8511447310447693],"min":[0.28702446818351746,-0.2380422055721283,-0.42460528016090393],"type":"VEC3"},{"bufferView":13,"componentType":5126,"count":24,"max":[1,1,1],"min":[-1,-1,-1],"type":"VEC3"},{"bufferView":14,"componentType":5126,"count":24,"max":[0.8125,0.75],"min":[0.625,0.5],"type":"VEC2"},{"bufferView":15,"componentType":5123,"count":36,"max":[23],"min":[0],"type":"SCALAR"},{"bufferView":16,"componentType":5126,"count":30,"max":[1.7200000286102295],"min":[0],"type":"SCALAR"},{"bufferView":17,"componentType":5126,"count":30,"max":[0.4786198139190674,0.009184716269373894,0.17797958850860596,1],"min":[-0.05012504756450653,-0.07649993896484375,-0.030445711687207222,0.8631224632263184],"type":"VEC4"},{"bufferView":18,"componentType":5126,"count":29,"max":[1.7200000286102295],"min":[0],"type":"SCALAR"},{"bufferView":19,"componentType":5126,"count":29,"max":[0,0.38749998807907104,0.046751800924539566],"min":[-0.75,-0.875,-1.462499976158142],"type":"VEC3"},{"bufferView":20,"componentType":5126,"count":5,"max":[0.8399999737739563],"min":[0.20000000298023224],"type":"SCALAR"},{"bufferView":21,"componentType":5126,"count":5,"max":[0.06214676797389984,0.23574985563755035,0,1],"min":[0,0,-0.7509865760803223,0.6136602759361267],"type":"VEC4"},{"bufferView":22,"componentType":5126,"count":10,"max":[1.1200000047683716],"min":[0.20000000298023224],"type":"SCALAR"},{"bufferView":23,"componentType":5126,"count":10,"max":[1.0772418975830078,0.08624695986509323,0.8275839686393738],"min":[0.592866837978363,-0.5200030207633972,0.002583971479907632],"type":"VEC3"},{"bufferView":24,"componentType":5126,"count":2,"max":[0.5199999809265137],"min":[0],"type":"SCALAR"},{"bufferView":25,"componentType":5126,"count":2,"max":[0,0,0,1],"min":[0,0,0,1],"type":"VEC4"},{"bufferView":26,"componentType":5126,"count":5,"max":[0.7200000286102295],"min":[0],"type":"SCALAR"},{"bufferView":27,"componentType":5126,"count":5,"max":[-0.5,-0.5,-0.3125],"min":[-0.5,-0.5,-0.5],"type":"VEC3"}],"materials":[{"pbrMetallicRoughness":{"metallicFactor":0,"roughnessFactor":1},"alphaMode":"MASK","alphaCutoff":0.05,"doubleSided":true},{"pbrMetallicRoughness":{"metallicFactor":0,"roughnessFactor":1},"alphaMode":"MASK","alphaCutoff":0.05,"doubleSided":true}],"meshes":[{"primitives":[{"mode":4,"attributes":{"POSITION":0,"NORMAL":1,"TEXCOORD_0":2},"indices":3,"material":0}]},{"primitives":[{"mode":4,"attributes":{"POSITION":4,"NORMAL":5,"TEXCOORD_0":6},"indices":7,"material":1}]},{"primitives":[{"mode":4,"attributes":{"POSITION":8,"NORMAL":9,"TEXCOORD_0":10},"indices":11,"material":0}]},{"primitives":[{"mode":4,"attributes":{"POSITION":12,"NORMAL":13,"TEXCOORD_0":14},"indices":15,"material":0}]}],"animations":[{"name":"draw_empty","samplers":[{"input":16,"output":17,"interpolation":"LINEAR"},{"input":18,"output":19,"interpolation":"LINEAR"},{"input":20,"output":21,"interpolation":"LINEAR"},{"input":22,"output":23,"interpolation":"LINEAR"},{"input":24,"output":25,"interpolation":"LINEAR"},{"input":26,"output":27,"interpolation":"LINEAR"}],"channels":[{"sampler":0,"target":{"node":10,"path":"rotation"}},{"sampler":1,"target":{"node":10,"path":"translation"}},{"sampler":2,"target":{"node":1,"path":"rotation"}},{"sampler":3,"target":{"node":1,"path":"translation"}},{"sampler":4,"target":{"node":5,"path":"rotation"}},{"sampler":5,"target":{"node":5,"path":"translation"}}]}]}