{"asset":{"version":"2.0","generator":"Blockbench 4.2.4 glTF exporter"},"scenes":[{"nodes":[7],"name":"blockbench_export"}],"scene":0,"nodes":[{"translation":[0.5,0.5,0.5],"name":"left"},{"translation":[0,0.125,-0.3125],"name":"right"},{"translation":[0,0.40966812500000005,-0.5625],"name":"slide"},{"translation":[0,0.3125,-0.5625],"name":"Magazine"},{"translation":[0,-0.125,0.25],"name":"magazine2","children":[3]},{"translation":[0,-0.0625,0],"name":"gun","children":[2,4]},{"translation":[0.5,0.375,0.8125],"name":"bone","children":[1,5]},{"children":[0,6]}],"animations":[{"name":"reload_norm","samplers":[{"input":0,"output":1,"interpolation":"LINEAR"},{"input":2,"output":3,"interpolation":"LINEAR"},{"input":4,"output":5,"interpolation":"LINEAR"},{"input":6,"output":7,"interpolation":"LINEAR"},{"input":8,"output":9,"interpolation":"LINEAR"},{"input":10,"output":11,"interpolation":"LINEAR"},{"input":12,"output":13,"interpolation":"LINEAR"},{"input":14,"output":15,"interpolation":"LINEAR"},{"input":16,"output":17,"interpolation":"LINEAR"},{"input":18,"output":19,"interpolation":"LINEAR"},{"input":20,"output":21,"interpolation":"LINEAR"},{"input":22,"output":23,"interpolation":"LINEAR"},{"input":24,"output":25,"interpolation":"LINEAR"},{"input":26,"output":27,"interpolation":"LINEAR"},{"input":28,"output":29,"interpolation":"LINEAR"}],"channels":[{"sampler":0,"target":{"node":0,"path":"rotation"}},{"sampler":1,"target":{"node":0,"path":"translation"}},{"sampler":2,"target":{"node":0,"path":"scale"}},{"sampler":3,"target":{"node":6,"path":"rotation"}},{"sampler":4,"target":{"node":6,"path":"translation"}},{"sampler":5,"target":{"node":6,"path":"scale"}},{"sampler":6,"target":{"node":1,"path":"rotation"}},{"sampler":7,"target":{"node":1,"path":"translation"}},{"sampler":8,"target":{"node":1,"path":"scale"}},{"sampler":9,"target":{"node":2,"path":"rotation"}},{"sampler":10,"target":{"node":2,"path":"translation"}},{"sampler":11,"target":{"node":2,"path":"scale"}},{"sampler":12,"target":{"node":3,"path":"rotation"}},{"sampler":13,"target":{"node":3,"path":"translation"}},{"sampler":14,"target":{"node":3,"path":"scale"}}]}],"bufferViews":[{"buffer":0,"byteOffset":0,"byteLength":92},{"buffer":0,"byteOffset":92,"byteLength":368},{"buffer":0,"byteOffset":460,"byteLength":84},{"buffer":0,"byteOffset":544,"byteLength":252},{"buffer":0,"byteOffset":796,"byteLength":8},{"buffer":0,"byteOffset":804,"byteLength":24},{"buffer":0,"byteOffset":828,"byteLength":160},{"buffer":0,"byteOffset":988,"byteLength":640},{"buffer":0,"byteOffset":1628,"byteLength":160},{"buffer":0,"byteOffset":1788,"byteLength":480},{"buffer":0,"byteOffset":2268,"byteLength":4},{"buffer":0,"byteOffset":2272,"byteLength":12},{"buffer":0,"byteOffset":2284,"byteLength":4},{"buffer":0,"byteOffset":2288,"byteLength":16},{"buffer":0,"byteOffset":2304,"byteLength":4},{"buffer":0,"byteOffset":2308,"byteLength":12},{"buffer":0,"byteOffset":2320,"byteLength":4},{"buffer":0,"byteOffset":2324,"byteLength":12},{"buffer":0,"byteOffset":2336,"byteLength":4},{"buffer":0,"byteOffset":2340,"byteLength":16},{"buffer":0,"byteOffset":2356,"byteLength":16},{"buffer":0,"byteOffset":2372,"byteLength":48},{"buffer":0,"byteOffset":2420,"byteLength":4},{"buffer":0,"byteOffset":2424,"byteLength":12},{"buffer":0,"byteOffset":2436,"byteLength":24},{"buffer":0,"byteOffset":2460,"byteLength":96},{"buffer":0,"byteOffset":2556,"byteLength":36},{"buffer":0,"byteOffset":2592,"byteLength":108},{"buffer":0,"byteOffset":2700,"byteLength":4},{"buffer":0,"byteOffset":2704,"byteLength":12}],"buffers":[{"byteLength":2716,"uri":"data:application/octet-stream;base64,"}],"accessors":[{"bufferView":0,"componentType":5126,"count":23,"max":[2.125],"min":[0],"type":"SCALAR"},{"bufferView":1,"componentType":5126,"count":23,"max":[-0.4316111207008362,0,0,0.8923947215080261],"min":[-0.6087614297866821,-0.1305335909128189,-0.1429480016231537,0.7840944528579712],"type":"VEC4"},{"bufferView":2,"componentType":5126,"count":21,"max":[2.125],"min":[0],"type":"SCALAR"},{"bufferView":3,"componentType":5126,"count":21,"max":[-0.35624998807907104,-0.012500000186264515,2.75],"min":[-0.6490740776062012,-0.6875,1.90625],"type":"VEC3"},{"bufferView":4,"componentType":5126,"count":2,"max":[2.125],"min":[0],"type":"SCALAR"},{"bufferView":5,"componentType":5126,"count":2,"max":[1.149999976158142,1.625,1.149999976158142],"min":[1.149999976158142,1.625,1.149999976158142],"type":"VEC3"},{"bufferView":6,"componentType":5126,"count":40,"max":[2.5],"min":[0],"type":"SCALAR"},{"bufferView":7,"componentType":5126,"count":40,"max":[0.2064628005027771,0.02326897531747818,0.5616484880447388,1],"min":[-0.011126345954835415,-0.2154465913772583,-0.23826104402542114,0.8113659024238586],"type":"VEC4"},{"bufferView":8,"componentType":5126,"count":40,"max":[2.5],"min":[0],"type":"SCALAR"},{"bufferView":9,"componentType":5126,"count":40,"max":[0.8231445550918579,0.7625976800918579,1.2844213247299194],"min":[0.4312500059604645,0.32499998807907104,0.6812499761581421],"type":"VEC3"},{"bufferView":10,"componentType":5126,"count":1,"max":[0],"min":[0],"type":"SCALAR"},{"bufferView":11,"componentType":5126,"count":1,"max":[1,1,1],"min":[1,1,1],"type":"VEC3"},{"bufferView":12,"componentType":5126,"count":1,"max":[0],"min":[0],"type":"SCALAR"},{"bufferView":13,"componentType":5126,"count":1,"max":[-0.6087614297866821,0,0,0.7933533191680908],"min":[-0.6087614297866821,0,0,0.7933533191680908],"type":"VEC4"},{"bufferView":14,"componentType":5126,"count":1,"max":[0],"min":[0],"type":"SCALAR"},{"bufferView":15,"componentType":5126,"count":1,"max":[0.4281249940395355,-0.390625,1.109375],"min":[0.4281249940395355,-0.390625,1.109375],"type":"VEC3"},{"bufferView":16,"componentType":5126,"count":1,"max":[0],"min":[0],"type":"SCALAR"},{"bufferView":17,"componentType":5126,"count":1,"max":[1.149999976158142,1.625,1.149999976158142],"min":[1.149999976158142,1.625,1.149999976158142],"type":"VEC3"},{"bufferView":18,"componentType":5126,"count":1,"max":[0],"min":[0],"type":"SCALAR"},{"bufferView":19,"componentType":5126,"count":1,"max":[0,0,0,1],"min":[0,0,0,1],"type":"VEC4"},{"bufferView":20,"componentType":5126,"count":4,"max":[1.8333333730697632],"min":[0],"type":"SCALAR"},{"bufferView":21,"componentType":5126,"count":4,"max":[0,0.40966811776161194,-0.35624998807907104],"min":[0,0.40966811776161194,-0.5625],"type":"VEC3"},{"bufferView":22,"componentType":5126,"count":1,"max":[0],"min":[0],"type":"SCALAR"},{"bufferView":23,"componentType":5126,"count":1,"max":[1,1,1],"min":[1,1,1],"type":"VEC3"},{"bufferView":24,"componentType":5126,"count":6,"max":[1.0833333730697632],"min":[0],"type":"SCALAR"},{"bufferView":25,"componentType":5126,"count":6,"max":[0,0,0,1],"min":[0,0,0,1],"type":"VEC4"},{"bufferView":26,"componentType":5126,"count":9,"max":[1.0833333730697632],"min":[0],"type":"SCALAR"},{"bufferView":27,"componentType":5126,"count":9,"max":[0.0062500000931322575,0.3125,0.012500000186264515],"min":[-0.0625,-1.7625000476837158,-0.5625],"type":"VEC3"},{"bufferView":28,"componentType":5126,"count":1,"max":[0],"min":[0],"type":"SCALAR"},{"bufferView":29,"componentType":5126,"count":1,"max":[1,1,1],"min":[1,1,1],"type":"VEC3"}]}