{"asset":{"version":"2.0","generator":"Blockbench 4.2.4 glTF exporter"},"scenes":[{"nodes":[10],"name":"blockbench_export"}],"scene":0,"nodes":[{"translation":[-0.375,-0.6875,0],"name":"LeftHand"},{"translation":[0.375,0.9375,-0.4375],"name":"l","children":[0]},{"translation":[0.375,-0.6875,0],"name":"RightHand"},{"translation":[-0.375,0.9375,-0.5],"name":"R","children":[2]},{"translation":[0,0.5,-0.75],"name":"slide"},{"translation":[0,-0.284668125,0],"name":"mb"},{"translation":[0,-0.027831875000000006,0],"name":"gun","children":[4,5]},{"translation":[0,0,0.0625],"name":"bone2","children":[3,6]},{"translation":[0.5,0.25,0.9375],"name":"bone","children":[1,7]},{"name":"bone3","children":[8]},{"children":[9]}],"animations":[{"name":"inspect","samplers":[{"input":0,"output":1,"interpolation":"LINEAR"},{"input":2,"output":3,"interpolation":"LINEAR"},{"input":4,"output":5,"interpolation":"LINEAR"},{"input":6,"output":7,"interpolation":"LINEAR"},{"input":8,"output":9,"interpolation":"LINEAR"},{"input":10,"output":11,"interpolation":"LINEAR"},{"input":12,"output":13,"interpolation":"LINEAR"},{"input":14,"output":15,"interpolation":"LINEAR"},{"input":16,"output":17,"interpolation":"LINEAR"}],"channels":[{"sampler":0,"target":{"node":3,"path":"rotation"}},{"sampler":1,"target":{"node":3,"path":"translation"}},{"sampler":2,"target":{"node":3,"path":"scale"}},{"sampler":3,"target":{"node":1,"path":"rotation"}},{"sampler":4,"target":{"node":1,"path":"translation"}},{"sampler":5,"target":{"node":1,"path":"scale"}},{"sampler":6,"target":{"node":8,"path":"rotation"}},{"sampler":7,"target":{"node":8,"path":"translation"}},{"sampler":8,"target":{"node":6,"path":"translation"}}]}],"bufferViews":[{"buffer":0,"byteOffset":0,"byteLength":4},{"buffer":0,"byteOffset":4,"byteLength":16},{"buffer":0,"byteOffset":20,"byteLength":4},{"buffer":0,"byteOffset":24,"byteLength":12},{"buffer":0,"byteOffset":36,"byteLength":4},{"buffer":0,"byteOffset":40,"byteLength":12},{"buffer":0,"byteOffset":52,"byteLength":244},{"buffer":0,"byteOffset":296,"byteLength":976},{"buffer":0,"byteOffset":1272,"byteLength":248},{"buffer":0,"byteOffset":1520,"byteLength":744},{"buffer":0,"byteOffset":2264,"byteLength":4},{"buffer":0,"byteOffset":2268,"byteLength":12},{"buffer":0,"byteOffset":2280,"byteLength":248},{"buffer":0,"byteOffset":2528,"byteLength":992},{"buffer":0,"byteOffset":3520,"byteLength":256},{"buffer":0,"byteOffset":3776,"byteLength":768},{"buffer":0,"byteOffset":4544,"byteLength":16},{"buffer":0,"byteOffset":4560,"byteLength":48}],"buffers":[{"byteLength":4608,"uri":"data:application/octet-stream;base64,"}],"accessors":[{"bufferView":0,"componentType":5126,"count":1,"max":[0],"min":[0],"type":"SCALAR"},{"bufferView":1,"componentType":5126,"count":1,"max":[-4.568283934708652e-17,0.746057391166687,-0.6658816933631897,4.077349263308225e-17],"min":[-4.568283934708652e-17,0.746057391166687,-0.6658816933631897,4.077349263308225e-17],"type":"VEC4"},{"bufferView":2,"componentType":5126,"count":1,"max":[0],"min":[0],"type":"SCALAR"},{"bufferView":3,"componentType":5126,"count":1,"max":[0.04374999925494194,-0.04374999925494194,-0.18125000596046448],"min":[0.04374999925494194,-0.04374999925494194,-0.18125000596046448],"type":"VEC3"},{"bufferView":4,"componentType":5126,"count":1,"max":[0],"min":[0],"type":"SCALAR"},{"bufferView":5,"componentType":5126,"count":1,"max":[1.75,2,1.75],"min":[1.75,2,1.75],"type":"VEC3"},{"bufferView":6,"componentType":5126,"count":61,"max":[3.799999952316284],"min":[0],"type":"SCALAR"},{"bufferView":7,"componentType":5126,"count":61,"max":[0.40335947275161743,0.8259403109550476,-0.43427249789237976,0.08678201586008072],"min":[0.1915663182735443,0.7829908132553101,-0.523658275604248,-0.17799898982048035],"type":"VEC4"},{"bufferView":8,"componentType":5126,"count":62,"max":[3.799999952316284],"min":[0],"type":"SCALAR"},{"bufferView":9,"componentType":5126,"count":62,"max":[1.0583932399749756,-0.16606688499450684,1.2245787382125854],"min":[-1.8604098558425903,-2.1791069507598877,-0.9518468976020813],"type":"VEC3"},{"bufferView":10,"componentType":5126,"count":1,"max":[0],"min":[0],"type":"SCALAR"},{"bufferView":11,"componentType":5126,"count":1,"max":[1.75,2,1.75],"min":[1.75,2,1.75],"type":"VEC3"},{"bufferView":12,"componentType":5126,"count":62,"max":[4.099999904632568],"min":[0],"type":"SCALAR"},{"bufferView":13,"componentType":5126,"count":62,"max":[0.3812481164932251,0.29651665687561035,0.545272171497345,1],"min":[-0.028500303626060486,-0.05916493013501167,-0.41399043798446655,0.787324845790863],"type":"VEC4"},{"bufferView":14,"componentType":5126,"count":64,"max":[4.150000095367432],"min":[0],"type":"SCALAR"},{"bufferView":15,"componentType":5126,"count":64,"max":[0.525390625,0.5893750190734863,1.1712108850479126],"min":[0.3488442301750183,0.15406249463558197,0.6636718511581421],"type":"VEC3"},{"bufferView":16,"componentType":5126,"count":4,"max":[2.049999952316284],"min":[0.15000000596046448],"type":"SCALAR"},{"bufferView":17,"componentType":5126,"count":4,"max":[0,-0.027831874787807465,0],"min":[-0.14374999701976776,-0.027831874787807465,0],"type":"VEC3"}]}