{"asset":{"version":"2.0","generator":"Blockbench 4.2.4 glTF exporter"},"scenes":[{"nodes":[10],"name":"blockbench_export"}],"scene":0,"nodes":[{"translation":[-0.375,-0.6875,0],"name":"LeftHand"},{"translation":[0.375,0.9375,-0.4375],"name":"l","children":[0]},{"translation":[0.375,-0.6875,0],"name":"RightHand"},{"translation":[-0.375,0.9375,-0.5],"name":"R","children":[2]},{"translation":[0,0.5,-0.75],"name":"slide"},{"translation":[0,-0.284668125,0],"name":"mb"},{"translation":[0,-0.027831875000000006,0],"name":"gun","children":[4,5]},{"translation":[0,0,0.0625],"name":"bone2","children":[3,6]},{"translation":[0.5,0.25,0.9375],"name":"bone","children":[1,7]},{"name":"bone3","children":[8]},{"children":[9]}],"animations":[{"name":"reload_empty","samplers":[{"input":0,"output":1,"interpolation":"LINEAR"},{"input":2,"output":3,"interpolation":"LINEAR"},{"input":4,"output":5,"interpolation":"LINEAR"},{"input":6,"output":7,"interpolation":"LINEAR"},{"input":8,"output":9,"interpolation":"LINEAR"},{"input":10,"output":11,"interpolation":"LINEAR"},{"input":12,"output":13,"interpolation":"LINEAR"},{"input":14,"output":15,"interpolation":"LINEAR"},{"input":16,"output":17,"interpolation":"LINEAR"},{"input":18,"output":19,"interpolation":"LINEAR"},{"input":20,"output":21,"interpolation":"LINEAR"},{"input":22,"output":23,"interpolation":"LINEAR"}],"channels":[{"sampler":0,"target":{"node":3,"path":"rotation"}},{"sampler":1,"target":{"node":3,"path":"translation"}},{"sampler":2,"target":{"node":3,"path":"scale"}},{"sampler":3,"target":{"node":1,"path":"rotation"}},{"sampler":4,"target":{"node":1,"path":"translation"}},{"sampler":5,"target":{"node":1,"path":"scale"}},{"sampler":6,"target":{"node":4,"path":"translation"}},{"sampler":7,"target":{"node":5,"path":"rotation"}},{"sampler":8,"target":{"node":5,"path":"translation"}},{"sampler":9,"target":{"node":8,"path":"rotation"}},{"sampler":10,"target":{"node":8,"path":"translation"}},{"sampler":11,"target":{"node":9,"path":"translation"}}]}],"bufferViews":[{"buffer":0,"byteOffset":0,"byteLength":20},{"buffer":0,"byteOffset":20,"byteLength":80},{"buffer":0,"byteOffset":100,"byteLength":24},{"buffer":0,"byteOffset":124,"byteLength":72},{"buffer":0,"byteOffset":196,"byteLength":4},{"buffer":0,"byteOffset":200,"byteLength":12},{"buffer":0,"byteOffset":212,"byteLength":164},{"buffer":0,"byteOffset":376,"byteLength":656},{"buffer":0,"byteOffset":1032,"byteLength":160},{"buffer":0,"byteOffset":1192,"byteLength":480},{"buffer":0,"byteOffset":1672,"byteLength":4},{"buffer":0,"byteOffset":1676,"byteLength":12},{"buffer":0,"byteOffset":1688,"byteLength":8},{"buffer":0,"byteOffset":1696,"byteLength":24},{"buffer":0,"byteOffset":1720,"byteLength":36},{"buffer":0,"byteOffset":1756,"byteLength":144},{"buffer":0,"byteOffset":1900,"byteLength":60},{"buffer":0,"byteOffset":1960,"byteLength":180},{"buffer":0,"byteOffset":2140,"byteLength":188},{"buffer":0,"byteOffset":2328,"byteLength":752},{"buffer":0,"byteOffset":3080,"byteLength":180},{"buffer":0,"byteOffset":3260,"byteLength":540},{"buffer":0,"byteOffset":3800,"byteLength":16},{"buffer":0,"byteOffset":3816,"byteLength":48}],"buffers":[{"byteLength":3864,"uri":"data:application/octet-stream;base64,"}],"accessors":[{"bufferView":0,"componentType":5126,"count":5,"max":[2.200000047683716],"min":[0],"type":"SCALAR"},{"bufferView":1,"componentType":5126,"count":5,"max":[0.09428738057613373,0.7891920804977417,-0.6001155972480774,4.077349263308225e-17],"min":[-4.568283934708652e-17,0.7427988052368164,-0.6658816933631897,-0.09026055783033371],"type":"VEC4"},{"bufferView":2,"componentType":5126,"count":6,"max":[2.200000047683716],"min":[0],"type":"SCALAR"},{"bufferView":3,"componentType":5126,"count":6,"max":[0.04374999925494194,0.05000000074505806,-0.18125000596046448],"min":[0.04374999925494194,-0.04374999925494194,-0.25],"type":"VEC3"},{"bufferView":4,"componentType":5126,"count":1,"max":[0],"min":[0],"type":"SCALAR"},{"bufferView":5,"componentType":5126,"count":1,"max":[1.75,2,1.75],"min":[1.75,2,1.75],"type":"VEC3"},{"bufferView":6,"componentType":5126,"count":41,"max":[2.4000000953674316],"min":[0],"type":"SCALAR"},{"bufferView":7,"componentType":5126,"count":41,"max":[0.1982814073562622,0.8460209965705872,-0.24915771186351776,0.7943204045295715],"min":[-0.225200816988945,0.4909505248069763,-0.572425365447998,0.07394260913133621],"type":"VEC4"},{"bufferView":8,"componentType":5126,"count":40,"max":[2.4000000953674316],"min":[0],"type":"SCALAR"},{"bufferView":9,"componentType":5126,"count":40,"max":[1.0480008125305176,-0.19374999403953552,0.6134353876113892],"min":[-0.36567750573158264,-2.3929548263549805,-0.7437499761581421],"type":"VEC3"},{"bufferView":10,"componentType":5126,"count":1,"max":[0],"min":[0],"type":"SCALAR"},{"bufferView":11,"componentType":5126,"count":1,"max":[1.75,2,1.75],"min":[1.75,2,1.75],"type":"VEC3"},{"bufferView":12,"componentType":5126,"count":2,"max":[2.1500000953674316],"min":[2.0999999046325684],"type":"SCALAR"},{"bufferView":13,"componentType":5126,"count":2,"max":[0,0.5,-0.5625],"min":[0,0.5,-0.75],"type":"VEC3"},{"bufferView":14,"componentType":5126,"count":9,"max":[1.9500000476837158],"min":[0.20000000298023224],"type":"SCALAR"},{"bufferView":15,"componentType":5126,"count":9,"max":[0.047978129237890244,0.010919355787336826,0.9996573328971863,1],"min":[-0.0015733627369627357,0,-0.07769553363323212,0.026176948100328445],"type":"VEC4"},{"bufferView":16,"componentType":5126,"count":15,"max":[1.9500000476837158],"min":[0.20000000298023224],"type":"SCALAR"},{"bufferView":17,"componentType":5126,"count":15,"max":[2.40625,-0.28466811776161194,0.5577268600463867],"min":[-0.04306749999523163,-3.0284180641174316,0],"type":"VEC3"},{"bufferView":18,"componentType":5126,"count":47,"max":[2.700000047683716],"min":[0],"type":"SCALAR"},{"bufferView":19,"componentType":5126,"count":47,"max":[0.3092052936553955,0.34059563279151917,0.44251176714897156,1],"min":[-0.0050745075568556786,-0.023863228037953377,-0.4995032250881195,0.7550482153892517],"type":"VEC4"},{"bufferView":20,"componentType":5126,"count":45,"max":[2.6500000953674316],"min":[0],"type":"SCALAR"},{"bufferView":21,"componentType":5126,"count":45,"max":[0.6824073791503906,0.7058656811714172,1.1062500476837158],"min":[0.4625000059604645,0.23330077528953552,0.904248058795929],"type":"VEC3"},{"bufferView":22,"componentType":5126,"count":4,"max":[2.4000000953674316],"min":[0.10000000149011612],"type":"SCALAR"},{"bufferView":23,"componentType":5126,"count":4,"max":[0.1875,0,0],"min":[0,0,0],"type":"VEC3"}]}