{"asset":{"version":"2.0","generator":"Blockbench 4.2.4 glTF exporter"},"scenes":[{"nodes":[9],"name":"blockbench_export"}],"scene":0,"nodes":[{"translation":[-0.375,-0.6875,0],"name":"LeftHand"},{"translation":[0.875,1.1875,0.5],"name":"l","children":[0]},{"translation":[0,-0.25,0.4375],"name":"mag2"},{"translation":[0,0.3125,-0.5],"name":"mb","children":[2]},{"translation":[0,0.534668125,-0.75],"name":"slide"},{"translation":[0,-0.125,0.0625],"name":"gun","children":[3,4]},{"translation":[0.375,-0.6875,0],"name":"RightHand"},{"translation":[-0.375,0.875,-0.4375],"name":"r","children":[6]},{"translation":[0.5,0.3125,0.9375],"name":"bone","children":[5,7]},{"children":[1,8]}],"animations":[{"name":"reload_empty","samplers":[{"input":0,"output":1,"interpolation":"LINEAR"},{"input":2,"output":3,"interpolation":"LINEAR"},{"input":4,"output":5,"interpolation":"LINEAR"},{"input":6,"output":7,"interpolation":"LINEAR"},{"input":8,"output":9,"interpolation":"LINEAR"},{"input":10,"output":11,"interpolation":"LINEAR"},{"input":12,"output":13,"interpolation":"LINEAR"},{"input":14,"output":15,"interpolation":"LINEAR"},{"input":16,"output":17,"interpolation":"LINEAR"},{"input":18,"output":19,"interpolation":"LINEAR"},{"input":20,"output":21,"interpolation":"LINEAR"}],"channels":[{"sampler":0,"target":{"node":7,"path":"rotation"}},{"sampler":1,"target":{"node":7,"path":"translation"}},{"sampler":2,"target":{"node":7,"path":"scale"}},{"sampler":3,"target":{"node":2,"path":"rotation"}},{"sampler":4,"target":{"node":2,"path":"translation"}},{"sampler":5,"target":{"node":4,"path":"translation"}},{"sampler":6,"target":{"node":1,"path":"rotation"}},{"sampler":7,"target":{"node":1,"path":"translation"}},{"sampler":8,"target":{"node":1,"path":"scale"}},{"sampler":9,"target":{"node":8,"path":"rotation"}},{"sampler":10,"target":{"node":8,"path":"translation"}}]}],"bufferViews":[{"buffer":0,"byteOffset":0,"byteLength":4},{"buffer":0,"byteOffset":4,"byteLength":16},{"buffer":0,"byteOffset":20,"byteLength":4},{"buffer":0,"byteOffset":24,"byteLength":12},{"buffer":0,"byteOffset":36,"byteLength":4},{"buffer":0,"byteOffset":40,"byteLength":12},{"buffer":0,"byteOffset":52,"byteLength":76},{"buffer":0,"byteOffset":128,"byteLength":304},{"buffer":0,"byteOffset":432,"byteLength":72},{"buffer":0,"byteOffset":504,"byteLength":216},{"buffer":0,"byteOffset":720,"byteLength":16},{"buffer":0,"byteOffset":736,"byteLength":48},{"buffer":0,"byteOffset":784,"byteLength":96},{"buffer":0,"byteOffset":880,"byteLength":384},{"buffer":0,"byteOffset":1264,"byteLength":144},{"buffer":0,"byteOffset":1408,"byteLength":432},{"buffer":0,"byteOffset":1840,"byteLength":4},{"buffer":0,"byteOffset":1844,"byteLength":12},{"buffer":0,"byteOffset":1856,"byteLength":144},{"buffer":0,"byteOffset":2000,"byteLength":576},{"buffer":0,"byteOffset":2576,"byteLength":152},{"buffer":0,"byteOffset":2728,"byteLength":456}],"buffers":[{"byteLength":3184,"uri":"data:application/octet-stream;base64,"}],"accessors":[{"bufferView":0,"componentType":5126,"count":1,"max":[0],"min":[0],"type":"SCALAR"},{"bufferView":1,"componentType":5126,"count":1,"max":[-4.6906692768028125e-17,0.7660444378852844,-0.6427876353263855,3.9359390979975894e-17],"min":[-4.6906692768028125e-17,0.7660444378852844,-0.6427876353263855,3.9359390979975894e-17],"type":"VEC4"},{"bufferView":2,"componentType":5126,"count":1,"max":[0],"min":[0],"type":"SCALAR"},{"bufferView":3,"componentType":5126,"count":1,"max":[0,-0.08124999701976776,-0.08749999850988388],"min":[0,-0.08124999701976776,-0.08749999850988388],"type":"VEC3"},{"bufferView":4,"componentType":5126,"count":1,"max":[0],"min":[0],"type":"SCALAR"},{"bufferView":5,"componentType":5126,"count":1,"max":[1.75,2,1.75],"min":[1.75,2,1.75],"type":"VEC3"},{"bufferView":6,"componentType":5126,"count":19,"max":[1.350000023841858],"min":[0],"type":"SCALAR"},{"bufferView":7,"componentType":5126,"count":19,"max":[0.061048541218042374,0.0000898396028787829,0.02612808160483837,1],"min":[-0.004330483730882406,-0.001598077593371272,-0.001793359755538404,0.9981347918510437],"type":"VEC4"},{"bufferView":8,"componentType":5126,"count":18,"max":[1.350000023841858],"min":[0],"type":"SCALAR"},{"bufferView":9,"componentType":5126,"count":18,"max":[0.0062500000931322575,-0.25,1.4032118320465088],"min":[-0.00040803130832500756,-2.4057674407958984,0.4375],"type":"VEC3"},{"bufferView":10,"componentType":5126,"count":4,"max":[1.7999999523162842],"min":[0.05000000074505806],"type":"SCALAR"},{"bufferView":11,"componentType":5126,"count":4,"max":[0,0.5346681475639343,-0.4437499940395355],"min":[0,0.5346681475639343,-0.75],"type":"VEC3"},{"bufferView":12,"componentType":5126,"count":24,"max":[2],"min":[0],"type":"SCALAR"},{"bufferView":13,"componentType":5126,"count":24,"max":[0.03158023580908775,-0.7274044156074524,0.6854507923126221,0.32801249623298645],"min":[-0.5561995506286621,-0.9318496584892273,-0.05531831085681915,-0.21445295214653015],"type":"VEC4"},{"bufferView":14,"componentType":5126,"count":36,"max":[2.0999999046325684],"min":[0],"type":"SCALAR"},{"bufferView":15,"componentType":5126,"count":36,"max":[0.5328601598739624,0.48750001192092896,2.6181249618530273],"min":[-0.7059245705604553,-1.265474557876587,1.0625],"type":"VEC3"},{"bufferView":16,"componentType":5126,"count":1,"max":[0.05000000074505806],"min":[0.05000000074505806],"type":"SCALAR"},{"bufferView":17,"componentType":5126,"count":1,"max":[1.75,2,1.75],"min":[1.75,2,1.75],"type":"VEC3"},{"bufferView":18,"componentType":5126,"count":36,"max":[2.299999952316284],"min":[0],"type":"SCALAR"},{"bufferView":19,"componentType":5126,"count":36,"max":[0.25832998752593994,0.4760461151599884,0.4368129074573517,1],"min":[-0.004480760544538498,-0.03053884580731392,-0.5175738334655762,0.6845091581344604],"type":"VEC4"},{"bufferView":20,"componentType":5126,"count":38,"max":[2.3499999046325684],"min":[0],"type":"SCALAR"},{"bufferView":21,"componentType":5126,"count":38,"max":[0.9183593988418579,0.5942129492759705,1.193750023841858],"min":[0.48124998807907104,-0.07964843511581421,0.7124999761581421],"type":"VEC3"}]}