{"asset":{"version":"2.0","generator":"Blockbench 4.2.4 glTF exporter"},"scenes":[{"nodes":[10],"name":"blockbench_export"}],"scene":0,"nodes":[{"translation":[-0.375,-0.6875,0],"name":"LeftHand"},{"translation":[0.375,0.9375,-0.4375],"name":"l","children":[0]},{"translation":[0.375,-0.6875,0],"name":"RightHand"},{"translation":[-0.375,0.9375,-0.5],"name":"R","children":[2]},{"translation":[0,0.5,-0.75],"name":"slide"},{"translation":[0,-0.284668125,0],"name":"mb"},{"translation":[0,-0.027831875000000006,0],"name":"gun","children":[4,5]},{"translation":[0,0,0.0625],"name":"bone2","children":[3,6]},{"translation":[0.5,0.25,0.9375],"name":"bone","children":[1,7]},{"name":"bone3","children":[8]},{"children":[9]}],"animations":[{"name":"draw","samplers":[{"input":0,"output":1,"interpolation":"LINEAR"},{"input":2,"output":3,"interpolation":"LINEAR"},{"input":4,"output":5,"interpolation":"LINEAR"},{"input":6,"output":7,"interpolation":"LINEAR"},{"input":8,"output":9,"interpolation":"LINEAR"},{"input":10,"output":11,"interpolation":"LINEAR"},{"input":12,"output":13,"interpolation":"LINEAR"},{"input":14,"output":15,"interpolation":"LINEAR"}],"channels":[{"sampler":0,"target":{"node":3,"path":"rotation"}},{"sampler":1,"target":{"node":3,"path":"translation"}},{"sampler":2,"target":{"node":3,"path":"scale"}},{"sampler":3,"target":{"node":1,"path":"rotation"}},{"sampler":4,"target":{"node":1,"path":"translation"}},{"sampler":5,"target":{"node":1,"path":"scale"}},{"sampler":6,"target":{"node":8,"path":"rotation"}},{"sampler":7,"target":{"node":8,"path":"translation"}}]}],"bufferViews":[{"buffer":0,"byteOffset":0,"byteLength":4},{"buffer":0,"byteOffset":4,"byteLength":16},{"buffer":0,"byteOffset":20,"byteLength":4},{"buffer":0,"byteOffset":24,"byteLength":12},{"buffer":0,"byteOffset":36,"byteLength":4},{"buffer":0,"byteOffset":40,"byteLength":12},{"buffer":0,"byteOffset":52,"byteLength":20},{"buffer":0,"byteOffset":72,"byteLength":80},{"buffer":0,"byteOffset":152,"byteLength":20},{"buffer":0,"byteOffset":172,"byteLength":60},{"buffer":0,"byteOffset":232,"byteLength":4},{"buffer":0,"byteOffset":236,"byteLength":12},{"buffer":0,"byteOffset":248,"byteLength":52},{"buffer":0,"byteOffset":300,"byteLength":208},{"buffer":0,"byteOffset":508,"byteLength":40},{"buffer":0,"byteOffset":548,"byteLength":120}],"buffers":[{"byteLength":668,"uri":"data:application/octet-stream;base64,"}],"accessors":[{"bufferView":0,"componentType":5126,"count":1,"max":[0],"min":[0],"type":"SCALAR"},{"bufferView":1,"componentType":5126,"count":1,"max":[-4.568283934708652e-17,0.746057391166687,-0.6658816933631897,4.077349263308225e-17],"min":[-4.568283934708652e-17,0.746057391166687,-0.6658816933631897,4.077349263308225e-17],"type":"VEC4"},{"bufferView":2,"componentType":5126,"count":1,"max":[0],"min":[0],"type":"SCALAR"},{"bufferView":3,"componentType":5126,"count":1,"max":[0.04374999925494194,-0.04374999925494194,-0.18125000596046448],"min":[0.04374999925494194,-0.04374999925494194,-0.18125000596046448],"type":"VEC3"},{"bufferView":4,"componentType":5126,"count":1,"max":[0],"min":[0],"type":"SCALAR"},{"bufferView":5,"componentType":5126,"count":1,"max":[1.75,2,1.75],"min":[1.75,2,1.75],"type":"VEC3"},{"bufferView":6,"componentType":5126,"count":5,"max":[0.4000000059604645],"min":[0],"type":"SCALAR"},{"bufferView":7,"componentType":5126,"count":5,"max":[0.1982814073562622,0.8259403109550476,-0.5225318670272827,0.19872771203517914],"min":[0.1164812296628952,0.8050790429115295,-0.5466142296791077,0.07394260913133621],"type":"VEC4"},{"bufferView":8,"componentType":5126,"count":5,"max":[0.4000000059604645],"min":[0],"type":"SCALAR"},{"bufferView":9,"componentType":5126,"count":5,"max":[0,-0.19374999403953552,-0.5159593820571899],"min":[-0.9415137767791748,-0.7901918888092041,-0.7437499761581421],"type":"VEC3"},{"bufferView":10,"componentType":5126,"count":1,"max":[0],"min":[0],"type":"SCALAR"},{"bufferView":11,"componentType":5126,"count":1,"max":[1.75,2,1.75],"min":[1.75,2,1.75],"type":"VEC3"},{"bufferView":12,"componentType":5126,"count":13,"max":[0.75],"min":[0],"type":"SCALAR"},{"bufferView":13,"componentType":5126,"count":13,"max":[0.2745101749897003,0.12068329751491547,0.13813573122024536,1],"min":[-0.013708177022635937,-0.0007521638181060553,-0.008726535364985466,0.9528698921203613],"type":"VEC4"},{"bufferView":14,"componentType":5126,"count":10,"max":[0.699999988079071],"min":[0],"type":"SCALAR"},{"bufferView":15,"componentType":5126,"count":10,"max":[1.037500023841858,0.25,1.587499976158142],"min":[0.49291089177131653,-1.53125,0.9375],"type":"VEC3"}]}