{"asset":{"version":"2.0","generator":"Blockbench 4.2.4 glTF exporter"},"scenes":[{"nodes":[10],"name":"blockbench_export"}],"scene":0,"nodes":[{"translation":[-0.375,-0.6875,0],"name":"LeftHand"},{"translation":[0.375,0.9375,-0.4375],"name":"l","children":[0]},{"translation":[0.375,-0.6875,0],"name":"RightHand"},{"translation":[-0.375,0.9375,-0.5],"name":"R","children":[2]},{"translation":[0,0.5,-0.75],"name":"slide"},{"translation":[0,-0.284668125,0],"name":"mb"},{"translation":[0,-0.027831875000000006,0],"name":"gun","children":[4,5]},{"translation":[0,0,0.0625],"name":"bone2","children":[3,6]},{"translation":[0.5,0.25,0.9375],"name":"bone","children":[1,7]},{"name":"bone3","children":[8]},{"children":[9]}],"animations":[{"name":"reload_norm","samplers":[{"input":0,"output":1,"interpolation":"LINEAR"},{"input":2,"output":3,"interpolation":"LINEAR"},{"input":4,"output":5,"interpolation":"LINEAR"},{"input":6,"output":7,"interpolation":"LINEAR"},{"input":8,"output":9,"interpolation":"LINEAR"},{"input":10,"output":11,"interpolation":"LINEAR"},{"input":12,"output":13,"interpolation":"LINEAR"},{"input":14,"output":15,"interpolation":"LINEAR"},{"input":16,"output":17,"interpolation":"LINEAR"},{"input":18,"output":19,"interpolation":"LINEAR"},{"input":20,"output":21,"interpolation":"LINEAR"}],"channels":[{"sampler":0,"target":{"node":3,"path":"rotation"}},{"sampler":1,"target":{"node":3,"path":"translation"}},{"sampler":2,"target":{"node":3,"path":"scale"}},{"sampler":3,"target":{"node":1,"path":"rotation"}},{"sampler":4,"target":{"node":1,"path":"translation"}},{"sampler":5,"target":{"node":1,"path":"scale"}},{"sampler":6,"target":{"node":5,"path":"rotation"}},{"sampler":7,"target":{"node":5,"path":"translation"}},{"sampler":8,"target":{"node":8,"path":"rotation"}},{"sampler":9,"target":{"node":8,"path":"translation"}},{"sampler":10,"target":{"node":9,"path":"translation"}}]}],"bufferViews":[{"buffer":0,"byteOffset":0,"byteLength":4},{"buffer":0,"byteOffset":4,"byteLength":16},{"buffer":0,"byteOffset":20,"byteLength":4},{"buffer":0,"byteOffset":24,"byteLength":12},{"buffer":0,"byteOffset":36,"byteLength":4},{"buffer":0,"byteOffset":40,"byteLength":12},{"buffer":0,"byteOffset":52,"byteLength":104},{"buffer":0,"byteOffset":156,"byteLength":416},{"buffer":0,"byteOffset":572,"byteLength":104},{"buffer":0,"byteOffset":676,"byteLength":312},{"buffer":0,"byteOffset":988,"byteLength":4},{"buffer":0,"byteOffset":992,"byteLength":12},{"buffer":0,"byteOffset":1004,"byteLength":28},{"buffer":0,"byteOffset":1032,"byteLength":112},{"buffer":0,"byteOffset":1144,"byteLength":44},{"buffer":0,"byteOffset":1188,"byteLength":132},{"buffer":0,"byteOffset":1320,"byteLength":128},{"buffer":0,"byteOffset":1448,"byteLength":512},{"buffer":0,"byteOffset":1960,"byteLength":124},{"buffer":0,"byteOffset":2084,"byteLength":372},{"buffer":0,"byteOffset":2456,"byteLength":16},{"buffer":0,"byteOffset":2472,"byteLength":48}],"buffers":[{"byteLength":2520,"uri":"data:application/octet-stream;base64,"}],"accessors":[{"bufferView":0,"componentType":5126,"count":1,"max":[0],"min":[0],"type":"SCALAR"},{"bufferView":1,"componentType":5126,"count":1,"max":[-4.568283934708652e-17,0.746057391166687,-0.6658816933631897,4.077349263308225e-17],"min":[-4.568283934708652e-17,0.746057391166687,-0.6658816933631897,4.077349263308225e-17],"type":"VEC4"},{"bufferView":2,"componentType":5126,"count":1,"max":[0],"min":[0],"type":"SCALAR"},{"bufferView":3,"componentType":5126,"count":1,"max":[0.04374999925494194,-0.04374999925494194,-0.18125000596046448],"min":[0.04374999925494194,-0.04374999925494194,-0.18125000596046448],"type":"VEC3"},{"bufferView":4,"componentType":5126,"count":1,"max":[0],"min":[0],"type":"SCALAR"},{"bufferView":5,"componentType":5126,"count":1,"max":[1.75,2,1.75],"min":[1.75,2,1.75],"type":"VEC3"},{"bufferView":6,"componentType":5126,"count":26,"max":[1.75],"min":[0],"type":"SCALAR"},{"bufferView":7,"componentType":5126,"count":26,"max":[0.2219775766134262,0.9262619614601135,0.1055140420794487,0.8483293652534485],"min":[-0.3073575496673584,0.5122350454330444,-0.553638219833374,0.07394260913133621],"type":"VEC4"},{"bufferView":8,"componentType":5126,"count":26,"max":[1.75],"min":[0],"type":"SCALAR"},{"bufferView":9,"componentType":5126,"count":26,"max":[0.32638874650001526,-0.19374999403953552,0.7695398926734924],"min":[-0.2512499988079071,-1.8947412967681885,-0.8243749737739563],"type":"VEC3"},{"bufferView":10,"componentType":5126,"count":1,"max":[0],"min":[0],"type":"SCALAR"},{"bufferView":11,"componentType":5126,"count":1,"max":[1.75,2,1.75],"min":[1.75,2,1.75],"type":"VEC3"},{"bufferView":12,"componentType":5126,"count":7,"max":[1.4500000476837158],"min":[0.550000011920929],"type":"SCALAR"},{"bufferView":13,"componentType":5126,"count":7,"max":[0.4749619960784912,0.01193895936012268,0.008690678514540195,1],"min":[-0.00002394772855041083,-0.03512762114405632,-0.19894185662269592,0.874771237373352],"type":"VEC4"},{"bufferView":14,"componentType":5126,"count":11,"max":[1.4500000476837158],"min":[0.4000000059604645],"type":"SCALAR"},{"bufferView":15,"componentType":5126,"count":11,"max":[0.734375,-0.28466811776161194,0.668749988079071],"min":[0,-1.4346681833267212,0],"type":"VEC3"},{"bufferView":16,"componentType":5126,"count":32,"max":[2],"min":[0],"type":"SCALAR"},{"bufferView":17,"componentType":5126,"count":32,"max":[0.23394636809825897,0.35240110754966736,0.05034846439957619,1],"min":[0,0,-0.5508110523223877,0.7489334344863892],"type":"VEC4"},{"bufferView":18,"componentType":5126,"count":31,"max":[1.9500000476837158],"min":[0],"type":"SCALAR"},{"bufferView":19,"componentType":5126,"count":31,"max":[0.699999988079071,0.6637499928474426,1.0237499475479126],"min":[0.4945312440395355,0.24257811903953552,0.793749988079071],"type":"VEC3"},{"bufferView":20,"componentType":5126,"count":4,"max":[1.7999999523162842],"min":[0.05000000074505806],"type":"SCALAR"},{"bufferView":21,"componentType":5126,"count":4,"max":[0.1875,0,0],"min":[0,0,0],"type":"VEC3"}]}