{"asset":{"version":"2.0","generator":"Blockbench 4.2.4 glTF exporter"},"scenes":[{"nodes":[9],"name":"blockbench_export"}],"scene":0,"nodes":[{"translation":[-0.375,-0.6875,0],"name":"LeftHand"},{"translation":[0.875,1.1875,0.5],"name":"l","children":[0]},{"translation":[0,-0.25,0.4375],"name":"mag2"},{"translation":[0,0.3125,-0.5],"name":"mb","children":[2]},{"translation":[0,0.534668125,-0.75],"name":"slide"},{"translation":[0,-0.125,0.0625],"name":"gun","children":[3,4]},{"translation":[0.375,-0.6875,0],"name":"RightHand"},{"translation":[-0.375,0.875,-0.4375],"name":"r","children":[6]},{"translation":[0.5,0.3125,0.9375],"name":"bone","children":[5,7]},{"children":[1,8]}],"animations":[{"name":"inspect","samplers":[{"input":0,"output":1,"interpolation":"LINEAR"},{"input":2,"output":3,"interpolation":"LINEAR"},{"input":4,"output":5,"interpolation":"LINEAR"},{"input":6,"output":7,"interpolation":"LINEAR"},{"input":8,"output":9,"interpolation":"LINEAR"},{"input":10,"output":11,"interpolation":"LINEAR"},{"input":12,"output":13,"interpolation":"LINEAR"},{"input":14,"output":15,"interpolation":"LINEAR"},{"input":16,"output":17,"interpolation":"LINEAR"}],"channels":[{"sampler":0,"target":{"node":7,"path":"rotation"}},{"sampler":1,"target":{"node":7,"path":"translation"}},{"sampler":2,"target":{"node":7,"path":"scale"}},{"sampler":3,"target":{"node":1,"path":"rotation"}},{"sampler":4,"target":{"node":1,"path":"translation"}},{"sampler":5,"target":{"node":1,"path":"scale"}},{"sampler":6,"target":{"node":8,"path":"rotation"}},{"sampler":7,"target":{"node":8,"path":"translation"}},{"sampler":8,"target":{"node":5,"path":"translation"}}]}],"bufferViews":[{"buffer":0,"byteOffset":0,"byteLength":4},{"buffer":0,"byteOffset":4,"byteLength":16},{"buffer":0,"byteOffset":20,"byteLength":4},{"buffer":0,"byteOffset":24,"byteLength":12},{"buffer":0,"byteOffset":36,"byteLength":4},{"buffer":0,"byteOffset":40,"byteLength":12},{"buffer":0,"byteOffset":52,"byteLength":244},{"buffer":0,"byteOffset":296,"byteLength":976},{"buffer":0,"byteOffset":1272,"byteLength":244},{"buffer":0,"byteOffset":1516,"byteLength":732},{"buffer":0,"byteOffset":2248,"byteLength":4},{"buffer":0,"byteOffset":2252,"byteLength":12},{"buffer":0,"byteOffset":2264,"byteLength":272},{"buffer":0,"byteOffset":2536,"byteLength":1088},{"buffer":0,"byteOffset":3624,"byteLength":276},{"buffer":0,"byteOffset":3900,"byteLength":828},{"buffer":0,"byteOffset":4728,"byteLength":16},{"buffer":0,"byteOffset":4744,"byteLength":48}],"buffers":[{"byteLength":4792,"uri":"data:application/octet-stream;base64,"}],"accessors":[{"bufferView":0,"componentType":5126,"count":1,"max":[0],"min":[0],"type":"SCALAR"},{"bufferView":1,"componentType":5126,"count":1,"max":[-4.6906692768028125e-17,0.7660444378852844,-0.6427876353263855,3.9359390979975894e-17],"min":[-4.6906692768028125e-17,0.7660444378852844,-0.6427876353263855,3.9359390979975894e-17],"type":"VEC4"},{"bufferView":2,"componentType":5126,"count":1,"max":[0],"min":[0],"type":"SCALAR"},{"bufferView":3,"componentType":5126,"count":1,"max":[0,-0.08124999701976776,-0.08749999850988388],"min":[0,-0.08124999701976776,-0.08749999850988388],"type":"VEC3"},{"bufferView":4,"componentType":5126,"count":1,"max":[0],"min":[0],"type":"SCALAR"},{"bufferView":5,"componentType":5126,"count":1,"max":[1.75,2,1.75],"min":[1.75,2,1.75],"type":"VEC3"},{"bufferView":6,"componentType":5126,"count":61,"max":[3.700000047683716],"min":[0],"type":"SCALAR"},{"bufferView":7,"componentType":5126,"count":61,"max":[0.012467635795474052,-0.7157901525497437,0.661409854888916,0.6609387993812561],"min":[-0.32426267862319946,-0.8552350401878357,0.07737725973129272,-0.06683574616909027],"type":"VEC4"},{"bufferView":8,"componentType":5126,"count":61,"max":[3.700000047683716],"min":[0],"type":"SCALAR"},{"bufferView":9,"componentType":5126,"count":61,"max":[0.10000000149011612,0.5067901015281677,1.3567129373550415],"min":[-0.7421237826347351,-1.3027654886245728,1.1138900518417358],"type":"VEC3"},{"bufferView":10,"componentType":5126,"count":1,"max":[0.05000000074505806],"min":[0.05000000074505806],"type":"SCALAR"},{"bufferView":11,"componentType":5126,"count":1,"max":[1.75,2,1.75],"min":[1.75,2,1.75],"type":"VEC3"},{"bufferView":12,"componentType":5126,"count":68,"max":[4.449999809265137],"min":[0],"type":"SCALAR"},{"bufferView":13,"componentType":5126,"count":68,"max":[0.412675678730011,0.2524351477622986,0.6892290115356445,1],"min":[-0.008105466142296791,-0.17812345921993256,-0.36516088247299194,0.6410365104675293],"type":"VEC4"},{"bufferView":14,"componentType":5126,"count":69,"max":[4.449999809265137],"min":[0],"type":"SCALAR"},{"bufferView":15,"componentType":5126,"count":69,"max":[0.5386092662811279,0.48124998807907104,1.07845938205719],"min":[0.45277777314186096,0.23749999701976776,0.9277777671813965],"type":"VEC3"},{"bufferView":16,"componentType":5126,"count":4,"max":[2.1500000953674316],"min":[0.10000000149011612],"type":"SCALAR"},{"bufferView":17,"componentType":5126,"count":4,"max":[0,-0.125,0.0625],"min":[-0.20000000298023224,-0.125,0.0625],"type":"VEC3"}]}