{"asset":{"version":"2.0","generator":"Blockbench 4.2.4 glTF exporter"},"scenes":[{"nodes":[9],"name":"blockbench_export"}],"scene":0,"nodes":[{"translation":[-0.375,-0.6875,0],"name":"LeftHand"},{"translation":[0.875,1.1875,0.5],"name":"l","children":[0]},{"translation":[0,-0.25,0.4375],"name":"mag2"},{"translation":[0,0.3125,-0.5],"name":"mb","children":[2]},{"translation":[0,0.534668125,-0.75],"name":"slide"},{"translation":[0,-0.125,0.0625],"name":"gun","children":[3,4]},{"translation":[0.375,-0.6875,0],"name":"RightHand"},{"translation":[-0.375,0.875,-0.4375],"name":"r","children":[6]},{"translation":[0.5,0.3125,0.9375],"name":"bone","children":[5,7]},{"children":[1,8]}],"animations":[{"name":"reload_norm","samplers":[{"input":0,"output":1,"interpolation":"LINEAR"},{"input":2,"output":3,"interpolation":"LINEAR"},{"input":4,"output":5,"interpolation":"LINEAR"},{"input":6,"output":7,"interpolation":"LINEAR"},{"input":8,"output":9,"interpolation":"LINEAR"},{"input":10,"output":11,"interpolation":"LINEAR"},{"input":12,"output":13,"interpolation":"LINEAR"},{"input":14,"output":15,"interpolation":"LINEAR"},{"input":16,"output":17,"interpolation":"LINEAR"},{"input":18,"output":19,"interpolation":"LINEAR"}],"channels":[{"sampler":0,"target":{"node":7,"path":"rotation"}},{"sampler":1,"target":{"node":7,"path":"translation"}},{"sampler":2,"target":{"node":7,"path":"scale"}},{"sampler":3,"target":{"node":2,"path":"rotation"}},{"sampler":4,"target":{"node":2,"path":"translation"}},{"sampler":5,"target":{"node":1,"path":"rotation"}},{"sampler":6,"target":{"node":1,"path":"translation"}},{"sampler":7,"target":{"node":1,"path":"scale"}},{"sampler":8,"target":{"node":8,"path":"rotation"}},{"sampler":9,"target":{"node":8,"path":"translation"}}]}],"bufferViews":[{"buffer":0,"byteOffset":0,"byteLength":108},{"buffer":0,"byteOffset":108,"byteLength":432},{"buffer":0,"byteOffset":540,"byteLength":108},{"buffer":0,"byteOffset":648,"byteLength":324},{"buffer":0,"byteOffset":972,"byteLength":4},{"buffer":0,"byteOffset":976,"byteLength":12},{"buffer":0,"byteOffset":988,"byteLength":72},{"buffer":0,"byteOffset":1060,"byteLength":288},{"buffer":0,"byteOffset":1348,"byteLength":72},{"buffer":0,"byteOffset":1420,"byteLength":216},{"buffer":0,"byteOffset":1636,"byteLength":112},{"buffer":0,"byteOffset":1748,"byteLength":448},{"buffer":0,"byteOffset":2196,"byteLength":116},{"buffer":0,"byteOffset":2312,"byteLength":348},{"buffer":0,"byteOffset":2660,"byteLength":4},{"buffer":0,"byteOffset":2664,"byteLength":12},{"buffer":0,"byteOffset":2676,"byteLength":124},{"buffer":0,"byteOffset":2800,"byteLength":496},{"buffer":0,"byteOffset":3296,"byteLength":124},{"buffer":0,"byteOffset":3420,"byteLength":372}],"buffers":[{"byteLength":3792,"uri":"data:application/octet-stream;base64,"}],"accessors":[{"bufferView":0,"componentType":5126,"count":27,"max":[1.5499999523162842],"min":[0],"type":"SCALAR"},{"bufferView":1,"componentType":5126,"count":27,"max":[-4.6906692768028125e-17,0.7682881355285645,-0.6391634345054626,0.04009166732430458],"min":[-0.03364094719290733,0.7201099395751953,-0.6938273906707764,3.9359390979975894e-17],"type":"VEC4"},{"bufferView":2,"componentType":5126,"count":27,"max":[1.5499999523162842],"min":[0],"type":"SCALAR"},{"bufferView":3,"componentType":5126,"count":27,"max":[0.03669875115156174,-0.07782000303268433,-0.038001205772161484],"min":[0,-0.09201627224683762,-0.08749999850988388],"type":"VEC3"},{"bufferView":4,"componentType":5126,"count":1,"max":[0.05000000074505806],"min":[0.05000000074505806],"type":"SCALAR"},{"bufferView":5,"componentType":5126,"count":1,"max":[1.75,2,1.75],"min":[1.75,2,1.75],"type":"VEC3"},{"bufferView":6,"componentType":5126,"count":18,"max":[1.350000023841858],"min":[0],"type":"SCALAR"},{"bufferView":7,"componentType":5126,"count":18,"max":[0.22982458770275116,0.08394072204828262,0.033442575484514236,1],"min":[-0.0037028875667601824,-0.01243929285556078,-0.4987093210220337,0.8317399024963379],"type":"VEC4"},{"bufferView":8,"componentType":5126,"count":18,"max":[1.350000023841858],"min":[0],"type":"SCALAR"},{"bufferView":9,"componentType":5126,"count":18,"max":[0.339089572429657,-0.25,1.1030113697052002],"min":[0,-2.1346306800842285,0.4375],"type":"VEC3"},{"bufferView":10,"componentType":5126,"count":28,"max":[1.7999999523162842],"min":[0],"type":"SCALAR"},{"bufferView":11,"componentType":5126,"count":28,"max":[0.029597921296954155,-0.7163965106010437,0.659345805644989,4.037328610911684e-17],"min":[-0.33762887120246887,-0.9685983061790466,0.20539230108261108,-0.6279676556587219],"type":"VEC4"},{"bufferView":12,"componentType":5126,"count":29,"max":[1.7999999523162842],"min":[0],"type":"SCALAR"},{"bufferView":13,"componentType":5126,"count":29,"max":[0.24375000596046448,0.34375,1.3581249713897705],"min":[-0.6875,-1.3591480255126953,0.8500000238418579],"type":"VEC3"},{"bufferView":14,"componentType":5126,"count":1,"max":[0.05000000074505806],"min":[0.05000000074505806],"type":"SCALAR"},{"bufferView":15,"componentType":5126,"count":1,"max":[1.75,2,1.75],"min":[1.75,2,1.75],"type":"VEC3"},{"bufferView":16,"componentType":5126,"count":31,"max":[1.899999976158142],"min":[0],"type":"SCALAR"},{"bufferView":17,"componentType":5126,"count":31,"max":[0.2337733954191208,0.34867897629737854,0.04549238085746765,1],"min":[-0.0007612633053213358,-0.00007935252506285906,-0.45232093334198,0.7966025471687317],"type":"VEC4"},{"bufferView":18,"componentType":5126,"count":31,"max":[1.899999976158142],"min":[0],"type":"SCALAR"},{"bufferView":19,"componentType":5126,"count":31,"max":[0.625,0.59375,1.1268750429153442],"min":[0.4992755353450775,0.25062501430511475,0.9318402409553528],"type":"VEC3"}]}