{"asset":{"version":"2.0","generator":"Blockbench 4.2.4 glTF exporter"},"scenes":[{"nodes":[9],"name":"blockbench_export"}],"scene":0,"nodes":[{"translation":[-0.375,-0.6875,0],"name":"LeftHand"},{"translation":[0.875,1.1875,0.5],"name":"l","children":[0]},{"translation":[0,-0.25,0.4375],"name":"mag2"},{"translation":[0,0.3125,-0.5],"name":"mb","children":[2]},{"translation":[0,0.534668125,-0.75],"name":"slide"},{"translation":[0,-0.125,0.0625],"name":"gun","children":[3,4]},{"translation":[0.375,-0.6875,0],"name":"RightHand"},{"translation":[-0.375,0.875,-0.4375],"name":"r","children":[6]},{"translation":[0.5,0.3125,0.9375],"name":"bone","children":[5,7]},{"children":[1,8]}],"animations":[{"name":"draw","samplers":[{"input":0,"output":1,"interpolation":"LINEAR"},{"input":2,"output":3,"interpolation":"LINEAR"},{"input":4,"output":5,"interpolation":"LINEAR"},{"input":6,"output":7,"interpolation":"LINEAR"},{"input":8,"output":9,"interpolation":"LINEAR"},{"input":10,"output":11,"interpolation":"LINEAR"},{"input":12,"output":13,"interpolation":"LINEAR"},{"input":14,"output":15,"interpolation":"LINEAR"}],"channels":[{"sampler":0,"target":{"node":7,"path":"rotation"}},{"sampler":1,"target":{"node":7,"path":"translation"}},{"sampler":2,"target":{"node":7,"path":"scale"}},{"sampler":3,"target":{"node":1,"path":"rotation"}},{"sampler":4,"target":{"node":1,"path":"translation"}},{"sampler":5,"target":{"node":1,"path":"scale"}},{"sampler":6,"target":{"node":8,"path":"rotation"}},{"sampler":7,"target":{"node":8,"path":"translation"}}]}],"bufferViews":[{"buffer":0,"byteOffset":0,"byteLength":4},{"buffer":0,"byteOffset":4,"byteLength":16},{"buffer":0,"byteOffset":20,"byteLength":4},{"buffer":0,"byteOffset":24,"byteLength":12},{"buffer":0,"byteOffset":36,"byteLength":4},{"buffer":0,"byteOffset":40,"byteLength":12},{"buffer":0,"byteOffset":52,"byteLength":4},{"buffer":0,"byteOffset":56,"byteLength":16},{"buffer":0,"byteOffset":72,"byteLength":4},{"buffer":0,"byteOffset":76,"byteLength":12},{"buffer":0,"byteOffset":88,"byteLength":4},{"buffer":0,"byteOffset":92,"byteLength":12},{"buffer":0,"byteOffset":104,"byteLength":60},{"buffer":0,"byteOffset":164,"byteLength":240},{"buffer":0,"byteOffset":404,"byteLength":60},{"buffer":0,"byteOffset":464,"byteLength":180}],"buffers":[{"byteLength":644,"uri":"data:application/octet-stream;base64,"}],"accessors":[{"bufferView":0,"componentType":5126,"count":1,"max":[0],"min":[0],"type":"SCALAR"},{"bufferView":1,"componentType":5126,"count":1,"max":[-4.6906692768028125e-17,0.7660444378852844,-0.6427876353263855,3.9359390979975894e-17],"min":[-4.6906692768028125e-17,0.7660444378852844,-0.6427876353263855,3.9359390979975894e-17],"type":"VEC4"},{"bufferView":2,"componentType":5126,"count":1,"max":[0],"min":[0],"type":"SCALAR"},{"bufferView":3,"componentType":5126,"count":1,"max":[0,-0.08124999701976776,-0.08749999850988388],"min":[0,-0.08124999701976776,-0.08749999850988388],"type":"VEC3"},{"bufferView":4,"componentType":5126,"count":1,"max":[0],"min":[0],"type":"SCALAR"},{"bufferView":5,"componentType":5126,"count":1,"max":[1.75,2,1.75],"min":[1.75,2,1.75],"type":"VEC3"},{"bufferView":6,"componentType":5126,"count":1,"max":[0.05000000074505806],"min":[0.05000000074505806],"type":"SCALAR"},{"bufferView":7,"componentType":5126,"count":1,"max":[-4.6036909045206166e-17,-0.751839816570282,0.659345805644989,4.037328610911684e-17],"min":[-4.6036909045206166e-17,-0.751839816570282,0.659345805644989,4.037328610911684e-17],"type":"VEC4"},{"bufferView":8,"componentType":5126,"count":1,"max":[0.05000000074505806],"min":[0.05000000074505806],"type":"SCALAR"},{"bufferView":9,"componentType":5126,"count":1,"max":[-0.6875,-1.1875,1.125],"min":[-0.6875,-1.1875,1.125],"type":"VEC3"},{"bufferView":10,"componentType":5126,"count":1,"max":[0.05000000074505806],"min":[0.05000000074505806],"type":"SCALAR"},{"bufferView":11,"componentType":5126,"count":1,"max":[1.75,2,1.75],"min":[1.75,2,1.75],"type":"VEC3"},{"bufferView":12,"componentType":5126,"count":15,"max":[0.8500000238418579],"min":[0],"type":"SCALAR"},{"bufferView":13,"componentType":5126,"count":15,"max":[0.0010497351177036762,0.03230109438300133,0.17432303726673126,1],"min":[-0.30732420086860657,-0.00023133507056627423,-0.01948043517768383,0.9458464980125427],"type":"VEC4"},{"bufferView":14,"componentType":5126,"count":15,"max":[0.8500000238418579],"min":[0],"type":"SCALAR"},{"bufferView":15,"componentType":5126,"count":15,"max":[0.5,0.3126867115497589,1.71875],"min":[0.5,-1.21875,0.6363281011581421],"type":"VEC3"}]}