{"asset":{"version":"2.0","generator":"Blockbench 4.2.4 glTF exporter"},"scenes":[{"nodes":[11],"name":"blockbench_export"}],"scene":0,"nodes":[{"translation":[-0.375,-0.6875,0],"name":"LeftHand"},{"translation":[0.375,0.75,-0.9375],"name":"l","children":[0]},{"translation":[0.375,-0.6875,0],"name":"RightHand"},{"translation":[-0.375,0.75,-0.9375],"name":"r","children":[2]},{"translation":[-0.005619374999999982,0.626953125,0.2410874999999999],"name":"lever"},{"translation":[0.001953125,-0.4296875,-0.71484375],"name":"rear","children":[4]},{"translation":[-0.0625,0.1875,0.125],"name":"12_gauge2"},{"translation":[0.125,0.1875,0.125],"name":"12_gauge"},{"translation":[0,0.0625,-1],"name":"front","children":[6,7]},{"translation":[0,0,0.0625],"name":"gun","children":[5,8]},{"translation":[0.5,0.4375,1.4375],"name":"bone","children":[1,3,9]},{"children":[10]}],"animations":[{"name":"reload_empty","samplers":[{"input":0,"output":1,"interpolation":"LINEAR"},{"input":2,"output":3,"interpolation":"LINEAR"},{"input":4,"output":5,"interpolation":"LINEAR"},{"input":6,"output":7,"interpolation":"LINEAR"},{"input":8,"output":9,"interpolation":"LINEAR"},{"input":10,"output":11,"interpolation":"LINEAR"},{"input":12,"output":13,"interpolation":"LINEAR"},{"input":14,"output":15,"interpolation":"LINEAR"},{"input":16,"output":17,"interpolation":"LINEAR"},{"input":18,"output":19,"interpolation":"LINEAR"},{"input":20,"output":21,"interpolation":"LINEAR"},{"input":22,"output":23,"interpolation":"LINEAR"},{"input":24,"output":25,"interpolation":"LINEAR"},{"input":26,"output":27,"interpolation":"LINEAR"}],"channels":[{"sampler":0,"target":{"node":10,"path":"rotation"}},{"sampler":1,"target":{"node":10,"path":"translation"}},{"sampler":2,"target":{"node":3,"path":"rotation"}},{"sampler":3,"target":{"node":3,"path":"translation"}},{"sampler":4,"target":{"node":3,"path":"scale"}},{"sampler":5,"target":{"node":4,"path":"rotation"}},{"sampler":6,"target":{"node":8,"path":"rotation"}},{"sampler":7,"target":{"node":6,"path":"rotation"}},{"sampler":8,"target":{"node":6,"path":"translation"}},{"sampler":9,"target":{"node":7,"path":"rotation"}},{"sampler":10,"target":{"node":7,"path":"translation"}},{"sampler":11,"target":{"node":1,"path":"rotation"}},{"sampler":12,"target":{"node":1,"path":"translation"}},{"sampler":13,"target":{"node":1,"path":"scale"}}]}],"bufferViews":[{"buffer":0,"byteOffset":0,"byteLength":160},{"buffer":0,"byteOffset":160,"byteLength":640},{"buffer":0,"byteOffset":800,"byteLength":156},{"buffer":0,"byteOffset":956,"byteLength":468},{"buffer":0,"byteOffset":1424,"byteLength":148},{"buffer":0,"byteOffset":1572,"byteLength":592},{"buffer":0,"byteOffset":2164,"byteLength":148},{"buffer":0,"byteOffset":2312,"byteLength":444},{"buffer":0,"byteOffset":2756,"byteLength":8},{"buffer":0,"byteOffset":2764,"byteLength":24},{"buffer":0,"byteOffset":2788,"byteLength":152},{"buffer":0,"byteOffset":2940,"byteLength":608},{"buffer":0,"byteOffset":3548,"byteLength":140},{"buffer":0,"byteOffset":3688,"byteLength":560},{"buffer":0,"byteOffset":4248,"byteLength":80},{"buffer":0,"byteOffset":4328,"byteLength":320},{"buffer":0,"byteOffset":4648,"byteLength":80},{"buffer":0,"byteOffset":4728,"byteLength":240},{"buffer":0,"byteOffset":4968,"byteLength":80},{"buffer":0,"byteOffset":5048,"byteLength":320},{"buffer":0,"byteOffset":5368,"byteLength":76},{"buffer":0,"byteOffset":5444,"byteLength":228},{"buffer":0,"byteOffset":5672,"byteLength":140},{"buffer":0,"byteOffset":5812,"byteLength":560},{"buffer":0,"byteOffset":6372,"byteLength":132},{"buffer":0,"byteOffset":6504,"byteLength":396},{"buffer":0,"byteOffset":6900,"byteLength":8},{"buffer":0,"byteOffset":6908,"byteLength":24}],"buffers":[{"byteLength":6932,"uri":"data:application/octet-stream;base64,"}],"accessors":[{"bufferView":0,"componentType":5126,"count":40,"max":[2.450000047683716],"min":[0],"type":"SCALAR"},{"bufferView":1,"componentType":5126,"count":40,"max":[0.27496591210365295,0.06744922697544098,0.2100270837545395,1],"min":[-0.07778540998697281,-0.024505143985152245,-0.1603987216949463,0.9427420496940613],"type":"VEC4"},{"bufferView":2,"componentType":5126,"count":39,"max":[2.450000047683716],"min":[0],"type":"SCALAR"},{"bufferView":3,"componentType":5126,"count":39,"max":[0.504027783870697,0.46875,1.8250000476837158],"min":[0.375,-0.24688786268234253,1.3652777671813965],"type":"VEC3"},{"bufferView":4,"componentType":5126,"count":37,"max":[2.049999952316284],"min":[0],"type":"SCALAR"},{"bufferView":5,"componentType":5126,"count":37,"max":[-4.423203734456241e-17,-0.6599822044372559,0.7471399307250977,0.165672168135643],"min":[-0.12056848406791687,-0.7660444378852844,0.6427876353263855,3.9359390979975894e-17],"type":"VEC4"},{"bufferView":6,"componentType":5126,"count":37,"max":[2.049999952316284],"min":[0],"type":"SCALAR"},{"bufferView":7,"componentType":5126,"count":37,"max":[0,0.05841832980513573,-0.22344018518924713],"min":[0,-0.0625,-0.3125],"type":"VEC3"},{"bufferView":8,"componentType":5126,"count":2,"max":[0.05000000074505806],"min":[0],"type":"SCALAR"},{"bufferView":9,"componentType":5126,"count":2,"max":[1.75,2,1.75],"min":[1.75,2,1.75],"type":"VEC3"},{"bufferView":10,"componentType":5126,"count":38,"max":[2.0999999046325684],"min":[0],"type":"SCALAR"},{"bufferView":11,"componentType":5126,"count":38,"max":[0,0.1709546595811844,0,1],"min":[0,0,0,0.9852789044380188],"type":"VEC4"},{"bufferView":12,"componentType":5126,"count":35,"max":[2.049999952316284],"min":[0],"type":"SCALAR"},{"bufferView":13,"componentType":5126,"count":35,"max":[0,0,0,1],"min":[-0.344276487827301,0,0,0.9388682842254639],"type":"VEC4"},{"bufferView":14,"componentType":5126,"count":20,"max":[1.5499999523162842],"min":[0],"type":"SCALAR"},{"bufferView":15,"componentType":5126,"count":20,"max":[0.4771587550640106,0,0,1],"min":[-0.31311264634132385,0,0,0.8788171410560608],"type":"VEC4"},{"bufferView":16,"componentType":5126,"count":20,"max":[1.5499999523162842],"min":[0],"type":"SCALAR"},{"bufferView":17,"componentType":5126,"count":20,"max":[0.002830703044310212,0.1875,1.2200411558151245],"min":[-0.8531249761581421,-0.8310652375221252,-0.04749999940395355],"type":"VEC3"},{"bufferView":18,"componentType":5126,"count":20,"max":[1.5499999523162842],"min":[0],"type":"SCALAR"},{"bufferView":19,"componentType":5126,"count":20,"max":[0.30460456013679504,0,0,1],"min":[0,0,0,0.9524788856506348],"type":"VEC4"},{"bufferView":20,"componentType":5126,"count":19,"max":[1.5499999523162842],"min":[0],"type":"SCALAR"},{"bufferView":21,"componentType":5126,"count":19,"max":[0.19135893881320953,0.1875,1.4463573694229126],"min":[-0.6193749904632568,-0.8844586610794067,-0.046875],"type":"VEC3"},{"bufferView":22,"componentType":5126,"count":35,"max":[2.200000047683716],"min":[0],"type":"SCALAR"},{"bufferView":23,"componentType":5126,"count":35,"max":[0.07628806680440903,0.019520321860909462,0.7061609029769897,0.5887755155563354],"min":[-0.7069103717803955,-0.940065860748291,0.11174498498439789,-0.47814038395881653],"type":"VEC4"},{"bufferView":24,"componentType":5126,"count":33,"max":[2.200000047683716],"min":[0],"type":"SCALAR"},{"bufferView":25,"componentType":5126,"count":33,"max":[-0.11607687175273895,0.6935949921607971,-0.22919738292694092],"min":[-1.968004822731018,-1.9571326971054077,-1.506250023841858],"type":"VEC3"},{"bufferView":26,"componentType":5126,"count":2,"max":[0.05000000074505806],"min":[0],"type":"SCALAR"},{"bufferView":27,"componentType":5126,"count":2,"max":[1.75,2,1.75],"min":[1.75,2,1.75],"type":"VEC3"}]}