{"asset":{"version":"2.0","generator":"Blockbench 4.2.4 glTF exporter"},"scenes":[{"nodes":[11],"name":"blockbench_export"}],"scene":0,"nodes":[{"translation":[-0.375,-0.6875,0],"name":"LeftHand"},{"translation":[0.375,0.75,-0.9375],"name":"l","children":[0]},{"translation":[0.375,-0.6875,0],"name":"RightHand"},{"translation":[-0.375,0.75,-0.9375],"name":"r","children":[2]},{"translation":[-0.005619374999999982,0.626953125,0.2410874999999999],"name":"lever"},{"translation":[0.001953125,-0.4296875,-0.71484375],"name":"rear","children":[4]},{"translation":[-0.0625,0.1875,0.125],"name":"12_gauge2"},{"translation":[0.125,0.1875,0.125],"name":"12_gauge"},{"translation":[0,0.0625,-1],"name":"front","children":[6,7]},{"translation":[0,0,0.0625],"name":"gun","children":[5,8]},{"translation":[0.5,0.4375,1.4375],"name":"bone","children":[1,3,9]},{"children":[10]}],"animations":[{"name":"static_state","samplers":[{"input":0,"output":1,"interpolation":"LINEAR"},{"input":2,"output":3,"interpolation":"LINEAR"},{"input":4,"output":5,"interpolation":"LINEAR"},{"input":6,"output":7,"interpolation":"LINEAR"},{"input":8,"output":9,"interpolation":"LINEAR"},{"input":10,"output":11,"interpolation":"LINEAR"}],"channels":[{"sampler":0,"target":{"node":1,"path":"rotation"}},{"sampler":1,"target":{"node":1,"path":"translation"}},{"sampler":2,"target":{"node":1,"path":"scale"}},{"sampler":3,"target":{"node":3,"path":"rotation"}},{"sampler":4,"target":{"node":3,"path":"translation"}},{"sampler":5,"target":{"node":3,"path":"scale"}}]}],"bufferViews":[{"buffer":0,"byteOffset":0,"byteLength":8},{"buffer":0,"byteOffset":8,"byteLength":32},{"buffer":0,"byteOffset":40,"byteLength":8},{"buffer":0,"byteOffset":48,"byteLength":24},{"buffer":0,"byteOffset":72,"byteLength":8},{"buffer":0,"byteOffset":80,"byteLength":24},{"buffer":0,"byteOffset":104,"byteLength":8},{"buffer":0,"byteOffset":112,"byteLength":32},{"buffer":0,"byteOffset":144,"byteLength":8},{"buffer":0,"byteOffset":152,"byteLength":24},{"buffer":0,"byteOffset":176,"byteLength":8},{"buffer":0,"byteOffset":184,"byteLength":24}],"buffers":[{"byteLength":208,"uri":"data:application/octet-stream;base64,"}],"accessors":[{"bufferView":0,"componentType":5126,"count":2,"max":[0.05000000074505806],"min":[0],"type":"SCALAR"},{"bufferView":1,"componentType":5126,"count":2,"max":[0.07628806680440903,-0.7185558676719666,0.4992387592792511,-0.47814038395881653],"min":[0.07628806680440903,-0.7185558676719666,0.4992387592792511,-0.47814038395881653],"type":"VEC4"},{"bufferView":2,"componentType":5126,"count":2,"max":[0.05000000074505806],"min":[0],"type":"SCALAR"},{"bufferView":3,"componentType":5126,"count":2,"max":[-0.21875,-0.03125,-1.337499976158142],"min":[-0.21875,-0.03125,-1.337499976158142],"type":"VEC3"},{"bufferView":4,"componentType":5126,"count":2,"max":[0.05000000074505806],"min":[0],"type":"SCALAR"},{"bufferView":5,"componentType":5126,"count":2,"max":[1.75,2,1.75],"min":[1.75,2,1.75],"type":"VEC3"},{"bufferView":6,"componentType":5126,"count":2,"max":[0.05000000074505806],"min":[0],"type":"SCALAR"},{"bufferView":7,"componentType":5126,"count":2,"max":[-4.6906692768028125e-17,-0.7660444378852844,0.6427876353263855,3.9359390979975894e-17],"min":[-4.6906692768028125e-17,-0.7660444378852844,0.6427876353263855,3.9359390979975894e-17],"type":"VEC4"},{"bufferView":8,"componentType":5126,"count":2,"max":[0.05000000074505806],"min":[0],"type":"SCALAR"},{"bufferView":9,"componentType":5126,"count":2,"max":[0,-0.0625,-0.3125],"min":[0,-0.0625,-0.3125],"type":"VEC3"},{"bufferView":10,"componentType":5126,"count":2,"max":[0.05000000074505806],"min":[0],"type":"SCALAR"},{"bufferView":11,"componentType":5126,"count":2,"max":[1.75,2,1.75],"min":[1.75,2,1.75],"type":"VEC3"}]}