{"asset":{"version":"2.0","generator":"Blockbench 4.2.4 glTF exporter"},"scenes":[{"nodes":[11],"name":"blockbench_export"}],"scene":0,"nodes":[{"translation":[-0.375,-0.6875,0],"name":"LeftHand"},{"translation":[0.375,0.75,-0.9375],"name":"l","children":[0]},{"translation":[0.375,-0.6875,0],"name":"RightHand"},{"translation":[-0.375,0.75,-0.9375],"name":"r","children":[2]},{"translation":[-0.005619374999999982,0.626953125,0.2410874999999999],"name":"lever"},{"translation":[0.001953125,-0.4296875,-0.71484375],"name":"rear","children":[4]},{"translation":[-0.0625,0.1875,0.125],"name":"12_gauge2"},{"translation":[0.125,0.1875,0.125],"name":"12_gauge"},{"translation":[0,0.0625,-1],"name":"front","children":[6,7]},{"translation":[0,0,0.0625],"name":"gun","children":[5,8]},{"translation":[0.5,0.4375,1.4375],"name":"bone","children":[1,3,9]},{"children":[10]}],"animations":[{"name":"inspect","samplers":[{"input":0,"output":1,"interpolation":"LINEAR"},{"input":2,"output":3,"interpolation":"LINEAR"},{"input":4,"output":5,"interpolation":"LINEAR"},{"input":6,"output":7,"interpolation":"LINEAR"},{"input":8,"output":9,"interpolation":"LINEAR"},{"input":10,"output":11,"interpolation":"LINEAR"},{"input":12,"output":13,"interpolation":"LINEAR"},{"input":14,"output":15,"interpolation":"LINEAR"},{"input":16,"output":17,"interpolation":"LINEAR"},{"input":18,"output":19,"interpolation":"LINEAR"}],"channels":[{"sampler":0,"target":{"node":1,"path":"rotation"}},{"sampler":1,"target":{"node":1,"path":"translation"}},{"sampler":2,"target":{"node":1,"path":"scale"}},{"sampler":3,"target":{"node":3,"path":"rotation"}},{"sampler":4,"target":{"node":3,"path":"translation"}},{"sampler":5,"target":{"node":3,"path":"scale"}},{"sampler":6,"target":{"node":10,"path":"rotation"}},{"sampler":7,"target":{"node":10,"path":"translation"}},{"sampler":8,"target":{"node":4,"path":"rotation"}},{"sampler":9,"target":{"node":8,"path":"rotation"}}]}],"bufferViews":[{"buffer":0,"byteOffset":0,"byteLength":208},{"buffer":0,"byteOffset":208,"byteLength":832},{"buffer":0,"byteOffset":1040,"byteLength":128},{"buffer":0,"byteOffset":1168,"byteLength":384},{"buffer":0,"byteOffset":1552,"byteLength":8},{"buffer":0,"byteOffset":1560,"byteLength":24},{"buffer":0,"byteOffset":1584,"byteLength":168},{"buffer":0,"byteOffset":1752,"byteLength":672},{"buffer":0,"byteOffset":2424,"byteLength":160},{"buffer":0,"byteOffset":2584,"byteLength":480},{"buffer":0,"byteOffset":3064,"byteLength":8},{"buffer":0,"byteOffset":3072,"byteLength":24},{"buffer":0,"byteOffset":3096,"byteLength":240},{"buffer":0,"byteOffset":3336,"byteLength":960},{"buffer":0,"byteOffset":4296,"byteLength":228},{"buffer":0,"byteOffset":4524,"byteLength":684},{"buffer":0,"byteOffset":5208,"byteLength":16},{"buffer":0,"byteOffset":5224,"byteLength":64},{"buffer":0,"byteOffset":5288,"byteLength":16},{"buffer":0,"byteOffset":5304,"byteLength":64}],"buffers":[{"byteLength":5368,"uri":"data:application/octet-stream;base64,"}],"accessors":[{"bufferView":0,"componentType":5126,"count":52,"max":[3.25],"min":[0],"type":"SCALAR"},{"bufferView":1,"componentType":5126,"count":52,"max":[0.48851078748703003,-0.04478958994150162,0.784993588924408,0.026799919083714485],"min":[-0.3431553542613983,-0.976414144039154,-0.04995276406407356,-0.6668469309806824],"type":"VEC4"},{"bufferView":2,"componentType":5126,"count":32,"max":[3.25],"min":[0],"type":"SCALAR"},{"bufferView":3,"componentType":5126,"count":32,"max":[-0.11037187278270721,0.4389350116252899,0.17536619305610657],"min":[-0.8113687634468079,-2.155298948287964,-1.337499976158142],"type":"VEC3"},{"bufferView":4,"componentType":5126,"count":2,"max":[0.05000000074505806],"min":[0],"type":"SCALAR"},{"bufferView":5,"componentType":5126,"count":2,"max":[1.75,2,1.75],"min":[1.75,2,1.75],"type":"VEC3"},{"bufferView":6,"componentType":5126,"count":42,"max":[2.25],"min":[0],"type":"SCALAR"},{"bufferView":7,"componentType":5126,"count":42,"max":[0.006615745835006237,-0.6099117994308472,0.792378306388855,0.16024073958396912],"min":[-0.1420367956161499,-0.770009458065033,0.6022064089775085,-0.012598645873367786],"type":"VEC4"},{"bufferView":8,"componentType":5126,"count":40,"max":[2.25],"min":[0],"type":"SCALAR"},{"bufferView":9,"componentType":5126,"count":40,"max":[0.008477183990180492,0.04012918099761009,-0.23216231167316437],"min":[-0.0005589351640082896,-0.06926675885915756,-0.3177970051765442],"type":"VEC3"},{"bufferView":10,"componentType":5126,"count":2,"max":[0.05000000074505806],"min":[0],"type":"SCALAR"},{"bufferView":11,"componentType":5126,"count":2,"max":[1.75,2,1.75],"min":[1.75,2,1.75],"type":"VEC3"},{"bufferView":12,"componentType":5126,"count":60,"max":[3.9000000953674316],"min":[0],"type":"SCALAR"},{"bufferView":13,"componentType":5126,"count":60,"max":[0.39801523089408875,0.3032086491584778,0.20748472213745117,1],"min":[-0.01626155711710453,-0.0016784219769760966,-0.4555272161960602,0.7371381521224976],"type":"VEC4"},{"bufferView":14,"componentType":5126,"count":57,"max":[3.9000000953674316],"min":[0],"type":"SCALAR"},{"bufferView":15,"componentType":5126,"count":57,"max":[0.6466805934906006,0.45288923382759094,1.514292597770691],"min":[0.235262930393219,-0.023749999701976776,0.9242135286331177],"type":"VEC3"},{"bufferView":16,"componentType":5126,"count":4,"max":[1.7000000476837158],"min":[0.20000000298023224],"type":"SCALAR"},{"bufferView":17,"componentType":5126,"count":4,"max":[0,0.1736481785774231,0,1],"min":[0,0,0,0.9848077297210693],"type":"VEC4"},{"bufferView":18,"componentType":5126,"count":4,"max":[1.7000000476837158],"min":[0.30000001192092896],"type":"SCALAR"},{"bufferView":19,"componentType":5126,"count":4,"max":[0,0,0,1],"min":[-0.237685889005661,0,0,0.9713420867919922],"type":"VEC4"}]}