{"asset":{"version":"2.0","generator":"Blockbench 4.2.4 glTF exporter"},"scenes":[{"nodes":[11],"name":"blockbench_export"}],"scene":0,"nodes":[{"translation":[-0.375,-0.6875,0],"name":"LeftHand"},{"translation":[0.375,0.75,-0.9375],"name":"l","children":[0]},{"translation":[0.375,-0.6875,0],"name":"RightHand"},{"translation":[-0.375,0.75,-0.9375],"name":"r","children":[2]},{"translation":[-0.005619374999999982,0.626953125,0.2410874999999999],"name":"lever"},{"translation":[0.001953125,-0.4296875,-0.71484375],"name":"rear","children":[4]},{"translation":[-0.0625,0.1875,0.125],"name":"12_gauge2"},{"translation":[0.125,0.1875,0.125],"name":"12_gauge"},{"translation":[0,0.0625,-1],"name":"front","children":[6,7]},{"translation":[0,0,0.0625],"name":"gun","children":[5,8]},{"translation":[0.5,0.4375,1.4375],"name":"bone","children":[1,3,9]},{"children":[10]}],"animations":[{"name":"reload_normal","samplers":[{"input":0,"output":1,"interpolation":"LINEAR"},{"input":2,"output":3,"interpolation":"LINEAR"},{"input":4,"output":5,"interpolation":"LINEAR"},{"input":6,"output":7,"interpolation":"LINEAR"},{"input":8,"output":9,"interpolation":"LINEAR"},{"input":10,"output":11,"interpolation":"LINEAR"},{"input":12,"output":13,"interpolation":"LINEAR"},{"input":14,"output":15,"interpolation":"LINEAR"},{"input":16,"output":17,"interpolation":"LINEAR"},{"input":18,"output":19,"interpolation":"LINEAR"},{"input":20,"output":21,"interpolation":"LINEAR"},{"input":22,"output":23,"interpolation":"LINEAR"},{"input":24,"output":25,"interpolation":"LINEAR"}],"channels":[{"sampler":0,"target":{"node":1,"path":"rotation"}},{"sampler":1,"target":{"node":1,"path":"translation"}},{"sampler":2,"target":{"node":1,"path":"scale"}},{"sampler":3,"target":{"node":3,"path":"rotation"}},{"sampler":4,"target":{"node":3,"path":"translation"}},{"sampler":5,"target":{"node":3,"path":"scale"}},{"sampler":6,"target":{"node":10,"path":"rotation"}},{"sampler":7,"target":{"node":10,"path":"translation"}},{"sampler":8,"target":{"node":4,"path":"rotation"}},{"sampler":9,"target":{"node":8,"path":"rotation"}},{"sampler":10,"target":{"node":8,"path":"translation"}},{"sampler":11,"target":{"node":7,"path":"rotation"}},{"sampler":12,"target":{"node":7,"path":"translation"}}]}],"bufferViews":[{"buffer":0,"byteOffset":0,"byteLength":128},{"buffer":0,"byteOffset":128,"byteLength":512},{"buffer":0,"byteOffset":640,"byteLength":116},{"buffer":0,"byteOffset":756,"byteLength":348},{"buffer":0,"byteOffset":1104,"byteLength":8},{"buffer":0,"byteOffset":1112,"byteLength":24},{"buffer":0,"byteOffset":1136,"byteLength":40},{"buffer":0,"byteOffset":1176,"byteLength":160},{"buffer":0,"byteOffset":1336,"byteLength":40},{"buffer":0,"byteOffset":1376,"byteLength":120},{"buffer":0,"byteOffset":1496,"byteLength":8},{"buffer":0,"byteOffset":1504,"byteLength":24},{"buffer":0,"byteOffset":1528,"byteLength":140},{"buffer":0,"byteOffset":1668,"byteLength":560},{"buffer":0,"byteOffset":2228,"byteLength":160},{"buffer":0,"byteOffset":2388,"byteLength":480},{"buffer":0,"byteOffset":2868,"byteLength":16},{"buffer":0,"byteOffset":2884,"byteLength":64},{"buffer":0,"byteOffset":2948,"byteLength":112},{"buffer":0,"byteOffset":3060,"byteLength":448},{"buffer":0,"byteOffset":3508,"byteLength":12},{"buffer":0,"byteOffset":3520,"byteLength":36},{"buffer":0,"byteOffset":3556,"byteLength":64},{"buffer":0,"byteOffset":3620,"byteLength":256},{"buffer":0,"byteOffset":3876,"byteLength":56},{"buffer":0,"byteOffset":3932,"byteLength":168}],"buffers":[{"byteLength":4100,"uri":"data:application/octet-stream;base64,"}],"accessors":[{"bufferView":0,"componentType":5126,"count":32,"max":[1.9500000476837158],"min":[0],"type":"SCALAR"},{"bufferView":1,"componentType":5126,"count":32,"max":[0.3573743999004364,-0.5106738805770874,0.7265956401824951,0.5868138670921326],"min":[-0.6355404853820801,-0.95572429895401,-0.007294686045497656,-0.5253320932388306],"type":"VEC4"},{"bufferView":2,"componentType":5126,"count":29,"max":[1.9500000476837158],"min":[0],"type":"SCALAR"},{"bufferView":3,"componentType":5126,"count":29,"max":[-0.09592724591493607,0.4641537368297577,-0.41463562846183777],"min":[-1.5454694032669067,-3.4068305492401123,-1.938402533531189],"type":"VEC3"},{"bufferView":4,"componentType":5126,"count":2,"max":[0.05000000074505806],"min":[0],"type":"SCALAR"},{"bufferView":5,"componentType":5126,"count":2,"max":[1.75,2,1.75],"min":[1.75,2,1.75],"type":"VEC3"},{"bufferView":6,"componentType":5126,"count":10,"max":[0.6499999761581421],"min":[0],"type":"SCALAR"},{"bufferView":7,"componentType":5126,"count":10,"max":[-4.6906692768028125e-17,-0.7544836401939392,0.6427876353263855,0.1938224583864212],"min":[-0.16144688427448273,-0.7663849592208862,0.6059061288833618,3.9359390979975894e-17],"type":"VEC4"},{"bufferView":8,"componentType":5126,"count":10,"max":[0.6499999761581421],"min":[0],"type":"SCALAR"},{"bufferView":9,"componentType":5126,"count":10,"max":[0,0.047622811049222946,-0.1690271496772766],"min":[-0.0033926216419786215,-0.0625,-0.3125],"type":"VEC3"},{"bufferView":10,"componentType":5126,"count":2,"max":[0.10000000149011612],"min":[0],"type":"SCALAR"},{"bufferView":11,"componentType":5126,"count":2,"max":[1.75,2,1.75],"min":[1.75,2,1.75],"type":"VEC3"},{"bufferView":12,"componentType":5126,"count":35,"max":[2.25],"min":[0],"type":"SCALAR"},{"bufferView":13,"componentType":5126,"count":35,"max":[0.24002079665660858,0.00010059837222797796,0.16504241526126862,1],"min":[-0.13841070234775543,-0.015828020870685577,-0.0350179448723793,0.9689345955848694],"type":"VEC4"},{"bufferView":14,"componentType":5126,"count":40,"max":[2.25],"min":[0],"type":"SCALAR"},{"bufferView":15,"componentType":5126,"count":40,"max":[0.5035648345947266,0.550000011920929,1.7409722805023193],"min":[0.4025462865829468,0.13819444179534912,1.4187500476837158],"type":"VEC3"},{"bufferView":16,"componentType":5126,"count":4,"max":[1.9500000476837158],"min":[0.20000000298023224],"type":"SCALAR"},{"bufferView":17,"componentType":5126,"count":4,"max":[0,0.19509032368659973,0,1],"min":[0,0,0,0.9807852506637573],"type":"VEC4"},{"bufferView":18,"componentType":5126,"count":28,"max":[1.9500000476837158],"min":[0],"type":"SCALAR"},{"bufferView":19,"componentType":5126,"count":28,"max":[0,0,0,1],"min":[-0.3661342263221741,0,0,0.9305620789527893],"type":"VEC4"},{"bufferView":20,"componentType":5126,"count":3,"max":[1.9500000476837158],"min":[0],"type":"SCALAR"},{"bufferView":21,"componentType":5126,"count":3,"max":[0,0.0625,-1],"min":[0,0.0625,-1],"type":"VEC3"},{"bufferView":22,"componentType":5126,"count":16,"max":[1.399999976158142],"min":[0],"type":"SCALAR"},{"bufferView":23,"componentType":5126,"count":16,"max":[0.7038514018058777,0.06777317821979523,0.0699957087635994,1],"min":[0,-0.07714530825614929,-0.023545993492007256,0.7038514018058777],"type":"VEC4"},{"bufferView":24,"componentType":5126,"count":14,"max":[1.399999976158142],"min":[0],"type":"SCALAR"},{"bufferView":25,"componentType":5126,"count":14,"max":[0.21269375085830688,0.1875,0.8380749821662903],"min":[-0.9780268669128418,-1.4497705698013306,-0.9555581212043762],"type":"VEC3"}]}