{"asset":{"version":"2.0","generator":"Blockbench 4.2.4 glTF exporter"},"scenes":[{"nodes":[8],"name":"blockbench_export"}],"scene":0,"nodes":[{"translation":[0.0013943749999999477,-0.4129275,0.7069506249999993],"name":"magazine"},{"name":"slide"},{"translation":[0,-0.1875000000000001,-0.062499999999999556],"name":"Deagle_357","children":[0,1]},{"translation":[0.375,-0.5,0],"name":"RightHand"},{"rotation":[0,1.6732591974474312e-16,0,1],"translation":[-0.375,0.3374999999999999,-0.6187500000000008],"name":"R","children":[3]},{"translation":[0.5,0.6625000000000001,1.1187500000000008],"name":"bone","children":[2,4]},{"translation":[-0.375,-0.5,0],"name":"LeftHand"},{"translation":[0.875,1,0.5],"name":"L","children":[6]},{"children":[5,7]}],"animations":[{"name":"inspect","samplers":[{"input":0,"output":1,"interpolation":"LINEAR"},{"input":2,"output":3,"interpolation":"LINEAR"},{"input":4,"output":5,"interpolation":"LINEAR"},{"input":6,"output":7,"interpolation":"LINEAR"},{"input":8,"output":9,"interpolation":"LINEAR"},{"input":10,"output":11,"interpolation":"LINEAR"},{"input":12,"output":13,"interpolation":"LINEAR"},{"input":14,"output":15,"interpolation":"LINEAR"},{"input":16,"output":17,"interpolation":"LINEAR"},{"input":18,"output":19,"interpolation":"LINEAR"}],"channels":[{"sampler":0,"target":{"node":5,"path":"rotation"}},{"sampler":1,"target":{"node":5,"path":"translation"}},{"sampler":2,"target":{"node":2,"path":"rotation"}},{"sampler":3,"target":{"node":2,"path":"translation"}},{"sampler":4,"target":{"node":4,"path":"rotation"}},{"sampler":5,"target":{"node":4,"path":"translation"}},{"sampler":6,"target":{"node":4,"path":"scale"}},{"sampler":7,"target":{"node":7,"path":"rotation"}},{"sampler":8,"target":{"node":7,"path":"translation"}},{"sampler":9,"target":{"node":7,"path":"scale"}}]}],"bufferViews":[{"buffer":0,"byteOffset":0,"byteLength":284},{"buffer":0,"byteOffset":284,"byteLength":1136},{"buffer":0,"byteOffset":1420,"byteLength":260},{"buffer":0,"byteOffset":1680,"byteLength":780},{"buffer":0,"byteOffset":2460,"byteLength":56},{"buffer":0,"byteOffset":2516,"byteLength":224},{"buffer":0,"byteOffset":2740,"byteLength":60},{"buffer":0,"byteOffset":2800,"byteLength":180},{"buffer":0,"byteOffset":2980,"byteLength":52},{"buffer":0,"byteOffset":3032,"byteLength":208},{"buffer":0,"byteOffset":3240,"byteLength":56},{"buffer":0,"byteOffset":3296,"byteLength":168},{"buffer":0,"byteOffset":3464,"byteLength":4},{"buffer":0,"byteOffset":3468,"byteLength":12},{"buffer":0,"byteOffset":3480,"byteLength":4},{"buffer":0,"byteOffset":3484,"byteLength":16},{"buffer":0,"byteOffset":3500,"byteLength":4},{"buffer":0,"byteOffset":3504,"byteLength":12},{"buffer":0,"byteOffset":3516,"byteLength":4},{"buffer":0,"byteOffset":3520,"byteLength":12}],"buffers":[{"byteLength":3532,"uri":"data:application/octet-stream;base64,"}],"accessors":[{"bufferView":0,"componentType":5126,"count":71,"max":[4.5],"min":[0],"type":"SCALAR"},{"bufferView":1,"componentType":5126,"count":71,"max":[0.6053916215896606,0.48527202010154724,0.5856887102127075,1],"min":[-0.29099732637405396,-0.2103504240512848,-0.35005834698677063,0.5351864695549011],"type":"VEC4"},{"bufferView":2,"componentType":5126,"count":65,"max":[4.416666507720947],"min":[0],"type":"SCALAR"},{"bufferView":3,"componentType":5126,"count":65,"max":[0.5538787841796875,0.8855902552604675,1.2598437070846558],"min":[-0.575092613697052,-0.16538193821907043,0.7332226634025574],"type":"VEC3"},{"bufferView":4,"componentType":5126,"count":14,"max":[0.7916666865348816],"min":[0],"type":"SCALAR"},{"bufferView":5,"componentType":5126,"count":14,"max":[0.9978589415550232,0,0,1],"min":[-0.059817809611558914,0,0,-1],"type":"VEC4"},{"bufferView":6,"componentType":5126,"count":15,"max":[0.7916666865348816],"min":[0],"type":"SCALAR"},{"bufferView":7,"componentType":5126,"count":15,"max":[0.00457763671875,0.99609375,-0.20832082629203796],"min":[-0.0625,-0.25616455078125,-1.125],"type":"VEC3"},{"bufferView":8,"componentType":5126,"count":13,"max":[0.7916666865348816],"min":[0],"type":"SCALAR"},{"bufferView":9,"componentType":5126,"count":13,"max":[0.00011546698078745976,0.966826319694519,-0.24429334700107574,0.20511332154273987],"min":[-0.08817380666732788,0.6465175747871399,-0.7628892660140991,-0.003869087668135762],"type":"VEC4"},{"bufferView":10,"componentType":5126,"count":14,"max":[0.7916666865348816],"min":[0],"type":"SCALAR"},{"bufferView":11,"componentType":5126,"count":14,"max":[0.875,0.11234375089406967,0.1564062535762787],"min":[-0.04282407462596893,-0.6319444179534912,-0.5874999761581421],"type":"VEC3"},{"bufferView":12,"componentType":5126,"count":1,"max":[0],"min":[0],"type":"SCALAR"},{"bufferView":13,"componentType":5126,"count":1,"max":[2,2,2],"min":[2,2,2],"type":"VEC3"},{"bufferView":14,"componentType":5126,"count":1,"max":[0],"min":[0],"type":"SCALAR"},{"bufferView":15,"componentType":5126,"count":1,"max":[-4.234296196628321e-17,0.6915130615234375,-0.7223639488220215,4.423203734456241e-17],"min":[-4.234296196628321e-17,0.6915130615234375,-0.7223639488220215,4.423203734456241e-17],"type":"VEC4"},{"bufferView":16,"componentType":5126,"count":1,"max":[0],"min":[0],"type":"SCALAR"},{"bufferView":17,"componentType":5126,"count":1,"max":[-0.75,-1.5625,0.5],"min":[-0.75,-1.5625,0.5],"type":"VEC3"},{"bufferView":18,"componentType":5126,"count":1,"max":[0],"min":[0],"type":"SCALAR"},{"bufferView":19,"componentType":5126,"count":1,"max":[2,2,2],"min":[2,2,2],"type":"VEC3"}]}