{"asset":{"version":"2.0","generator":"Blockbench 4.2.4 glTF exporter"},"scenes":[{"nodes":[10],"name":"blockbench_export"}],"scene":0,"nodes":[{"translation":[0,-0.1875,0.3125],"name":"mb2"},{"translation":[0,-0.1875,0.3125],"name":"mb"},{"translation":[0,0.0625,-0.5625],"name":"slide2"},{"name":"bone","children":[0,1,2]},{"translation":[0.375,-0.6875,0],"name":"RightHand"},{"translation":[-0.375,0.75,-0.5625],"name":"R","children":[4]},{"translation":[0,0.0625,-0.3125],"name":"group","children":[3,5]},{"translation":[-0.375,-0.6875,0],"name":"LeftHand"},{"translation":[0.375,0.8125,-0.875],"name":"l","children":[7]},{"translation":[0.5,0.375,1.375],"name":"bone2","children":[6,8]},{"children":[9]}],"animations":[{"name":"reload_norm","samplers":[{"input":0,"output":1,"interpolation":"LINEAR"},{"input":2,"output":3,"interpolation":"LINEAR"},{"input":4,"output":5,"interpolation":"LINEAR"},{"input":6,"output":7,"interpolation":"LINEAR"},{"input":8,"output":9,"interpolation":"LINEAR"},{"input":10,"output":11,"interpolation":"LINEAR"},{"input":12,"output":13,"interpolation":"LINEAR"},{"input":14,"output":15,"interpolation":"LINEAR"},{"input":16,"output":17,"interpolation":"LINEAR"},{"input":18,"output":19,"interpolation":"LINEAR"},{"input":20,"output":21,"interpolation":"LINEAR"},{"input":22,"output":23,"interpolation":"LINEAR"}],"channels":[{"sampler":0,"target":{"node":8,"path":"rotation"}},{"sampler":1,"target":{"node":8,"path":"translation"}},{"sampler":2,"target":{"node":8,"path":"scale"}},{"sampler":3,"target":{"node":5,"path":"rotation"}},{"sampler":4,"target":{"node":5,"path":"translation"}},{"sampler":5,"target":{"node":5,"path":"scale"}},{"sampler":6,"target":{"node":1,"path":"rotation"}},{"sampler":7,"target":{"node":1,"path":"translation"}},{"sampler":8,"target":{"node":9,"path":"rotation"}},{"sampler":9,"target":{"node":9,"path":"translation"}},{"sampler":10,"target":{"node":0,"path":"rotation"}},{"sampler":11,"target":{"node":0,"path":"translation"}}]}],"bufferViews":[{"buffer":0,"byteOffset":0,"byteLength":64},{"buffer":0,"byteOffset":64,"byteLength":256},{"buffer":0,"byteOffset":320,"byteLength":68},{"buffer":0,"byteOffset":388,"byteLength":204},{"buffer":0,"byteOffset":592,"byteLength":4},{"buffer":0,"byteOffset":596,"byteLength":12},{"buffer":0,"byteOffset":608,"byteLength":16},{"buffer":0,"byteOffset":624,"byteLength":64},{"buffer":0,"byteOffset":688,"byteLength":16},{"buffer":0,"byteOffset":704,"byteLength":48},{"buffer":0,"byteOffset":752,"byteLength":4},{"buffer":0,"byteOffset":756,"byteLength":12},{"buffer":0,"byteOffset":768,"byteLength":80},{"buffer":0,"byteOffset":848,"byteLength":320},{"buffer":0,"byteOffset":1168,"byteLength":36},{"buffer":0,"byteOffset":1204,"byteLength":108},{"buffer":0,"byteOffset":1312,"byteLength":128},{"buffer":0,"byteOffset":1440,"byteLength":512},{"buffer":0,"byteOffset":1952,"byteLength":132},{"buffer":0,"byteOffset":2084,"byteLength":396},{"buffer":0,"byteOffset":2480,"byteLength":44},{"buffer":0,"byteOffset":2524,"byteLength":176},{"buffer":0,"byteOffset":2700,"byteLength":36},{"buffer":0,"byteOffset":2736,"byteLength":108}],"buffers":[{"byteLength":2844,"uri":"data:application/octet-stream;base64,"}],"accessors":[{"bufferView":0,"componentType":5126,"count":16,"max":[1.9500000476837158],"min":[0],"type":"SCALAR"},{"bufferView":1,"componentType":5126,"count":16,"max":[0.034536320716142654,0.9367748498916626,-0.10009356588125229,0.7536523938179016],"min":[-0.4664348065853119,0.5383391976356506,-0.576092004776001,0.1957882195711136],"type":"VEC4"},{"bufferView":2,"componentType":5126,"count":17,"max":[1.9500000476837158],"min":[0],"type":"SCALAR"},{"bufferView":3,"componentType":5126,"count":17,"max":[-0.02187499962747097,-0.23749999701976776,0.49312499165534973],"min":[-1.0125000476837158,-3.465625047683716,-0.4437499940395355],"type":"VEC3"},{"bufferView":4,"componentType":5126,"count":1,"max":[0],"min":[0],"type":"SCALAR"},{"bufferView":5,"componentType":5126,"count":1,"max":[1.75,2,1.75],"min":[1.75,2,1.75],"type":"VEC3"},{"bufferView":6,"componentType":5126,"count":4,"max":[1.649999976158142],"min":[0],"type":"SCALAR"},{"bufferView":7,"componentType":5126,"count":4,"max":[-0.04221583157777786,0.7504374980926514,-0.6581159830093384,-0.04221584275364876],"min":[-0.04409923404455185,0.7210165858268738,-0.6902232766151428,-0.044099241495132446],"type":"VEC4"},{"bufferView":8,"componentType":5126,"count":4,"max":[1.649999976158142],"min":[0],"type":"SCALAR"},{"bufferView":9,"componentType":5126,"count":4,"max":[0,-0.11249999701976776,0.23125000298023224],"min":[0,-0.16875000298023224,0.20624999701976776],"type":"VEC3"},{"bufferView":10,"componentType":5126,"count":1,"max":[0],"min":[0],"type":"SCALAR"},{"bufferView":11,"componentType":5126,"count":1,"max":[1.75,2,1.75],"min":[1.75,2,1.75],"type":"VEC3"},{"bufferView":12,"componentType":5126,"count":20,"max":[1.7999999523162842],"min":[0],"type":"SCALAR"},{"bufferView":13,"componentType":5126,"count":20,"max":[0.685452401638031,0.4163611829280853,0.12057173252105713,1],"min":[-0.3844175338745117,-0.1395268738269806,-0.3071005046367645,0.7134263515472412],"type":"VEC4"},{"bufferView":14,"componentType":5126,"count":9,"max":[1.7999999523162842],"min":[0.6499999761581421],"type":"SCALAR"},{"bufferView":15,"componentType":5126,"count":9,"max":[0,-0.1875,1.4187500476837158],"min":[-1.3624999523162842,-3.518749952316284,0.14374999701976776],"type":"VEC3"},{"bufferView":16,"componentType":5126,"count":32,"max":[2],"min":[0],"type":"SCALAR"},{"bufferView":17,"componentType":5126,"count":32,"max":[0.29286810755729675,0.3509681820869446,0.017452405765652657,1],"min":[-0.0018895447719842196,0,-0.4302777349948883,0.8079935312271118],"type":"VEC4"},{"bufferView":18,"componentType":5126,"count":33,"max":[2.049999952316284],"min":[0],"type":"SCALAR"},{"bufferView":19,"componentType":5126,"count":33,"max":[0.8650000095367432,0.9370301961898804,1.4268749952316284],"min":[0.4937500059604645,0.35763347148895264,1.318750023841858],"type":"VEC3"},{"bufferView":20,"componentType":5126,"count":11,"max":[1.350000023841858],"min":[0],"type":"SCALAR"},{"bufferView":21,"componentType":5126,"count":11,"max":[0,0.16668109595775604,0.016911953687667847,1],"min":[-0.36733517050743103,0,-0.20910115540027618,0.8908224105834961],"type":"VEC4"},{"bufferView":22,"componentType":5126,"count":9,"max":[1.350000023841858],"min":[0.25],"type":"SCALAR"},{"bufferView":23,"componentType":5126,"count":9,"max":[0.28125,-0.1875,0.48124998807907104],"min":[0,-3.331249952316284,0.16875000298023224],"type":"VEC3"}]}