{"asset":{"version":"2.0","generator":"Blockbench 4.2.4 glTF exporter"},"scenes":[{"nodes":[10],"name":"blockbench_export"}],"scene":0,"nodes":[{"translation":[0,-0.1875,0.3125],"name":"mb2"},{"translation":[0,-0.1875,0.3125],"name":"mb"},{"translation":[0,0.0625,-0.5625],"name":"slide2"},{"name":"bone","children":[0,1,2]},{"translation":[0.375,-0.6875,0],"name":"RightHand"},{"translation":[-0.375,0.75,-0.5625],"name":"R","children":[4]},{"translation":[0,0.0625,-0.3125],"name":"group","children":[3,5]},{"translation":[-0.375,-0.6875,0],"name":"LeftHand"},{"translation":[0.375,0.8125,-0.875],"name":"l","children":[7]},{"translation":[0.5,0.375,1.375],"name":"bone2","children":[6,8]},{"children":[9]}],"animations":[{"name":"inspect","samplers":[{"input":0,"output":1,"interpolation":"LINEAR"},{"input":2,"output":3,"interpolation":"LINEAR"},{"input":4,"output":5,"interpolation":"LINEAR"},{"input":6,"output":7,"interpolation":"LINEAR"},{"input":8,"output":9,"interpolation":"LINEAR"},{"input":10,"output":11,"interpolation":"LINEAR"},{"input":12,"output":13,"interpolation":"LINEAR"},{"input":14,"output":15,"interpolation":"LINEAR"},{"input":16,"output":17,"interpolation":"LINEAR"},{"input":18,"output":19,"interpolation":"LINEAR"}],"channels":[{"sampler":0,"target":{"node":8,"path":"rotation"}},{"sampler":1,"target":{"node":8,"path":"translation"}},{"sampler":2,"target":{"node":8,"path":"scale"}},{"sampler":3,"target":{"node":5,"path":"rotation"}},{"sampler":4,"target":{"node":5,"path":"translation"}},{"sampler":5,"target":{"node":5,"path":"scale"}},{"sampler":6,"target":{"node":9,"path":"rotation"}},{"sampler":7,"target":{"node":9,"path":"translation"}},{"sampler":8,"target":{"node":3,"path":"rotation"}},{"sampler":9,"target":{"node":3,"path":"translation"}}]}],"bufferViews":[{"buffer":0,"byteOffset":0,"byteLength":8},{"buffer":0,"byteOffset":8,"byteLength":32},{"buffer":0,"byteOffset":40,"byteLength":32},{"buffer":0,"byteOffset":72,"byteLength":96},{"buffer":0,"byteOffset":168,"byteLength":4},{"buffer":0,"byteOffset":172,"byteLength":12},{"buffer":0,"byteOffset":184,"byteLength":4},{"buffer":0,"byteOffset":188,"byteLength":16},{"buffer":0,"byteOffset":204,"byteLength":4},{"buffer":0,"byteOffset":208,"byteLength":12},{"buffer":0,"byteOffset":220,"byteLength":4},{"buffer":0,"byteOffset":224,"byteLength":12},{"buffer":0,"byteOffset":236,"byteLength":416},{"buffer":0,"byteOffset":652,"byteLength":1664},{"buffer":0,"byteOffset":2316,"byteLength":400},{"buffer":0,"byteOffset":2716,"byteLength":1200},{"buffer":0,"byteOffset":3916,"byteLength":128},{"buffer":0,"byteOffset":4044,"byteLength":512},{"buffer":0,"byteOffset":4556,"byteLength":204},{"buffer":0,"byteOffset":4760,"byteLength":612}],"buffers":[{"byteLength":5372,"uri":"data:application/octet-stream;base64,"}],"accessors":[{"bufferView":0,"componentType":5126,"count":2,"max":[6.150000095367432],"min":[0],"type":"SCALAR"},{"bufferView":1,"componentType":5126,"count":2,"max":[-0.2247966229915619,0.6451889276504517,-0.52617347240448,0.5062995553016663],"min":[-0.2247966229915619,0.6451889276504517,-0.52617347240448,0.5062995553016663],"type":"VEC4"},{"bufferView":2,"componentType":5126,"count":8,"max":[6.150000095367432],"min":[0],"type":"SCALAR"},{"bufferView":3,"componentType":5126,"count":8,"max":[-0.11874999850988388,-0.2180393785238266,1.3552374839782715],"min":[-0.8873475193977356,-2.901646137237549,-0.08749999850988388],"type":"VEC3"},{"bufferView":4,"componentType":5126,"count":1,"max":[0],"min":[0],"type":"SCALAR"},{"bufferView":5,"componentType":5126,"count":1,"max":[1.75,2,1.75],"min":[1.75,2,1.75],"type":"VEC3"},{"bufferView":6,"componentType":5126,"count":1,"max":[0],"min":[0],"type":"SCALAR"},{"bufferView":7,"componentType":5126,"count":1,"max":[-0.04221583157777786,0.7504374980926514,-0.6581159830093384,-0.044099241495132446],"min":[-0.04221583157777786,0.7504374980926514,-0.6581159830093384,-0.044099241495132446],"type":"VEC4"},{"bufferView":8,"componentType":5126,"count":1,"max":[0],"min":[0],"type":"SCALAR"},{"bufferView":9,"componentType":5126,"count":1,"max":[0,-0.11249999701976776,0.23125000298023224],"min":[0,-0.11249999701976776,0.23125000298023224],"type":"VEC3"},{"bufferView":10,"componentType":5126,"count":1,"max":[0],"min":[0],"type":"SCALAR"},{"bufferView":11,"componentType":5126,"count":1,"max":[1.75,2,1.75],"min":[1.75,2,1.75],"type":"VEC3"},{"bufferView":12,"componentType":5126,"count":104,"max":[6.5],"min":[0],"type":"SCALAR"},{"bufferView":13,"componentType":5126,"count":104,"max":[0.41682228446006775,0.243297278881073,0.5632800459861755,1],"min":[-0.017554331570863724,-0.06212254986166954,-0.5199201703071594,0.8068548440933228],"type":"VEC4"},{"bufferView":14,"componentType":5126,"count":100,"max":[6.5],"min":[0],"type":"SCALAR"},{"bufferView":15,"componentType":5126,"count":100,"max":[0.8968750238418579,0.84375,1.5812499523162842],"min":[0.48593053221702576,0.2874999940395355,0.9387500286102295],"type":"VEC3"},{"bufferView":16,"componentType":5126,"count":32,"max":[5.699999809265137],"min":[0],"type":"SCALAR"},{"bufferView":17,"componentType":5126,"count":32,"max":[0.9976974725723267,0,0,1],"min":[-0.9989685416221619,0,0,-1],"type":"VEC4"},{"bufferView":18,"componentType":5126,"count":51,"max":[6.099999904632568],"min":[0],"type":"SCALAR"},{"bufferView":19,"componentType":5126,"count":51,"max":[0,0.05552211031317711,0.21562500298023224],"min":[-0.30043259263038635,0,-0.012563069351017475],"type":"VEC3"}]}