{"asset":{"version":"2.0","generator":"Blockbench 4.2.4 glTF exporter"},"scenes":[{"nodes":[10],"name":"blockbench_export"}],"scene":0,"nodes":[{"translation":[0,-0.1875,0.3125],"name":"mb2"},{"translation":[0,-0.1875,0.3125],"name":"mb"},{"translation":[0,0.0625,-0.5625],"name":"slide2"},{"name":"bone","children":[0,1,2]},{"translation":[0.375,-0.6875,0],"name":"RightHand"},{"translation":[-0.375,0.75,-0.5625],"name":"R","children":[4]},{"translation":[0,0.0625,-0.3125],"name":"group","children":[3,5]},{"translation":[-0.375,-0.6875,0],"name":"LeftHand"},{"translation":[0.375,0.8125,-0.875],"name":"l","children":[7]},{"translation":[0.5,0.375,1.375],"name":"bone2","children":[6,8]},{"children":[9]}],"animations":[{"name":"empty","samplers":[{"input":0,"output":1,"interpolation":"LINEAR"},{"input":2,"output":3,"interpolation":"LINEAR"},{"input":4,"output":5,"interpolation":"LINEAR"},{"input":6,"output":7,"interpolation":"LINEAR"},{"input":8,"output":9,"interpolation":"LINEAR"},{"input":10,"output":11,"interpolation":"LINEAR"},{"input":12,"output":13,"interpolation":"LINEAR"},{"input":14,"output":15,"interpolation":"LINEAR"},{"input":16,"output":17,"interpolation":"LINEAR"},{"input":18,"output":19,"interpolation":"LINEAR"},{"input":20,"output":21,"interpolation":"LINEAR"},{"input":22,"output":23,"interpolation":"LINEAR"}],"channels":[{"sampler":0,"target":{"node":8,"path":"rotation"}},{"sampler":1,"target":{"node":8,"path":"translation"}},{"sampler":2,"target":{"node":8,"path":"scale"}},{"sampler":3,"target":{"node":5,"path":"rotation"}},{"sampler":4,"target":{"node":5,"path":"translation"}},{"sampler":5,"target":{"node":5,"path":"scale"}},{"sampler":6,"target":{"node":9,"path":"rotation"}},{"sampler":7,"target":{"node":9,"path":"translation"}},{"sampler":8,"target":{"node":0,"path":"translation"}},{"sampler":9,"target":{"node":1,"path":"rotation"}},{"sampler":10,"target":{"node":1,"path":"translation"}},{"sampler":11,"target":{"node":2,"path":"translation"}}]}],"bufferViews":[{"buffer":0,"byteOffset":0,"byteLength":64},{"buffer":0,"byteOffset":64,"byteLength":256},{"buffer":0,"byteOffset":320,"byteLength":148},{"buffer":0,"byteOffset":468,"byteLength":444},{"buffer":0,"byteOffset":912,"byteLength":4},{"buffer":0,"byteOffset":916,"byteLength":12},{"buffer":0,"byteOffset":928,"byteLength":4},{"buffer":0,"byteOffset":932,"byteLength":16},{"buffer":0,"byteOffset":948,"byteLength":4},{"buffer":0,"byteOffset":952,"byteLength":12},{"buffer":0,"byteOffset":964,"byteLength":4},{"buffer":0,"byteOffset":968,"byteLength":12},{"buffer":0,"byteOffset":980,"byteLength":168},{"buffer":0,"byteOffset":1148,"byteLength":672},{"buffer":0,"byteOffset":1820,"byteLength":160},{"buffer":0,"byteOffset":1980,"byteLength":480},{"buffer":0,"byteOffset":2460,"byteLength":4},{"buffer":0,"byteOffset":2464,"byteLength":12},{"buffer":0,"byteOffset":2476,"byteLength":84},{"buffer":0,"byteOffset":2560,"byteLength":336},{"buffer":0,"byteOffset":2896,"byteLength":88},{"buffer":0,"byteOffset":2984,"byteLength":264},{"buffer":0,"byteOffset":3248,"byteLength":16},{"buffer":0,"byteOffset":3264,"byteLength":48}],"buffers":[{"byteLength":3312,"uri":"data:application/octet-stream;base64,"}],"accessors":[{"bufferView":0,"componentType":5126,"count":16,"max":[2.25],"min":[0],"type":"SCALAR"},{"bufferView":1,"componentType":5126,"count":16,"max":[0.9639818668365479,0.7371758818626404,0.08016660809516907,0.5784973502159119],"min":[-0.27469077706336975,0.014050863683223724,-0.5659267902374268,-0.6143815517425537],"type":"VEC4"},{"bufferView":2,"componentType":5126,"count":37,"max":[2.25],"min":[0],"type":"SCALAR"},{"bufferView":3,"componentType":5126,"count":37,"max":[-0.07187499850988388,0.6187499761581421,1.946718692779541],"min":[-1.0674612522125244,-2.833829402923584,-0.21312500536441803],"type":"VEC3"},{"bufferView":4,"componentType":5126,"count":1,"max":[0],"min":[0],"type":"SCALAR"},{"bufferView":5,"componentType":5126,"count":1,"max":[1.75,2,1.75],"min":[1.75,2,1.75],"type":"VEC3"},{"bufferView":6,"componentType":5126,"count":1,"max":[0],"min":[0],"type":"SCALAR"},{"bufferView":7,"componentType":5126,"count":1,"max":[-0.04221583157777786,0.7504374980926514,-0.6581159830093384,-0.044099241495132446],"min":[-0.04221583157777786,0.7504374980926514,-0.6581159830093384,-0.044099241495132446],"type":"VEC4"},{"bufferView":8,"componentType":5126,"count":1,"max":[0],"min":[0],"type":"SCALAR"},{"bufferView":9,"componentType":5126,"count":1,"max":[0,-0.11249999701976776,0.23125000298023224],"min":[0,-0.11249999701976776,0.23125000298023224],"type":"VEC3"},{"bufferView":10,"componentType":5126,"count":1,"max":[0],"min":[0],"type":"SCALAR"},{"bufferView":11,"componentType":5126,"count":1,"max":[1.75,2,1.75],"min":[1.75,2,1.75],"type":"VEC3"},{"bufferView":12,"componentType":5126,"count":42,"max":[2.5],"min":[0],"type":"SCALAR"},{"bufferView":13,"componentType":5126,"count":42,"max":[0.2535915672779083,0.29145172238349915,0.5676805377006531,1],"min":[-0.0034045549109578133,-0.06713779270648956,-0.3271726071834564,0.7837622761726379],"type":"VEC4"},{"bufferView":14,"componentType":5126,"count":40,"max":[2.5],"min":[0],"type":"SCALAR"},{"bufferView":15,"componentType":5126,"count":40,"max":[0.9851892590522766,0.8712962865829468,1.431249976158142],"min":[0.3812499940395355,0.26929229497909546,0.8374999761581421],"type":"VEC3"},{"bufferView":16,"componentType":5126,"count":1,"max":[0],"min":[0],"type":"SCALAR"},{"bufferView":17,"componentType":5126,"count":1,"max":[-2.543750047683716,-2.90625,0.3125],"min":[-2.543750047683716,-2.90625,0.3125],"type":"VEC3"},{"bufferView":18,"componentType":5126,"count":21,"max":[1.4500000476837158],"min":[0],"type":"SCALAR"},{"bufferView":19,"componentType":5126,"count":21,"max":[0.7843829393386841,0.2916949987411499,0.46084603667259216,1],"min":[-0.08957939594984055,-0.4013625979423523,-0.06254734843969345,0.614513099193573],"type":"VEC4"},{"bufferView":20,"componentType":5126,"count":22,"max":[1.4500000476837158],"min":[0],"type":"SCALAR"},{"bufferView":21,"componentType":5126,"count":22,"max":[0.7986689209938049,-0.1875,2.337343692779541],"min":[-0.6698125004768372,-6.808151721954346,0.10625000298023224],"type":"VEC3"},{"bufferView":22,"componentType":5126,"count":4,"max":[1.899999976158142],"min":[0],"type":"SCALAR"},{"bufferView":23,"componentType":5126,"count":4,"max":[0,0.0625,-0.1875],"min":[0,0.0625,-0.5625],"type":"VEC3"}]}