{"asset":{"version":"2.0","generator":"Blockbench 4.2.4 glTF exporter"},"scenes":[{"nodes":[8],"name":"blockbench_export"}],"scene":0,"nodes":[{"translation":[0.0013943749999999477,-0.4129275,0.7069506249999993],"name":"magazine"},{"name":"slide"},{"translation":[0,-0.1875000000000001,-0.062499999999999556],"name":"Deagle_357","children":[0,1]},{"translation":[0.375,-0.5,0],"name":"RightHand"},{"rotation":[0,1.6732591974474312e-16,0,1],"translation":[-0.375,0.3374999999999999,-0.6187500000000008],"name":"R","children":[3]},{"translation":[0.5,0.6625000000000001,1.1187500000000008],"name":"bone","children":[2,4]},{"translation":[-0.375,-0.5,0],"name":"LeftHand"},{"translation":[0.875,1,0.5],"name":"L","children":[6]},{"children":[5,7]}],"animations":[{"name":"reloading","samplers":[{"input":0,"output":1,"interpolation":"LINEAR"},{"input":2,"output":3,"interpolation":"LINEAR"},{"input":4,"output":5,"interpolation":"LINEAR"},{"input":6,"output":7,"interpolation":"LINEAR"},{"input":8,"output":9,"interpolation":"LINEAR"},{"input":10,"output":11,"interpolation":"LINEAR"},{"input":12,"output":13,"interpolation":"LINEAR"},{"input":14,"output":15,"interpolation":"LINEAR"},{"input":16,"output":17,"interpolation":"LINEAR"},{"input":18,"output":19,"interpolation":"LINEAR"}],"channels":[{"sampler":0,"target":{"node":4,"path":"rotation"}},{"sampler":1,"target":{"node":4,"path":"translation"}},{"sampler":2,"target":{"node":4,"path":"scale"}},{"sampler":3,"target":{"node":0,"path":"rotation"}},{"sampler":4,"target":{"node":0,"path":"translation"}},{"sampler":5,"target":{"node":5,"path":"rotation"}},{"sampler":6,"target":{"node":5,"path":"translation"}},{"sampler":7,"target":{"node":7,"path":"rotation"}},{"sampler":8,"target":{"node":7,"path":"translation"}},{"sampler":9,"target":{"node":7,"path":"scale"}}]}],"bufferViews":[{"buffer":0,"byteOffset":0,"byteLength":144},{"buffer":0,"byteOffset":144,"byteLength":576},{"buffer":0,"byteOffset":720,"byteLength":144},{"buffer":0,"byteOffset":864,"byteLength":432},{"buffer":0,"byteOffset":1296,"byteLength":4},{"buffer":0,"byteOffset":1300,"byteLength":12},{"buffer":0,"byteOffset":1312,"byteLength":84},{"buffer":0,"byteOffset":1396,"byteLength":336},{"buffer":0,"byteOffset":1732,"byteLength":80},{"buffer":0,"byteOffset":1812,"byteLength":240},{"buffer":0,"byteOffset":2052,"byteLength":140},{"buffer":0,"byteOffset":2192,"byteLength":560},{"buffer":0,"byteOffset":2752,"byteLength":152},{"buffer":0,"byteOffset":2904,"byteLength":456},{"buffer":0,"byteOffset":3360,"byteLength":72},{"buffer":0,"byteOffset":3432,"byteLength":288},{"buffer":0,"byteOffset":3720,"byteLength":76},{"buffer":0,"byteOffset":3796,"byteLength":228},{"buffer":0,"byteOffset":4024,"byteLength":4},{"buffer":0,"byteOffset":4028,"byteLength":12}],"buffers":[{"byteLength":4040,"uri":"data:application/octet-stream;base64,"}],"accessors":[{"bufferView":0,"componentType":5126,"count":36,"max":[1.875],"min":[0],"type":"SCALAR"},{"bufferView":1,"componentType":5126,"count":36,"max":[0.08664002269506454,0.7372773289680481,-0.6710081696510315,0.07942372560501099],"min":[-0.005682065617293119,0.7320747375488281,-0.6756265759468079,-0.005192491691559553],"type":"VEC4"},{"bufferView":2,"componentType":5126,"count":36,"max":[1.875],"min":[0],"type":"SCALAR"},{"bufferView":3,"componentType":5126,"count":36,"max":[0.16027696430683136,-0.44999998807907104,0.78835129737854],"min":[-0.01473500020802021,-0.494916170835495,0.7250000238418579],"type":"VEC3"},{"bufferView":4,"componentType":5126,"count":1,"max":[0],"min":[0],"type":"SCALAR"},{"bufferView":5,"componentType":5126,"count":1,"max":[2,2.9000000953674316,2],"min":[2,2.9000000953674316,2],"type":"VEC3"},{"bufferView":6,"componentType":5126,"count":21,"max":[1.4166666269302368],"min":[0],"type":"SCALAR"},{"bufferView":7,"componentType":5126,"count":21,"max":[0.2847473919391632,0.05145339295268059,0.7798844575881958,1],"min":[-0.015404569916427135,-0.09665871411561966,-0.30656227469444275,0.6259234547615051],"type":"VEC4"},{"bufferView":8,"componentType":5126,"count":20,"max":[1.5416666269302368],"min":[0],"type":"SCALAR"},{"bufferView":9,"componentType":5126,"count":20,"max":[0.2513943612575531,-0.412927508354187,0.8644506335258484],"min":[-0.9592306017875671,-4.036052703857422,0.3007006347179413],"type":"VEC3"},{"bufferView":10,"componentType":5126,"count":35,"max":[2.125],"min":[0],"type":"SCALAR"},{"bufferView":11,"componentType":5126,"count":35,"max":[0.22166110575199127,0.4756513833999634,0.724989116191864,1],"min":[-0.019556447863578796,-0.04352599382400513,-0.36899611353874207,0.6528788805007935],"type":"VEC4"},{"bufferView":12,"componentType":5126,"count":38,"max":[2.2083332538604736],"min":[0],"type":"SCALAR"},{"bufferView":13,"componentType":5126,"count":38,"max":[0.5699218511581421,1.170312523841858,1.360694408416748],"min":[0.10125000029802322,0.6098191738128662,1.0842187404632568],"type":"VEC3"},{"bufferView":14,"componentType":5126,"count":18,"max":[1.8333333730697632],"min":[0],"type":"SCALAR"},{"bufferView":15,"componentType":5126,"count":18,"max":[-4.234296196628321e-17,0.6915130615234375,-0.43841391801834106,0.6832098364830017],"min":[-0.37169915437698364,0.5795415043830872,-0.7223639488220215,4.423203734456241e-17],"type":"VEC4"},{"bufferView":16,"componentType":5126,"count":19,"max":[1.8333333730697632],"min":[0],"type":"SCALAR"},{"bufferView":17,"componentType":5126,"count":19,"max":[-0.5182812213897705,0.21125000715255737,2.4375],"min":[-1.3015625476837158,-1.5625,1.3674999475479126],"type":"VEC3"},{"bufferView":18,"componentType":5126,"count":1,"max":[0],"min":[0],"type":"SCALAR"},{"bufferView":19,"componentType":5126,"count":1,"max":[2,2.9000000953674316,2],"min":[2,2.9000000953674316,2],"type":"VEC3"}]}