{"asset":{"version":"2.0","generator":"Blockbench 4.2.4 glTF exporter"},"scenes":[{"nodes":[8],"name":"blockbench_export"}],"scene":0,"nodes":[{"translation":[0.375,-0.6875,0],"name":"RightHand"},{"translation":[-0.375,0.625,-0.875],"name":"R","children":[0]},{"translation":[0.0015625000000000222,0.25,-0.8296875],"name":"mag"},{"translation":[0,-0.0625,0],"name":"dp28","children":[2]},{"name":"bone","children":[1,3]},{"translation":[-0.375,-0.6875,0],"name":"LeftHand"},{"translation":[0.375,0.625,-0.875],"name":"l","children":[5]},{"translation":[0.5,0.5625,1.375],"name":"bone2","children":[4,6]},{"children":[7]}],"animations":[{"name":"inspect","samplers":[{"input":0,"output":1,"interpolation":"LINEAR"},{"input":2,"output":3,"interpolation":"LINEAR"},{"input":4,"output":5,"interpolation":"LINEAR"},{"input":6,"output":7,"interpolation":"LINEAR"},{"input":8,"output":9,"interpolation":"LINEAR"},{"input":10,"output":11,"interpolation":"LINEAR"},{"input":12,"output":13,"interpolation":"LINEAR"},{"input":14,"output":15,"interpolation":"LINEAR"},{"input":16,"output":17,"interpolation":"LINEAR"}],"channels":[{"sampler":0,"target":{"node":1,"path":"rotation"}},{"sampler":1,"target":{"node":1,"path":"translation"}},{"sampler":2,"target":{"node":1,"path":"scale"}},{"sampler":3,"target":{"node":6,"path":"rotation"}},{"sampler":4,"target":{"node":6,"path":"translation"}},{"sampler":5,"target":{"node":6,"path":"scale"}},{"sampler":6,"target":{"node":7,"path":"rotation"}},{"sampler":7,"target":{"node":7,"path":"translation"}},{"sampler":8,"target":{"node":2,"path":"rotation"}}]}],"bufferViews":[{"buffer":0,"byteOffset":0,"byteLength":20},{"buffer":0,"byteOffset":20,"byteLength":80},{"buffer":0,"byteOffset":100,"byteLength":4},{"buffer":0,"byteOffset":104,"byteLength":12},{"buffer":0,"byteOffset":116,"byteLength":4},{"buffer":0,"byteOffset":120,"byteLength":12},{"buffer":0,"byteOffset":132,"byteLength":416},{"buffer":0,"byteOffset":548,"byteLength":1664},{"buffer":0,"byteOffset":2212,"byteLength":456},{"buffer":0,"byteOffset":2668,"byteLength":1368},{"buffer":0,"byteOffset":4036,"byteLength":4},{"buffer":0,"byteOffset":4040,"byteLength":12},{"buffer":0,"byteOffset":4052,"byteLength":468},{"buffer":0,"byteOffset":4520,"byteLength":1872},{"buffer":0,"byteOffset":6392,"byteLength":496},{"buffer":0,"byteOffset":6888,"byteLength":1488},{"buffer":0,"byteOffset":8376,"byteLength":420},{"buffer":0,"byteOffset":8796,"byteLength":1680}],"buffers":[{"byteLength":10476,"uri":"data:application/octet-stream;base64,"}],"accessors":[{"bufferView":0,"componentType":5126,"count":5,"max":[5.800000190734863],"min":[0],"type":"SCALAR"},{"bufferView":1,"componentType":5126,"count":5,"max":[0.1064804419875145,-0.7915540337562561,0.6017343401908875,0.12747862935066223],"min":[-0.06042158976197243,-0.7964038848876953,0.5880810618400574,0.00242397328838706],"type":"VEC4"},{"bufferView":2,"componentType":5126,"count":1,"max":[0],"min":[0],"type":"SCALAR"},{"bufferView":3,"componentType":5126,"count":1,"max":[0.03125,-0.07500000298023224,-0.03750000149011612],"min":[0.03125,-0.07500000298023224,-0.03750000149011612],"type":"VEC3"},{"bufferView":4,"componentType":5126,"count":1,"max":[0],"min":[0],"type":"SCALAR"},{"bufferView":5,"componentType":5126,"count":1,"max":[1,1.5,1],"min":[1,1.5,1],"type":"VEC3"},{"bufferView":6,"componentType":5126,"count":104,"max":[6.449999809265137],"min":[0],"type":"SCALAR"},{"bufferView":7,"componentType":5126,"count":104,"max":[0.18870486319065094,-0.4898851215839386,0.6487008929252625,-0.49550655484199524],"min":[-0.3390364646911621,-0.7373567819595337,0.23021769523620605,-0.659217894077301],"type":"VEC4"},{"bufferView":8,"componentType":5126,"count":114,"max":[6.449999809265137],"min":[0],"type":"SCALAR"},{"bufferView":9,"componentType":5126,"count":114,"max":[-0.0340498648583889,-0.07408038526773453,-0.6158105134963989],"min":[-0.18472221493721008,-0.17346875369548798,-0.9624999761581421],"type":"VEC3"},{"bufferView":10,"componentType":5126,"count":1,"max":[0],"min":[0],"type":"SCALAR"},{"bufferView":11,"componentType":5126,"count":1,"max":[1,1.5,1],"min":[1,1.5,1],"type":"VEC3"},{"bufferView":12,"componentType":5126,"count":117,"max":[6.800000190734863],"min":[0],"type":"SCALAR"},{"bufferView":13,"componentType":5126,"count":117,"max":[0.15693125128746033,0.0764792263507843,0.5563556551933289,1],"min":[-0.01248241774737835,-0.02360544539988041,-0.21803735196590424,0.8166871070861816],"type":"VEC4"},{"bufferView":14,"componentType":5126,"count":124,"max":[6.75],"min":[0],"type":"SCALAR"},{"bufferView":15,"componentType":5126,"count":124,"max":[0.500420093536377,0.5629286766052246,1.442944884300232],"min":[0.49320971965789795,0.49697086215019226,1.299375057220459],"type":"VEC3"},{"bufferView":16,"componentType":5126,"count":105,"max":[6.349999904632568],"min":[0],"type":"SCALAR"},{"bufferView":17,"componentType":5126,"count":105,"max":[0.008726535364985466,0.0000475492597615812,0.03707988187670708,1],"min":[-0.01003547478467226,-0.0000654095783829689,-0.017452377825975418,0.9993098974227905],"type":"VEC4"}]}