{"asset":{"version":"2.0","generator":"Blockbench 4.2.4 glTF exporter"},"scenes":[{"nodes":[8],"name":"blockbench_export"}],"scene":0,"nodes":[{"translation":[0.375,-0.6875,0],"name":"RightHand"},{"translation":[-0.375,0.625,-0.875],"name":"R","children":[0]},{"translation":[0.0015625000000000222,0.25,-0.8296875],"name":"mag"},{"translation":[0,-0.0625,0],"name":"dp28","children":[2]},{"name":"bone","children":[1,3]},{"translation":[-0.375,-0.6875,0],"name":"LeftHand"},{"translation":[0.375,0.625,-0.875],"name":"l","children":[5]},{"translation":[0.5,0.5625,1.375],"name":"bone2","children":[4,6]},{"children":[7]}],"animations":[{"name":"reload_empty","samplers":[{"input":0,"output":1,"interpolation":"LINEAR"},{"input":2,"output":3,"interpolation":"LINEAR"},{"input":4,"output":5,"interpolation":"LINEAR"},{"input":6,"output":7,"interpolation":"LINEAR"},{"input":8,"output":9,"interpolation":"LINEAR"},{"input":10,"output":11,"interpolation":"LINEAR"},{"input":12,"output":13,"interpolation":"LINEAR"},{"input":14,"output":15,"interpolation":"LINEAR"},{"input":16,"output":17,"interpolation":"LINEAR"},{"input":18,"output":19,"interpolation":"LINEAR"}],"channels":[{"sampler":0,"target":{"node":1,"path":"rotation"}},{"sampler":1,"target":{"node":1,"path":"translation"}},{"sampler":2,"target":{"node":1,"path":"scale"}},{"sampler":3,"target":{"node":6,"path":"rotation"}},{"sampler":4,"target":{"node":6,"path":"translation"}},{"sampler":5,"target":{"node":6,"path":"scale"}},{"sampler":6,"target":{"node":7,"path":"rotation"}},{"sampler":7,"target":{"node":7,"path":"translation"}},{"sampler":8,"target":{"node":2,"path":"rotation"}},{"sampler":9,"target":{"node":2,"path":"translation"}}]}],"bufferViews":[{"buffer":0,"byteOffset":0,"byteLength":316},{"buffer":0,"byteOffset":316,"byteLength":1264},{"buffer":0,"byteOffset":1580,"byteLength":316},{"buffer":0,"byteOffset":1896,"byteLength":948},{"buffer":0,"byteOffset":2844,"byteLength":4},{"buffer":0,"byteOffset":2848,"byteLength":12},{"buffer":0,"byteOffset":2860,"byteLength":368},{"buffer":0,"byteOffset":3228,"byteLength":1472},{"buffer":0,"byteOffset":4700,"byteLength":4},{"buffer":0,"byteOffset":4704,"byteLength":12},{"buffer":0,"byteOffset":4716,"byteLength":4},{"buffer":0,"byteOffset":4720,"byteLength":12},{"buffer":0,"byteOffset":4732,"byteLength":388},{"buffer":0,"byteOffset":5120,"byteLength":1552},{"buffer":0,"byteOffset":6672,"byteLength":384},{"buffer":0,"byteOffset":7056,"byteLength":1152},{"buffer":0,"byteOffset":8208,"byteLength":188},{"buffer":0,"byteOffset":8396,"byteLength":752},{"buffer":0,"byteOffset":9148,"byteLength":136},{"buffer":0,"byteOffset":9284,"byteLength":408}],"buffers":[{"byteLength":9692,"uri":"data:application/octet-stream;base64,"}],"accessors":[{"bufferView":0,"componentType":5126,"count":79,"max":[5.099999904632568],"min":[0],"type":"SCALAR"},{"bufferView":1,"componentType":5126,"count":79,"max":[0.5486122965812683,-0.3948630392551422,0.6777170300483704,0.7666895389556885],"min":[-0.4394921064376831,-0.8501197695732117,0.21215489506721497,-0.5789787769317627],"type":"VEC4"},{"bufferView":2,"componentType":5126,"count":79,"max":[5.099999904632568],"min":[0],"type":"SCALAR"},{"bufferView":3,"componentType":5126,"count":79,"max":[0.8041375279426575,0.4650000035762787,-0.03750000149011612],"min":[0.01958855614066124,-1.36381995677948,-0.9967361092567444],"type":"VEC3"},{"bufferView":4,"componentType":5126,"count":1,"max":[0],"min":[0],"type":"SCALAR"},{"bufferView":5,"componentType":5126,"count":1,"max":[1,1.5,1],"min":[1,1.5,1],"type":"VEC3"},{"bufferView":6,"componentType":5126,"count":92,"max":[5.5],"min":[0],"type":"SCALAR"},{"bufferView":7,"componentType":5126,"count":92,"max":[0.16934162378311157,-0.6127483248710632,0.6009161472320557,-0.5004473328590393],"min":[-0.030622150748968124,-0.6874822378158569,0.45386433601379395,-0.5853939652442932],"type":"VEC4"},{"bufferView":8,"componentType":5126,"count":1,"max":[0],"min":[0],"type":"SCALAR"},{"bufferView":9,"componentType":5126,"count":1,"max":[-0.11249999701976776,-0.13124999403953552,-0.9624999761581421],"min":[-0.11249999701976776,-0.13124999403953552,-0.9624999761581421],"type":"VEC3"},{"bufferView":10,"componentType":5126,"count":1,"max":[0],"min":[0],"type":"SCALAR"},{"bufferView":11,"componentType":5126,"count":1,"max":[1,1.5,1],"min":[1,1.5,1],"type":"VEC3"},{"bufferView":12,"componentType":5126,"count":97,"max":[6.199999809265137],"min":[0],"type":"SCALAR"},{"bufferView":13,"componentType":5126,"count":97,"max":[0.07784851640462875,0.018170509487390518,0.06604872643947601,1],"min":[-0.002573996549472213,-0.006031766068190336,-0.025593344122171402,0.9961994290351868],"type":"VEC4"},{"bufferView":14,"componentType":5126,"count":96,"max":[5.949999809265137],"min":[0],"type":"SCALAR"},{"bufferView":15,"componentType":5126,"count":96,"max":[0.5375000238418579,0.5924530029296875,1.509374976158142],"min":[0.49766892194747925,0.30501610040664673,1.3465750217437744],"type":"VEC3"},{"bufferView":16,"componentType":5126,"count":47,"max":[4.949999809265137],"min":[0],"type":"SCALAR"},{"bufferView":17,"componentType":5126,"count":47,"max":[0.003159703454002738,0.0005358443013392389,0.044090550392866135,1],"min":[-0.043612781912088394,-0.04360443726181984,-0.30034470558166504,0.9534602761268616],"type":"VEC4"},{"bufferView":18,"componentType":5126,"count":34,"max":[4.25],"min":[0],"type":"SCALAR"},{"bufferView":19,"componentType":5126,"count":34,"max":[0.6281075477600098,0.29347655177116394,-0.8160532116889954],"min":[-0.02933593839406967,-1.1299885511398315,-0.8296874761581421],"type":"VEC3"}]}