{"asset":{"version":"2.0","generator":"Blockbench 4.2.4 glTF exporter"},"scenes":[{"nodes":[8],"name":"blockbench_export"}],"scene":0,"nodes":[{"translation":[0.375,-0.6875,0],"name":"RightHand"},{"translation":[-0.375,0.625,-0.875],"name":"R","children":[0]},{"translation":[0.0015625000000000222,0.25,-0.8296875],"name":"mag"},{"translation":[0,-0.0625,0],"name":"dp28","children":[2]},{"name":"bone","children":[1,3]},{"translation":[-0.375,-0.6875,0],"name":"LeftHand"},{"translation":[0.375,0.625,-0.875],"name":"l","children":[5]},{"translation":[0.5,0.5625,1.375],"name":"bone2","children":[4,6]},{"children":[7]}],"animations":[{"name":"reload_norm","samplers":[{"input":0,"output":1,"interpolation":"LINEAR"},{"input":2,"output":3,"interpolation":"LINEAR"},{"input":4,"output":5,"interpolation":"LINEAR"},{"input":6,"output":7,"interpolation":"LINEAR"},{"input":8,"output":9,"interpolation":"LINEAR"},{"input":10,"output":11,"interpolation":"LINEAR"},{"input":12,"output":13,"interpolation":"LINEAR"},{"input":14,"output":15,"interpolation":"LINEAR"},{"input":16,"output":17,"interpolation":"LINEAR"},{"input":18,"output":19,"interpolation":"LINEAR"}],"channels":[{"sampler":0,"target":{"node":1,"path":"rotation"}},{"sampler":1,"target":{"node":1,"path":"translation"}},{"sampler":2,"target":{"node":1,"path":"scale"}},{"sampler":3,"target":{"node":6,"path":"rotation"}},{"sampler":4,"target":{"node":6,"path":"translation"}},{"sampler":5,"target":{"node":6,"path":"scale"}},{"sampler":6,"target":{"node":7,"path":"rotation"}},{"sampler":7,"target":{"node":7,"path":"translation"}},{"sampler":8,"target":{"node":2,"path":"rotation"}},{"sampler":9,"target":{"node":2,"path":"translation"}}]}],"bufferViews":[{"buffer":0,"byteOffset":0,"byteLength":272},{"buffer":0,"byteOffset":272,"byteLength":1088},{"buffer":0,"byteOffset":1360,"byteLength":268},{"buffer":0,"byteOffset":1628,"byteLength":804},{"buffer":0,"byteOffset":2432,"byteLength":4},{"buffer":0,"byteOffset":2436,"byteLength":12},{"buffer":0,"byteOffset":2448,"byteLength":292},{"buffer":0,"byteOffset":2740,"byteLength":1168},{"buffer":0,"byteOffset":3908,"byteLength":16},{"buffer":0,"byteOffset":3924,"byteLength":48},{"buffer":0,"byteOffset":3972,"byteLength":4},{"buffer":0,"byteOffset":3976,"byteLength":12},{"buffer":0,"byteOffset":3988,"byteLength":296},{"buffer":0,"byteOffset":4284,"byteLength":1184},{"buffer":0,"byteOffset":5468,"byteLength":300},{"buffer":0,"byteOffset":5768,"byteLength":900},{"buffer":0,"byteOffset":6668,"byteLength":204},{"buffer":0,"byteOffset":6872,"byteLength":816},{"buffer":0,"byteOffset":7688,"byteLength":180},{"buffer":0,"byteOffset":7868,"byteLength":540}],"buffers":[{"byteLength":8408,"uri":"data:application/octet-stream;base64,"}],"accessors":[{"bufferView":0,"componentType":5126,"count":68,"max":[4.25],"min":[0],"type":"SCALAR"},{"bufferView":1,"componentType":5126,"count":68,"max":[0.5330737233161926,-0.500691294670105,0.588126540184021,0.233041450381279],"min":[-0.116643987596035,-0.9158227443695068,0.3131462633609772,-0.528077244758606],"type":"VEC4"},{"bufferView":2,"componentType":5126,"count":67,"max":[4.25],"min":[0],"type":"SCALAR"},{"bufferView":3,"componentType":5126,"count":67,"max":[1.0351812839508057,0.4671468734741211,-0.02895960956811905],"min":[0.03125,-0.9537756443023682,-0.8919530510902405],"type":"VEC3"},{"bufferView":4,"componentType":5126,"count":1,"max":[0],"min":[0],"type":"SCALAR"},{"bufferView":5,"componentType":5126,"count":1,"max":[1,1.5,1],"min":[1,1.5,1],"type":"VEC3"},{"bufferView":6,"componentType":5126,"count":73,"max":[4.5],"min":[0],"type":"SCALAR"},{"bufferView":7,"componentType":5126,"count":73,"max":[0.2280159890651703,-0.5571015477180481,0.5916703343391418,-0.4889017641544342],"min":[-0.047082751989364624,-0.6760746240615845,0.3969157040119171,-0.7069265246391296],"type":"VEC4"},{"bufferView":8,"componentType":5126,"count":4,"max":[4.5],"min":[0],"type":"SCALAR"},{"bufferView":9,"componentType":5126,"count":4,"max":[-0.11249999701976776,-0.13124999403953552,-0.9624999761581421],"min":[-0.11249999701976776,-0.13124999403953552,-0.9624999761581421],"type":"VEC3"},{"bufferView":10,"componentType":5126,"count":1,"max":[0],"min":[0],"type":"SCALAR"},{"bufferView":11,"componentType":5126,"count":1,"max":[1,1.5,1],"min":[1,1.5,1],"type":"VEC3"},{"bufferView":12,"componentType":5126,"count":74,"max":[4.75],"min":[0],"type":"SCALAR"},{"bufferView":13,"componentType":5126,"count":74,"max":[0.07045592367649078,0.0015073333634063601,0.02127254568040371,1],"min":[-0.0062783705070614815,-0.007133429870009422,-0.07061474025249481,0.9963817000389099],"type":"VEC4"},{"bufferView":14,"componentType":5126,"count":75,"max":[4.75],"min":[0],"type":"SCALAR"},{"bufferView":15,"componentType":5126,"count":75,"max":[0.505366861820221,0.5760397911071777,1.5206249952316284],"min":[0.48577880859375,0.265882283449173,1.2998902797698975],"type":"VEC3"},{"bufferView":16,"componentType":5126,"count":51,"max":[3.8499999046325684],"min":[0],"type":"SCALAR"},{"bufferView":17,"componentType":5126,"count":51,"max":[0.2307332307100296,0.5697410106658936,0.1122877299785614,1],"min":[-0.06103925779461861,-0.060492366552352905,-0.24957038462162018,0.8209996223449707],"type":"VEC4"},{"bufferView":18,"componentType":5126,"count":45,"max":[3.8499999046325684],"min":[0],"type":"SCALAR"},{"bufferView":19,"componentType":5126,"count":45,"max":[0.9482359886169434,0.2772318720817566,-0.5431046485900879],"min":[-0.010516875423491001,-1.1659362316131592,-0.8370762467384338],"type":"VEC3"}]}