{"asset":{"version":"2.0","generator":"Blockbench 4.2.4 glTF exporter"},"scenes":[{"nodes":[8],"name":"blockbench_export"}],"scene":0,"nodes":[{"translation":[0.375,-0.6875,0],"name":"RightHand"},{"translation":[-0.375,0.625,-0.875],"name":"R","children":[0]},{"translation":[0.0015625000000000222,0.25,-0.8296875],"name":"mag"},{"translation":[0,-0.0625,0],"name":"dp28","children":[2]},{"name":"bone","children":[1,3]},{"translation":[-0.375,-0.6875,0],"name":"LeftHand"},{"translation":[0.375,0.625,-0.875],"name":"l","children":[5]},{"translation":[0.5,0.5625,1.375],"name":"bone2","children":[4,6]},{"children":[7]}],"animations":[{"name":"draw","samplers":[{"input":0,"output":1,"interpolation":"LINEAR"},{"input":2,"output":3,"interpolation":"LINEAR"},{"input":4,"output":5,"interpolation":"LINEAR"},{"input":6,"output":7,"interpolation":"LINEAR"},{"input":8,"output":9,"interpolation":"LINEAR"},{"input":10,"output":11,"interpolation":"LINEAR"},{"input":12,"output":13,"interpolation":"LINEAR"},{"input":14,"output":15,"interpolation":"LINEAR"}],"channels":[{"sampler":0,"target":{"node":1,"path":"rotation"}},{"sampler":1,"target":{"node":1,"path":"translation"}},{"sampler":2,"target":{"node":1,"path":"scale"}},{"sampler":3,"target":{"node":6,"path":"rotation"}},{"sampler":4,"target":{"node":6,"path":"translation"}},{"sampler":5,"target":{"node":6,"path":"scale"}},{"sampler":6,"target":{"node":7,"path":"rotation"}},{"sampler":7,"target":{"node":7,"path":"translation"}}]}],"bufferViews":[{"buffer":0,"byteOffset":0,"byteLength":40},{"buffer":0,"byteOffset":40,"byteLength":160},{"buffer":0,"byteOffset":200,"byteLength":40},{"buffer":0,"byteOffset":240,"byteLength":120},{"buffer":0,"byteOffset":360,"byteLength":4},{"buffer":0,"byteOffset":364,"byteLength":12},{"buffer":0,"byteOffset":376,"byteLength":84},{"buffer":0,"byteOffset":460,"byteLength":336},{"buffer":0,"byteOffset":796,"byteLength":112},{"buffer":0,"byteOffset":908,"byteLength":336},{"buffer":0,"byteOffset":1244,"byteLength":4},{"buffer":0,"byteOffset":1248,"byteLength":12},{"buffer":0,"byteOffset":1260,"byteLength":120},{"buffer":0,"byteOffset":1380,"byteLength":480},{"buffer":0,"byteOffset":1860,"byteLength":120},{"buffer":0,"byteOffset":1980,"byteLength":360}],"buffers":[{"byteLength":2340,"uri":"data:application/octet-stream;base64,"}],"accessors":[{"bufferView":0,"componentType":5126,"count":10,"max":[0.6000000238418579],"min":[0],"type":"SCALAR"},{"bufferView":1,"componentType":5126,"count":10,"max":[0.1064612939953804,-0.5336074829101562,0.8205952048301697,0.3485985994338989],"min":[-0.029856273904442787,-0.7915540337562561,0.5880976319313049,0.12747298181056976],"type":"VEC4"},{"bufferView":2,"componentType":5126,"count":10,"max":[0.6000000238418579],"min":[0],"type":"SCALAR"},{"bufferView":3,"componentType":5126,"count":10,"max":[0.13105709850788116,0.03934936597943306,-0.030923552811145782],"min":[0.03125,-0.07500000298023224,-0.10685504227876663],"type":"VEC3"},{"bufferView":4,"componentType":5126,"count":1,"max":[0],"min":[0],"type":"SCALAR"},{"bufferView":5,"componentType":5126,"count":1,"max":[1,1.5,1],"min":[1,1.5,1],"type":"VEC3"},{"bufferView":6,"componentType":5126,"count":21,"max":[1.2999999523162842],"min":[0],"type":"SCALAR"},{"bufferView":7,"componentType":5126,"count":21,"max":[0.24337945878505707,-0.6712440848350525,0.5163867473602295,-0.46583035588264465],"min":[-0.1704937368631363,-0.7540566921234131,0.3924959897994995,-0.5511340498924255],"type":"VEC4"},{"bufferView":8,"componentType":5126,"count":28,"max":[1.5],"min":[0],"type":"SCALAR"},{"bufferView":9,"componentType":5126,"count":28,"max":[-0.06437087059020996,-0.05025750771164894,-0.4116591513156891],"min":[-0.12812499701976776,-0.13945312798023224,-0.9821449518203735],"type":"VEC3"},{"bufferView":10,"componentType":5126,"count":1,"max":[0],"min":[0],"type":"SCALAR"},{"bufferView":11,"componentType":5126,"count":1,"max":[1,1.5,1],"min":[1,1.5,1],"type":"VEC3"},{"bufferView":12,"componentType":5126,"count":30,"max":[1.7999999523162842],"min":[0],"type":"SCALAR"},{"bufferView":13,"componentType":5126,"count":30,"max":[0.4590197503566742,0.07603456825017929,0.17358867824077606,1],"min":[-0.0006336559890769422,-0.005553266499191523,-0.019843202084302902,0.888187050819397],"type":"VEC4"},{"bufferView":14,"componentType":5126,"count":30,"max":[1.7000000476837158],"min":[0],"type":"SCALAR"},{"bufferView":15,"componentType":5126,"count":30,"max":[1.068750023841858,0.5690574645996094,1.3967030048370361],"min":[0.4099999964237213,-1.1375000476837158,1.067314863204956],"type":"VEC3"}]}