{"asset":{"version":"2.0","generator":"Blockbench 4.2.4 glTF exporter"},"scenes":[{"nodes":[11],"name":"blockbench_export"}],"scene":0,"nodes":[{"translation":[-0.375,-0.6875,0],"name":"LeftHand"},{"translation":[0.375,0.875,-0.5625],"name":"l","children":[0]},{"translation":[-0.53176375,-0.1277125,-0.58203125],"name":"bolt"},{"translation":[-0.5,0.109375,-0.58203125],"name":"cockinghandle"},{"name":"fn_fal","children":[2,3]},{"name":"main","children":[4]},{"translation":[0,0.0023581249999999887,-0.408484375],"name":"magazine"},{"translation":[0.375,-0.6875,0],"name":"RightHand"},{"translation":[-0.375,0.8125,-0.5625],"name":"R","children":[7]},{"translation":[0,0.0625,0],"name":"body","children":[5,6,8]},{"translation":[0.5,0.3125,1.0625],"name":"bone","children":[1,9]},{"children":[10]}],"animations":[{"name":"reload_empty","samplers":[{"input":0,"output":1,"interpolation":"LINEAR"},{"input":2,"output":3,"interpolation":"LINEAR"},{"input":4,"output":5,"interpolation":"LINEAR"},{"input":6,"output":7,"interpolation":"LINEAR"},{"input":8,"output":9,"interpolation":"LINEAR"},{"input":10,"output":11,"interpolation":"LINEAR"},{"input":12,"output":13,"interpolation":"LINEAR"},{"input":14,"output":15,"interpolation":"LINEAR"},{"input":16,"output":17,"interpolation":"LINEAR"},{"input":18,"output":19,"interpolation":"LINEAR"},{"input":20,"output":21,"interpolation":"LINEAR"},{"input":22,"output":23,"interpolation":"LINEAR"},{"input":24,"output":25,"interpolation":"LINEAR"},{"input":26,"output":27,"interpolation":"LINEAR"}],"channels":[{"sampler":0,"target":{"node":8,"path":"rotation"}},{"sampler":1,"target":{"node":8,"path":"translation"}},{"sampler":2,"target":{"node":8,"path":"scale"}},{"sampler":3,"target":{"node":1,"path":"rotation"}},{"sampler":4,"target":{"node":1,"path":"translation"}},{"sampler":5,"target":{"node":1,"path":"scale"}},{"sampler":6,"target":{"node":10,"path":"rotation"}},{"sampler":7,"target":{"node":10,"path":"translation"}},{"sampler":8,"target":{"node":9,"path":"rotation"}},{"sampler":9,"target":{"node":9,"path":"translation"}},{"sampler":10,"target":{"node":6,"path":"rotation"}},{"sampler":11,"target":{"node":6,"path":"translation"}},{"sampler":12,"target":{"node":2,"path":"translation"}},{"sampler":13,"target":{"node":3,"path":"translation"}}]}],"bufferViews":[{"buffer":0,"byteOffset":0,"byteLength":4},{"buffer":0,"byteOffset":4,"byteLength":16},{"buffer":0,"byteOffset":20,"byteLength":4},{"buffer":0,"byteOffset":24,"byteLength":12},{"buffer":0,"byteOffset":36,"byteLength":4},{"buffer":0,"byteOffset":40,"byteLength":12},{"buffer":0,"byteOffset":52,"byteLength":168},{"buffer":0,"byteOffset":220,"byteLength":672},{"buffer":0,"byteOffset":892,"byteLength":160},{"buffer":0,"byteOffset":1052,"byteLength":480},{"buffer":0,"byteOffset":1532,"byteLength":4},{"buffer":0,"byteOffset":1536,"byteLength":12},{"buffer":0,"byteOffset":1548,"byteLength":224},{"buffer":0,"byteOffset":1772,"byteLength":896},{"buffer":0,"byteOffset":2668,"byteLength":212},{"buffer":0,"byteOffset":2880,"byteLength":636},{"buffer":0,"byteOffset":3516,"byteLength":4},{"buffer":0,"byteOffset":3520,"byteLength":16},{"buffer":0,"byteOffset":3536,"byteLength":4},{"buffer":0,"byteOffset":3540,"byteLength":12},{"buffer":0,"byteOffset":3552,"byteLength":88},{"buffer":0,"byteOffset":3640,"byteLength":352},{"buffer":0,"byteOffset":3992,"byteLength":92},{"buffer":0,"byteOffset":4084,"byteLength":276},{"buffer":0,"byteOffset":4360,"byteLength":12},{"buffer":0,"byteOffset":4372,"byteLength":36},{"buffer":0,"byteOffset":4408,"byteLength":20},{"buffer":0,"byteOffset":4428,"byteLength":60}],"buffers":[{"byteLength":4488,"uri":"data:application/octet-stream;base64,"}],"accessors":[{"bufferView":0,"componentType":5126,"count":1,"max":[0],"min":[0],"type":"SCALAR"},{"bufferView":1,"componentType":5126,"count":1,"max":[-4.4964284092573954e-17,0.7343224883079529,-0.6788007616996765,4.156455854009121e-17],"min":[-4.4964284092573954e-17,0.7343224883079529,-0.6788007616996765,4.156455854009121e-17],"type":"VEC4"},{"bufferView":2,"componentType":5126,"count":1,"max":[0],"min":[0],"type":"SCALAR"},{"bufferView":3,"componentType":5126,"count":1,"max":[0.02500000037252903,-0.0625,-0.0625],"min":[0.02500000037252903,-0.0625,-0.0625],"type":"VEC3"},{"bufferView":4,"componentType":5126,"count":1,"max":[0],"min":[0],"type":"SCALAR"},{"bufferView":5,"componentType":5126,"count":1,"max":[1,1.5,1],"min":[1,1.5,1],"type":"VEC3"},{"bufferView":6,"componentType":5126,"count":42,"max":[3.0999999046325684],"min":[0],"type":"SCALAR"},{"bufferView":7,"componentType":5126,"count":42,"max":[0.3872731626033783,0.919268012046814,-0.29612287878990173,0.6242810487747192],"min":[-0.33230069279670715,0.6729727387428284,-0.5858287215232849,-0.42787179350852966],"type":"VEC4"},{"bufferView":8,"componentType":5126,"count":40,"max":[3.0999999046325684],"min":[0],"type":"SCALAR"},{"bufferView":9,"componentType":5126,"count":40,"max":[-0.06937500089406967,0.2627849876880646,0.0536307655274868],"min":[-0.619601845741272,-0.5988698601722717,-0.8999999761581421],"type":"VEC3"},{"bufferView":10,"componentType":5126,"count":1,"max":[0],"min":[0],"type":"SCALAR"},{"bufferView":11,"componentType":5126,"count":1,"max":[1,1.5,1],"min":[1,1.5,1],"type":"VEC3"},{"bufferView":12,"componentType":5126,"count":56,"max":[3.5999999046325684],"min":[0],"type":"SCALAR"},{"bufferView":13,"componentType":5126,"count":56,"max":[0.16657568514347076,0.15280909836292267,0.4434947073459625,1],"min":[-0.0017755200387910008,-0.0020889060106128454,-0.2363671064376831,0.8958406448364258],"type":"VEC4"},{"bufferView":14,"componentType":5126,"count":53,"max":[3.450000047683716],"min":[0],"type":"SCALAR"},{"bufferView":15,"componentType":5126,"count":53,"max":[0.5024368762969971,0.31337982416152954,1.1887500286102295],"min":[0.4247887432575226,0.24062499403953552,0.9375],"type":"VEC3"},{"bufferView":16,"componentType":5126,"count":1,"max":[0],"min":[0],"type":"SCALAR"},{"bufferView":17,"componentType":5126,"count":1,"max":[0,0,0,1],"min":[0,0,0,1],"type":"VEC4"},{"bufferView":18,"componentType":5126,"count":1,"max":[0],"min":[0],"type":"SCALAR"},{"bufferView":19,"componentType":5126,"count":1,"max":[0,0.0625,0],"min":[0,0.0625,0],"type":"VEC3"},{"bufferView":20,"componentType":5126,"count":22,"max":[2.25],"min":[0],"type":"SCALAR"},{"bufferView":21,"componentType":5126,"count":22,"max":[0.9974218606948853,0.24166034162044525,0.014413180761039257,1],"min":[0,-0.19486233592033386,-0.47658032178878784,-0.27897390723228455],"type":"VEC4"},{"bufferView":22,"componentType":5126,"count":23,"max":[2.25],"min":[0],"type":"SCALAR"},{"bufferView":23,"componentType":5126,"count":23,"max":[0,0.0023581250570714474,0.047126248478889465],"min":[-0.34221938252449036,-1.6057668924331665,-0.9781323671340942],"type":"VEC3"},{"bufferView":24,"componentType":5126,"count":3,"max":[2.799999952316284],"min":[0],"type":"SCALAR"},{"bufferView":25,"componentType":5126,"count":3,"max":[-0.5317637324333191,-0.12771250307559967,-0.37890625],"min":[-0.5317637324333191,-0.12771250307559967,-0.58203125],"type":"VEC3"},{"bufferView":26,"componentType":5126,"count":5,"max":[2.9000000953674316],"min":[0],"type":"SCALAR"},{"bufferView":27,"componentType":5126,"count":5,"max":[-0.5,0.109375,-0.39453125],"min":[-0.5,0.109375,-0.58203125],"type":"VEC3"}]}