{"asset":{"version":"2.0","generator":"Blockbench 4.2.4 glTF exporter"},"scenes":[{"nodes":[11],"name":"blockbench_export"}],"scene":0,"nodes":[{"translation":[-0.375,-0.6875,0],"name":"LeftHand"},{"translation":[0.375,0.875,-0.5625],"name":"l","children":[0]},{"translation":[-0.53176375,-0.1277125,-0.58203125],"name":"bolt"},{"translation":[-0.5,0.109375,-0.58203125],"name":"cockinghandle"},{"name":"fn_fal","children":[2,3]},{"name":"main","children":[4]},{"translation":[0,0.0023581249999999887,-0.408484375],"name":"magazine"},{"translation":[0.375,-0.6875,0],"name":"RightHand"},{"translation":[-0.375,0.8125,-0.5625],"name":"R","children":[7]},{"translation":[0,0.0625,0],"name":"body","children":[5,6,8]},{"translation":[0.5,0.3125,1.0625],"name":"bone","children":[1,9]},{"children":[10]}],"animations":[{"name":"draw","samplers":[{"input":0,"output":1,"interpolation":"LINEAR"},{"input":2,"output":3,"interpolation":"LINEAR"},{"input":4,"output":5,"interpolation":"LINEAR"},{"input":6,"output":7,"interpolation":"LINEAR"},{"input":8,"output":9,"interpolation":"LINEAR"},{"input":10,"output":11,"interpolation":"LINEAR"},{"input":12,"output":13,"interpolation":"LINEAR"},{"input":14,"output":15,"interpolation":"LINEAR"}],"channels":[{"sampler":0,"target":{"node":8,"path":"rotation"}},{"sampler":1,"target":{"node":8,"path":"translation"}},{"sampler":2,"target":{"node":8,"path":"scale"}},{"sampler":3,"target":{"node":1,"path":"rotation"}},{"sampler":4,"target":{"node":1,"path":"translation"}},{"sampler":5,"target":{"node":1,"path":"scale"}},{"sampler":6,"target":{"node":10,"path":"rotation"}},{"sampler":7,"target":{"node":10,"path":"translation"}}]}],"bufferViews":[{"buffer":0,"byteOffset":0,"byteLength":4},{"buffer":0,"byteOffset":4,"byteLength":16},{"buffer":0,"byteOffset":20,"byteLength":4},{"buffer":0,"byteOffset":24,"byteLength":12},{"buffer":0,"byteOffset":36,"byteLength":4},{"buffer":0,"byteOffset":40,"byteLength":12},{"buffer":0,"byteOffset":52,"byteLength":4},{"buffer":0,"byteOffset":56,"byteLength":16},{"buffer":0,"byteOffset":72,"byteLength":4},{"buffer":0,"byteOffset":76,"byteLength":12},{"buffer":0,"byteOffset":88,"byteLength":4},{"buffer":0,"byteOffset":92,"byteLength":12},{"buffer":0,"byteOffset":104,"byteLength":44},{"buffer":0,"byteOffset":148,"byteLength":176},{"buffer":0,"byteOffset":324,"byteLength":52},{"buffer":0,"byteOffset":376,"byteLength":156}],"buffers":[{"byteLength":532,"uri":"data:application/octet-stream;base64,"}],"accessors":[{"bufferView":0,"componentType":5126,"count":1,"max":[0],"min":[0],"type":"SCALAR"},{"bufferView":1,"componentType":5126,"count":1,"max":[-4.4964284092573954e-17,0.7343224883079529,-0.6788007616996765,4.156455854009121e-17],"min":[-4.4964284092573954e-17,0.7343224883079529,-0.6788007616996765,4.156455854009121e-17],"type":"VEC4"},{"bufferView":2,"componentType":5126,"count":1,"max":[0],"min":[0],"type":"SCALAR"},{"bufferView":3,"componentType":5126,"count":1,"max":[0.02500000037252903,-0.0625,-0.0625],"min":[0.02500000037252903,-0.0625,-0.0625],"type":"VEC3"},{"bufferView":4,"componentType":5126,"count":1,"max":[0],"min":[0],"type":"SCALAR"},{"bufferView":5,"componentType":5126,"count":1,"max":[1,1.5,1],"min":[1,1.5,1],"type":"VEC3"},{"bufferView":6,"componentType":5126,"count":1,"max":[0],"min":[0],"type":"SCALAR"},{"bufferView":7,"componentType":5126,"count":1,"max":[-0.13687656819820404,0.678474485874176,-0.4937421977519989,0.5264559388160706],"min":[-0.13687656819820404,0.678474485874176,-0.4937421977519989,0.5264559388160706],"type":"VEC4"},{"bufferView":8,"componentType":5126,"count":1,"max":[0],"min":[0],"type":"SCALAR"},{"bufferView":9,"componentType":5126,"count":1,"max":[-0.07500000298023224,0.15000000596046448,-0.8999999761581421],"min":[-0.07500000298023224,0.15000000596046448,-0.8999999761581421],"type":"VEC3"},{"bufferView":10,"componentType":5126,"count":1,"max":[0],"min":[0],"type":"SCALAR"},{"bufferView":11,"componentType":5126,"count":1,"max":[1,1.5,1],"min":[1,1.5,1],"type":"VEC3"},{"bufferView":12,"componentType":5126,"count":11,"max":[0.8999999761581421],"min":[0],"type":"SCALAR"},{"bufferView":13,"componentType":5126,"count":11,"max":[0.001736834878101945,0.26811543107032776,0.25082844495773315,1],"min":[-0.08051475882530212,-0.001714599784463644,-0.01745539903640747,0.9266695976257324],"type":"VEC4"},{"bufferView":14,"componentType":5126,"count":13,"max":[0.75],"min":[0],"type":"SCALAR"},{"bufferView":15,"componentType":5126,"count":13,"max":[0.5043487548828125,0.3125,1.103515625],"min":[0.3125,-0.45625001192092896,0.875],"type":"VEC3"}]}