{"asset":{"version":"2.0","generator":"Blockbench 4.2.4 glTF exporter"},"scenes":[{"nodes":[11],"name":"blockbench_export"}],"scene":0,"nodes":[{"translation":[-0.375,-0.6875,0],"name":"LeftHand"},{"translation":[0.375,0.875,-0.5625],"name":"l","children":[0]},{"translation":[-0.53176375,-0.1277125,-0.58203125],"name":"bolt"},{"translation":[-0.5,0.109375,-0.58203125],"name":"cockinghandle"},{"name":"fn_fal","children":[2,3]},{"name":"main","children":[4]},{"translation":[0,0.0023581249999999887,-0.408484375],"name":"magazine"},{"translation":[0.375,-0.6875,0],"name":"RightHand"},{"translation":[-0.375,0.8125,-0.5625],"name":"R","children":[7]},{"translation":[0,0.0625,0],"name":"body","children":[5,6,8]},{"translation":[0.5,0.3125,1.0625],"name":"bone","children":[1,9]},{"children":[10]}],"animations":[{"name":"reload_norm","samplers":[{"input":0,"output":1,"interpolation":"LINEAR"},{"input":2,"output":3,"interpolation":"LINEAR"},{"input":4,"output":5,"interpolation":"LINEAR"},{"input":6,"output":7,"interpolation":"LINEAR"},{"input":8,"output":9,"interpolation":"LINEAR"},{"input":10,"output":11,"interpolation":"LINEAR"},{"input":12,"output":13,"interpolation":"LINEAR"},{"input":14,"output":15,"interpolation":"LINEAR"},{"input":16,"output":17,"interpolation":"LINEAR"},{"input":18,"output":19,"interpolation":"LINEAR"},{"input":20,"output":21,"interpolation":"LINEAR"},{"input":22,"output":23,"interpolation":"LINEAR"}],"channels":[{"sampler":0,"target":{"node":8,"path":"rotation"}},{"sampler":1,"target":{"node":8,"path":"translation"}},{"sampler":2,"target":{"node":8,"path":"scale"}},{"sampler":3,"target":{"node":1,"path":"rotation"}},{"sampler":4,"target":{"node":1,"path":"translation"}},{"sampler":5,"target":{"node":1,"path":"scale"}},{"sampler":6,"target":{"node":10,"path":"rotation"}},{"sampler":7,"target":{"node":10,"path":"translation"}},{"sampler":8,"target":{"node":9,"path":"rotation"}},{"sampler":9,"target":{"node":9,"path":"translation"}},{"sampler":10,"target":{"node":6,"path":"rotation"}},{"sampler":11,"target":{"node":6,"path":"translation"}}]}],"bufferViews":[{"buffer":0,"byteOffset":0,"byteLength":4},{"buffer":0,"byteOffset":4,"byteLength":16},{"buffer":0,"byteOffset":20,"byteLength":4},{"buffer":0,"byteOffset":24,"byteLength":12},{"buffer":0,"byteOffset":36,"byteLength":4},{"buffer":0,"byteOffset":40,"byteLength":12},{"buffer":0,"byteOffset":52,"byteLength":152},{"buffer":0,"byteOffset":204,"byteLength":608},{"buffer":0,"byteOffset":812,"byteLength":152},{"buffer":0,"byteOffset":964,"byteLength":456},{"buffer":0,"byteOffset":1420,"byteLength":4},{"buffer":0,"byteOffset":1424,"byteLength":12},{"buffer":0,"byteOffset":1436,"byteLength":184},{"buffer":0,"byteOffset":1620,"byteLength":736},{"buffer":0,"byteOffset":2356,"byteLength":176},{"buffer":0,"byteOffset":2532,"byteLength":528},{"buffer":0,"byteOffset":3060,"byteLength":4},{"buffer":0,"byteOffset":3064,"byteLength":16},{"buffer":0,"byteOffset":3080,"byteLength":4},{"buffer":0,"byteOffset":3084,"byteLength":12},{"buffer":0,"byteOffset":3096,"byteLength":104},{"buffer":0,"byteOffset":3200,"byteLength":416},{"buffer":0,"byteOffset":3616,"byteLength":108},{"buffer":0,"byteOffset":3724,"byteLength":324}],"buffers":[{"byteLength":4048,"uri":"data:application/octet-stream;base64,"}],"accessors":[{"bufferView":0,"componentType":5126,"count":1,"max":[0],"min":[0],"type":"SCALAR"},{"bufferView":1,"componentType":5126,"count":1,"max":[-4.4964284092573954e-17,0.7343224883079529,-0.6788007616996765,4.156455854009121e-17],"min":[-4.4964284092573954e-17,0.7343224883079529,-0.6788007616996765,4.156455854009121e-17],"type":"VEC4"},{"bufferView":2,"componentType":5126,"count":1,"max":[0],"min":[0],"type":"SCALAR"},{"bufferView":3,"componentType":5126,"count":1,"max":[0.02500000037252903,-0.0625,-0.0625],"min":[0.02500000037252903,-0.0625,-0.0625],"type":"VEC3"},{"bufferView":4,"componentType":5126,"count":1,"max":[0],"min":[0],"type":"SCALAR"},{"bufferView":5,"componentType":5126,"count":1,"max":[1,1.5,1],"min":[1,1.5,1],"type":"VEC3"},{"bufferView":6,"componentType":5126,"count":38,"max":[2.3499999046325684],"min":[0],"type":"SCALAR"},{"bufferView":7,"componentType":5126,"count":38,"max":[0.2914336323738098,0.9045754671096802,-0.35987672209739685,0.562069296836853],"min":[-0.14948607981204987,0.6669980883598328,-0.6139876246452332,-0.24844324588775635],"type":"VEC4"},{"bufferView":8,"componentType":5126,"count":38,"max":[2.3499999046325684],"min":[0],"type":"SCALAR"},{"bufferView":9,"componentType":5126,"count":38,"max":[-0.07500000298023224,0.15000000596046448,0.09514480829238892],"min":[-0.5269393920898438,-0.732220470905304,-0.8999999761581421],"type":"VEC3"},{"bufferView":10,"componentType":5126,"count":1,"max":[0],"min":[0],"type":"SCALAR"},{"bufferView":11,"componentType":5126,"count":1,"max":[1,1.5,1],"min":[1,1.5,1],"type":"VEC3"},{"bufferView":12,"componentType":5126,"count":46,"max":[2.8499999046325684],"min":[0],"type":"SCALAR"},{"bufferView":13,"componentType":5126,"count":46,"max":[0.2432500422000885,0.15406541526317596,0.018760396167635918,1],"min":[-0.004535869229584932,-0.0018288075225427747,-0.3255375921726227,0.9206441640853882],"type":"VEC4"},{"bufferView":14,"componentType":5126,"count":44,"max":[2.6500000953674316],"min":[0],"type":"SCALAR"},{"bufferView":15,"componentType":5126,"count":44,"max":[0.5003481507301331,0.33500000834465027,1.100000023841858],"min":[0.41187500953674316,0.2651234567165375,0.9649999737739563],"type":"VEC3"},{"bufferView":16,"componentType":5126,"count":1,"max":[0],"min":[0],"type":"SCALAR"},{"bufferView":17,"componentType":5126,"count":1,"max":[0,0,0,1],"min":[0,0,0,1],"type":"VEC4"},{"bufferView":18,"componentType":5126,"count":1,"max":[0],"min":[0],"type":"SCALAR"},{"bufferView":19,"componentType":5126,"count":1,"max":[0,0.0625,0],"min":[0,0.0625,0],"type":"VEC3"},{"bufferView":20,"componentType":5126,"count":26,"max":[2],"min":[0],"type":"SCALAR"},{"bufferView":21,"componentType":5126,"count":26,"max":[0.3338068723678589,0.008881811983883381,0,1],"min":[0,-0.004699244629591703,-0.11984236538410187,0.9426414966583252],"type":"VEC4"},{"bufferView":22,"componentType":5126,"count":27,"max":[2],"min":[0],"type":"SCALAR"},{"bufferView":23,"componentType":5126,"count":27,"max":[0.011677383445203304,0.0023581250570714474,0.07856173068284988],"min":[-0.421875,-0.8116732239723206,-0.5452272891998291],"type":"VEC3"}]}