{"asset":{"version":"2.0","generator":"Blockbench 4.2.4 glTF exporter"},"scenes":[{"nodes":[11],"name":"blockbench_export"}],"scene":0,"nodes":[{"translation":[-0.375,-0.6875,0],"name":"LeftHand"},{"translation":[0.375,0.875,-0.5625],"name":"l","children":[0]},{"translation":[-0.53176375,-0.1277125,-0.58203125],"name":"bolt"},{"translation":[-0.5,0.109375,-0.58203125],"name":"cockinghandle"},{"name":"fn_fal","children":[2,3]},{"name":"main","children":[4]},{"translation":[0,0.0023581249999999887,-0.408484375],"name":"magazine"},{"translation":[0.375,-0.6875,0],"name":"RightHand"},{"translation":[-0.375,0.8125,-0.5625],"name":"R","children":[7]},{"translation":[0,0.0625,0],"name":"body","children":[5,6,8]},{"translation":[0.5,0.3125,1.0625],"name":"bone","children":[1,9]},{"children":[10]}],"animations":[{"name":"inspect","samplers":[{"input":0,"output":1,"interpolation":"LINEAR"},{"input":2,"output":3,"interpolation":"LINEAR"},{"input":4,"output":5,"interpolation":"LINEAR"},{"input":6,"output":7,"interpolation":"LINEAR"},{"input":8,"output":9,"interpolation":"LINEAR"},{"input":10,"output":11,"interpolation":"LINEAR"},{"input":12,"output":13,"interpolation":"LINEAR"},{"input":14,"output":15,"interpolation":"LINEAR"}],"channels":[{"sampler":0,"target":{"node":8,"path":"rotation"}},{"sampler":1,"target":{"node":8,"path":"translation"}},{"sampler":2,"target":{"node":8,"path":"scale"}},{"sampler":3,"target":{"node":1,"path":"rotation"}},{"sampler":4,"target":{"node":1,"path":"translation"}},{"sampler":5,"target":{"node":1,"path":"scale"}},{"sampler":6,"target":{"node":10,"path":"rotation"}},{"sampler":7,"target":{"node":10,"path":"translation"}}]}],"bufferViews":[{"buffer":0,"byteOffset":0,"byteLength":4},{"buffer":0,"byteOffset":4,"byteLength":16},{"buffer":0,"byteOffset":20,"byteLength":4},{"buffer":0,"byteOffset":24,"byteLength":12},{"buffer":0,"byteOffset":36,"byteLength":4},{"buffer":0,"byteOffset":40,"byteLength":12},{"buffer":0,"byteOffset":52,"byteLength":268},{"buffer":0,"byteOffset":320,"byteLength":1072},{"buffer":0,"byteOffset":1392,"byteLength":268},{"buffer":0,"byteOffset":1660,"byteLength":804},{"buffer":0,"byteOffset":2464,"byteLength":4},{"buffer":0,"byteOffset":2468,"byteLength":12},{"buffer":0,"byteOffset":2480,"byteLength":364},{"buffer":0,"byteOffset":2844,"byteLength":1456},{"buffer":0,"byteOffset":4300,"byteLength":352},{"buffer":0,"byteOffset":4652,"byteLength":1056}],"buffers":[{"byteLength":5708,"uri":"data:application/octet-stream;base64,"}],"accessors":[{"bufferView":0,"componentType":5126,"count":1,"max":[0],"min":[0],"type":"SCALAR"},{"bufferView":1,"componentType":5126,"count":1,"max":[-4.4964284092573954e-17,0.7343224883079529,-0.6788007616996765,4.156455854009121e-17],"min":[-4.4964284092573954e-17,0.7343224883079529,-0.6788007616996765,4.156455854009121e-17],"type":"VEC4"},{"bufferView":2,"componentType":5126,"count":1,"max":[0],"min":[0],"type":"SCALAR"},{"bufferView":3,"componentType":5126,"count":1,"max":[0.02500000037252903,-0.0625,-0.0625],"min":[0.02500000037252903,-0.0625,-0.0625],"type":"VEC3"},{"bufferView":4,"componentType":5126,"count":1,"max":[0],"min":[0],"type":"SCALAR"},{"bufferView":5,"componentType":5126,"count":1,"max":[1,1.5,1],"min":[1,1.5,1],"type":"VEC3"},{"bufferView":6,"componentType":5126,"count":67,"max":[5],"min":[0],"type":"SCALAR"},{"bufferView":7,"componentType":5126,"count":67,"max":[0.057371001690626144,0.6828470826148987,-0.47114822268486023,0.5378285646438599],"min":[-0.1499321162700653,0.5668551921844482,-0.7675348520278931,0.29900527000427246],"type":"VEC4"},{"bufferView":8,"componentType":5126,"count":67,"max":[5],"min":[0],"type":"SCALAR"},{"bufferView":9,"componentType":5126,"count":67,"max":[0.23605504631996155,0.20322316884994507,-0.01301288791000843],"min":[-0.46539267897605896,-1.365051507949829,-0.8999999761581421],"type":"VEC3"},{"bufferView":10,"componentType":5126,"count":1,"max":[0],"min":[0],"type":"SCALAR"},{"bufferView":11,"componentType":5126,"count":1,"max":[1,1.5,1],"min":[1,1.5,1],"type":"VEC3"},{"bufferView":12,"componentType":5126,"count":91,"max":[5.550000190734863],"min":[0],"type":"SCALAR"},{"bufferView":13,"componentType":5126,"count":91,"max":[0.315444678068161,0.32954171299934387,0.5330343246459961,1],"min":[-0.008978391997516155,-0.0027249008417129517,-0.38386470079421997,0.7664384841918945],"type":"VEC4"},{"bufferView":14,"componentType":5126,"count":88,"max":[5.400000095367432],"min":[0],"type":"SCALAR"},{"bufferView":15,"componentType":5126,"count":88,"max":[0.5041748285293579,0.42651620507240295,1.1082031726837158],"min":[0.296587735414505,0.203125,0.76133793592453],"type":"VEC3"}]}