{"asset":{"version":"2.0","generator":"Blockbench 4.5.2 glTF exporter"},"scenes":[{"nodes":[23],"name":"blockbench_export"}],"scene":0,"nodes":[{"translation":[0.875,-0.5,-0.6875],"name":"9mm"},{"translation":[1.24569375,-0.31706812500000003,0.3737418749999999],"name":"magazine"},{"translation":[0,0.1875,-0.0625],"name":"extra_mag","children":[0,1]},{"translation":[-0.5,-0.5,-0.6875],"name":"9mm2"},{"translation":[-0.12930625,-0.31706812500000003,0.3737418749999999],"name":"magazine2"},{"translation":[0,0.1875,-0.0625],"name":"mb","children":[3,4]},{"translation":[0,0.013213750000000024,-0.42104312499999996],"name":"octagon"},{"translation":[0,0.17428624999999998,0.17104312499999996],"name":"bottom","children":[6]},{"translation":[-0.59257,-0.559485625,-0.023900000000000032],"name":"parts"},{"translation":[0.002495000000000025,0.25206625000000005,-0.19912312499999996],"name":"trigger"},{"translation":[0,0.15625,-0.33125],"name":"octagon3"},{"translation":[0,0.1875,-0.25],"name":"barrel","children":[10]},{"translation":[0.09888187500000001,-0.216289375,0.0625],"name":"switch"},{"translation":[0.09888187500000001,-0.216289375,0.0625],"name":"octagon2"},{"translation":[0.16232999999999997,-0.044363750000000035,0.549003125],"name":"group"},{"translation":[-0.09888187500000001,0.403789375,-0.3125],"name":"slide","children":[12,13,14]},{"translation":[0,-0.0625,0],"name":"g18","children":[2,5,7,8,9,11,15]},{"translation":[0.375,-0.6875,0],"name":"RightHand"},{"translation":[-0.375,0.8125,-0.25],"name":"R","children":[17]},{"translation":[0.5,0.375,0.75],"name":"bone","children":[16,18]},{"translation":[-0.375,-0.6875,0],"name":"LeftHand"},{"translation":[0.875,1.1875,0.5],"name":"l","children":[20]},{"name":"bone2","children":[19,21]},{"children":[22]}],"animations":[{"name":"reload_empty","samplers":[{"input":0,"output":1,"interpolation":"LINEAR"},{"input":2,"output":3,"interpolation":"LINEAR"},{"input":4,"output":5,"interpolation":"LINEAR"},{"input":6,"output":7,"interpolation":"LINEAR"},{"input":8,"output":9,"interpolation":"LINEAR"},{"input":10,"output":11,"interpolation":"LINEAR"},{"input":12,"output":13,"interpolation":"LINEAR"},{"input":14,"output":15,"interpolation":"LINEAR"},{"input":16,"output":17,"interpolation":"LINEAR"},{"input":18,"output":19,"interpolation":"LINEAR"},{"input":20,"output":21,"interpolation":"LINEAR"},{"input":22,"output":23,"interpolation":"LINEAR"},{"input":24,"output":25,"interpolation":"LINEAR"},{"input":26,"output":27,"interpolation":"LINEAR"}],"channels":[{"sampler":0,"target":{"node":2,"path":"translation"}},{"sampler":1,"target":{"node":18,"path":"rotation"}},{"sampler":2,"target":{"node":18,"path":"translation"}},{"sampler":3,"target":{"node":18,"path":"scale"}},{"sampler":4,"target":{"node":21,"path":"rotation"}},{"sampler":5,"target":{"node":21,"path":"translation"}},{"sampler":6,"target":{"node":21,"path":"scale"}},{"sampler":7,"target":{"node":19,"path":"rotation"}},{"sampler":8,"target":{"node":19,"path":"translation"}},{"sampler":9,"target":{"node":15,"path":"translation"}},{"sampler":10,"target":{"node":5,"path":"rotation"}},{"sampler":11,"target":{"node":5,"path":"translation"}},{"sampler":12,"target":{"node":3,"path":"translation"}},{"sampler":13,"target":{"node":22,"path":"translation"}}]}],"bufferViews":[{"buffer":0,"byteOffset":0,"byteLength":4},{"buffer":0,"byteOffset":4,"byteLength":12},{"buffer":0,"byteOffset":16,"byteLength":36},{"buffer":0,"byteOffset":52,"byteLength":144},{"buffer":0,"byteOffset":196,"byteLength":28},{"buffer":0,"byteOffset":224,"byteLength":84},{"buffer":0,"byteOffset":308,"byteLength":4},{"buffer":0,"byteOffset":312,"byteLength":12},{"buffer":0,"byteOffset":324,"byteLength":152},{"buffer":0,"byteOffset":476,"byteLength":608},{"buffer":0,"byteOffset":1084,"byteLength":148},{"buffer":0,"byteOffset":1232,"byteLength":444},{"buffer":0,"byteOffset":1676,"byteLength":4},{"buffer":0,"byteOffset":1680,"byteLength":12},{"buffer":0,"byteOffset":1692,"byteLength":148},{"buffer":0,"byteOffset":1840,"byteLength":592},{"buffer":0,"byteOffset":2432,"byteLength":128},{"buffer":0,"byteOffset":2560,"byteLength":384},{"buffer":0,"byteOffset":2944,"byteLength":24},{"buffer":0,"byteOffset":2968,"byteLength":72},{"buffer":0,"byteOffset":3040,"byteLength":28},{"buffer":0,"byteOffset":3068,"byteLength":112},{"buffer":0,"byteOffset":3180,"byteLength":32},{"buffer":0,"byteOffset":3212,"byteLength":96},{"buffer":0,"byteOffset":3308,"byteLength":8},{"buffer":0,"byteOffset":3316,"byteLength":24},{"buffer":0,"byteOffset":3340,"byteLength":140},{"buffer":0,"byteOffset":3480,"byteLength":420}],"buffers":[{"byteLength":3900,"uri":"data:application/octet-stream;base64,"}],"accessors":[{"bufferView":0,"componentType":5126,"count":1,"max":[0],"min":[0],"type":"SCALAR"},{"bufferView":1,"componentType":5126,"count":1,"max":[0,-0.1875,2.5],"min":[0,-0.1875,2.5],"type":"VEC3"},{"bufferView":2,"componentType":5126,"count":9,"max":[1.5499999523162842],"min":[0],"type":"SCALAR"},{"bufferView":3,"componentType":5126,"count":9,"max":[0.053043220192193985,-0.7547096014022827,0.6560590267181396,0.04530317708849907],"min":[4.621263198581448e-17,-0.7986354827880859,0.6018150448799133,-0.02593536488711834],"type":"VEC4"},{"bufferView":4,"componentType":5126,"count":7,"max":[1.5499999523162842],"min":[0],"type":"SCALAR"},{"bufferView":5,"componentType":5126,"count":7,"max":[0.04374999925494194,-0.0625,-0.13124999403953552],"min":[0.04374999925494194,-0.08749999850988388,-0.13124999403953552],"type":"VEC3"},{"bufferView":6,"componentType":5126,"count":1,"max":[0],"min":[0],"type":"SCALAR"},{"bufferView":7,"componentType":5126,"count":1,"max":[1.75,2,1.75],"min":[1.75,2,1.75],"type":"VEC3"},{"bufferView":8,"componentType":5126,"count":38,"max":[2.25],"min":[0],"type":"SCALAR"},{"bufferView":9,"componentType":5126,"count":38,"max":[0.3028873801231384,0.9050905108451843,-0.2927744388580322,0.5567379593849182],"min":[-0.16363270580768585,0.5222577452659607,-0.6267560124397278,0.07417482137680054],"type":"VEC4"},{"bufferView":10,"componentType":5126,"count":37,"max":[2.25],"min":[0],"type":"SCALAR"},{"bufferView":11,"componentType":5126,"count":37,"max":[0.4937500059604645,0.6812499761581421,1.350000023841858],"min":[-0.16203919053077698,-1.097387671470642,0.328125],"type":"VEC3"},{"bufferView":12,"componentType":5126,"count":1,"max":[0],"min":[0],"type":"SCALAR"},{"bufferView":13,"componentType":5126,"count":1,"max":[1.75,2,1.75],"min":[1.75,2,1.75],"type":"VEC3"},{"bufferView":14,"componentType":5126,"count":37,"max":[2.299999952316284],"min":[0],"type":"SCALAR"},{"bufferView":15,"componentType":5126,"count":37,"max":[0.3063320517539978,0.38676154613494873,0.43604663014411926,1],"min":[-0.00479604909196496,-0.06578974425792694,-0.48757436871528625,0.7812819480895996],"type":"VEC4"},{"bufferView":16,"componentType":5126,"count":32,"max":[2.25],"min":[0],"type":"SCALAR"},{"bufferView":17,"componentType":5126,"count":32,"max":[0.6937500238418579,0.7437499761581421,0.9678372144699097],"min":[0.4762499928474426,0.2558642029762268,0.6568750143051147],"type":"VEC3"},{"bufferView":18,"componentType":5126,"count":6,"max":[1.7999999523162842],"min":[1.5499999523162842],"type":"SCALAR"},{"bufferView":19,"componentType":5126,"count":6,"max":[-0.09888187795877457,0.40378937125205994,-0.05937499925494194],"min":[-0.09888187795877457,0.40378937125205994,-0.3125],"type":"VEC3"},{"bufferView":20,"componentType":5126,"count":7,"max":[1.149999976158142],"min":[0.25],"type":"SCALAR"},{"bufferView":21,"componentType":5126,"count":7,"max":[0.26357337832450867,0.15904487669467926,0.11865395307540894,1],"min":[0,-0.2242928296327591,0,0.9504148364067078],"type":"VEC4"},{"bufferView":22,"componentType":5126,"count":8,"max":[1.149999976158142],"min":[0.25],"type":"SCALAR"},{"bufferView":23,"componentType":5126,"count":8,"max":[0.7212499976158142,0.1875,0.7181249856948853],"min":[-0.017500000074505806,-1.3581249713897705,-0.0625],"type":"VEC3"},{"bufferView":24,"componentType":5126,"count":2,"max":[0.8999999761581421],"min":[0.8500000238418579],"type":"SCALAR"},{"bufferView":25,"componentType":5126,"count":2,"max":[-0.5,-0.42500001192092896,-0.6875],"min":[-0.5,-0.5,-0.7124999761581421],"type":"VEC3"},{"bufferView":26,"componentType":5126,"count":35,"max":[1.9500000476837158],"min":[0],"type":"SCALAR"},{"bufferView":27,"componentType":5126,"count":35,"max":[0.10858868062496185,0.15625,0.19374999403953552],"min":[0,0,-0.014324493706226349],"type":"VEC3"}]}