{"asset":{"version":"2.0","generator":"Blockbench 4.2.4 glTF exporter"},"scenes":[{"nodes":[9],"name":"blockbench_export"}],"scene":0,"nodes":[{"translation":[0.493688125,0.963275,-0.28859999999999997],"name":"slide"},{"translation":[-0.59257,-0.496985625,-0.14890000000000003],"name":"parts","children":[0]},{"translation":[-0.12930625,-0.067068125,0.1862418749999999],"name":"magazine"},{"name":"glcok17","children":[1,2]},{"translation":[0.375,-0.625,0],"name":"RightHand"},{"translation":[-0.375,0.875,-0.375],"name":"R","children":[4]},{"translation":[0.5,0.25,0.875],"name":"bone","children":[3,5]},{"translation":[-0.375,-0.625,0],"name":"LeftHand"},{"translation":[0.875,1.125,0.5],"name":"L","children":[7]},{"children":[6,8]}],"animations":[{"name":"draw","samplers":[{"input":0,"output":1,"interpolation":"LINEAR"},{"input":2,"output":3,"interpolation":"LINEAR"},{"input":4,"output":5,"interpolation":"LINEAR"},{"input":6,"output":7,"interpolation":"LINEAR"},{"input":8,"output":9,"interpolation":"LINEAR"},{"input":10,"output":11,"interpolation":"LINEAR"},{"input":12,"output":13,"interpolation":"LINEAR"},{"input":14,"output":15,"interpolation":"LINEAR"}],"channels":[{"sampler":0,"target":{"node":6,"path":"rotation"}},{"sampler":1,"target":{"node":6,"path":"translation"}},{"sampler":2,"target":{"node":5,"path":"rotation"}},{"sampler":3,"target":{"node":5,"path":"translation"}},{"sampler":4,"target":{"node":5,"path":"scale"}},{"sampler":5,"target":{"node":8,"path":"rotation"}},{"sampler":6,"target":{"node":8,"path":"translation"}},{"sampler":7,"target":{"node":8,"path":"scale"}}]}],"bufferViews":[{"buffer":0,"byteOffset":0,"byteLength":56},{"buffer":0,"byteOffset":56,"byteLength":224},{"buffer":0,"byteOffset":280,"byteLength":48},{"buffer":0,"byteOffset":328,"byteLength":144},{"buffer":0,"byteOffset":472,"byteLength":4},{"buffer":0,"byteOffset":476,"byteLength":16},{"buffer":0,"byteOffset":492,"byteLength":4},{"buffer":0,"byteOffset":496,"byteLength":12},{"buffer":0,"byteOffset":508,"byteLength":4},{"buffer":0,"byteOffset":512,"byteLength":12},{"buffer":0,"byteOffset":524,"byteLength":4},{"buffer":0,"byteOffset":528,"byteLength":16},{"buffer":0,"byteOffset":544,"byteLength":4},{"buffer":0,"byteOffset":548,"byteLength":12},{"buffer":0,"byteOffset":560,"byteLength":4},{"buffer":0,"byteOffset":564,"byteLength":12}],"buffers":[{"byteLength":576,"uri":"data:application/octet-stream;base64,"}],"accessors":[{"bufferView":0,"componentType":5126,"count":14,"max":[0.800000011920929],"min":[0],"type":"SCALAR"},{"bufferView":1,"componentType":5126,"count":14,"max":[0.030989108607172966,0.05966058745980263,0.20601099729537964,1],"min":[-0.6134660243988037,-0.005656781140714884,0,0.760745644569397],"type":"VEC4"},{"bufferView":2,"componentType":5126,"count":12,"max":[0.699999988079071],"min":[0],"type":"SCALAR"},{"bufferView":3,"componentType":5126,"count":12,"max":[0.50091552734375,0.2501772344112396,2.106250047683716],"min":[0.48750001192092896,-1.28125,0.7455602288246155],"type":"VEC3"},{"bufferView":4,"componentType":5126,"count":1,"max":[0],"min":[0],"type":"SCALAR"},{"bufferView":5,"componentType":5126,"count":1,"max":[-0.014022338204085827,-0.7658621668815613,0.6426346302032471,0.016711171716451645],"min":[-0.014022338204085827,-0.7658621668815613,0.6426346302032471,0.016711171716451645],"type":"VEC4"},{"bufferView":6,"componentType":5126,"count":1,"max":[0],"min":[0],"type":"SCALAR"},{"bufferView":7,"componentType":5126,"count":1,"max":[0,0.04374999925494194,-0.08749999850988388],"min":[0,0.04374999925494194,-0.08749999850988388],"type":"VEC3"},{"bufferView":8,"componentType":5126,"count":1,"max":[0],"min":[0],"type":"SCALAR"},{"bufferView":9,"componentType":5126,"count":1,"max":[1.7999999523162842,2,1.7999999523162842],"min":[1.7999999523162842,2,1.7999999523162842],"type":"VEC3"},{"bufferView":10,"componentType":5126,"count":1,"max":[0],"min":[0],"type":"SCALAR"},{"bufferView":11,"componentType":5126,"count":1,"max":[0.025792565196752548,0.518279492855072,-0.8540982007980347,-0.03517661988735199],"min":[0.025792565196752548,0.518279492855072,-0.8540982007980347,-0.03517661988735199],"type":"VEC4"},{"bufferView":12,"componentType":5126,"count":1,"max":[0],"min":[0],"type":"SCALAR"},{"bufferView":13,"componentType":5126,"count":1,"max":[-0.4375,-1.9375,0.5],"min":[-0.4375,-1.9375,0.5],"type":"VEC3"},{"bufferView":14,"componentType":5126,"count":1,"max":[0],"min":[0],"type":"SCALAR"},{"bufferView":15,"componentType":5126,"count":1,"max":[1.7999999523162842,2,1.7999999523162842],"min":[1.7999999523162842,2,1.7999999523162842],"type":"VEC3"}]}