{"asset":{"version":"2.0","generator":"Blockbench 4.5.2 glTF exporter"},"scenes":[{"nodes":[23],"name":"blockbench_export"}],"scene":0,"nodes":[{"translation":[0.875,-0.5,-0.6875],"name":"9mm"},{"translation":[1.24569375,-0.31706812500000003,0.3737418749999999],"name":"magazine"},{"translation":[0,0.1875,-0.0625],"name":"extra_mag","children":[0,1]},{"translation":[-0.5,-0.5,-0.6875],"name":"9mm2"},{"translation":[-0.12930625,-0.31706812500000003,0.3737418749999999],"name":"magazine2"},{"translation":[0,0.1875,-0.0625],"name":"mb","children":[3,4]},{"translation":[0,0.013213750000000024,-0.42104312499999996],"name":"octagon"},{"translation":[0,0.17428624999999998,0.17104312499999996],"name":"bottom","children":[6]},{"translation":[-0.59257,-0.559485625,-0.023900000000000032],"name":"parts"},{"translation":[0.002495000000000025,0.25206625000000005,-0.19912312499999996],"name":"trigger"},{"translation":[0,0.15625,-0.33125],"name":"octagon3"},{"translation":[0,0.1875,-0.25],"name":"barrel","children":[10]},{"translation":[0.09888187500000001,-0.216289375,0.0625],"name":"switch"},{"translation":[0.09888187500000001,-0.216289375,0.0625],"name":"octagon2"},{"translation":[0.16232999999999997,-0.044363750000000035,0.549003125],"name":"group"},{"translation":[-0.09888187500000001,0.403789375,-0.3125],"name":"slide","children":[12,13,14]},{"translation":[0,-0.0625,0],"name":"g18","children":[2,5,7,8,9,11,15]},{"translation":[0.375,-0.6875,0],"name":"RightHand"},{"translation":[-0.375,0.8125,-0.25],"name":"R","children":[17]},{"translation":[0.5,0.375,0.75],"name":"bone","children":[16,18]},{"translation":[-0.375,-0.6875,0],"name":"LeftHand"},{"translation":[0.875,1.1875,0.5],"name":"l","children":[20]},{"name":"bone2","children":[19,21]},{"children":[22]}],"animations":[{"name":"inspect","samplers":[{"input":0,"output":1,"interpolation":"LINEAR"},{"input":2,"output":3,"interpolation":"LINEAR"},{"input":4,"output":5,"interpolation":"LINEAR"},{"input":6,"output":7,"interpolation":"LINEAR"},{"input":8,"output":9,"interpolation":"LINEAR"},{"input":10,"output":11,"interpolation":"LINEAR"},{"input":12,"output":13,"interpolation":"LINEAR"},{"input":14,"output":15,"interpolation":"LINEAR"},{"input":16,"output":17,"interpolation":"LINEAR"},{"input":18,"output":19,"interpolation":"LINEAR"},{"input":20,"output":21,"interpolation":"LINEAR"}],"channels":[{"sampler":0,"target":{"node":2,"path":"rotation"}},{"sampler":1,"target":{"node":2,"path":"translation"}},{"sampler":2,"target":{"node":18,"path":"rotation"}},{"sampler":3,"target":{"node":18,"path":"translation"}},{"sampler":4,"target":{"node":18,"path":"scale"}},{"sampler":5,"target":{"node":21,"path":"rotation"}},{"sampler":6,"target":{"node":21,"path":"translation"}},{"sampler":7,"target":{"node":21,"path":"scale"}},{"sampler":8,"target":{"node":19,"path":"rotation"}},{"sampler":9,"target":{"node":19,"path":"translation"}},{"sampler":10,"target":{"node":16,"path":"translation"}}]}],"bufferViews":[{"buffer":0,"byteOffset":0,"byteLength":8},{"buffer":0,"byteOffset":8,"byteLength":32},{"buffer":0,"byteOffset":40,"byteLength":8},{"buffer":0,"byteOffset":48,"byteLength":24},{"buffer":0,"byteOffset":72,"byteLength":4},{"buffer":0,"byteOffset":76,"byteLength":16},{"buffer":0,"byteOffset":92,"byteLength":4},{"buffer":0,"byteOffset":96,"byteLength":12},{"buffer":0,"byteOffset":108,"byteLength":4},{"buffer":0,"byteOffset":112,"byteLength":12},{"buffer":0,"byteOffset":124,"byteLength":264},{"buffer":0,"byteOffset":388,"byteLength":1056},{"buffer":0,"byteOffset":1444,"byteLength":264},{"buffer":0,"byteOffset":1708,"byteLength":792},{"buffer":0,"byteOffset":2500,"byteLength":4},{"buffer":0,"byteOffset":2504,"byteLength":12},{"buffer":0,"byteOffset":2516,"byteLength":260},{"buffer":0,"byteOffset":2776,"byteLength":1040},{"buffer":0,"byteOffset":3816,"byteLength":256},{"buffer":0,"byteOffset":4072,"byteLength":768},{"buffer":0,"byteOffset":4840,"byteLength":16},{"buffer":0,"byteOffset":4856,"byteLength":48}],"buffers":[{"byteLength":4904,"uri":"data:application/octet-stream;base64,"}],"accessors":[{"bufferView":0,"componentType":5126,"count":2,"max":[0.05000000074505806],"min":[0],"type":"SCALAR"},{"bufferView":1,"componentType":5126,"count":2,"max":[0,0,0,1],"min":[0,0,0,1],"type":"VEC4"},{"bufferView":2,"componentType":5126,"count":2,"max":[0.05000000074505806],"min":[0],"type":"SCALAR"},{"bufferView":3,"componentType":5126,"count":2,"max":[0,0.1875,1.875],"min":[0,-1.5625,-0.0625],"type":"VEC3"},{"bufferView":4,"componentType":5126,"count":1,"max":[0],"min":[0],"type":"SCALAR"},{"bufferView":5,"componentType":5126,"count":1,"max":[0.053043220192193985,-0.758553683757782,0.6478660106658936,0.04530317708849907],"min":[0.053043220192193985,-0.758553683757782,0.6478660106658936,0.04530317708849907],"type":"VEC4"},{"bufferView":6,"componentType":5126,"count":1,"max":[0],"min":[0],"type":"SCALAR"},{"bufferView":7,"componentType":5126,"count":1,"max":[0.04374999925494194,-0.08749999850988388,-0.13124999403953552],"min":[0.04374999925494194,-0.08749999850988388,-0.13124999403953552],"type":"VEC3"},{"bufferView":8,"componentType":5126,"count":1,"max":[0],"min":[0],"type":"SCALAR"},{"bufferView":9,"componentType":5126,"count":1,"max":[1.75,2,1.75],"min":[1.75,2,1.75],"type":"VEC3"},{"bufferView":10,"componentType":5126,"count":66,"max":[4.199999809265137],"min":[0],"type":"SCALAR"},{"bufferView":11,"componentType":5126,"count":66,"max":[0.1707177460193634,0.8820973634719849,-0.3285464644432068,0.5513596534729004],"min":[-0.10770808160305023,0.7071067690849304,-0.7071067690849304,-0.142921581864357],"type":"VEC4"},{"bufferView":12,"componentType":5126,"count":66,"max":[4.199999809265137],"min":[0],"type":"SCALAR"},{"bufferView":13,"componentType":5126,"count":66,"max":[0.4937500059604645,0.6311114430427551,1.356031060218811],"min":[-0.8387500047683716,-1.5522946119308472,0.36711153388023376],"type":"VEC3"},{"bufferView":14,"componentType":5126,"count":1,"max":[0],"min":[0],"type":"SCALAR"},{"bufferView":15,"componentType":5126,"count":1,"max":[1.75,2,1.75],"min":[1.75,2,1.75],"type":"VEC3"},{"bufferView":16,"componentType":5126,"count":65,"max":[4.300000190734863],"min":[0],"type":"SCALAR"},{"bufferView":17,"componentType":5126,"count":65,"max":[0.46456727385520935,0.1794108897447586,0.5922033190727234,1],"min":[-0.00005711463381885551,-0.1748412400484085,-0.32473716139793396,0.6772732734680176],"type":"VEC4"},{"bufferView":18,"componentType":5126,"count":64,"max":[4.25],"min":[0],"type":"SCALAR"},{"bufferView":19,"componentType":5126,"count":64,"max":[0.5062500238418579,0.6487500071525574,1.1636574268341064],"min":[0.39269280433654785,0.3627057671546936,0.668749988079071],"type":"VEC3"},{"bufferView":20,"componentType":5126,"count":4,"max":[2.1500000953674316],"min":[0.15000000596046448],"type":"SCALAR"},{"bufferView":21,"componentType":5126,"count":4,"max":[0,-0.0625,0],"min":[-0.16249999403953552,-0.0625,0],"type":"VEC3"}]}