{"asset":{"version":"2.0","generator":"Blockbench 4.2.4 glTF exporter"},"scenes":[{"nodes":[9],"name":"blockbench_export"}],"scene":0,"nodes":[{"translation":[0.493688125,0.963275,-0.28859999999999997],"name":"slide"},{"translation":[-0.59257,-0.496985625,-0.14890000000000003],"name":"parts","children":[0]},{"translation":[-0.12930625,-0.067068125,0.1862418749999999],"name":"magazine"},{"name":"glcok17","children":[1,2]},{"translation":[0.375,-0.625,0],"name":"RightHand"},{"translation":[-0.375,0.875,-0.375],"name":"R","children":[4]},{"translation":[0.5,0.25,0.875],"name":"bone","children":[3,5]},{"translation":[-0.375,-0.625,0],"name":"LeftHand"},{"translation":[0.875,1.125,0.5],"name":"L","children":[7]},{"children":[6,8]}],"animations":[{"name":"reload_norm","samplers":[{"input":0,"output":1,"interpolation":"LINEAR"},{"input":2,"output":3,"interpolation":"LINEAR"},{"input":4,"output":5,"interpolation":"LINEAR"},{"input":6,"output":7,"interpolation":"LINEAR"},{"input":8,"output":9,"interpolation":"LINEAR"},{"input":10,"output":11,"interpolation":"LINEAR"},{"input":12,"output":13,"interpolation":"LINEAR"},{"input":14,"output":15,"interpolation":"LINEAR"},{"input":16,"output":17,"interpolation":"LINEAR"},{"input":18,"output":19,"interpolation":"LINEAR"}],"channels":[{"sampler":0,"target":{"node":6,"path":"rotation"}},{"sampler":1,"target":{"node":6,"path":"translation"}},{"sampler":2,"target":{"node":2,"path":"rotation"}},{"sampler":3,"target":{"node":2,"path":"translation"}},{"sampler":4,"target":{"node":5,"path":"rotation"}},{"sampler":5,"target":{"node":5,"path":"translation"}},{"sampler":6,"target":{"node":5,"path":"scale"}},{"sampler":7,"target":{"node":8,"path":"rotation"}},{"sampler":8,"target":{"node":8,"path":"translation"}},{"sampler":9,"target":{"node":8,"path":"scale"}}]}],"bufferViews":[{"buffer":0,"byteOffset":0,"byteLength":120},{"buffer":0,"byteOffset":120,"byteLength":480},{"buffer":0,"byteOffset":600,"byteLength":124},{"buffer":0,"byteOffset":724,"byteLength":372},{"buffer":0,"byteOffset":1096,"byteLength":64},{"buffer":0,"byteOffset":1160,"byteLength":256},{"buffer":0,"byteOffset":1416,"byteLength":64},{"buffer":0,"byteOffset":1480,"byteLength":192},{"buffer":0,"byteOffset":1672,"byteLength":4},{"buffer":0,"byteOffset":1676,"byteLength":16},{"buffer":0,"byteOffset":1692,"byteLength":4},{"buffer":0,"byteOffset":1696,"byteLength":12},{"buffer":0,"byteOffset":1708,"byteLength":4},{"buffer":0,"byteOffset":1712,"byteLength":12},{"buffer":0,"byteOffset":1724,"byteLength":128},{"buffer":0,"byteOffset":1852,"byteLength":512},{"buffer":0,"byteOffset":2364,"byteLength":116},{"buffer":0,"byteOffset":2480,"byteLength":348},{"buffer":0,"byteOffset":2828,"byteLength":4},{"buffer":0,"byteOffset":2832,"byteLength":12}],"buffers":[{"byteLength":2844,"uri":"data:application/octet-stream;base64,"}],"accessors":[{"bufferView":0,"componentType":5126,"count":30,"max":[2],"min":[0],"type":"SCALAR"},{"bufferView":1,"componentType":5126,"count":30,"max":[0.4233572483062744,0.3090769350528717,0.00567693030461669,1],"min":[-0.000002507143335606088,-0.008726535364985466,-0.3296963572502136,0.816804826259613],"type":"VEC4"},{"bufferView":2,"componentType":5126,"count":31,"max":[1.899999976158142],"min":[0],"type":"SCALAR"},{"bufferView":3,"componentType":5126,"count":31,"max":[0.5,0.5249999761581421,1.068750023841858],"min":[0.3687500059604645,0.23028157651424408,0.875],"type":"VEC3"},{"bufferView":4,"componentType":5126,"count":16,"max":[1.399999976158142],"min":[0],"type":"SCALAR"},{"bufferView":5,"componentType":5126,"count":16,"max":[0.4296228587627411,0.003921047784388065,0.0054061138071119785,1],"min":[-0.03462883457541466,-0.19726145267486572,-0.3217233121395111,0.8203696012496948],"type":"VEC4"},{"bufferView":6,"componentType":5126,"count":16,"max":[1.399999976158142],"min":[0],"type":"SCALAR"},{"bufferView":7,"componentType":5126,"count":16,"max":[-0.12930625677108765,-0.06706812232732773,1.2074918746948242],"min":[-0.7105562686920166,-2.2201931476593018,0.18624188005924225],"type":"VEC3"},{"bufferView":8,"componentType":5126,"count":1,"max":[0],"min":[0],"type":"SCALAR"},{"bufferView":9,"componentType":5126,"count":1,"max":[0.040091682225465775,-0.7649946212768555,0.6419066786766052,0.03364089876413345],"min":[0.040091682225465775,-0.7649946212768555,0.6419066786766052,0.03364089876413345],"type":"VEC4"},{"bufferView":10,"componentType":5126,"count":1,"max":[0],"min":[0],"type":"SCALAR"},{"bufferView":11,"componentType":5126,"count":1,"max":[0.0625,0.04374999925494194,-0.08749999850988388],"min":[0.0625,0.04374999925494194,-0.08749999850988388],"type":"VEC3"},{"bufferView":12,"componentType":5126,"count":1,"max":[0],"min":[0],"type":"SCALAR"},{"bufferView":13,"componentType":5126,"count":1,"max":[1.75,2,1.75],"min":[1.75,2,1.75],"type":"VEC3"},{"bufferView":14,"componentType":5126,"count":32,"max":[1.9500000476837158],"min":[0],"type":"SCALAR"},{"bufferView":15,"componentType":5126,"count":32,"max":[0.16731715202331543,0.8510826826095581,-0.3091859519481659,0.5381726622581482],"min":[-0.321950227022171,0.6180263757705688,-0.7786098718643188,0.028440166264772415],"type":"VEC4"},{"bufferView":16,"componentType":5126,"count":29,"max":[1.9500000476837158],"min":[0],"type":"SCALAR"},{"bufferView":17,"componentType":5126,"count":29,"max":[0.42500001192092896,0.3125,0.8187500238418579],"min":[-1.118749976158142,-1.2687499523162842,0.3125],"type":"VEC3"},{"bufferView":18,"componentType":5126,"count":1,"max":[0],"min":[0],"type":"SCALAR"},{"bufferView":19,"componentType":5126,"count":1,"max":[1.75,2,1.75],"min":[1.75,2,1.75],"type":"VEC3"}]}