{"asset":{"version":"2.0","generator":"Blockbench 4.2.4 glTF exporter"},"scenes":[{"nodes":[9],"name":"blockbench_export"}],"scene":0,"nodes":[{"translation":[0.493688125,0.963275,-0.28859999999999997],"name":"slide"},{"translation":[-0.59257,-0.496985625,-0.14890000000000003],"name":"parts","children":[0]},{"translation":[-0.12930625,-0.067068125,0.1862418749999999],"name":"magazine"},{"name":"glcok17","children":[1,2]},{"translation":[0.375,-0.625,0],"name":"RightHand"},{"translation":[-0.375,0.875,-0.375],"name":"R","children":[4]},{"translation":[0.5,0.25,0.875],"name":"bone","children":[3,5]},{"translation":[-0.375,-0.625,0],"name":"LeftHand"},{"translation":[0.875,1.125,0.5],"name":"L","children":[7]},{"children":[6,8]}],"animations":[{"name":"reload_empty","samplers":[{"input":0,"output":1,"interpolation":"LINEAR"},{"input":2,"output":3,"interpolation":"LINEAR"},{"input":4,"output":5,"interpolation":"LINEAR"},{"input":6,"output":7,"interpolation":"LINEAR"},{"input":8,"output":9,"interpolation":"LINEAR"},{"input":10,"output":11,"interpolation":"LINEAR"},{"input":12,"output":13,"interpolation":"LINEAR"},{"input":14,"output":15,"interpolation":"LINEAR"},{"input":16,"output":17,"interpolation":"LINEAR"},{"input":18,"output":19,"interpolation":"LINEAR"},{"input":20,"output":21,"interpolation":"LINEAR"}],"channels":[{"sampler":0,"target":{"node":6,"path":"rotation"}},{"sampler":1,"target":{"node":6,"path":"translation"}},{"sampler":2,"target":{"node":2,"path":"rotation"}},{"sampler":3,"target":{"node":2,"path":"translation"}},{"sampler":4,"target":{"node":0,"path":"translation"}},{"sampler":5,"target":{"node":5,"path":"rotation"}},{"sampler":6,"target":{"node":5,"path":"translation"}},{"sampler":7,"target":{"node":5,"path":"scale"}},{"sampler":8,"target":{"node":8,"path":"rotation"}},{"sampler":9,"target":{"node":8,"path":"translation"}},{"sampler":10,"target":{"node":8,"path":"scale"}}]}],"bufferViews":[{"buffer":0,"byteOffset":0,"byteLength":144},{"buffer":0,"byteOffset":144,"byteLength":576},{"buffer":0,"byteOffset":720,"byteLength":152},{"buffer":0,"byteOffset":872,"byteLength":456},{"buffer":0,"byteOffset":1328,"byteLength":32},{"buffer":0,"byteOffset":1360,"byteLength":128},{"buffer":0,"byteOffset":1488,"byteLength":40},{"buffer":0,"byteOffset":1528,"byteLength":120},{"buffer":0,"byteOffset":1648,"byteLength":16},{"buffer":0,"byteOffset":1664,"byteLength":48},{"buffer":0,"byteOffset":1712,"byteLength":112},{"buffer":0,"byteOffset":1824,"byteLength":448},{"buffer":0,"byteOffset":2272,"byteLength":112},{"buffer":0,"byteOffset":2384,"byteLength":336},{"buffer":0,"byteOffset":2720,"byteLength":4},{"buffer":0,"byteOffset":2724,"byteLength":12},{"buffer":0,"byteOffset":2736,"byteLength":116},{"buffer":0,"byteOffset":2852,"byteLength":464},{"buffer":0,"byteOffset":3316,"byteLength":124},{"buffer":0,"byteOffset":3440,"byteLength":372},{"buffer":0,"byteOffset":3812,"byteLength":4},{"buffer":0,"byteOffset":3816,"byteLength":12}],"buffers":[{"byteLength":3828,"uri":"data:application/octet-stream;base64,"}],"accessors":[{"bufferView":0,"componentType":5126,"count":36,"max":[2.299999952316284],"min":[0],"type":"SCALAR"},{"bufferView":1,"componentType":5126,"count":36,"max":[0.243444561958313,0.5019112825393677,0.37899187207221985,1],"min":[0,-0.016046708449721336,-0.4615649878978729,0.7215912342071533],"type":"VEC4"},{"bufferView":2,"componentType":5126,"count":38,"max":[2.25],"min":[0],"type":"SCALAR"},{"bufferView":3,"componentType":5126,"count":38,"max":[0.699999988079071,0.5174999833106995,1.1631250381469727],"min":[0.5,0.17937499284744263,0.7317234873771667],"type":"VEC3"},{"bufferView":4,"componentType":5126,"count":8,"max":[1.149999976158142],"min":[0.30000001192092896],"type":"SCALAR"},{"bufferView":5,"componentType":5126,"count":8,"max":[0.3338068723678589,0,0,1],"min":[-0.0915016159415245,0,0,0.9426414966583252],"type":"VEC4"},{"bufferView":6,"componentType":5126,"count":10,"max":[1.149999976158142],"min":[0.30000001192092896],"type":"SCALAR"},{"bufferView":7,"componentType":5126,"count":10,"max":[-0.05229393020272255,-0.06706812232732773,0.9174918532371521],"min":[-0.14287781715393066,-2.11706805229187,0.18624188005924225],"type":"VEC3"},{"bufferView":8,"componentType":5126,"count":4,"max":[1.5499999523162842],"min":[0],"type":"SCALAR"},{"bufferView":9,"componentType":5126,"count":4,"max":[0.4936881363391876,0.9632750153541565,-0.038600001484155655],"min":[0.4936881363391876,0.9632750153541565,-0.28859999775886536],"type":"VEC3"},{"bufferView":10,"componentType":5126,"count":28,"max":[1.5499999523162842],"min":[0],"type":"SCALAR"},{"bufferView":11,"componentType":5126,"count":28,"max":[-4.6906692768028125e-17,-0.7016283273696899,0.7122007012367249,0.019252605736255646],"min":[-0.014665447175502777,-0.7698037028312683,0.6381601095199585,3.9359390979975894e-17],"type":"VEC4"},{"bufferView":12,"componentType":5126,"count":28,"max":[1.5499999523162842],"min":[0],"type":"SCALAR"},{"bufferView":13,"componentType":5126,"count":28,"max":[0,0.046322017908096313,0.001398032414726913],"min":[0,0.002975926036015153,-0.09307270497083664],"type":"VEC3"},{"bufferView":14,"componentType":5126,"count":1,"max":[0],"min":[0],"type":"SCALAR"},{"bufferView":15,"componentType":5126,"count":1,"max":[1.75,2,1.75],"min":[1.75,2,1.75],"type":"VEC3"},{"bufferView":16,"componentType":5126,"count":29,"max":[1.75],"min":[0],"type":"SCALAR"},{"bufferView":17,"componentType":5126,"count":29,"max":[0.47356873750686646,0.9326247572898865,-0.09322800487279892,0.607011616230011],"min":[0.0029528376180678606,0.518279492855072,-0.8540982007980347,-0.18575581908226013],"type":"VEC4"},{"bufferView":18,"componentType":5126,"count":31,"max":[1.75],"min":[0],"type":"SCALAR"},{"bufferView":19,"componentType":5126,"count":31,"max":[0.3687500059604645,0.6044921875,3.2249999046325684],"min":[-0.7542195320129395,-1.9375,0.5],"type":"VEC3"},{"bufferView":20,"componentType":5126,"count":1,"max":[0],"min":[0],"type":"SCALAR"},{"bufferView":21,"componentType":5126,"count":1,"max":[1.75,2,1.75],"min":[1.75,2,1.75],"type":"VEC3"}]}