{"asset":{"version":"2.0","generator":"Blockbench 4.5.2 glTF exporter"},"scenes":[{"nodes":[23],"name":"blockbench_export"}],"scene":0,"nodes":[{"translation":[0.875,-0.5,-0.6875],"name":"9mm"},{"translation":[1.24569375,-0.31706812500000003,0.3737418749999999],"name":"magazine"},{"translation":[0,0.1875,-0.0625],"name":"extra_mag","children":[0,1]},{"translation":[-0.5,-0.5,-0.6875],"name":"9mm2"},{"translation":[-0.12930625,-0.31706812500000003,0.3737418749999999],"name":"magazine2"},{"translation":[0,0.1875,-0.0625],"name":"mb","children":[3,4]},{"translation":[0,0.013213750000000024,-0.42104312499999996],"name":"octagon"},{"translation":[0,0.17428624999999998,0.17104312499999996],"name":"bottom","children":[6]},{"translation":[-0.59257,-0.559485625,-0.023900000000000032],"name":"parts"},{"translation":[0.002495000000000025,0.25206625000000005,-0.19912312499999996],"name":"trigger"},{"translation":[0,0.15625,-0.33125],"name":"octagon3"},{"translation":[0,0.1875,-0.25],"name":"barrel","children":[10]},{"translation":[0.09888187500000001,-0.216289375,0.0625],"name":"switch"},{"translation":[0.09888187500000001,-0.216289375,0.0625],"name":"octagon2"},{"translation":[0.16232999999999997,-0.044363750000000035,0.549003125],"name":"group"},{"translation":[-0.09888187500000001,0.403789375,-0.3125],"name":"slide","children":[12,13,14]},{"translation":[0,-0.0625,0],"name":"g18","children":[2,5,7,8,9,11,15]},{"translation":[0.375,-0.6875,0],"name":"RightHand"},{"translation":[-0.375,0.8125,-0.25],"name":"R","children":[17]},{"translation":[0.5,0.375,0.75],"name":"bone","children":[16,18]},{"translation":[-0.375,-0.6875,0],"name":"LeftHand"},{"translation":[0.875,1.1875,0.5],"name":"l","children":[20]},{"name":"bone2","children":[19,21]},{"children":[22]}],"animations":[{"name":"static_state","samplers":[{"input":0,"output":1,"interpolation":"LINEAR"},{"input":2,"output":3,"interpolation":"LINEAR"},{"input":4,"output":5,"interpolation":"LINEAR"},{"input":6,"output":7,"interpolation":"LINEAR"},{"input":8,"output":9,"interpolation":"LINEAR"},{"input":10,"output":11,"interpolation":"LINEAR"}],"channels":[{"sampler":0,"target":{"node":18,"path":"rotation"}},{"sampler":1,"target":{"node":18,"path":"translation"}},{"sampler":2,"target":{"node":18,"path":"scale"}},{"sampler":3,"target":{"node":21,"path":"rotation"}},{"sampler":4,"target":{"node":21,"path":"translation"}},{"sampler":5,"target":{"node":21,"path":"scale"}}]}],"bufferViews":[{"buffer":0,"byteOffset":0,"byteLength":4},{"buffer":0,"byteOffset":4,"byteLength":16},{"buffer":0,"byteOffset":20,"byteLength":4},{"buffer":0,"byteOffset":24,"byteLength":12},{"buffer":0,"byteOffset":36,"byteLength":4},{"buffer":0,"byteOffset":40,"byteLength":12},{"buffer":0,"byteOffset":52,"byteLength":4},{"buffer":0,"byteOffset":56,"byteLength":16},{"buffer":0,"byteOffset":72,"byteLength":4},{"buffer":0,"byteOffset":76,"byteLength":12},{"buffer":0,"byteOffset":88,"byteLength":4},{"buffer":0,"byteOffset":92,"byteLength":12}],"buffers":[{"byteLength":104,"uri":"data:application/octet-stream;base64,"}],"accessors":[{"bufferView":0,"componentType":5126,"count":1,"max":[0],"min":[0],"type":"SCALAR"},{"bufferView":1,"componentType":5126,"count":1,"max":[0.053043220192193985,-0.758553683757782,0.6478660106658936,0.04530317708849907],"min":[0.053043220192193985,-0.758553683757782,0.6478660106658936,0.04530317708849907],"type":"VEC4"},{"bufferView":2,"componentType":5126,"count":1,"max":[0],"min":[0],"type":"SCALAR"},{"bufferView":3,"componentType":5126,"count":1,"max":[0.04374999925494194,-0.08749999850988388,-0.13124999403953552],"min":[0.04374999925494194,-0.08749999850988388,-0.13124999403953552],"type":"VEC3"},{"bufferView":4,"componentType":5126,"count":1,"max":[0],"min":[0],"type":"SCALAR"},{"bufferView":5,"componentType":5126,"count":1,"max":[1.75,2,1.75],"min":[1.75,2,1.75],"type":"VEC3"},{"bufferView":6,"componentType":5126,"count":1,"max":[0],"min":[0],"type":"SCALAR"},{"bufferView":7,"componentType":5126,"count":1,"max":[-0.007518991362303495,0.8615963459014893,-0.4580966830253601,0.21850091218948364],"min":[-0.007518991362303495,0.8615963459014893,-0.4580966830253601,0.21850091218948364],"type":"VEC4"},{"bufferView":8,"componentType":5126,"count":1,"max":[0],"min":[0],"type":"SCALAR"},{"bufferView":9,"componentType":5126,"count":1,"max":[0.4937500059604645,0.24375000596046448,0.6875],"min":[0.4937500059604645,0.24375000596046448,0.6875],"type":"VEC3"},{"bufferView":10,"componentType":5126,"count":1,"max":[0],"min":[0],"type":"SCALAR"},{"bufferView":11,"componentType":5126,"count":1,"max":[1.75,2,1.75],"min":[1.75,2,1.75],"type":"VEC3"}]}