{"asset":{"version":"2.0","generator":"Blockbench 4.2.4 glTF exporter"},"scenes":[{"nodes":[9],"name":"blockbench_export"}],"scene":0,"nodes":[{"translation":[0.493688125,0.963275,-0.28859999999999997],"name":"slide"},{"translation":[-0.59257,-0.496985625,-0.14890000000000003],"name":"parts","children":[0]},{"translation":[-0.12930625,-0.067068125,0.1862418749999999],"name":"magazine"},{"name":"glcok17","children":[1,2]},{"translation":[0.375,-0.625,0],"name":"RightHand"},{"translation":[-0.375,0.875,-0.375],"name":"R","children":[4]},{"translation":[0.5,0.25,0.875],"name":"bone","children":[3,5]},{"translation":[-0.375,-0.625,0],"name":"LeftHand"},{"translation":[0.875,1.125,0.5],"name":"L","children":[7]},{"children":[6,8]}],"animations":[{"name":"inspect","samplers":[{"input":0,"output":1,"interpolation":"LINEAR"},{"input":2,"output":3,"interpolation":"LINEAR"},{"input":4,"output":5,"interpolation":"LINEAR"},{"input":6,"output":7,"interpolation":"LINEAR"},{"input":8,"output":9,"interpolation":"LINEAR"},{"input":10,"output":11,"interpolation":"LINEAR"},{"input":12,"output":13,"interpolation":"LINEAR"},{"input":14,"output":15,"interpolation":"LINEAR"},{"input":16,"output":17,"interpolation":"LINEAR"}],"channels":[{"sampler":0,"target":{"node":6,"path":"rotation"}},{"sampler":1,"target":{"node":6,"path":"translation"}},{"sampler":2,"target":{"node":5,"path":"rotation"}},{"sampler":3,"target":{"node":5,"path":"translation"}},{"sampler":4,"target":{"node":5,"path":"scale"}},{"sampler":5,"target":{"node":8,"path":"rotation"}},{"sampler":6,"target":{"node":8,"path":"translation"}},{"sampler":7,"target":{"node":8,"path":"scale"}},{"sampler":8,"target":{"node":3,"path":"translation"}}]}],"bufferViews":[{"buffer":0,"byteOffset":0,"byteLength":264},{"buffer":0,"byteOffset":264,"byteLength":1056},{"buffer":0,"byteOffset":1320,"byteLength":260},{"buffer":0,"byteOffset":1580,"byteLength":780},{"buffer":0,"byteOffset":2360,"byteLength":4},{"buffer":0,"byteOffset":2364,"byteLength":16},{"buffer":0,"byteOffset":2380,"byteLength":4},{"buffer":0,"byteOffset":2384,"byteLength":12},{"buffer":0,"byteOffset":2396,"byteLength":4},{"buffer":0,"byteOffset":2400,"byteLength":12},{"buffer":0,"byteOffset":2412,"byteLength":4},{"buffer":0,"byteOffset":2416,"byteLength":16},{"buffer":0,"byteOffset":2432,"byteLength":4},{"buffer":0,"byteOffset":2436,"byteLength":12},{"buffer":0,"byteOffset":2448,"byteLength":4},{"buffer":0,"byteOffset":2452,"byteLength":12},{"buffer":0,"byteOffset":2464,"byteLength":16},{"buffer":0,"byteOffset":2480,"byteLength":48}],"buffers":[{"byteLength":2528,"uri":"data:application/octet-stream;base64,"}],"accessors":[{"bufferView":0,"componentType":5126,"count":66,"max":[4.25],"min":[0],"type":"SCALAR"},{"bufferView":1,"componentType":5126,"count":66,"max":[0.43448179960250854,0.3585001230239868,0.5183635950088501,1],"min":[-0.00338783860206604,-0.21948455274105072,-0.4963613748550415,0.7083320617675781],"type":"VEC4"},{"bufferView":2,"componentType":5126,"count":65,"max":[4.199999809265137],"min":[0],"type":"SCALAR"},{"bufferView":3,"componentType":5126,"count":65,"max":[0.5,0.4456250071525574,1.061670184135437],"min":[0.21875,0.10625000298023224,0.875],"type":"VEC3"},{"bufferView":4,"componentType":5126,"count":1,"max":[0],"min":[0],"type":"SCALAR"},{"bufferView":5,"componentType":5126,"count":1,"max":[-4.6906692768028125e-17,-0.7660444378852844,0.6427876353263855,3.9359390979975894e-17],"min":[-4.6906692768028125e-17,-0.7660444378852844,0.6427876353263855,3.9359390979975894e-17],"type":"VEC4"},{"bufferView":6,"componentType":5126,"count":1,"max":[0],"min":[0],"type":"SCALAR"},{"bufferView":7,"componentType":5126,"count":1,"max":[0,0.04374999925494194,-0.08749999850988388],"min":[0,0.04374999925494194,-0.08749999850988388],"type":"VEC3"},{"bufferView":8,"componentType":5126,"count":1,"max":[0],"min":[0],"type":"SCALAR"},{"bufferView":9,"componentType":5126,"count":1,"max":[1.75,2,1.75],"min":[1.75,2,1.75],"type":"VEC3"},{"bufferView":10,"componentType":5126,"count":1,"max":[0],"min":[0],"type":"SCALAR"},{"bufferView":11,"componentType":5126,"count":1,"max":[0.025792565196752548,0.518279492855072,-0.8540982007980347,-0.03517661988735199],"min":[0.025792565196752548,0.518279492855072,-0.8540982007980347,-0.03517661988735199],"type":"VEC4"},{"bufferView":12,"componentType":5126,"count":1,"max":[0],"min":[0],"type":"SCALAR"},{"bufferView":13,"componentType":5126,"count":1,"max":[-0.4375,-1.9375,0.5],"min":[-0.4375,-1.9375,0.5],"type":"VEC3"},{"bufferView":14,"componentType":5126,"count":1,"max":[0],"min":[0],"type":"SCALAR"},{"bufferView":15,"componentType":5126,"count":1,"max":[1.75,2,1.75],"min":[1.75,2,1.75],"type":"VEC3"},{"bufferView":16,"componentType":5126,"count":4,"max":[2.75],"min":[0.20000000298023224],"type":"SCALAR"},{"bufferView":17,"componentType":5126,"count":4,"max":[0,0,0],"min":[-0.20624999701976776,0,0],"type":"VEC3"}]}