{"asset":{"version":"2.0","generator":"Blockbench 4.2.4 glTF exporter"},"scenes":[{"nodes":[8],"name":"blockbench_export"}],"scene":0,"nodes":[{"translation":[-0.375,-0.6875,0],"name":"LeftHand"},{"translation":[0.375,0.875,-0.5],"name":"l","children":[0]},{"translation":[0.375,-0.6875,0],"name":"RightHand"},{"translation":[-0.375,0.875,-0.5],"name":"r","children":[2]},{"translation":[0,-0.264173125,0.12600187500000004],"name":"magazine"},{"translation":[0,-1.2641731250000001,1.251001875],"name":"magazine2"},{"translation":[0,0.1875,-0.5],"name":"group2","children":[4,5]},{"translation":[0.5,0.3125,1],"name":"bone","children":[1,3,6]},{"children":[7]}],"animations":[{"name":"inspect","samplers":[{"input":0,"output":1,"interpolation":"LINEAR"},{"input":2,"output":3,"interpolation":"LINEAR"},{"input":4,"output":5,"interpolation":"LINEAR"},{"input":6,"output":7,"interpolation":"LINEAR"},{"input":8,"output":9,"interpolation":"LINEAR"},{"input":10,"output":11,"interpolation":"LINEAR"},{"input":12,"output":13,"interpolation":"LINEAR"},{"input":14,"output":15,"interpolation":"LINEAR"}],"channels":[{"sampler":0,"target":{"node":7,"path":"rotation"}},{"sampler":1,"target":{"node":7,"path":"translation"}},{"sampler":2,"target":{"node":1,"path":"rotation"}},{"sampler":3,"target":{"node":1,"path":"translation"}},{"sampler":4,"target":{"node":1,"path":"scale"}},{"sampler":5,"target":{"node":3,"path":"rotation"}},{"sampler":6,"target":{"node":3,"path":"translation"}},{"sampler":7,"target":{"node":3,"path":"scale"}}]}],"bufferViews":[{"buffer":0,"byteOffset":0,"byteLength":260},{"buffer":0,"byteOffset":260,"byteLength":1040},{"buffer":0,"byteOffset":1300,"byteLength":260},{"buffer":0,"byteOffset":1560,"byteLength":780},{"buffer":0,"byteOffset":2340,"byteLength":248},{"buffer":0,"byteOffset":2588,"byteLength":992},{"buffer":0,"byteOffset":3580,"byteLength":240},{"buffer":0,"byteOffset":3820,"byteLength":720},{"buffer":0,"byteOffset":4540,"byteLength":4},{"buffer":0,"byteOffset":4544,"byteLength":12},{"buffer":0,"byteOffset":4556,"byteLength":4},{"buffer":0,"byteOffset":4560,"byteLength":16},{"buffer":0,"byteOffset":4576,"byteLength":4},{"buffer":0,"byteOffset":4580,"byteLength":12},{"buffer":0,"byteOffset":4592,"byteLength":4},{"buffer":0,"byteOffset":4596,"byteLength":12}],"buffers":[{"byteLength":4608,"uri":"data:application/octet-stream;base64,"}],"accessors":[{"bufferView":0,"componentType":5126,"count":65,"max":[4.25],"min":[0],"type":"SCALAR"},{"bufferView":1,"componentType":5126,"count":65,"max":[0.3914147913455963,0.20764629542827606,0.6445014476776123,1],"min":[-0.032299939543008804,-0.020582910627126694,-0.36903294920921326,0.7169186472892761],"type":"VEC4"},{"bufferView":2,"componentType":5126,"count":65,"max":[4.199999809265137],"min":[0],"type":"SCALAR"},{"bufferView":3,"componentType":5126,"count":65,"max":[0.611132800579071,0.44437500834465027,1.0125000476837158],"min":[0.4749999940395355,0.23749999701976776,0.625],"type":"VEC3"},{"bufferView":4,"componentType":5126,"count":62,"max":[3.6500000953674316],"min":[0],"type":"SCALAR"},{"bufferView":5,"componentType":5126,"count":62,"max":[0.4883173406124115,-0.19376926124095917,0.7812437415122986,-0.3944079279899597],"min":[0.13940423727035522,-0.6718319058418274,0.47055965662002563,-0.6182827949523926],"type":"VEC4"},{"bufferView":6,"componentType":5126,"count":60,"max":[3.6500000953674316],"min":[0],"type":"SCALAR"},{"bufferView":7,"componentType":5126,"count":60,"max":[0.26361653208732605,0.21741963922977448,0.7329782843589783],"min":[-1.138950228691101,-2.059271812438965,-0.8762444257736206],"type":"VEC3"},{"bufferView":8,"componentType":5126,"count":1,"max":[0],"min":[0],"type":"SCALAR"},{"bufferView":9,"componentType":5126,"count":1,"max":[1,1.5,1],"min":[1,1.5,1],"type":"VEC3"},{"bufferView":10,"componentType":5126,"count":1,"max":[0],"min":[0],"type":"SCALAR"},{"bufferView":11,"componentType":5126,"count":1,"max":[-4.6906692768028125e-17,-0.7660444378852844,0.6427876353263855,3.9359390979975894e-17],"min":[-4.6906692768028125e-17,-0.7660444378852844,0.6427876353263855,3.9359390979975894e-17],"type":"VEC4"},{"bufferView":12,"componentType":5126,"count":1,"max":[0],"min":[0],"type":"SCALAR"},{"bufferView":13,"componentType":5126,"count":1,"max":[0,-0.02500000037252903,-0.0625],"min":[0,-0.02500000037252903,-0.0625],"type":"VEC3"},{"bufferView":14,"componentType":5126,"count":1,"max":[0],"min":[0],"type":"SCALAR"},{"bufferView":15,"componentType":5126,"count":1,"max":[1,1.5,1],"min":[1,1.5,1],"type":"VEC3"}]}