{"asset":{"version":"2.0","generator":"Blockbench 4.2.4 glTF exporter"},"scenes":[{"nodes":[8],"name":"blockbench_export"}],"scene":0,"nodes":[{"translation":[-0.375,-0.6875,0],"name":"LeftHand"},{"translation":[0.375,0.875,-0.5],"name":"l","children":[0]},{"translation":[0.375,-0.6875,0],"name":"RightHand"},{"translation":[-0.375,0.875,-0.5],"name":"r","children":[2]},{"translation":[0,-0.264173125,0.12600187500000004],"name":"magazine"},{"translation":[0,-1.2641731250000001,1.251001875],"name":"magazine2"},{"translation":[0,0.1875,-0.5],"name":"group2","children":[4,5]},{"translation":[0.5,0.3125,1],"name":"bone","children":[1,3,6]},{"children":[7]}],"animations":[{"name":"reload_norm","samplers":[{"input":0,"output":1,"interpolation":"LINEAR"},{"input":2,"output":3,"interpolation":"LINEAR"},{"input":4,"output":5,"interpolation":"LINEAR"},{"input":6,"output":7,"interpolation":"LINEAR"},{"input":8,"output":9,"interpolation":"LINEAR"},{"input":10,"output":11,"interpolation":"LINEAR"},{"input":12,"output":13,"interpolation":"LINEAR"},{"input":14,"output":15,"interpolation":"LINEAR"},{"input":16,"output":17,"interpolation":"LINEAR"},{"input":18,"output":19,"interpolation":"LINEAR"},{"input":20,"output":21,"interpolation":"LINEAR"},{"input":22,"output":23,"interpolation":"LINEAR"}],"channels":[{"sampler":0,"target":{"node":7,"path":"rotation"}},{"sampler":1,"target":{"node":7,"path":"translation"}},{"sampler":2,"target":{"node":1,"path":"rotation"}},{"sampler":3,"target":{"node":1,"path":"translation"}},{"sampler":4,"target":{"node":1,"path":"scale"}},{"sampler":5,"target":{"node":3,"path":"rotation"}},{"sampler":6,"target":{"node":3,"path":"translation"}},{"sampler":7,"target":{"node":3,"path":"scale"}},{"sampler":8,"target":{"node":4,"path":"rotation"}},{"sampler":9,"target":{"node":4,"path":"translation"}},{"sampler":10,"target":{"node":5,"path":"rotation"}},{"sampler":11,"target":{"node":5,"path":"translation"}}]}],"bufferViews":[{"buffer":0,"byteOffset":0,"byteLength":176},{"buffer":0,"byteOffset":176,"byteLength":704},{"buffer":0,"byteOffset":880,"byteLength":180},{"buffer":0,"byteOffset":1060,"byteLength":540},{"buffer":0,"byteOffset":1600,"byteLength":148},{"buffer":0,"byteOffset":1748,"byteLength":592},{"buffer":0,"byteOffset":2340,"byteLength":144},{"buffer":0,"byteOffset":2484,"byteLength":432},{"buffer":0,"byteOffset":2916,"byteLength":4},{"buffer":0,"byteOffset":2920,"byteLength":12},{"buffer":0,"byteOffset":2932,"byteLength":4},{"buffer":0,"byteOffset":2936,"byteLength":16},{"buffer":0,"byteOffset":2952,"byteLength":4},{"buffer":0,"byteOffset":2956,"byteLength":12},{"buffer":0,"byteOffset":2968,"byteLength":4},{"buffer":0,"byteOffset":2972,"byteLength":12},{"buffer":0,"byteOffset":2984,"byteLength":128},{"buffer":0,"byteOffset":3112,"byteLength":512},{"buffer":0,"byteOffset":3624,"byteLength":120},{"buffer":0,"byteOffset":3744,"byteLength":360},{"buffer":0,"byteOffset":4104,"byteLength":96},{"buffer":0,"byteOffset":4200,"byteLength":384},{"buffer":0,"byteOffset":4584,"byteLength":96},{"buffer":0,"byteOffset":4680,"byteLength":288}],"buffers":[{"byteLength":4968,"uri":"data:application/octet-stream;base64,"}],"accessors":[{"bufferView":0,"componentType":5126,"count":44,"max":[2.75],"min":[0],"type":"SCALAR"},{"bufferView":1,"componentType":5126,"count":44,"max":[0.15274564921855927,0.12442444264888763,0.05262577906250954,1],"min":[-0.017601359635591507,-0.0056578051298856735,-0.3755215108394623,0.9075669646263123],"type":"VEC4"},{"bufferView":2,"componentType":5126,"count":45,"max":[2.700000047683716],"min":[0],"type":"SCALAR"},{"bufferView":3,"componentType":5126,"count":45,"max":[0.5009375214576721,0.36625000834465027,1.03125],"min":[0.44999998807907104,0.2668749988079071,0.8199999928474426],"type":"VEC3"},{"bufferView":4,"componentType":5126,"count":37,"max":[2.299999952316284],"min":[0],"type":"SCALAR"},{"bufferView":5,"componentType":5126,"count":37,"max":[0.26996779441833496,-0.13110779225826263,0.6967169046401978,0.17966526746749878],"min":[-0.7440513968467712,-0.8635972738265991,0.45838505029678345,-0.43721041083335876],"type":"VEC4"},{"bufferView":6,"componentType":5126,"count":36,"max":[2.299999952316284],"min":[0],"type":"SCALAR"},{"bufferView":7,"componentType":5126,"count":36,"max":[0.014999999664723873,0.20829154551029205,-0.08920898288488388],"min":[-0.6889955997467041,-1.7062499523162842,-0.8874239325523376],"type":"VEC3"},{"bufferView":8,"componentType":5126,"count":1,"max":[0.05000000074505806],"min":[0.05000000074505806],"type":"SCALAR"},{"bufferView":9,"componentType":5126,"count":1,"max":[1,1.5,1],"min":[1,1.5,1],"type":"VEC3"},{"bufferView":10,"componentType":5126,"count":1,"max":[0],"min":[0],"type":"SCALAR"},{"bufferView":11,"componentType":5126,"count":1,"max":[-4.6906692768028125e-17,-0.7660444378852844,0.6427876353263855,3.9359390979975894e-17],"min":[-4.6906692768028125e-17,-0.7660444378852844,0.6427876353263855,3.9359390979975894e-17],"type":"VEC4"},{"bufferView":12,"componentType":5126,"count":1,"max":[0],"min":[0],"type":"SCALAR"},{"bufferView":13,"componentType":5126,"count":1,"max":[0,-0.02500000037252903,-0.0625],"min":[0,-0.02500000037252903,-0.0625],"type":"VEC3"},{"bufferView":14,"componentType":5126,"count":1,"max":[0],"min":[0],"type":"SCALAR"},{"bufferView":15,"componentType":5126,"count":1,"max":[1,1.5,1],"min":[1,1.5,1],"type":"VEC3"},{"bufferView":16,"componentType":5126,"count":32,"max":[2.75],"min":[0],"type":"SCALAR"},{"bufferView":17,"componentType":5126,"count":32,"max":[0.05815940722823143,0.020559128373861313,0,1],"min":[-0.2327762097120285,-0.5091243386268616,-0.36768922209739685,0.7734665870666504],"type":"VEC4"},{"bufferView":18,"componentType":5126,"count":30,"max":[2.75],"min":[0],"type":"SCALAR"},{"bufferView":19,"componentType":5126,"count":30,"max":[0.07740538567304611,-0.26417312026023865,1.1560019254684448],"min":[-0.5450234413146973,-1.41593599319458,0.018458954989910126],"type":"VEC3"},{"bufferView":20,"componentType":5126,"count":24,"max":[1.4500000476837158],"min":[0],"type":"SCALAR"},{"bufferView":21,"componentType":5126,"count":24,"max":[0.17184312641620636,0.017961526289582253,0.17740334570407867,1],"min":[-0.21954847872257233,-0.3854500651359558,-0.4647727608680725,0.766298234462738],"type":"VEC4"},{"bufferView":22,"componentType":5126,"count":24,"max":[1.4500000476837158],"min":[0],"type":"SCALAR"},{"bufferView":23,"componentType":5126,"count":24,"max":[0.0635911077260971,-0.2454231232404709,1.2510018348693848],"min":[-0.11256377398967743,-1.264173150062561,0.08287687599658966],"type":"VEC3"}]}