{"asset":{"version":"2.0","generator":"Blockbench 4.2.4 glTF exporter"},"scenes":[{"nodes":[8],"name":"blockbench_export"}],"scene":0,"nodes":[{"translation":[-0.375,-0.6875,0],"name":"LeftHand"},{"translation":[0.375,0.875,-0.5],"name":"l","children":[0]},{"translation":[0.375,-0.6875,0],"name":"RightHand"},{"translation":[-0.375,0.875,-0.5],"name":"r","children":[2]},{"translation":[0,-0.264173125,0.12600187500000004],"name":"magazine"},{"translation":[0,-1.2641731250000001,1.251001875],"name":"magazine2"},{"translation":[0,0.1875,-0.5],"name":"group2","children":[4,5]},{"translation":[0.5,0.3125,1],"name":"bone","children":[1,3,6]},{"children":[7]}],"animations":[{"name":"draw","samplers":[{"input":0,"output":1,"interpolation":"LINEAR"},{"input":2,"output":3,"interpolation":"LINEAR"},{"input":4,"output":5,"interpolation":"LINEAR"},{"input":6,"output":7,"interpolation":"LINEAR"},{"input":8,"output":9,"interpolation":"LINEAR"},{"input":10,"output":11,"interpolation":"LINEAR"},{"input":12,"output":13,"interpolation":"LINEAR"},{"input":14,"output":15,"interpolation":"LINEAR"}],"channels":[{"sampler":0,"target":{"node":7,"path":"rotation"}},{"sampler":1,"target":{"node":7,"path":"translation"}},{"sampler":2,"target":{"node":1,"path":"rotation"}},{"sampler":3,"target":{"node":1,"path":"translation"}},{"sampler":4,"target":{"node":1,"path":"scale"}},{"sampler":5,"target":{"node":3,"path":"rotation"}},{"sampler":6,"target":{"node":3,"path":"translation"}},{"sampler":7,"target":{"node":3,"path":"scale"}}]}],"bufferViews":[{"buffer":0,"byteOffset":0,"byteLength":64},{"buffer":0,"byteOffset":64,"byteLength":256},{"buffer":0,"byteOffset":320,"byteLength":56},{"buffer":0,"byteOffset":376,"byteLength":168},{"buffer":0,"byteOffset":544,"byteLength":40},{"buffer":0,"byteOffset":584,"byteLength":160},{"buffer":0,"byteOffset":744,"byteLength":40},{"buffer":0,"byteOffset":784,"byteLength":120},{"buffer":0,"byteOffset":904,"byteLength":8},{"buffer":0,"byteOffset":912,"byteLength":24},{"buffer":0,"byteOffset":936,"byteLength":8},{"buffer":0,"byteOffset":944,"byteLength":32},{"buffer":0,"byteOffset":976,"byteLength":8},{"buffer":0,"byteOffset":984,"byteLength":24},{"buffer":0,"byteOffset":1008,"byteLength":8},{"buffer":0,"byteOffset":1016,"byteLength":24}],"buffers":[{"byteLength":1040,"uri":"data:application/octet-stream;base64,"}],"accessors":[{"bufferView":0,"componentType":5126,"count":16,"max":[0.8666666746139526],"min":[0],"type":"SCALAR"},{"bufferView":1,"componentType":5126,"count":16,"max":[0.001111530466005206,0.1698095202445984,0.21740905940532684,1],"min":[-0.1300014853477478,-0.0033760215155780315,-0.017452405765652657,0.9549602270126343],"type":"VEC4"},{"bufferView":2,"componentType":5126,"count":14,"max":[0.8166666626930237],"min":[0],"type":"SCALAR"},{"bufferView":3,"componentType":5126,"count":14,"max":[0.5023437738418579,0.3140625059604645,1.100000023841858],"min":[0.4124999940395355,-0.15625,0.893750011920929],"type":"VEC3"},{"bufferView":4,"componentType":5126,"count":10,"max":[0.5583333373069763],"min":[0],"type":"SCALAR"},{"bufferView":5,"componentType":5126,"count":10,"max":[0.2004510462284088,-0.6651466488838196,0.5963661670684814,-0.3944079279899597],"min":[0.19347277283668518,-0.6718319058418274,0.578147828578949,-0.42795372009277344],"type":"VEC4"},{"bufferView":6,"componentType":5126,"count":10,"max":[0.5583333373069763],"min":[0],"type":"SCALAR"},{"bufferView":7,"componentType":5126,"count":10,"max":[-0.10115740448236465,0.1622685194015503,-0.8374999761581421],"min":[-0.38580554723739624,-0.13736110925674438,-0.8374999761581421],"type":"VEC3"},{"bufferView":8,"componentType":5126,"count":2,"max":[0.008333333767950535],"min":[0],"type":"SCALAR"},{"bufferView":9,"componentType":5126,"count":2,"max":[1,1.5,1],"min":[1,1.5,1],"type":"VEC3"},{"bufferView":10,"componentType":5126,"count":2,"max":[0.008333333767950535],"min":[0],"type":"SCALAR"},{"bufferView":11,"componentType":5126,"count":2,"max":[-4.6906692768028125e-17,-0.7660444378852844,0.6427876353263855,3.9359390979975894e-17],"min":[-4.6906692768028125e-17,-0.7660444378852844,0.6427876353263855,3.9359390979975894e-17],"type":"VEC4"},{"bufferView":12,"componentType":5126,"count":2,"max":[0.008333333767950535],"min":[0],"type":"SCALAR"},{"bufferView":13,"componentType":5126,"count":2,"max":[0,-0.02500000037252903,-0.0625],"min":[0,-0.02500000037252903,-0.0625],"type":"VEC3"},{"bufferView":14,"componentType":5126,"count":2,"max":[0.008333333767950535],"min":[0],"type":"SCALAR"},{"bufferView":15,"componentType":5126,"count":2,"max":[1,1.5,1],"min":[1,1.5,1],"type":"VEC3"}]}