{"asset":{"version":"2.0","generator":"Blockbench 4.2.4 glTF exporter"},"scenes":[{"nodes":[9],"name":"blockbench_export"}],"scene":0,"nodes":[{"translation":[0,-0.095864375,-0.43891],"name":"magazine"},{"translation":[-0.0004224999999999923,0.305705,-0.71875],"name":"bolthandle"},{"name":"mp5","children":[0,1]},{"translation":[0.375,-0.6875,0],"name":"RightHand"},{"translation":[-0.375,0.75,-0.4375],"name":"R","children":[3]},{"name":"bone3","children":[2,4]},{"translation":[-0.375,-0.6875,0],"name":"LeftHand"},{"translation":[0.375,0.75,-0.4375],"name":"l","children":[6]},{"translation":[0.5,0.4375,0.9375],"name":"bone2","children":[5,7]},{"children":[8]}],"animations":[{"name":"reload_empty","samplers":[{"input":0,"output":1,"interpolation":"LINEAR"},{"input":2,"output":3,"interpolation":"LINEAR"},{"input":4,"output":5,"interpolation":"LINEAR"},{"input":6,"output":7,"interpolation":"LINEAR"},{"input":8,"output":9,"interpolation":"LINEAR"},{"input":10,"output":11,"interpolation":"LINEAR"},{"input":12,"output":13,"interpolation":"LINEAR"},{"input":14,"output":15,"interpolation":"LINEAR"},{"input":16,"output":17,"interpolation":"LINEAR"},{"input":18,"output":19,"interpolation":"LINEAR"},{"input":20,"output":21,"interpolation":"LINEAR"},{"input":22,"output":23,"interpolation":"LINEAR"}],"channels":[{"sampler":0,"target":{"node":4,"path":"rotation"}},{"sampler":1,"target":{"node":4,"path":"translation"}},{"sampler":2,"target":{"node":4,"path":"scale"}},{"sampler":3,"target":{"node":7,"path":"rotation"}},{"sampler":4,"target":{"node":7,"path":"translation"}},{"sampler":5,"target":{"node":7,"path":"scale"}},{"sampler":6,"target":{"node":8,"path":"rotation"}},{"sampler":7,"target":{"node":8,"path":"translation"}},{"sampler":8,"target":{"node":1,"path":"rotation"}},{"sampler":9,"target":{"node":1,"path":"translation"}},{"sampler":10,"target":{"node":0,"path":"rotation"}},{"sampler":11,"target":{"node":0,"path":"translation"}}]}],"bufferViews":[{"buffer":0,"byteOffset":0,"byteLength":4},{"buffer":0,"byteOffset":4,"byteLength":16},{"buffer":0,"byteOffset":20,"byteLength":4},{"buffer":0,"byteOffset":24,"byteLength":12},{"buffer":0,"byteOffset":36,"byteLength":4},{"buffer":0,"byteOffset":40,"byteLength":12},{"buffer":0,"byteOffset":52,"byteLength":180},{"buffer":0,"byteOffset":232,"byteLength":720},{"buffer":0,"byteOffset":952,"byteLength":180},{"buffer":0,"byteOffset":1132,"byteLength":540},{"buffer":0,"byteOffset":1672,"byteLength":4},{"buffer":0,"byteOffset":1676,"byteLength":12},{"buffer":0,"byteOffset":1688,"byteLength":220},{"buffer":0,"byteOffset":1908,"byteLength":880},{"buffer":0,"byteOffset":2788,"byteLength":200},{"buffer":0,"byteOffset":2988,"byteLength":600},{"buffer":0,"byteOffset":3588,"byteLength":16},{"buffer":0,"byteOffset":3604,"byteLength":64},{"buffer":0,"byteOffset":3668,"byteLength":20},{"buffer":0,"byteOffset":3688,"byteLength":60},{"buffer":0,"byteOffset":3748,"byteLength":88},{"buffer":0,"byteOffset":3836,"byteLength":352},{"buffer":0,"byteOffset":4188,"byteLength":96},{"buffer":0,"byteOffset":4284,"byteLength":288}],"buffers":[{"byteLength":4572,"uri":"data:application/octet-stream;base64,"}],"accessors":[{"bufferView":0,"componentType":5126,"count":1,"max":[0],"min":[0],"type":"SCALAR"},{"bufferView":1,"componentType":5126,"count":1,"max":[-4.6036909045206166e-17,-0.751839816570282,0.659345805644989,4.037328610911684e-17],"min":[-4.6036909045206166e-17,-0.751839816570282,0.659345805644989,4.037328610911684e-17],"type":"VEC4"},{"bufferView":2,"componentType":5126,"count":1,"max":[0],"min":[0],"type":"SCALAR"},{"bufferView":3,"componentType":5126,"count":1,"max":[0.012500000186264515,-0.0625,-0.0625],"min":[0.012500000186264515,-0.0625,-0.0625],"type":"VEC3"},{"bufferView":4,"componentType":5126,"count":1,"max":[0],"min":[0],"type":"SCALAR"},{"bufferView":5,"componentType":5126,"count":1,"max":[1,1.5,1],"min":[1,1.5,1],"type":"VEC3"},{"bufferView":6,"componentType":5126,"count":45,"max":[2.9000000953674316],"min":[0],"type":"SCALAR"},{"bufferView":7,"componentType":5126,"count":45,"max":[0.14694859087467194,-0.4697643220424652,0.7330360412597656,0.5778889060020447],"min":[-0.4996437728404999,-0.947878897190094,0.23775221407413483,-0.5706581473350525],"type":"VEC4"},{"bufferView":8,"componentType":5126,"count":45,"max":[2.9000000953674316],"min":[0],"type":"SCALAR"},{"bufferView":9,"componentType":5126,"count":45,"max":[-0.07833375036716461,0.8195010423660278,0.3775162696838379],"min":[-0.5916374921798706,-1.164251446723938,-1.031772494316101],"type":"VEC3"},{"bufferView":10,"componentType":5126,"count":1,"max":[0],"min":[0],"type":"SCALAR"},{"bufferView":11,"componentType":5126,"count":1,"max":[1,1.5,1],"min":[1,1.5,1],"type":"VEC3"},{"bufferView":12,"componentType":5126,"count":55,"max":[3.4000000953674316],"min":[0],"type":"SCALAR"},{"bufferView":13,"componentType":5126,"count":55,"max":[0.23164865374565125,0.06400471925735474,0.11460818350315094,1],"min":[-0.041837096214294434,-0.000559022359084338,-0.40316087007522583,0.8873273730278015],"type":"VEC4"},{"bufferView":14,"componentType":5126,"count":50,"max":[3.25],"min":[0],"type":"SCALAR"},{"bufferView":15,"componentType":5126,"count":50,"max":[0.5224999785423279,0.5350000262260437,0.987500011920929],"min":[0.47062501311302185,0.29499998688697815,0.7462499737739563],"type":"VEC3"},{"bufferView":16,"componentType":5126,"count":4,"max":[2.6500000953674316],"min":[0.25],"type":"SCALAR"},{"bufferView":17,"componentType":5126,"count":4,"max":[0,0,0,1],"min":[0,0,-0.3214394748210907,0.9469301104545593],"type":"VEC4"},{"bufferView":18,"componentType":5126,"count":5,"max":[2.6500000953674316],"min":[0.15000000596046448],"type":"SCALAR"},{"bufferView":19,"componentType":5126,"count":5,"max":[-0.00042249998659826815,0.3057050108909607,-0.53125],"min":[-0.00042249998659826815,0.2994549870491028,-0.71875],"type":"VEC3"},{"bufferView":20,"componentType":5126,"count":22,"max":[2.049999952316284],"min":[0],"type":"SCALAR"},{"bufferView":21,"componentType":5126,"count":22,"max":[0.11320321261882782,0.07302109897136688,0,1],"min":[-0.1670149564743042,-0.10875944048166275,-0.9835801124572754,-0.8277309536933899],"type":"VEC4"},{"bufferView":22,"componentType":5126,"count":24,"max":[2.049999952316284],"min":[0],"type":"SCALAR"},{"bufferView":23,"componentType":5126,"count":24,"max":[0,-0.09586437791585922,0.1045011654496193],"min":[-0.9603363871574402,-1.8296233415603638,-0.5014100074768066],"type":"VEC3"}]}