{"asset":{"version":"2.0","generator":"Blockbench 4.2.4 glTF exporter"},"scenes":[{"nodes":[9],"name":"blockbench_export"}],"scene":0,"nodes":[{"translation":[0,-0.095864375,-0.43891],"name":"magazine"},{"translation":[-0.0004224999999999923,0.305705,-0.71875],"name":"bolthandle"},{"name":"mp5","children":[0,1]},{"translation":[0.375,-0.6875,0],"name":"RightHand"},{"translation":[-0.375,0.75,-0.4375],"name":"R","children":[3]},{"name":"bone3","children":[2,4]},{"translation":[-0.375,-0.6875,0],"name":"LeftHand"},{"translation":[0.375,0.75,-0.4375],"name":"l","children":[6]},{"translation":[0.5,0.4375,0.9375],"name":"bone2","children":[5,7]},{"children":[8]}],"animations":[{"name":"inspect","samplers":[{"input":0,"output":1,"interpolation":"LINEAR"},{"input":2,"output":3,"interpolation":"LINEAR"},{"input":4,"output":5,"interpolation":"LINEAR"},{"input":6,"output":7,"interpolation":"LINEAR"},{"input":8,"output":9,"interpolation":"LINEAR"},{"input":10,"output":11,"interpolation":"LINEAR"},{"input":12,"output":13,"interpolation":"LINEAR"},{"input":14,"output":15,"interpolation":"LINEAR"}],"channels":[{"sampler":0,"target":{"node":4,"path":"rotation"}},{"sampler":1,"target":{"node":4,"path":"translation"}},{"sampler":2,"target":{"node":4,"path":"scale"}},{"sampler":3,"target":{"node":7,"path":"rotation"}},{"sampler":4,"target":{"node":7,"path":"translation"}},{"sampler":5,"target":{"node":7,"path":"scale"}},{"sampler":6,"target":{"node":8,"path":"rotation"}},{"sampler":7,"target":{"node":8,"path":"translation"}}]}],"bufferViews":[{"buffer":0,"byteOffset":0,"byteLength":4},{"buffer":0,"byteOffset":4,"byteLength":16},{"buffer":0,"byteOffset":20,"byteLength":4},{"buffer":0,"byteOffset":24,"byteLength":12},{"buffer":0,"byteOffset":36,"byteLength":4},{"buffer":0,"byteOffset":40,"byteLength":12},{"buffer":0,"byteOffset":52,"byteLength":204},{"buffer":0,"byteOffset":256,"byteLength":816},{"buffer":0,"byteOffset":1072,"byteLength":208},{"buffer":0,"byteOffset":1280,"byteLength":624},{"buffer":0,"byteOffset":1904,"byteLength":4},{"buffer":0,"byteOffset":1908,"byteLength":12},{"buffer":0,"byteOffset":1920,"byteLength":340},{"buffer":0,"byteOffset":2260,"byteLength":1360},{"buffer":0,"byteOffset":3620,"byteLength":344},{"buffer":0,"byteOffset":3964,"byteLength":1032}],"buffers":[{"byteLength":4996,"uri":"data:application/octet-stream;base64,"}],"accessors":[{"bufferView":0,"componentType":5126,"count":1,"max":[0],"min":[0],"type":"SCALAR"},{"bufferView":1,"componentType":5126,"count":1,"max":[-4.6036909045206166e-17,-0.751839816570282,0.659345805644989,4.037328610911684e-17],"min":[-4.6036909045206166e-17,-0.751839816570282,0.659345805644989,4.037328610911684e-17],"type":"VEC4"},{"bufferView":2,"componentType":5126,"count":1,"max":[0],"min":[0],"type":"SCALAR"},{"bufferView":3,"componentType":5126,"count":1,"max":[0.012500000186264515,-0.0625,-0.0625],"min":[0.012500000186264515,-0.0625,-0.0625],"type":"VEC3"},{"bufferView":4,"componentType":5126,"count":1,"max":[0],"min":[0],"type":"SCALAR"},{"bufferView":5,"componentType":5126,"count":1,"max":[1,1.5,1],"min":[1,1.5,1],"type":"VEC3"},{"bufferView":6,"componentType":5126,"count":51,"max":[4.949999809265137],"min":[0],"type":"SCALAR"},{"bufferView":7,"componentType":5126,"count":51,"max":[0.4526727795600891,-0.5484323501586914,0.7800421714782715,-0.2915814220905304],"min":[-0.07573908567428589,-0.6805565357208252,0.2926257252693176,-0.6297789812088013],"type":"VEC4"},{"bufferView":8,"componentType":5126,"count":52,"max":[4.949999809265137],"min":[0],"type":"SCALAR"},{"bufferView":9,"componentType":5126,"count":52,"max":[-0.0436190702021122,0.25896313786506653,0.3573525547981262],"min":[-0.7068413496017456,-1.3705236911773682,-0.6917709708213806],"type":"VEC3"},{"bufferView":10,"componentType":5126,"count":1,"max":[0],"min":[0],"type":"SCALAR"},{"bufferView":11,"componentType":5126,"count":1,"max":[1,1.5,1],"min":[1,1.5,1],"type":"VEC3"},{"bufferView":12,"componentType":5126,"count":85,"max":[5.349999904632568],"min":[0],"type":"SCALAR"},{"bufferView":13,"componentType":5126,"count":85,"max":[0.30594030022621155,0.17196586728096008,0.625683069229126,1],"min":[-0.05780317261815071,0,-0.40877917408943176,0.7341259121894836],"type":"VEC4"},{"bufferView":14,"componentType":5126,"count":86,"max":[5.300000190734863],"min":[0],"type":"SCALAR"},{"bufferView":15,"componentType":5126,"count":86,"max":[0.5,0.550000011920929,0.96875],"min":[0.25849372148513794,0.34562501311302185,0.7650617361068726],"type":"VEC3"}]}