{"asset":{"version":"2.0","generator":"Blockbench 4.2.4 glTF exporter"},"scenes":[{"nodes":[9],"name":"blockbench_export"}],"scene":0,"nodes":[{"translation":[0,-0.095864375,-0.43891],"name":"magazine"},{"translation":[-0.0004224999999999923,0.305705,-0.71875],"name":"bolthandle"},{"name":"mp5","children":[0,1]},{"translation":[0.375,-0.6875,0],"name":"RightHand"},{"translation":[-0.375,0.75,-0.4375],"name":"R","children":[3]},{"name":"bone3","children":[2,4]},{"translation":[-0.375,-0.6875,0],"name":"LeftHand"},{"translation":[0.375,0.75,-0.4375],"name":"l","children":[6]},{"translation":[0.5,0.4375,0.9375],"name":"bone2","children":[5,7]},{"children":[8]}],"animations":[{"name":"reload_norm","samplers":[{"input":0,"output":1,"interpolation":"LINEAR"},{"input":2,"output":3,"interpolation":"LINEAR"},{"input":4,"output":5,"interpolation":"LINEAR"},{"input":6,"output":7,"interpolation":"LINEAR"},{"input":8,"output":9,"interpolation":"LINEAR"},{"input":10,"output":11,"interpolation":"LINEAR"},{"input":12,"output":13,"interpolation":"LINEAR"},{"input":14,"output":15,"interpolation":"LINEAR"},{"input":16,"output":17,"interpolation":"LINEAR"},{"input":18,"output":19,"interpolation":"LINEAR"}],"channels":[{"sampler":0,"target":{"node":4,"path":"rotation"}},{"sampler":1,"target":{"node":4,"path":"translation"}},{"sampler":2,"target":{"node":4,"path":"scale"}},{"sampler":3,"target":{"node":7,"path":"rotation"}},{"sampler":4,"target":{"node":7,"path":"translation"}},{"sampler":5,"target":{"node":7,"path":"scale"}},{"sampler":6,"target":{"node":8,"path":"rotation"}},{"sampler":7,"target":{"node":8,"path":"translation"}},{"sampler":8,"target":{"node":0,"path":"rotation"}},{"sampler":9,"target":{"node":0,"path":"translation"}}]}],"bufferViews":[{"buffer":0,"byteOffset":0,"byteLength":4},{"buffer":0,"byteOffset":4,"byteLength":16},{"buffer":0,"byteOffset":20,"byteLength":4},{"buffer":0,"byteOffset":24,"byteLength":12},{"buffer":0,"byteOffset":36,"byteLength":4},{"buffer":0,"byteOffset":40,"byteLength":12},{"buffer":0,"byteOffset":52,"byteLength":144},{"buffer":0,"byteOffset":196,"byteLength":576},{"buffer":0,"byteOffset":772,"byteLength":144},{"buffer":0,"byteOffset":916,"byteLength":432},{"buffer":0,"byteOffset":1348,"byteLength":4},{"buffer":0,"byteOffset":1352,"byteLength":12},{"buffer":0,"byteOffset":1364,"byteLength":168},{"buffer":0,"byteOffset":1532,"byteLength":672},{"buffer":0,"byteOffset":2204,"byteLength":164},{"buffer":0,"byteOffset":2368,"byteLength":492},{"buffer":0,"byteOffset":2860,"byteLength":100},{"buffer":0,"byteOffset":2960,"byteLength":400},{"buffer":0,"byteOffset":3360,"byteLength":104},{"buffer":0,"byteOffset":3464,"byteLength":312}],"buffers":[{"byteLength":3776,"uri":"data:application/octet-stream;base64,"}],"accessors":[{"bufferView":0,"componentType":5126,"count":1,"max":[0],"min":[0],"type":"SCALAR"},{"bufferView":1,"componentType":5126,"count":1,"max":[-4.6036909045206166e-17,-0.751839816570282,0.659345805644989,4.037328610911684e-17],"min":[-4.6036909045206166e-17,-0.751839816570282,0.659345805644989,4.037328610911684e-17],"type":"VEC4"},{"bufferView":2,"componentType":5126,"count":1,"max":[0],"min":[0],"type":"SCALAR"},{"bufferView":3,"componentType":5126,"count":1,"max":[0.012500000186264515,-0.0625,-0.0625],"min":[0.012500000186264515,-0.0625,-0.0625],"type":"VEC3"},{"bufferView":4,"componentType":5126,"count":1,"max":[0],"min":[0],"type":"SCALAR"},{"bufferView":5,"componentType":5126,"count":1,"max":[1,1.5,1],"min":[1,1.5,1],"type":"VEC3"},{"bufferView":6,"componentType":5126,"count":36,"max":[2.25],"min":[0],"type":"SCALAR"},{"bufferView":7,"componentType":5126,"count":36,"max":[0.11746177822351456,-0.6055107712745667,0.5850704908370972,0.5461911559104919],"min":[-0.42211049795150757,-0.9209117293357849,0.30252304673194885,-0.5017583966255188],"type":"VEC4"},{"bufferView":8,"componentType":5126,"count":36,"max":[2.25],"min":[0],"type":"SCALAR"},{"bufferView":9,"componentType":5126,"count":36,"max":[-0.08749999850988388,0.10625000298023224,-0.3060123920440674],"min":[-0.3766912519931793,-1.435813546180725,-0.675000011920929],"type":"VEC3"},{"bufferView":10,"componentType":5126,"count":1,"max":[0],"min":[0],"type":"SCALAR"},{"bufferView":11,"componentType":5126,"count":1,"max":[1,1.5,1],"min":[1,1.5,1],"type":"VEC3"},{"bufferView":12,"componentType":5126,"count":42,"max":[2.5999999046325684],"min":[0],"type":"SCALAR"},{"bufferView":13,"componentType":5126,"count":42,"max":[0.16941899061203003,0.08331301063299179,0.015707317739725113,1],"min":[0,0,-0.45129409432411194,0.8754416108131409],"type":"VEC4"},{"bufferView":14,"componentType":5126,"count":41,"max":[2.549999952316284],"min":[0],"type":"SCALAR"},{"bufferView":15,"componentType":5126,"count":41,"max":[0.5,0.5425710082054138,0.9624999761581421],"min":[0.42902183532714844,0.42500001192092896,0.8075000047683716],"type":"VEC3"},{"bufferView":16,"componentType":5126,"count":25,"max":[1.9500000476837158],"min":[0],"type":"SCALAR"},{"bufferView":17,"componentType":5126,"count":25,"max":[0.08715574443340302,0.0017500517424196005,0.0043941340409219265,1],"min":[-0.12948909401893616,-0.08425868302583694,-0.7622268795967102,0.6302299499511719],"type":"VEC4"},{"bufferView":18,"componentType":5126,"count":26,"max":[1.9500000476837158],"min":[0],"type":"SCALAR"},{"bufferView":19,"componentType":5126,"count":26,"max":[0.0023175000678747892,-0.09586437791585922,-0.2830567955970764],"min":[-0.3187499940395355,-1.5473144054412842,-0.4889099895954132],"type":"VEC3"}]}