{"asset":{"version":"2.0","generator":"Blockbench 4.2.4 glTF exporter"},"scenes":[{"nodes":[9],"name":"blockbench_export"}],"scene":0,"nodes":[{"translation":[0,0.03125,-2.0234375],"name":"Bolt"},{"translation":[-0.5,-0.375,-1.0625],"name":"12gauge"},{"name":"m1014","children":[0,1]},{"translation":[0.375,-0.6875,0],"name":"RightHand"},{"translation":[-0.375,0.8125,-0.5625],"name":"R","children":[3]},{"name":"bone","children":[2,4]},{"translation":[-0.375,-0.6875,0],"name":"LeftHand"},{"translation":[0.375,0.8125,-0.5625],"name":"l","children":[6]},{"translation":[0.5,0.375,1.0625],"name":"bone2","children":[5,7]},{"children":[8]}],"animations":[{"name":"inspect","samplers":[{"input":0,"output":1,"interpolation":"LINEAR"},{"input":2,"output":3,"interpolation":"LINEAR"},{"input":4,"output":5,"interpolation":"LINEAR"},{"input":6,"output":7,"interpolation":"LINEAR"},{"input":8,"output":9,"interpolation":"LINEAR"},{"input":10,"output":11,"interpolation":"LINEAR"},{"input":12,"output":13,"interpolation":"LINEAR"},{"input":14,"output":15,"interpolation":"LINEAR"},{"input":16,"output":17,"interpolation":"LINEAR"},{"input":18,"output":19,"interpolation":"LINEAR"}],"channels":[{"sampler":0,"target":{"node":7,"path":"rotation"}},{"sampler":1,"target":{"node":7,"path":"translation"}},{"sampler":2,"target":{"node":7,"path":"scale"}},{"sampler":3,"target":{"node":4,"path":"rotation"}},{"sampler":4,"target":{"node":4,"path":"translation"}},{"sampler":5,"target":{"node":4,"path":"scale"}},{"sampler":6,"target":{"node":8,"path":"rotation"}},{"sampler":7,"target":{"node":8,"path":"translation"}},{"sampler":8,"target":{"node":0,"path":"translation"}},{"sampler":9,"target":{"node":1,"path":"translation"}}]}],"bufferViews":[{"buffer":0,"byteOffset":0,"byteLength":36},{"buffer":0,"byteOffset":36,"byteLength":144},{"buffer":0,"byteOffset":180,"byteLength":24},{"buffer":0,"byteOffset":204,"byteLength":72},{"buffer":0,"byteOffset":276,"byteLength":4},{"buffer":0,"byteOffset":280,"byteLength":12},{"buffer":0,"byteOffset":292,"byteLength":128},{"buffer":0,"byteOffset":420,"byteLength":512},{"buffer":0,"byteOffset":932,"byteLength":112},{"buffer":0,"byteOffset":1044,"byteLength":336},{"buffer":0,"byteOffset":1380,"byteLength":4},{"buffer":0,"byteOffset":1384,"byteLength":12},{"buffer":0,"byteOffset":1396,"byteLength":396},{"buffer":0,"byteOffset":1792,"byteLength":1584},{"buffer":0,"byteOffset":3376,"byteLength":404},{"buffer":0,"byteOffset":3780,"byteLength":1212},{"buffer":0,"byteOffset":4992,"byteLength":16},{"buffer":0,"byteOffset":5008,"byteLength":48},{"buffer":0,"byteOffset":5056,"byteLength":24},{"buffer":0,"byteOffset":5080,"byteLength":72}],"buffers":[{"byteLength":5152,"uri":"data:application/octet-stream;base64,"}],"accessors":[{"bufferView":0,"componentType":5126,"count":9,"max":[5.650000095367432],"min":[0],"type":"SCALAR"},{"bufferView":1,"componentType":5126,"count":9,"max":[0.0460435226559639,0.6734621524810791,-0.26731956005096436,0.7605053186416626],"min":[-0.24522557854652405,0.5088798403739929,-0.6685707569122314,0.31199657917022705],"type":"VEC4"},{"bufferView":2,"componentType":5126,"count":6,"max":[5.650000095367432],"min":[0],"type":"SCALAR"},{"bufferView":3,"componentType":5126,"count":6,"max":[-0.03125,0.11249999701976776,-0.918749988079071],"min":[-0.10000000149011612,0.012500000186264515,-0.918749988079071],"type":"VEC3"},{"bufferView":4,"componentType":5126,"count":1,"max":[0],"min":[0],"type":"SCALAR"},{"bufferView":5,"componentType":5126,"count":1,"max":[1,1.5,1],"min":[1,1.5,1],"type":"VEC3"},{"bufferView":6,"componentType":5126,"count":32,"max":[5.300000190734863],"min":[0],"type":"SCALAR"},{"bufferView":7,"componentType":5126,"count":32,"max":[0.432902991771698,0.7747392058372498,-0.3706798255443573,0.8039782047271729],"min":[-0.30870890617370605,0.29638364911079407,-0.7393601536750793,-0.6083656549453735],"type":"VEC4"},{"bufferView":8,"componentType":5126,"count":28,"max":[5.300000190734863],"min":[0],"type":"SCALAR"},{"bufferView":9,"componentType":5126,"count":28,"max":[0.18125000596046448,0.09375,0.2175000011920929],"min":[-0.05000000074505806,-0.1538151651620865,-0.5562499761581421],"type":"VEC3"},{"bufferView":10,"componentType":5126,"count":1,"max":[0],"min":[0],"type":"SCALAR"},{"bufferView":11,"componentType":5126,"count":1,"max":[1,1.5,1],"min":[1,1.5,1],"type":"VEC3"},{"bufferView":12,"componentType":5126,"count":99,"max":[5.900000095367432],"min":[0],"type":"SCALAR"},{"bufferView":13,"componentType":5126,"count":99,"max":[0.17932464182376862,0.5849806070327759,0.4304206371307373,1],"min":[0,-0.011728404089808464,-0.26815229654312134,0.7532624006271362],"type":"VEC4"},{"bufferView":14,"componentType":5126,"count":101,"max":[5.849999904632568],"min":[0],"type":"SCALAR"},{"bufferView":15,"componentType":5126,"count":101,"max":[0.6319290399551392,0.5168770551681519,1.1081805229187012],"min":[0.3512832820415497,0.23851563036441803,0.6632158756256104],"type":"VEC3"},{"bufferView":16,"componentType":5126,"count":4,"max":[5.099999904632568],"min":[4.199999809265137],"type":"SCALAR"},{"bufferView":17,"componentType":5126,"count":4,"max":[0,0.03125,-1.8359375],"min":[0,0.03125,-2.0234375],"type":"VEC3"},{"bufferView":18,"componentType":5126,"count":6,"max":[5.150000095367432],"min":[4.050000190734863],"type":"SCALAR"},{"bufferView":19,"componentType":5126,"count":6,"max":[-0.5,-0.28125,-0.9750000238418579],"min":[-0.5,-0.375,-1.087499976158142],"type":"VEC3"}]}