{"asset":{"version":"2.0","generator":"Blockbench 4.2.4 glTF exporter"},"scenes":[{"nodes":[9],"name":"blockbench_export"}],"scene":0,"nodes":[{"translation":[0,0.03125,-2.0234375],"name":"Bolt"},{"translation":[-0.5,-0.375,-1.0625],"name":"12gauge"},{"name":"m1014","children":[0,1]},{"translation":[0.375,-0.6875,0],"name":"RightHand"},{"translation":[-0.375,0.8125,-0.5625],"name":"R","children":[3]},{"name":"bone","children":[2,4]},{"translation":[-0.375,-0.6875,0],"name":"LeftHand"},{"translation":[0.375,0.8125,-0.5625],"name":"l","children":[6]},{"translation":[0.5,0.375,1.0625],"name":"bone2","children":[5,7]},{"children":[8]}],"animations":[{"name":"reload_end","samplers":[{"input":0,"output":1,"interpolation":"LINEAR"},{"input":2,"output":3,"interpolation":"LINEAR"},{"input":4,"output":5,"interpolation":"LINEAR"},{"input":6,"output":7,"interpolation":"LINEAR"},{"input":8,"output":9,"interpolation":"LINEAR"},{"input":10,"output":11,"interpolation":"LINEAR"},{"input":12,"output":13,"interpolation":"LINEAR"},{"input":14,"output":15,"interpolation":"LINEAR"}],"channels":[{"sampler":0,"target":{"node":7,"path":"rotation"}},{"sampler":1,"target":{"node":7,"path":"translation"}},{"sampler":2,"target":{"node":7,"path":"scale"}},{"sampler":3,"target":{"node":4,"path":"rotation"}},{"sampler":4,"target":{"node":4,"path":"translation"}},{"sampler":5,"target":{"node":4,"path":"scale"}},{"sampler":6,"target":{"node":8,"path":"rotation"}},{"sampler":7,"target":{"node":8,"path":"translation"}}]}],"bufferViews":[{"buffer":0,"byteOffset":0,"byteLength":24},{"buffer":0,"byteOffset":24,"byteLength":96},{"buffer":0,"byteOffset":120,"byteLength":24},{"buffer":0,"byteOffset":144,"byteLength":72},{"buffer":0,"byteOffset":216,"byteLength":4},{"buffer":0,"byteOffset":220,"byteLength":12},{"buffer":0,"byteOffset":232,"byteLength":12},{"buffer":0,"byteOffset":244,"byteLength":48},{"buffer":0,"byteOffset":292,"byteLength":24},{"buffer":0,"byteOffset":316,"byteLength":72},{"buffer":0,"byteOffset":388,"byteLength":4},{"buffer":0,"byteOffset":392,"byteLength":12},{"buffer":0,"byteOffset":404,"byteLength":44},{"buffer":0,"byteOffset":448,"byteLength":176},{"buffer":0,"byteOffset":624,"byteLength":52},{"buffer":0,"byteOffset":676,"byteLength":156}],"buffers":[{"byteLength":832,"uri":"data:application/octet-stream;base64,"}],"accessors":[{"bufferView":0,"componentType":5126,"count":6,"max":[0.4000000059604645],"min":[0],"type":"SCALAR"},{"bufferView":1,"componentType":5126,"count":6,"max":[0.14818082749843597,0.6373903751373291,-0.49122169613838196,0.6251016855239868],"min":[-0.24522557854652405,0.5548094511032104,-0.7405135631561279,0.17396008968353271],"type":"VEC4"},{"bufferView":2,"componentType":5126,"count":6,"max":[0.4000000059604645],"min":[0],"type":"SCALAR"},{"bufferView":3,"componentType":5126,"count":6,"max":[-0.03125,0.16687500476837158,-0.9147093892097473],"min":[-0.1065363809466362,-0.042884375900030136,-0.9293749928474426],"type":"VEC3"},{"bufferView":4,"componentType":5126,"count":1,"max":[0],"min":[0],"type":"SCALAR"},{"bufferView":5,"componentType":5126,"count":1,"max":[1,1.5,1],"min":[1,1.5,1],"type":"VEC3"},{"bufferView":6,"componentType":5126,"count":3,"max":[0.3499999940395355],"min":[0],"type":"SCALAR"},{"bufferView":7,"componentType":5126,"count":3,"max":[-4.423203734456241e-17,0.7223639488220215,-0.6915130615234375,4.234296196628321e-17],"min":[-4.423203734456241e-17,0.7223639488220215,-0.6915130615234375,4.234296196628321e-17],"type":"VEC4"},{"bufferView":8,"componentType":5126,"count":6,"max":[0.3499999940395355],"min":[0],"type":"SCALAR"},{"bufferView":9,"componentType":5126,"count":6,"max":[0.01875000074505806,-0.125,0.39715349674224854],"min":[-0.24390915036201477,-1.8322844505310059,-0.0625],"type":"VEC3"},{"bufferView":10,"componentType":5126,"count":1,"max":[0],"min":[0],"type":"SCALAR"},{"bufferView":11,"componentType":5126,"count":1,"max":[1,1.5,1],"min":[1,1.5,1],"type":"VEC3"},{"bufferView":12,"componentType":5126,"count":11,"max":[0.699999988079071],"min":[0],"type":"SCALAR"},{"bufferView":13,"componentType":5126,"count":11,"max":[0.08151315897703171,0.07671612501144409,0.5095374584197998,1],"min":[-0.005720938090234995,0,-0.015792973339557648,0.8555350303649902],"type":"VEC4"},{"bufferView":14,"componentType":5126,"count":13,"max":[0.800000011920929],"min":[0],"type":"SCALAR"},{"bufferView":15,"componentType":5126,"count":13,"max":[0.5,0.375,1.078125],"min":[0.40281251072883606,0.32499998807907104,0.9165740609169006],"type":"VEC3"}]}