{"asset":{"version":"2.0","generator":"Blockbench 4.5.2 glTF exporter"},"scenes":[{"nodes":[9],"name":"blockbench_export"}],"scene":0,"nodes":[{"translation":[0,0.03125,-2.0234375],"name":"Bolt"},{"translation":[-0.5,-0.375,-1.0625],"name":"12gauge"},{"name":"m1014","children":[0,1]},{"translation":[0.375,-0.6875,0],"name":"RightHand"},{"translation":[-0.375,0.8125,-0.5625],"name":"R","children":[3]},{"name":"bone","children":[2,4]},{"translation":[-0.375,-0.6875,0],"name":"LeftHand"},{"translation":[0.375,0.8125,-0.5625],"name":"l","children":[6]},{"translation":[0.5,0.375,1.0625],"name":"bone2","children":[5,7]},{"children":[8]}],"animations":[{"name":"reload_end_empty","samplers":[{"input":0,"output":1,"interpolation":"LINEAR"},{"input":2,"output":3,"interpolation":"LINEAR"},{"input":4,"output":5,"interpolation":"LINEAR"},{"input":6,"output":7,"interpolation":"LINEAR"},{"input":8,"output":9,"interpolation":"LINEAR"},{"input":10,"output":11,"interpolation":"LINEAR"},{"input":12,"output":13,"interpolation":"LINEAR"},{"input":14,"output":15,"interpolation":"LINEAR"},{"input":16,"output":17,"interpolation":"LINEAR"},{"input":18,"output":19,"interpolation":"LINEAR"}],"channels":[{"sampler":0,"target":{"node":7,"path":"rotation"}},{"sampler":1,"target":{"node":7,"path":"translation"}},{"sampler":2,"target":{"node":7,"path":"scale"}},{"sampler":3,"target":{"node":4,"path":"rotation"}},{"sampler":4,"target":{"node":4,"path":"translation"}},{"sampler":5,"target":{"node":4,"path":"scale"}},{"sampler":6,"target":{"node":8,"path":"rotation"}},{"sampler":7,"target":{"node":8,"path":"translation"}},{"sampler":8,"target":{"node":0,"path":"rotation"}},{"sampler":9,"target":{"node":0,"path":"translation"}}]}],"bufferViews":[{"buffer":0,"byteOffset":0,"byteLength":12},{"buffer":0,"byteOffset":12,"byteLength":48},{"buffer":0,"byteOffset":60,"byteLength":12},{"buffer":0,"byteOffset":72,"byteLength":36},{"buffer":0,"byteOffset":108,"byteLength":4},{"buffer":0,"byteOffset":112,"byteLength":12},{"buffer":0,"byteOffset":124,"byteLength":56},{"buffer":0,"byteOffset":180,"byteLength":224},{"buffer":0,"byteOffset":404,"byteLength":56},{"buffer":0,"byteOffset":460,"byteLength":168},{"buffer":0,"byteOffset":628,"byteLength":4},{"buffer":0,"byteOffset":632,"byteLength":12},{"buffer":0,"byteOffset":644,"byteLength":92},{"buffer":0,"byteOffset":736,"byteLength":368},{"buffer":0,"byteOffset":1104,"byteLength":92},{"buffer":0,"byteOffset":1196,"byteLength":276},{"buffer":0,"byteOffset":1472,"byteLength":8},{"buffer":0,"byteOffset":1480,"byteLength":32},{"buffer":0,"byteOffset":1512,"byteLength":16},{"buffer":0,"byteOffset":1528,"byteLength":48}],"buffers":[{"byteLength":1576,"uri":"data:application/octet-stream;base64,"}],"accessors":[{"bufferView":0,"componentType":5126,"count":3,"max":[1.0499999523162842],"min":[0],"type":"SCALAR"},{"bufferView":1,"componentType":5126,"count":3,"max":[0.14818082749843597,0.6319968700408936,-0.49122169613838196,0.6251016855239868],"min":[-0.24522557854652405,0.5548094511032104,-0.7405135631561279,0.17396008968353271],"type":"VEC4"},{"bufferView":2,"componentType":5126,"count":3,"max":[1.0499999523162842],"min":[0],"type":"SCALAR"},{"bufferView":3,"componentType":5126,"count":3,"max":[-0.03125,0.16687500476837158,-0.918749988079071],"min":[-0.10000000149011612,0.012500000186264515,-0.9293749928474426],"type":"VEC3"},{"bufferView":4,"componentType":5126,"count":1,"max":[0],"min":[0],"type":"SCALAR"},{"bufferView":5,"componentType":5126,"count":1,"max":[1,1.5,1],"min":[1,1.5,1],"type":"VEC3"},{"bufferView":6,"componentType":5126,"count":14,"max":[0.8999999761581421],"min":[0],"type":"SCALAR"},{"bufferView":7,"componentType":5126,"count":14,"max":[0.44532498717308044,0.8326796889305115,-0.146663099527359,4.234296196628321e-17],"min":[-5.0986926575568445e-17,0.7216609120368958,-0.6915130615234375,-0.46799805760383606],"type":"VEC4"},{"bufferView":8,"componentType":5126,"count":14,"max":[0.8500000238418579],"min":[0],"type":"SCALAR"},{"bufferView":9,"componentType":5126,"count":14,"max":[0.28437501192092896,0.04374999925494194,0.375],"min":[-0.23125000298023224,-1.75,-0.528124988079071],"type":"VEC3"},{"bufferView":10,"componentType":5126,"count":1,"max":[0],"min":[0],"type":"SCALAR"},{"bufferView":11,"componentType":5126,"count":1,"max":[1,1.5,1],"min":[1,1.5,1],"type":"VEC3"},{"bufferView":12,"componentType":5126,"count":23,"max":[1.399999976158142],"min":[0],"type":"SCALAR"},{"bufferView":13,"componentType":5126,"count":23,"max":[0.09425460547208786,0.05552978813648224,0.5191196799278259,1],"min":[-0.025806989520788193,-0.0033387853763997555,-0.041034962981939316,0.8504334092140198],"type":"VEC4"},{"bufferView":14,"componentType":5126,"count":23,"max":[1.399999976158142],"min":[0],"type":"SCALAR"},{"bufferView":15,"componentType":5126,"count":23,"max":[0.5001772046089172,0.37810149788856506,1.0844753980636597],"min":[0.38062500953674316,0.2750000059604645,0.9325000047683716],"type":"VEC3"},{"bufferView":16,"componentType":5126,"count":2,"max":[0.30000001192092896],"min":[0],"type":"SCALAR"},{"bufferView":17,"componentType":5126,"count":2,"max":[0,0,0,1],"min":[0,0,0,1],"type":"VEC4"},{"bufferView":18,"componentType":5126,"count":4,"max":[0.550000011920929],"min":[0],"type":"SCALAR"},{"bufferView":19,"componentType":5126,"count":4,"max":[0,0.03125,-1.7109375],"min":[0,0.03125,-2.0234375],"type":"VEC3"}]}