{"asset":{"version":"2.0","generator":"Blockbench 4.2.4 glTF exporter"},"scenes":[{"nodes":[9],"name":"blockbench_export"}],"scene":0,"nodes":[{"translation":[0,0.03125,-2.0234375],"name":"Bolt"},{"translation":[-0.5,-0.375,-1.0625],"name":"12gauge"},{"name":"m1014","children":[0,1]},{"translation":[0.375,-0.6875,0],"name":"RightHand"},{"translation":[-0.375,0.8125,-0.5625],"name":"R","children":[3]},{"name":"bone","children":[2,4]},{"translation":[-0.375,-0.6875,0],"name":"LeftHand"},{"translation":[0.375,0.8125,-0.5625],"name":"l","children":[6]},{"translation":[0.5,0.375,1.0625],"name":"bone2","children":[5,7]},{"children":[8]}],"animations":[{"name":"reload_loop","samplers":[{"input":0,"output":1,"interpolation":"LINEAR"},{"input":2,"output":3,"interpolation":"LINEAR"},{"input":4,"output":5,"interpolation":"LINEAR"},{"input":6,"output":7,"interpolation":"LINEAR"},{"input":8,"output":9,"interpolation":"LINEAR"},{"input":10,"output":11,"interpolation":"LINEAR"},{"input":12,"output":13,"interpolation":"LINEAR"},{"input":14,"output":15,"interpolation":"LINEAR"},{"input":16,"output":17,"interpolation":"LINEAR"},{"input":18,"output":19,"interpolation":"LINEAR"}],"channels":[{"sampler":0,"target":{"node":7,"path":"rotation"}},{"sampler":1,"target":{"node":7,"path":"translation"}},{"sampler":2,"target":{"node":7,"path":"scale"}},{"sampler":3,"target":{"node":4,"path":"rotation"}},{"sampler":4,"target":{"node":4,"path":"translation"}},{"sampler":5,"target":{"node":4,"path":"scale"}},{"sampler":6,"target":{"node":8,"path":"rotation"}},{"sampler":7,"target":{"node":8,"path":"translation"}},{"sampler":8,"target":{"node":1,"path":"rotation"}},{"sampler":9,"target":{"node":1,"path":"translation"}}]}],"bufferViews":[{"buffer":0,"byteOffset":0,"byteLength":4},{"buffer":0,"byteOffset":4,"byteLength":16},{"buffer":0,"byteOffset":20,"byteLength":4},{"buffer":0,"byteOffset":24,"byteLength":12},{"buffer":0,"byteOffset":36,"byteLength":4},{"buffer":0,"byteOffset":40,"byteLength":12},{"buffer":0,"byteOffset":52,"byteLength":40},{"buffer":0,"byteOffset":92,"byteLength":160},{"buffer":0,"byteOffset":252,"byteLength":40},{"buffer":0,"byteOffset":292,"byteLength":120},{"buffer":0,"byteOffset":412,"byteLength":4},{"buffer":0,"byteOffset":416,"byteLength":12},{"buffer":0,"byteOffset":428,"byteLength":44},{"buffer":0,"byteOffset":472,"byteLength":176},{"buffer":0,"byteOffset":648,"byteLength":44},{"buffer":0,"byteOffset":692,"byteLength":132},{"buffer":0,"byteOffset":824,"byteLength":16},{"buffer":0,"byteOffset":840,"byteLength":64},{"buffer":0,"byteOffset":904,"byteLength":20},{"buffer":0,"byteOffset":924,"byteLength":60}],"buffers":[{"byteLength":984,"uri":"data:application/octet-stream;base64,"}],"accessors":[{"bufferView":0,"componentType":5126,"count":1,"max":[0],"min":[0],"type":"SCALAR"},{"bufferView":1,"componentType":5126,"count":1,"max":[0.14818082749843597,0.6319968700408936,-0.7405135631561279,0.17396008968353271],"min":[0.14818082749843597,0.6319968700408936,-0.7405135631561279,0.17396008968353271],"type":"VEC4"},{"bufferView":2,"componentType":5126,"count":1,"max":[0],"min":[0],"type":"SCALAR"},{"bufferView":3,"componentType":5126,"count":1,"max":[-0.10000000149011612,0.16687500476837158,-0.9293749928474426],"min":[-0.10000000149011612,0.16687500476837158,-0.9293749928474426],"type":"VEC3"},{"bufferView":4,"componentType":5126,"count":1,"max":[0],"min":[0],"type":"SCALAR"},{"bufferView":5,"componentType":5126,"count":1,"max":[1,1.5,1],"min":[1,1.5,1],"type":"VEC3"},{"bufferView":6,"componentType":5126,"count":10,"max":[0.6000000238418579],"min":[0],"type":"SCALAR"},{"bufferView":7,"componentType":5126,"count":10,"max":[0.23211990296840668,0.9318485856056213,-0.32313695549964905,0.19810965657234192],"min":[-0.08717033267021179,0.7223639488220215,-0.6915130615234375,-0.5049170851707458],"type":"VEC4"},{"bufferView":8,"componentType":5126,"count":10,"max":[0.6000000238418579],"min":[0],"type":"SCALAR"},{"bufferView":9,"componentType":5126,"count":10,"max":[-0.012500000186264515,-0.013749999925494194,0.375],"min":[-0.23125000298023224,-1.75,-0.5093749761581421],"type":"VEC3"},{"bufferView":10,"componentType":5126,"count":1,"max":[0],"min":[0],"type":"SCALAR"},{"bufferView":11,"componentType":5126,"count":1,"max":[1,1.5,1],"min":[1,1.5,1],"type":"VEC3"},{"bufferView":12,"componentType":5126,"count":11,"max":[0.6499999761581421],"min":[0],"type":"SCALAR"},{"bufferView":13,"componentType":5126,"count":11,"max":[0.08518121391534805,0.043428659439086914,0.5180487632751465,0.8637162446975708],"min":[0.08072971552610397,0.04220946878194809,0.4948255717754364,0.8504571318626404],"type":"VEC4"},{"bufferView":14,"componentType":5126,"count":11,"max":[0.6499999761581421],"min":[0],"type":"SCALAR"},{"bufferView":15,"componentType":5126,"count":11,"max":[0.40312498807907104,0.38218748569488525,0.9712499976158142],"min":[0.3968749940395355,0.36250001192092896,0.9606249928474426],"type":"VEC3"},{"bufferView":16,"componentType":5126,"count":4,"max":[0.3499999940395355],"min":[0],"type":"SCALAR"},{"bufferView":17,"componentType":5126,"count":4,"max":[0.237685889005661,0,0,1],"min":[0,0,0,0.9713420867919922],"type":"VEC4"},{"bufferView":18,"componentType":5126,"count":5,"max":[0.3499999940395355],"min":[0],"type":"SCALAR"},{"bufferView":19,"componentType":5126,"count":5,"max":[-0.5,-0.17937499284744263,-0.0625],"min":[-0.796875,-2.067187547683716,-1.084375023841858],"type":"VEC3"}]}