{"asset":{"version":"2.0","generator":"Blockbench 4.2.4 glTF exporter"},"scenes":[{"nodes":[9],"name":"blockbench_export"}],"scene":0,"nodes":[{"translation":[0,0.03125,-2.0234375],"name":"Bolt"},{"translation":[-0.5,-0.375,-1.0625],"name":"12gauge"},{"name":"m1014","children":[0,1]},{"translation":[0.375,-0.6875,0],"name":"RightHand"},{"translation":[-0.375,0.8125,-0.5625],"name":"R","children":[3]},{"name":"bone","children":[2,4]},{"translation":[-0.375,-0.6875,0],"name":"LeftHand"},{"translation":[0.375,0.8125,-0.5625],"name":"l","children":[6]},{"translation":[0.5,0.375,1.0625],"name":"bone2","children":[5,7]},{"children":[8]}],"animations":[{"name":"draw","samplers":[{"input":0,"output":1,"interpolation":"LINEAR"},{"input":2,"output":3,"interpolation":"LINEAR"},{"input":4,"output":5,"interpolation":"LINEAR"},{"input":6,"output":7,"interpolation":"LINEAR"},{"input":8,"output":9,"interpolation":"LINEAR"},{"input":10,"output":11,"interpolation":"LINEAR"},{"input":12,"output":13,"interpolation":"LINEAR"},{"input":14,"output":15,"interpolation":"LINEAR"}],"channels":[{"sampler":0,"target":{"node":7,"path":"rotation"}},{"sampler":1,"target":{"node":7,"path":"translation"}},{"sampler":2,"target":{"node":7,"path":"scale"}},{"sampler":3,"target":{"node":4,"path":"rotation"}},{"sampler":4,"target":{"node":4,"path":"translation"}},{"sampler":5,"target":{"node":4,"path":"scale"}},{"sampler":6,"target":{"node":8,"path":"rotation"}},{"sampler":7,"target":{"node":8,"path":"translation"}}]}],"bufferViews":[{"buffer":0,"byteOffset":0,"byteLength":12},{"buffer":0,"byteOffset":12,"byteLength":48},{"buffer":0,"byteOffset":60,"byteLength":12},{"buffer":0,"byteOffset":72,"byteLength":36},{"buffer":0,"byteOffset":108,"byteLength":4},{"buffer":0,"byteOffset":112,"byteLength":12},{"buffer":0,"byteOffset":124,"byteLength":4},{"buffer":0,"byteOffset":128,"byteLength":16},{"buffer":0,"byteOffset":144,"byteLength":4},{"buffer":0,"byteOffset":148,"byteLength":12},{"buffer":0,"byteOffset":160,"byteLength":4},{"buffer":0,"byteOffset":164,"byteLength":12},{"buffer":0,"byteOffset":176,"byteLength":56},{"buffer":0,"byteOffset":232,"byteLength":224},{"buffer":0,"byteOffset":456,"byteLength":48},{"buffer":0,"byteOffset":504,"byteLength":144}],"buffers":[{"byteLength":648,"uri":"data:application/octet-stream;base64,"}],"accessors":[{"bufferView":0,"componentType":5126,"count":3,"max":[0.3499999940395355],"min":[0],"type":"SCALAR"},{"bufferView":1,"componentType":5126,"count":3,"max":[-0.20678924024105072,0.5548051595687866,-0.49119001626968384,0.6251302361488342],"min":[-0.2452259063720703,0.4950726330280304,-0.8208943605422974,0.1956368237733841],"type":"VEC4"},{"bufferView":2,"componentType":5126,"count":3,"max":[0.3499999940395355],"min":[0],"type":"SCALAR"},{"bufferView":3,"componentType":5126,"count":3,"max":[-0.03125,0.012500000186264515,0.2496812492609024],"min":[-0.6932487487792969,-0.9742749929428101,-0.918749988079071],"type":"VEC3"},{"bufferView":4,"componentType":5126,"count":1,"max":[0],"min":[0],"type":"SCALAR"},{"bufferView":5,"componentType":5126,"count":1,"max":[1,1.5,1],"min":[1,1.5,1],"type":"VEC3"},{"bufferView":6,"componentType":5126,"count":1,"max":[0],"min":[0],"type":"SCALAR"},{"bufferView":7,"componentType":5126,"count":1,"max":[-4.423203734456241e-17,0.7223639488220215,-0.6915130615234375,4.234296196628321e-17],"min":[-4.423203734456241e-17,0.7223639488220215,-0.6915130615234375,4.234296196628321e-17],"type":"VEC4"},{"bufferView":8,"componentType":5126,"count":1,"max":[0],"min":[0],"type":"SCALAR"},{"bufferView":9,"componentType":5126,"count":1,"max":[0.01875000074505806,-0.125,-0.0625],"min":[0.01875000074505806,-0.125,-0.0625],"type":"VEC3"},{"bufferView":10,"componentType":5126,"count":1,"max":[0],"min":[0],"type":"SCALAR"},{"bufferView":11,"componentType":5126,"count":1,"max":[1,1.5,1],"min":[1,1.5,1],"type":"VEC3"},{"bufferView":12,"componentType":5126,"count":14,"max":[0.8500000238418579],"min":[0],"type":"SCALAR"},{"bufferView":13,"componentType":5126,"count":14,"max":[0.6247118711471558,0.10617446154356003,0.046092450618743896,1],"min":[-0.024445882067084312,-0.0006005310569889843,-0.08135645091533661,0.7693134546279907],"type":"VEC4"},{"bufferView":14,"componentType":5126,"count":12,"max":[0.75],"min":[0],"type":"SCALAR"},{"bufferView":15,"componentType":5126,"count":12,"max":[0.625,0.37705710530281067,1.375],"min":[0.48380985856056213,0.1875,0.932614803314209],"type":"VEC3"}]}