{"asset":{"version":"2.0","generator":"Blockbench 4.2.4 glTF exporter"},"scenes":[{"nodes":[9],"name":"blockbench_export"}],"scene":0,"nodes":[{"translation":[0,0.03125,-2.0234375],"name":"Bolt"},{"translation":[-0.5,-0.375,-1.0625],"name":"12gauge"},{"name":"m1014","children":[0,1]},{"translation":[0.375,-0.6875,0],"name":"RightHand"},{"translation":[-0.375,0.8125,-0.5625],"name":"R","children":[3]},{"name":"bone","children":[2,4]},{"translation":[-0.375,-0.6875,0],"name":"LeftHand"},{"translation":[0.375,0.8125,-0.5625],"name":"l","children":[6]},{"translation":[0.5,0.375,1.0625],"name":"bone2","children":[5,7]},{"children":[8]}],"animations":[{"name":"reload_intro","samplers":[{"input":0,"output":1,"interpolation":"LINEAR"},{"input":2,"output":3,"interpolation":"LINEAR"},{"input":4,"output":5,"interpolation":"LINEAR"},{"input":6,"output":7,"interpolation":"LINEAR"},{"input":8,"output":9,"interpolation":"LINEAR"},{"input":10,"output":11,"interpolation":"LINEAR"},{"input":12,"output":13,"interpolation":"LINEAR"},{"input":14,"output":15,"interpolation":"LINEAR"},{"input":16,"output":17,"interpolation":"LINEAR"}],"channels":[{"sampler":0,"target":{"node":7,"path":"rotation"}},{"sampler":1,"target":{"node":7,"path":"translation"}},{"sampler":2,"target":{"node":7,"path":"scale"}},{"sampler":3,"target":{"node":4,"path":"rotation"}},{"sampler":4,"target":{"node":4,"path":"translation"}},{"sampler":5,"target":{"node":4,"path":"scale"}},{"sampler":6,"target":{"node":8,"path":"rotation"}},{"sampler":7,"target":{"node":8,"path":"translation"}},{"sampler":8,"target":{"node":1,"path":"translation"}}]}],"bufferViews":[{"buffer":0,"byteOffset":0,"byteLength":20},{"buffer":0,"byteOffset":20,"byteLength":80},{"buffer":0,"byteOffset":100,"byteLength":16},{"buffer":0,"byteOffset":116,"byteLength":48},{"buffer":0,"byteOffset":164,"byteLength":4},{"buffer":0,"byteOffset":168,"byteLength":12},{"buffer":0,"byteOffset":180,"byteLength":8},{"buffer":0,"byteOffset":188,"byteLength":32},{"buffer":0,"byteOffset":220,"byteLength":24},{"buffer":0,"byteOffset":244,"byteLength":72},{"buffer":0,"byteOffset":316,"byteLength":4},{"buffer":0,"byteOffset":320,"byteLength":12},{"buffer":0,"byteOffset":332,"byteLength":32},{"buffer":0,"byteOffset":364,"byteLength":128},{"buffer":0,"byteOffset":492,"byteLength":32},{"buffer":0,"byteOffset":524,"byteLength":96},{"buffer":0,"byteOffset":620,"byteLength":8},{"buffer":0,"byteOffset":628,"byteLength":24}],"buffers":[{"byteLength":652,"uri":"data:application/octet-stream;base64,"}],"accessors":[{"bufferView":0,"componentType":5126,"count":5,"max":[0.20000000298023224],"min":[0],"type":"SCALAR"},{"bufferView":1,"componentType":5126,"count":5,"max":[0.14818082749843597,0.6345215439796448,-0.49122169613838196,0.6251016855239868],"min":[-0.24522557854652405,0.5548094511032104,-0.7405135631561279,0.17396008968353271],"type":"VEC4"},{"bufferView":2,"componentType":5126,"count":4,"max":[0.20000000298023224],"min":[0],"type":"SCALAR"},{"bufferView":3,"componentType":5126,"count":4,"max":[-0.03125,0.16687500476837158,-0.918749988079071],"min":[-0.13437500596046448,0.012500000186264515,-0.9293749928474426],"type":"VEC3"},{"bufferView":4,"componentType":5126,"count":1,"max":[0],"min":[0],"type":"SCALAR"},{"bufferView":5,"componentType":5126,"count":1,"max":[1,1.5,1],"min":[1,1.5,1],"type":"VEC3"},{"bufferView":6,"componentType":5126,"count":2,"max":[0.25],"min":[0],"type":"SCALAR"},{"bufferView":7,"componentType":5126,"count":2,"max":[-4.423203734456241e-17,0.7223639488220215,-0.6915130615234375,4.234296196628321e-17],"min":[-4.423203734456241e-17,0.7223639488220215,-0.6915130615234375,4.234296196628321e-17],"type":"VEC4"},{"bufferView":8,"componentType":5126,"count":6,"max":[0.25],"min":[0],"type":"SCALAR"},{"bufferView":9,"componentType":5126,"count":6,"max":[0.01875000074505806,-0.125,0.375],"min":[-0.23125000298023224,-1.75,-0.0625],"type":"VEC3"},{"bufferView":10,"componentType":5126,"count":1,"max":[0],"min":[0],"type":"SCALAR"},{"bufferView":11,"componentType":5126,"count":1,"max":[1,1.5,1],"min":[1,1.5,1],"type":"VEC3"},{"bufferView":12,"componentType":5126,"count":8,"max":[0.4000000059604645],"min":[0],"type":"SCALAR"},{"bufferView":13,"componentType":5126,"count":8,"max":[0.08151315897703171,0.05009745806455612,0.5358275175094604,1],"min":[0,0,0,0.8401139974594116],"type":"VEC4"},{"bufferView":14,"componentType":5126,"count":8,"max":[0.5],"min":[0],"type":"SCALAR"},{"bufferView":15,"componentType":5126,"count":8,"max":[0.5,0.38793402910232544,1.0625],"min":[0.3921875059604645,0.3499999940395355,0.9587176442146301],"type":"VEC3"},{"bufferView":16,"componentType":5126,"count":2,"max":[0.5],"min":[0],"type":"SCALAR"},{"bufferView":17,"componentType":5126,"count":2,"max":[-0.5,-2.09375,0.25],"min":[-0.6875,-2.1875,-0.109375],"type":"VEC3"}]}