{"asset":{"version":"2.0","generator":"Blockbench 4.2.4 glTF exporter"},"scenes":[{"nodes":[12],"name":"blockbench_export"}],"scene":0,"nodes":[{"translation":[0.375,-0.6875,0],"name":"RightHand"},{"translation":[-0.375,0.6,-0.625],"name":"R","children":[0]},{"translation":[-0.0011443749999999753,0.04802187499999999,-0.0002449999999999952],"name":"pull2"},{"translation":[0,0.125,-0.5625],"name":"m16a4_default","children":[2]},{"translation":[0,0.1875,-0.29374999999999996],"name":"mag_group"},{"translation":[0,-0.0625,-0.26875000000000004],"name":"m16a4_standard_mag","children":[4]},{"translation":[0,-0.21250000000000002,-0.0625],"name":"m16a4","children":[3,5]},{"translation":[0,0.275,0],"name":"bone","children":[1,6]},{"translation":[-0.375,-0.6875,0],"name":"LeftHand"},{"translation":[0.375,0.875,-0.625],"name":"l","children":[8]},{"translation":[0.5,0.3125,1.125],"name":"bone2","children":[7,9]},{"translation":[0.29375,0.8875,1.68125],"name":"cameraK"},{"children":[10,11]}],"animations":[{"name":"draw","samplers":[{"input":0,"output":1,"interpolation":"LINEAR"},{"input":2,"output":3,"interpolation":"LINEAR"},{"input":4,"output":5,"interpolation":"LINEAR"},{"input":6,"output":7,"interpolation":"LINEAR"},{"input":8,"output":9,"interpolation":"LINEAR"},{"input":10,"output":11,"interpolation":"LINEAR"},{"input":12,"output":13,"interpolation":"LINEAR"},{"input":14,"output":15,"interpolation":"LINEAR"},{"input":16,"output":17,"interpolation":"LINEAR"},{"input":18,"output":19,"interpolation":"LINEAR"},{"input":20,"output":21,"interpolation":"LINEAR"},{"input":22,"output":23,"interpolation":"LINEAR"}],"channels":[{"sampler":0,"target":{"node":1,"path":"rotation"}},{"sampler":1,"target":{"node":1,"path":"translation"}},{"sampler":2,"target":{"node":1,"path":"scale"}},{"sampler":3,"target":{"node":9,"path":"rotation"}},{"sampler":4,"target":{"node":9,"path":"translation"}},{"sampler":5,"target":{"node":9,"path":"scale"}},{"sampler":6,"target":{"node":10,"path":"rotation"}},{"sampler":7,"target":{"node":10,"path":"translation"}},{"sampler":8,"target":{"node":7,"path":"rotation"}},{"sampler":9,"target":{"node":7,"path":"translation"}},{"sampler":10,"target":{"node":7,"path":"scale"}},{"sampler":11,"target":{"node":11,"path":"rotation"}}]}],"bufferViews":[{"buffer":0,"byteOffset":0,"byteLength":4},{"buffer":0,"byteOffset":4,"byteLength":16},{"buffer":0,"byteOffset":20,"byteLength":4},{"buffer":0,"byteOffset":24,"byteLength":12},{"buffer":0,"byteOffset":36,"byteLength":4},{"buffer":0,"byteOffset":40,"byteLength":12},{"buffer":0,"byteOffset":52,"byteLength":44},{"buffer":0,"byteOffset":96,"byteLength":176},{"buffer":0,"byteOffset":272,"byteLength":4},{"buffer":0,"byteOffset":276,"byteLength":12},{"buffer":0,"byteOffset":288,"byteLength":4},{"buffer":0,"byteOffset":292,"byteLength":12},{"buffer":0,"byteOffset":304,"byteLength":44},{"buffer":0,"byteOffset":348,"byteLength":176},{"buffer":0,"byteOffset":524,"byteLength":48},{"buffer":0,"byteOffset":572,"byteLength":144},{"buffer":0,"byteOffset":716,"byteLength":20},{"buffer":0,"byteOffset":736,"byteLength":80},{"buffer":0,"byteOffset":816,"byteLength":4},{"buffer":0,"byteOffset":820,"byteLength":12},{"buffer":0,"byteOffset":832,"byteLength":4},{"buffer":0,"byteOffset":836,"byteLength":12},{"buffer":0,"byteOffset":848,"byteLength":40},{"buffer":0,"byteOffset":888,"byteLength":160}],"buffers":[{"byteLength":1048,"uri":"data:application/octet-stream;base64,"}],"accessors":[{"bufferView":0,"componentType":5126,"count":1,"max":[0],"min":[0],"type":"SCALAR"},{"bufferView":1,"componentType":5126,"count":1,"max":[-4.6036909045206166e-17,0.751839816570282,-0.659345805644989,4.037328610911684e-17],"min":[-4.6036909045206166e-17,0.751839816570282,-0.659345805644989,4.037328610911684e-17],"type":"VEC4"},{"bufferView":2,"componentType":5126,"count":1,"max":[0],"min":[0],"type":"SCALAR"},{"bufferView":3,"componentType":5126,"count":1,"max":[0.012500000186264515,-0.2750000059604645,-0.0625],"min":[0.012500000186264515,-0.2750000059604645,-0.0625],"type":"VEC3"},{"bufferView":4,"componentType":5126,"count":1,"max":[0],"min":[0],"type":"SCALAR"},{"bufferView":5,"componentType":5126,"count":1,"max":[1,1.5,1],"min":[1,1.5,1],"type":"VEC3"},{"bufferView":6,"componentType":5126,"count":11,"max":[0.6499999761581421],"min":[0],"type":"SCALAR"},{"bufferView":7,"componentType":5126,"count":11,"max":[0.19013679027557373,0.6817149519920349,-0.3919171094894409,0.6024609208106995],"min":[-0.12114842236042023,0.6687973141670227,-0.5438629388809204,0.48665085434913635],"type":"VEC4"},{"bufferView":8,"componentType":5126,"count":1,"max":[0],"min":[0],"type":"SCALAR"},{"bufferView":9,"componentType":5126,"count":1,"max":[-0.10000000149011612,0.125,-0.75],"min":[-0.10000000149011612,0.125,-0.75],"type":"VEC3"},{"bufferView":10,"componentType":5126,"count":1,"max":[0],"min":[0],"type":"SCALAR"},{"bufferView":11,"componentType":5126,"count":1,"max":[1,1.5,1],"min":[1,1.5,1],"type":"VEC3"},{"bufferView":12,"componentType":5126,"count":11,"max":[0.699999988079071],"min":[0],"type":"SCALAR"},{"bufferView":13,"componentType":5126,"count":11,"max":[0.09943936765193939,0.2690386474132538,0.4606371819972992,1],"min":[-0.4569121301174164,-0.0010071240831166506,-0.014221464283764362,0.7118025422096252],"type":"VEC4"},{"bufferView":14,"componentType":5126,"count":12,"max":[0.699999988079071],"min":[0],"type":"SCALAR"},{"bufferView":15,"componentType":5126,"count":12,"max":[0.8125,0.3125,1.4375],"min":[0.47685185074806213,-0.125,1.024999976158142],"type":"VEC3"},{"bufferView":16,"componentType":5126,"count":5,"max":[0.6000000238418579],"min":[0],"type":"SCALAR"},{"bufferView":17,"componentType":5126,"count":5,"max":[0.237685889005661,0,0.02181488461792469,1],"min":[0,0,-0.02181488461792469,0.9713420867919922],"type":"VEC4"},{"bufferView":18,"componentType":5126,"count":1,"max":[0],"min":[0],"type":"SCALAR"},{"bufferView":19,"componentType":5126,"count":1,"max":[0,0.2750000059604645,0],"min":[0,0.2750000059604645,0],"type":"VEC3"},{"bufferView":20,"componentType":5126,"count":1,"max":[0],"min":[0],"type":"SCALAR"},{"bufferView":21,"componentType":5126,"count":1,"max":[1,1,1],"min":[1,1,1],"type":"VEC3"},{"bufferView":22,"componentType":5126,"count":10,"max":[0.550000011920929],"min":[0],"type":"SCALAR"},{"bufferView":23,"componentType":5126,"count":10,"max":[0.00023837691696826369,0.005530031863600016,0.004285704344511032,1],"min":[-0.00862235575914383,-0.0003427827905397862,-0.011323674581944942,0.9999135732650757],"type":"VEC4"}]}