{"asset":{"version":"2.0","generator":"Blockbench 4.2.4 glTF exporter"},"scenes":[{"nodes":[12],"name":"blockbench_export"}],"scene":0,"nodes":[{"translation":[0.375,-0.6875,0],"name":"RightHand"},{"translation":[-0.375,0.6,-0.625],"name":"R","children":[0]},{"translation":[-0.0011443749999999753,0.04802187499999999,-0.0002449999999999952],"name":"pull2"},{"translation":[0,0.125,-0.5625],"name":"m16a4_default","children":[2]},{"translation":[0,0.1875,-0.29374999999999996],"name":"mag_group"},{"translation":[0,-0.0625,-0.26875000000000004],"name":"m16a4_standard_mag","children":[4]},{"translation":[0,-0.21250000000000002,-0.0625],"name":"m16a4","children":[3,5]},{"translation":[0,0.275,0],"name":"bone","children":[1,6]},{"translation":[-0.375,-0.6875,0],"name":"LeftHand"},{"translation":[0.375,0.875,-0.625],"name":"l","children":[8]},{"translation":[0.5,0.3125,1.125],"name":"bone2","children":[7,9]},{"translation":[0.29375,0.8875,1.68125],"name":"cameraK"},{"children":[10,11]}],"animations":[{"name":"inspect","samplers":[{"input":0,"output":1,"interpolation":"LINEAR"},{"input":2,"output":3,"interpolation":"LINEAR"},{"input":4,"output":5,"interpolation":"LINEAR"},{"input":6,"output":7,"interpolation":"LINEAR"},{"input":8,"output":9,"interpolation":"LINEAR"},{"input":10,"output":11,"interpolation":"LINEAR"},{"input":12,"output":13,"interpolation":"LINEAR"},{"input":14,"output":15,"interpolation":"LINEAR"},{"input":16,"output":17,"interpolation":"LINEAR"},{"input":18,"output":19,"interpolation":"LINEAR"},{"input":20,"output":21,"interpolation":"LINEAR"}],"channels":[{"sampler":0,"target":{"node":1,"path":"rotation"}},{"sampler":1,"target":{"node":1,"path":"translation"}},{"sampler":2,"target":{"node":1,"path":"scale"}},{"sampler":3,"target":{"node":9,"path":"rotation"}},{"sampler":4,"target":{"node":9,"path":"translation"}},{"sampler":5,"target":{"node":9,"path":"scale"}},{"sampler":6,"target":{"node":7,"path":"rotation"}},{"sampler":7,"target":{"node":7,"path":"translation"}},{"sampler":8,"target":{"node":10,"path":"rotation"}},{"sampler":9,"target":{"node":10,"path":"translation"}},{"sampler":10,"target":{"node":11,"path":"rotation"}}]}],"bufferViews":[{"buffer":0,"byteOffset":0,"byteLength":24},{"buffer":0,"byteOffset":24,"byteLength":96},{"buffer":0,"byteOffset":120,"byteLength":20},{"buffer":0,"byteOffset":140,"byteLength":60},{"buffer":0,"byteOffset":200,"byteLength":4},{"buffer":0,"byteOffset":204,"byteLength":12},{"buffer":0,"byteOffset":216,"byteLength":356},{"buffer":0,"byteOffset":572,"byteLength":1424},{"buffer":0,"byteOffset":1996,"byteLength":216},{"buffer":0,"byteOffset":2212,"byteLength":648},{"buffer":0,"byteOffset":2860,"byteLength":4},{"buffer":0,"byteOffset":2864,"byteLength":12},{"buffer":0,"byteOffset":2876,"byteLength":372},{"buffer":0,"byteOffset":3248,"byteLength":1488},{"buffer":0,"byteOffset":4736,"byteLength":208},{"buffer":0,"byteOffset":4944,"byteLength":624},{"buffer":0,"byteOffset":5568,"byteLength":356},{"buffer":0,"byteOffset":5924,"byteLength":1424},{"buffer":0,"byteOffset":7348,"byteLength":364},{"buffer":0,"byteOffset":7712,"byteLength":1092},{"buffer":0,"byteOffset":8804,"byteLength":360},{"buffer":0,"byteOffset":9164,"byteLength":1440}],"buffers":[{"byteLength":10604,"uri":"data:application/octet-stream;base64,"}],"accessors":[{"bufferView":0,"componentType":5126,"count":6,"max":[5.099999904632568],"min":[0],"type":"SCALAR"},{"bufferView":1,"componentType":5126,"count":6,"max":[-4.6036909045206166e-17,0.7557238936424255,-0.5780161619186401,4.037328610911684e-17],"min":[-0.2989881932735443,0.7440653443336487,-0.659345805644989,-0.16059114038944244],"type":"VEC4"},{"bufferView":2,"componentType":5126,"count":5,"max":[5.099999904632568],"min":[0],"type":"SCALAR"},{"bufferView":3,"componentType":5126,"count":5,"max":[0.04374999925494194,-0.2750000059604645,-0.03125],"min":[0.012500000186264515,-0.2750000059604645,-0.0625],"type":"VEC3"},{"bufferView":4,"componentType":5126,"count":1,"max":[0],"min":[0],"type":"SCALAR"},{"bufferView":5,"componentType":5126,"count":1,"max":[1,1.5,1],"min":[1,1.5,1],"type":"VEC3"},{"bufferView":6,"componentType":5126,"count":89,"max":[5.150000095367432],"min":[0],"type":"SCALAR"},{"bufferView":7,"componentType":5126,"count":89,"max":[0.35411375761032104,0.713432788848877,-0.4166906177997589,0.6410699486732483],"min":[-0.1631104052066803,0.539284884929657,-0.6180697679519653,0.33851343393325806],"type":"VEC4"},{"bufferView":8,"componentType":5126,"count":54,"max":[5.150000095367432],"min":[0],"type":"SCALAR"},{"bufferView":9,"componentType":5126,"count":54,"max":[-0.02500000037252903,0.125,-0.44999998807907104],"min":[-0.9868054986000061,-1.0298991203308105,-0.7699224352836609],"type":"VEC3"},{"bufferView":10,"componentType":5126,"count":1,"max":[0],"min":[0],"type":"SCALAR"},{"bufferView":11,"componentType":5126,"count":1,"max":[1,1.5,1],"min":[1,1.5,1],"type":"VEC3"},{"bufferView":12,"componentType":5126,"count":93,"max":[5.650000095367432],"min":[0],"type":"SCALAR"},{"bufferView":13,"componentType":5126,"count":93,"max":[0.1779579520225525,0.10723750293254852,0.4927864670753479,1],"min":[-0.00007809963426552713,-0.0016385248163715005,-0.45968368649482727,0.8657239079475403],"type":"VEC4"},{"bufferView":14,"componentType":5126,"count":52,"max":[5.300000190734863],"min":[0],"type":"SCALAR"},{"bufferView":15,"componentType":5126,"count":52,"max":[0.10000000149011612,0.2786308228969574,0],"min":[-0.11249999701976776,0.21682870388031006,-0.03796274587512016],"type":"VEC3"},{"bufferView":16,"componentType":5126,"count":89,"max":[5.650000095367432],"min":[0],"type":"SCALAR"},{"bufferView":17,"componentType":5126,"count":89,"max":[0.19086386263370514,0.01047724299132824,0.12577545642852783,1],"min":[-0.043577875941991806,-0.05469253286719322,-0.00608060322701931,0.9813107252120972],"type":"VEC4"},{"bufferView":18,"componentType":5126,"count":91,"max":[5.650000095367432],"min":[0],"type":"SCALAR"},{"bufferView":19,"componentType":5126,"count":91,"max":[0.520035982131958,0.3412500023841858,1.1263717412948608],"min":[0.48249998688697815,0.2664128839969635,1.068750023841858],"type":"VEC3"},{"bufferView":20,"componentType":5126,"count":90,"max":[5.550000190734863],"min":[0],"type":"SCALAR"},{"bufferView":21,"componentType":5126,"count":90,"max":[0.0035188535694032907,0,0.006009669508785009,1],"min":[-0.1107277199625969,-0.05601153522729874,-0.012800977565348148,0.9922237992286682],"type":"VEC4"}]}