{"asset":{"version":"2.0","generator":"Blockbench 4.2.4 glTF exporter"},"scenes":[{"nodes":[12],"name":"blockbench_export"}],"scene":0,"nodes":[{"translation":[0.375,-0.6875,0],"name":"RightHand"},{"translation":[-0.375,0.6,-0.625],"name":"R","children":[0]},{"translation":[-0.0011443749999999753,0.04802187499999999,-0.0002449999999999952],"name":"pull2"},{"translation":[0,0.125,-0.5625],"name":"m16a4_default","children":[2]},{"translation":[0,0.1875,-0.29374999999999996],"name":"mag_group"},{"translation":[0,-0.0625,-0.26875000000000004],"name":"m16a4_standard_mag","children":[4]},{"translation":[0,-0.21250000000000002,-0.0625],"name":"m16a4","children":[3,5]},{"translation":[0,0.275,0],"name":"bone","children":[1,6]},{"translation":[-0.375,-0.6875,0],"name":"LeftHand"},{"translation":[0.375,0.875,-0.625],"name":"l","children":[8]},{"translation":[0.5,0.3125,1.125],"name":"bone2","children":[7,9]},{"translation":[0.29375,0.8875,1.68125],"name":"cameraK"},{"children":[10,11]}],"animations":[{"name":"reload_norm","samplers":[{"input":0,"output":1,"interpolation":"LINEAR"},{"input":2,"output":3,"interpolation":"LINEAR"},{"input":4,"output":5,"interpolation":"LINEAR"},{"input":6,"output":7,"interpolation":"LINEAR"},{"input":8,"output":9,"interpolation":"LINEAR"},{"input":10,"output":11,"interpolation":"LINEAR"},{"input":12,"output":13,"interpolation":"LINEAR"},{"input":14,"output":15,"interpolation":"LINEAR"},{"input":16,"output":17,"interpolation":"LINEAR"},{"input":18,"output":19,"interpolation":"LINEAR"},{"input":20,"output":21,"interpolation":"LINEAR"},{"input":22,"output":23,"interpolation":"LINEAR"},{"input":24,"output":25,"interpolation":"LINEAR"}],"channels":[{"sampler":0,"target":{"node":1,"path":"rotation"}},{"sampler":1,"target":{"node":1,"path":"translation"}},{"sampler":2,"target":{"node":1,"path":"scale"}},{"sampler":3,"target":{"node":9,"path":"rotation"}},{"sampler":4,"target":{"node":9,"path":"translation"}},{"sampler":5,"target":{"node":9,"path":"scale"}},{"sampler":6,"target":{"node":7,"path":"rotation"}},{"sampler":7,"target":{"node":7,"path":"translation"}},{"sampler":8,"target":{"node":10,"path":"rotation"}},{"sampler":9,"target":{"node":10,"path":"translation"}},{"sampler":10,"target":{"node":11,"path":"rotation"}},{"sampler":11,"target":{"node":5,"path":"rotation"}},{"sampler":12,"target":{"node":5,"path":"translation"}}]}],"bufferViews":[{"buffer":0,"byteOffset":0,"byteLength":168},{"buffer":0,"byteOffset":168,"byteLength":672},{"buffer":0,"byteOffset":840,"byteLength":4},{"buffer":0,"byteOffset":844,"byteLength":12},{"buffer":0,"byteOffset":856,"byteLength":4},{"buffer":0,"byteOffset":860,"byteLength":12},{"buffer":0,"byteOffset":872,"byteLength":144},{"buffer":0,"byteOffset":1016,"byteLength":576},{"buffer":0,"byteOffset":1592,"byteLength":128},{"buffer":0,"byteOffset":1720,"byteLength":384},{"buffer":0,"byteOffset":2104,"byteLength":4},{"buffer":0,"byteOffset":2108,"byteLength":12},{"buffer":0,"byteOffset":2120,"byteLength":160},{"buffer":0,"byteOffset":2280,"byteLength":640},{"buffer":0,"byteOffset":2920,"byteLength":144},{"buffer":0,"byteOffset":3064,"byteLength":432},{"buffer":0,"byteOffset":3496,"byteLength":160},{"buffer":0,"byteOffset":3656,"byteLength":640},{"buffer":0,"byteOffset":4296,"byteLength":156},{"buffer":0,"byteOffset":4452,"byteLength":468},{"buffer":0,"byteOffset":4920,"byteLength":164},{"buffer":0,"byteOffset":5084,"byteLength":656},{"buffer":0,"byteOffset":5740,"byteLength":40},{"buffer":0,"byteOffset":5780,"byteLength":160},{"buffer":0,"byteOffset":5940,"byteLength":44},{"buffer":0,"byteOffset":5984,"byteLength":132}],"buffers":[{"byteLength":6116,"uri":"data:application/octet-stream;base64,"}],"accessors":[{"bufferView":0,"componentType":5126,"count":42,"max":[2.25],"min":[0],"type":"SCALAR"},{"bufferView":1,"componentType":5126,"count":42,"max":[-4.6036909045206166e-17,0.8063850998878479,-0.5493214130401611,4.037328610911684e-17],"min":[-0.1455998420715332,0.751839816570282,-0.659345805644989,-0.1636756956577301],"type":"VEC4"},{"bufferView":2,"componentType":5126,"count":1,"max":[0],"min":[0],"type":"SCALAR"},{"bufferView":3,"componentType":5126,"count":1,"max":[0.012500000186264515,-0.2750000059604645,-0.0625],"min":[0.012500000186264515,-0.2750000059604645,-0.0625],"type":"VEC3"},{"bufferView":4,"componentType":5126,"count":1,"max":[0],"min":[0],"type":"SCALAR"},{"bufferView":5,"componentType":5126,"count":1,"max":[1,1.5,1],"min":[1,1.5,1],"type":"VEC3"},{"bufferView":6,"componentType":5126,"count":36,"max":[2.049999952316284],"min":[0],"type":"SCALAR"},{"bufferView":7,"componentType":5126,"count":36,"max":[0.49946627020835876,0.814274787902832,-0.38448071479797363,0.5080214142799377],"min":[-0.10921487957239151,0.6617817878723145,-0.5929592847824097,-0.17159369587898254],"type":"VEC4"},{"bufferView":8,"componentType":5126,"count":32,"max":[2.049999952316284],"min":[0],"type":"SCALAR"},{"bufferView":9,"componentType":5126,"count":32,"max":[-0.03750000149011612,0.125,-0.390625],"min":[-0.4593749940395355,-1.3125,-0.75],"type":"VEC3"},{"bufferView":10,"componentType":5126,"count":1,"max":[0],"min":[0],"type":"SCALAR"},{"bufferView":11,"componentType":5126,"count":1,"max":[1,1.5,1],"min":[1,1.5,1],"type":"VEC3"},{"bufferView":12,"componentType":5126,"count":40,"max":[2.299999952316284],"min":[0],"type":"SCALAR"},{"bufferView":13,"componentType":5126,"count":40,"max":[0.017801795154809952,0.0003859264252241701,0.017452405765652657,1],"min":[-0.017453277483582497,-0.03308210149407387,-0.15638096630573273,0.9875766038894653],"type":"VEC4"},{"bufferView":14,"componentType":5126,"count":36,"max":[2.1500000953674316],"min":[0],"type":"SCALAR"},{"bufferView":15,"componentType":5126,"count":36,"max":[0,0.28125,0.015625],"min":[0,0.26249998807907104,-0.011874999850988388],"type":"VEC3"},{"bufferView":16,"componentType":5126,"count":40,"max":[2.299999952316284],"min":[0],"type":"SCALAR"},{"bufferView":17,"componentType":5126,"count":40,"max":[0.2036452293395996,0.021312272176146507,0.00873849168419838,1],"min":[-0.0008130109636113048,-0.000572701683267951,-0.1283792406320572,0.9735082983970642],"type":"VEC4"},{"bufferView":18,"componentType":5126,"count":39,"max":[2.4000000953674316],"min":[0],"type":"SCALAR"},{"bufferView":19,"componentType":5126,"count":39,"max":[0.5066015720367432,0.34687501192092896,1.131250023841858],"min":[0.49937498569488525,0.25874999165534973,0.987500011920929],"type":"VEC3"},{"bufferView":20,"componentType":5126,"count":41,"max":[2.299999952316284],"min":[0],"type":"SCALAR"},{"bufferView":21,"componentType":5126,"count":41,"max":[0.000154427470988594,0.00007763184839859605,0.015097138471901417,1],"min":[-0.01147681474685669,-0.010917496867477894,-0.004018705803900957,0.999849259853363],"type":"VEC4"},{"bufferView":22,"componentType":5126,"count":10,"max":[1.350000023841858],"min":[0.30000001192092896],"type":"SCALAR"},{"bufferView":23,"componentType":5126,"count":10,"max":[0,0,0,1],"min":[0,0,-0.19509032368659973,0.9807852506637573],"type":"VEC4"},{"bufferView":24,"componentType":5126,"count":11,"max":[1.350000023841858],"min":[0.30000001192092896],"type":"SCALAR"},{"bufferView":25,"componentType":5126,"count":11,"max":[0,-0.0625,-0.26875001192092896],"min":[-0.125,-1.3125,-0.26875001192092896],"type":"VEC3"}]}