{"asset":{"version":"2.0","generator":"Blockbench 4.5.2 glTF exporter"},"scenes":[{"nodes":[19],"name":"blockbench_export"}],"scene":0,"nodes":[{"translation":[0.375,-0.6875,0],"name":"RightHand"},{"translation":[-0.375,0.6,-0.625],"name":"R","children":[0]},{"translation":[-0.0011443749999999753,0.04802187499999999,-0.0002449999999999952],"name":"pull2"},{"translation":[0,0.125,-0.5625],"name":"m16a4_default","children":[2]},{"translation":[0.002189375000000049,0.5328762499999999,0.24695937499999998],"name":"group35"},{"name":"bolt2","children":[4]},{"translation":[0,0.125,-0.5625],"name":"m16a4_bolt","children":[5]},{"translation":[0.75,0.510266875,0.7265625],"name":"group36"},{"translation":[-0.5,-0.5,-0.5],"name":"bullet3","children":[7]},{"translation":[0,-0.264173125,-0.24899812500000001],"name":"magazine2"},{"translation":[0,0.1875,-0.29374999999999996],"name":"mag_group","children":[8,9]},{"translation":[0,-0.0625,-0.26875000000000004],"name":"m16a4_standard_mag","children":[10]},{"translation":[0,-0.21250000000000002,-0.0625],"name":"m16a4","children":[3,6,11]},{"translation":[0,0.275,0],"name":"bone","children":[1,12]},{"translation":[-0.375,-0.6875,0],"name":"LeftHand"},{"translation":[0.375,0.875,-0.625],"name":"l","children":[14]},{"translation":[0.5,0.3125,1.125],"name":"bone2","children":[13,15]},{"name":"bone3"},{"translation":[0.29375,0.8875,1.68125],"name":"cameraK"},{"children":[16,17,18]}],"animations":[{"name":"reload_empty","samplers":[{"input":0,"output":1,"interpolation":"LINEAR"},{"input":2,"output":3,"interpolation":"LINEAR"},{"input":4,"output":5,"interpolation":"LINEAR"},{"input":6,"output":7,"interpolation":"LINEAR"},{"input":8,"output":9,"interpolation":"LINEAR"},{"input":10,"output":11,"interpolation":"LINEAR"},{"input":12,"output":13,"interpolation":"LINEAR"},{"input":14,"output":15,"interpolation":"LINEAR"},{"input":16,"output":17,"interpolation":"LINEAR"},{"input":18,"output":19,"interpolation":"LINEAR"},{"input":20,"output":21,"interpolation":"LINEAR"},{"input":22,"output":23,"interpolation":"LINEAR"},{"input":24,"output":25,"interpolation":"LINEAR"},{"input":26,"output":27,"interpolation":"LINEAR"},{"input":28,"output":29,"interpolation":"LINEAR"}],"channels":[{"sampler":0,"target":{"node":1,"path":"rotation"}},{"sampler":1,"target":{"node":1,"path":"translation"}},{"sampler":2,"target":{"node":1,"path":"scale"}},{"sampler":3,"target":{"node":15,"path":"rotation"}},{"sampler":4,"target":{"node":15,"path":"translation"}},{"sampler":5,"target":{"node":15,"path":"scale"}},{"sampler":6,"target":{"node":13,"path":"rotation"}},{"sampler":7,"target":{"node":13,"path":"translation"}},{"sampler":8,"target":{"node":16,"path":"rotation"}},{"sampler":9,"target":{"node":16,"path":"translation"}},{"sampler":10,"target":{"node":2,"path":"rotation"}},{"sampler":11,"target":{"node":2,"path":"translation"}},{"sampler":12,"target":{"node":6,"path":"translation"}},{"sampler":13,"target":{"node":11,"path":"rotation"}},{"sampler":14,"target":{"node":11,"path":"translation"}}]}],"bufferViews":[{"buffer":0,"byteOffset":0,"byteLength":204},{"buffer":0,"byteOffset":204,"byteLength":816},{"buffer":0,"byteOffset":1020,"byteLength":204},{"buffer":0,"byteOffset":1224,"byteLength":612},{"buffer":0,"byteOffset":1836,"byteLength":4},{"buffer":0,"byteOffset":1840,"byteLength":12},{"buffer":0,"byteOffset":1852,"byteLength":172},{"buffer":0,"byteOffset":2024,"byteLength":688},{"buffer":0,"byteOffset":2712,"byteLength":160},{"buffer":0,"byteOffset":2872,"byteLength":480},{"buffer":0,"byteOffset":3352,"byteLength":4},{"buffer":0,"byteOffset":3356,"byteLength":12},{"buffer":0,"byteOffset":3368,"byteLength":196},{"buffer":0,"byteOffset":3564,"byteLength":784},{"buffer":0,"byteOffset":4348,"byteLength":180},{"buffer":0,"byteOffset":4528,"byteLength":540},{"buffer":0,"byteOffset":5068,"byteLength":212},{"buffer":0,"byteOffset":5280,"byteLength":848},{"buffer":0,"byteOffset":6128,"byteLength":192},{"buffer":0,"byteOffset":6320,"byteLength":576},{"buffer":0,"byteOffset":6896,"byteLength":12},{"buffer":0,"byteOffset":6908,"byteLength":48},{"buffer":0,"byteOffset":6956,"byteLength":32},{"buffer":0,"byteOffset":6988,"byteLength":96},{"buffer":0,"byteOffset":7084,"byteLength":12},{"buffer":0,"byteOffset":7096,"byteLength":36},{"buffer":0,"byteOffset":7132,"byteLength":84},{"buffer":0,"byteOffset":7216,"byteLength":336},{"buffer":0,"byteOffset":7552,"byteLength":88},{"buffer":0,"byteOffset":7640,"byteLength":264}],"buffers":[{"byteLength":7904,"uri":"data:application/octet-stream;base64,"}],"accessors":[{"bufferView":0,"componentType":5126,"count":51,"max":[2.9000000953674316],"min":[0],"type":"SCALAR"},{"bufferView":1,"componentType":5126,"count":51,"max":[-4.6036909045206166e-17,0.7552644610404968,-0.6184011101722717,4.037328610911684e-17],"min":[-0.19582457840442657,0.7392297387123108,-0.659345805644989,-0.1810310184955597],"type":"VEC4"},{"bufferView":2,"componentType":5126,"count":51,"max":[2.9000000953674316],"min":[0],"type":"SCALAR"},{"bufferView":3,"componentType":5126,"count":51,"max":[0.047656089067459106,-0.2750000059604645,-0.027343910187482834],"min":[0.012500000186264515,-0.2750000059604645,-0.0625],"type":"VEC3"},{"bufferView":4,"componentType":5126,"count":1,"max":[0],"min":[0],"type":"SCALAR"},{"bufferView":5,"componentType":5126,"count":1,"max":[1,1.5,1],"min":[1,1.5,1],"type":"VEC3"},{"bufferView":6,"componentType":5126,"count":43,"max":[2.950000047683716],"min":[0],"type":"SCALAR"},{"bufferView":7,"componentType":5126,"count":43,"max":[0.6802222728729248,0.8367429971694946,0.043891604989767075,0.4897673726081848],"min":[-0.10923656076192856,0.49342265725135803,-0.6069299578666687,-0.7388747930526733],"type":"VEC4"},{"bufferView":8,"componentType":5126,"count":40,"max":[2.950000047683716],"min":[0],"type":"SCALAR"},{"bufferView":9,"componentType":5126,"count":40,"max":[-0.0862092599272728,0.25312501192092896,0.7250000238418579],"min":[-1.209375023841858,-0.9624999761581421,-0.8037771582603455],"type":"VEC3"},{"bufferView":10,"componentType":5126,"count":1,"max":[0],"min":[0],"type":"SCALAR"},{"bufferView":11,"componentType":5126,"count":1,"max":[1,1.5,1],"min":[1,1.5,1],"type":"VEC3"},{"bufferView":12,"componentType":5126,"count":49,"max":[3.049999952316284],"min":[0],"type":"SCALAR"},{"bufferView":13,"componentType":5126,"count":49,"max":[0.1567736119031906,0.08155624568462372,0.08989184349775314,1],"min":[-0.07321731001138687,-0.00012014600360998884,-0.34791022539138794,0.9234380722045898],"type":"VEC4"},{"bufferView":14,"componentType":5126,"count":45,"max":[2.950000047683716],"min":[0],"type":"SCALAR"},{"bufferView":15,"componentType":5126,"count":45,"max":[0.06875000149011612,0.28125,0.0062500000931322575],"min":[-0.04374999925494194,0.20624999701976776,-0.012500000186264515],"type":"VEC3"},{"bufferView":16,"componentType":5126,"count":53,"max":[3.0999999046325684],"min":[0],"type":"SCALAR"},{"bufferView":17,"componentType":5126,"count":53,"max":[0.11945971846580505,0.005819383077323437,0.05887266993522644,1],"min":[-0.0012928206706419587,-0.019211407750844955,-0.06108635291457176,0.9913262128829956],"type":"VEC4"},{"bufferView":18,"componentType":5126,"count":48,"max":[3.1500000953674316],"min":[0],"type":"SCALAR"},{"bufferView":19,"componentType":5126,"count":48,"max":[0.543749988079071,0.32505425810813904,1.1875],"min":[0.5,0.24375000596046448,0.8374999761581421],"type":"VEC3"},{"bufferView":20,"componentType":5126,"count":3,"max":[2.450000047683716],"min":[2.299999952316284],"type":"SCALAR"},{"bufferView":21,"componentType":5126,"count":3,"max":[0,0,0,1],"min":[0,0,0,1],"type":"VEC4"},{"bufferView":22,"componentType":5126,"count":8,"max":[2.700000047683716],"min":[0],"type":"SCALAR"},{"bufferView":23,"componentType":5126,"count":8,"max":[-0.0011443749535828829,0.04802187532186508,0.2622550129890442],"min":[-0.0011443749535828829,0.04802187532186508,-0.00024500000290572643],"type":"VEC3"},{"bufferView":24,"componentType":5126,"count":3,"max":[2.5],"min":[0],"type":"SCALAR"},{"bufferView":25,"componentType":5126,"count":3,"max":[0,0.125,-0.3499999940395355],"min":[0,0.125,-0.5625],"type":"VEC3"},{"bufferView":26,"componentType":5126,"count":21,"max":[1.899999976158142],"min":[0],"type":"SCALAR"},{"bufferView":27,"componentType":5126,"count":21,"max":[0.8164036870002747,0.3926662802696228,0,1],"min":[-0.0018559263553470373,-0.04434780031442642,-0.9419808387756348,-0.3683272898197174],"type":"VEC4"},{"bufferView":28,"componentType":5126,"count":22,"max":[1.899999976158142],"min":[0],"type":"SCALAR"},{"bufferView":29,"componentType":5126,"count":22,"max":[0,-0.0625,-0.24312375485897064],"min":[-1.8151462078094482,-8.524999618530273,-2.520210027694702],"type":"VEC3"}]}