{"asset":{"version":"2.0","generator":"Blockbench 4.5.2 glTF exporter"},"scenes":[{"nodes":[13],"name":"blockbench_export"}],"scene":0,"nodes":[{"translation":[-0.375,-0.6875,0],"name":"LeftHand"},{"translation":[0.375,0.875,-0.3125],"name":"l","children":[0]},{"translation":[0.004523749999999993,-0.16652437499999995,0.02025125],"name":"sight"},{"translation":[0.0021475000000000244,-0.31438999999999995,0.08723187500000001],"name":"octagon"},{"translation":[-0.0021475000000000244,0.50189,-0.399731875],"name":"slide","children":[2,3]},{"translation":[-0.046875,0.177734375,-0.03125],"name":"magazine2"},{"translation":[-0.5,-0.0625,-0.8125],"name":"2"},{"translation":[0,-0.25,0],"name":"mb","children":[5,6]},{"name":"gun","children":[4,7]},{"translation":[0.375,-0.6875,0],"name":"RightHand"},{"translation":[-0.375,0.875,-0.3125],"name":"R","children":[9]},{"name":"bone","children":[8,10]},{"translation":[0.5,0.3125,0.8125],"name":"bone2","children":[1,11]},{"children":[12]}],"animations":[{"name":"reload_norm","samplers":[{"input":0,"output":1,"interpolation":"LINEAR"},{"input":2,"output":3,"interpolation":"LINEAR"},{"input":4,"output":5,"interpolation":"LINEAR"},{"input":6,"output":7,"interpolation":"LINEAR"},{"input":8,"output":9,"interpolation":"LINEAR"},{"input":10,"output":11,"interpolation":"LINEAR"},{"input":12,"output":13,"interpolation":"LINEAR"},{"input":14,"output":15,"interpolation":"LINEAR"},{"input":16,"output":17,"interpolation":"LINEAR"},{"input":18,"output":19,"interpolation":"LINEAR"},{"input":20,"output":21,"interpolation":"LINEAR"},{"input":22,"output":23,"interpolation":"LINEAR"},{"input":24,"output":25,"interpolation":"LINEAR"}],"channels":[{"sampler":0,"target":{"node":10,"path":"rotation"}},{"sampler":1,"target":{"node":10,"path":"translation"}},{"sampler":2,"target":{"node":10,"path":"scale"}},{"sampler":3,"target":{"node":1,"path":"rotation"}},{"sampler":4,"target":{"node":1,"path":"translation"}},{"sampler":5,"target":{"node":1,"path":"scale"}},{"sampler":6,"target":{"node":11,"path":"rotation"}},{"sampler":7,"target":{"node":11,"path":"translation"}},{"sampler":8,"target":{"node":7,"path":"rotation"}},{"sampler":9,"target":{"node":7,"path":"translation"}},{"sampler":10,"target":{"node":6,"path":"rotation"}},{"sampler":11,"target":{"node":6,"path":"translation"}},{"sampler":12,"target":{"node":12,"path":"translation"}}]}],"bufferViews":[{"buffer":0,"byteOffset":0,"byteLength":88},{"buffer":0,"byteOffset":88,"byteLength":352},{"buffer":0,"byteOffset":440,"byteLength":88},{"buffer":0,"byteOffset":528,"byteLength":264},{"buffer":0,"byteOffset":792,"byteLength":4},{"buffer":0,"byteOffset":796,"byteLength":12},{"buffer":0,"byteOffset":808,"byteLength":108},{"buffer":0,"byteOffset":916,"byteLength":432},{"buffer":0,"byteOffset":1348,"byteLength":104},{"buffer":0,"byteOffset":1452,"byteLength":312},{"buffer":0,"byteOffset":1764,"byteLength":4},{"buffer":0,"byteOffset":1768,"byteLength":12},{"buffer":0,"byteOffset":1780,"byteLength":140},{"buffer":0,"byteOffset":1920,"byteLength":560},{"buffer":0,"byteOffset":2480,"byteLength":128},{"buffer":0,"byteOffset":2608,"byteLength":384},{"buffer":0,"byteOffset":2992,"byteLength":68},{"buffer":0,"byteOffset":3060,"byteLength":272},{"buffer":0,"byteOffset":3332,"byteLength":84},{"buffer":0,"byteOffset":3416,"byteLength":252},{"buffer":0,"byteOffset":3668,"byteLength":4},{"buffer":0,"byteOffset":3672,"byteLength":16},{"buffer":0,"byteOffset":3688,"byteLength":8},{"buffer":0,"byteOffset":3696,"byteLength":24},{"buffer":0,"byteOffset":3720,"byteLength":128},{"buffer":0,"byteOffset":3848,"byteLength":384}],"buffers":[{"byteLength":4232,"uri":"data:application/octet-stream;base64,"}],"accessors":[{"bufferView":0,"componentType":5126,"count":22,"max":[1.5],"min":[0],"type":"SCALAR"},{"bufferView":1,"componentType":5126,"count":22,"max":[-4.5504495898297635e-17,-0.7119200825691223,0.699601948261261,0.0471065491437912],"min":[-0.04392700642347336,-0.7432407736778259,0.6688353419303894,4.09724328791237e-17],"type":"VEC4"},{"bufferView":2,"componentType":5126,"count":22,"max":[1.5],"min":[0],"type":"SCALAR"},{"bufferView":3,"componentType":5126,"count":22,"max":[0.02500000037252903,-0.02986111119389534,-0.18427567183971405],"min":[0.018287036567926407,-0.05000000074505806,-0.23125000298023224],"type":"VEC3"},{"bufferView":4,"componentType":5126,"count":1,"max":[0],"min":[0],"type":"SCALAR"},{"bufferView":5,"componentType":5126,"count":1,"max":[1.75,2,1.75],"min":[1.75,2,1.75],"type":"VEC3"},{"bufferView":6,"componentType":5126,"count":27,"max":[1.75],"min":[0],"type":"SCALAR"},{"bufferView":7,"componentType":5126,"count":27,"max":[0.6002894639968872,0.9286971688270569,-0.24963682889938354,0.5866133570671082],"min":[-0.004734014626592398,0.7037596106529236,-0.6915130615234375,-0.13802079856395721],"type":"VEC4"},{"bufferView":8,"componentType":5126,"count":26,"max":[1.75],"min":[0],"type":"SCALAR"},{"bufferView":9,"componentType":5126,"count":26,"max":[-0.4124999940395355,0.15625,1.084375023841858],"min":[-1.5970205068588257,-0.831250011920929,-0.24375000596046448],"type":"VEC3"},{"bufferView":10,"componentType":5126,"count":1,"max":[0],"min":[0],"type":"SCALAR"},{"bufferView":11,"componentType":5126,"count":1,"max":[1.75,2,1.75],"min":[1.75,2,1.75],"type":"VEC3"},{"bufferView":12,"componentType":5126,"count":35,"max":[2.049999952316284],"min":[0],"type":"SCALAR"},{"bufferView":13,"componentType":5126,"count":35,"max":[0.2673872411251068,0.48246264457702637,0.09263023734092712,1],"min":[0,-0.007785863243043423,-0.5182536244392395,0.699499785900116],"type":"VEC4"},{"bufferView":14,"componentType":5126,"count":32,"max":[2.049999952316284],"min":[0],"type":"SCALAR"},{"bufferView":15,"componentType":5126,"count":32,"max":[0.0018154149875044823,0.3499999940395355,0.17499999701976776],"min":[-0.04374999925494194,-0.016875000670552254,-0.025624999776482582],"type":"VEC3"},{"bufferView":16,"componentType":5126,"count":17,"max":[1.399999976158142],"min":[0],"type":"SCALAR"},{"bufferView":17,"componentType":5126,"count":17,"max":[0.8051326870918274,0.054682016372680664,0.033060260117053986,1],"min":[-0.19094084203243256,-0.0007920453208498657,-0.03975209966301918,0.5910068154335022],"type":"VEC4"},{"bufferView":18,"componentType":5126,"count":21,"max":[1.5],"min":[0],"type":"SCALAR"},{"bufferView":19,"componentType":5126,"count":21,"max":[0.31180936098098755,-0.25,1.375],"min":[-0.8140624761581421,-2.3022499084472656,0],"type":"VEC3"},{"bufferView":20,"componentType":5126,"count":1,"max":[0.3499999940395355],"min":[0.3499999940395355],"type":"SCALAR"},{"bufferView":21,"componentType":5126,"count":1,"max":[0,0,0,1],"min":[0,0,0,1],"type":"VEC4"},{"bufferView":22,"componentType":5126,"count":2,"max":[0.4000000059604645],"min":[0.3499999940395355],"type":"SCALAR"},{"bufferView":23,"componentType":5126,"count":2,"max":[-0.5,0,-0.8125],"min":[-0.5,-0.0625,-0.8374999761581421],"type":"VEC3"},{"bufferView":24,"componentType":5126,"count":32,"max":[1.7999999523162842],"min":[0],"type":"SCALAR"},{"bufferView":25,"componentType":5126,"count":32,"max":[0.8492793440818787,0.3125,0.8125],"min":[0.5,0.22937500476837158,0.8125],"type":"VEC3"}]}