{"asset":{"version":"2.0","generator":"Blockbench 4.5.2 glTF exporter"},"scenes":[{"nodes":[13],"name":"blockbench_export"}],"scene":0,"nodes":[{"translation":[-0.375,-0.6875,0],"name":"LeftHand"},{"translation":[0.375,0.875,-0.3125],"name":"l","children":[0]},{"translation":[0.004523749999999993,-0.16652437499999995,0.02025125],"name":"sight"},{"translation":[0.0021475000000000244,-0.31438999999999995,0.08723187500000001],"name":"octagon"},{"translation":[-0.0021475000000000244,0.50189,-0.399731875],"name":"slide","children":[2,3]},{"translation":[-0.046875,0.177734375,-0.03125],"name":"magazine2"},{"translation":[-0.5,-0.0625,-0.8125],"name":"2"},{"translation":[0,-0.25,0],"name":"mb","children":[5,6]},{"name":"gun","children":[4,7]},{"translation":[0.375,-0.6875,0],"name":"RightHand"},{"translation":[-0.375,0.875,-0.3125],"name":"R","children":[9]},{"name":"bone","children":[8,10]},{"translation":[0.5,0.3125,0.8125],"name":"bone2","children":[1,11]},{"children":[12]}],"animations":[{"name":"reload_empty","samplers":[{"input":0,"output":1,"interpolation":"LINEAR"},{"input":2,"output":3,"interpolation":"LINEAR"},{"input":4,"output":5,"interpolation":"LINEAR"},{"input":6,"output":7,"interpolation":"LINEAR"},{"input":8,"output":9,"interpolation":"LINEAR"},{"input":10,"output":11,"interpolation":"LINEAR"},{"input":12,"output":13,"interpolation":"LINEAR"},{"input":14,"output":15,"interpolation":"LINEAR"},{"input":16,"output":17,"interpolation":"LINEAR"},{"input":18,"output":19,"interpolation":"LINEAR"},{"input":20,"output":21,"interpolation":"LINEAR"},{"input":22,"output":23,"interpolation":"LINEAR"},{"input":24,"output":25,"interpolation":"LINEAR"}],"channels":[{"sampler":0,"target":{"node":10,"path":"rotation"}},{"sampler":1,"target":{"node":10,"path":"translation"}},{"sampler":2,"target":{"node":10,"path":"scale"}},{"sampler":3,"target":{"node":1,"path":"rotation"}},{"sampler":4,"target":{"node":1,"path":"translation"}},{"sampler":5,"target":{"node":1,"path":"scale"}},{"sampler":6,"target":{"node":11,"path":"rotation"}},{"sampler":7,"target":{"node":11,"path":"translation"}},{"sampler":8,"target":{"node":4,"path":"translation"}},{"sampler":9,"target":{"node":7,"path":"rotation"}},{"sampler":10,"target":{"node":7,"path":"translation"}},{"sampler":11,"target":{"node":12,"path":"translation"}},{"sampler":12,"target":{"node":6,"path":"translation"}}]}],"bufferViews":[{"buffer":0,"byteOffset":0,"byteLength":136},{"buffer":0,"byteOffset":136,"byteLength":544},{"buffer":0,"byteOffset":680,"byteLength":96},{"buffer":0,"byteOffset":776,"byteLength":288},{"buffer":0,"byteOffset":1064,"byteLength":4},{"buffer":0,"byteOffset":1068,"byteLength":12},{"buffer":0,"byteOffset":1080,"byteLength":136},{"buffer":0,"byteOffset":1216,"byteLength":544},{"buffer":0,"byteOffset":1760,"byteLength":136},{"buffer":0,"byteOffset":1896,"byteLength":408},{"buffer":0,"byteOffset":2304,"byteLength":4},{"buffer":0,"byteOffset":2308,"byteLength":12},{"buffer":0,"byteOffset":2320,"byteLength":160},{"buffer":0,"byteOffset":2480,"byteLength":640},{"buffer":0,"byteOffset":3120,"byteLength":156},{"buffer":0,"byteOffset":3276,"byteLength":468},{"buffer":0,"byteOffset":3744,"byteLength":20},{"buffer":0,"byteOffset":3764,"byteLength":60},{"buffer":0,"byteOffset":3824,"byteLength":56},{"buffer":0,"byteOffset":3880,"byteLength":224},{"buffer":0,"byteOffset":4104,"byteLength":76},{"buffer":0,"byteOffset":4180,"byteLength":228},{"buffer":0,"byteOffset":4408,"byteLength":24},{"buffer":0,"byteOffset":4432,"byteLength":72},{"buffer":0,"byteOffset":4504,"byteLength":16},{"buffer":0,"byteOffset":4520,"byteLength":48}],"buffers":[{"byteLength":4568,"uri":"data:application/octet-stream;base64,"}],"accessors":[{"bufferView":0,"componentType":5126,"count":34,"max":[2],"min":[0],"type":"SCALAR"},{"bufferView":1,"componentType":5126,"count":34,"max":[0.030624452978372574,-0.7069523334503174,0.7039767503738403,0.060499683022499084],"min":[-0.04362919554114342,-0.7716166973114014,0.6347163319587708,-0.05152403190732002],"type":"VEC4"},{"bufferView":2,"componentType":5126,"count":24,"max":[1.9500000476837158],"min":[0],"type":"SCALAR"},{"bufferView":3,"componentType":5126,"count":24,"max":[0.05000000074505806,-0.03125,-0.1875],"min":[0.016453124582767487,-0.03125,-0.1875],"type":"VEC3"},{"bufferView":4,"componentType":5126,"count":1,"max":[0],"min":[0],"type":"SCALAR"},{"bufferView":5,"componentType":5126,"count":1,"max":[1.75,2,1.75],"min":[1.75,2,1.75],"type":"VEC3"},{"bufferView":6,"componentType":5126,"count":34,"max":[2.299999952316284],"min":[0],"type":"SCALAR"},{"bufferView":7,"componentType":5126,"count":34,"max":[0.46196675300598145,0.9264392852783203,-0.025631219148635864,0.640378475189209],"min":[-0.17363910377025604,0.6167986392974854,-0.6915130615234375,-0.7620981335639954],"type":"VEC4"},{"bufferView":8,"componentType":5126,"count":34,"max":[2.299999952316284],"min":[0],"type":"SCALAR"},{"bufferView":9,"componentType":5126,"count":34,"max":[-0.24062499403953552,0.15515625476837158,0.625],"min":[-1.3937499523162842,-1.4812500476837158,-0.29875001311302185],"type":"VEC3"},{"bufferView":10,"componentType":5126,"count":1,"max":[0],"min":[0],"type":"SCALAR"},{"bufferView":11,"componentType":5126,"count":1,"max":[1.75,2,1.75],"min":[1.75,2,1.75],"type":"VEC3"},{"bufferView":12,"componentType":5126,"count":40,"max":[2.299999952316284],"min":[0],"type":"SCALAR"},{"bufferView":13,"componentType":5126,"count":40,"max":[0.43651196360588074,0.4596531093120575,0.5800962448120117,1],"min":[-0.018019989132881165,-0.21122479438781738,-0.4104434847831726,0.6615981459617615],"type":"VEC4"},{"bufferView":14,"componentType":5126,"count":39,"max":[2.450000047683716],"min":[0],"type":"SCALAR"},{"bufferView":15,"componentType":5126,"count":39,"max":[0.11249999701976776,0.2750000059604645,0.08375000208616257],"min":[-0.05062500014901161,-0.06687500327825546,-0.13750000298023224],"type":"VEC3"},{"bufferView":16,"componentType":5126,"count":5,"max":[2],"min":[1.7999999523162842],"type":"SCALAR"},{"bufferView":17,"componentType":5126,"count":5,"max":[-0.0021474999375641346,0.5018900036811829,-0.13098187744617462],"min":[-0.0021474999375641346,0.5018900036811829,-0.3997318744659424],"type":"VEC3"},{"bufferView":18,"componentType":5126,"count":14,"max":[1.350000023841858],"min":[0],"type":"SCALAR"},{"bufferView":19,"componentType":5126,"count":14,"max":[0.43530741333961487,0.018151182681322098,0.007232761476188898,1],"min":[-0.0035297854337841272,-0.3472521901130676,-0.5936634540557861,0.637526273727417],"type":"VEC4"},{"bufferView":20,"componentType":5126,"count":19,"max":[1.350000023841858],"min":[0],"type":"SCALAR"},{"bufferView":21,"componentType":5126,"count":19,"max":[0.0014740939950570464,-0.25,1.375],"min":[-0.8125,-1.743749976158142,0],"type":"VEC3"},{"bufferView":22,"componentType":5126,"count":6,"max":[1.7999999523162842],"min":[0],"type":"SCALAR"},{"bufferView":23,"componentType":5126,"count":6,"max":[0.612500011920929,0.3125,0.8125],"min":[0.5,0.3125,0.8125],"type":"VEC3"},{"bufferView":24,"componentType":5126,"count":4,"max":[1.7999999523162842],"min":[1],"type":"SCALAR"},{"bufferView":25,"componentType":5126,"count":4,"max":[-0.5,0.012500000186264515,-0.8125],"min":[-0.5,-0.0625,-0.8374999761581421],"type":"VEC3"}]}