{"asset":{"version":"2.0","generator":"Blockbench 4.2.4 glTF exporter"},"scenes":[{"nodes":[10],"name":"blockbench_export"}],"scene":0,"nodes":[{"translation":[0.375,-0.6875,0],"name":"RightHand"},{"translation":[-0.375,0.9375,-0.75],"name":"R","children":[0]},{"translation":[0,-0.109375,0.5625],"name":"m24_bolt"},{"translation":[0,0.06875,0.0625],"name":"762x51"},{"translation":[0,-0.275,0.38749999999999996],"name":"mb","children":[3]},{"translation":[0,0.25,-0.75],"name":"m24_","children":[2,4]},{"name":"bone","children":[1,5]},{"translation":[-0.375,-0.6875,0],"name":"LeftHand"},{"translation":[0.375,0.9375,-0.75],"name":"l","children":[7]},{"translation":[0.5,0.25,1.25],"name":"bone2","children":[6,8]},{"children":[9]}],"animations":[{"name":"inspect","samplers":[{"input":0,"output":1,"interpolation":"LINEAR"},{"input":2,"output":3,"interpolation":"LINEAR"},{"input":4,"output":5,"interpolation":"LINEAR"},{"input":6,"output":7,"interpolation":"LINEAR"},{"input":8,"output":9,"interpolation":"LINEAR"},{"input":10,"output":11,"interpolation":"LINEAR"},{"input":12,"output":13,"interpolation":"LINEAR"},{"input":14,"output":15,"interpolation":"LINEAR"}],"channels":[{"sampler":0,"target":{"node":1,"path":"rotation"}},{"sampler":1,"target":{"node":1,"path":"translation"}},{"sampler":2,"target":{"node":1,"path":"scale"}},{"sampler":3,"target":{"node":8,"path":"rotation"}},{"sampler":4,"target":{"node":8,"path":"translation"}},{"sampler":5,"target":{"node":8,"path":"scale"}},{"sampler":6,"target":{"node":9,"path":"rotation"}},{"sampler":7,"target":{"node":9,"path":"translation"}}]}],"bufferViews":[{"buffer":0,"byteOffset":0,"byteLength":4},{"buffer":0,"byteOffset":4,"byteLength":16},{"buffer":0,"byteOffset":20,"byteLength":4},{"buffer":0,"byteOffset":24,"byteLength":12},{"buffer":0,"byteOffset":36,"byteLength":4},{"buffer":0,"byteOffset":40,"byteLength":12},{"buffer":0,"byteOffset":52,"byteLength":268},{"buffer":0,"byteOffset":320,"byteLength":1072},{"buffer":0,"byteOffset":1392,"byteLength":36},{"buffer":0,"byteOffset":1428,"byteLength":108},{"buffer":0,"byteOffset":1536,"byteLength":4},{"buffer":0,"byteOffset":1540,"byteLength":12},{"buffer":0,"byteOffset":1552,"byteLength":284},{"buffer":0,"byteOffset":1836,"byteLength":1136},{"buffer":0,"byteOffset":2972,"byteLength":300},{"buffer":0,"byteOffset":3272,"byteLength":900}],"buffers":[{"byteLength":4172,"uri":"data:application/octet-stream;base64,"}],"accessors":[{"bufferView":0,"componentType":5126,"count":1,"max":[0],"min":[0],"type":"SCALAR"},{"bufferView":1,"componentType":5126,"count":1,"max":[-0.11755964159965515,0.786091685295105,-0.604030430316925,-0.05819704383611679],"min":[-0.11755964159965515,0.786091685295105,-0.604030430316925,-0.05819704383611679],"type":"VEC4"},{"bufferView":2,"componentType":5126,"count":1,"max":[0],"min":[0],"type":"SCALAR"},{"bufferView":3,"componentType":5126,"count":1,"max":[0.05000000074505806,-0.09375,-0.08124999701976776],"min":[0.05000000074505806,-0.09375,-0.08124999701976776],"type":"VEC3"},{"bufferView":4,"componentType":5126,"count":1,"max":[0],"min":[0],"type":"SCALAR"},{"bufferView":5,"componentType":5126,"count":1,"max":[1,1.5,1],"min":[1,1.5,1],"type":"VEC3"},{"bufferView":6,"componentType":5126,"count":67,"max":[4.5],"min":[0],"type":"SCALAR"},{"bufferView":7,"componentType":5126,"count":67,"max":[0.1210847720503807,0.5929780602455139,-0.3854449391365051,0.7216688990592957],"min":[-0.2906862795352936,0.4961385726928711,-0.7673311233520508,0.32060930132865906],"type":"VEC4"},{"bufferView":8,"componentType":5126,"count":9,"max":[4.5],"min":[0],"type":"SCALAR"},{"bufferView":9,"componentType":5126,"count":9,"max":[-0.03125,0.02425125055015087,-0.550000011920929],"min":[-0.11139249801635742,-0.07136750221252441,-1.0750000476837158],"type":"VEC3"},{"bufferView":10,"componentType":5126,"count":1,"max":[0],"min":[0],"type":"SCALAR"},{"bufferView":11,"componentType":5126,"count":1,"max":[1,1.5,1],"min":[1,1.5,1],"type":"VEC3"},{"bufferView":12,"componentType":5126,"count":71,"max":[4.599999904632568],"min":[0],"type":"SCALAR"},{"bufferView":13,"componentType":5126,"count":71,"max":[0.2250898778438568,0.05422573536634445,0.5866196751594543,1],"min":[-0.020762240514159203,-0.0012734312331303954,-0.2442224621772766,0.7775838971138],"type":"VEC4"},{"bufferView":14,"componentType":5126,"count":75,"max":[4.550000190734863],"min":[0],"type":"SCALAR"},{"bufferView":15,"componentType":5126,"count":75,"max":[0.578050434589386,0.2874999940395355,1.2687499523162842],"min":[0.4498128592967987,0.22422416508197784,1.146875023841858],"type":"VEC3"}]}