{"asset":{"version":"2.0","generator":"Blockbench 4.2.4 glTF exporter"},"scenes":[{"nodes":[10],"name":"blockbench_export"}],"scene":0,"nodes":[{"translation":[0.375,-0.6875,0],"name":"RightHand"},{"translation":[-0.375,0.9375,-0.75],"name":"R","children":[0]},{"translation":[0,-0.109375,0.5625],"name":"m24_bolt"},{"translation":[0,0.06875,0.0625],"name":"762x51"},{"translation":[0,-0.275,0.38749999999999996],"name":"mb","children":[3]},{"translation":[0,0.25,-0.75],"name":"m24_","children":[2,4]},{"name":"bone","children":[1,5]},{"translation":[-0.375,-0.6875,0],"name":"LeftHand"},{"translation":[0.375,0.9375,-0.75],"name":"l","children":[7]},{"translation":[0.5,0.25,1.25],"name":"bone2","children":[6,8]},{"children":[9]}],"animations":[{"name":"reload_norm","samplers":[{"input":0,"output":1,"interpolation":"LINEAR"},{"input":2,"output":3,"interpolation":"LINEAR"},{"input":4,"output":5,"interpolation":"LINEAR"},{"input":6,"output":7,"interpolation":"LINEAR"},{"input":8,"output":9,"interpolation":"LINEAR"},{"input":10,"output":11,"interpolation":"LINEAR"},{"input":12,"output":13,"interpolation":"LINEAR"},{"input":14,"output":15,"interpolation":"LINEAR"},{"input":16,"output":17,"interpolation":"LINEAR"},{"input":18,"output":19,"interpolation":"LINEAR"},{"input":20,"output":21,"interpolation":"LINEAR"}],"channels":[{"sampler":0,"target":{"node":1,"path":"rotation"}},{"sampler":1,"target":{"node":1,"path":"translation"}},{"sampler":2,"target":{"node":1,"path":"scale"}},{"sampler":3,"target":{"node":8,"path":"rotation"}},{"sampler":4,"target":{"node":8,"path":"translation"}},{"sampler":5,"target":{"node":8,"path":"scale"}},{"sampler":6,"target":{"node":9,"path":"rotation"}},{"sampler":7,"target":{"node":9,"path":"translation"}},{"sampler":8,"target":{"node":4,"path":"rotation"}},{"sampler":9,"target":{"node":4,"path":"translation"}},{"sampler":10,"target":{"node":3,"path":"translation"}}]}],"bufferViews":[{"buffer":0,"byteOffset":0,"byteLength":132},{"buffer":0,"byteOffset":132,"byteLength":528},{"buffer":0,"byteOffset":660,"byteLength":140},{"buffer":0,"byteOffset":800,"byteLength":420},{"buffer":0,"byteOffset":1220,"byteLength":4},{"buffer":0,"byteOffset":1224,"byteLength":12},{"buffer":0,"byteOffset":1236,"byteLength":52},{"buffer":0,"byteOffset":1288,"byteLength":208},{"buffer":0,"byteOffset":1496,"byteLength":52},{"buffer":0,"byteOffset":1548,"byteLength":156},{"buffer":0,"byteOffset":1704,"byteLength":4},{"buffer":0,"byteOffset":1708,"byteLength":12},{"buffer":0,"byteOffset":1720,"byteLength":160},{"buffer":0,"byteOffset":1880,"byteLength":640},{"buffer":0,"byteOffset":2520,"byteLength":168},{"buffer":0,"byteOffset":2688,"byteLength":504},{"buffer":0,"byteOffset":3192,"byteLength":48},{"buffer":0,"byteOffset":3240,"byteLength":192},{"buffer":0,"byteOffset":3432,"byteLength":92},{"buffer":0,"byteOffset":3524,"byteLength":276},{"buffer":0,"byteOffset":3800,"byteLength":16},{"buffer":0,"byteOffset":3816,"byteLength":48}],"buffers":[{"byteLength":3864,"uri":"data:application/octet-stream;base64,"}],"accessors":[{"bufferView":0,"componentType":5126,"count":33,"max":[2.049999952316284],"min":[0],"type":"SCALAR"},{"bufferView":1,"componentType":5126,"count":33,"max":[0.36235949397087097,0.786091685295105,-0.4802463948726654,-0.05819704383611679],"min":[-0.11755964159965515,0.44783779978752136,-0.6176421642303467,-0.639170229434967],"type":"VEC4"},{"bufferView":2,"componentType":5126,"count":35,"max":[2.049999952316284],"min":[0],"type":"SCALAR"},{"bufferView":3,"componentType":5126,"count":35,"max":[0.11249999701976776,-0.09375,0.2511136531829834],"min":[-0.6486750245094299,-1.3214586973190308,-0.44218748807907104],"type":"VEC3"},{"bufferView":4,"componentType":5126,"count":1,"max":[0],"min":[0],"type":"SCALAR"},{"bufferView":5,"componentType":5126,"count":1,"max":[1,1.5,1],"min":[1,1.5,1],"type":"VEC3"},{"bufferView":6,"componentType":5126,"count":13,"max":[2.0999999046325684],"min":[0],"type":"SCALAR"},{"bufferView":7,"componentType":5126,"count":13,"max":[-0.03487896919250488,0.5841248035430908,-0.5245471000671387,0.6223745346069336],"min":[-0.19339114427566528,0.41728606820106506,-0.6612909436225891,0.5884287357330322],"type":"VEC4"},{"bufferView":8,"componentType":5126,"count":13,"max":[2.0999999046325684],"min":[0],"type":"SCALAR"},{"bufferView":9,"componentType":5126,"count":13,"max":[-0.05000000074505806,-0.04374999925494194,-0.981249988079071],"min":[-0.05624999850988388,-0.0625,-1.0750000476837158],"type":"VEC3"},{"bufferView":10,"componentType":5126,"count":1,"max":[0],"min":[0],"type":"SCALAR"},{"bufferView":11,"componentType":5126,"count":1,"max":[1,1.5,1],"min":[1,1.5,1],"type":"VEC3"},{"bufferView":12,"componentType":5126,"count":40,"max":[2.5],"min":[0],"type":"SCALAR"},{"bufferView":13,"componentType":5126,"count":40,"max":[0.1914461851119995,0.06496796011924744,0.4097907543182373,1],"min":[-0.012741834856569767,-0.005001311656087637,-0.004234678111970425,0.8929577469825745],"type":"VEC4"},{"bufferView":14,"componentType":5126,"count":42,"max":[2.5],"min":[0],"type":"SCALAR"},{"bufferView":15,"componentType":5126,"count":42,"max":[0.5078125,0.2562499940395355,1.2999999523162842],"min":[0.4087499976158142,0.16562500596046448,1.203125],"type":"VEC3"},{"bufferView":16,"componentType":5126,"count":12,"max":[1.75],"min":[0.5],"type":"SCALAR"},{"bufferView":17,"componentType":5126,"count":12,"max":[0.14803868532180786,0.2804666757583618,0.6001821756362915,1],"min":[0,-0.05253731459379196,0,0.7842867374420166],"type":"VEC4"},{"bufferView":18,"componentType":5126,"count":23,"max":[1.75],"min":[0],"type":"SCALAR"},{"bufferView":19,"componentType":5126,"count":23,"max":[0.012249726802110672,-0.2750000059604645,1.0636136531829834],"min":[-0.6674249768257141,-1.4339587688446045,0.37031251192092896],"type":"VEC3"},{"bufferView":20,"componentType":5126,"count":4,"max":[1.9500000476837158],"min":[0],"type":"SCALAR"},{"bufferView":21,"componentType":5126,"count":4,"max":[0,0.13750000298023224,0.0625],"min":[0,0.06875000149011612,0.0625],"type":"VEC3"}]}