{"asset":{"version":"2.0","generator":"Blockbench 4.2.4 glTF exporter"},"scenes":[{"nodes":[10],"name":"blockbench_export"}],"scene":0,"nodes":[{"translation":[0.375,-0.6875,0],"name":"RightHand"},{"translation":[-0.375,0.9375,-0.75],"name":"R","children":[0]},{"translation":[0,-0.109375,0.5625],"name":"m24_bolt"},{"translation":[0,0.06875,0.0625],"name":"762x51"},{"translation":[0,-0.275,0.38749999999999996],"name":"mb","children":[3]},{"translation":[0,0.25,-0.75],"name":"m24_","children":[2,4]},{"name":"bone","children":[1,5]},{"translation":[-0.375,-0.6875,0],"name":"LeftHand"},{"translation":[0.375,0.9375,-0.75],"name":"l","children":[7]},{"translation":[0.5,0.25,1.25],"name":"bone2","children":[6,8]},{"children":[9]}],"animations":[{"name":"reload_norm2","samplers":[{"input":0,"output":1,"interpolation":"LINEAR"},{"input":2,"output":3,"interpolation":"LINEAR"},{"input":4,"output":5,"interpolation":"LINEAR"},{"input":6,"output":7,"interpolation":"LINEAR"},{"input":8,"output":9,"interpolation":"LINEAR"},{"input":10,"output":11,"interpolation":"LINEAR"},{"input":12,"output":13,"interpolation":"LINEAR"},{"input":14,"output":15,"interpolation":"LINEAR"},{"input":16,"output":17,"interpolation":"LINEAR"},{"input":18,"output":19,"interpolation":"LINEAR"},{"input":20,"output":21,"interpolation":"LINEAR"},{"input":22,"output":23,"interpolation":"LINEAR"},{"input":24,"output":25,"interpolation":"LINEAR"}],"channels":[{"sampler":0,"target":{"node":1,"path":"rotation"}},{"sampler":1,"target":{"node":1,"path":"translation"}},{"sampler":2,"target":{"node":1,"path":"scale"}},{"sampler":3,"target":{"node":8,"path":"rotation"}},{"sampler":4,"target":{"node":8,"path":"translation"}},{"sampler":5,"target":{"node":8,"path":"scale"}},{"sampler":6,"target":{"node":9,"path":"rotation"}},{"sampler":7,"target":{"node":9,"path":"translation"}},{"sampler":8,"target":{"node":2,"path":"rotation"}},{"sampler":9,"target":{"node":2,"path":"translation"}},{"sampler":10,"target":{"node":4,"path":"rotation"}},{"sampler":11,"target":{"node":4,"path":"translation"}},{"sampler":12,"target":{"node":3,"path":"translation"}}]}],"bufferViews":[{"buffer":0,"byteOffset":0,"byteLength":220},{"buffer":0,"byteOffset":220,"byteLength":880},{"buffer":0,"byteOffset":1100,"byteLength":196},{"buffer":0,"byteOffset":1296,"byteLength":588},{"buffer":0,"byteOffset":1884,"byteLength":4},{"buffer":0,"byteOffset":1888,"byteLength":12},{"buffer":0,"byteOffset":1900,"byteLength":16},{"buffer":0,"byteOffset":1916,"byteLength":64},{"buffer":0,"byteOffset":1980,"byteLength":44},{"buffer":0,"byteOffset":2024,"byteLength":132},{"buffer":0,"byteOffset":2156,"byteLength":4},{"buffer":0,"byteOffset":2160,"byteLength":12},{"buffer":0,"byteOffset":2172,"byteLength":224},{"buffer":0,"byteOffset":2396,"byteLength":896},{"buffer":0,"byteOffset":3292,"byteLength":208},{"buffer":0,"byteOffset":3500,"byteLength":624},{"buffer":0,"byteOffset":4124,"byteLength":24},{"buffer":0,"byteOffset":4148,"byteLength":96},{"buffer":0,"byteOffset":4244,"byteLength":24},{"buffer":0,"byteOffset":4268,"byteLength":72},{"buffer":0,"byteOffset":4340,"byteLength":52},{"buffer":0,"byteOffset":4392,"byteLength":208},{"buffer":0,"byteOffset":4600,"byteLength":84},{"buffer":0,"byteOffset":4684,"byteLength":252},{"buffer":0,"byteOffset":4936,"byteLength":20},{"buffer":0,"byteOffset":4956,"byteLength":60}],"buffers":[{"byteLength":5016,"uri":"data:application/octet-stream;base64,"}],"accessors":[{"bufferView":0,"componentType":5126,"count":55,"max":[3.200000047683716],"min":[0],"type":"SCALAR"},{"bufferView":1,"componentType":5126,"count":55,"max":[0.5686128735542297,0.9138157367706299,-0.36767247319221497,-0.045758798718452454],"min":[-0.11951907724142075,0.4201563596725464,-0.7268685698509216,-0.6695215702056885],"type":"VEC4"},{"bufferView":2,"componentType":5126,"count":49,"max":[3.200000047683716],"min":[0],"type":"SCALAR"},{"bufferView":3,"componentType":5126,"count":49,"max":[0.30236563086509705,0.15625,0.16875000298023224],"min":[-0.21875,-0.987500011920929,-0.47154492139816284],"type":"VEC3"},{"bufferView":4,"componentType":5126,"count":1,"max":[0],"min":[0],"type":"SCALAR"},{"bufferView":5,"componentType":5126,"count":1,"max":[1,1.5,1],"min":[1,1.5,1],"type":"VEC3"},{"bufferView":6,"componentType":5126,"count":4,"max":[2.5],"min":[0.4000000059604645],"type":"SCALAR"},{"bufferView":7,"componentType":5126,"count":4,"max":[-0.09566999226808548,0.5841248035430908,-0.5245471000671387,0.5884287357330322],"min":[-0.19339114427566528,0.4922056496143341,-0.7128590941429138,0.49031907320022583],"type":"VEC4"},{"bufferView":8,"componentType":5126,"count":11,"max":[2.5],"min":[0],"type":"SCALAR"},{"bufferView":9,"componentType":5126,"count":11,"max":[-0.05624999850988388,0.0011512499768286943,-1.0237956047058105],"min":[-0.07976999878883362,-0.0625,-1.0750000476837158],"type":"VEC3"},{"bufferView":10,"componentType":5126,"count":1,"max":[0],"min":[0],"type":"SCALAR"},{"bufferView":11,"componentType":5126,"count":1,"max":[1,1.5,1],"min":[1,1.5,1],"type":"VEC3"},{"bufferView":12,"componentType":5126,"count":56,"max":[3.3499999046325684],"min":[0],"type":"SCALAR"},{"bufferView":13,"componentType":5126,"count":56,"max":[0.2050197422504425,0.19837002456188202,0.49220582842826843,1],"min":[-0.007619859185069799,-0.008522555232048035,-0.0608636736869812,0.8453004360198975],"type":"VEC4"},{"bufferView":14,"componentType":5126,"count":52,"max":[3.25],"min":[0],"type":"SCALAR"},{"bufferView":15,"componentType":5126,"count":52,"max":[0.5078125,0.2562499940395355,1.25],"min":[0.42250001430511475,0.16562500596046448,1.162500023841858],"type":"VEC3"},{"bufferView":16,"componentType":5126,"count":6,"max":[2.9000000953674316],"min":[0.15000000596046448],"type":"SCALAR"},{"bufferView":17,"componentType":5126,"count":6,"max":[0,0,0.4617486000061035,1],"min":[0,0,0,0.8870108127593994],"type":"VEC4"},{"bufferView":18,"componentType":5126,"count":6,"max":[2.700000047683716],"min":[0.15000000596046448],"type":"SCALAR"},{"bufferView":19,"componentType":5126,"count":6,"max":[0,-0.109375,0.7562500238418579],"min":[0,-0.109375,0.5625],"type":"VEC3"},{"bufferView":20,"componentType":5126,"count":13,"max":[2.200000047683716],"min":[1],"type":"SCALAR"},{"bufferView":21,"componentType":5126,"count":13,"max":[0.7252770662307739,0.16368131339550018,0.7638784646987915,1],"min":[-0.30901700258255005,-0.39092302322387695,0,-0.2393774837255478],"type":"VEC4"},{"bufferView":22,"componentType":5126,"count":21,"max":[2.200000047683716],"min":[0],"type":"SCALAR"},{"bufferView":23,"componentType":5126,"count":21,"max":[0.05000000074505806,-0.2750000059604645,0.987500011920929],"min":[-1.275112509727478,-2.7110755443573,-0.05123812332749367],"type":"VEC3"},{"bufferView":24,"componentType":5126,"count":5,"max":[2.75],"min":[1.5],"type":"SCALAR"},{"bufferView":25,"componentType":5126,"count":5,"max":[0,0.16875000298023224,0.0625],"min":[0,0.06875000149011612,-0.17499999701976776],"type":"VEC3"}]}