{"asset":{"version":"2.0","generator":"Blockbench 4.2.4 glTF exporter"},"scenes":[{"nodes":[10],"name":"blockbench_export"}],"scene":0,"nodes":[{"translation":[0.375,-0.6875,0],"name":"RightHand"},{"translation":[-0.375,0.9375,-0.75],"name":"R","children":[0]},{"translation":[0,-0.109375,0.5625],"name":"m24_bolt"},{"translation":[0,0.06875,0.0625],"name":"762x51"},{"translation":[0,-0.275,0.38749999999999996],"name":"mb","children":[3]},{"translation":[0,0.25,-0.75],"name":"m24_","children":[2,4]},{"name":"bone","children":[1,5]},{"translation":[-0.375,-0.6875,0],"name":"LeftHand"},{"translation":[0.375,0.9375,-0.75],"name":"l","children":[7]},{"translation":[0.5,0.25,1.25],"name":"bone2","children":[6,8]},{"children":[9]}],"animations":[{"name":"Bolt_on","samplers":[{"input":0,"output":1,"interpolation":"LINEAR"},{"input":2,"output":3,"interpolation":"LINEAR"},{"input":4,"output":5,"interpolation":"LINEAR"},{"input":6,"output":7,"interpolation":"LINEAR"},{"input":8,"output":9,"interpolation":"LINEAR"},{"input":10,"output":11,"interpolation":"LINEAR"},{"input":12,"output":13,"interpolation":"LINEAR"},{"input":14,"output":15,"interpolation":"LINEAR"},{"input":16,"output":17,"interpolation":"LINEAR"},{"input":18,"output":19,"interpolation":"LINEAR"},{"input":20,"output":21,"interpolation":"LINEAR"},{"input":22,"output":23,"interpolation":"LINEAR"}],"channels":[{"sampler":0,"target":{"node":1,"path":"rotation"}},{"sampler":1,"target":{"node":1,"path":"translation"}},{"sampler":2,"target":{"node":1,"path":"scale"}},{"sampler":3,"target":{"node":8,"path":"rotation"}},{"sampler":4,"target":{"node":8,"path":"translation"}},{"sampler":5,"target":{"node":8,"path":"scale"}},{"sampler":6,"target":{"node":9,"path":"rotation"}},{"sampler":7,"target":{"node":9,"path":"translation"}},{"sampler":8,"target":{"node":2,"path":"rotation"}},{"sampler":9,"target":{"node":2,"path":"translation"}},{"sampler":10,"target":{"node":3,"path":"rotation"}},{"sampler":11,"target":{"node":3,"path":"translation"}}]}],"bufferViews":[{"buffer":0,"byteOffset":0,"byteLength":60},{"buffer":0,"byteOffset":60,"byteLength":240},{"buffer":0,"byteOffset":300,"byteLength":60},{"buffer":0,"byteOffset":360,"byteLength":180},{"buffer":0,"byteOffset":540,"byteLength":4},{"buffer":0,"byteOffset":544,"byteLength":12},{"buffer":0,"byteOffset":556,"byteLength":4},{"buffer":0,"byteOffset":560,"byteLength":16},{"buffer":0,"byteOffset":576,"byteLength":4},{"buffer":0,"byteOffset":580,"byteLength":12},{"buffer":0,"byteOffset":592,"byteLength":4},{"buffer":0,"byteOffset":596,"byteLength":12},{"buffer":0,"byteOffset":608,"byteLength":68},{"buffer":0,"byteOffset":676,"byteLength":272},{"buffer":0,"byteOffset":948,"byteLength":64},{"buffer":0,"byteOffset":1012,"byteLength":192},{"buffer":0,"byteOffset":1204,"byteLength":24},{"buffer":0,"byteOffset":1228,"byteLength":96},{"buffer":0,"byteOffset":1324,"byteLength":24},{"buffer":0,"byteOffset":1348,"byteLength":72},{"buffer":0,"byteOffset":1420,"byteLength":20},{"buffer":0,"byteOffset":1440,"byteLength":80},{"buffer":0,"byteOffset":1520,"byteLength":72},{"buffer":0,"byteOffset":1592,"byteLength":216}],"buffers":[{"byteLength":1808,"uri":"data:application/octet-stream;base64,"}],"accessors":[{"bufferView":0,"componentType":5126,"count":15,"max":[1.2000000476837158],"min":[0],"type":"SCALAR"},{"bufferView":1,"componentType":5126,"count":15,"max":[0.053264811635017395,0.8828089237213135,-0.4345056414604187,0.12676839530467987],"min":[-0.15315617620944977,0.7473891973495483,-0.6399657726287842,-0.22344622015953064],"type":"VEC4"},{"bufferView":2,"componentType":5126,"count":15,"max":[1.2000000476837158],"min":[0],"type":"SCALAR"},{"bufferView":3,"componentType":5126,"count":15,"max":[0.20624999701976776,0.13750000298023224,0.0625],"min":[0.05000000074505806,-0.10249562561511993,-0.16875000298023224],"type":"VEC3"},{"bufferView":4,"componentType":5126,"count":1,"max":[0.30000001192092896],"min":[0.30000001192092896],"type":"SCALAR"},{"bufferView":5,"componentType":5126,"count":1,"max":[1,1.5,1],"min":[1,1.5,1],"type":"VEC3"},{"bufferView":6,"componentType":5126,"count":1,"max":[0.30000001192092896],"min":[0.30000001192092896],"type":"SCALAR"},{"bufferView":7,"componentType":5126,"count":1,"max":[-0.19339114427566528,0.5841248035430908,-0.5245471000671387,0.5884287357330322],"min":[-0.19339114427566528,0.5841248035430908,-0.5245471000671387,0.5884287357330322],"type":"VEC4"},{"bufferView":8,"componentType":5126,"count":1,"max":[0.30000001192092896],"min":[0.30000001192092896],"type":"SCALAR"},{"bufferView":9,"componentType":5126,"count":1,"max":[-0.05624999850988388,-0.0625,-1.0750000476837158],"min":[-0.05624999850988388,-0.0625,-1.0750000476837158],"type":"VEC3"},{"bufferView":10,"componentType":5126,"count":1,"max":[0.30000001192092896],"min":[0.30000001192092896],"type":"SCALAR"},{"bufferView":11,"componentType":5126,"count":1,"max":[1,1.5,1],"min":[1,1.5,1],"type":"VEC3"},{"bufferView":12,"componentType":5126,"count":17,"max":[1.25],"min":[0],"type":"SCALAR"},{"bufferView":13,"componentType":5126,"count":17,"max":[0.03137042000889778,0.001680302550084889,0.06798673421144485,1],"min":[-0.008726452477276325,-0.00003807657412835397,0,0.9971914887428284],"type":"VEC4"},{"bufferView":14,"componentType":5126,"count":16,"max":[1.25],"min":[0],"type":"SCALAR"},{"bufferView":15,"componentType":5126,"count":16,"max":[0.5,0.2562499940395355,1.287500023841858],"min":[0.5,0.21194615960121155,1.25],"type":"VEC3"},{"bufferView":16,"componentType":5126,"count":6,"max":[0.949999988079071],"min":[0.4000000059604645],"type":"SCALAR"},{"bufferView":17,"componentType":5126,"count":6,"max":[0,0,0.4617486000061035,1],"min":[0,0,0,0.8870108127593994],"type":"VEC4"},{"bufferView":18,"componentType":5126,"count":6,"max":[0.75],"min":[0.4000000059604645],"type":"SCALAR"},{"bufferView":19,"componentType":5126,"count":6,"max":[0,-0.109375,0.7562500238418579],"min":[0,-0.109375,0.5625],"type":"VEC3"},{"bufferView":20,"componentType":5126,"count":5,"max":[1],"min":[0.5],"type":"SCALAR"},{"bufferView":21,"componentType":5126,"count":5,"max":[0.5780164003372192,0.6046347618103027,0.8639872670173645,1],"min":[-0.596372663974762,-0.8244134783744812,-0.5896012783050537,-0.36902135610580444],"type":"VEC4"},{"bufferView":22,"componentType":5126,"count":18,"max":[0.949999988079071],"min":[0],"type":"SCALAR"},{"bufferView":23,"componentType":5126,"count":18,"max":[2.075000047683716,0.2886437475681305,0.0625],"min":[0,-0.9937499761581421,-0.17499999701976776],"type":"VEC3"}]}