{"asset":{"version":"2.0","generator":"Blockbench 4.5.2 glTF exporter"},"scenes":[{"nodes":[11],"name":"blockbench_export"}],"scene":0,"nodes":[{"translation":[0.375,-0.6875,0],"name":"RightHand"},{"translation":[-0.375,0.875,-0.46875],"name":"R","children":[0]},{"translation":[-0.5,-0.5,-0.51171875],"name":"body2"},{"name":"m4_default","children":[2]},{"translation":[0,0.11082687499999999,-0.311498125],"name":"magazine2"},{"translation":[0,-0.375,0.0625],"name":"mb","children":[4]},{"translation":[0,0.1875,-0.46875],"name":"m4","children":[3,5]},{"name":"bone","children":[1,6]},{"translation":[-0.375,-0.6875,0],"name":"LeftHand"},{"translation":[0.375,0.875,-0.46875],"name":"l","children":[8]},{"translation":[0.5,0.3125,0.96875],"name":"bone2","children":[7,9]},{"children":[10]}],"animations":[{"name":"draw","samplers":[{"input":0,"output":1,"interpolation":"LINEAR"},{"input":2,"output":3,"interpolation":"LINEAR"},{"input":4,"output":5,"interpolation":"LINEAR"},{"input":6,"output":7,"interpolation":"LINEAR"},{"input":8,"output":9,"interpolation":"LINEAR"},{"input":10,"output":11,"interpolation":"LINEAR"},{"input":12,"output":13,"interpolation":"LINEAR"},{"input":14,"output":15,"interpolation":"LINEAR"},{"input":16,"output":17,"interpolation":"LINEAR"}],"channels":[{"sampler":0,"target":{"node":10,"path":"rotation"}},{"sampler":1,"target":{"node":10,"path":"translation"}},{"sampler":2,"target":{"node":10,"path":"scale"}},{"sampler":3,"target":{"node":1,"path":"rotation"}},{"sampler":4,"target":{"node":1,"path":"translation"}},{"sampler":5,"target":{"node":1,"path":"scale"}},{"sampler":6,"target":{"node":9,"path":"rotation"}},{"sampler":7,"target":{"node":9,"path":"translation"}},{"sampler":8,"target":{"node":9,"path":"scale"}}]}],"bufferViews":[{"buffer":0,"byteOffset":0,"byteLength":64},{"buffer":0,"byteOffset":64,"byteLength":256},{"buffer":0,"byteOffset":320,"byteLength":64},{"buffer":0,"byteOffset":384,"byteLength":192},{"buffer":0,"byteOffset":576,"byteLength":4},{"buffer":0,"byteOffset":580,"byteLength":12},{"buffer":0,"byteOffset":592,"byteLength":4},{"buffer":0,"byteOffset":596,"byteLength":16},{"buffer":0,"byteOffset":612,"byteLength":4},{"buffer":0,"byteOffset":616,"byteLength":12},{"buffer":0,"byteOffset":628,"byteLength":4},{"buffer":0,"byteOffset":632,"byteLength":12},{"buffer":0,"byteOffset":644,"byteLength":24},{"buffer":0,"byteOffset":668,"byteLength":96},{"buffer":0,"byteOffset":764,"byteLength":28},{"buffer":0,"byteOffset":792,"byteLength":84},{"buffer":0,"byteOffset":876,"byteLength":4},{"buffer":0,"byteOffset":880,"byteLength":12}],"buffers":[{"byteLength":892,"uri":"data:application/octet-stream;base64,"}],"accessors":[{"bufferView":0,"componentType":5126,"count":16,"max":[0.875],"min":[0],"type":"SCALAR"},{"bufferView":1,"componentType":5126,"count":16,"max":[0.011830980889499187,0.19425815343856812,0.22043509781360626,1],"min":[-0.06529168784618378,-0.000004116289801459061,-0.008726438507437706,0.954809308052063],"type":"VEC4"},{"bufferView":2,"componentType":5126,"count":16,"max":[0.875],"min":[0],"type":"SCALAR"},{"bufferView":3,"componentType":5126,"count":16,"max":[0.5034722089767456,0.3349762558937073,0.9888520836830139],"min":[0.171875,-0.359375,0.866406261920929],"type":"VEC3"},{"bufferView":4,"componentType":5126,"count":1,"max":[0],"min":[0],"type":"SCALAR"},{"bufferView":5,"componentType":5126,"count":1,"max":[1,1,1],"min":[1,1,1],"type":"VEC3"},{"bufferView":6,"componentType":5126,"count":1,"max":[0],"min":[0],"type":"SCALAR"},{"bufferView":7,"componentType":5126,"count":1,"max":[-4.51452149623189e-17,0.7372773289680481,-0.6755902171134949,4.1367970795711857e-17],"min":[-4.51452149623189e-17,0.7372773289680481,-0.6755902171134949,4.1367970795711857e-17],"type":"VEC4"},{"bufferView":8,"componentType":5126,"count":1,"max":[0],"min":[0],"type":"SCALAR"},{"bufferView":9,"componentType":5126,"count":1,"max":[0.03125,0,-0.03125],"min":[0.03125,0,-0.03125],"type":"VEC3"},{"bufferView":10,"componentType":5126,"count":1,"max":[0],"min":[0],"type":"SCALAR"},{"bufferView":11,"componentType":5126,"count":1,"max":[1,1.5,1],"min":[1,1.5,1],"type":"VEC3"},{"bufferView":12,"componentType":5126,"count":6,"max":[0.3333300054073334],"min":[0],"type":"SCALAR"},{"bufferView":13,"componentType":5126,"count":6,"max":[-0.06411375105381012,0.6807913780212402,-0.5222929120063782,0.5084277391433716],"min":[-0.11360440403223038,0.6751336455345154,-0.5476504564285278,0.48217371106147766],"type":"VEC4"},{"bufferView":14,"componentType":5126,"count":7,"max":[0.3333300054073334],"min":[0],"type":"SCALAR"},{"bufferView":15,"componentType":5126,"count":7,"max":[-0.05624999850988388,0.22499999403953552,-0.78125],"min":[-0.4206250011920929,-0.21796874701976776,-0.78125],"type":"VEC3"},{"bufferView":16,"componentType":5126,"count":1,"max":[0],"min":[0],"type":"SCALAR"},{"bufferView":17,"componentType":5126,"count":1,"max":[1,1.5,1],"min":[1,1.5,1],"type":"VEC3"}]}