{"asset":{"version":"2.0","generator":"Blockbench 4.5.2 glTF exporter"},"scenes":[{"nodes":[11],"name":"blockbench_export"}],"scene":0,"nodes":[{"translation":[0.375,-0.6875,0],"name":"RightHand"},{"translation":[-0.375,0.875,-0.46875],"name":"R","children":[0]},{"translation":[-0.5,-0.5,-0.51171875],"name":"body2"},{"name":"m4_default","children":[2]},{"translation":[0,0.11082687499999999,-0.311498125],"name":"magazine2"},{"translation":[0,-0.375,0.0625],"name":"mb","children":[4]},{"translation":[0,0.1875,-0.46875],"name":"m4","children":[3,5]},{"name":"bone","children":[1,6]},{"translation":[-0.375,-0.6875,0],"name":"LeftHand"},{"translation":[0.375,0.875,-0.46875],"name":"l","children":[8]},{"translation":[0.5,0.3125,0.96875],"name":"bone2","children":[7,9]},{"children":[10]}],"animations":[{"name":"inspect","samplers":[{"input":0,"output":1,"interpolation":"LINEAR"},{"input":2,"output":3,"interpolation":"LINEAR"},{"input":4,"output":5,"interpolation":"LINEAR"},{"input":6,"output":7,"interpolation":"LINEAR"},{"input":8,"output":9,"interpolation":"LINEAR"},{"input":10,"output":11,"interpolation":"LINEAR"},{"input":12,"output":13,"interpolation":"LINEAR"},{"input":14,"output":15,"interpolation":"LINEAR"},{"input":16,"output":17,"interpolation":"LINEAR"}],"channels":[{"sampler":0,"target":{"node":10,"path":"rotation"}},{"sampler":1,"target":{"node":10,"path":"translation"}},{"sampler":2,"target":{"node":10,"path":"scale"}},{"sampler":3,"target":{"node":1,"path":"rotation"}},{"sampler":4,"target":{"node":1,"path":"translation"}},{"sampler":5,"target":{"node":1,"path":"scale"}},{"sampler":6,"target":{"node":9,"path":"rotation"}},{"sampler":7,"target":{"node":9,"path":"translation"}},{"sampler":8,"target":{"node":9,"path":"scale"}}]}],"bufferViews":[{"buffer":0,"byteOffset":0,"byteLength":344},{"buffer":0,"byteOffset":344,"byteLength":1376},{"buffer":0,"byteOffset":1720,"byteLength":320},{"buffer":0,"byteOffset":2040,"byteLength":960},{"buffer":0,"byteOffset":3000,"byteLength":4},{"buffer":0,"byteOffset":3004,"byteLength":12},{"buffer":0,"byteOffset":3016,"byteLength":4},{"buffer":0,"byteOffset":3020,"byteLength":16},{"buffer":0,"byteOffset":3036,"byteLength":4},{"buffer":0,"byteOffset":3040,"byteLength":12},{"buffer":0,"byteOffset":3052,"byteLength":4},{"buffer":0,"byteOffset":3056,"byteLength":12},{"buffer":0,"byteOffset":3068,"byteLength":224},{"buffer":0,"byteOffset":3292,"byteLength":896},{"buffer":0,"byteOffset":4188,"byteLength":220},{"buffer":0,"byteOffset":4408,"byteLength":660},{"buffer":0,"byteOffset":5068,"byteLength":4},{"buffer":0,"byteOffset":5072,"byteLength":12}],"buffers":[{"byteLength":5084,"uri":"data:application/octet-stream;base64,"}],"accessors":[{"bufferView":0,"componentType":5126,"count":86,"max":[5.166669845581055],"min":[0],"type":"SCALAR"},{"bufferView":1,"componentType":5126,"count":86,"max":[0.23567458987236023,0.16248030960559845,0.43890851736068726,1],"min":[-0.002240152098238468,-0.0032272296957671642,-0.3061007559299469,0.8663674592971802],"type":"VEC4"},{"bufferView":2,"componentType":5126,"count":80,"max":[5],"min":[0],"type":"SCALAR"},{"bufferView":3,"componentType":5126,"count":80,"max":[0.5278812646865845,0.43632811307907104,0.9891624450683594],"min":[0.4390625059604645,0.30078125,0.8203125],"type":"VEC3"},{"bufferView":4,"componentType":5126,"count":1,"max":[0],"min":[0],"type":"SCALAR"},{"bufferView":5,"componentType":5126,"count":1,"max":[1,1,1],"min":[1,1,1],"type":"VEC3"},{"bufferView":6,"componentType":5126,"count":1,"max":[0],"min":[0],"type":"SCALAR"},{"bufferView":7,"componentType":5126,"count":1,"max":[-4.51452149623189e-17,0.7372773289680481,-0.6755902171134949,4.1367970795711857e-17],"min":[-4.51452149623189e-17,0.7372773289680481,-0.6755902171134949,4.1367970795711857e-17],"type":"VEC4"},{"bufferView":8,"componentType":5126,"count":1,"max":[0],"min":[0],"type":"SCALAR"},{"bufferView":9,"componentType":5126,"count":1,"max":[0.03125,0,-0.03125],"min":[0.03125,0,-0.03125],"type":"VEC3"},{"bufferView":10,"componentType":5126,"count":1,"max":[0],"min":[0],"type":"SCALAR"},{"bufferView":11,"componentType":5126,"count":1,"max":[1,1.5,1],"min":[1,1.5,1],"type":"VEC3"},{"bufferView":12,"componentType":5126,"count":56,"max":[4.75],"min":[0],"type":"SCALAR"},{"bufferView":13,"componentType":5126,"count":56,"max":[0.04506087303161621,0.7193519473075867,-0.4980020523071289,0.5324004888534546],"min":[-0.12283757328987122,0.4844217598438263,-0.7016941905021667,0.11999284476041794],"type":"VEC4"},{"bufferView":14,"componentType":5126,"count":55,"max":[4.75],"min":[0],"type":"SCALAR"},{"bufferView":15,"componentType":5126,"count":55,"max":[0.030588382855057716,0.25,-0.21397195756435394],"min":[-0.44208332896232605,-1.890924334526062,-0.7904787063598633],"type":"VEC3"},{"bufferView":16,"componentType":5126,"count":1,"max":[0],"min":[0],"type":"SCALAR"},{"bufferView":17,"componentType":5126,"count":1,"max":[1,1.5,1],"min":[1,1.5,1],"type":"VEC3"}]}