{"asset":{"version":"2.0","generator":"Blockbench 4.5.2 glTF exporter"},"scenes":[{"nodes":[11],"name":"blockbench_export"}],"scene":0,"nodes":[{"translation":[0.375,-0.6875,0],"name":"RightHand"},{"translation":[-0.375,0.875,-0.46875],"name":"R","children":[0]},{"translation":[-0.5,-0.5,-0.51171875],"name":"body2"},{"name":"m4_default","children":[2]},{"translation":[0,0.11082687499999999,-0.311498125],"name":"magazine2"},{"translation":[0,-0.375,0.0625],"name":"mb","children":[4]},{"translation":[0,0.1875,-0.46875],"name":"m4","children":[3,5]},{"name":"bone","children":[1,6]},{"translation":[-0.375,-0.6875,0],"name":"LeftHand"},{"translation":[0.375,0.875,-0.46875],"name":"l","children":[8]},{"translation":[0.5,0.3125,0.96875],"name":"bone2","children":[7,9]},{"children":[10]}],"animations":[{"name":"empty_reloading","samplers":[{"input":0,"output":1,"interpolation":"LINEAR"},{"input":2,"output":3,"interpolation":"LINEAR"},{"input":4,"output":5,"interpolation":"LINEAR"},{"input":6,"output":7,"interpolation":"LINEAR"},{"input":8,"output":9,"interpolation":"LINEAR"},{"input":10,"output":11,"interpolation":"LINEAR"},{"input":12,"output":13,"interpolation":"LINEAR"},{"input":14,"output":15,"interpolation":"LINEAR"},{"input":16,"output":17,"interpolation":"LINEAR"},{"input":18,"output":19,"interpolation":"LINEAR"}],"channels":[{"sampler":0,"target":{"node":1,"path":"rotation"}},{"sampler":1,"target":{"node":1,"path":"translation"}},{"sampler":2,"target":{"node":1,"path":"scale"}},{"sampler":3,"target":{"node":9,"path":"rotation"}},{"sampler":4,"target":{"node":9,"path":"translation"}},{"sampler":5,"target":{"node":9,"path":"scale"}},{"sampler":6,"target":{"node":10,"path":"rotation"}},{"sampler":7,"target":{"node":10,"path":"translation"}},{"sampler":8,"target":{"node":5,"path":"rotation"}},{"sampler":9,"target":{"node":5,"path":"translation"}}]}],"bufferViews":[{"buffer":0,"byteOffset":0,"byteLength":4},{"buffer":0,"byteOffset":4,"byteLength":16},{"buffer":0,"byteOffset":20,"byteLength":4},{"buffer":0,"byteOffset":24,"byteLength":12},{"buffer":0,"byteOffset":36,"byteLength":4},{"buffer":0,"byteOffset":40,"byteLength":12},{"buffer":0,"byteOffset":52,"byteLength":176},{"buffer":0,"byteOffset":228,"byteLength":704},{"buffer":0,"byteOffset":932,"byteLength":184},{"buffer":0,"byteOffset":1116,"byteLength":552},{"buffer":0,"byteOffset":1668,"byteLength":4},{"buffer":0,"byteOffset":1672,"byteLength":12},{"buffer":0,"byteOffset":1684,"byteLength":212},{"buffer":0,"byteOffset":1896,"byteLength":848},{"buffer":0,"byteOffset":2744,"byteLength":204},{"buffer":0,"byteOffset":2948,"byteLength":612},{"buffer":0,"byteOffset":3560,"byteLength":96},{"buffer":0,"byteOffset":3656,"byteLength":384},{"buffer":0,"byteOffset":4040,"byteLength":112},{"buffer":0,"byteOffset":4152,"byteLength":336}],"buffers":[{"byteLength":4488,"uri":"data:application/octet-stream;base64,"}],"accessors":[{"bufferView":0,"componentType":5126,"count":1,"max":[0],"min":[0],"type":"SCALAR"},{"bufferView":1,"componentType":5126,"count":1,"max":[-4.51452149623189e-17,0.7372773289680481,-0.6755902171134949,4.1367970795711857e-17],"min":[-4.51452149623189e-17,0.7372773289680481,-0.6755902171134949,4.1367970795711857e-17],"type":"VEC4"},{"bufferView":2,"componentType":5126,"count":1,"max":[0],"min":[0],"type":"SCALAR"},{"bufferView":3,"componentType":5126,"count":1,"max":[0.03125,0,-0.03125],"min":[0.03125,0,-0.03125],"type":"VEC3"},{"bufferView":4,"componentType":5126,"count":1,"max":[0],"min":[0],"type":"SCALAR"},{"bufferView":5,"componentType":5126,"count":1,"max":[1,1.5,1],"min":[1,1.5,1],"type":"VEC3"},{"bufferView":6,"componentType":5126,"count":44,"max":[2.875],"min":[0],"type":"SCALAR"},{"bufferView":7,"componentType":5126,"count":44,"max":[0.5343384146690369,0.978500247001648,-0.093332938849926,0.6486443877220154],"min":[-0.35068780183792114,0.5377473831176758,-0.6435452699661255,-0.428735613822937],"type":"VEC4"},{"bufferView":8,"componentType":5126,"count":46,"max":[2.875],"min":[0],"type":"SCALAR"},{"bufferView":9,"componentType":5126,"count":46,"max":[0.018124999478459358,0.22499999403953552,0.110811248421669],"min":[-0.6023105382919312,-0.5610148310661316,-0.78125],"type":"VEC3"},{"bufferView":10,"componentType":5126,"count":1,"max":[0],"min":[0],"type":"SCALAR"},{"bufferView":11,"componentType":5126,"count":1,"max":[1,1.5,1],"min":[1,1.5,1],"type":"VEC3"},{"bufferView":12,"componentType":5126,"count":53,"max":[3.208329916000366],"min":[0],"type":"SCALAR"},{"bufferView":13,"componentType":5126,"count":53,"max":[0.1753508299589157,0.08878753334283829,0.004363309126347303,1],"min":[-0.017603933811187744,-0.04761582985520363,-0.3583967685699463,0.9136373400688171],"type":"VEC4"},{"bufferView":14,"componentType":5126,"count":51,"max":[3.208329916000366],"min":[0],"type":"SCALAR"},{"bufferView":15,"componentType":5126,"count":51,"max":[0.5062500238418579,0.3879745900630951,0.9955074787139893],"min":[0.4473968744277954,0.2560543715953827,0.90234375],"type":"VEC3"},{"bufferView":16,"componentType":5126,"count":24,"max":[1.875],"min":[0],"type":"SCALAR"},{"bufferView":17,"componentType":5126,"count":24,"max":[0.793890655040741,0.17508564889431,0.026958202943205833,1],"min":[-0.03302054479718208,-0.0707506313920021,-0.45479342341423035,0.41323280334472656],"type":"VEC4"},{"bufferView":18,"componentType":5126,"count":28,"max":[1.875],"min":[0],"type":"SCALAR"},{"bufferView":19,"componentType":5126,"count":28,"max":[0.03728967532515526,-0.35185185074806213,0.6175500154495239],"min":[-0.589932918548584,-1.5625,0.021385185420513153],"type":"VEC3"}]}