{"asset":{"version":"2.0","generator":"Blockbench 4.5.2 glTF exporter"},"scenes":[{"nodes":[11],"name":"blockbench_export"}],"scene":0,"nodes":[{"translation":[0.375,-0.6875,0],"name":"RightHand"},{"translation":[-0.375,0.875,-0.46875],"name":"R","children":[0]},{"translation":[-0.5,-0.5,-0.51171875],"name":"body2"},{"name":"m4_default","children":[2]},{"translation":[0,0.11082687499999999,-0.311498125],"name":"magazine2"},{"translation":[0,-0.375,0.0625],"name":"mb","children":[4]},{"translation":[0,0.1875,-0.46875],"name":"m4","children":[3,5]},{"name":"bone","children":[1,6]},{"translation":[-0.375,-0.6875,0],"name":"LeftHand"},{"translation":[0.375,0.875,-0.46875],"name":"l","children":[8]},{"translation":[0.5,0.3125,0.96875],"name":"bone2","children":[7,9]},{"children":[10]}],"animations":[{"name":"reloading","samplers":[{"input":0,"output":1,"interpolation":"LINEAR"},{"input":2,"output":3,"interpolation":"LINEAR"},{"input":4,"output":5,"interpolation":"LINEAR"},{"input":6,"output":7,"interpolation":"LINEAR"},{"input":8,"output":9,"interpolation":"LINEAR"},{"input":10,"output":11,"interpolation":"LINEAR"},{"input":12,"output":13,"interpolation":"LINEAR"},{"input":14,"output":15,"interpolation":"LINEAR"},{"input":16,"output":17,"interpolation":"LINEAR"},{"input":18,"output":19,"interpolation":"LINEAR"}],"channels":[{"sampler":0,"target":{"node":10,"path":"rotation"}},{"sampler":1,"target":{"node":10,"path":"translation"}},{"sampler":2,"target":{"node":1,"path":"rotation"}},{"sampler":3,"target":{"node":1,"path":"translation"}},{"sampler":4,"target":{"node":1,"path":"scale"}},{"sampler":5,"target":{"node":9,"path":"rotation"}},{"sampler":6,"target":{"node":9,"path":"translation"}},{"sampler":7,"target":{"node":9,"path":"scale"}},{"sampler":8,"target":{"node":5,"path":"rotation"}},{"sampler":9,"target":{"node":5,"path":"translation"}}]}],"bufferViews":[{"buffer":0,"byteOffset":0,"byteLength":160},{"buffer":0,"byteOffset":160,"byteLength":640},{"buffer":0,"byteOffset":800,"byteLength":164},{"buffer":0,"byteOffset":964,"byteLength":492},{"buffer":0,"byteOffset":1456,"byteLength":4},{"buffer":0,"byteOffset":1460,"byteLength":16},{"buffer":0,"byteOffset":1476,"byteLength":4},{"buffer":0,"byteOffset":1480,"byteLength":12},{"buffer":0,"byteOffset":1492,"byteLength":4},{"buffer":0,"byteOffset":1496,"byteLength":12},{"buffer":0,"byteOffset":1508,"byteLength":140},{"buffer":0,"byteOffset":1648,"byteLength":560},{"buffer":0,"byteOffset":2208,"byteLength":144},{"buffer":0,"byteOffset":2352,"byteLength":432},{"buffer":0,"byteOffset":2784,"byteLength":4},{"buffer":0,"byteOffset":2788,"byteLength":12},{"buffer":0,"byteOffset":2800,"byteLength":32},{"buffer":0,"byteOffset":2832,"byteLength":128},{"buffer":0,"byteOffset":2960,"byteLength":84},{"buffer":0,"byteOffset":3044,"byteLength":252}],"buffers":[{"byteLength":3296,"uri":"data:application/octet-stream;base64,"}],"accessors":[{"bufferView":0,"componentType":5126,"count":40,"max":[2.5],"min":[0],"type":"SCALAR"},{"bufferView":1,"componentType":5126,"count":40,"max":[0.1449798345565796,0.04639096558094025,0.0065449378453195095,1],"min":[-0.020978886634111404,-0.0005121440044604242,-0.2990534007549286,0.9425868391990662],"type":"VEC4"},{"bufferView":2,"componentType":5126,"count":41,"max":[2.458329916000366],"min":[0],"type":"SCALAR"},{"bufferView":3,"componentType":5126,"count":41,"max":[0.5075750946998596,0.3709374964237213,0.9738889932632446],"min":[0.45726561546325684,0.28125,0.86328125],"type":"VEC3"},{"bufferView":4,"componentType":5126,"count":1,"max":[0],"min":[0],"type":"SCALAR"},{"bufferView":5,"componentType":5126,"count":1,"max":[-4.51452149623189e-17,0.7372773289680481,-0.6755902171134949,4.1367970795711857e-17],"min":[-4.51452149623189e-17,0.7372773289680481,-0.6755902171134949,4.1367970795711857e-17],"type":"VEC4"},{"bufferView":6,"componentType":5126,"count":1,"max":[0],"min":[0],"type":"SCALAR"},{"bufferView":7,"componentType":5126,"count":1,"max":[0.03125,0,-0.03125],"min":[0.03125,0,-0.03125],"type":"VEC3"},{"bufferView":8,"componentType":5126,"count":1,"max":[0],"min":[0],"type":"SCALAR"},{"bufferView":9,"componentType":5126,"count":1,"max":[1,1.5,1],"min":[1,1.5,1],"type":"VEC3"},{"bufferView":10,"componentType":5126,"count":35,"max":[2.208329916000366],"min":[0],"type":"SCALAR"},{"bufferView":11,"componentType":5126,"count":35,"max":[0.6999712586402893,0.8968722820281982,-0.0358894020318985,0.6038250923156738],"min":[-0.36162710189819336,0.5362666249275208,-0.5525895357131958,0.04558631032705307],"type":"VEC4"},{"bufferView":12,"componentType":5126,"count":36,"max":[2.208329916000366],"min":[0],"type":"SCALAR"},{"bufferView":13,"componentType":5126,"count":36,"max":[0.006494374945759773,0.22970224916934967,0.1253860592842102],"min":[-0.5010731220245361,-0.6214218735694885,-0.7949612140655518],"type":"VEC3"},{"bufferView":14,"componentType":5126,"count":1,"max":[0],"min":[0],"type":"SCALAR"},{"bufferView":15,"componentType":5126,"count":1,"max":[1,1.5,1],"min":[1,1.5,1],"type":"VEC3"},{"bufferView":16,"componentType":5126,"count":8,"max":[1.4166699647903442],"min":[0.2916699945926666],"type":"SCALAR"},{"bufferView":17,"componentType":5126,"count":8,"max":[0.8505679965019226,0.012860124930739403,0,1],"min":[0,-0.0009135623113252223,-0.3657684922218323,0.37760040163993835],"type":"VEC4"},{"bufferView":18,"componentType":5126,"count":21,"max":[1.4166699647903442],"min":[0],"type":"SCALAR"},{"bufferView":19,"componentType":5126,"count":21,"max":[0.036109212785959244,-0.14374999701976776,0.5493518710136414],"min":[-0.5202088952064514,-1.2374999523162842,0.009939375333487988],"type":"VEC3"}]}