{"asset":{"version":"2.0","generator":"Blockbench 4.2.4 glTF exporter"},"scenes":[{"nodes":[12],"name":"blockbench_export"}],"scene":0,"nodes":[{"translation":[0.1375,0.19374999999999998,0.0625],"name":"bone4"},{"translation":[-0.25,0.0625,-0.1875],"name":"Magazine","children":[0]},{"translation":[0,0.32343750000000004,-0.271875],"name":"GunCaps"},{"translation":[-0.5,-0.1875,-1.125],"name":"bolt"},{"name":"m60","children":[1,2,3]},{"translation":[0.375,-0.6875,0],"name":"RightHand"},{"translation":[-0.375,1,-0.625],"name":"R","children":[5]},{"name":"bone","children":[4,6]},{"translation":[-0.375,-0.6875,0],"name":"LeftHand"},{"translation":[0.375,1,-0.625],"name":"l","children":[8]},{"name":"bone2","children":[7,9]},{"translation":[0.5,0.1875,1.125],"name":"bone3","children":[10]},{"children":[11]}],"animations":[{"name":"reload_norm","samplers":[{"input":0,"output":1,"interpolation":"LINEAR"},{"input":2,"output":3,"interpolation":"LINEAR"},{"input":4,"output":5,"interpolation":"LINEAR"},{"input":6,"output":7,"interpolation":"LINEAR"},{"input":8,"output":9,"interpolation":"LINEAR"},{"input":10,"output":11,"interpolation":"LINEAR"},{"input":12,"output":13,"interpolation":"LINEAR"},{"input":14,"output":15,"interpolation":"LINEAR"},{"input":16,"output":17,"interpolation":"LINEAR"},{"input":18,"output":19,"interpolation":"LINEAR"},{"input":20,"output":21,"interpolation":"LINEAR"},{"input":22,"output":23,"interpolation":"LINEAR"},{"input":24,"output":25,"interpolation":"LINEAR"},{"input":26,"output":27,"interpolation":"LINEAR"}],"channels":[{"sampler":0,"target":{"node":6,"path":"rotation"}},{"sampler":1,"target":{"node":6,"path":"translation"}},{"sampler":2,"target":{"node":6,"path":"scale"}},{"sampler":3,"target":{"node":9,"path":"rotation"}},{"sampler":4,"target":{"node":9,"path":"translation"}},{"sampler":5,"target":{"node":9,"path":"scale"}},{"sampler":6,"target":{"node":1,"path":"rotation"}},{"sampler":7,"target":{"node":1,"path":"translation"}},{"sampler":8,"target":{"node":2,"path":"rotation"}},{"sampler":9,"target":{"node":10,"path":"rotation"}},{"sampler":10,"target":{"node":10,"path":"translation"}},{"sampler":11,"target":{"node":0,"path":"rotation"}},{"sampler":12,"target":{"node":0,"path":"translation"}},{"sampler":13,"target":{"node":3,"path":"translation"}}]}],"bufferViews":[{"buffer":0,"byteOffset":0,"byteLength":472},{"buffer":0,"byteOffset":472,"byteLength":1888},{"buffer":0,"byteOffset":2360,"byteLength":476},{"buffer":0,"byteOffset":2836,"byteLength":1428},{"buffer":0,"byteOffset":4264,"byteLength":4},{"buffer":0,"byteOffset":4268,"byteLength":12},{"buffer":0,"byteOffset":4280,"byteLength":348},{"buffer":0,"byteOffset":4628,"byteLength":1392},{"buffer":0,"byteOffset":6020,"byteLength":336},{"buffer":0,"byteOffset":6356,"byteLength":1008},{"buffer":0,"byteOffset":7364,"byteLength":4},{"buffer":0,"byteOffset":7368,"byteLength":12},{"buffer":0,"byteOffset":7380,"byteLength":128},{"buffer":0,"byteOffset":7508,"byteLength":512},{"buffer":0,"byteOffset":8020,"byteLength":116},{"buffer":0,"byteOffset":8136,"byteLength":348},{"buffer":0,"byteOffset":8484,"byteLength":232},{"buffer":0,"byteOffset":8716,"byteLength":928},{"buffer":0,"byteOffset":9644,"byteLength":480},{"buffer":0,"byteOffset":10124,"byteLength":1920},{"buffer":0,"byteOffset":12044,"byteLength":492},{"buffer":0,"byteOffset":12536,"byteLength":1476},{"buffer":0,"byteOffset":14012,"byteLength":288},{"buffer":0,"byteOffset":14300,"byteLength":1152},{"buffer":0,"byteOffset":15452,"byteLength":256},{"buffer":0,"byteOffset":15708,"byteLength":768},{"buffer":0,"byteOffset":16476,"byteLength":40},{"buffer":0,"byteOffset":16516,"byteLength":120}],"buffers":[{"byteLength":16636,"uri":"data:application/octet-stream;base64,"}],"accessors":[{"bufferView":0,"componentType":5126,"count":118,"max":[6.599999904632568],"min":[0],"type":"SCALAR"},{"bufferView":1,"componentType":5126,"count":118,"max":[0.35992953181266785,0.7771114706993103,-0.5039721131324768,-0.014757913537323475],"min":[-0.0755937471985817,0.5747377276420593,-0.6385378241539001,-0.5419131517410278],"type":"VEC4"},{"bufferView":2,"componentType":5126,"count":119,"max":[6.599999904632568],"min":[0],"type":"SCALAR"},{"bufferView":3,"componentType":5126,"count":119,"max":[0.1875,0.11249999701976776,0.125],"min":[0.01389146875590086,-0.06875000149011612,-0.26875001192092896],"type":"VEC3"},{"bufferView":4,"componentType":5126,"count":1,"max":[0],"min":[0],"type":"SCALAR"},{"bufferView":5,"componentType":5126,"count":1,"max":[1,1.5,1],"min":[1,1.5,1],"type":"VEC3"},{"bufferView":6,"componentType":5126,"count":87,"max":[5.5],"min":[0],"type":"SCALAR"},{"bufferView":7,"componentType":5126,"count":87,"max":[0.7374178171157837,0.9530057311058044,-0.04758516699075699,0.6905894875526428],"min":[-0.12090576440095901,0.6134194731712341,-0.7326726913452148,-0.21008282899856567],"type":"VEC4"},{"bufferView":8,"componentType":5126,"count":84,"max":[5.5],"min":[0],"type":"SCALAR"},{"bufferView":9,"componentType":5126,"count":84,"max":[-0.05088523402810097,0.887499988079071,0.27917933464050293],"min":[-0.702289879322052,-0.47892865538597107,-0.6988281011581421],"type":"VEC3"},{"bufferView":10,"componentType":5126,"count":1,"max":[0],"min":[0],"type":"SCALAR"},{"bufferView":11,"componentType":5126,"count":1,"max":[1,1.5,1],"min":[1,1.5,1],"type":"VEC3"},{"bufferView":12,"componentType":5126,"count":32,"max":[3.450000047683716],"min":[0],"type":"SCALAR"},{"bufferView":13,"componentType":5126,"count":32,"max":[0,0,0.019110191613435745,1],"min":[0,0,-0.06537634879350662,0.9978606700897217],"type":"VEC4"},{"bufferView":14,"componentType":5126,"count":29,"max":[3.450000047683716],"min":[0],"type":"SCALAR"},{"bufferView":15,"componentType":5126,"count":29,"max":[-0.24267578125,0.2750000059604645,-0.1875],"min":[-0.5976546406745911,-0.46574991941452026,-0.1875],"type":"VEC3"},{"bufferView":16,"componentType":5126,"count":58,"max":[4.900000095367432],"min":[0],"type":"SCALAR"},{"bufferView":17,"componentType":5126,"count":58,"max":[0,0,0,1],"min":[-0.712740421295166,0,0,0.7014278769493103],"type":"VEC4"},{"bufferView":18,"componentType":5126,"count":120,"max":[7.5],"min":[0],"type":"SCALAR"},{"bufferView":19,"componentType":5126,"count":120,"max":[0.11921186000108719,0.02923058532178402,0.1025201827287674,1],"min":[-0.12687470018863678,-0.01479216106235981,-0.021517237648367882,0.9910768866539001],"type":"VEC4"},{"bufferView":20,"componentType":5126,"count":123,"max":[7.400000095367432],"min":[0],"type":"SCALAR"},{"bufferView":21,"componentType":5126,"count":123,"max":[0.0001031674983096309,0.0696849375963211,0.07093749940395355],"min":[-0.029766220599412918,-0.18656249344348907,-0.08748099207878113],"type":"VEC3"},{"bufferView":22,"componentType":5126,"count":72,"max":[6.099999904632568],"min":[0],"type":"SCALAR"},{"bufferView":23,"componentType":5126,"count":72,"max":[0,0,0.46275460720062256,1],"min":[0,0,-0.5699967741966248,0.8216469287872314],"type":"VEC4"},{"bufferView":24,"componentType":5126,"count":64,"max":[6.099999904632568],"min":[0],"type":"SCALAR"},{"bufferView":25,"componentType":5126,"count":64,"max":[0.17499999701976776,0.2191067785024643,0.0625],"min":[0.06875000149011612,0.08124999701976776,0.0625],"type":"VEC3"},{"bufferView":26,"componentType":5126,"count":10,"max":[6.349999904632568],"min":[0],"type":"SCALAR"},{"bufferView":27,"componentType":5126,"count":10,"max":[-0.5,-0.1875,-0.703125],"min":[-0.5,-0.1875,-1.125],"type":"VEC3"}]}