{"asset":{"version":"2.0","generator":"Blockbench 4.2.4 glTF exporter"},"scenes":[{"nodes":[12],"name":"blockbench_export"}],"scene":0,"nodes":[{"translation":[0.1375,0.19374999999999998,0.0625],"name":"bone4"},{"translation":[-0.25,0.0625,-0.1875],"name":"Magazine","children":[0]},{"translation":[0,0.32343750000000004,-0.271875],"name":"GunCaps"},{"translation":[-0.5,-0.1875,-1.125],"name":"bolt"},{"name":"m60","children":[1,2,3]},{"translation":[0.375,-0.6875,0],"name":"RightHand"},{"translation":[-0.375,1,-0.625],"name":"R","children":[5]},{"name":"bone","children":[4,6]},{"translation":[-0.375,-0.6875,0],"name":"LeftHand"},{"translation":[0.375,1,-0.625],"name":"l","children":[8]},{"name":"bone2","children":[7,9]},{"translation":[0.5,0.1875,1.125],"name":"bone3","children":[10]},{"children":[11]}],"animations":[{"name":"reload_norm_scope","samplers":[{"input":0,"output":1,"interpolation":"LINEAR"},{"input":2,"output":3,"interpolation":"LINEAR"},{"input":4,"output":5,"interpolation":"LINEAR"},{"input":6,"output":7,"interpolation":"LINEAR"},{"input":8,"output":9,"interpolation":"LINEAR"},{"input":10,"output":11,"interpolation":"LINEAR"},{"input":12,"output":13,"interpolation":"LINEAR"},{"input":14,"output":15,"interpolation":"LINEAR"},{"input":16,"output":17,"interpolation":"LINEAR"},{"input":18,"output":19,"interpolation":"LINEAR"},{"input":20,"output":21,"interpolation":"LINEAR"},{"input":22,"output":23,"interpolation":"LINEAR"},{"input":24,"output":25,"interpolation":"LINEAR"},{"input":26,"output":27,"interpolation":"LINEAR"}],"channels":[{"sampler":0,"target":{"node":6,"path":"rotation"}},{"sampler":1,"target":{"node":6,"path":"translation"}},{"sampler":2,"target":{"node":6,"path":"scale"}},{"sampler":3,"target":{"node":9,"path":"rotation"}},{"sampler":4,"target":{"node":9,"path":"translation"}},{"sampler":5,"target":{"node":9,"path":"scale"}},{"sampler":6,"target":{"node":1,"path":"rotation"}},{"sampler":7,"target":{"node":1,"path":"translation"}},{"sampler":8,"target":{"node":2,"path":"rotation"}},{"sampler":9,"target":{"node":10,"path":"rotation"}},{"sampler":10,"target":{"node":10,"path":"translation"}},{"sampler":11,"target":{"node":0,"path":"rotation"}},{"sampler":12,"target":{"node":0,"path":"translation"}},{"sampler":13,"target":{"node":3,"path":"translation"}}]}],"bufferViews":[{"buffer":0,"byteOffset":0,"byteLength":164},{"buffer":0,"byteOffset":164,"byteLength":656},{"buffer":0,"byteOffset":820,"byteLength":180},{"buffer":0,"byteOffset":1000,"byteLength":540},{"buffer":0,"byteOffset":1540,"byteLength":4},{"buffer":0,"byteOffset":1544,"byteLength":12},{"buffer":0,"byteOffset":1556,"byteLength":296},{"buffer":0,"byteOffset":1852,"byteLength":1184},{"buffer":0,"byteOffset":3036,"byteLength":292},{"buffer":0,"byteOffset":3328,"byteLength":876},{"buffer":0,"byteOffset":4204,"byteLength":4},{"buffer":0,"byteOffset":4208,"byteLength":12},{"buffer":0,"byteOffset":4220,"byteLength":128},{"buffer":0,"byteOffset":4348,"byteLength":512},{"buffer":0,"byteOffset":4860,"byteLength":116},{"buffer":0,"byteOffset":4976,"byteLength":348},{"buffer":0,"byteOffset":5324,"byteLength":56},{"buffer":0,"byteOffset":5380,"byteLength":224},{"buffer":0,"byteOffset":5604,"byteLength":480},{"buffer":0,"byteOffset":6084,"byteLength":1920},{"buffer":0,"byteOffset":8004,"byteLength":492},{"buffer":0,"byteOffset":8496,"byteLength":1476},{"buffer":0,"byteOffset":9972,"byteLength":288},{"buffer":0,"byteOffset":10260,"byteLength":1152},{"buffer":0,"byteOffset":11412,"byteLength":256},{"buffer":0,"byteOffset":11668,"byteLength":768},{"buffer":0,"byteOffset":12436,"byteLength":40},{"buffer":0,"byteOffset":12476,"byteLength":120}],"buffers":[{"byteLength":12596,"uri":"data:application/octet-stream;base64,"}],"accessors":[{"bufferView":0,"componentType":5126,"count":41,"max":[6.599999904632568],"min":[0],"type":"SCALAR"},{"bufferView":1,"componentType":5126,"count":41,"max":[0.35992953181266785,0.9438180923461914,-0.2488337904214859,0.33399859070777893],"min":[-0.5093289017677307,0.5747377276420593,-0.6385378241539001,-0.5650852918624878],"type":"VEC4"},{"bufferView":2,"componentType":5126,"count":45,"max":[6.599999904632568],"min":[0],"type":"SCALAR"},{"bufferView":3,"componentType":5126,"count":45,"max":[0.2043749988079071,0.512499988079071,0.15125000476837158],"min":[0.02500000037252903,-0.06875000149011612,-0.3206250071525574],"type":"VEC3"},{"bufferView":4,"componentType":5126,"count":1,"max":[0],"min":[0],"type":"SCALAR"},{"bufferView":5,"componentType":5126,"count":1,"max":[1,1.5,1],"min":[1,1.5,1],"type":"VEC3"},{"bufferView":6,"componentType":5126,"count":74,"max":[4.75],"min":[0],"type":"SCALAR"},{"bufferView":7,"componentType":5126,"count":74,"max":[0.7456383109092712,0.8374614715576172,-0.15907928347587585,0.6962527632713318],"min":[-0.07567659020423889,0.6108900904655457,-0.6075190901756287,-0.1302945911884308],"type":"VEC4"},{"bufferView":8,"componentType":5126,"count":73,"max":[4.800000190734863],"min":[0],"type":"SCALAR"},{"bufferView":9,"componentType":5126,"count":73,"max":[-0.05232114717364311,0.31504714488983154,-0.14296874403953552],"min":[-0.702289879322052,-0.47892865538597107,-0.7254523634910583],"type":"VEC3"},{"bufferView":10,"componentType":5126,"count":1,"max":[0],"min":[0],"type":"SCALAR"},{"bufferView":11,"componentType":5126,"count":1,"max":[1,1.5,1],"min":[1,1.5,1],"type":"VEC3"},{"bufferView":12,"componentType":5126,"count":32,"max":[3.450000047683716],"min":[0],"type":"SCALAR"},{"bufferView":13,"componentType":5126,"count":32,"max":[0,0,0.019110191613435745,1],"min":[0,0,-0.06537634879350662,0.9978606700897217],"type":"VEC4"},{"bufferView":14,"componentType":5126,"count":29,"max":[3.450000047683716],"min":[0],"type":"SCALAR"},{"bufferView":15,"componentType":5126,"count":29,"max":[-0.24267578125,0.2750000059604645,-0.1875],"min":[-0.5976546406745911,-0.46574991941452026,-0.1875],"type":"VEC3"},{"bufferView":16,"componentType":5126,"count":14,"max":[5.25],"min":[0],"type":"SCALAR"},{"bufferView":17,"componentType":5126,"count":14,"max":[0,0,0,1],"min":[-0.3317495286464691,0,0,0.9433674812316895],"type":"VEC4"},{"bufferView":18,"componentType":5126,"count":120,"max":[7.5],"min":[0],"type":"SCALAR"},{"bufferView":19,"componentType":5126,"count":120,"max":[0.11921186000108719,0.02923058532178402,0.1025201827287674,1],"min":[-0.12687470018863678,-0.01479216106235981,-0.07400958240032196,0.9910768866539001],"type":"VEC4"},{"bufferView":20,"componentType":5126,"count":123,"max":[7.400000095367432],"min":[0],"type":"SCALAR"},{"bufferView":21,"componentType":5126,"count":123,"max":[0.018124999478459358,0.0696849375963211,0.07093749940395355],"min":[-0.029766220599412918,-0.18656249344348907,-0.08748099207878113],"type":"VEC3"},{"bufferView":22,"componentType":5126,"count":72,"max":[6.099999904632568],"min":[0],"type":"SCALAR"},{"bufferView":23,"componentType":5126,"count":72,"max":[0,0,0.46275460720062256,1],"min":[0,0,-0.5699967741966248,0.8216469287872314],"type":"VEC4"},{"bufferView":24,"componentType":5126,"count":64,"max":[6.099999904632568],"min":[0],"type":"SCALAR"},{"bufferView":25,"componentType":5126,"count":64,"max":[0.17499999701976776,0.2191067785024643,0.0625],"min":[0.06875000149011612,0.08124999701976776,0.0625],"type":"VEC3"},{"bufferView":26,"componentType":5126,"count":10,"max":[6.349999904632568],"min":[0],"type":"SCALAR"},{"bufferView":27,"componentType":5126,"count":10,"max":[-0.5,-0.1875,-0.703125],"min":[-0.5,-0.1875,-1.125],"type":"VEC3"}]}