{"asset":{"version":"2.0","generator":"Blockbench 4.2.4 glTF exporter"},"scenes":[{"nodes":[12],"name":"blockbench_export"}],"scene":0,"nodes":[{"translation":[0.1375,0.19374999999999998,0.0625],"name":"bone4"},{"translation":[-0.25,0.0625,-0.1875],"name":"Magazine","children":[0]},{"translation":[0,0.32343750000000004,-0.271875],"name":"GunCaps"},{"translation":[-0.5,-0.1875,-1.125],"name":"bolt"},{"name":"m60","children":[1,2,3]},{"translation":[0.375,-0.6875,0],"name":"RightHand"},{"translation":[-0.375,1,-0.625],"name":"R","children":[5]},{"name":"bone","children":[4,6]},{"translation":[-0.375,-0.6875,0],"name":"LeftHand"},{"translation":[0.375,1,-0.625],"name":"l","children":[8]},{"name":"bone2","children":[7,9]},{"translation":[0.5,0.1875,1.125],"name":"bone3","children":[10]},{"children":[11]}],"animations":[{"name":"inspect","samplers":[{"input":0,"output":1,"interpolation":"LINEAR"},{"input":2,"output":3,"interpolation":"LINEAR"},{"input":4,"output":5,"interpolation":"LINEAR"},{"input":6,"output":7,"interpolation":"LINEAR"},{"input":8,"output":9,"interpolation":"LINEAR"},{"input":10,"output":11,"interpolation":"LINEAR"},{"input":12,"output":13,"interpolation":"LINEAR"},{"input":14,"output":15,"interpolation":"LINEAR"},{"input":16,"output":17,"interpolation":"LINEAR"},{"input":18,"output":19,"interpolation":"LINEAR"}],"channels":[{"sampler":0,"target":{"node":6,"path":"rotation"}},{"sampler":1,"target":{"node":6,"path":"translation"}},{"sampler":2,"target":{"node":6,"path":"scale"}},{"sampler":3,"target":{"node":9,"path":"rotation"}},{"sampler":4,"target":{"node":9,"path":"translation"}},{"sampler":5,"target":{"node":9,"path":"scale"}},{"sampler":6,"target":{"node":10,"path":"rotation"}},{"sampler":7,"target":{"node":10,"path":"translation"}},{"sampler":8,"target":{"node":0,"path":"rotation"}},{"sampler":9,"target":{"node":0,"path":"translation"}}]}],"bufferViews":[{"buffer":0,"byteOffset":0,"byteLength":292},{"buffer":0,"byteOffset":292,"byteLength":1168},{"buffer":0,"byteOffset":1460,"byteLength":292},{"buffer":0,"byteOffset":1752,"byteLength":876},{"buffer":0,"byteOffset":2628,"byteLength":4},{"buffer":0,"byteOffset":2632,"byteLength":12},{"buffer":0,"byteOffset":2644,"byteLength":292},{"buffer":0,"byteOffset":2936,"byteLength":1168},{"buffer":0,"byteOffset":4104,"byteLength":288},{"buffer":0,"byteOffset":4392,"byteLength":864},{"buffer":0,"byteOffset":5256,"byteLength":4},{"buffer":0,"byteOffset":5260,"byteLength":12},{"buffer":0,"byteOffset":5272,"byteLength":512},{"buffer":0,"byteOffset":5784,"byteLength":2048},{"buffer":0,"byteOffset":7832,"byteLength":548},{"buffer":0,"byteOffset":8380,"byteLength":1644},{"buffer":0,"byteOffset":10024,"byteLength":148},{"buffer":0,"byteOffset":10172,"byteLength":592},{"buffer":0,"byteOffset":10764,"byteLength":148},{"buffer":0,"byteOffset":10912,"byteLength":444}],"buffers":[{"byteLength":11356,"uri":"data:application/octet-stream;base64,"}],"accessors":[{"bufferView":0,"componentType":5126,"count":73,"max":[6.300000190734863],"min":[0],"type":"SCALAR"},{"bufferView":1,"componentType":5126,"count":73,"max":[0.604871928691864,0.9192075133323669,0.16694854199886322,0.0026613259688019753],"min":[-0.060951706022024155,0.6920890212059021,-0.6671615839004517,-0.3780912756919861],"type":"VEC4"},{"bufferView":2,"componentType":5126,"count":73,"max":[6.300000190734863],"min":[0],"type":"SCALAR"},{"bufferView":3,"componentType":5126,"count":73,"max":[0.026017706841230392,0.1584562510251999,0.3489778935909271],"min":[-0.03290124982595444,-0.06568402051925659,-0.013045145198702812],"type":"VEC3"},{"bufferView":4,"componentType":5126,"count":1,"max":[0],"min":[0],"type":"SCALAR"},{"bufferView":5,"componentType":5126,"count":1,"max":[1,1.5,1],"min":[1,1.5,1],"type":"VEC3"},{"bufferView":6,"componentType":5126,"count":73,"max":[6.800000190734863],"min":[0],"type":"SCALAR"},{"bufferView":7,"componentType":5126,"count":73,"max":[0.3168972134590149,0.6603431701660156,-0.27936825156211853,0.6818627119064331],"min":[-0.0930185616016388,0.31815144419670105,-0.8820565938949585,0.14746737480163574],"type":"VEC4"},{"bufferView":8,"componentType":5126,"count":72,"max":[6.800000190734863],"min":[0],"type":"SCALAR"},{"bufferView":9,"componentType":5126,"count":72,"max":[-0.031112825497984886,0.203125,-0.6814818382263184],"min":[-0.11562500149011612,-0.009397545829415321,-0.8302687406539917],"type":"VEC3"},{"bufferView":10,"componentType":5126,"count":1,"max":[0],"min":[0],"type":"SCALAR"},{"bufferView":11,"componentType":5126,"count":1,"max":[1,1.5,1],"min":[1,1.5,1],"type":"VEC3"},{"bufferView":12,"componentType":5126,"count":128,"max":[7.349999904632568],"min":[0],"type":"SCALAR"},{"bufferView":13,"componentType":5126,"count":128,"max":[0.40129074454307556,0.4352110028266907,0.6595216989517212,1],"min":[-0.00808449275791645,-0.005844007711857557,-0.10020019114017487,0.5480576753616333],"type":"VEC4"},{"bufferView":14,"componentType":5126,"count":137,"max":[7.400000095367432],"min":[0],"type":"SCALAR"},{"bufferView":15,"componentType":5126,"count":137,"max":[0.004831184633076191,0.11007124185562134,0.04046936705708504],"min":[-0.10737793147563934,-0.14124999940395355,-0.4419696629047394],"type":"VEC3"},{"bufferView":16,"componentType":5126,"count":37,"max":[7.449999809265137],"min":[0],"type":"SCALAR"},{"bufferView":17,"componentType":5126,"count":37,"max":[0,0,0.0523359552025795,1],"min":[0,0,-0.06237475574016571,0.9980527758598328],"type":"VEC4"},{"bufferView":18,"componentType":5126,"count":37,"max":[7.449999809265137],"min":[0],"type":"SCALAR"},{"bufferView":19,"componentType":5126,"count":37,"max":[0.13906249403953552,0.20109310746192932,0.0625],"min":[0.13124999403953552,0.18906250596046448,0.0625],"type":"VEC3"}]}