{"asset":{"version":"2.0","generator":"Blockbench 4.2.4 glTF exporter"},"scenes":[{"nodes":[12],"name":"blockbench_export"}],"scene":0,"nodes":[{"translation":[0.1375,0.19374999999999998,0.0625],"name":"bone4"},{"translation":[-0.25,0.0625,-0.1875],"name":"Magazine","children":[0]},{"translation":[0,0.32343750000000004,-0.271875],"name":"GunCaps"},{"translation":[-0.5,-0.1875,-1.125],"name":"bolt"},{"name":"m60","children":[1,2,3]},{"translation":[0.375,-0.6875,0],"name":"RightHand"},{"translation":[-0.375,1,-0.625],"name":"R","children":[5]},{"name":"bone","children":[4,6]},{"translation":[-0.375,-0.6875,0],"name":"LeftHand"},{"translation":[0.375,1,-0.625],"name":"l","children":[8]},{"name":"bone2","children":[7,9]},{"translation":[0.5,0.1875,1.125],"name":"bone3","children":[10]},{"children":[11]}],"animations":[{"name":"reload_empty","samplers":[{"input":0,"output":1,"interpolation":"LINEAR"},{"input":2,"output":3,"interpolation":"LINEAR"},{"input":4,"output":5,"interpolation":"LINEAR"},{"input":6,"output":7,"interpolation":"LINEAR"},{"input":8,"output":9,"interpolation":"LINEAR"},{"input":10,"output":11,"interpolation":"LINEAR"},{"input":12,"output":13,"interpolation":"LINEAR"},{"input":14,"output":15,"interpolation":"LINEAR"},{"input":16,"output":17,"interpolation":"LINEAR"},{"input":18,"output":19,"interpolation":"LINEAR"},{"input":20,"output":21,"interpolation":"LINEAR"},{"input":22,"output":23,"interpolation":"LINEAR"},{"input":24,"output":25,"interpolation":"LINEAR"},{"input":26,"output":27,"interpolation":"LINEAR"}],"channels":[{"sampler":0,"target":{"node":6,"path":"rotation"}},{"sampler":1,"target":{"node":6,"path":"translation"}},{"sampler":2,"target":{"node":6,"path":"scale"}},{"sampler":3,"target":{"node":9,"path":"rotation"}},{"sampler":4,"target":{"node":9,"path":"translation"}},{"sampler":5,"target":{"node":9,"path":"scale"}},{"sampler":6,"target":{"node":10,"path":"rotation"}},{"sampler":7,"target":{"node":10,"path":"translation"}},{"sampler":8,"target":{"node":1,"path":"rotation"}},{"sampler":9,"target":{"node":1,"path":"translation"}},{"sampler":10,"target":{"node":0,"path":"rotation"}},{"sampler":11,"target":{"node":0,"path":"translation"}},{"sampler":12,"target":{"node":2,"path":"rotation"}},{"sampler":13,"target":{"node":3,"path":"translation"}}]}],"bufferViews":[{"buffer":0,"byteOffset":0,"byteLength":556},{"buffer":0,"byteOffset":556,"byteLength":2224},{"buffer":0,"byteOffset":2780,"byteLength":536},{"buffer":0,"byteOffset":3316,"byteLength":1608},{"buffer":0,"byteOffset":4924,"byteLength":4},{"buffer":0,"byteOffset":4928,"byteLength":12},{"buffer":0,"byteOffset":4940,"byteLength":432},{"buffer":0,"byteOffset":5372,"byteLength":1728},{"buffer":0,"byteOffset":7100,"byteLength":432},{"buffer":0,"byteOffset":7532,"byteLength":1296},{"buffer":0,"byteOffset":8828,"byteLength":4},{"buffer":0,"byteOffset":8832,"byteLength":12},{"buffer":0,"byteOffset":8844,"byteLength":548},{"buffer":0,"byteOffset":9392,"byteLength":2192},{"buffer":0,"byteOffset":11584,"byteLength":544},{"buffer":0,"byteOffset":12128,"byteLength":1632},{"buffer":0,"byteOffset":13760,"byteLength":108},{"buffer":0,"byteOffset":13868,"byteLength":432},{"buffer":0,"byteOffset":14300,"byteLength":104},{"buffer":0,"byteOffset":14404,"byteLength":312},{"buffer":0,"byteOffset":14716,"byteLength":268},{"buffer":0,"byteOffset":14984,"byteLength":1072},{"buffer":0,"byteOffset":16056,"byteLength":504},{"buffer":0,"byteOffset":16560,"byteLength":1512},{"buffer":0,"byteOffset":18072,"byteLength":108},{"buffer":0,"byteOffset":18180,"byteLength":432},{"buffer":0,"byteOffset":18612,"byteLength":40},{"buffer":0,"byteOffset":18652,"byteLength":120}],"buffers":[{"byteLength":18772,"uri":"data:application/octet-stream;base64,"}],"accessors":[{"bufferView":0,"componentType":5126,"count":139,"max":[7.699999809265137],"min":[0],"type":"SCALAR"},{"bufferView":1,"componentType":5126,"count":139,"max":[0.40189528465270996,0.9225431084632874,-0.2405940294265747,0.5734297633171082],"min":[-0.6189413070678711,0.42743465304374695,-0.6386870741844177,-0.5933003425598145],"type":"VEC4"},{"bufferView":2,"componentType":5126,"count":134,"max":[7.699999809265137],"min":[0],"type":"SCALAR"},{"bufferView":3,"componentType":5126,"count":134,"max":[0.30532407760620117,0.5585706233978271,0.13124999403953552],"min":[-0.0029666393529623747,-0.042500000447034836,-0.48124998807907104],"type":"VEC3"},{"bufferView":4,"componentType":5126,"count":1,"max":[0],"min":[0],"type":"SCALAR"},{"bufferView":5,"componentType":5126,"count":1,"max":[1,1.5,1],"min":[1,1.5,1],"type":"VEC3"},{"bufferView":6,"componentType":5126,"count":108,"max":[6.5],"min":[0],"type":"SCALAR"},{"bufferView":7,"componentType":5126,"count":108,"max":[0.6828685402870178,0.9061949849128723,-0.09278572350740433,0.6946563720703125],"min":[-0.07727507501840591,0.6146683692932129,-0.6899610757827759,-0.18745630979537964],"type":"VEC4"},{"bufferView":8,"componentType":5126,"count":108,"max":[6.5],"min":[0],"type":"SCALAR"},{"bufferView":9,"componentType":5126,"count":108,"max":[-0.03125,0.6937500238418579,0.022012803703546524],"min":[-0.668749988079071,-0.5919587016105652,-0.7082763314247131],"type":"VEC3"},{"bufferView":10,"componentType":5126,"count":1,"max":[0],"min":[0],"type":"SCALAR"},{"bufferView":11,"componentType":5126,"count":1,"max":[1,1.5,1],"min":[1,1.5,1],"type":"VEC3"},{"bufferView":12,"componentType":5126,"count":137,"max":[8.649999618530273],"min":[0],"type":"SCALAR"},{"bufferView":13,"componentType":5126,"count":137,"max":[0.0903138518333435,0.02781340293586254,0.09195651113986969,1],"min":[-0.054651666432619095,-0.011540662497282028,-0.09616167098283768,0.9916790723800659],"type":"VEC4"},{"bufferView":14,"componentType":5126,"count":136,"max":[8.550000190734863],"min":[0],"type":"SCALAR"},{"bufferView":15,"componentType":5126,"count":136,"max":[0.010937499813735485,0.009918981231749058,0.07656250149011612],"min":[-0.04372582212090492,-0.11999999731779099,-0.050772130489349365],"type":"VEC3"},{"bufferView":16,"componentType":5126,"count":27,"max":[4.25],"min":[0],"type":"SCALAR"},{"bufferView":17,"componentType":5126,"count":27,"max":[0,0,0.004524912219494581,1],"min":[0,0,-0.061048541218042374,0.9981347918510437],"type":"VEC4"},{"bufferView":18,"componentType":5126,"count":26,"max":[4.25],"min":[0],"type":"SCALAR"},{"bufferView":19,"componentType":5126,"count":26,"max":[-0.24252930283546448,0.25117188692092896,-0.1875],"min":[-0.5562499761581421,-0.518750011920929,-0.1875],"type":"VEC3"},{"bufferView":20,"componentType":5126,"count":67,"max":[7],"min":[0],"type":"SCALAR"},{"bufferView":21,"componentType":5126,"count":67,"max":[0,0,0.3907311260700226,1],"min":[0,0,-0.01770104095339775,0.9205048680305481],"type":"VEC4"},{"bufferView":22,"componentType":5126,"count":126,"max":[7],"min":[0],"type":"SCALAR"},{"bufferView":23,"componentType":5126,"count":126,"max":[0.1431249976158142,0.19875000417232513,0.0625],"min":[-0.05787036940455437,0.07500000298023224,0.0625],"type":"VEC3"},{"bufferView":24,"componentType":5126,"count":27,"max":[5.900000095367432],"min":[0],"type":"SCALAR"},{"bufferView":25,"componentType":5126,"count":27,"max":[0,0,0,1],"min":[-0.713250458240509,0,0,0.7009092569351196],"type":"VEC4"},{"bufferView":26,"componentType":5126,"count":10,"max":[7.349999904632568],"min":[0],"type":"SCALAR"},{"bufferView":27,"componentType":5126,"count":10,"max":[-0.5,-0.1875,-0.703125],"min":[-0.5,-0.1875,-1.125],"type":"VEC3"}]}