{"asset":{"version":"2.0","generator":"Blockbench 4.2.4 glTF exporter"},"scenes":[{"nodes":[12],"name":"blockbench_export"}],"scene":0,"nodes":[{"translation":[0.1375,0.19374999999999998,0.0625],"name":"bone4"},{"translation":[-0.25,0.0625,-0.1875],"name":"Magazine","children":[0]},{"translation":[0,0.32343750000000004,-0.271875],"name":"GunCaps"},{"translation":[-0.5,-0.1875,-1.125],"name":"bolt"},{"name":"m60","children":[1,2,3]},{"translation":[0.375,-0.6875,0],"name":"RightHand"},{"translation":[-0.375,1,-0.625],"name":"R","children":[5]},{"name":"bone","children":[4,6]},{"translation":[-0.375,-0.6875,0],"name":"LeftHand"},{"translation":[0.375,1,-0.625],"name":"l","children":[8]},{"name":"bone2","children":[7,9]},{"translation":[0.5,0.1875,1.125],"name":"bone3","children":[10]},{"children":[11]}],"animations":[{"name":"reload_empty_scope","samplers":[{"input":0,"output":1,"interpolation":"LINEAR"},{"input":2,"output":3,"interpolation":"LINEAR"},{"input":4,"output":5,"interpolation":"LINEAR"},{"input":6,"output":7,"interpolation":"LINEAR"},{"input":8,"output":9,"interpolation":"LINEAR"},{"input":10,"output":11,"interpolation":"LINEAR"},{"input":12,"output":13,"interpolation":"LINEAR"},{"input":14,"output":15,"interpolation":"LINEAR"},{"input":16,"output":17,"interpolation":"LINEAR"},{"input":18,"output":19,"interpolation":"LINEAR"},{"input":20,"output":21,"interpolation":"LINEAR"},{"input":22,"output":23,"interpolation":"LINEAR"},{"input":24,"output":25,"interpolation":"LINEAR"},{"input":26,"output":27,"interpolation":"LINEAR"}],"channels":[{"sampler":0,"target":{"node":6,"path":"rotation"}},{"sampler":1,"target":{"node":6,"path":"translation"}},{"sampler":2,"target":{"node":6,"path":"scale"}},{"sampler":3,"target":{"node":9,"path":"rotation"}},{"sampler":4,"target":{"node":9,"path":"translation"}},{"sampler":5,"target":{"node":9,"path":"scale"}},{"sampler":6,"target":{"node":10,"path":"rotation"}},{"sampler":7,"target":{"node":10,"path":"translation"}},{"sampler":8,"target":{"node":1,"path":"rotation"}},{"sampler":9,"target":{"node":1,"path":"translation"}},{"sampler":10,"target":{"node":0,"path":"rotation"}},{"sampler":11,"target":{"node":0,"path":"translation"}},{"sampler":12,"target":{"node":2,"path":"rotation"}},{"sampler":13,"target":{"node":3,"path":"translation"}}]}],"bufferViews":[{"buffer":0,"byteOffset":0,"byteLength":216},{"buffer":0,"byteOffset":216,"byteLength":864},{"buffer":0,"byteOffset":1080,"byteLength":188},{"buffer":0,"byteOffset":1268,"byteLength":564},{"buffer":0,"byteOffset":1832,"byteLength":4},{"buffer":0,"byteOffset":1836,"byteLength":12},{"buffer":0,"byteOffset":1848,"byteLength":336},{"buffer":0,"byteOffset":2184,"byteLength":1344},{"buffer":0,"byteOffset":3528,"byteLength":336},{"buffer":0,"byteOffset":3864,"byteLength":1008},{"buffer":0,"byteOffset":4872,"byteLength":4},{"buffer":0,"byteOffset":4876,"byteLength":12},{"buffer":0,"byteOffset":4888,"byteLength":548},{"buffer":0,"byteOffset":5436,"byteLength":2192},{"buffer":0,"byteOffset":7628,"byteLength":544},{"buffer":0,"byteOffset":8172,"byteLength":1632},{"buffer":0,"byteOffset":9804,"byteLength":108},{"buffer":0,"byteOffset":9912,"byteLength":432},{"buffer":0,"byteOffset":10344,"byteLength":104},{"buffer":0,"byteOffset":10448,"byteLength":312},{"buffer":0,"byteOffset":10760,"byteLength":268},{"buffer":0,"byteOffset":11028,"byteLength":1072},{"buffer":0,"byteOffset":12100,"byteLength":504},{"buffer":0,"byteOffset":12604,"byteLength":1512},{"buffer":0,"byteOffset":14116,"byteLength":80},{"buffer":0,"byteOffset":14196,"byteLength":320},{"buffer":0,"byteOffset":14516,"byteLength":40},{"buffer":0,"byteOffset":14556,"byteLength":120}],"buffers":[{"byteLength":14676,"uri":"data:application/octet-stream;base64,"}],"accessors":[{"bufferView":0,"componentType":5126,"count":54,"max":[7.699999809265137],"min":[0],"type":"SCALAR"},{"bufferView":1,"componentType":5126,"count":54,"max":[0.4035916030406952,0.9473741054534912,-0.042911358177661896,0.17764055728912354],"min":[-0.3993481397628784,0.5280731320381165,-0.6958149075508118,-0.5933003425598145],"type":"VEC4"},{"bufferView":2,"componentType":5126,"count":47,"max":[7.699999809265137],"min":[0],"type":"SCALAR"},{"bufferView":3,"componentType":5126,"count":47,"max":[0.2767968773841858,0.6787499785423279,0.41669344902038574],"min":[0.02500000037252903,-0.042500000447034836,-0.30000001192092896],"type":"VEC3"},{"bufferView":4,"componentType":5126,"count":1,"max":[0],"min":[0],"type":"SCALAR"},{"bufferView":5,"componentType":5126,"count":1,"max":[1,1.5,1],"min":[1,1.5,1],"type":"VEC3"},{"bufferView":6,"componentType":5126,"count":84,"max":[5.5],"min":[0],"type":"SCALAR"},{"bufferView":7,"componentType":5126,"count":84,"max":[0.6560994386672974,0.8308655619621277,-0.19363275170326233,0.7186295986175537],"min":[-0.07979191094636917,0.5733255743980408,-0.6793387532234192,-0.27398160099983215],"type":"VEC4"},{"bufferView":8,"componentType":5126,"count":84,"max":[5.5],"min":[0],"type":"SCALAR"},{"bufferView":9,"componentType":5126,"count":84,"max":[0.1262499988079071,0.32800641655921936,0.1574999988079071],"min":[-0.668749988079071,-0.5919587016105652,-0.7077879309654236],"type":"VEC3"},{"bufferView":10,"componentType":5126,"count":1,"max":[0],"min":[0],"type":"SCALAR"},{"bufferView":11,"componentType":5126,"count":1,"max":[1,1.5,1],"min":[1,1.5,1],"type":"VEC3"},{"bufferView":12,"componentType":5126,"count":137,"max":[8.649999618530273],"min":[0],"type":"SCALAR"},{"bufferView":13,"componentType":5126,"count":137,"max":[0.0903138518333435,0.029865100979804993,0.09195651113986969,1],"min":[-0.054651666432619095,-0.011540662497282028,-0.09278711676597595,0.9927319288253784],"type":"VEC4"},{"bufferView":14,"componentType":5126,"count":136,"max":[8.550000190734863],"min":[0],"type":"SCALAR"},{"bufferView":15,"componentType":5126,"count":136,"max":[0.010937499813735485,0.009918981231749058,0.07656250149011612],"min":[-0.04372582212090492,-0.10968749970197678,-0.05624999850988388],"type":"VEC3"},{"bufferView":16,"componentType":5126,"count":27,"max":[4.25],"min":[0],"type":"SCALAR"},{"bufferView":17,"componentType":5126,"count":27,"max":[0,0,0.004524912219494581,1],"min":[0,0,-0.061048541218042374,0.9981347918510437],"type":"VEC4"},{"bufferView":18,"componentType":5126,"count":26,"max":[4.25],"min":[0],"type":"SCALAR"},{"bufferView":19,"componentType":5126,"count":26,"max":[-0.24252930283546448,0.25117188692092896,-0.1875],"min":[-0.5562499761581421,-0.518750011920929,-0.1875],"type":"VEC3"},{"bufferView":20,"componentType":5126,"count":67,"max":[7],"min":[0],"type":"SCALAR"},{"bufferView":21,"componentType":5126,"count":67,"max":[0,0,0.3907311260700226,1],"min":[0,0,-0.01770104095339775,0.9205048680305481],"type":"VEC4"},{"bufferView":22,"componentType":5126,"count":126,"max":[7],"min":[0],"type":"SCALAR"},{"bufferView":23,"componentType":5126,"count":126,"max":[0.1431249976158142,0.19875000417232513,0.0625],"min":[-0.05787036940455437,0.07500000298023224,0.0625],"type":"VEC3"},{"bufferView":24,"componentType":5126,"count":20,"max":[6.150000095367432],"min":[0],"type":"SCALAR"},{"bufferView":25,"componentType":5126,"count":20,"max":[0,0,0,1],"min":[-0.37055742740631104,0,0,0.9288095235824585],"type":"VEC4"},{"bufferView":26,"componentType":5126,"count":10,"max":[7.349999904632568],"min":[0],"type":"SCALAR"},{"bufferView":27,"componentType":5126,"count":10,"max":[-0.5,-0.1875,-0.703125],"min":[-0.5,-0.1875,-1.125],"type":"VEC3"}]}