{"asset":{"version":"2.0","generator":"Blockbench 4.2.4 glTF exporter"},"scenes":[{"nodes":[12],"name":"blockbench_export"}],"scene":0,"nodes":[{"translation":[0.1375,0.19374999999999998,0.0625],"name":"bone4"},{"translation":[-0.25,0.0625,-0.1875],"name":"Magazine","children":[0]},{"translation":[0,0.32343750000000004,-0.271875],"name":"GunCaps"},{"translation":[-0.5,-0.1875,-1.125],"name":"bolt"},{"name":"m60","children":[1,2,3]},{"translation":[0.375,-0.6875,0],"name":"RightHand"},{"translation":[-0.375,1,-0.625],"name":"R","children":[5]},{"name":"bone","children":[4,6]},{"translation":[-0.375,-0.6875,0],"name":"LeftHand"},{"translation":[0.375,1,-0.625],"name":"l","children":[8]},{"name":"bone2","children":[7,9]},{"translation":[0.5,0.1875,1.125],"name":"bone3","children":[10]},{"children":[11]}],"animations":[{"name":"draw","samplers":[{"input":0,"output":1,"interpolation":"LINEAR"},{"input":2,"output":3,"interpolation":"LINEAR"},{"input":4,"output":5,"interpolation":"LINEAR"},{"input":6,"output":7,"interpolation":"LINEAR"},{"input":8,"output":9,"interpolation":"LINEAR"},{"input":10,"output":11,"interpolation":"LINEAR"},{"input":12,"output":13,"interpolation":"LINEAR"},{"input":14,"output":15,"interpolation":"LINEAR"}],"channels":[{"sampler":0,"target":{"node":6,"path":"rotation"}},{"sampler":1,"target":{"node":6,"path":"translation"}},{"sampler":2,"target":{"node":6,"path":"scale"}},{"sampler":3,"target":{"node":9,"path":"rotation"}},{"sampler":4,"target":{"node":9,"path":"translation"}},{"sampler":5,"target":{"node":9,"path":"scale"}},{"sampler":6,"target":{"node":10,"path":"rotation"}},{"sampler":7,"target":{"node":10,"path":"translation"}}]}],"bufferViews":[{"buffer":0,"byteOffset":0,"byteLength":4},{"buffer":0,"byteOffset":4,"byteLength":16},{"buffer":0,"byteOffset":20,"byteLength":4},{"buffer":0,"byteOffset":24,"byteLength":12},{"buffer":0,"byteOffset":36,"byteLength":4},{"buffer":0,"byteOffset":40,"byteLength":12},{"buffer":0,"byteOffset":52,"byteLength":72},{"buffer":0,"byteOffset":124,"byteLength":288},{"buffer":0,"byteOffset":412,"byteLength":68},{"buffer":0,"byteOffset":480,"byteLength":204},{"buffer":0,"byteOffset":684,"byteLength":4},{"buffer":0,"byteOffset":688,"byteLength":12},{"buffer":0,"byteOffset":700,"byteLength":100},{"buffer":0,"byteOffset":800,"byteLength":400},{"buffer":0,"byteOffset":1200,"byteLength":116},{"buffer":0,"byteOffset":1316,"byteLength":348}],"buffers":[{"byteLength":1664,"uri":"data:application/octet-stream;base64,"}],"accessors":[{"bufferView":0,"componentType":5126,"count":1,"max":[0],"min":[0],"type":"SCALAR"},{"bufferView":1,"componentType":5126,"count":1,"max":[-0.05195100978016853,0.7749077677726746,-0.6288788914680481,-0.03647373244166374],"min":[-0.05195100978016853,0.7749077677726746,-0.6288788914680481,-0.03647373244166374],"type":"VEC4"},{"bufferView":2,"componentType":5126,"count":1,"max":[0],"min":[0],"type":"SCALAR"},{"bufferView":3,"componentType":5126,"count":1,"max":[0.02500000037252903,-0.02500000037252903,0],"min":[0.02500000037252903,-0.02500000037252903,0],"type":"VEC3"},{"bufferView":4,"componentType":5126,"count":1,"max":[0],"min":[0],"type":"SCALAR"},{"bufferView":5,"componentType":5126,"count":1,"max":[1,1.5,1],"min":[1,1.5,1],"type":"VEC3"},{"bufferView":6,"componentType":5126,"count":18,"max":[1.5499999523162842],"min":[0],"type":"SCALAR"},{"bufferView":7,"componentType":5126,"count":18,"max":[0.07332414388656616,0.6297410726547241,-0.36945995688438416,0.6776046752929688],"min":[-0.08818982541561127,0.17700925469398499,-0.8918040990829468,0.40984970331192017],"type":"VEC4"},{"bufferView":8,"componentType":5126,"count":17,"max":[1.5499999523162842],"min":[0],"type":"SCALAR"},{"bufferView":9,"componentType":5126,"count":17,"max":[-0.00825722049921751,0.2014525979757309,-0.3563932478427887],"min":[-0.25187501311302185,-0.00662037031725049,-0.6986111402511597],"type":"VEC3"},{"bufferView":10,"componentType":5126,"count":1,"max":[0],"min":[0],"type":"SCALAR"},{"bufferView":11,"componentType":5126,"count":1,"max":[1,1.5,1],"min":[1,1.5,1],"type":"VEC3"},{"bufferView":12,"componentType":5126,"count":25,"max":[1.7999999523162842],"min":[0],"type":"SCALAR"},{"bufferView":13,"componentType":5126,"count":25,"max":[0.6534653306007385,0.08107931166887283,0.051927901804447174,1],"min":[-0.016195837408304214,-0.0004974016919732094,-0.013764871284365654,0.7555727958679199],"type":"VEC4"},{"bufferView":14,"componentType":5126,"count":29,"max":[1.75],"min":[0],"type":"SCALAR"},{"bufferView":15,"componentType":5126,"count":29,"max":[0.20000000298023224,0.0028292180504649878,0.02500000037252903],"min":[-0.03736582770943642,-2.4625000953674316,-0.4637500047683716],"type":"VEC3"}]}