{"asset":{"version":"2.0","generator":"Blockbench 4.2.4 glTF exporter"},"scenes":[{"nodes":[9],"name":"blockbench_export"}],"scene":0,"nodes":[{"translation":[-1.306143125,-0.049325624999999984,-0.51171875],"name":"pump"},{"translation":[-1.3359375,0,-0.1875],"name":"12_gauge"},{"translation":[1.32421875,0.125,-0.4375],"name":"m870_classic2","children":[0,1]},{"translation":[0.375,-0.6875,0],"name":"RightHand"},{"translation":[-0.375,0.8125,-0.4375],"name":"R","children":[3]},{"name":"bone2","children":[2,4]},{"translation":[-0.375,-0.6875,0],"name":"LeftHand"},{"translation":[0.375,0.8125,-0.4375],"name":"l","children":[6]},{"translation":[0.5,0.375,0.9375],"name":"bone3","children":[5,7]},{"children":[8]}],"animations":[{"name":"reload_intro","samplers":[{"input":0,"output":1,"interpolation":"LINEAR"},{"input":2,"output":3,"interpolation":"LINEAR"},{"input":4,"output":5,"interpolation":"LINEAR"},{"input":6,"output":7,"interpolation":"LINEAR"},{"input":8,"output":9,"interpolation":"LINEAR"},{"input":10,"output":11,"interpolation":"LINEAR"},{"input":12,"output":13,"interpolation":"LINEAR"},{"input":14,"output":15,"interpolation":"LINEAR"},{"input":16,"output":17,"interpolation":"LINEAR"},{"input":18,"output":19,"interpolation":"LINEAR"}],"channels":[{"sampler":0,"target":{"node":4,"path":"rotation"}},{"sampler":1,"target":{"node":4,"path":"translation"}},{"sampler":2,"target":{"node":4,"path":"scale"}},{"sampler":3,"target":{"node":7,"path":"rotation"}},{"sampler":4,"target":{"node":7,"path":"translation"}},{"sampler":5,"target":{"node":7,"path":"scale"}},{"sampler":6,"target":{"node":8,"path":"rotation"}},{"sampler":7,"target":{"node":8,"path":"translation"}},{"sampler":8,"target":{"node":1,"path":"rotation"}},{"sampler":9,"target":{"node":1,"path":"translation"}}]}],"bufferViews":[{"buffer":0,"byteOffset":0,"byteLength":4},{"buffer":0,"byteOffset":4,"byteLength":16},{"buffer":0,"byteOffset":20,"byteLength":4},{"buffer":0,"byteOffset":24,"byteLength":12},{"buffer":0,"byteOffset":36,"byteLength":4},{"buffer":0,"byteOffset":40,"byteLength":12},{"buffer":0,"byteOffset":52,"byteLength":4},{"buffer":0,"byteOffset":56,"byteLength":16},{"buffer":0,"byteOffset":72,"byteLength":32},{"buffer":0,"byteOffset":104,"byteLength":96},{"buffer":0,"byteOffset":200,"byteLength":4},{"buffer":0,"byteOffset":204,"byteLength":12},{"buffer":0,"byteOffset":216,"byteLength":28},{"buffer":0,"byteOffset":244,"byteLength":112},{"buffer":0,"byteOffset":356,"byteLength":32},{"buffer":0,"byteOffset":388,"byteLength":96},{"buffer":0,"byteOffset":484,"byteLength":8},{"buffer":0,"byteOffset":492,"byteLength":32},{"buffer":0,"byteOffset":524,"byteLength":8},{"buffer":0,"byteOffset":532,"byteLength":24}],"buffers":[{"byteLength":556,"uri":"data:application/octet-stream;base64,"}],"accessors":[{"bufferView":0,"componentType":5126,"count":1,"max":[0],"min":[0],"type":"SCALAR"},{"bufferView":1,"componentType":5126,"count":1,"max":[-0.0345049649477005,0.6649811267852783,-0.7459542155265808,-0.012720947153866291],"min":[-0.0345049649477005,0.6649811267852783,-0.7459542155265808,-0.012720947153866291],"type":"VEC4"},{"bufferView":2,"componentType":5126,"count":1,"max":[0],"min":[0],"type":"SCALAR"},{"bufferView":3,"componentType":5126,"count":1,"max":[0.02500000037252903,0.0062500000931322575,0],"min":[0.02500000037252903,0.0062500000931322575,0],"type":"VEC3"},{"bufferView":4,"componentType":5126,"count":1,"max":[0],"min":[0],"type":"SCALAR"},{"bufferView":5,"componentType":5126,"count":1,"max":[1,1.5,1],"min":[1,1.5,1],"type":"VEC3"},{"bufferView":6,"componentType":5126,"count":1,"max":[0],"min":[0],"type":"SCALAR"},{"bufferView":7,"componentType":5126,"count":1,"max":[-0.21752765774726868,0.6667346358299255,-0.5534176230430603,0.44930559396743774],"min":[-0.21752765774726868,0.6667346358299255,-0.5534176230430603,0.44930559396743774],"type":"VEC4"},{"bufferView":8,"componentType":5126,"count":8,"max":[0.44999998807907104],"min":[0],"type":"SCALAR"},{"bufferView":9,"componentType":5126,"count":8,"max":[0.37926438450813293,-0.02500000037252903,0.11812625080347061],"min":[-0.24030812084674835,-0.7988737225532532,-1.0625],"type":"VEC3"},{"bufferView":10,"componentType":5126,"count":1,"max":[0],"min":[0],"type":"SCALAR"},{"bufferView":11,"componentType":5126,"count":1,"max":[1,1.5,1],"min":[1,1.5,1],"type":"VEC3"},{"bufferView":12,"componentType":5126,"count":7,"max":[0.4000000059604645],"min":[0],"type":"SCALAR"},{"bufferView":13,"componentType":5126,"count":7,"max":[0.16817855834960938,0.20768322050571442,0,1],"min":[0,0,-0.606432318687439,0.7488815188407898],"type":"VEC4"},{"bufferView":14,"componentType":5126,"count":8,"max":[0.5],"min":[0],"type":"SCALAR"},{"bufferView":15,"componentType":5126,"count":8,"max":[0.5,0.41874998807907104,0.956250011920929],"min":[0.45625001192092896,0.3687500059604645,0.893750011920929],"type":"VEC3"},{"bufferView":16,"componentType":5126,"count":2,"max":[0.05000000074505806],"min":[0],"type":"SCALAR"},{"bufferView":17,"componentType":5126,"count":2,"max":[0,0,0,1],"min":[0,0,0,1],"type":"VEC4"},{"bufferView":18,"componentType":5126,"count":2,"max":[0.05000000074505806],"min":[0],"type":"SCALAR"},{"bufferView":19,"componentType":5126,"count":2,"max":[2.0078125,0,-0.1875],"min":[-1.3359375,-0.875,-0.1875],"type":"VEC3"}]}