{"asset":{"version":"2.0","generator":"Blockbench 4.2.4 glTF exporter"},"scenes":[{"nodes":[9],"name":"blockbench_export"}],"scene":0,"nodes":[{"translation":[-1.306143125,-0.049325624999999984,-0.51171875],"name":"pump"},{"translation":[-1.3359375,0,-0.1875],"name":"12_gauge"},{"translation":[1.32421875,0.125,-0.4375],"name":"m870_classic2","children":[0,1]},{"translation":[0.375,-0.6875,0],"name":"RightHand"},{"translation":[-0.375,0.8125,-0.4375],"name":"R","children":[3]},{"name":"bone2","children":[2,4]},{"translation":[-0.375,-0.6875,0],"name":"LeftHand"},{"translation":[0.375,0.8125,-0.4375],"name":"l","children":[6]},{"translation":[0.5,0.375,0.9375],"name":"bone3","children":[5,7]},{"children":[8]}],"animations":[{"name":"draw_empty","samplers":[{"input":0,"output":1,"interpolation":"LINEAR"},{"input":2,"output":3,"interpolation":"LINEAR"},{"input":4,"output":5,"interpolation":"LINEAR"},{"input":6,"output":7,"interpolation":"LINEAR"},{"input":8,"output":9,"interpolation":"LINEAR"},{"input":10,"output":11,"interpolation":"LINEAR"},{"input":12,"output":13,"interpolation":"LINEAR"},{"input":14,"output":15,"interpolation":"LINEAR"},{"input":16,"output":17,"interpolation":"LINEAR"}],"channels":[{"sampler":0,"target":{"node":8,"path":"rotation"}},{"sampler":1,"target":{"node":8,"path":"translation"}},{"sampler":2,"target":{"node":0,"path":"translation"}},{"sampler":3,"target":{"node":4,"path":"rotation"}},{"sampler":4,"target":{"node":4,"path":"translation"}},{"sampler":5,"target":{"node":4,"path":"scale"}},{"sampler":6,"target":{"node":7,"path":"rotation"}},{"sampler":7,"target":{"node":7,"path":"translation"}},{"sampler":8,"target":{"node":7,"path":"scale"}}]}],"bufferViews":[{"buffer":0,"byteOffset":0,"byteLength":84},{"buffer":0,"byteOffset":84,"byteLength":336},{"buffer":0,"byteOffset":420,"byteLength":76},{"buffer":0,"byteOffset":496,"byteLength":228},{"buffer":0,"byteOffset":724,"byteLength":24},{"buffer":0,"byteOffset":748,"byteLength":72},{"buffer":0,"byteOffset":820,"byteLength":4},{"buffer":0,"byteOffset":824,"byteLength":16},{"buffer":0,"byteOffset":840,"byteLength":4},{"buffer":0,"byteOffset":844,"byteLength":12},{"buffer":0,"byteOffset":856,"byteLength":4},{"buffer":0,"byteOffset":860,"byteLength":12},{"buffer":0,"byteOffset":872,"byteLength":44},{"buffer":0,"byteOffset":916,"byteLength":176},{"buffer":0,"byteOffset":1092,"byteLength":44},{"buffer":0,"byteOffset":1136,"byteLength":132},{"buffer":0,"byteOffset":1268,"byteLength":8},{"buffer":0,"byteOffset":1276,"byteLength":24}],"buffers":[{"byteLength":1300,"uri":"data:application/octet-stream;base64,"}],"accessors":[{"bufferView":0,"componentType":5126,"count":21,"max":[1.125],"min":[0],"type":"SCALAR"},{"bufferView":1,"componentType":5126,"count":21,"max":[0.641221821308136,0.006037586834281683,0.017373623326420784,1],"min":[-0.02565486915409565,-0.053436558693647385,-0.044838596135377884,0.7641783952713013],"type":"VEC4"},{"bufferView":2,"componentType":5126,"count":19,"max":[1.125],"min":[0],"type":"SCALAR"},{"bufferView":3,"componentType":5126,"count":19,"max":[0.53125,0.5249999761581421,1.4562499523162842],"min":[0.4996874928474426,0.3425000011920929,0.887499988079071],"type":"VEC3"},{"bufferView":4,"componentType":5126,"count":6,"max":[1.125],"min":[0.375],"type":"SCALAR"},{"bufferView":5,"componentType":5126,"count":6,"max":[-1.3061431646347046,-0.04932562634348869,-0.32421875],"min":[-1.3061431646347046,-0.04932562634348869,-0.51171875],"type":"VEC3"},{"bufferView":6,"componentType":5126,"count":1,"max":[0],"min":[0],"type":"SCALAR"},{"bufferView":7,"componentType":5126,"count":1,"max":[-0.0345049649477005,0.6649811267852783,-0.7459542155265808,-0.012720947153866291],"min":[-0.0345049649477005,0.6649811267852783,-0.7459542155265808,-0.012720947153866291],"type":"VEC4"},{"bufferView":8,"componentType":5126,"count":1,"max":[0],"min":[0],"type":"SCALAR"},{"bufferView":9,"componentType":5126,"count":1,"max":[0.02500000037252903,0.0062500000931322575,0],"min":[0.02500000037252903,0.0062500000931322575,0],"type":"VEC3"},{"bufferView":10,"componentType":5126,"count":1,"max":[0],"min":[0],"type":"SCALAR"},{"bufferView":11,"componentType":5126,"count":1,"max":[1,1.5,1],"min":[1,1.5,1],"type":"VEC3"},{"bufferView":12,"componentType":5126,"count":11,"max":[1.125],"min":[0],"type":"SCALAR"},{"bufferView":13,"componentType":5126,"count":11,"max":[-0.09238236397504807,0.6952113509178162,-0.46227121353149414,0.5426342487335205],"min":[-0.6486725211143494,0.18204671144485474,-0.7743315696716309,-0.10494370013475418],"type":"VEC4"},{"bufferView":14,"componentType":5126,"count":11,"max":[1.125],"min":[0],"type":"SCALAR"},{"bufferView":15,"componentType":5126,"count":11,"max":[-0.06812500208616257,0.0625,0.4437499940395355],"min":[-0.9375,-0.038750000298023224,-1.0625],"type":"VEC3"},{"bufferView":16,"componentType":5126,"count":2,"max":[0.375],"min":[0],"type":"SCALAR"},{"bufferView":17,"componentType":5126,"count":2,"max":[1,1.5,1],"min":[1,1.5,1],"type":"VEC3"}]}