{"asset":{"version":"2.0","generator":"Blockbench 4.2.4 glTF exporter"},"scenes":[{"nodes":[9],"name":"blockbench_export"}],"scene":0,"nodes":[{"translation":[-1.306143125,-0.049325624999999984,-0.51171875],"name":"pump"},{"translation":[-1.3359375,0,-0.1875],"name":"12_gauge"},{"translation":[1.32421875,0.125,-0.4375],"name":"m870_classic2","children":[0,1]},{"translation":[0.375,-0.6875,0],"name":"RightHand"},{"translation":[-0.375,0.8125,-0.4375],"name":"R","children":[3]},{"name":"bone2","children":[2,4]},{"translation":[-0.375,-0.6875,0],"name":"LeftHand"},{"translation":[0.375,0.8125,-0.4375],"name":"l","children":[6]},{"translation":[0.5,0.375,0.9375],"name":"bone3","children":[5,7]},{"children":[8]}],"animations":[{"name":"draw","samplers":[{"input":0,"output":1,"interpolation":"LINEAR"},{"input":2,"output":3,"interpolation":"LINEAR"},{"input":4,"output":5,"interpolation":"LINEAR"},{"input":6,"output":7,"interpolation":"LINEAR"},{"input":8,"output":9,"interpolation":"LINEAR"},{"input":10,"output":11,"interpolation":"LINEAR"},{"input":12,"output":13,"interpolation":"LINEAR"},{"input":14,"output":15,"interpolation":"LINEAR"},{"input":16,"output":17,"interpolation":"LINEAR"}],"channels":[{"sampler":0,"target":{"node":8,"path":"rotation"}},{"sampler":1,"target":{"node":8,"path":"translation"}},{"sampler":2,"target":{"node":0,"path":"translation"}},{"sampler":3,"target":{"node":4,"path":"rotation"}},{"sampler":4,"target":{"node":4,"path":"translation"}},{"sampler":5,"target":{"node":4,"path":"scale"}},{"sampler":6,"target":{"node":7,"path":"rotation"}},{"sampler":7,"target":{"node":7,"path":"translation"}},{"sampler":8,"target":{"node":7,"path":"scale"}}]}],"bufferViews":[{"buffer":0,"byteOffset":0,"byteLength":68},{"buffer":0,"byteOffset":68,"byteLength":272},{"buffer":0,"byteOffset":340,"byteLength":64},{"buffer":0,"byteOffset":404,"byteLength":192},{"buffer":0,"byteOffset":596,"byteLength":24},{"buffer":0,"byteOffset":620,"byteLength":72},{"buffer":0,"byteOffset":692,"byteLength":4},{"buffer":0,"byteOffset":696,"byteLength":16},{"buffer":0,"byteOffset":712,"byteLength":4},{"buffer":0,"byteOffset":716,"byteLength":12},{"buffer":0,"byteOffset":728,"byteLength":4},{"buffer":0,"byteOffset":732,"byteLength":12},{"buffer":0,"byteOffset":744,"byteLength":28},{"buffer":0,"byteOffset":772,"byteLength":112},{"buffer":0,"byteOffset":884,"byteLength":28},{"buffer":0,"byteOffset":912,"byteLength":84},{"buffer":0,"byteOffset":996,"byteLength":8},{"buffer":0,"byteOffset":1004,"byteLength":24}],"buffers":[{"byteLength":1028,"uri":"data:application/octet-stream;base64,"}],"accessors":[{"bufferView":0,"componentType":5126,"count":17,"max":[0.9583333134651184],"min":[0],"type":"SCALAR"},{"bufferView":1,"componentType":5126,"count":17,"max":[0.015638310462236404,0.5260862112045288,0.17858219146728516,1],"min":[-0.2672671377658844,-0.015594836324453354,-0.00048335891915485263,0.7873436212539673],"type":"VEC4"},{"bufferView":2,"componentType":5126,"count":16,"max":[0.9583333134651184],"min":[0],"type":"SCALAR"},{"bufferView":3,"componentType":5126,"count":16,"max":[0.5096990466117859,0.3753906190395355,1.25],"min":[0.4996874928474426,-0.1875,0.9346874952316284],"type":"VEC3"},{"bufferView":4,"componentType":5126,"count":6,"max":[0.9583333134651184],"min":[0.2083333283662796],"type":"SCALAR"},{"bufferView":5,"componentType":5126,"count":6,"max":[-1.3061431646347046,-0.04932562634348869,-0.32421875],"min":[-1.3061431646347046,-0.04932562634348869,-0.51171875],"type":"VEC3"},{"bufferView":6,"componentType":5126,"count":1,"max":[0],"min":[0],"type":"SCALAR"},{"bufferView":7,"componentType":5126,"count":1,"max":[-0.0345049649477005,0.6649811267852783,-0.7459542155265808,-0.012720947153866291],"min":[-0.0345049649477005,0.6649811267852783,-0.7459542155265808,-0.012720947153866291],"type":"VEC4"},{"bufferView":8,"componentType":5126,"count":1,"max":[0],"min":[0],"type":"SCALAR"},{"bufferView":9,"componentType":5126,"count":1,"max":[0.02500000037252903,0.0062500000931322575,0],"min":[0.02500000037252903,0.0062500000931322575,0],"type":"VEC3"},{"bufferView":10,"componentType":5126,"count":1,"max":[0],"min":[0],"type":"SCALAR"},{"bufferView":11,"componentType":5126,"count":1,"max":[1,1.5,1],"min":[1,1.5,1],"type":"VEC3"},{"bufferView":12,"componentType":5126,"count":7,"max":[0.9583333134651184],"min":[0],"type":"SCALAR"},{"bufferView":13,"componentType":5126,"count":7,"max":[-0.09238236397504807,0.6952113509178162,-0.46227121353149414,0.5426342487335205],"min":[-0.21752765774726868,0.6647683382034302,-0.5534176230430603,0.44930559396743774],"type":"VEC4"},{"bufferView":14,"componentType":5126,"count":7,"max":[0.9583333134651184],"min":[0],"type":"SCALAR"},{"bufferView":15,"componentType":5126,"count":7,"max":[-0.06875000149011612,-0.02500000037252903,-0.875],"min":[-0.06875000149011612,-0.02500000037252903,-1.0625],"type":"VEC3"},{"bufferView":16,"componentType":5126,"count":2,"max":[0.2083333283662796],"min":[0],"type":"SCALAR"},{"bufferView":17,"componentType":5126,"count":2,"max":[1,1.5,1],"min":[1,1.5,1],"type":"VEC3"}]}