{"asset":{"version":"2.0","generator":"Blockbench 4.2.4 glTF exporter"},"scenes":[{"nodes":[9],"name":"blockbench_export"}],"scene":0,"nodes":[{"translation":[-1.306143125,-0.049325624999999984,-0.51171875],"name":"pump"},{"translation":[-1.3359375,0,-0.1875],"name":"12_gauge"},{"translation":[1.32421875,0.125,-0.4375],"name":"m870_classic2","children":[0,1]},{"translation":[0.375,-0.6875,0],"name":"RightHand"},{"translation":[-0.375,0.8125,-0.4375],"name":"R","children":[3]},{"name":"bone2","children":[2,4]},{"translation":[-0.375,-0.6875,0],"name":"LeftHand"},{"translation":[0.375,0.8125,-0.4375],"name":"l","children":[6]},{"translation":[0.5,0.375,0.9375],"name":"bone3","children":[5,7]},{"children":[8]}],"animations":[{"name":"reload_loop","samplers":[{"input":0,"output":1,"interpolation":"LINEAR"},{"input":2,"output":3,"interpolation":"LINEAR"},{"input":4,"output":5,"interpolation":"LINEAR"},{"input":6,"output":7,"interpolation":"LINEAR"},{"input":8,"output":9,"interpolation":"LINEAR"},{"input":10,"output":11,"interpolation":"LINEAR"},{"input":12,"output":13,"interpolation":"LINEAR"},{"input":14,"output":15,"interpolation":"LINEAR"},{"input":16,"output":17,"interpolation":"LINEAR"},{"input":18,"output":19,"interpolation":"LINEAR"}],"channels":[{"sampler":0,"target":{"node":4,"path":"rotation"}},{"sampler":1,"target":{"node":4,"path":"translation"}},{"sampler":2,"target":{"node":4,"path":"scale"}},{"sampler":3,"target":{"node":7,"path":"rotation"}},{"sampler":4,"target":{"node":7,"path":"translation"}},{"sampler":5,"target":{"node":7,"path":"scale"}},{"sampler":6,"target":{"node":8,"path":"rotation"}},{"sampler":7,"target":{"node":8,"path":"translation"}},{"sampler":8,"target":{"node":1,"path":"rotation"}},{"sampler":9,"target":{"node":1,"path":"translation"}}]}],"bufferViews":[{"buffer":0,"byteOffset":0,"byteLength":4},{"buffer":0,"byteOffset":4,"byteLength":16},{"buffer":0,"byteOffset":20,"byteLength":4},{"buffer":0,"byteOffset":24,"byteLength":12},{"buffer":0,"byteOffset":36,"byteLength":4},{"buffer":0,"byteOffset":40,"byteLength":12},{"buffer":0,"byteOffset":52,"byteLength":32},{"buffer":0,"byteOffset":84,"byteLength":128},{"buffer":0,"byteOffset":212,"byteLength":44},{"buffer":0,"byteOffset":256,"byteLength":132},{"buffer":0,"byteOffset":388,"byteLength":4},{"buffer":0,"byteOffset":392,"byteLength":12},{"buffer":0,"byteOffset":404,"byteLength":40},{"buffer":0,"byteOffset":444,"byteLength":160},{"buffer":0,"byteOffset":604,"byteLength":40},{"buffer":0,"byteOffset":644,"byteLength":120},{"buffer":0,"byteOffset":764,"byteLength":40},{"buffer":0,"byteOffset":804,"byteLength":160},{"buffer":0,"byteOffset":964,"byteLength":40},{"buffer":0,"byteOffset":1004,"byteLength":120}],"buffers":[{"byteLength":1124,"uri":"data:application/octet-stream;base64,"}],"accessors":[{"bufferView":0,"componentType":5126,"count":1,"max":[0],"min":[0],"type":"SCALAR"},{"bufferView":1,"componentType":5126,"count":1,"max":[-0.0345049649477005,0.6649811267852783,-0.7459542155265808,-0.012720947153866291],"min":[-0.0345049649477005,0.6649811267852783,-0.7459542155265808,-0.012720947153866291],"type":"VEC4"},{"bufferView":2,"componentType":5126,"count":1,"max":[0],"min":[0],"type":"SCALAR"},{"bufferView":3,"componentType":5126,"count":1,"max":[0.02500000037252903,0.0062500000931322575,0],"min":[0.02500000037252903,0.0062500000931322575,0],"type":"VEC3"},{"bufferView":4,"componentType":5126,"count":1,"max":[0],"min":[0],"type":"SCALAR"},{"bufferView":5,"componentType":5126,"count":1,"max":[1,1.5,1],"min":[1,1.5,1],"type":"VEC3"},{"bufferView":6,"componentType":5126,"count":8,"max":[0.6499999761581421],"min":[0],"type":"SCALAR"},{"bufferView":7,"componentType":5126,"count":8,"max":[-0.04517458751797676,0.8874064087867737,-0.43836042284965515,0.44930559396743774],"min":[-0.21752765774726868,0.6667346358299255,-0.5688373446464539,-0.17804579436779022],"type":"VEC4"},{"bufferView":8,"componentType":5126,"count":11,"max":[0.6499999761581421],"min":[0],"type":"SCALAR"},{"bufferView":9,"componentType":5126,"count":11,"max":[0.37937501072883606,-0.04785187542438507,0.11812499910593033],"min":[0.03469875082373619,-0.7987499833106995,-0.4661206305027008],"type":"VEC3"},{"bufferView":10,"componentType":5126,"count":1,"max":[0],"min":[0],"type":"SCALAR"},{"bufferView":11,"componentType":5126,"count":1,"max":[1,1.5,1],"min":[1,1.5,1],"type":"VEC3"},{"bufferView":12,"componentType":5126,"count":10,"max":[0.6499999761581421],"min":[0],"type":"SCALAR"},{"bufferView":13,"componentType":5126,"count":10,"max":[0.16969336569309235,0.21751447021961212,-0.6004834175109863,0.753732442855835],"min":[0.1557215005159378,0.2061825692653656,-0.649776041507721,0.711497962474823],"type":"VEC4"},{"bufferView":14,"componentType":5126,"count":10,"max":[0.6499999761581421],"min":[0],"type":"SCALAR"},{"bufferView":15,"componentType":5126,"count":10,"max":[0.4581249952316284,0.37812501192092896,0.9386249780654907],"min":[0.453125,0.3606249988079071,0.921875],"type":"VEC3"},{"bufferView":16,"componentType":5126,"count":10,"max":[0.5],"min":[0],"type":"SCALAR"},{"bufferView":17,"componentType":5126,"count":10,"max":[0.1736481785774231,0,0,1],"min":[0,0,0,0.9848077297210693],"type":"VEC4"},{"bufferView":18,"componentType":5126,"count":10,"max":[0.5],"min":[0],"type":"SCALAR"},{"bufferView":19,"componentType":5126,"count":10,"max":[2.0078125,0.0031250000465661287,0.49200811982154846],"min":[-1.3359375,-0.875,-0.20624999701976776],"type":"VEC3"}]}