{"asset":{"version":"2.0","generator":"Blockbench 4.2.4 glTF exporter"},"scenes":[{"nodes":[9],"name":"blockbench_export"}],"scene":0,"nodes":[{"translation":[-1.306143125,-0.049325624999999984,-0.51171875],"name":"pump"},{"translation":[-1.3359375,0,-0.1875],"name":"12_gauge"},{"translation":[1.32421875,0.125,-0.4375],"name":"m870_classic2","children":[0,1]},{"translation":[0.375,-0.6875,0],"name":"RightHand"},{"translation":[-0.375,0.8125,-0.4375],"name":"R","children":[3]},{"name":"bone2","children":[2,4]},{"translation":[-0.375,-0.6875,0],"name":"LeftHand"},{"translation":[0.375,0.8125,-0.4375],"name":"l","children":[6]},{"translation":[0.5,0.375,0.9375],"name":"bone3","children":[5,7]},{"children":[8]}],"animations":[{"name":"reload_empty_end","samplers":[{"input":0,"output":1,"interpolation":"LINEAR"},{"input":2,"output":3,"interpolation":"LINEAR"},{"input":4,"output":5,"interpolation":"LINEAR"},{"input":6,"output":7,"interpolation":"LINEAR"},{"input":8,"output":9,"interpolation":"LINEAR"},{"input":10,"output":11,"interpolation":"LINEAR"},{"input":12,"output":13,"interpolation":"LINEAR"},{"input":14,"output":15,"interpolation":"LINEAR"},{"input":16,"output":17,"interpolation":"LINEAR"}],"channels":[{"sampler":0,"target":{"node":4,"path":"rotation"}},{"sampler":1,"target":{"node":4,"path":"translation"}},{"sampler":2,"target":{"node":4,"path":"scale"}},{"sampler":3,"target":{"node":7,"path":"rotation"}},{"sampler":4,"target":{"node":7,"path":"translation"}},{"sampler":5,"target":{"node":7,"path":"scale"}},{"sampler":6,"target":{"node":8,"path":"rotation"}},{"sampler":7,"target":{"node":8,"path":"translation"}},{"sampler":8,"target":{"node":0,"path":"translation"}}]}],"bufferViews":[{"buffer":0,"byteOffset":0,"byteLength":16},{"buffer":0,"byteOffset":16,"byteLength":64},{"buffer":0,"byteOffset":80,"byteLength":16},{"buffer":0,"byteOffset":96,"byteLength":48},{"buffer":0,"byteOffset":144,"byteLength":16},{"buffer":0,"byteOffset":160,"byteLength":48},{"buffer":0,"byteOffset":208,"byteLength":24},{"buffer":0,"byteOffset":232,"byteLength":96},{"buffer":0,"byteOffset":328,"byteLength":44},{"buffer":0,"byteOffset":372,"byteLength":132},{"buffer":0,"byteOffset":504,"byteLength":16},{"buffer":0,"byteOffset":520,"byteLength":48},{"buffer":0,"byteOffset":568,"byteLength":72},{"buffer":0,"byteOffset":640,"byteLength":288},{"buffer":0,"byteOffset":928,"byteLength":60},{"buffer":0,"byteOffset":988,"byteLength":180},{"buffer":0,"byteOffset":1168,"byteLength":16},{"buffer":0,"byteOffset":1184,"byteLength":48}],"buffers":[{"byteLength":1232,"uri":"data:application/octet-stream;base64,"}],"accessors":[{"bufferView":0,"componentType":5126,"count":4,"max":[0.699999988079071],"min":[0],"type":"SCALAR"},{"bufferView":1,"componentType":5126,"count":4,"max":[-0.0345049649477005,0.6649811267852783,-0.7459542155265808,-0.012720947153866291],"min":[-0.0345049649477005,0.6649811267852783,-0.7459542155265808,-0.012720947153866291],"type":"VEC4"},{"bufferView":2,"componentType":5126,"count":4,"max":[0.699999988079071],"min":[0],"type":"SCALAR"},{"bufferView":3,"componentType":5126,"count":4,"max":[0.02500000037252903,0.0062500000931322575,0],"min":[0.02500000037252903,0.0062500000931322575,0],"type":"VEC3"},{"bufferView":4,"componentType":5126,"count":4,"max":[0.699999988079071],"min":[0],"type":"SCALAR"},{"bufferView":5,"componentType":5126,"count":4,"max":[1,1.5,1],"min":[1,1.5,1],"type":"VEC3"},{"bufferView":6,"componentType":5126,"count":6,"max":[1.0499999523162842],"min":[0],"type":"SCALAR"},{"bufferView":7,"componentType":5126,"count":6,"max":[-0.21752765774726868,0.6667346358299255,-0.5534176230430603,0.44930559396743774],"min":[-0.21752765774726868,0.6667346358299255,-0.5534176230430603,0.44930559396743774],"type":"VEC4"},{"bufferView":8,"componentType":5126,"count":11,"max":[1.0499999523162842],"min":[0],"type":"SCALAR"},{"bufferView":9,"componentType":5126,"count":11,"max":[0.37937501072883606,-0.02500000037252903,0.11812499910593033],"min":[-0.07024937868118286,-0.7987499833106995,-1.0625],"type":"VEC3"},{"bufferView":10,"componentType":5126,"count":4,"max":[0.699999988079071],"min":[0],"type":"SCALAR"},{"bufferView":11,"componentType":5126,"count":4,"max":[1,1.5,1],"min":[1,1.5,1],"type":"VEC3"},{"bufferView":12,"componentType":5126,"count":18,"max":[1.0499999523162842],"min":[0],"type":"SCALAR"},{"bufferView":13,"componentType":5126,"count":18,"max":[0.16817855834960938,0.20768322050571442,0.013824746944010258,1],"min":[-0.019403183832764626,-0.0019907946698367596,-0.606432318687439,0.7488815188407898],"type":"VEC4"},{"bufferView":14,"componentType":5126,"count":15,"max":[1.0499999523162842],"min":[0],"type":"SCALAR"},{"bufferView":15,"componentType":5126,"count":15,"max":[0.5011699795722961,0.38122624158859253,1.0056250095367432],"min":[0.45625001192092896,0.37191063165664673,0.8365625143051147],"type":"VEC3"},{"bufferView":16,"componentType":5126,"count":4,"max":[0.6499999761581421],"min":[0.3499999940395355],"type":"SCALAR"},{"bufferView":17,"componentType":5126,"count":4,"max":[-1.3061431646347046,-0.04932562634348869,-0.324363112449646],"min":[-1.3072675466537476,-0.056594375520944595,-0.51171875],"type":"VEC3"}]}