{"asset":{"version":"2.0","generator":"Blockbench 4.2.4 glTF exporter"},"scenes":[{"nodes":[9],"name":"blockbench_export"}],"scene":0,"nodes":[{"translation":[0.521376875,-0.010277499999999998,0.447880625],"name":"magazine"},{"translation":[0.521376875,0.6772225000000001,0.510380625],"name":"bolt"},{"name":"micro_uzi","children":[0,1]},{"translation":[0.375,-0.6875,0],"name":"RightHand"},{"translation":[0.125,1.1875,0.5],"name":"R","children":[3]},{"translation":[-0.5625,-0.469875625,-0.587896875],"name":"bone2","children":[2,4]},{"translation":[-0.375,-0.6875,0],"name":"LeftHand"},{"translation":[0.3125,0.717624375,-0.08789687499999999],"name":"l","children":[6]},{"translation":[0.5625,0.5,0.5625],"name":"bone","children":[5,7]},{"children":[8]}],"animations":[{"name":"inspect","samplers":[{"input":0,"output":1,"interpolation":"LINEAR"},{"input":2,"output":3,"interpolation":"LINEAR"},{"input":4,"output":5,"interpolation":"LINEAR"},{"input":6,"output":7,"interpolation":"LINEAR"},{"input":8,"output":9,"interpolation":"LINEAR"},{"input":10,"output":11,"interpolation":"STEP"},{"input":12,"output":13,"interpolation":"LINEAR"},{"input":14,"output":15,"interpolation":"LINEAR"}],"channels":[{"sampler":0,"target":{"node":7,"path":"rotation"}},{"sampler":1,"target":{"node":7,"path":"translation"}},{"sampler":2,"target":{"node":7,"path":"scale"}},{"sampler":3,"target":{"node":4,"path":"rotation"}},{"sampler":4,"target":{"node":4,"path":"translation"}},{"sampler":5,"target":{"node":4,"path":"scale"}},{"sampler":6,"target":{"node":8,"path":"rotation"}},{"sampler":7,"target":{"node":8,"path":"translation"}}]}],"bufferViews":[{"buffer":0,"byteOffset":0,"byteLength":4},{"buffer":0,"byteOffset":4,"byteLength":16},{"buffer":0,"byteOffset":20,"byteLength":4},{"buffer":0,"byteOffset":24,"byteLength":12},{"buffer":0,"byteOffset":36,"byteLength":4},{"buffer":0,"byteOffset":40,"byteLength":12},{"buffer":0,"byteOffset":52,"byteLength":36},{"buffer":0,"byteOffset":88,"byteLength":144},{"buffer":0,"byteOffset":232,"byteLength":36},{"buffer":0,"byteOffset":268,"byteLength":108},{"buffer":0,"byteOffset":376,"byteLength":4},{"buffer":0,"byteOffset":380,"byteLength":12},{"buffer":0,"byteOffset":392,"byteLength":268},{"buffer":0,"byteOffset":660,"byteLength":1072},{"buffer":0,"byteOffset":1732,"byteLength":256},{"buffer":0,"byteOffset":1988,"byteLength":768}],"buffers":[{"byteLength":2756,"uri":"data:application/octet-stream;base64,"}],"accessors":[{"bufferView":0,"componentType":5126,"count":1,"max":[0],"min":[0],"type":"SCALAR"},{"bufferView":1,"componentType":5126,"count":1,"max":[-4.329780301713277e-17,0.7071067690849304,-0.7071067690849304,4.329780301713277e-17],"min":[-4.329780301713277e-17,0.7071067690849304,-0.7071067690849304,4.329780301713277e-17],"type":"VEC4"},{"bufferView":2,"componentType":5126,"count":1,"max":[0],"min":[0],"type":"SCALAR"},{"bufferView":3,"componentType":5126,"count":1,"max":[-1,-1.0948755741119385,0.22460313141345978],"min":[-1,-1.0948755741119385,0.22460313141345978],"type":"VEC3"},{"bufferView":4,"componentType":5126,"count":1,"max":[0],"min":[0],"type":"SCALAR"},{"bufferView":5,"componentType":5126,"count":1,"max":[1.75,2,1.75],"min":[1.75,2,1.75],"type":"VEC3"},{"bufferView":6,"componentType":5126,"count":9,"max":[2.200000047683716],"min":[0],"type":"SCALAR"},{"bufferView":7,"componentType":5126,"count":9,"max":[-4.77541525404785e-17,0.7799327373504639,-0.6239002346992493,3.8326758555599395e-17],"min":[-0.05100685730576515,0.778214693069458,-0.6259234547615051,-0.05044970288872719],"type":"VEC4"},{"bufferView":8,"componentType":5126,"count":9,"max":[2.200000047683716],"min":[0],"type":"SCALAR"},{"bufferView":9,"componentType":5126,"count":9,"max":[0.6831250190734863,0.30000001192092896,0.3125],"min":[0.4710277318954468,0.30000001192092896,0.3125],"type":"VEC3"},{"bufferView":10,"componentType":5126,"count":1,"max":[0],"min":[0],"type":"SCALAR"},{"bufferView":11,"componentType":5126,"count":1,"max":[1.75,2,1.75],"min":[1.75,2,1.75],"type":"VEC3"},{"bufferView":12,"componentType":5126,"count":67,"max":[4.25],"min":[0],"type":"SCALAR"},{"bufferView":13,"componentType":5126,"count":67,"max":[0.4693268835544586,0.369926780462265,0.5448879599571228,1],"min":[0,-0.19320954382419586,-0.31188270449638367,0.6701862812042236],"type":"VEC4"},{"bufferView":14,"componentType":5126,"count":64,"max":[4.150000095367432],"min":[0],"type":"SCALAR"},{"bufferView":15,"componentType":5126,"count":64,"max":[0.7806249856948853,0.8237500190734863,0.590263307094574],"min":[0.44174396991729736,0.5,0.5606250166893005],"type":"VEC3"}]}