{"asset":{"version":"2.0","generator":"Blockbench 4.2.4 glTF exporter"},"scenes":[{"nodes":[9],"name":"blockbench_export"}],"scene":0,"nodes":[{"translation":[0.521376875,-0.010277499999999998,0.447880625],"name":"magazine"},{"translation":[0.521376875,0.6772225000000001,0.510380625],"name":"bolt"},{"name":"micro_uzi","children":[0,1]},{"translation":[0.375,-0.6875,0],"name":"RightHand"},{"translation":[0.125,1.1875,0.5],"name":"R","children":[3]},{"translation":[-0.5625,-0.469875625,-0.587896875],"name":"bone2","children":[2,4]},{"translation":[-0.375,-0.6875,0],"name":"LeftHand"},{"translation":[0.3125,0.717624375,-0.08789687499999999],"name":"l","children":[6]},{"translation":[0.5625,0.5,0.5625],"name":"bone","children":[5,7]},{"children":[8]}],"animations":[{"name":"reload_norm","samplers":[{"input":0,"output":1,"interpolation":"LINEAR"},{"input":2,"output":3,"interpolation":"LINEAR"},{"input":4,"output":5,"interpolation":"LINEAR"},{"input":6,"output":7,"interpolation":"LINEAR"},{"input":8,"output":9,"interpolation":"LINEAR"},{"input":10,"output":11,"interpolation":"LINEAR"},{"input":12,"output":13,"interpolation":"LINEAR"},{"input":14,"output":15,"interpolation":"LINEAR"},{"input":16,"output":17,"interpolation":"LINEAR"},{"input":18,"output":19,"interpolation":"LINEAR"}],"channels":[{"sampler":0,"target":{"node":7,"path":"rotation"}},{"sampler":1,"target":{"node":7,"path":"translation"}},{"sampler":2,"target":{"node":7,"path":"scale"}},{"sampler":3,"target":{"node":4,"path":"rotation"}},{"sampler":4,"target":{"node":4,"path":"translation"}},{"sampler":5,"target":{"node":4,"path":"scale"}},{"sampler":6,"target":{"node":8,"path":"rotation"}},{"sampler":7,"target":{"node":8,"path":"translation"}},{"sampler":8,"target":{"node":0,"path":"rotation"}},{"sampler":9,"target":{"node":0,"path":"translation"}}]}],"bufferViews":[{"buffer":0,"byteOffset":0,"byteLength":40},{"buffer":0,"byteOffset":40,"byteLength":160},{"buffer":0,"byteOffset":200,"byteLength":108},{"buffer":0,"byteOffset":308,"byteLength":324},{"buffer":0,"byteOffset":632,"byteLength":4},{"buffer":0,"byteOffset":636,"byteLength":12},{"buffer":0,"byteOffset":648,"byteLength":4},{"buffer":0,"byteOffset":652,"byteLength":16},{"buffer":0,"byteOffset":668,"byteLength":4},{"buffer":0,"byteOffset":672,"byteLength":12},{"buffer":0,"byteOffset":684,"byteLength":4},{"buffer":0,"byteOffset":688,"byteLength":12},{"buffer":0,"byteOffset":700,"byteLength":136},{"buffer":0,"byteOffset":836,"byteLength":544},{"buffer":0,"byteOffset":1380,"byteLength":136},{"buffer":0,"byteOffset":1516,"byteLength":408},{"buffer":0,"byteOffset":1924,"byteLength":72},{"buffer":0,"byteOffset":1996,"byteLength":288},{"buffer":0,"byteOffset":2284,"byteLength":76},{"buffer":0,"byteOffset":2360,"byteLength":228}],"buffers":[{"byteLength":2588,"uri":"data:application/octet-stream;base64,"}],"accessors":[{"bufferView":0,"componentType":5126,"count":10,"max":[1.75],"min":[0],"type":"SCALAR"},{"bufferView":1,"componentType":5126,"count":10,"max":[0.4582624137401581,0.7699231505393982,-0.41313686966896057,0.15165439248085022],"min":[-0.030843565240502357,0.7062505483627319,-0.7071067690849304,-0.2963722348213196],"type":"VEC4"},{"bufferView":2,"componentType":5126,"count":27,"max":[1.75],"min":[0],"type":"SCALAR"},{"bufferView":3,"componentType":5126,"count":27,"max":[1.0528262853622437,-0.8761256337165833,0.22460313141345978],"min":[-1,-3.163625717163086,-0.33923500776290894],"type":"VEC3"},{"bufferView":4,"componentType":5126,"count":1,"max":[0],"min":[0],"type":"SCALAR"},{"bufferView":5,"componentType":5126,"count":1,"max":[1.75,2,1.75],"min":[1.75,2,1.75],"type":"VEC3"},{"bufferView":6,"componentType":5126,"count":1,"max":[0],"min":[0],"type":"SCALAR"},{"bufferView":7,"componentType":5126,"count":1,"max":[-0.05100685730576515,0.778214693069458,-0.6245833039283752,-0.040937330573797226],"min":[-0.05100685730576515,0.778214693069458,-0.6245833039283752,-0.040937330573797226],"type":"VEC4"},{"bufferView":8,"componentType":5126,"count":1,"max":[0],"min":[0],"type":"SCALAR"},{"bufferView":9,"componentType":5126,"count":1,"max":[0.48124998807907104,0.30000001192092896,0.3125],"min":[0.48124998807907104,0.30000001192092896,0.3125],"type":"VEC3"},{"bufferView":10,"componentType":5126,"count":1,"max":[0],"min":[0],"type":"SCALAR"},{"bufferView":11,"componentType":5126,"count":1,"max":[1.75,2,1.75],"min":[1.75,2,1.75],"type":"VEC3"},{"bufferView":12,"componentType":5126,"count":34,"max":[2.0999999046325684],"min":[0],"type":"SCALAR"},{"bufferView":13,"componentType":5126,"count":34,"max":[0.24869894981384277,0.23048174381256104,0.03481448441743851,1],"min":[-0.004363199695944786,-0.008726202882826328,-0.462959349155426,0.8279978632926941],"type":"VEC4"},{"bufferView":14,"componentType":5126,"count":34,"max":[2.049999952316284],"min":[0],"type":"SCALAR"},{"bufferView":15,"componentType":5126,"count":34,"max":[0.7099999785423279,0.8378124833106995,0.7243750095367432],"min":[0.5625,0.48750001192092896,0.5625],"type":"VEC3"},{"bufferView":16,"componentType":5126,"count":18,"max":[1.5],"min":[0],"type":"SCALAR"},{"bufferView":17,"componentType":5126,"count":18,"max":[0.132283553481102,0.01700388267636299,0.12891919910907745,1],"min":[-0.1550961434841156,-0.2903124988079071,-0.5704169273376465,0.8097106218338013],"type":"VEC4"},{"bufferView":18,"componentType":5126,"count":19,"max":[1.5],"min":[0],"type":"SCALAR"},{"bufferView":19,"componentType":5126,"count":19,"max":[1.815126895904541,-0.010277500376105309,0.4478806257247925],"min":[0.29637688398361206,-2.377793312072754,0.3541306257247925],"type":"VEC3"}]}