{"asset":{"version":"2.0","generator":"Blockbench 4.5.2 glTF exporter"},"scenes":[{"nodes":[11],"name":"blockbench_export"}],"scene":0,"nodes":[{"translation":[0,0.0625,-0.5],"name":"bolt2"},{"translation":[0.00012812500000003446,0.01832937499999998,-0.322265625],"name":"charger"},{"translation":[0,0.05040875,0.14374874999999998],"name":"mk14_bolt","children":[0,1]},{"translation":[0,0.019158750000000002,-0.15625125],"name":"mk14_magazine"},{"translation":[0,0.16875,-0.34375],"name":"mk14","children":[2,3]},{"translation":[0.375,-0.6875,0],"name":"RightHand"},{"translation":[-0.375,1,-0.5],"name":"R","children":[5]},{"name":"bone","children":[4,6]},{"translation":[-0.375,-0.6875,0],"name":"LeftHand"},{"translation":[0.375,1,-0.5],"name":"l","children":[8]},{"translation":[0.5,0.1875,1],"name":"bone2","children":[7,9]},{"children":[10]}],"animations":[{"name":"reload_empty","samplers":[{"input":0,"output":1,"interpolation":"LINEAR"},{"input":2,"output":3,"interpolation":"LINEAR"},{"input":4,"output":5,"interpolation":"LINEAR"},{"input":6,"output":7,"interpolation":"LINEAR"},{"input":8,"output":9,"interpolation":"LINEAR"},{"input":10,"output":11,"interpolation":"LINEAR"},{"input":12,"output":13,"interpolation":"LINEAR"},{"input":14,"output":15,"interpolation":"LINEAR"},{"input":16,"output":17,"interpolation":"LINEAR"},{"input":18,"output":19,"interpolation":"LINEAR"},{"input":20,"output":21,"interpolation":"LINEAR"},{"input":22,"output":23,"interpolation":"LINEAR"},{"input":24,"output":25,"interpolation":"LINEAR"},{"input":26,"output":27,"interpolation":"LINEAR"},{"input":28,"output":29,"interpolation":"LINEAR"},{"input":30,"output":31,"interpolation":"LINEAR"},{"input":32,"output":33,"interpolation":"LINEAR"},{"input":34,"output":35,"interpolation":"LINEAR"},{"input":36,"output":37,"interpolation":"LINEAR"}],"channels":[{"sampler":0,"target":{"node":9,"path":"rotation"}},{"sampler":1,"target":{"node":9,"path":"translation"}},{"sampler":2,"target":{"node":9,"path":"scale"}},{"sampler":3,"target":{"node":6,"path":"rotation"}},{"sampler":4,"target":{"node":6,"path":"translation"}},{"sampler":5,"target":{"node":6,"path":"scale"}},{"sampler":6,"target":{"node":0,"path":"rotation"}},{"sampler":7,"target":{"node":0,"path":"translation"}},{"sampler":8,"target":{"node":1,"path":"rotation"}},{"sampler":9,"target":{"node":1,"path":"translation"}},{"sampler":10,"target":{"node":10,"path":"rotation"}},{"sampler":11,"target":{"node":10,"path":"translation"}},{"sampler":12,"target":{"node":10,"path":"scale"}},{"sampler":13,"target":{"node":7,"path":"rotation"}},{"sampler":14,"target":{"node":7,"path":"translation"}},{"sampler":15,"target":{"node":4,"path":"rotation"}},{"sampler":16,"target":{"node":4,"path":"translation"}},{"sampler":17,"target":{"node":3,"path":"rotation"}},{"sampler":18,"target":{"node":3,"path":"translation"}}]}],"bufferViews":[{"buffer":0,"byteOffset":0,"byteLength":164},{"buffer":0,"byteOffset":164,"byteLength":656},{"buffer":0,"byteOffset":820,"byteLength":148},{"buffer":0,"byteOffset":968,"byteLength":444},{"buffer":0,"byteOffset":1412,"byteLength":4},{"buffer":0,"byteOffset":1416,"byteLength":12},{"buffer":0,"byteOffset":1428,"byteLength":52},{"buffer":0,"byteOffset":1480,"byteLength":208},{"buffer":0,"byteOffset":1688,"byteLength":92},{"buffer":0,"byteOffset":1780,"byteLength":276},{"buffer":0,"byteOffset":2056,"byteLength":4},{"buffer":0,"byteOffset":2060,"byteLength":12},{"buffer":0,"byteOffset":2072,"byteLength":16},{"buffer":0,"byteOffset":2088,"byteLength":64},{"buffer":0,"byteOffset":2152,"byteLength":20},{"buffer":0,"byteOffset":2172,"byteLength":60},{"buffer":0,"byteOffset":2232,"byteLength":16},{"buffer":0,"byteOffset":2248,"byteLength":64},{"buffer":0,"byteOffset":2312,"byteLength":20},{"buffer":0,"byteOffset":2332,"byteLength":60},{"buffer":0,"byteOffset":2392,"byteLength":212},{"buffer":0,"byteOffset":2604,"byteLength":848},{"buffer":0,"byteOffset":3452,"byteLength":208},{"buffer":0,"byteOffset":3660,"byteLength":624},{"buffer":0,"byteOffset":4284,"byteLength":4},{"buffer":0,"byteOffset":4288,"byteLength":12},{"buffer":0,"byteOffset":4300,"byteLength":200},{"buffer":0,"byteOffset":4500,"byteLength":800},{"buffer":0,"byteOffset":5300,"byteLength":164},{"buffer":0,"byteOffset":5464,"byteLength":492},{"buffer":0,"byteOffset":5956,"byteLength":180},{"buffer":0,"byteOffset":6136,"byteLength":720},{"buffer":0,"byteOffset":6856,"byteLength":28},{"buffer":0,"byteOffset":6884,"byteLength":84},{"buffer":0,"byteOffset":6968,"byteLength":84},{"buffer":0,"byteOffset":7052,"byteLength":336},{"buffer":0,"byteOffset":7388,"byteLength":88},{"buffer":0,"byteOffset":7476,"byteLength":264}],"buffers":[{"byteLength":7740,"uri":"data:application/octet-stream;base64,"}],"accessors":[{"bufferView":0,"componentType":5126,"count":41,"max":[2.9000000953674316],"min":[0],"type":"SCALAR"},{"bufferView":1,"componentType":5126,"count":41,"max":[0.7247639894485474,0.9117740988731384,0.010177161544561386,0.5517852306365967],"min":[-0.15950055420398712,0.4795835316181183,-0.6020800471305847,-0.47277018427848816],"type":"VEC4"},{"bufferView":2,"componentType":5126,"count":37,"max":[2.9000000953674316],"min":[0],"type":"SCALAR"},{"bufferView":3,"componentType":5126,"count":37,"max":[-0.078125,0.10625000298023224,-0.17854750156402588],"min":[-0.867763102054596,-0.6704155206680298,-1],"type":"VEC3"},{"bufferView":4,"componentType":5126,"count":1,"max":[0],"min":[0],"type":"SCALAR"},{"bufferView":5,"componentType":5126,"count":1,"max":[1,1.5,1],"min":[1,1.5,1],"type":"VEC3"},{"bufferView":6,"componentType":5126,"count":13,"max":[2.8499999046325684],"min":[0],"type":"SCALAR"},{"bufferView":7,"componentType":5126,"count":13,"max":[0.16999579966068268,0.7508114576339722,-0.4451100826263428,4.1367970795711857e-17],"min":[-4.51452149623189e-17,0.7372773289680481,-0.6755902171134949,-0.4688265919685364],"type":"VEC4"},{"bufferView":8,"componentType":5126,"count":23,"max":[2.8499999046325684],"min":[0],"type":"SCALAR"},{"bufferView":9,"componentType":5126,"count":23,"max":[0.33125001192092896,0.17499999701976776,0.4375],"min":[0.012500000186264515,-0.26249998807907104,-0.26249998807907104],"type":"VEC3"},{"bufferView":10,"componentType":5126,"count":1,"max":[0],"min":[0],"type":"SCALAR"},{"bufferView":11,"componentType":5126,"count":1,"max":[1,1.5,1],"min":[1,1.5,1],"type":"VEC3"},{"bufferView":12,"componentType":5126,"count":4,"max":[2.549999952316284],"min":[2.3499999046325684],"type":"SCALAR"},{"bufferView":13,"componentType":5126,"count":4,"max":[0,0,0,1],"min":[0,0,0,1],"type":"VEC4"},{"bufferView":14,"componentType":5126,"count":5,"max":[2.549999952316284],"min":[0],"type":"SCALAR"},{"bufferView":15,"componentType":5126,"count":5,"max":[0,0.0625,-0.34062498807907104],"min":[0,0.03750000149011612,-0.5],"type":"VEC3"},{"bufferView":16,"componentType":5126,"count":4,"max":[2.549999952316284],"min":[2.3499999046325684],"type":"SCALAR"},{"bufferView":17,"componentType":5126,"count":4,"max":[0,0,0,1],"min":[0,0,0,1],"type":"VEC4"},{"bufferView":18,"componentType":5126,"count":5,"max":[2.549999952316284],"min":[0],"type":"SCALAR"},{"bufferView":19,"componentType":5126,"count":5,"max":[0.00012812500062864274,0.018329374492168427,-0.09414062649011612],"min":[0.00012812500062864274,0.018329374492168427,-0.322265625],"type":"VEC3"},{"bufferView":20,"componentType":5126,"count":53,"max":[3.200000047683716],"min":[0],"type":"SCALAR"},{"bufferView":21,"componentType":5126,"count":53,"max":[0.17000862956047058,0.016154464334249496,0.18247497081756592,1],"min":[-0.04352599382400513,-0.10875656455755234,-0.06628366559743881,0.9794737100601196],"type":"VEC4"},{"bufferView":22,"componentType":5126,"count":52,"max":[3.200000047683716],"min":[0],"type":"SCALAR"},{"bufferView":23,"componentType":5126,"count":52,"max":[0.5,0.21169957518577576,1.103124976158142],"min":[0.4749999940395355,0.029999999329447746,0.903124988079071],"type":"VEC3"},{"bufferView":24,"componentType":5126,"count":1,"max":[0],"min":[0],"type":"SCALAR"},{"bufferView":25,"componentType":5126,"count":1,"max":[1,1,1],"min":[1,1,1],"type":"VEC3"},{"bufferView":26,"componentType":5126,"count":50,"max":[2.9000000953674316],"min":[0],"type":"SCALAR"},{"bufferView":27,"componentType":5126,"count":50,"max":[0.18705645203590393,0.09797210246324539,0.02516077645123005,1],"min":[0,-0.0050339968875050545,-0.35752028226852417,0.9206912517547607],"type":"VEC4"},{"bufferView":28,"componentType":5126,"count":41,"max":[2.9000000953674316],"min":[0],"type":"SCALAR"},{"bufferView":29,"componentType":5126,"count":41,"max":[0.0043750000186264515,0.0020599365234375,0.09161493182182312],"min":[-0.00032407406251877546,-0.02812499925494194,-0.08749999850988388],"type":"VEC3"},{"bufferView":30,"componentType":5126,"count":45,"max":[2.9000000953674316],"min":[0],"type":"SCALAR"},{"bufferView":31,"componentType":5126,"count":45,"max":[0.06973987072706223,0.0009208193514496088,0.06101135164499283,1],"min":[-0.06261617690324783,-0.002130563370883465,-0.02193586528301239,0.997326672077179],"type":"VEC4"},{"bufferView":32,"componentType":5126,"count":7,"max":[2.9000000953674316],"min":[0],"type":"SCALAR"},{"bufferView":33,"componentType":5126,"count":7,"max":[0,0.16875000298023224,-0.3375000059604645],"min":[0,0.16875000298023224,-0.3499999940395355],"type":"VEC3"},{"bufferView":34,"componentType":5126,"count":21,"max":[1.649999976158142],"min":[0],"type":"SCALAR"},{"bufferView":35,"componentType":5126,"count":21,"max":[0.41984570026397705,0.19479705393314362,0.049712467938661575,1],"min":[0,-0.43871456384658813,-0.26024535298347473,0.8209280967712402],"type":"VEC4"},{"bufferView":36,"componentType":5126,"count":22,"max":[1.649999976158142],"min":[0],"type":"SCALAR"},{"bufferView":37,"componentType":5126,"count":22,"max":[0.3834249973297119,0.019158750772476196,0.18749874830245972],"min":[-0.16909819841384888,-3.112683057785034,-0.5900624394416809],"type":"VEC3"}]}