{"asset":{"version":"2.0","generator":"Blockbench 4.5.2 glTF exporter"},"scenes":[{"nodes":[11],"name":"blockbench_export"}],"scene":0,"nodes":[{"translation":[0,0.0625,-0.5],"name":"bolt2"},{"translation":[0.00012812500000003446,0.01832937499999998,-0.322265625],"name":"charger"},{"translation":[0,0.05040875,0.14374874999999998],"name":"mk14_bolt","children":[0,1]},{"translation":[0,0.019158750000000002,-0.15625125],"name":"mk14_magazine"},{"translation":[0,0.16875,-0.34375],"name":"mk14","children":[2,3]},{"translation":[0.375,-0.6875,0],"name":"RightHand"},{"translation":[-0.375,1,-0.5],"name":"R","children":[5]},{"name":"bone","children":[4,6]},{"translation":[-0.375,-0.6875,0],"name":"LeftHand"},{"translation":[0.375,1,-0.5],"name":"l","children":[8]},{"translation":[0.5,0.1875,1],"name":"bone2","children":[7,9]},{"children":[10]}],"animations":[{"name":"inspect","samplers":[{"input":0,"output":1,"interpolation":"LINEAR"},{"input":2,"output":3,"interpolation":"LINEAR"},{"input":4,"output":5,"interpolation":"LINEAR"},{"input":6,"output":7,"interpolation":"LINEAR"},{"input":8,"output":9,"interpolation":"LINEAR"},{"input":10,"output":11,"interpolation":"LINEAR"},{"input":12,"output":13,"interpolation":"LINEAR"},{"input":14,"output":15,"interpolation":"LINEAR"},{"input":16,"output":17,"interpolation":"LINEAR"},{"input":18,"output":19,"interpolation":"LINEAR"}],"channels":[{"sampler":0,"target":{"node":9,"path":"rotation"}},{"sampler":1,"target":{"node":9,"path":"translation"}},{"sampler":2,"target":{"node":9,"path":"scale"}},{"sampler":3,"target":{"node":6,"path":"rotation"}},{"sampler":4,"target":{"node":6,"path":"translation"}},{"sampler":5,"target":{"node":6,"path":"scale"}},{"sampler":6,"target":{"node":10,"path":"rotation"}},{"sampler":7,"target":{"node":10,"path":"translation"}},{"sampler":8,"target":{"node":7,"path":"rotation"}},{"sampler":9,"target":{"node":7,"path":"translation"}}]}],"bufferViews":[{"buffer":0,"byteOffset":0,"byteLength":292},{"buffer":0,"byteOffset":292,"byteLength":1168},{"buffer":0,"byteOffset":1460,"byteLength":72},{"buffer":0,"byteOffset":1532,"byteLength":216},{"buffer":0,"byteOffset":1748,"byteLength":4},{"buffer":0,"byteOffset":1752,"byteLength":12},{"buffer":0,"byteOffset":1764,"byteLength":4},{"buffer":0,"byteOffset":1768,"byteLength":16},{"buffer":0,"byteOffset":1784,"byteLength":4},{"buffer":0,"byteOffset":1788,"byteLength":12},{"buffer":0,"byteOffset":1800,"byteLength":4},{"buffer":0,"byteOffset":1804,"byteLength":12},{"buffer":0,"byteOffset":1816,"byteLength":300},{"buffer":0,"byteOffset":2116,"byteLength":1200},{"buffer":0,"byteOffset":3316,"byteLength":276},{"buffer":0,"byteOffset":3592,"byteLength":828},{"buffer":0,"byteOffset":4420,"byteLength":56},{"buffer":0,"byteOffset":4476,"byteLength":224},{"buffer":0,"byteOffset":4700,"byteLength":44},{"buffer":0,"byteOffset":4744,"byteLength":132}],"buffers":[{"byteLength":4876,"uri":"data:application/octet-stream;base64,"}],"accessors":[{"bufferView":0,"componentType":5126,"count":73,"max":[4.449999809265137],"min":[0],"type":"SCALAR"},{"bufferView":1,"componentType":5126,"count":73,"max":[0.034689173102378845,0.8160433173179626,-0.35582512617111206,0.5747037529945374],"min":[-0.15950055420398712,0.640202522277832,-0.6012718081474304,0.43113973736763],"type":"VEC4"},{"bufferView":2,"componentType":5126,"count":18,"max":[4.449999809265137],"min":[0],"type":"SCALAR"},{"bufferView":3,"componentType":5126,"count":18,"max":[0.21250000596046448,0.06626372039318085,0.16875000298023224],"min":[-0.19374999403953552,-1.743749976158142,-1.0616469383239746],"type":"VEC3"},{"bufferView":4,"componentType":5126,"count":1,"max":[0],"min":[0],"type":"SCALAR"},{"bufferView":5,"componentType":5126,"count":1,"max":[1,1.5,1],"min":[1,1.5,1],"type":"VEC3"},{"bufferView":6,"componentType":5126,"count":1,"max":[0],"min":[0],"type":"SCALAR"},{"bufferView":7,"componentType":5126,"count":1,"max":[-4.51452149623189e-17,0.7372773289680481,-0.6755902171134949,4.1367970795711857e-17],"min":[-4.51452149623189e-17,0.7372773289680481,-0.6755902171134949,4.1367970795711857e-17],"type":"VEC4"},{"bufferView":8,"componentType":5126,"count":1,"max":[0],"min":[0],"type":"SCALAR"},{"bufferView":9,"componentType":5126,"count":1,"max":[0.012500000186264515,-0.0625,-0.0625],"min":[0.012500000186264515,-0.0625,-0.0625],"type":"VEC3"},{"bufferView":10,"componentType":5126,"count":1,"max":[0],"min":[0],"type":"SCALAR"},{"bufferView":11,"componentType":5126,"count":1,"max":[1,1.5,1],"min":[1,1.5,1],"type":"VEC3"},{"bufferView":12,"componentType":5126,"count":75,"max":[4.75],"min":[0],"type":"SCALAR"},{"bufferView":13,"componentType":5126,"count":75,"max":[0.28938427567481995,0.10866715013980865,0.046866241842508316,1],"min":[-0.021794121712446213,-0.010539908893406391,-0.49529823660850525,0.8167341947555542],"type":"VEC4"},{"bufferView":14,"componentType":5126,"count":69,"max":[4.849999904632568],"min":[0],"type":"SCALAR"},{"bufferView":15,"componentType":5126,"count":69,"max":[0.621874988079071,0.18857167661190033,1.0499999523162842],"min":[0.495927631855011,0.109375,0.8125],"type":"VEC3"},{"bufferView":16,"componentType":5126,"count":14,"max":[4.449999809265137],"min":[0],"type":"SCALAR"},{"bufferView":17,"componentType":5126,"count":14,"max":[0.0019476739689707756,0.008455568924546242,0.579026997089386,1],"min":[-0.07042819261550903,-0.10058190673589706,0,0.8152621984481812],"type":"VEC4"},{"bufferView":18,"componentType":5126,"count":11,"max":[4.449999809265137],"min":[0],"type":"SCALAR"},{"bufferView":19,"componentType":5126,"count":11,"max":[0,0,0],"min":[0,-0.015625,-0.125],"type":"VEC3"}]}