{"asset":{"version":"2.0","generator":"Blockbench 4.5.2 glTF exporter"},"scenes":[{"nodes":[11],"name":"blockbench_export"}],"scene":0,"nodes":[{"translation":[0,0.0625,-0.5],"name":"bolt2"},{"translation":[0.00012812500000003446,0.01832937499999998,-0.322265625],"name":"charger"},{"translation":[0,0.05040875,0.14374874999999998],"name":"mk14_bolt","children":[0,1]},{"translation":[0,0.019158750000000002,-0.15625125],"name":"mk14_magazine"},{"translation":[0,0.16875,-0.34375],"name":"mk14","children":[2,3]},{"translation":[0.375,-0.6875,0],"name":"RightHand"},{"translation":[-0.375,1,-0.5],"name":"R","children":[5]},{"name":"bone","children":[4,6]},{"translation":[-0.375,-0.6875,0],"name":"LeftHand"},{"translation":[0.375,1,-0.5],"name":"l","children":[8]},{"translation":[0.5,0.1875,1],"name":"bone2","children":[7,9]},{"children":[10]}],"animations":[{"name":"reload_norm","samplers":[{"input":0,"output":1,"interpolation":"LINEAR"},{"input":2,"output":3,"interpolation":"LINEAR"},{"input":4,"output":5,"interpolation":"LINEAR"},{"input":6,"output":7,"interpolation":"LINEAR"},{"input":8,"output":9,"interpolation":"LINEAR"},{"input":10,"output":11,"interpolation":"LINEAR"},{"input":12,"output":13,"interpolation":"LINEAR"},{"input":14,"output":15,"interpolation":"LINEAR"},{"input":16,"output":17,"interpolation":"LINEAR"},{"input":18,"output":19,"interpolation":"LINEAR"},{"input":20,"output":21,"interpolation":"LINEAR"},{"input":22,"output":23,"interpolation":"LINEAR"},{"input":24,"output":25,"interpolation":"LINEAR"},{"input":26,"output":27,"interpolation":"LINEAR"},{"input":28,"output":29,"interpolation":"LINEAR"},{"input":30,"output":31,"interpolation":"LINEAR"}],"channels":[{"sampler":0,"target":{"node":9,"path":"rotation"}},{"sampler":1,"target":{"node":9,"path":"translation"}},{"sampler":2,"target":{"node":9,"path":"scale"}},{"sampler":3,"target":{"node":6,"path":"rotation"}},{"sampler":4,"target":{"node":6,"path":"translation"}},{"sampler":5,"target":{"node":6,"path":"scale"}},{"sampler":6,"target":{"node":10,"path":"rotation"}},{"sampler":7,"target":{"node":10,"path":"translation"}},{"sampler":8,"target":{"node":7,"path":"rotation"}},{"sampler":9,"target":{"node":7,"path":"translation"}},{"sampler":10,"target":{"node":4,"path":"rotation"}},{"sampler":11,"target":{"node":4,"path":"translation"}},{"sampler":12,"target":{"node":0,"path":"rotation"}},{"sampler":13,"target":{"node":0,"path":"translation"}},{"sampler":14,"target":{"node":3,"path":"rotation"}},{"sampler":15,"target":{"node":3,"path":"translation"}}]}],"bufferViews":[{"buffer":0,"byteOffset":0,"byteLength":140},{"buffer":0,"byteOffset":140,"byteLength":560},{"buffer":0,"byteOffset":700,"byteLength":136},{"buffer":0,"byteOffset":836,"byteLength":408},{"buffer":0,"byteOffset":1244,"byteLength":4},{"buffer":0,"byteOffset":1248,"byteLength":12},{"buffer":0,"byteOffset":1260,"byteLength":4},{"buffer":0,"byteOffset":1264,"byteLength":16},{"buffer":0,"byteOffset":1280,"byteLength":44},{"buffer":0,"byteOffset":1324,"byteLength":132},{"buffer":0,"byteOffset":1456,"byteLength":4},{"buffer":0,"byteOffset":1460,"byteLength":12},{"buffer":0,"byteOffset":1472,"byteLength":156},{"buffer":0,"byteOffset":1628,"byteLength":624},{"buffer":0,"byteOffset":2252,"byteLength":148},{"buffer":0,"byteOffset":2400,"byteLength":444},{"buffer":0,"byteOffset":2844,"byteLength":140},{"buffer":0,"byteOffset":2984,"byteLength":560},{"buffer":0,"byteOffset":3544,"byteLength":136},{"buffer":0,"byteOffset":3680,"byteLength":408},{"buffer":0,"byteOffset":4088,"byteLength":80},{"buffer":0,"byteOffset":4168,"byteLength":320},{"buffer":0,"byteOffset":4488,"byteLength":4},{"buffer":0,"byteOffset":4492,"byteLength":12},{"buffer":0,"byteOffset":4504,"byteLength":4},{"buffer":0,"byteOffset":4508,"byteLength":16},{"buffer":0,"byteOffset":4524,"byteLength":4},{"buffer":0,"byteOffset":4528,"byteLength":12},{"buffer":0,"byteOffset":4540,"byteLength":64},{"buffer":0,"byteOffset":4604,"byteLength":256},{"buffer":0,"byteOffset":4860,"byteLength":64},{"buffer":0,"byteOffset":4924,"byteLength":192}],"buffers":[{"byteLength":5116,"uri":"data:application/octet-stream;base64,"}],"accessors":[{"bufferView":0,"componentType":5126,"count":35,"max":[2.1500000953674316],"min":[0],"type":"SCALAR"},{"bufferView":1,"componentType":5126,"count":35,"max":[0.5454687476158142,0.9117740988731384,-0.1729429066181183,0.5853495597839355],"min":[-0.21174094080924988,0.5425982475280762,-0.6998828053474426,-0.29741427302360535],"type":"VEC4"},{"bufferView":2,"componentType":5126,"count":34,"max":[2.1500000953674316],"min":[0],"type":"SCALAR"},{"bufferView":3,"componentType":5126,"count":34,"max":[-0.10000000149011612,0.08749999850988388,-0.27575668692588806],"min":[-0.7828081250190735,-0.7174131870269775,-1],"type":"VEC3"},{"bufferView":4,"componentType":5126,"count":1,"max":[0],"min":[0],"type":"SCALAR"},{"bufferView":5,"componentType":5126,"count":1,"max":[1,1.5,1],"min":[1,1.5,1],"type":"VEC3"},{"bufferView":6,"componentType":5126,"count":1,"max":[0],"min":[0],"type":"SCALAR"},{"bufferView":7,"componentType":5126,"count":1,"max":[-4.51452149623189e-17,0.7372773289680481,-0.6755902171134949,4.1367970795711857e-17],"min":[-4.51452149623189e-17,0.7372773289680481,-0.6755902171134949,4.1367970795711857e-17],"type":"VEC4"},{"bufferView":8,"componentType":5126,"count":11,"max":[0.6000000238418579],"min":[0],"type":"SCALAR"},{"bufferView":9,"componentType":5126,"count":11,"max":[0.012500000186264515,-0.0625,-0.0533447265625],"min":[0.012500000186264515,-0.0625,-0.1875],"type":"VEC3"},{"bufferView":10,"componentType":5126,"count":1,"max":[0],"min":[0],"type":"SCALAR"},{"bufferView":11,"componentType":5126,"count":1,"max":[1,1.5,1],"min":[1,1.5,1],"type":"VEC3"},{"bufferView":12,"componentType":5126,"count":39,"max":[2.25],"min":[0],"type":"SCALAR"},{"bufferView":13,"componentType":5126,"count":39,"max":[0.17000862956047058,0.004744652193039656,0.06534087657928467,1],"min":[-0.04352599382400513,-0.10875656455755234,-0.07832356542348862,0.9794737100601196],"type":"VEC4"},{"bufferView":14,"componentType":5126,"count":37,"max":[2.200000047683716],"min":[0],"type":"SCALAR"},{"bufferView":15,"componentType":5126,"count":37,"max":[0.5017147064208984,0.21169957518577576,1.103124976158142],"min":[0.4749999940395355,0.07187499850988388,0.90625],"type":"VEC3"},{"bufferView":16,"componentType":5126,"count":35,"max":[2],"min":[0],"type":"SCALAR"},{"bufferView":17,"componentType":5126,"count":35,"max":[0.18705645203590393,0.09797210246324539,0.008366324938833714,1],"min":[-0.09033263474702835,0,-0.35752028226852417,0.9206912517547607],"type":"VEC4"},{"bufferView":18,"componentType":5126,"count":34,"max":[2],"min":[0],"type":"SCALAR"},{"bufferView":19,"componentType":5126,"count":34,"max":[0,0.0020599365234375,0.09288013726472855],"min":[0,-0.07187499850988388,-0.08749999850988388],"type":"VEC3"},{"bufferView":20,"componentType":5126,"count":20,"max":[1.5],"min":[0],"type":"SCALAR"},{"bufferView":21,"componentType":5126,"count":20,"max":[0.04360900819301605,0,0.06101135164499283,1],"min":[-0.03483440354466438,-0.002130563370883465,-0.02181488461792469,0.9975267648696899],"type":"VEC4"},{"bufferView":22,"componentType":5126,"count":1,"max":[0.3499999940395355],"min":[0.3499999940395355],"type":"SCALAR"},{"bufferView":23,"componentType":5126,"count":1,"max":[0,0.16875000298023224,-0.34375],"min":[0,0.16875000298023224,-0.34375],"type":"VEC3"},{"bufferView":24,"componentType":5126,"count":1,"max":[0],"min":[0],"type":"SCALAR"},{"bufferView":25,"componentType":5126,"count":1,"max":[0,0,0,1],"min":[0,0,0,1],"type":"VEC4"},{"bufferView":26,"componentType":5126,"count":1,"max":[0],"min":[0],"type":"SCALAR"},{"bufferView":27,"componentType":5126,"count":1,"max":[0,0.0625,-0.5],"min":[0,0.0625,-0.5],"type":"VEC3"},{"bufferView":28,"componentType":5126,"count":16,"max":[1.399999976158142],"min":[0],"type":"SCALAR"},{"bufferView":29,"componentType":5126,"count":16,"max":[0.3250765800476074,0.01697946898639202,0,1],"min":[0,-0.14927533268928528,-0.1291295737028122,0.9248608946800232],"type":"VEC4"},{"bufferView":30,"componentType":5126,"count":16,"max":[1.399999976158142],"min":[0],"type":"SCALAR"},{"bufferView":31,"componentType":5126,"count":16,"max":[0,0.019158750772476196,0.2146192342042923],"min":[-0.05624999850988388,-0.9164284467697144,-0.15625125169754028],"type":"VEC3"}]}