{"asset":{"version":"2.0","generator":"Blockbench 4.5.2 glTF exporter"},"scenes":[{"nodes":[11],"name":"blockbench_export"}],"scene":0,"nodes":[{"translation":[0,0.0625,-0.5],"name":"bolt2"},{"translation":[0.00012812500000003446,0.01832937499999998,-0.322265625],"name":"charger"},{"translation":[0,0.05040875,0.14374874999999998],"name":"mk14_bolt","children":[0,1]},{"translation":[0,0.019158750000000002,-0.15625125],"name":"mk14_magazine"},{"translation":[0,0.16875,-0.34375],"name":"mk14","children":[2,3]},{"translation":[0.375,-0.6875,0],"name":"RightHand"},{"translation":[-0.375,1,-0.5],"name":"R","children":[5]},{"name":"bone","children":[4,6]},{"translation":[-0.375,-0.6875,0],"name":"LeftHand"},{"translation":[0.375,1,-0.5],"name":"l","children":[8]},{"translation":[0.5,0.1875,1],"name":"bone2","children":[7,9]},{"children":[10]}],"animations":[{"name":"static_state","samplers":[{"input":0,"output":1,"interpolation":"LINEAR"},{"input":2,"output":3,"interpolation":"LINEAR"},{"input":4,"output":5,"interpolation":"LINEAR"},{"input":6,"output":7,"interpolation":"LINEAR"},{"input":8,"output":9,"interpolation":"LINEAR"},{"input":10,"output":11,"interpolation":"LINEAR"}],"channels":[{"sampler":0,"target":{"node":9,"path":"rotation"}},{"sampler":1,"target":{"node":9,"path":"translation"}},{"sampler":2,"target":{"node":9,"path":"scale"}},{"sampler":3,"target":{"node":6,"path":"rotation"}},{"sampler":4,"target":{"node":6,"path":"translation"}},{"sampler":5,"target":{"node":6,"path":"scale"}}]}],"bufferViews":[{"buffer":0,"byteOffset":0,"byteLength":4},{"buffer":0,"byteOffset":4,"byteLength":16},{"buffer":0,"byteOffset":20,"byteLength":4},{"buffer":0,"byteOffset":24,"byteLength":12},{"buffer":0,"byteOffset":36,"byteLength":4},{"buffer":0,"byteOffset":40,"byteLength":12},{"buffer":0,"byteOffset":52,"byteLength":4},{"buffer":0,"byteOffset":56,"byteLength":16},{"buffer":0,"byteOffset":72,"byteLength":4},{"buffer":0,"byteOffset":76,"byteLength":12},{"buffer":0,"byteOffset":88,"byteLength":4},{"buffer":0,"byteOffset":92,"byteLength":12}],"buffers":[{"byteLength":104,"uri":"data:application/octet-stream;base64,"}],"accessors":[{"bufferView":0,"componentType":5126,"count":1,"max":[0],"min":[0],"type":"SCALAR"},{"bufferView":1,"componentType":5126,"count":1,"max":[-0.15950055420398712,0.653567373752594,-0.6012718081474304,0.43113973736763],"min":[-0.15950055420398712,0.653567373752594,-0.6012718081474304,0.43113973736763],"type":"VEC4"},{"bufferView":2,"componentType":5126,"count":1,"max":[0],"min":[0],"type":"SCALAR"},{"bufferView":3,"componentType":5126,"count":1,"max":[-0.10000000149011612,0.0062500000931322575,-1],"min":[-0.10000000149011612,0.0062500000931322575,-1],"type":"VEC3"},{"bufferView":4,"componentType":5126,"count":1,"max":[0],"min":[0],"type":"SCALAR"},{"bufferView":5,"componentType":5126,"count":1,"max":[1,1.5,1],"min":[1,1.5,1],"type":"VEC3"},{"bufferView":6,"componentType":5126,"count":1,"max":[0],"min":[0],"type":"SCALAR"},{"bufferView":7,"componentType":5126,"count":1,"max":[-4.51452149623189e-17,0.7372773289680481,-0.6755902171134949,4.1367970795711857e-17],"min":[-4.51452149623189e-17,0.7372773289680481,-0.6755902171134949,4.1367970795711857e-17],"type":"VEC4"},{"bufferView":8,"componentType":5126,"count":1,"max":[0],"min":[0],"type":"SCALAR"},{"bufferView":9,"componentType":5126,"count":1,"max":[0.012500000186264515,-0.0625,-0.0625],"min":[0.012500000186264515,-0.0625,-0.0625],"type":"VEC3"},{"bufferView":10,"componentType":5126,"count":1,"max":[0],"min":[0],"type":"SCALAR"},{"bufferView":11,"componentType":5126,"count":1,"max":[1,1.5,1],"min":[1,1.5,1],"type":"VEC3"}]}