{"asset":{"version":"2.0","generator":"Blockbench 4.5.2 glTF exporter"},"scenes":[{"nodes":[13],"name":"blockbench_export"}],"scene":0,"nodes":[{"translation":[0.375,-0.6875,0],"name":"RightHand"},{"translation":[-0.375,0.8125,-0.375],"name":"r","children":[0]},{"translation":[0,0.125,-0.375],"name":"bolt"},{"translation":[0.08917624999999996,0.41796875,0.282200625],"name":"pull"},{"translation":[0,0.125,-0.375],"name":"MK47_default","children":[3]},{"name":"mk47","children":[2,4]},{"translation":[0.1015625,0.17879187500000004,-0.07336999999999999],"name":"762x39"},{"translation":[0.1015625,0.171875,-0.0703125],"name":"mag"},{"translation":[-0.1015625,-0.046875,-0.3046875],"name":"mb","children":[6,7]},{"name":"body","children":[1,5,8]},{"translation":[-0.375,-0.6875,0],"name":"LeftHand"},{"translation":[0.375,0.8125,-0.375],"name":"l","children":[10]},{"translation":[0.5,0.375,0.875],"name":"bone","children":[9,11]},{"children":[12]}],"animations":[{"name":"reload_norm","samplers":[{"input":0,"output":1,"interpolation":"LINEAR"},{"input":2,"output":3,"interpolation":"LINEAR"},{"input":4,"output":5,"interpolation":"LINEAR"},{"input":6,"output":7,"interpolation":"LINEAR"},{"input":8,"output":9,"interpolation":"LINEAR"},{"input":10,"output":11,"interpolation":"LINEAR"},{"input":12,"output":13,"interpolation":"LINEAR"},{"input":14,"output":15,"interpolation":"LINEAR"},{"input":16,"output":17,"interpolation":"LINEAR"},{"input":18,"output":19,"interpolation":"LINEAR"},{"input":20,"output":21,"interpolation":"LINEAR"}],"channels":[{"sampler":0,"target":{"node":11,"path":"rotation"}},{"sampler":1,"target":{"node":11,"path":"translation"}},{"sampler":2,"target":{"node":11,"path":"scale"}},{"sampler":3,"target":{"node":1,"path":"rotation"}},{"sampler":4,"target":{"node":1,"path":"translation"}},{"sampler":5,"target":{"node":1,"path":"scale"}},{"sampler":6,"target":{"node":12,"path":"rotation"}},{"sampler":7,"target":{"node":12,"path":"translation"}},{"sampler":8,"target":{"node":8,"path":"rotation"}},{"sampler":9,"target":{"node":8,"path":"translation"}},{"sampler":10,"target":{"node":6,"path":"translation"}}]}],"bufferViews":[{"buffer":0,"byteOffset":0,"byteLength":140},{"buffer":0,"byteOffset":140,"byteLength":560},{"buffer":0,"byteOffset":700,"byteLength":144},{"buffer":0,"byteOffset":844,"byteLength":432},{"buffer":0,"byteOffset":1276,"byteLength":4},{"buffer":0,"byteOffset":1280,"byteLength":12},{"buffer":0,"byteOffset":1292,"byteLength":4},{"buffer":0,"byteOffset":1296,"byteLength":16},{"buffer":0,"byteOffset":1312,"byteLength":4},{"buffer":0,"byteOffset":1316,"byteLength":12},{"buffer":0,"byteOffset":1328,"byteLength":4},{"buffer":0,"byteOffset":1332,"byteLength":12},{"buffer":0,"byteOffset":1344,"byteLength":184},{"buffer":0,"byteOffset":1528,"byteLength":736},{"buffer":0,"byteOffset":2264,"byteLength":172},{"buffer":0,"byteOffset":2436,"byteLength":516},{"buffer":0,"byteOffset":2952,"byteLength":100},{"buffer":0,"byteOffset":3052,"byteLength":400},{"buffer":0,"byteOffset":3452,"byteLength":104},{"buffer":0,"byteOffset":3556,"byteLength":312},{"buffer":0,"byteOffset":3868,"byteLength":4},{"buffer":0,"byteOffset":3872,"byteLength":12}],"buffers":[{"byteLength":3884,"uri":"data:application/octet-stream;base64,"}],"accessors":[{"bufferView":0,"componentType":5126,"count":35,"max":[2.3499999046325684],"min":[0],"type":"SCALAR"},{"bufferView":1,"componentType":5126,"count":35,"max":[0.6405942440032959,0.9550526142120361,-0.19462800025939941,0.5322570204734802],"min":[-0.13687287271022797,0.29230526089668274,-0.595024824142456,-0.5618584752082825],"type":"VEC4"},{"bufferView":2,"componentType":5126,"count":36,"max":[2.3499999046325684],"min":[0],"type":"SCALAR"},{"bufferView":3,"componentType":5126,"count":36,"max":[-0.07018256187438965,0.11249999701976776,0.2199999988079071],"min":[-0.5595706105232239,-1.1869237422943115,-0.84375],"type":"VEC3"},{"bufferView":4,"componentType":5126,"count":1,"max":[0],"min":[0],"type":"SCALAR"},{"bufferView":5,"componentType":5126,"count":1,"max":[1,1.5,1],"min":[1,1.5,1],"type":"VEC3"},{"bufferView":6,"componentType":5126,"count":1,"max":[0],"min":[0],"type":"SCALAR"},{"bufferView":7,"componentType":5126,"count":1,"max":[-4.6036909045206166e-17,0.751839816570282,-0.659345805644989,4.037328610911684e-17],"min":[-4.6036909045206166e-17,0.751839816570282,-0.659345805644989,4.037328610911684e-17],"type":"VEC4"},{"bufferView":8,"componentType":5126,"count":1,"max":[0],"min":[0],"type":"SCALAR"},{"bufferView":9,"componentType":5126,"count":1,"max":[0.02500000037252903,-0.0625,-0.125],"min":[0.02500000037252903,-0.0625,-0.125],"type":"VEC3"},{"bufferView":10,"componentType":5126,"count":1,"max":[0],"min":[0],"type":"SCALAR"},{"bufferView":11,"componentType":5126,"count":1,"max":[1,1.5,1],"min":[1,1.5,1],"type":"VEC3"},{"bufferView":12,"componentType":5126,"count":46,"max":[2.8499999046325684],"min":[0],"type":"SCALAR"},{"bufferView":13,"componentType":5126,"count":46,"max":[0.2432500422000885,0.15508456528186798,0.01875864528119564,1],"min":[-0.04246203601360321,-0.0016308004269376397,-0.3255375921726227,0.9206441640853882],"type":"VEC4"},{"bufferView":14,"componentType":5126,"count":43,"max":[2.6500000953674316],"min":[0],"type":"SCALAR"},{"bufferView":15,"componentType":5126,"count":43,"max":[0.5003481507301331,0.39750000834465027,0.9125000238418579],"min":[0.4124999940395355,0.3276234567165375,0.7774999737739563],"type":"VEC3"},{"bufferView":16,"componentType":5126,"count":25,"max":[1.9500000476837158],"min":[0],"type":"SCALAR"},{"bufferView":17,"componentType":5126,"count":25,"max":[0.2672383785247803,0.016675926744937897,0.017398640513420105,1],"min":[-0.12432075291872025,-0.13433124125003815,-0.8434075117111206,0.5081138014793396],"type":"VEC4"},{"bufferView":18,"componentType":5126,"count":26,"max":[1.9500000476837158],"min":[0],"type":"SCALAR"},{"bufferView":19,"componentType":5126,"count":26,"max":[-0.09475469589233398,-0.046875,0.27398785948753357],"min":[-0.5696929693222046,-1.0343749523162842,-0.5227593183517456],"type":"VEC3"},{"bufferView":20,"componentType":5126,"count":1,"max":[0],"min":[0],"type":"SCALAR"},{"bufferView":21,"componentType":5126,"count":1,"max":[0.1015625,0.24129188060760498,-0.07337000221014023],"min":[0.1015625,0.24129188060760498,-0.07337000221014023],"type":"VEC3"}]}