{"asset":{"version":"2.0","generator":"Blockbench 4.5.2 glTF exporter"},"scenes":[{"nodes":[13],"name":"blockbench_export"}],"scene":0,"nodes":[{"translation":[0.375,-0.6875,0],"name":"RightHand"},{"translation":[-0.375,0.8125,-0.375],"name":"r","children":[0]},{"translation":[0,0.125,-0.375],"name":"bolt"},{"translation":[0.08917624999999996,0.41796875,0.282200625],"name":"pull"},{"translation":[0,0.125,-0.375],"name":"MK47_default","children":[3]},{"name":"mk47","children":[2,4]},{"translation":[0.1015625,0.17879187500000004,-0.07336999999999999],"name":"762x39"},{"translation":[0.1015625,0.171875,-0.0703125],"name":"mag"},{"translation":[-0.1015625,-0.046875,-0.3046875],"name":"mb","children":[6,7]},{"name":"body","children":[1,5,8]},{"translation":[-0.375,-0.6875,0],"name":"LeftHand"},{"translation":[0.375,0.8125,-0.375],"name":"l","children":[10]},{"translation":[0.5,0.375,0.875],"name":"bone","children":[9,11]},{"children":[12]}],"animations":[{"name":"inspect","samplers":[{"input":0,"output":1,"interpolation":"LINEAR"},{"input":2,"output":3,"interpolation":"LINEAR"},{"input":4,"output":5,"interpolation":"LINEAR"},{"input":6,"output":7,"interpolation":"LINEAR"},{"input":8,"output":9,"interpolation":"LINEAR"},{"input":10,"output":11,"interpolation":"LINEAR"},{"input":12,"output":13,"interpolation":"LINEAR"},{"input":14,"output":15,"interpolation":"LINEAR"}],"channels":[{"sampler":0,"target":{"node":11,"path":"rotation"}},{"sampler":1,"target":{"node":11,"path":"translation"}},{"sampler":2,"target":{"node":11,"path":"scale"}},{"sampler":3,"target":{"node":1,"path":"rotation"}},{"sampler":4,"target":{"node":1,"path":"translation"}},{"sampler":5,"target":{"node":1,"path":"scale"}},{"sampler":6,"target":{"node":12,"path":"rotation"}},{"sampler":7,"target":{"node":12,"path":"translation"}}]}],"bufferViews":[{"buffer":0,"byteOffset":0,"byteLength":276},{"buffer":0,"byteOffset":276,"byteLength":1104},{"buffer":0,"byteOffset":1380,"byteLength":200},{"buffer":0,"byteOffset":1580,"byteLength":600},{"buffer":0,"byteOffset":2180,"byteLength":4},{"buffer":0,"byteOffset":2184,"byteLength":12},{"buffer":0,"byteOffset":2196,"byteLength":4},{"buffer":0,"byteOffset":2200,"byteLength":16},{"buffer":0,"byteOffset":2216,"byteLength":4},{"buffer":0,"byteOffset":2220,"byteLength":12},{"buffer":0,"byteOffset":2232,"byteLength":4},{"buffer":0,"byteOffset":2236,"byteLength":12},{"buffer":0,"byteOffset":2248,"byteLength":284},{"buffer":0,"byteOffset":2532,"byteLength":1136},{"buffer":0,"byteOffset":3668,"byteLength":300},{"buffer":0,"byteOffset":3968,"byteLength":900}],"buffers":[{"byteLength":4868,"uri":"data:application/octet-stream;base64,"}],"accessors":[{"bufferView":0,"componentType":5126,"count":69,"max":[4.25],"min":[0],"type":"SCALAR"},{"bufferView":1,"componentType":5126,"count":69,"max":[0.11526820063591003,0.8372921347618103,-0.4772223234176636,0.4626908004283905],"min":[-0.10715921223163605,0.5897354483604431,-0.7958465218544006,0.07726449519395828],"type":"VEC4"},{"bufferView":2,"componentType":5126,"count":50,"max":[4.25],"min":[0],"type":"SCALAR"},{"bufferView":3,"componentType":5126,"count":50,"max":[-0.09375,0.2668749988079071,0.15238098800182343],"min":[-0.8850089311599731,-1.39260995388031,-0.84375],"type":"VEC3"},{"bufferView":4,"componentType":5126,"count":1,"max":[0],"min":[0],"type":"SCALAR"},{"bufferView":5,"componentType":5126,"count":1,"max":[1,1.5,1],"min":[1,1.5,1],"type":"VEC3"},{"bufferView":6,"componentType":5126,"count":1,"max":[0],"min":[0],"type":"SCALAR"},{"bufferView":7,"componentType":5126,"count":1,"max":[-4.6036909045206166e-17,0.751839816570282,-0.659345805644989,4.037328610911684e-17],"min":[-4.6036909045206166e-17,0.751839816570282,-0.659345805644989,4.037328610911684e-17],"type":"VEC4"},{"bufferView":8,"componentType":5126,"count":1,"max":[0],"min":[0],"type":"SCALAR"},{"bufferView":9,"componentType":5126,"count":1,"max":[0.02500000037252903,-0.0625,-0.125],"min":[0.02500000037252903,-0.0625,-0.125],"type":"VEC3"},{"bufferView":10,"componentType":5126,"count":1,"max":[0],"min":[0],"type":"SCALAR"},{"bufferView":11,"componentType":5126,"count":1,"max":[1,1.5,1],"min":[1,1.5,1],"type":"VEC3"},{"bufferView":12,"componentType":5126,"count":71,"max":[4.599999904632568],"min":[0],"type":"SCALAR"},{"bufferView":13,"componentType":5126,"count":71,"max":[0.2250898778438568,0.05422573536634445,0.5866196751594543,1],"min":[-0.020762240514159203,-0.0012734312331303954,-0.2442224621772766,0.7775838971138],"type":"VEC4"},{"bufferView":14,"componentType":5126,"count":75,"max":[4.550000190734863],"min":[0],"type":"SCALAR"},{"bufferView":15,"componentType":5126,"count":75,"max":[0.578050434589386,0.4124999940395355,0.893750011920929],"min":[0.4498128592967987,0.34922417998313904,0.7718750238418579],"type":"VEC3"}]}