{"asset":{"version":"2.0","generator":"Blockbench 4.5.2 glTF exporter"},"scenes":[{"nodes":[13],"name":"blockbench_export"}],"scene":0,"nodes":[{"translation":[0.375,-0.6875,0],"name":"RightHand"},{"translation":[-0.375,0.8125,-0.375],"name":"r","children":[0]},{"translation":[0,0.125,-0.375],"name":"bolt"},{"translation":[0.08917624999999996,0.41796875,0.282200625],"name":"pull"},{"translation":[0,0.125,-0.375],"name":"MK47_default","children":[3]},{"name":"mk47","children":[2,4]},{"translation":[0.1015625,0.17879187500000004,-0.07336999999999999],"name":"762x39"},{"translation":[0.1015625,0.171875,-0.0703125],"name":"mag"},{"translation":[-0.1015625,-0.046875,-0.3046875],"name":"mb","children":[6,7]},{"name":"body","children":[1,5,8]},{"translation":[-0.375,-0.6875,0],"name":"LeftHand"},{"translation":[0.375,0.8125,-0.375],"name":"l","children":[10]},{"translation":[0.5,0.375,0.875],"name":"bone","children":[9,11]},{"children":[12]}],"animations":[{"name":"reload_empty","samplers":[{"input":0,"output":1,"interpolation":"LINEAR"},{"input":2,"output":3,"interpolation":"LINEAR"},{"input":4,"output":5,"interpolation":"LINEAR"},{"input":6,"output":7,"interpolation":"LINEAR"},{"input":8,"output":9,"interpolation":"LINEAR"},{"input":10,"output":11,"interpolation":"LINEAR"},{"input":12,"output":13,"interpolation":"LINEAR"},{"input":14,"output":15,"interpolation":"LINEAR"},{"input":16,"output":17,"interpolation":"LINEAR"},{"input":18,"output":19,"interpolation":"LINEAR"},{"input":20,"output":21,"interpolation":"LINEAR"},{"input":22,"output":23,"interpolation":"LINEAR"},{"input":24,"output":25,"interpolation":"LINEAR"}],"channels":[{"sampler":0,"target":{"node":11,"path":"rotation"}},{"sampler":1,"target":{"node":11,"path":"translation"}},{"sampler":2,"target":{"node":11,"path":"scale"}},{"sampler":3,"target":{"node":1,"path":"rotation"}},{"sampler":4,"target":{"node":1,"path":"translation"}},{"sampler":5,"target":{"node":1,"path":"scale"}},{"sampler":6,"target":{"node":12,"path":"rotation"}},{"sampler":7,"target":{"node":12,"path":"translation"}},{"sampler":8,"target":{"node":8,"path":"rotation"}},{"sampler":9,"target":{"node":8,"path":"translation"}},{"sampler":10,"target":{"node":6,"path":"translation"}},{"sampler":11,"target":{"node":2,"path":"translation"}},{"sampler":12,"target":{"node":3,"path":"translation"}}]}],"bufferViews":[{"buffer":0,"byteOffset":0,"byteLength":184},{"buffer":0,"byteOffset":184,"byteLength":736},{"buffer":0,"byteOffset":920,"byteLength":188},{"buffer":0,"byteOffset":1108,"byteLength":564},{"buffer":0,"byteOffset":1672,"byteLength":4},{"buffer":0,"byteOffset":1676,"byteLength":12},{"buffer":0,"byteOffset":1688,"byteLength":4},{"buffer":0,"byteOffset":1692,"byteLength":16},{"buffer":0,"byteOffset":1708,"byteLength":4},{"buffer":0,"byteOffset":1712,"byteLength":12},{"buffer":0,"byteOffset":1724,"byteLength":4},{"buffer":0,"byteOffset":1728,"byteLength":12},{"buffer":0,"byteOffset":1740,"byteLength":232},{"buffer":0,"byteOffset":1972,"byteLength":928},{"buffer":0,"byteOffset":2900,"byteLength":212},{"buffer":0,"byteOffset":3112,"byteLength":636},{"buffer":0,"byteOffset":3748,"byteLength":104},{"buffer":0,"byteOffset":3852,"byteLength":416},{"buffer":0,"byteOffset":4268,"byteLength":108},{"buffer":0,"byteOffset":4376,"byteLength":324},{"buffer":0,"byteOffset":4700,"byteLength":8},{"buffer":0,"byteOffset":4708,"byteLength":24},{"buffer":0,"byteOffset":4732,"byteLength":20},{"buffer":0,"byteOffset":4752,"byteLength":60},{"buffer":0,"byteOffset":4812,"byteLength":20},{"buffer":0,"byteOffset":4832,"byteLength":60}],"buffers":[{"byteLength":4892,"uri":"data:application/octet-stream;base64,"}],"accessors":[{"bufferView":0,"componentType":5126,"count":46,"max":[3],"min":[0],"type":"SCALAR"},{"bufferView":1,"componentType":5126,"count":46,"max":[0.5476928949356079,0.9628947973251343,-0.21001280844211578,0.5322570204734802],"min":[-0.13687287271022797,0.58545982837677,-0.6642901301383972,-0.5868831276893616],"type":"VEC4"},{"bufferView":2,"componentType":5126,"count":47,"max":[3],"min":[0],"type":"SCALAR"},{"bufferView":3,"componentType":5126,"count":47,"max":[0.0035025000106543303,0.296875,0.3787499964237213],"min":[-0.5513693690299988,-0.7870369553565979,-0.84375],"type":"VEC3"},{"bufferView":4,"componentType":5126,"count":1,"max":[0],"min":[0],"type":"SCALAR"},{"bufferView":5,"componentType":5126,"count":1,"max":[1,1.5,1],"min":[1,1.5,1],"type":"VEC3"},{"bufferView":6,"componentType":5126,"count":1,"max":[0],"min":[0],"type":"SCALAR"},{"bufferView":7,"componentType":5126,"count":1,"max":[-4.6036909045206166e-17,0.751839816570282,-0.659345805644989,4.037328610911684e-17],"min":[-4.6036909045206166e-17,0.751839816570282,-0.659345805644989,4.037328610911684e-17],"type":"VEC4"},{"bufferView":8,"componentType":5126,"count":1,"max":[0],"min":[0],"type":"SCALAR"},{"bufferView":9,"componentType":5126,"count":1,"max":[0.02500000037252903,-0.0625,-0.125],"min":[0.02500000037252903,-0.0625,-0.125],"type":"VEC3"},{"bufferView":10,"componentType":5126,"count":1,"max":[0],"min":[0],"type":"SCALAR"},{"bufferView":11,"componentType":5126,"count":1,"max":[1,1.5,1],"min":[1,1.5,1],"type":"VEC3"},{"bufferView":12,"componentType":5126,"count":58,"max":[3.549999952316284],"min":[0],"type":"SCALAR"},{"bufferView":13,"componentType":5126,"count":58,"max":[0.2432500422000885,0.15479692816734314,0.5045711994171143,1],"min":[-0.03461599349975586,-0.0018288075225427747,-0.3255375921726227,0.8541252613067627],"type":"VEC4"},{"bufferView":14,"componentType":5126,"count":53,"max":[3.3499999046325684],"min":[0],"type":"SCALAR"},{"bufferView":15,"componentType":5126,"count":53,"max":[0.5305324196815491,0.4051562547683716,0.9125000238418579],"min":[0.47312501072883606,0.3276234567165375,0.559863269329071],"type":"VEC3"},{"bufferView":16,"componentType":5126,"count":26,"max":[2],"min":[0],"type":"SCALAR"},{"bufferView":17,"componentType":5126,"count":26,"max":[0.6682745814323425,0.04924793913960457,0.017398640513420105,1],"min":[0,-0.36901336908340454,-0.7159468531608582,-0.12190255522727966],"type":"VEC4"},{"bufferView":18,"componentType":5126,"count":27,"max":[2],"min":[0],"type":"SCALAR"},{"bufferView":19,"componentType":5126,"count":27,"max":[-0.09475469589233398,-0.046875,0.1953125],"min":[-0.9322093725204468,-1.7951396703720093,-0.9815800189971924],"type":"VEC3"},{"bufferView":20,"componentType":5126,"count":2,"max":[1.149999976158142],"min":[1.100000023841858],"type":"SCALAR"},{"bufferView":21,"componentType":5126,"count":2,"max":[0.1015625,0.24129188060760498,-0.07337000221014023],"min":[0.1015625,0.17879188060760498,-0.07337000221014023],"type":"VEC3"},{"bufferView":22,"componentType":5126,"count":5,"max":[2.700000047683716],"min":[0],"type":"SCALAR"},{"bufferView":23,"componentType":5126,"count":5,"max":[0,0.125,-0.125],"min":[0,0.125,-0.375],"type":"VEC3"},{"bufferView":24,"componentType":5126,"count":5,"max":[2.700000047683716],"min":[0],"type":"SCALAR"},{"bufferView":25,"componentType":5126,"count":5,"max":[0.0891762524843216,0.41796875,0.5322006344795227],"min":[0.0891762524843216,0.41796875,0.2822006344795227],"type":"VEC3"}]}