{"asset":{"version":"2.0","generator":"Blockbench 4.5.2 glTF exporter"},"scenes":[{"nodes":[13],"name":"blockbench_export"}],"scene":0,"nodes":[{"translation":[0.375,-0.6875,0],"name":"RightHand"},{"translation":[-0.375,0.8125,-0.375],"name":"r","children":[0]},{"translation":[0,0.125,-0.375],"name":"bolt"},{"translation":[0.08917624999999996,0.41796875,0.282200625],"name":"pull"},{"translation":[0,0.125,-0.375],"name":"MK47_default","children":[3]},{"name":"mk47","children":[2,4]},{"translation":[0.1015625,0.17879187500000004,-0.07336999999999999],"name":"762x39"},{"translation":[0.1015625,0.171875,-0.0703125],"name":"mag"},{"translation":[-0.1015625,-0.046875,-0.3046875],"name":"mb","children":[6,7]},{"name":"body","children":[1,5,8]},{"translation":[-0.375,-0.6875,0],"name":"LeftHand"},{"translation":[0.375,0.8125,-0.375],"name":"l","children":[10]},{"translation":[0.5,0.375,0.875],"name":"bone","children":[9,11]},{"children":[12]}],"animations":[{"name":"draw","samplers":[{"input":0,"output":1,"interpolation":"LINEAR"},{"input":2,"output":3,"interpolation":"LINEAR"},{"input":4,"output":5,"interpolation":"LINEAR"},{"input":6,"output":7,"interpolation":"LINEAR"},{"input":8,"output":9,"interpolation":"LINEAR"},{"input":10,"output":11,"interpolation":"LINEAR"},{"input":12,"output":13,"interpolation":"LINEAR"},{"input":14,"output":15,"interpolation":"LINEAR"}],"channels":[{"sampler":0,"target":{"node":11,"path":"rotation"}},{"sampler":1,"target":{"node":11,"path":"translation"}},{"sampler":2,"target":{"node":11,"path":"scale"}},{"sampler":3,"target":{"node":1,"path":"rotation"}},{"sampler":4,"target":{"node":1,"path":"translation"}},{"sampler":5,"target":{"node":1,"path":"scale"}},{"sampler":6,"target":{"node":12,"path":"rotation"}},{"sampler":7,"target":{"node":12,"path":"translation"}}]}],"bufferViews":[{"buffer":0,"byteOffset":0,"byteLength":4},{"buffer":0,"byteOffset":4,"byteLength":16},{"buffer":0,"byteOffset":20,"byteLength":4},{"buffer":0,"byteOffset":24,"byteLength":12},{"buffer":0,"byteOffset":36,"byteLength":4},{"buffer":0,"byteOffset":40,"byteLength":12},{"buffer":0,"byteOffset":52,"byteLength":4},{"buffer":0,"byteOffset":56,"byteLength":16},{"buffer":0,"byteOffset":72,"byteLength":4},{"buffer":0,"byteOffset":76,"byteLength":12},{"buffer":0,"byteOffset":88,"byteLength":4},{"buffer":0,"byteOffset":92,"byteLength":12},{"buffer":0,"byteOffset":104,"byteLength":44},{"buffer":0,"byteOffset":148,"byteLength":176},{"buffer":0,"byteOffset":324,"byteLength":52},{"buffer":0,"byteOffset":376,"byteLength":156}],"buffers":[{"byteLength":532,"uri":"data:application/octet-stream;base64,"}],"accessors":[{"bufferView":0,"componentType":5126,"count":1,"max":[0],"min":[0],"type":"SCALAR"},{"bufferView":1,"componentType":5126,"count":1,"max":[-0.10482588410377502,0.6912831664085388,-0.5450286865234375,0.4626908004283905],"min":[-0.10482588410377502,0.6912831664085388,-0.5450286865234375,0.4626908004283905],"type":"VEC4"},{"bufferView":2,"componentType":5126,"count":1,"max":[0],"min":[0],"type":"SCALAR"},{"bufferView":3,"componentType":5126,"count":1,"max":[-0.09375,0.11249999701976776,-0.84375],"min":[-0.09375,0.11249999701976776,-0.84375],"type":"VEC3"},{"bufferView":4,"componentType":5126,"count":1,"max":[0],"min":[0],"type":"SCALAR"},{"bufferView":5,"componentType":5126,"count":1,"max":[1,1.5,1],"min":[1,1.5,1],"type":"VEC3"},{"bufferView":6,"componentType":5126,"count":1,"max":[0],"min":[0],"type":"SCALAR"},{"bufferView":7,"componentType":5126,"count":1,"max":[-4.6036909045206166e-17,0.751839816570282,-0.659345805644989,4.037328610911684e-17],"min":[-4.6036909045206166e-17,0.751839816570282,-0.659345805644989,4.037328610911684e-17],"type":"VEC4"},{"bufferView":8,"componentType":5126,"count":1,"max":[0],"min":[0],"type":"SCALAR"},{"bufferView":9,"componentType":5126,"count":1,"max":[0.02500000037252903,-0.0625,-0.125],"min":[0.02500000037252903,-0.0625,-0.125],"type":"VEC3"},{"bufferView":10,"componentType":5126,"count":1,"max":[0],"min":[0],"type":"SCALAR"},{"bufferView":11,"componentType":5126,"count":1,"max":[1,1.5,1],"min":[1,1.5,1],"type":"VEC3"},{"bufferView":12,"componentType":5126,"count":11,"max":[0.8999999761581421],"min":[0],"type":"SCALAR"},{"bufferView":13,"componentType":5126,"count":11,"max":[0.002161056036129594,0.26811543107032776,0.25082844495773315,1],"min":[-0.08051475882530212,-0.0021432472858577967,-0.017457082867622375,0.9266695976257324],"type":"VEC4"},{"bufferView":14,"componentType":5126,"count":13,"max":[0.75],"min":[0],"type":"SCALAR"},{"bufferView":15,"componentType":5126,"count":13,"max":[0.50457763671875,0.375,0.9171524047851562],"min":[0.3125,-0.40625,0.6875],"type":"VEC3"}]}