{"asset":{"version":"2.0","generator":"Blockbench 4.2.4 glTF exporter"},"scenes":[{"nodes":[7],"name":"blockbench_export"}],"scene":0,"nodes":[{"translation":[0,-0.03701437499999999,-0.017927499999999985],"name":"Magazine"},{"name":"gun","children":[0]},{"translation":[0.375,-0.625,0],"name":"RightHand"},{"translation":[-0.375,0.8125,0.125],"name":"R","children":[2]},{"translation":[-0.375,-0.625,0],"name":"LeftHand"},{"translation":[0.375,0.8125,0.125],"name":"L","children":[4]},{"translation":[0.5,0.3125,0.375],"name":"bone","children":[1,3,5]},{"children":[6]}],"animations":[{"name":"draw","samplers":[{"input":0,"output":1,"interpolation":"LINEAR"},{"input":2,"output":3,"interpolation":"LINEAR"},{"input":4,"output":5,"interpolation":"LINEAR"},{"input":6,"output":7,"interpolation":"LINEAR"},{"input":8,"output":9,"interpolation":"LINEAR"},{"input":10,"output":11,"interpolation":"LINEAR"},{"input":12,"output":13,"interpolation":"LINEAR"},{"input":14,"output":15,"interpolation":"LINEAR"}],"channels":[{"sampler":0,"target":{"node":6,"path":"rotation"}},{"sampler":1,"target":{"node":6,"path":"translation"}},{"sampler":2,"target":{"node":3,"path":"rotation"}},{"sampler":3,"target":{"node":3,"path":"translation"}},{"sampler":4,"target":{"node":3,"path":"scale"}},{"sampler":5,"target":{"node":5,"path":"rotation"}},{"sampler":6,"target":{"node":5,"path":"translation"}},{"sampler":7,"target":{"node":5,"path":"scale"}}]}],"bufferViews":[{"buffer":0,"byteOffset":0,"byteLength":52},{"buffer":0,"byteOffset":52,"byteLength":208},{"buffer":0,"byteOffset":260,"byteLength":48},{"buffer":0,"byteOffset":308,"byteLength":144},{"buffer":0,"byteOffset":452,"byteLength":4},{"buffer":0,"byteOffset":456,"byteLength":16},{"buffer":0,"byteOffset":472,"byteLength":4},{"buffer":0,"byteOffset":476,"byteLength":12},{"buffer":0,"byteOffset":488,"byteLength":4},{"buffer":0,"byteOffset":492,"byteLength":12},{"buffer":0,"byteOffset":504,"byteLength":36},{"buffer":0,"byteOffset":540,"byteLength":144},{"buffer":0,"byteOffset":684,"byteLength":32},{"buffer":0,"byteOffset":716,"byteLength":96},{"buffer":0,"byteOffset":812,"byteLength":4},{"buffer":0,"byteOffset":816,"byteLength":12}],"buffers":[{"byteLength":828,"uri":"data:application/octet-stream;base64,"}],"accessors":[{"bufferView":0,"componentType":5126,"count":13,"max":[0.7166666388511658],"min":[0],"type":"SCALAR"},{"bufferView":1,"componentType":5126,"count":13,"max":[0.00015768913726788014,0.34831276535987854,0.31270352005958557,1],"min":[-0.20075927674770355,-0.00026703689945861697,-0.008726535364985466,0.8612883687019348],"type":"VEC4"},{"bufferView":2,"componentType":5126,"count":12,"max":[0.7166666388511658],"min":[0],"type":"SCALAR"},{"bufferView":3,"componentType":5126,"count":12,"max":[0.5025416016578674,0.3125,0.5584259033203125],"min":[0.40625,-0.4937500059604645,0.2750000059604645],"type":"VEC3"},{"bufferView":4,"componentType":5126,"count":1,"max":[0],"min":[0],"type":"SCALAR"},{"bufferView":5,"componentType":5126,"count":1,"max":[-4.6906692768028125e-17,0.7660444378852844,-0.6427876353263855,3.9359390979975894e-17],"min":[-4.6906692768028125e-17,0.7660444378852844,-0.6427876353263855,3.9359390979975894e-17],"type":"VEC4"},{"bufferView":6,"componentType":5126,"count":1,"max":[0],"min":[0],"type":"SCALAR"},{"bufferView":7,"componentType":5126,"count":1,"max":[0,-0.01875000074505806,0.0625],"min":[0,-0.01875000074505806,0.0625],"type":"VEC3"},{"bufferView":8,"componentType":5126,"count":1,"max":[0],"min":[0],"type":"SCALAR"},{"bufferView":9,"componentType":5126,"count":1,"max":[1,1.5,1],"min":[1,1.5,1],"type":"VEC3"},{"bufferView":10,"componentType":5126,"count":9,"max":[0.5],"min":[0],"type":"SCALAR"},{"bufferView":11,"componentType":5126,"count":9,"max":[-0.03161315247416496,-0.7226805090904236,0.6749899983406067,-0.1093670129776001],"min":[-0.12485454976558685,-0.7838937044143677,0.5982983112335205,-0.14533433318138123],"type":"VEC4"},{"bufferView":12,"componentType":5126,"count":8,"max":[0.5],"min":[0],"type":"SCALAR"},{"bufferView":13,"componentType":5126,"count":8,"max":[-0.0625,-0.03125,-0.4578951597213745],"min":[-0.21875,-0.05624999850988388,-0.5249999761581421],"type":"VEC3"},{"bufferView":14,"componentType":5126,"count":1,"max":[0],"min":[0],"type":"SCALAR"},{"bufferView":15,"componentType":5126,"count":1,"max":[1,1.5,1],"min":[1,1.5,1],"type":"VEC3"}]}