{"asset":{"version":"2.0","generator":"Blockbench 4.2.4 glTF exporter"},"scenes":[{"nodes":[7],"name":"blockbench_export"}],"scene":0,"nodes":[{"translation":[0,-0.03701437499999999,-0.017927499999999985],"name":"Magazine"},{"name":"gun","children":[0]},{"translation":[0.375,-0.625,0],"name":"RightHand"},{"translation":[-0.375,0.8125,0.125],"name":"R","children":[2]},{"translation":[-0.375,-0.625,0],"name":"LeftHand"},{"translation":[0.375,0.8125,0.125],"name":"L","children":[4]},{"translation":[0.5,0.3125,0.375],"name":"bone","children":[1,3,5]},{"children":[6]}],"animations":[{"name":"inspect","samplers":[{"input":0,"output":1,"interpolation":"LINEAR"},{"input":2,"output":3,"interpolation":"LINEAR"},{"input":4,"output":5,"interpolation":"LINEAR"},{"input":6,"output":7,"interpolation":"LINEAR"},{"input":8,"output":9,"interpolation":"LINEAR"},{"input":10,"output":11,"interpolation":"LINEAR"},{"input":12,"output":13,"interpolation":"LINEAR"},{"input":14,"output":15,"interpolation":"LINEAR"}],"channels":[{"sampler":0,"target":{"node":6,"path":"rotation"}},{"sampler":1,"target":{"node":6,"path":"translation"}},{"sampler":2,"target":{"node":3,"path":"rotation"}},{"sampler":3,"target":{"node":3,"path":"translation"}},{"sampler":4,"target":{"node":3,"path":"scale"}},{"sampler":5,"target":{"node":5,"path":"rotation"}},{"sampler":6,"target":{"node":5,"path":"translation"}},{"sampler":7,"target":{"node":5,"path":"scale"}}]}],"bufferViews":[{"buffer":0,"byteOffset":0,"byteLength":256},{"buffer":0,"byteOffset":256,"byteLength":1024},{"buffer":0,"byteOffset":1280,"byteLength":264},{"buffer":0,"byteOffset":1544,"byteLength":792},{"buffer":0,"byteOffset":2336,"byteLength":4},{"buffer":0,"byteOffset":2340,"byteLength":16},{"buffer":0,"byteOffset":2356,"byteLength":4},{"buffer":0,"byteOffset":2360,"byteLength":12},{"buffer":0,"byteOffset":2372,"byteLength":4},{"buffer":0,"byteOffset":2376,"byteLength":12},{"buffer":0,"byteOffset":2388,"byteLength":268},{"buffer":0,"byteOffset":2656,"byteLength":1072},{"buffer":0,"byteOffset":3728,"byteLength":132},{"buffer":0,"byteOffset":3860,"byteLength":396},{"buffer":0,"byteOffset":4256,"byteLength":4},{"buffer":0,"byteOffset":4260,"byteLength":12}],"buffers":[{"byteLength":4272,"uri":"data:application/octet-stream;base64,"}],"accessors":[{"bufferView":0,"componentType":5126,"count":64,"max":[4.449999809265137],"min":[0],"type":"SCALAR"},{"bufferView":1,"componentType":5126,"count":64,"max":[0.5538893342018127,0.2525678873062134,0.5903380513191223,1],"min":[-0.010411594063043594,-0.04132780060172081,-0.26703280210494995,0.777937114238739],"type":"VEC4"},{"bufferView":2,"componentType":5126,"count":66,"max":[4.300000190734863],"min":[0],"type":"SCALAR"},{"bufferView":3,"componentType":5126,"count":66,"max":[0.5003906488418579,0.702824056148529,0.4625000059604645],"min":[0.23540160059928894,0.28519532084465027,0.125],"type":"VEC3"},{"bufferView":4,"componentType":5126,"count":1,"max":[0],"min":[0],"type":"SCALAR"},{"bufferView":5,"componentType":5126,"count":1,"max":[-4.6906692768028125e-17,0.7660444378852844,-0.6427876353263855,3.9359390979975894e-17],"min":[-4.6906692768028125e-17,0.7660444378852844,-0.6427876353263855,3.9359390979975894e-17],"type":"VEC4"},{"bufferView":6,"componentType":5126,"count":1,"max":[0],"min":[0],"type":"SCALAR"},{"bufferView":7,"componentType":5126,"count":1,"max":[0,-0.01875000074505806,0.0625],"min":[0,-0.01875000074505806,0.0625],"type":"VEC3"},{"bufferView":8,"componentType":5126,"count":1,"max":[0],"min":[0],"type":"SCALAR"},{"bufferView":9,"componentType":5126,"count":1,"max":[1,1.5,1],"min":[1,1.5,1],"type":"VEC3"},{"bufferView":10,"componentType":5126,"count":67,"max":[4.349999904632568],"min":[0],"type":"SCALAR"},{"bufferView":11,"componentType":5126,"count":67,"max":[-0.04761948063969612,0.43379753828048706,0.9913327097892761,0.14104613661766052],"min":[-0.4064778983592987,-0.8039463758468628,0.5254096984863281,-0.5091429948806763],"type":"VEC4"},{"bufferView":12,"componentType":5126,"count":33,"max":[4.050000190734863],"min":[0],"type":"SCALAR"},{"bufferView":13,"componentType":5126,"count":33,"max":[-0.0625,-0.03125,1.9609302282333374],"min":[-0.77436763048172,-1.6714017391204834,-0.8794339299201965],"type":"VEC3"},{"bufferView":14,"componentType":5126,"count":1,"max":[0],"min":[0],"type":"SCALAR"},{"bufferView":15,"componentType":5126,"count":1,"max":[1,1.5,1],"min":[1,1.5,1],"type":"VEC3"}]}