{"asset":{"version":"2.0","generator":"Blockbench 4.2.4 glTF exporter"},"scenes":[{"nodes":[10],"name":"blockbench_export"}],"scene":0,"nodes":[{"translation":[-0.5,-0.5,-0.5],"name":"bolt"},{"translation":[0,-0.03749999999999998,-0.7124999999999999],"name":"rpk_bolt","children":[0]},{"translation":[0,-0.2875,-0.3999999999999999],"name":"rpk_standard_mag"},{"translation":[0,0.1875,0],"name":"rpk","children":[1,2]},{"translation":[-0.375,-0.6875,0],"name":"LeftHand"},{"translation":[0.375,0.65,-0.7124999999999999],"name":"l","children":[4]},{"name":"bone","children":[3,5]},{"translation":[0.375,-0.6875,0],"name":"RightHand"},{"translation":[-0.375,0.65,-0.7124999999999999],"name":"R","children":[7]},{"translation":[0.5,0.5375,1.2125],"name":"bone2","children":[6,8]},{"children":[9]}],"animations":[{"name":"reload_empty","samplers":[{"input":0,"output":1,"interpolation":"LINEAR"},{"input":2,"output":3,"interpolation":"LINEAR"},{"input":4,"output":5,"interpolation":"LINEAR"},{"input":6,"output":7,"interpolation":"LINEAR"},{"input":8,"output":9,"interpolation":"LINEAR"},{"input":10,"output":11,"interpolation":"LINEAR"},{"input":12,"output":13,"interpolation":"LINEAR"},{"input":14,"output":15,"interpolation":"LINEAR"},{"input":16,"output":17,"interpolation":"LINEAR"},{"input":18,"output":19,"interpolation":"LINEAR"},{"input":20,"output":21,"interpolation":"LINEAR"}],"channels":[{"sampler":0,"target":{"node":9,"path":"rotation"}},{"sampler":1,"target":{"node":9,"path":"translation"}},{"sampler":2,"target":{"node":5,"path":"rotation"}},{"sampler":3,"target":{"node":5,"path":"translation"}},{"sampler":4,"target":{"node":5,"path":"scale"}},{"sampler":5,"target":{"node":8,"path":"rotation"}},{"sampler":6,"target":{"node":8,"path":"translation"}},{"sampler":7,"target":{"node":8,"path":"scale"}},{"sampler":8,"target":{"node":2,"path":"rotation"}},{"sampler":9,"target":{"node":2,"path":"translation"}},{"sampler":10,"target":{"node":1,"path":"translation"}}]}],"bufferViews":[{"buffer":0,"byteOffset":0,"byteLength":288},{"buffer":0,"byteOffset":288,"byteLength":1152},{"buffer":0,"byteOffset":1440,"byteLength":276},{"buffer":0,"byteOffset":1716,"byteLength":828},{"buffer":0,"byteOffset":2544,"byteLength":180},{"buffer":0,"byteOffset":2724,"byteLength":720},{"buffer":0,"byteOffset":3444,"byteLength":152},{"buffer":0,"byteOffset":3596,"byteLength":456},{"buffer":0,"byteOffset":4052,"byteLength":4},{"buffer":0,"byteOffset":4056,"byteLength":12},{"buffer":0,"byteOffset":4068,"byteLength":32},{"buffer":0,"byteOffset":4100,"byteLength":128},{"buffer":0,"byteOffset":4228,"byteLength":36},{"buffer":0,"byteOffset":4264,"byteLength":108},{"buffer":0,"byteOffset":4372,"byteLength":4},{"buffer":0,"byteOffset":4376,"byteLength":12},{"buffer":0,"byteOffset":4388,"byteLength":116},{"buffer":0,"byteOffset":4504,"byteLength":464},{"buffer":0,"byteOffset":4968,"byteLength":112},{"buffer":0,"byteOffset":5080,"byteLength":336},{"buffer":0,"byteOffset":5416,"byteLength":28},{"buffer":0,"byteOffset":5444,"byteLength":84}],"buffers":[{"byteLength":5528,"uri":"data:application/octet-stream;base64,"}],"accessors":[{"bufferView":0,"componentType":5126,"count":72,"max":[4.550000190734863],"min":[0],"type":"SCALAR"},{"bufferView":1,"componentType":5126,"count":72,"max":[0.12992216646671295,0.10356578230857849,0.07032173126935959,1],"min":[-0.00013645610306411982,-0.011178914457559586,-0.19299770891666412,0.9759644865989685],"type":"VEC4"},{"bufferView":2,"componentType":5126,"count":69,"max":[4.550000190734863],"min":[0],"type":"SCALAR"},{"bufferView":3,"componentType":5126,"count":69,"max":[0.508672833442688,0.5487499833106995,1.3255078792572021],"min":[0.43183594942092896,0.40562498569488525,1.1649999618530273],"type":"VEC3"},{"bufferView":4,"componentType":5126,"count":45,"max":[4.300000190734863],"min":[0],"type":"SCALAR"},{"bufferView":5,"componentType":5126,"count":45,"max":[0.17262369394302368,-0.667666494846344,0.6603418588638306,0.2889028787612915],"min":[-0.6235108375549316,-0.9804636240005493,0.17719842493534088,-0.4891830384731293],"type":"VEC4"},{"bufferView":6,"componentType":5126,"count":38,"max":[4.300000190734863],"min":[0],"type":"SCALAR"},{"bufferView":7,"componentType":5126,"count":38,"max":[0.0062500000931322575,0.03750000149011612,0.21038229763507843],"min":[-0.6292502880096436,-1.3393750190734863,-0.9046875238418579],"type":"VEC3"},{"bufferView":8,"componentType":5126,"count":1,"max":[0],"min":[0],"type":"SCALAR"},{"bufferView":9,"componentType":5126,"count":1,"max":[1,1.5,1],"min":[1,1.5,1],"type":"VEC3"},{"bufferView":10,"componentType":5126,"count":8,"max":[3.9000000953674316],"min":[0],"type":"SCALAR"},{"bufferView":11,"componentType":5126,"count":8,"max":[0.1990291178226471,0.7429917454719543,-0.45114731788635254,4.214956052162341e-17],"min":[-0.03127489984035492,0.6438771486282349,-0.6883545517921448,-0.5850433707237244],"type":"VEC4"},{"bufferView":12,"componentType":5126,"count":9,"max":[3.9000000953674316],"min":[0],"type":"SCALAR"},{"bufferView":13,"componentType":5126,"count":9,"max":[0.26249998807907104,0.17499999701976776,-0.02500000037252903],"min":[0.012500000186264515,-0.05000000074505806,-0.5625],"type":"VEC3"},{"bufferView":14,"componentType":5126,"count":1,"max":[0],"min":[0],"type":"SCALAR"},{"bufferView":15,"componentType":5126,"count":1,"max":[1,1.5,1],"min":[1,1.5,1],"type":"VEC3"},{"bufferView":16,"componentType":5126,"count":29,"max":[2.5],"min":[0],"type":"SCALAR"},{"bufferView":17,"componentType":5126,"count":29,"max":[0.9369966387748718,0.0558277852833271,0.19977988302707672,1],"min":[-0.25996947288513184,-0.35953888297080994,-0.21575884521007538,-0.17941966652870178],"type":"VEC4"},{"bufferView":18,"componentType":5126,"count":28,"max":[2.5],"min":[0],"type":"SCALAR"},{"bufferView":19,"componentType":5126,"count":28,"max":[0,-0.2874999940395355,0.40687501430511475],"min":[-0.628125011920929,-2.281874895095825,-0.7201255559921265],"type":"VEC3"},{"bufferView":20,"componentType":5126,"count":7,"max":[3.799999952316284],"min":[3.25],"type":"SCALAR"},{"bufferView":21,"componentType":5126,"count":7,"max":[0,-0.03750000149011612,-0.3062500059604645],"min":[0,-0.03750000149011612,-0.7124999761581421],"type":"VEC3"}]}