{"asset":{"version":"2.0","generator":"Blockbench 4.2.4 glTF exporter"},"scenes":[{"nodes":[10],"name":"blockbench_export"}],"scene":0,"nodes":[{"translation":[-0.5,-0.5,-0.5],"name":"bolt"},{"translation":[0,-0.03749999999999998,-0.7124999999999999],"name":"rpk_bolt","children":[0]},{"translation":[0,-0.2875,-0.3999999999999999],"name":"rpk_standard_mag"},{"translation":[0,0.1875,0],"name":"rpk","children":[1,2]},{"translation":[-0.375,-0.6875,0],"name":"LeftHand"},{"translation":[0.375,0.65,-0.7124999999999999],"name":"l","children":[4]},{"name":"bone","children":[3,5]},{"translation":[0.375,-0.6875,0],"name":"RightHand"},{"translation":[-0.375,0.65,-0.7124999999999999],"name":"R","children":[7]},{"translation":[0.5,0.5375,1.2125],"name":"bone2","children":[6,8]},{"children":[9]}],"animations":[{"name":"inspect","samplers":[{"input":0,"output":1,"interpolation":"LINEAR"},{"input":2,"output":3,"interpolation":"LINEAR"},{"input":4,"output":5,"interpolation":"LINEAR"},{"input":6,"output":7,"interpolation":"LINEAR"},{"input":8,"output":9,"interpolation":"LINEAR"},{"input":10,"output":11,"interpolation":"LINEAR"},{"input":12,"output":13,"interpolation":"LINEAR"},{"input":14,"output":15,"interpolation":"LINEAR"}],"channels":[{"sampler":0,"target":{"node":9,"path":"rotation"}},{"sampler":1,"target":{"node":9,"path":"translation"}},{"sampler":2,"target":{"node":5,"path":"rotation"}},{"sampler":3,"target":{"node":5,"path":"translation"}},{"sampler":4,"target":{"node":5,"path":"scale"}},{"sampler":5,"target":{"node":8,"path":"rotation"}},{"sampler":6,"target":{"node":8,"path":"translation"}},{"sampler":7,"target":{"node":8,"path":"scale"}}]}],"bufferViews":[{"buffer":0,"byteOffset":0,"byteLength":512},{"buffer":0,"byteOffset":512,"byteLength":2048},{"buffer":0,"byteOffset":2560,"byteLength":532},{"buffer":0,"byteOffset":3092,"byteLength":1596},{"buffer":0,"byteOffset":4688,"byteLength":292},{"buffer":0,"byteOffset":4980,"byteLength":1168},{"buffer":0,"byteOffset":6148,"byteLength":292},{"buffer":0,"byteOffset":6440,"byteLength":876},{"buffer":0,"byteOffset":7316,"byteLength":4},{"buffer":0,"byteOffset":7320,"byteLength":12},{"buffer":0,"byteOffset":7332,"byteLength":4},{"buffer":0,"byteOffset":7336,"byteLength":16},{"buffer":0,"byteOffset":7352,"byteLength":4},{"buffer":0,"byteOffset":7356,"byteLength":12},{"buffer":0,"byteOffset":7368,"byteLength":4},{"buffer":0,"byteOffset":7372,"byteLength":12}],"buffers":[{"byteLength":7384,"uri":"data:application/octet-stream;base64,"}],"accessors":[{"bufferView":0,"componentType":5126,"count":128,"max":[7.25],"min":[0],"type":"SCALAR"},{"bufferView":1,"componentType":5126,"count":128,"max":[0.28788596391677856,0.16317428648471832,0.5390974283218384,1],"min":[-0.009938706643879414,-0.010850325226783752,-0.17801889777183533,0.7902466654777527],"type":"VEC4"},{"bufferView":2,"componentType":5126,"count":133,"max":[7.300000190734863],"min":[0],"type":"SCALAR"},{"bufferView":3,"componentType":5126,"count":133,"max":[0.5663613080978394,0.5462467670440674,1.3143750429153442],"min":[0.4396093785762787,0.5035986304283142,1.0331250429153442],"type":"VEC3"},{"bufferView":4,"componentType":5126,"count":73,"max":[6.150000095367432],"min":[0],"type":"SCALAR"},{"bufferView":5,"componentType":5126,"count":73,"max":[0.15564626455307007,-0.5651838779449463,0.7497408986091614,-0.17778176069259644],"min":[-0.2947022318840027,-0.6774938702583313,0.5311549305915833,-0.4891830384731293],"type":"VEC4"},{"bufferView":6,"componentType":5126,"count":73,"max":[6.150000095367432],"min":[0],"type":"SCALAR"},{"bufferView":7,"componentType":5126,"count":73,"max":[-0.09531249850988388,0.2562499940395355,-0.8324999809265137],"min":[-0.21437500417232513,0.0242752805352211,-0.9046875238418579],"type":"VEC3"},{"bufferView":8,"componentType":5126,"count":1,"max":[0],"min":[0],"type":"SCALAR"},{"bufferView":9,"componentType":5126,"count":1,"max":[1,1.5,1],"min":[1,1.5,1],"type":"VEC3"},{"bufferView":10,"componentType":5126,"count":1,"max":[0],"min":[0],"type":"SCALAR"},{"bufferView":11,"componentType":5126,"count":1,"max":[-4.441636958098618e-17,0.7253744006156921,-0.6883545517921448,4.214956052162341e-17],"min":[-4.441636958098618e-17,0.7253744006156921,-0.6883545517921448,4.214956052162341e-17],"type":"VEC4"},{"bufferView":12,"componentType":5126,"count":1,"max":[0],"min":[0],"type":"SCALAR"},{"bufferView":13,"componentType":5126,"count":1,"max":[0.012500000186264515,-0.05000000074505806,-0.02500000037252903],"min":[0.012500000186264515,-0.05000000074505806,-0.02500000037252903],"type":"VEC3"},{"bufferView":14,"componentType":5126,"count":1,"max":[0],"min":[0],"type":"SCALAR"},{"bufferView":15,"componentType":5126,"count":1,"max":[1,1.5,1],"min":[1,1.5,1],"type":"VEC3"}]}