{"asset":{"version":"2.0","generator":"Blockbench 4.2.4 glTF exporter"},"scenes":[{"nodes":[10],"name":"blockbench_export"}],"scene":0,"nodes":[{"translation":[-0.5,-0.5,-0.5],"name":"bolt"},{"translation":[0,-0.03749999999999998,-0.7124999999999999],"name":"rpk_bolt","children":[0]},{"translation":[0,-0.2875,-0.3999999999999999],"name":"rpk_standard_mag"},{"translation":[0,0.1875,0],"name":"rpk","children":[1,2]},{"translation":[-0.375,-0.6875,0],"name":"LeftHand"},{"translation":[0.375,0.65,-0.7124999999999999],"name":"l","children":[4]},{"name":"bone","children":[3,5]},{"translation":[0.375,-0.6875,0],"name":"RightHand"},{"translation":[-0.375,0.65,-0.7124999999999999],"name":"R","children":[7]},{"translation":[0.5,0.5375,1.2125],"name":"bone2","children":[6,8]},{"children":[9]}],"animations":[{"name":"draw","samplers":[{"input":0,"output":1,"interpolation":"LINEAR"},{"input":2,"output":3,"interpolation":"LINEAR"},{"input":4,"output":5,"interpolation":"LINEAR"},{"input":6,"output":7,"interpolation":"LINEAR"},{"input":8,"output":9,"interpolation":"LINEAR"},{"input":10,"output":11,"interpolation":"LINEAR"},{"input":12,"output":13,"interpolation":"LINEAR"},{"input":14,"output":15,"interpolation":"LINEAR"}],"channels":[{"sampler":0,"target":{"node":9,"path":"rotation"}},{"sampler":1,"target":{"node":9,"path":"translation"}},{"sampler":2,"target":{"node":5,"path":"rotation"}},{"sampler":3,"target":{"node":5,"path":"translation"}},{"sampler":4,"target":{"node":5,"path":"scale"}},{"sampler":5,"target":{"node":8,"path":"rotation"}},{"sampler":6,"target":{"node":8,"path":"translation"}},{"sampler":7,"target":{"node":8,"path":"scale"}}]}],"bufferViews":[{"buffer":0,"byteOffset":0,"byteLength":76},{"buffer":0,"byteOffset":76,"byteLength":304},{"buffer":0,"byteOffset":380,"byteLength":76},{"buffer":0,"byteOffset":456,"byteLength":228},{"buffer":0,"byteOffset":684,"byteLength":20},{"buffer":0,"byteOffset":704,"byteLength":80},{"buffer":0,"byteOffset":784,"byteLength":24},{"buffer":0,"byteOffset":808,"byteLength":72},{"buffer":0,"byteOffset":880,"byteLength":4},{"buffer":0,"byteOffset":884,"byteLength":12},{"buffer":0,"byteOffset":896,"byteLength":36},{"buffer":0,"byteOffset":932,"byteLength":144},{"buffer":0,"byteOffset":1076,"byteLength":36},{"buffer":0,"byteOffset":1112,"byteLength":108},{"buffer":0,"byteOffset":1220,"byteLength":4},{"buffer":0,"byteOffset":1224,"byteLength":12}],"buffers":[{"byteLength":1236,"uri":"data:application/octet-stream;base64,"}],"accessors":[{"bufferView":0,"componentType":5126,"count":19,"max":[1.2000000476837158],"min":[0],"type":"SCALAR"},{"bufferView":1,"componentType":5126,"count":19,"max":[0.21475687623023987,0.03544686734676361,0.03442491218447685,1],"min":[-0.002611671108752489,-0.0005629038787446916,-0.0009587874519638717,0.9756406545639038],"type":"VEC4"},{"bufferView":2,"componentType":5126,"count":19,"max":[1.25],"min":[0],"type":"SCALAR"},{"bufferView":3,"componentType":5126,"count":19,"max":[0.5,0.518750011920929,2.0687499046325684],"min":[0.5,-1.0125000476837158,1.1259465217590332],"type":"VEC3"},{"bufferView":4,"componentType":5126,"count":5,"max":[0.800000011920929],"min":[0],"type":"SCALAR"},{"bufferView":5,"componentType":5126,"count":5,"max":[0.15564626455307007,-0.6131733655929565,0.6385436058044434,-0.4634665846824646],"min":[-0.038460537791252136,-0.6740538477897644,0.5311549305915833,-0.4891830384731293],"type":"VEC4"},{"bufferView":6,"componentType":5126,"count":6,"max":[0.800000011920929],"min":[0],"type":"SCALAR"},{"bufferView":7,"componentType":5126,"count":6,"max":[-0.08906249701976776,0.16875000298023224,-0.9043750166893005],"min":[-0.1368750035762787,0.0062500000931322575,-0.9046875238418579],"type":"VEC3"},{"bufferView":8,"componentType":5126,"count":1,"max":[0],"min":[0],"type":"SCALAR"},{"bufferView":9,"componentType":5126,"count":1,"max":[1,1.5,1],"min":[1,1.5,1],"type":"VEC3"},{"bufferView":10,"componentType":5126,"count":9,"max":[0.44999998807907104],"min":[0],"type":"SCALAR"},{"bufferView":11,"componentType":5126,"count":9,"max":[-4.441636958098618e-17,0.7253744006156921,-0.6883545517921448,4.214956052162341e-17],"min":[-0.20210351049900055,0.5359847545623779,-0.8351663947105408,-0.034991197288036346],"type":"VEC4"},{"bufferView":12,"componentType":5126,"count":9,"max":[0.44999998807907104],"min":[0],"type":"SCALAR"},{"bufferView":13,"componentType":5126,"count":9,"max":[0.20374999940395355,0.15487053990364075,-0.02500000037252903],"min":[0.012500000186264515,-0.0625,-0.42091134190559387],"type":"VEC3"},{"bufferView":14,"componentType":5126,"count":1,"max":[0],"min":[0],"type":"SCALAR"},{"bufferView":15,"componentType":5126,"count":1,"max":[1,1.5,1],"min":[1,1.5,1],"type":"VEC3"}]}