{"asset":{"version":"2.0","generator":"Blockbench 4.5.2 glTF exporter"},"scenes":[{"nodes":[19],"name":"blockbench_export"}],"scene":0,"nodes":[{"translation":[0,1.0625,4.4375],"name":"camera","mesh":0},{"name":"556_bullet3"},{"name":"556_bullet4"},{"translation":[0,0.264173125,-0.18850187500000004],"name":"bullet2","children":[1,2]},{"translation":[0,-0.264173125,0.18850187500000004],"name":"magazine2","children":[3]},{"name":"556_bullet2"},{"name":"556_bullet"},{"translation":[0,0.264173125,-0.18850187500000004],"name":"bullet","children":[5,6]},{"translation":[0,-0.264173125,0.18850187500000004],"name":"magazine","children":[7]},{"name":"octagon6"},{"name":"bolt","children":[9]},{"translation":[0,0.0625,-0.5625],"name":"scar_l","children":[4,8,10]},{"translation":[0.375,-0.6875,0],"name":"RightHand"},{"translation":[-0.375,0.75,-0.5625],"name":"R","children":[12]},{"translation":[0,0,0.0625],"name":"bone","children":[11,13]},{"translation":[-0.375,-0.6875,0],"name":"LeftHand"},{"translation":[0.375,0.75,-0.5],"name":"l","children":[15]},{"translation":[0.5,0.4375,1],"name":"bone2","children":[14,16]},{"name":"bone3"},{"children":[0,17,18]}],"bufferViews":[{"buffer":0,"byteOffset":0,"byteLength":288,"target":34962,"byteStride":12},{"buffer":0,"byteOffset":288,"byteLength":288,"target":34962,"byteStride":12},{"buffer":0,"byteOffset":576,"byteLength":192,"target":34962,"byteStride":8},{"buffer":0,"byteOffset":768,"byteLength":72,"target":34963},{"buffer":0,"byteOffset":840,"byteLength":148},{"buffer":0,"byteOffset":988,"byteLength":592},{"buffer":0,"byteOffset":1580,"byteLength":152},{"buffer":0,"byteOffset":1732,"byteLength":456},{"buffer":0,"byteOffset":2188,"byteLength":4},{"buffer":0,"byteOffset":2192,"byteLength":12},{"buffer":0,"byteOffset":2204,"byteLength":4},{"buffer":0,"byteOffset":2208,"byteLength":16},{"buffer":0,"byteOffset":2224,"byteLength":4},{"buffer":0,"byteOffset":2228,"byteLength":12},{"buffer":0,"byteOffset":2240,"byteLength":4},{"buffer":0,"byteOffset":2244,"byteLength":12},{"buffer":0,"byteOffset":2256,"byteLength":192},{"buffer":0,"byteOffset":2448,"byteLength":768},{"buffer":0,"byteOffset":3216,"byteLength":204},{"buffer":0,"byteOffset":3420,"byteLength":612},{"buffer":0,"byteOffset":4032,"byteLength":4},{"buffer":0,"byteOffset":4036,"byteLength":12},{"buffer":0,"byteOffset":4048,"byteLength":100},{"buffer":0,"byteOffset":4148,"byteLength":400},{"buffer":0,"byteOffset":4548,"byteLength":112},{"buffer":0,"byteOffset":4660,"byteLength":336},{"buffer":0,"byteOffset":4996,"byteLength":24},{"buffer":0,"byteOffset":5020,"byteLength":72}],"buffers":[{"byteLength":5092,"uri":"data:application/octet-stream;base64,"}],"accessors":[{"bufferView":0,"componentType":5126,"count":24,"max":[0.07500000298023224,0.04062499850988388,0],"min":[-0.07500000298023224,-0.04062499850988388,-0.0625],"type":"VEC3"},{"bufferView":1,"componentType":5126,"count":24,"max":[1,1,1],"min":[-1,-1,-1],"type":"VEC3"},{"bufferView":2,"componentType":5126,"count":24,"max":[1,1],"min":[0,0],"type":"VEC2"},{"bufferView":3,"componentType":5123,"count":36,"max":[23],"min":[0],"type":"SCALAR"},{"bufferView":4,"componentType":5126,"count":37,"max":[2.799999952316284],"min":[0],"type":"SCALAR"},{"bufferView":5,"componentType":5126,"count":37,"max":[0.31529995799064636,0.8233071565628052,-0.48679766058921814,0.6044941544532776],"min":[-0.31782275438308716,0.5659425258636475,-0.6198264360427856,-0.13221168518066406],"type":"VEC4"},{"bufferView":6,"componentType":5126,"count":38,"max":[2.799999952316284],"min":[0],"type":"SCALAR"},{"bufferView":7,"componentType":5126,"count":38,"max":[-0.055876873433589935,0.01875000074505806,0.36250001192092896],"min":[-0.5056250095367432,-1.4237500429153442,-0.550000011920929],"type":"VEC3"},{"bufferView":8,"componentType":5126,"count":1,"max":[0],"min":[0],"type":"SCALAR"},{"bufferView":9,"componentType":5126,"count":1,"max":[1,1.5,1],"min":[1,1.5,1],"type":"VEC3"},{"bufferView":10,"componentType":5126,"count":1,"max":[0],"min":[0],"type":"SCALAR"},{"bufferView":11,"componentType":5126,"count":1,"max":[-4.423203734456241e-17,0.7223639488220215,-0.6915130615234375,4.234296196628321e-17],"min":[-4.423203734456241e-17,0.7223639488220215,-0.6915130615234375,4.234296196628321e-17],"type":"VEC4"},{"bufferView":12,"componentType":5126,"count":1,"max":[0],"min":[0],"type":"SCALAR"},{"bufferView":13,"componentType":5126,"count":1,"max":[0.02500000037252903,-0.125,-0.05000000074505806],"min":[0.02500000037252903,-0.125,-0.05000000074505806],"type":"VEC3"},{"bufferView":14,"componentType":5126,"count":1,"max":[0],"min":[0],"type":"SCALAR"},{"bufferView":15,"componentType":5126,"count":1,"max":[1,1.5,1],"min":[1,1.5,1],"type":"VEC3"},{"bufferView":16,"componentType":5126,"count":48,"max":[3.0999999046325684],"min":[0],"type":"SCALAR"},{"bufferView":17,"componentType":5126,"count":48,"max":[0.14314401149749756,0.004340083803981543,0.5483913421630859,1],"min":[0,-0.04053429886698723,-0.3511340618133545,0.8357211351394653],"type":"VEC4"},{"bufferView":18,"componentType":5126,"count":51,"max":[3.1500000953674316],"min":[0],"type":"SCALAR"},{"bufferView":19,"componentType":5126,"count":51,"max":[0.5284488201141357,0.5687500238418579,1.086093783378601],"min":[0.4073828160762787,0.412540078163147,0.903124988079071],"type":"VEC3"},{"bufferView":20,"componentType":5126,"count":1,"max":[0],"min":[0],"type":"SCALAR"},{"bufferView":21,"componentType":5126,"count":1,"max":[0,-1.764173150062561,3.0010018348693848],"min":[0,-1.764173150062561,3.0010018348693848],"type":"VEC3"},{"bufferView":22,"componentType":5126,"count":25,"max":[2],"min":[0],"type":"SCALAR"},{"bufferView":23,"componentType":5126,"count":25,"max":[0.3170101046562195,0.2395138144493103,0.17827372252941132,1],"min":[-0.01419758889824152,-0.08515943586826324,-0.9888561964035034,-0.9943658113479614],"type":"VEC4"},{"bufferView":24,"componentType":5126,"count":28,"max":[2],"min":[0],"type":"SCALAR"},{"bufferView":25,"componentType":5126,"count":28,"max":[0,-0.26417312026023865,0.7849581241607666],"min":[-1.0013418197631836,-2.830632448196411,-0.12507914006710052],"type":"VEC3"},{"bufferView":26,"componentType":5126,"count":6,"max":[2.5999999046325684],"min":[2.3499999046325684],"type":"SCALAR"},{"bufferView":27,"componentType":5126,"count":6,"max":[0,0,0.2750000059604645],"min":[0,0,0],"type":"VEC3"}],"materials":[{"pbrMetallicRoughness":{"baseColorFactor":[0.28627450980392155,0.3137254901960784,0.3803921568627451,1],"metallicFactor":0,"roughnessFactor":0.9},"extensions":{"KHR_materials_unlit":{}}}],"meshes":[{"primitives":[{"mode":4,"attributes":{"POSITION":0,"NORMAL":1,"TEXCOORD_0":2},"indices":3,"material":0}]}],"animations":[{"name":"empty2","samplers":[{"input":4,"output":5,"interpolation":"LINEAR"},{"input":6,"output":7,"interpolation":"LINEAR"},{"input":8,"output":9,"interpolation":"LINEAR"},{"input":10,"output":11,"interpolation":"LINEAR"},{"input":12,"output":13,"interpolation":"LINEAR"},{"input":14,"output":15,"interpolation":"LINEAR"},{"input":16,"output":17,"interpolation":"LINEAR"},{"input":18,"output":19,"interpolation":"LINEAR"},{"input":20,"output":21,"interpolation":"LINEAR"},{"input":22,"output":23,"interpolation":"LINEAR"},{"input":24,"output":25,"interpolation":"LINEAR"},{"input":26,"output":27,"interpolation":"LINEAR"}],"channels":[{"sampler":0,"target":{"node":16,"path":"rotation"}},{"sampler":1,"target":{"node":16,"path":"translation"}},{"sampler":2,"target":{"node":16,"path":"scale"}},{"sampler":3,"target":{"node":13,"path":"rotation"}},{"sampler":4,"target":{"node":13,"path":"translation"}},{"sampler":5,"target":{"node":13,"path":"scale"}},{"sampler":6,"target":{"node":17,"path":"rotation"}},{"sampler":7,"target":{"node":17,"path":"translation"}},{"sampler":8,"target":{"node":4,"path":"translation"}},{"sampler":9,"target":{"node":8,"path":"rotation"}},{"sampler":10,"target":{"node":8,"path":"translation"}},{"sampler":11,"target":{"node":10,"path":"translation"}}]}],"extensionsUsed":["KHR_materials_unlit"]}