{"asset":{"version":"2.0","generator":"Blockbench 4.5.2 glTF exporter"},"scenes":[{"nodes":[10],"name":"blockbench_export"}],"scene":0,"nodes":[{"name":"bolt"},{"translation":[-0.03125,-0.0625,0.2265625],"name":"default_mag"},{"translation":[-0.03125,-0.0625,0.2265625],"name":"default_mag2"},{"name":"scar_h","children":[0,1,2]},{"translation":[0.375,-0.6875,0],"name":"RightHand"},{"translation":[-0.375,0.6875,0],"name":"R","children":[4]},{"translation":[0.010894375000000012,0.12452437500000002,-0.5],"name":"bone","children":[3,5]},{"translation":[-0.375,-0.6875,0],"name":"LeftHand"},{"translation":[0.385894375,0.812024375,-0.5],"name":"l","children":[7]},{"translation":[0.489105625,0.375475625,1],"name":"bone2","children":[6,8]},{"children":[9]}],"animations":[{"name":"empty2","samplers":[{"input":0,"output":1,"interpolation":"LINEAR"},{"input":2,"output":3,"interpolation":"LINEAR"},{"input":4,"output":5,"interpolation":"LINEAR"},{"input":6,"output":7,"interpolation":"LINEAR"},{"input":8,"output":9,"interpolation":"LINEAR"},{"input":10,"output":11,"interpolation":"LINEAR"},{"input":12,"output":13,"interpolation":"LINEAR"},{"input":14,"output":15,"interpolation":"LINEAR"},{"input":16,"output":17,"interpolation":"LINEAR"},{"input":18,"output":19,"interpolation":"LINEAR"},{"input":20,"output":21,"interpolation":"LINEAR"},{"input":22,"output":23,"interpolation":"LINEAR"},{"input":24,"output":25,"interpolation":"LINEAR"}],"channels":[{"sampler":0,"target":{"node":8,"path":"rotation"}},{"sampler":1,"target":{"node":8,"path":"translation"}},{"sampler":2,"target":{"node":8,"path":"scale"}},{"sampler":3,"target":{"node":5,"path":"rotation"}},{"sampler":4,"target":{"node":5,"path":"translation"}},{"sampler":5,"target":{"node":5,"path":"scale"}},{"sampler":6,"target":{"node":9,"path":"rotation"}},{"sampler":7,"target":{"node":9,"path":"translation"}},{"sampler":8,"target":{"node":0,"path":"translation"}},{"sampler":9,"target":{"node":1,"path":"rotation"}},{"sampler":10,"target":{"node":1,"path":"translation"}},{"sampler":11,"target":{"node":2,"path":"rotation"}},{"sampler":12,"target":{"node":2,"path":"translation"}}]}],"bufferViews":[{"buffer":0,"byteOffset":0,"byteLength":184},{"buffer":0,"byteOffset":184,"byteLength":736},{"buffer":0,"byteOffset":920,"byteLength":188},{"buffer":0,"byteOffset":1108,"byteLength":564},{"buffer":0,"byteOffset":1672,"byteLength":4},{"buffer":0,"byteOffset":1676,"byteLength":12},{"buffer":0,"byteOffset":1688,"byteLength":4},{"buffer":0,"byteOffset":1692,"byteLength":16},{"buffer":0,"byteOffset":1708,"byteLength":4},{"buffer":0,"byteOffset":1712,"byteLength":12},{"buffer":0,"byteOffset":1724,"byteLength":4},{"buffer":0,"byteOffset":1728,"byteLength":12},{"buffer":0,"byteOffset":1740,"byteLength":208},{"buffer":0,"byteOffset":1948,"byteLength":832},{"buffer":0,"byteOffset":2780,"byteLength":208},{"buffer":0,"byteOffset":2988,"byteLength":624},{"buffer":0,"byteOffset":3612,"byteLength":16},{"buffer":0,"byteOffset":3628,"byteLength":48},{"buffer":0,"byteOffset":3676,"byteLength":20},{"buffer":0,"byteOffset":3696,"byteLength":80},{"buffer":0,"byteOffset":3776,"byteLength":24},{"buffer":0,"byteOffset":3800,"byteLength":72},{"buffer":0,"byteOffset":3872,"byteLength":48},{"buffer":0,"byteOffset":3920,"byteLength":192},{"buffer":0,"byteOffset":4112,"byteLength":68},{"buffer":0,"byteOffset":4180,"byteLength":204}],"buffers":[{"byteLength":4384,"uri":"data:application/octet-stream;base64,"}],"accessors":[{"bufferView":0,"componentType":5126,"count":46,"max":[2.950000047683716],"min":[0],"type":"SCALAR"},{"bufferView":1,"componentType":5126,"count":46,"max":[0.5722169280052185,0.8160406947135925,-0.15095122158527374,0.5953660011291504],"min":[-0.46909016370773315,0.5197137594223022,-0.6750673055648804,-0.17555725574493408],"type":"VEC4"},{"bufferView":2,"componentType":5126,"count":47,"max":[2.950000047683716],"min":[0],"type":"SCALAR"},{"bufferView":3,"componentType":5126,"count":47,"max":[0.010894374921917915,0.24639937281608582,0.375],"min":[-0.6219181418418884,-1.4192255735397339,-0.625],"type":"VEC3"},{"bufferView":4,"componentType":5126,"count":1,"max":[0],"min":[0],"type":"SCALAR"},{"bufferView":5,"componentType":5126,"count":1,"max":[1,1.5,1],"min":[1,1.5,1],"type":"VEC3"},{"bufferView":6,"componentType":5126,"count":1,"max":[0],"min":[0],"type":"SCALAR"},{"bufferView":7,"componentType":5126,"count":1,"max":[-4.5504495898297635e-17,0.7431448101997375,-0.6691306233406067,4.09724328791237e-17],"min":[-4.5504495898297635e-17,0.7431448101997375,-0.6691306233406067,4.09724328791237e-17],"type":"VEC4"},{"bufferView":8,"componentType":5126,"count":1,"max":[0],"min":[0],"type":"SCALAR"},{"bufferView":9,"componentType":5126,"count":1,"max":[0.03125,-0.1875,0.4749999940395355],"min":[0.03125,-0.1875,0.4749999940395355],"type":"VEC3"},{"bufferView":10,"componentType":5126,"count":1,"max":[0],"min":[0],"type":"SCALAR"},{"bufferView":11,"componentType":5126,"count":1,"max":[1,1.5,1],"min":[1,1.5,1],"type":"VEC3"},{"bufferView":12,"componentType":5126,"count":52,"max":[3.4000000953674316],"min":[0],"type":"SCALAR"},{"bufferView":13,"componentType":5126,"count":52,"max":[0.1700989156961441,0.02658112160861492,0.10161862522363663,1],"min":[-0.012193695642054081,-0.009607596322894096,-0.3291320502758026,0.9285422563552856],"type":"VEC4"},{"bufferView":14,"componentType":5126,"count":52,"max":[3.4000000953674316],"min":[0],"type":"SCALAR"},{"bufferView":15,"componentType":5126,"count":52,"max":[0.5328556299209595,0.5707881450653076,1.09375],"min":[0.4878396987915039,0.32547563314437866,0.887499988079071],"type":"VEC3"},{"bufferView":16,"componentType":5126,"count":4,"max":[2.700000047683716],"min":[2.5],"type":"SCALAR"},{"bufferView":17,"componentType":5126,"count":4,"max":[0,0,0.375],"min":[0,0,0],"type":"VEC3"},{"bufferView":18,"componentType":5126,"count":5,"max":[1.4500000476837158],"min":[1],"type":"SCALAR"},{"bufferView":19,"componentType":5126,"count":5,"max":[0.05427318066358566,0.027952544391155243,0.006809406913816929,1],"min":[0,0,-0.21178188920021057,0.9754083752632141],"type":"VEC4"},{"bufferView":20,"componentType":5126,"count":6,"max":[1.399999976158142],"min":[1],"type":"SCALAR"},{"bufferView":21,"componentType":5126,"count":6,"max":[0.6000000238418579,-0.0625,0.2265625],"min":[-0.07312499731779099,-2.1312499046325684,0.2265625],"type":"VEC3"},{"bufferView":22,"componentType":5126,"count":12,"max":[2.049999952316284],"min":[0.6000000238418579],"type":"SCALAR"},{"bufferView":23,"componentType":5126,"count":12,"max":[0.04319484904408455,0.2021060734987259,0,1],"min":[-0.24818231165409088,-0.2247690111398697,-0.4881480038166046,0.8410701155662537],"type":"VEC4"},{"bufferView":24,"componentType":5126,"count":17,"max":[2.049999952316284],"min":[0.6000000238418579],"type":"SCALAR"},{"bufferView":25,"componentType":5126,"count":17,"max":[-0.03125,-0.0625,0.7015625238418579],"min":[-0.6312500238418579,-1.149999976158142,0.1953125],"type":"VEC3"}]}