{"asset":{"version":"2.0","generator":"Blockbench 4.5.2 glTF exporter"},"scenes":[{"nodes":[10],"name":"blockbench_export"}],"scene":0,"nodes":[{"name":"bolt"},{"translation":[-0.03125,-0.0625,0.2265625],"name":"default_mag"},{"translation":[-0.03125,-0.0625,0.2265625],"name":"default_mag2"},{"name":"scar_h","children":[0,1,2]},{"translation":[0.375,-0.6875,0],"name":"RightHand"},{"translation":[-0.375,0.6875,0],"name":"R","children":[4]},{"translation":[0.010894375000000012,0.12452437500000002,-0.5],"name":"bone","children":[3,5]},{"translation":[-0.375,-0.6875,0],"name":"LeftHand"},{"translation":[0.385894375,0.812024375,-0.5],"name":"l","children":[7]},{"translation":[0.489105625,0.375475625,1],"name":"bone2","children":[6,8]},{"children":[9]}],"animations":[{"name":"reload","samplers":[{"input":0,"output":1,"interpolation":"LINEAR"},{"input":2,"output":3,"interpolation":"LINEAR"},{"input":4,"output":5,"interpolation":"LINEAR"},{"input":6,"output":7,"interpolation":"LINEAR"},{"input":8,"output":9,"interpolation":"LINEAR"},{"input":10,"output":11,"interpolation":"LINEAR"},{"input":12,"output":13,"interpolation":"LINEAR"},{"input":14,"output":15,"interpolation":"LINEAR"},{"input":16,"output":17,"interpolation":"LINEAR"},{"input":18,"output":19,"interpolation":"LINEAR"},{"input":20,"output":21,"interpolation":"LINEAR"}],"channels":[{"sampler":0,"target":{"node":8,"path":"rotation"}},{"sampler":1,"target":{"node":8,"path":"translation"}},{"sampler":2,"target":{"node":8,"path":"scale"}},{"sampler":3,"target":{"node":5,"path":"rotation"}},{"sampler":4,"target":{"node":5,"path":"translation"}},{"sampler":5,"target":{"node":5,"path":"scale"}},{"sampler":6,"target":{"node":9,"path":"rotation"}},{"sampler":7,"target":{"node":9,"path":"translation"}},{"sampler":8,"target":{"node":1,"path":"rotation"}},{"sampler":9,"target":{"node":1,"path":"translation"}},{"sampler":10,"target":{"node":2,"path":"translation"}}]}],"bufferViews":[{"buffer":0,"byteOffset":0,"byteLength":156},{"buffer":0,"byteOffset":156,"byteLength":624},{"buffer":0,"byteOffset":780,"byteLength":152},{"buffer":0,"byteOffset":932,"byteLength":456},{"buffer":0,"byteOffset":1388,"byteLength":4},{"buffer":0,"byteOffset":1392,"byteLength":12},{"buffer":0,"byteOffset":1404,"byteLength":4},{"buffer":0,"byteOffset":1408,"byteLength":16},{"buffer":0,"byteOffset":1424,"byteLength":4},{"buffer":0,"byteOffset":1428,"byteLength":12},{"buffer":0,"byteOffset":1440,"byteLength":4},{"buffer":0,"byteOffset":1444,"byteLength":12},{"buffer":0,"byteOffset":1456,"byteLength":164},{"buffer":0,"byteOffset":1620,"byteLength":656},{"buffer":0,"byteOffset":2276,"byteLength":156},{"buffer":0,"byteOffset":2432,"byteLength":468},{"buffer":0,"byteOffset":2900,"byteLength":76},{"buffer":0,"byteOffset":2976,"byteLength":304},{"buffer":0,"byteOffset":3280,"byteLength":76},{"buffer":0,"byteOffset":3356,"byteLength":228},{"buffer":0,"byteOffset":3584,"byteLength":4},{"buffer":0,"byteOffset":3588,"byteLength":12}],"buffers":[{"byteLength":3600,"uri":"data:application/octet-stream;base64,"}],"accessors":[{"bufferView":0,"componentType":5126,"count":39,"max":[2.3499999046325684],"min":[0],"type":"SCALAR"},{"bufferView":1,"componentType":5126,"count":39,"max":[0.35546183586120605,0.6940658688545227,-0.4207855463027954,0.6596582531929016],"min":[-0.48200225830078125,0.527421236038208,-0.5989340543746948,0.42467552423477173],"type":"VEC4"},{"bufferView":2,"componentType":5126,"count":38,"max":[2.3499999046325684],"min":[0],"type":"SCALAR"},{"bufferView":3,"componentType":5126,"count":38,"max":[0.017144374549388885,0.08189807832241058,0.3952789306640625],"min":[-0.4007723033428192,-1.4598506689071655,-0.6725000143051147],"type":"VEC3"},{"bufferView":4,"componentType":5126,"count":1,"max":[0],"min":[0],"type":"SCALAR"},{"bufferView":5,"componentType":5126,"count":1,"max":[1,1.5,1],"min":[1,1.5,1],"type":"VEC3"},{"bufferView":6,"componentType":5126,"count":1,"max":[0],"min":[0],"type":"SCALAR"},{"bufferView":7,"componentType":5126,"count":1,"max":[-4.5504495898297635e-17,0.7431448101997375,-0.6691306233406067,4.09724328791237e-17],"min":[-4.5504495898297635e-17,0.7431448101997375,-0.6691306233406067,4.09724328791237e-17],"type":"VEC4"},{"bufferView":8,"componentType":5126,"count":1,"max":[0],"min":[0],"type":"SCALAR"},{"bufferView":9,"componentType":5126,"count":1,"max":[0.03125,-0.1875,0.4749999940395355],"min":[0.03125,-0.1875,0.4749999940395355],"type":"VEC3"},{"bufferView":10,"componentType":5126,"count":1,"max":[0],"min":[0],"type":"SCALAR"},{"bufferView":11,"componentType":5126,"count":1,"max":[1,1.5,1],"min":[1,1.5,1],"type":"VEC3"},{"bufferView":12,"componentType":5126,"count":41,"max":[2.450000047683716],"min":[0],"type":"SCALAR"},{"bufferView":13,"componentType":5126,"count":41,"max":[0.19414635002613068,0.04282228276133537,0.009337265975773335,1],"min":[-0.01396164856851101,-0.0019087055698037148,-0.341311514377594,0.9206146001815796],"type":"VEC4"},{"bufferView":14,"componentType":5126,"count":39,"max":[2.3499999046325684],"min":[0],"type":"SCALAR"},{"bufferView":15,"componentType":5126,"count":39,"max":[0.48990315198898315,0.5111006498336792,1.024999976158142],"min":[0.46160563826560974,0.3367256224155426,0.9837499856948853],"type":"VEC3"},{"bufferView":16,"componentType":5126,"count":19,"max":[1.5499999523162842],"min":[0],"type":"SCALAR"},{"bufferView":17,"componentType":5126,"count":19,"max":[0.19876554608345032,0.06775439530611038,0,1],"min":[-0.22605964541435242,-0.3207312524318695,-0.48066964745521545,0.7909954190254211],"type":"VEC4"},{"bufferView":18,"componentType":5126,"count":19,"max":[1.5499999523162842],"min":[0],"type":"SCALAR"},{"bufferView":19,"componentType":5126,"count":19,"max":[-0.020625000819563866,-0.0625,0.9468048214912415],"min":[-0.34708333015441895,-1.459375023841858,0.20156249403953552],"type":"VEC3"},{"bufferView":20,"componentType":5126,"count":1,"max":[0],"min":[0],"type":"SCALAR"},{"bufferView":21,"componentType":5126,"count":1,"max":[-0.03125,-0.375,2.2265625],"min":[-0.03125,-0.375,2.2265625],"type":"VEC3"}]}