{"asset":{"version":"2.0","generator":"Blockbench 4.5.2 glTF exporter"},"scenes":[{"nodes":[19],"name":"blockbench_export"}],"scene":0,"nodes":[{"translation":[0,1.0625,4.4375],"name":"camera","mesh":0},{"name":"556_bullet3"},{"name":"556_bullet4"},{"translation":[0,0.264173125,-0.18850187500000004],"name":"bullet2","children":[1,2]},{"translation":[0,-0.264173125,0.18850187500000004],"name":"magazine2","children":[3]},{"name":"556_bullet2"},{"name":"556_bullet"},{"translation":[0,0.264173125,-0.18850187500000004],"name":"bullet","children":[5,6]},{"translation":[0,-0.264173125,0.18850187500000004],"name":"magazine","children":[7]},{"name":"octagon6"},{"name":"bolt","children":[9]},{"translation":[0,0.0625,-0.5625],"name":"scar_l","children":[4,8,10]},{"translation":[0.375,-0.6875,0],"name":"RightHand"},{"translation":[-0.375,0.75,-0.5625],"name":"R","children":[12]},{"translation":[0,0,0.0625],"name":"bone","children":[11,13]},{"translation":[-0.375,-0.6875,0],"name":"LeftHand"},{"translation":[0.375,0.75,-0.5],"name":"l","children":[15]},{"translation":[0.5,0.4375,1],"name":"bone2","children":[14,16]},{"name":"bone3"},{"children":[0,17,18]}],"bufferViews":[{"buffer":0,"byteOffset":0,"byteLength":288,"target":34962,"byteStride":12},{"buffer":0,"byteOffset":288,"byteLength":288,"target":34962,"byteStride":12},{"buffer":0,"byteOffset":576,"byteLength":192,"target":34962,"byteStride":8},{"buffer":0,"byteOffset":768,"byteLength":72,"target":34963},{"buffer":0,"byteOffset":840,"byteLength":4},{"buffer":0,"byteOffset":844,"byteLength":16},{"buffer":0,"byteOffset":860,"byteLength":4},{"buffer":0,"byteOffset":864,"byteLength":12},{"buffer":0,"byteOffset":876,"byteLength":4},{"buffer":0,"byteOffset":880,"byteLength":12},{"buffer":0,"byteOffset":892,"byteLength":4},{"buffer":0,"byteOffset":896,"byteLength":16},{"buffer":0,"byteOffset":912,"byteLength":4},{"buffer":0,"byteOffset":916,"byteLength":12},{"buffer":0,"byteOffset":928,"byteLength":4},{"buffer":0,"byteOffset":932,"byteLength":12},{"buffer":0,"byteOffset":944,"byteLength":56},{"buffer":0,"byteOffset":1000,"byteLength":224},{"buffer":0,"byteOffset":1224,"byteLength":56},{"buffer":0,"byteOffset":1280,"byteLength":168}],"buffers":[{"byteLength":1448,"uri":"data:application/octet-stream;base64,"}],"accessors":[{"bufferView":0,"componentType":5126,"count":24,"max":[0.07500000298023224,0.04062499850988388,0],"min":[-0.07500000298023224,-0.04062499850988388,-0.0625],"type":"VEC3"},{"bufferView":1,"componentType":5126,"count":24,"max":[1,1,1],"min":[-1,-1,-1],"type":"VEC3"},{"bufferView":2,"componentType":5126,"count":24,"max":[1,1],"min":[0,0],"type":"VEC2"},{"bufferView":3,"componentType":5123,"count":36,"max":[23],"min":[0],"type":"SCALAR"},{"bufferView":4,"componentType":5126,"count":1,"max":[0],"min":[0],"type":"SCALAR"},{"bufferView":5,"componentType":5126,"count":1,"max":[-0.09424696117639542,0.6642719507217407,-0.5300720930099487,0.51854008436203],"min":[-0.09424696117639542,0.6642719507217407,-0.5300720930099487,0.51854008436203],"type":"VEC4"},{"bufferView":6,"componentType":5126,"count":1,"max":[0],"min":[0],"type":"SCALAR"},{"bufferView":7,"componentType":5126,"count":1,"max":[-0.08749999850988388,0.01875000074505806,-0.550000011920929],"min":[-0.08749999850988388,0.01875000074505806,-0.550000011920929],"type":"VEC3"},{"bufferView":8,"componentType":5126,"count":1,"max":[0],"min":[0],"type":"SCALAR"},{"bufferView":9,"componentType":5126,"count":1,"max":[1,1.5,1],"min":[1,1.5,1],"type":"VEC3"},{"bufferView":10,"componentType":5126,"count":1,"max":[0],"min":[0],"type":"SCALAR"},{"bufferView":11,"componentType":5126,"count":1,"max":[-4.423203734456241e-17,0.7223639488220215,-0.6915130615234375,4.234296196628321e-17],"min":[-4.423203734456241e-17,0.7223639488220215,-0.6915130615234375,4.234296196628321e-17],"type":"VEC4"},{"bufferView":12,"componentType":5126,"count":1,"max":[0],"min":[0],"type":"SCALAR"},{"bufferView":13,"componentType":5126,"count":1,"max":[0.02500000037252903,-0.125,-0.05000000074505806],"min":[0.02500000037252903,-0.125,-0.05000000074505806],"type":"VEC3"},{"bufferView":14,"componentType":5126,"count":1,"max":[0],"min":[0],"type":"SCALAR"},{"bufferView":15,"componentType":5126,"count":1,"max":[1,1.5,1],"min":[1,1.5,1],"type":"VEC3"},{"bufferView":16,"componentType":5126,"count":14,"max":[0.8500000238418579],"min":[0],"type":"SCALAR"},{"bufferView":17,"componentType":5126,"count":14,"max":[0.0007444099755957723,0.169809490442276,0.2057069092988968,1],"min":[-0.1300014853477478,-0.0006192385917529464,-0.017452405765652657,0.9549602270126343],"type":"VEC4"},{"bufferView":18,"componentType":5126,"count":14,"max":[0.800000011920929],"min":[0],"type":"SCALAR"},{"bufferView":19,"componentType":5126,"count":14,"max":[0.5,0.4375,1.100000023841858],"min":[0.4124999940395355,-0.03125,0.893750011920929],"type":"VEC3"}],"materials":[{"pbrMetallicRoughness":{"baseColorFactor":[0.28627450980392155,0.3137254901960784,0.3803921568627451,1],"metallicFactor":0,"roughnessFactor":0.9},"extensions":{"KHR_materials_unlit":{}}}],"meshes":[{"primitives":[{"mode":4,"attributes":{"POSITION":0,"NORMAL":1,"TEXCOORD_0":2},"indices":3,"material":0}]}],"animations":[{"name":"draw","samplers":[{"input":4,"output":5,"interpolation":"LINEAR"},{"input":6,"output":7,"interpolation":"LINEAR"},{"input":8,"output":9,"interpolation":"LINEAR"},{"input":10,"output":11,"interpolation":"LINEAR"},{"input":12,"output":13,"interpolation":"LINEAR"},{"input":14,"output":15,"interpolation":"LINEAR"},{"input":16,"output":17,"interpolation":"LINEAR"},{"input":18,"output":19,"interpolation":"LINEAR"}],"channels":[{"sampler":0,"target":{"node":16,"path":"rotation"}},{"sampler":1,"target":{"node":16,"path":"translation"}},{"sampler":2,"target":{"node":16,"path":"scale"}},{"sampler":3,"target":{"node":13,"path":"rotation"}},{"sampler":4,"target":{"node":13,"path":"translation"}},{"sampler":5,"target":{"node":13,"path":"scale"}},{"sampler":6,"target":{"node":17,"path":"rotation"}},{"sampler":7,"target":{"node":17,"path":"translation"}}]}],"extensionsUsed":["KHR_materials_unlit"]}