{"asset":{"version":"2.0","generator":"Blockbench 4.5.2 glTF exporter"},"scenes":[{"nodes":[19],"name":"blockbench_export"}],"scene":0,"nodes":[{"translation":[0,1.0625,4.4375],"name":"camera","mesh":0},{"name":"556_bullet3"},{"name":"556_bullet4"},{"translation":[0,0.264173125,-0.18850187500000004],"name":"bullet2","children":[1,2]},{"translation":[0,-0.264173125,0.18850187500000004],"name":"magazine2","children":[3]},{"name":"556_bullet2"},{"name":"556_bullet"},{"translation":[0,0.264173125,-0.18850187500000004],"name":"bullet","children":[5,6]},{"translation":[0,-0.264173125,0.18850187500000004],"name":"magazine","children":[7]},{"name":"octagon6"},{"name":"bolt","children":[9]},{"translation":[0,0.0625,-0.5625],"name":"scar_l","children":[4,8,10]},{"translation":[0.375,-0.6875,0],"name":"RightHand"},{"translation":[-0.375,0.75,-0.5625],"name":"R","children":[12]},{"translation":[0,0,0.0625],"name":"bone","children":[11,13]},{"translation":[-0.375,-0.6875,0],"name":"LeftHand"},{"translation":[0.375,0.75,-0.5],"name":"l","children":[15]},{"translation":[0.5,0.4375,1],"name":"bone2","children":[14,16]},{"name":"bone3"},{"children":[0,17,18]}],"bufferViews":[{"buffer":0,"byteOffset":0,"byteLength":288,"target":34962,"byteStride":12},{"buffer":0,"byteOffset":288,"byteLength":288,"target":34962,"byteStride":12},{"buffer":0,"byteOffset":576,"byteLength":192,"target":34962,"byteStride":8},{"buffer":0,"byteOffset":768,"byteLength":72,"target":34963},{"buffer":0,"byteOffset":840,"byteLength":152},{"buffer":0,"byteOffset":992,"byteLength":608},{"buffer":0,"byteOffset":1600,"byteLength":156},{"buffer":0,"byteOffset":1756,"byteLength":468},{"buffer":0,"byteOffset":2224,"byteLength":4},{"buffer":0,"byteOffset":2228,"byteLength":12},{"buffer":0,"byteOffset":2240,"byteLength":4},{"buffer":0,"byteOffset":2244,"byteLength":16},{"buffer":0,"byteOffset":2260,"byteLength":4},{"buffer":0,"byteOffset":2264,"byteLength":12},{"buffer":0,"byteOffset":2276,"byteLength":4},{"buffer":0,"byteOffset":2280,"byteLength":12},{"buffer":0,"byteOffset":2292,"byteLength":168},{"buffer":0,"byteOffset":2460,"byteLength":672},{"buffer":0,"byteOffset":3132,"byteLength":164},{"buffer":0,"byteOffset":3296,"byteLength":492},{"buffer":0,"byteOffset":3788,"byteLength":76},{"buffer":0,"byteOffset":3864,"byteLength":304},{"buffer":0,"byteOffset":4168,"byteLength":76},{"buffer":0,"byteOffset":4244,"byteLength":228},{"buffer":0,"byteOffset":4472,"byteLength":108},{"buffer":0,"byteOffset":4580,"byteLength":432},{"buffer":0,"byteOffset":5012,"byteLength":108},{"buffer":0,"byteOffset":5120,"byteLength":324},{"buffer":0,"byteOffset":5444,"byteLength":4},{"buffer":0,"byteOffset":5448,"byteLength":12}],"buffers":[{"byteLength":5460,"uri":"data:application/octet-stream;base64,"}],"accessors":[{"bufferView":0,"componentType":5126,"count":24,"max":[0.07500000298023224,0.04062499850988388,0],"min":[-0.07500000298023224,-0.04062499850988388,-0.0625],"type":"VEC3"},{"bufferView":1,"componentType":5126,"count":24,"max":[1,1,1],"min":[-1,-1,-1],"type":"VEC3"},{"bufferView":2,"componentType":5126,"count":24,"max":[1,1],"min":[0,0],"type":"VEC2"},{"bufferView":3,"componentType":5123,"count":36,"max":[23],"min":[0],"type":"SCALAR"},{"bufferView":4,"componentType":5126,"count":38,"max":[2.3499999046325684],"min":[0],"type":"SCALAR"},{"bufferView":5,"componentType":5126,"count":38,"max":[0.5620324015617371,0.8636021018028259,-0.15095122158527374,0.7197055816650391],"min":[-0.428547739982605,0.4572886526584625,-0.674120306968689,-0.05182567983865738],"type":"VEC4"},{"bufferView":6,"componentType":5126,"count":39,"max":[2.450000047683716],"min":[0],"type":"SCALAR"},{"bufferView":7,"componentType":5126,"count":39,"max":[0.023749999701976776,0.05000000074505806,1.0187499523162842],"min":[-0.48750001192092896,-1.4874999523162842,-0.5824914574623108],"type":"VEC3"},{"bufferView":8,"componentType":5126,"count":1,"max":[0],"min":[0],"type":"SCALAR"},{"bufferView":9,"componentType":5126,"count":1,"max":[1,1.5,1],"min":[1,1.5,1],"type":"VEC3"},{"bufferView":10,"componentType":5126,"count":1,"max":[0],"min":[0],"type":"SCALAR"},{"bufferView":11,"componentType":5126,"count":1,"max":[-4.423203734456241e-17,0.7223639488220215,-0.6915130615234375,4.234296196628321e-17],"min":[-4.423203734456241e-17,0.7223639488220215,-0.6915130615234375,4.234296196628321e-17],"type":"VEC4"},{"bufferView":12,"componentType":5126,"count":1,"max":[0],"min":[0],"type":"SCALAR"},{"bufferView":13,"componentType":5126,"count":1,"max":[0.02500000037252903,-0.125,-0.05000000074505806],"min":[0.02500000037252903,-0.125,-0.05000000074505806],"type":"VEC3"},{"bufferView":14,"componentType":5126,"count":1,"max":[0],"min":[0],"type":"SCALAR"},{"bufferView":15,"componentType":5126,"count":1,"max":[1,1.5,1],"min":[1,1.5,1],"type":"VEC3"},{"bufferView":16,"componentType":5126,"count":42,"max":[2.700000047683716],"min":[0],"type":"SCALAR"},{"bufferView":17,"componentType":5126,"count":42,"max":[0.24411842226982117,0.08713898807764053,0.031376149505376816,1],"min":[-0.000022563976017409004,-0.00036493982770480216,-0.35093265771865845,0.9051623940467834],"type":"VEC4"},{"bufferView":18,"componentType":5126,"count":41,"max":[2.6500000953674316],"min":[0],"type":"SCALAR"},{"bufferView":19,"componentType":5126,"count":41,"max":[0.5126171708106995,0.6193749904632568,1.1275746822357178],"min":[0.4818750023841858,0.41874998807907104,0.9556249976158142],"type":"VEC3"},{"bufferView":20,"componentType":5126,"count":19,"max":[1.899999976158142],"min":[0],"type":"SCALAR"},{"bufferView":21,"componentType":5126,"count":19,"max":[0,0.1251913458108902,0,1],"min":[-0.6386388540267944,-0.003327949671074748,-0.48862123489379883,0.7534956336021423],"type":"VEC4"},{"bufferView":22,"componentType":5126,"count":19,"max":[1.9500000476837158],"min":[0],"type":"SCALAR"},{"bufferView":23,"componentType":5126,"count":19,"max":[0.10625000298023224,-0.26417312026023865,1.5197519063949585],"min":[-0.5,-1.5016731023788452,0.06975187361240387],"type":"VEC3"},{"bufferView":24,"componentType":5126,"count":27,"max":[1.600000023841858],"min":[0],"type":"SCALAR"},{"bufferView":25,"componentType":5126,"count":27,"max":[0.45573654770851135,0.09988977015018463,0.03758686035871506,1],"min":[-0.027073336765170097,-0.07513114809989929,-0.5809853672981262,0.8131605386734009],"type":"VEC4"},{"bufferView":26,"componentType":5126,"count":27,"max":[1.600000023841858],"min":[0],"type":"SCALAR"},{"bufferView":27,"componentType":5126,"count":27,"max":[0.08749999850988388,-0.26417312026023865,1.069288969039917],"min":[-0.8062499761581421,-1.7241774797439575,0.1385018676519394],"type":"VEC3"},{"bufferView":28,"componentType":5126,"count":1,"max":[0.44999998807907104],"min":[0.44999998807907104],"type":"SCALAR"},{"bufferView":29,"componentType":5126,"count":1,"max":[0,0.26417312026023865,-0.18850187957286835],"min":[0,0.26417312026023865,-0.18850187957286835],"type":"VEC3"}],"materials":[{"pbrMetallicRoughness":{"baseColorFactor":[0.28627450980392155,0.3137254901960784,0.3803921568627451,1],"metallicFactor":0,"roughnessFactor":0.9},"extensions":{"KHR_materials_unlit":{}}}],"meshes":[{"primitives":[{"mode":4,"attributes":{"POSITION":0,"NORMAL":1,"TEXCOORD_0":2},"indices":3,"material":0}]}],"animations":[{"name":"reload_norm","samplers":[{"input":4,"output":5,"interpolation":"LINEAR"},{"input":6,"output":7,"interpolation":"LINEAR"},{"input":8,"output":9,"interpolation":"LINEAR"},{"input":10,"output":11,"interpolation":"LINEAR"},{"input":12,"output":13,"interpolation":"LINEAR"},{"input":14,"output":15,"interpolation":"LINEAR"},{"input":16,"output":17,"interpolation":"LINEAR"},{"input":18,"output":19,"interpolation":"LINEAR"},{"input":20,"output":21,"interpolation":"LINEAR"},{"input":22,"output":23,"interpolation":"LINEAR"},{"input":24,"output":25,"interpolation":"LINEAR"},{"input":26,"output":27,"interpolation":"LINEAR"},{"input":28,"output":29,"interpolation":"LINEAR"}],"channels":[{"sampler":0,"target":{"node":16,"path":"rotation"}},{"sampler":1,"target":{"node":16,"path":"translation"}},{"sampler":2,"target":{"node":16,"path":"scale"}},{"sampler":3,"target":{"node":13,"path":"rotation"}},{"sampler":4,"target":{"node":13,"path":"translation"}},{"sampler":5,"target":{"node":13,"path":"scale"}},{"sampler":6,"target":{"node":17,"path":"rotation"}},{"sampler":7,"target":{"node":17,"path":"translation"}},{"sampler":8,"target":{"node":8,"path":"rotation"}},{"sampler":9,"target":{"node":8,"path":"translation"}},{"sampler":10,"target":{"node":4,"path":"rotation"}},{"sampler":11,"target":{"node":4,"path":"translation"}},{"sampler":12,"target":{"node":3,"path":"translation"}}]}],"extensionsUsed":["KHR_materials_unlit"]}