{"asset":{"version":"2.0","generator":"Blockbench 4.5.2 glTF exporter"},"scenes":[{"nodes":[10],"name":"blockbench_export"}],"scene":0,"nodes":[{"name":"bolt"},{"translation":[-0.03125,-0.0625,0.2265625],"name":"default_mag"},{"translation":[-0.03125,-0.0625,0.2265625],"name":"default_mag2"},{"name":"scar_h","children":[0,1,2]},{"translation":[0.375,-0.6875,0],"name":"RightHand"},{"translation":[-0.375,0.6875,0],"name":"R","children":[4]},{"translation":[0.010894375000000012,0.12452437500000002,-0.5],"name":"bone","children":[3,5]},{"translation":[-0.375,-0.6875,0],"name":"LeftHand"},{"translation":[0.385894375,0.812024375,-0.5],"name":"l","children":[7]},{"translation":[0.489105625,0.375475625,1],"name":"bone2","children":[6,8]},{"children":[9]}],"animations":[{"name":"inspect","samplers":[{"input":0,"output":1,"interpolation":"LINEAR"},{"input":2,"output":3,"interpolation":"LINEAR"},{"input":4,"output":5,"interpolation":"LINEAR"},{"input":6,"output":7,"interpolation":"LINEAR"},{"input":8,"output":9,"interpolation":"LINEAR"},{"input":10,"output":11,"interpolation":"LINEAR"},{"input":12,"output":13,"interpolation":"LINEAR"},{"input":14,"output":15,"interpolation":"LINEAR"}],"channels":[{"sampler":0,"target":{"node":8,"path":"rotation"}},{"sampler":1,"target":{"node":8,"path":"translation"}},{"sampler":2,"target":{"node":8,"path":"scale"}},{"sampler":3,"target":{"node":5,"path":"rotation"}},{"sampler":4,"target":{"node":5,"path":"translation"}},{"sampler":5,"target":{"node":5,"path":"scale"}},{"sampler":6,"target":{"node":9,"path":"rotation"}},{"sampler":7,"target":{"node":9,"path":"translation"}}]}],"bufferViews":[{"buffer":0,"byteOffset":0,"byteLength":276},{"buffer":0,"byteOffset":276,"byteLength":1104},{"buffer":0,"byteOffset":1380,"byteLength":200},{"buffer":0,"byteOffset":1580,"byteLength":600},{"buffer":0,"byteOffset":2180,"byteLength":4},{"buffer":0,"byteOffset":2184,"byteLength":12},{"buffer":0,"byteOffset":2196,"byteLength":4},{"buffer":0,"byteOffset":2200,"byteLength":16},{"buffer":0,"byteOffset":2216,"byteLength":4},{"buffer":0,"byteOffset":2220,"byteLength":12},{"buffer":0,"byteOffset":2232,"byteLength":4},{"buffer":0,"byteOffset":2236,"byteLength":12},{"buffer":0,"byteOffset":2248,"byteLength":284},{"buffer":0,"byteOffset":2532,"byteLength":1136},{"buffer":0,"byteOffset":3668,"byteLength":300},{"buffer":0,"byteOffset":3968,"byteLength":900}],"buffers":[{"byteLength":4868,"uri":"data:application/octet-stream;base64,"}],"accessors":[{"bufferView":0,"componentType":5126,"count":69,"max":[4.25],"min":[0],"type":"SCALAR"},{"bufferView":1,"componentType":5126,"count":69,"max":[0.11526820063591003,0.8372921347618103,-0.4772223234176636,0.5473142862319946],"min":[-0.12941685318946838,0.5897354483604431,-0.7958465218544006,0.07726449519395828],"type":"VEC4"},{"bufferView":2,"componentType":5126,"count":50,"max":[4.25],"min":[0],"type":"SCALAR"},{"bufferView":3,"componentType":5126,"count":50,"max":[-0.070355623960495,0.2663993835449219,0.027380995452404022],"min":[-0.8741145730018616,-1.3930855989456177,-0.9435906410217285],"type":"VEC3"},{"bufferView":4,"componentType":5126,"count":1,"max":[0],"min":[0],"type":"SCALAR"},{"bufferView":5,"componentType":5126,"count":1,"max":[1,1.5,1],"min":[1,1.5,1],"type":"VEC3"},{"bufferView":6,"componentType":5126,"count":1,"max":[0],"min":[0],"type":"SCALAR"},{"bufferView":7,"componentType":5126,"count":1,"max":[-4.5504495898297635e-17,0.7431448101997375,-0.6691306233406067,4.09724328791237e-17],"min":[-4.5504495898297635e-17,0.7431448101997375,-0.6691306233406067,4.09724328791237e-17],"type":"VEC4"},{"bufferView":8,"componentType":5126,"count":1,"max":[0],"min":[0],"type":"SCALAR"},{"bufferView":9,"componentType":5126,"count":1,"max":[0.03125,-0.1875,0.4749999940395355],"min":[0.03125,-0.1875,0.4749999940395355],"type":"VEC3"},{"bufferView":10,"componentType":5126,"count":1,"max":[0],"min":[0],"type":"SCALAR"},{"bufferView":11,"componentType":5126,"count":1,"max":[1,1.5,1],"min":[1,1.5,1],"type":"VEC3"},{"bufferView":12,"componentType":5126,"count":71,"max":[4.599999904632568],"min":[0],"type":"SCALAR"},{"bufferView":13,"componentType":5126,"count":71,"max":[0.2250898778438568,0.05422573536634445,0.5866196751594543,1],"min":[-0.020762240514159203,-0.0012734312331303954,-0.2442224621772766,0.7775838971138],"type":"VEC4"},{"bufferView":14,"componentType":5126,"count":75,"max":[4.550000190734863],"min":[0],"type":"SCALAR"},{"bufferView":15,"componentType":5126,"count":75,"max":[0.5671560168266296,0.41297563910484314,1.0187499523162842],"min":[0.43891850113868713,0.34969979524612427,0.8968750238418579],"type":"VEC3"}]}