{"asset":{"version":"2.0","generator":"Blockbench 4.2.4 glTF exporter"},"scenes":[{"nodes":[10],"name":"blockbench_export"}],"scene":0,"nodes":[{"translation":[0.375,-0.6875,0],"name":"RightHand"},{"translation":[-0.375,0.7875,-0.16249999999999998],"name":"R","children":[0]},{"translation":[-0.03515625,0.22109375,-0.5023437500000001],"name":"bolt2"},{"translation":[0,-0.16875,-0.6625000000000001],"name":"magazine2"},{"translation":[0,-0.18750000000000003,0.5000000000000001],"name":"sks_tactical","children":[2,3]},{"translation":[0,0,-0.4375000000000001],"name":"bone","children":[1,4]},{"translation":[-0.375,-0.6875,0],"name":"LeftHand"},{"translation":[0.375,0.7875,-0.6000000000000001],"name":"l","children":[6]},{"translation":[0.5,0.4,1.1],"name":"bone2","children":[5,7]},{"translation":[0.375,0.5875,1.44375],"name":"camera"},{"children":[8,9]}],"animations":[{"name":"reload_norm","samplers":[{"input":0,"output":1,"interpolation":"LINEAR"},{"input":2,"output":3,"interpolation":"LINEAR"},{"input":4,"output":5,"interpolation":"LINEAR"},{"input":6,"output":7,"interpolation":"LINEAR"},{"input":8,"output":9,"interpolation":"LINEAR"},{"input":10,"output":11,"interpolation":"LINEAR"},{"input":12,"output":13,"interpolation":"LINEAR"},{"input":14,"output":15,"interpolation":"LINEAR"},{"input":16,"output":17,"interpolation":"LINEAR"},{"input":18,"output":19,"interpolation":"LINEAR"},{"input":20,"output":21,"interpolation":"LINEAR"},{"input":22,"output":23,"interpolation":"LINEAR"},{"input":24,"output":25,"interpolation":"LINEAR"},{"input":26,"output":27,"interpolation":"LINEAR"},{"input":28,"output":29,"interpolation":"LINEAR"}],"channels":[{"sampler":0,"target":{"node":7,"path":"rotation"}},{"sampler":1,"target":{"node":7,"path":"translation"}},{"sampler":2,"target":{"node":7,"path":"scale"}},{"sampler":3,"target":{"node":1,"path":"rotation"}},{"sampler":4,"target":{"node":1,"path":"translation"}},{"sampler":5,"target":{"node":1,"path":"scale"}},{"sampler":6,"target":{"node":8,"path":"rotation"}},{"sampler":7,"target":{"node":8,"path":"translation"}},{"sampler":8,"target":{"node":5,"path":"rotation"}},{"sampler":9,"target":{"node":5,"path":"translation"}},{"sampler":10,"target":{"node":3,"path":"rotation"}},{"sampler":11,"target":{"node":3,"path":"translation"}},{"sampler":12,"target":{"node":4,"path":"rotation"}},{"sampler":13,"target":{"node":4,"path":"translation"}},{"sampler":14,"target":{"node":9,"path":"rotation"}}]}],"bufferViews":[{"buffer":0,"byteOffset":0,"byteLength":132},{"buffer":0,"byteOffset":132,"byteLength":528},{"buffer":0,"byteOffset":660,"byteLength":140},{"buffer":0,"byteOffset":800,"byteLength":420},{"buffer":0,"byteOffset":1220,"byteLength":4},{"buffer":0,"byteOffset":1224,"byteLength":12},{"buffer":0,"byteOffset":1236,"byteLength":4},{"buffer":0,"byteOffset":1240,"byteLength":16},{"buffer":0,"byteOffset":1256,"byteLength":4},{"buffer":0,"byteOffset":1260,"byteLength":12},{"buffer":0,"byteOffset":1272,"byteLength":4},{"buffer":0,"byteOffset":1276,"byteLength":12},{"buffer":0,"byteOffset":1288,"byteLength":144},{"buffer":0,"byteOffset":1432,"byteLength":576},{"buffer":0,"byteOffset":2008,"byteLength":168},{"buffer":0,"byteOffset":2176,"byteLength":504},{"buffer":0,"byteOffset":2680,"byteLength":156},{"buffer":0,"byteOffset":2836,"byteLength":624},{"buffer":0,"byteOffset":3460,"byteLength":156},{"buffer":0,"byteOffset":3616,"byteLength":468},{"buffer":0,"byteOffset":4084,"byteLength":100},{"buffer":0,"byteOffset":4184,"byteLength":400},{"buffer":0,"byteOffset":4584,"byteLength":100},{"buffer":0,"byteOffset":4684,"byteLength":300},{"buffer":0,"byteOffset":4984,"byteLength":20},{"buffer":0,"byteOffset":5004,"byteLength":80},{"buffer":0,"byteOffset":5084,"byteLength":4},{"buffer":0,"byteOffset":5088,"byteLength":12},{"buffer":0,"byteOffset":5100,"byteLength":156},{"buffer":0,"byteOffset":5256,"byteLength":624}],"buffers":[{"byteLength":5880,"uri":"data:application/octet-stream;base64,"}],"accessors":[{"bufferView":0,"componentType":5126,"count":33,"max":[2.0999999046325684],"min":[0],"type":"SCALAR"},{"bufferView":1,"componentType":5126,"count":33,"max":[0.4478606879711151,0.8844286203384399,-0.27793088555336,0.5033795237541199],"min":[-0.16235341131687164,0.6618477702140808,-0.6455691456794739,-0.20025688409805298],"type":"VEC4"},{"bufferView":2,"componentType":5126,"count":35,"max":[2.0999999046325684],"min":[0],"type":"SCALAR"},{"bufferView":3,"componentType":5126,"count":35,"max":[-0.06875000149011612,-0.15000000596046448,-0.041317619383335114],"min":[-0.699770450592041,-1.1266447305679321,-1.0750000476837158],"type":"VEC3"},{"bufferView":4,"componentType":5126,"count":1,"max":[0],"min":[0],"type":"SCALAR"},{"bufferView":5,"componentType":5126,"count":1,"max":[1,1.5,1],"min":[1,1.5,1],"type":"VEC3"},{"bufferView":6,"componentType":5126,"count":1,"max":[0],"min":[0],"type":"SCALAR"},{"bufferView":7,"componentType":5126,"count":1,"max":[-4.478249957243685e-17,0.7313537001609802,-0.6819983720779419,4.176035549980496e-17],"min":[-4.478249957243685e-17,0.7313537001609802,-0.6819983720779419,4.176035549980496e-17],"type":"VEC4"},{"bufferView":8,"componentType":5126,"count":1,"max":[0],"min":[0],"type":"SCALAR"},{"bufferView":9,"componentType":5126,"count":1,"max":[0.03125,-0.2750000059604645,0.4375],"min":[0.03125,-0.2750000059604645,0.4375],"type":"VEC3"},{"bufferView":10,"componentType":5126,"count":1,"max":[0],"min":[0],"type":"SCALAR"},{"bufferView":11,"componentType":5126,"count":1,"max":[1,1.5,1],"min":[1,1.5,1],"type":"VEC3"},{"bufferView":12,"componentType":5126,"count":36,"max":[2.3499999046325684],"min":[0],"type":"SCALAR"},{"bufferView":13,"componentType":5126,"count":36,"max":[0.03061400167644024,0.019341813400387764,0.047978129237890244,1],"min":[-0.031206825748085976,-0.007580054458230734,-0.08470368385314941,0.9959611296653748],"type":"VEC4"},{"bufferView":14,"componentType":5126,"count":42,"max":[2.4000000953674316],"min":[0],"type":"SCALAR"},{"bufferView":15,"componentType":5126,"count":42,"max":[0.5131250023841858,0.43828123807907104,1.1038671731948853],"min":[0.47437500953674316,0.375,1.0437500476837158],"type":"VEC3"},{"bufferView":16,"componentType":5126,"count":39,"max":[2.299999952316284],"min":[0],"type":"SCALAR"},{"bufferView":17,"componentType":5126,"count":39,"max":[0.08074881881475449,0.051890455186367035,0,1],"min":[0,0,-0.22386839985847473,0.9710299372673035],"type":"VEC4"},{"bufferView":18,"componentType":5126,"count":39,"max":[2.299999952316284],"min":[0],"type":"SCALAR"},{"bufferView":19,"componentType":5126,"count":39,"max":[0.05042866989970207,0.03750000149011612,-0.42500001192092896],"min":[0,-0.02500000037252903,-0.44999998807907104],"type":"VEC3"},{"bufferView":20,"componentType":5126,"count":25,"max":[1.7000000476837158],"min":[0],"type":"SCALAR"},{"bufferView":21,"componentType":5126,"count":25,"max":[0.3373861312866211,0.0426349975168705,0.003827599575743079,1],"min":[0,-0.01913226768374443,-0.21375958621501923,0.9395461082458496],"type":"VEC4"},{"bufferView":22,"componentType":5126,"count":25,"max":[1.7000000476837158],"min":[0],"type":"SCALAR"},{"bufferView":23,"componentType":5126,"count":25,"max":[0,-0.15312500298023224,0.00937500037252903],"min":[-0.30937498807907104,-1.084375023841858,-0.9181249737739563],"type":"VEC3"},{"bufferView":24,"componentType":5126,"count":5,"max":[2],"min":[1.600000023841858],"type":"SCALAR"},{"bufferView":25,"componentType":5126,"count":5,"max":[0.017451779916882515,0.00007613880734425038,0.008725198917090893,1],"min":[0,-0.00015231869474519044,-0.00872622337192297,0.9998096227645874],"type":"VEC4"},{"bufferView":26,"componentType":5126,"count":1,"max":[1.600000023841858],"min":[1.600000023841858],"type":"SCALAR"},{"bufferView":27,"componentType":5126,"count":1,"max":[0,-0.1875,0.5],"min":[0,-0.1875,0.5],"type":"VEC3"},{"bufferView":28,"componentType":5126,"count":39,"max":[2.299999952316284],"min":[0],"type":"SCALAR"},{"bufferView":29,"componentType":5126,"count":39,"max":[0.00012636586325243115,0.006416192278265953,0.017451368272304535,1],"min":[-0.014687610790133476,-0.0003476027923170477,-0.006604836322367191,0.999788224697113],"type":"VEC4"}]}