{"asset":{"version":"2.0","generator":"Blockbench 4.2.4 glTF exporter"},"scenes":[{"nodes":[10],"name":"blockbench_export"}],"scene":0,"nodes":[{"translation":[0.375,-0.6875,0],"name":"RightHand"},{"translation":[-0.375,0.7875,-0.16249999999999998],"name":"R","children":[0]},{"translation":[-0.03515625,0.22109375,-0.5023437500000001],"name":"bolt2"},{"translation":[0,-0.16875,-0.6625000000000001],"name":"magazine2"},{"translation":[0,-0.18750000000000003,0.5000000000000001],"name":"sks_tactical","children":[2,3]},{"translation":[0,0,-0.4375000000000001],"name":"bone","children":[1,4]},{"translation":[-0.375,-0.6875,0],"name":"LeftHand"},{"translation":[0.375,0.7875,-0.6000000000000001],"name":"l","children":[6]},{"translation":[0.5,0.4,1.1],"name":"bone2","children":[5,7]},{"translation":[0.375,0.5875,1.44375],"name":"camera"},{"children":[8,9]}],"animations":[{"name":"inspect","samplers":[{"input":0,"output":1,"interpolation":"LINEAR"},{"input":2,"output":3,"interpolation":"LINEAR"},{"input":4,"output":5,"interpolation":"LINEAR"},{"input":6,"output":7,"interpolation":"LINEAR"},{"input":8,"output":9,"interpolation":"LINEAR"},{"input":10,"output":11,"interpolation":"LINEAR"},{"input":12,"output":13,"interpolation":"LINEAR"},{"input":14,"output":15,"interpolation":"LINEAR"},{"input":16,"output":17,"interpolation":"LINEAR"},{"input":18,"output":19,"interpolation":"LINEAR"},{"input":20,"output":21,"interpolation":"LINEAR"}],"channels":[{"sampler":0,"target":{"node":7,"path":"rotation"}},{"sampler":1,"target":{"node":7,"path":"translation"}},{"sampler":2,"target":{"node":7,"path":"scale"}},{"sampler":3,"target":{"node":1,"path":"rotation"}},{"sampler":4,"target":{"node":1,"path":"translation"}},{"sampler":5,"target":{"node":1,"path":"scale"}},{"sampler":6,"target":{"node":8,"path":"rotation"}},{"sampler":7,"target":{"node":8,"path":"translation"}},{"sampler":8,"target":{"node":5,"path":"rotation"}},{"sampler":9,"target":{"node":5,"path":"translation"}},{"sampler":10,"target":{"node":9,"path":"rotation"}}]}],"bufferViews":[{"buffer":0,"byteOffset":0,"byteLength":244},{"buffer":0,"byteOffset":244,"byteLength":976},{"buffer":0,"byteOffset":1220,"byteLength":244},{"buffer":0,"byteOffset":1464,"byteLength":732},{"buffer":0,"byteOffset":2196,"byteLength":4},{"buffer":0,"byteOffset":2200,"byteLength":12},{"buffer":0,"byteOffset":2212,"byteLength":4},{"buffer":0,"byteOffset":2216,"byteLength":16},{"buffer":0,"byteOffset":2232,"byteLength":4},{"buffer":0,"byteOffset":2236,"byteLength":12},{"buffer":0,"byteOffset":2248,"byteLength":4},{"buffer":0,"byteOffset":2252,"byteLength":12},{"buffer":0,"byteOffset":2264,"byteLength":348},{"buffer":0,"byteOffset":2612,"byteLength":1392},{"buffer":0,"byteOffset":4004,"byteLength":364},{"buffer":0,"byteOffset":4368,"byteLength":1092},{"buffer":0,"byteOffset":5460,"byteLength":332},{"buffer":0,"byteOffset":5792,"byteLength":1328},{"buffer":0,"byteOffset":7120,"byteLength":212},{"buffer":0,"byteOffset":7332,"byteLength":636},{"buffer":0,"byteOffset":7968,"byteLength":340},{"buffer":0,"byteOffset":8308,"byteLength":1360}],"buffers":[{"byteLength":9668,"uri":"data:application/octet-stream;base64,"}],"accessors":[{"bufferView":0,"componentType":5126,"count":61,"max":[5.199999809265137],"min":[0],"type":"SCALAR"},{"bufferView":1,"componentType":5126,"count":61,"max":[0.15973666310310364,0.6722685694694519,-0.5010873675346375,0.5489693880081177],"min":[-0.1573682576417923,0.5779121518135071,-0.6774507761001587,0.3575940728187561],"type":"VEC4"},{"bufferView":2,"componentType":5126,"count":61,"max":[5.199999809265137],"min":[0],"type":"SCALAR"},{"bufferView":3,"componentType":5126,"count":61,"max":[-0.04140625149011612,-0.10972221940755844,-0.49019843339920044],"min":[-0.9578078985214233,-1.6664546728134155,-1.1023437976837158],"type":"VEC3"},{"bufferView":4,"componentType":5126,"count":1,"max":[0],"min":[0],"type":"SCALAR"},{"bufferView":5,"componentType":5126,"count":1,"max":[1,1.5,1],"min":[1,1.5,1],"type":"VEC3"},{"bufferView":6,"componentType":5126,"count":1,"max":[0],"min":[0],"type":"SCALAR"},{"bufferView":7,"componentType":5126,"count":1,"max":[-4.478249957243685e-17,0.7313537001609802,-0.6819983720779419,4.176035549980496e-17],"min":[-4.478249957243685e-17,0.7313537001609802,-0.6819983720779419,4.176035549980496e-17],"type":"VEC4"},{"bufferView":8,"componentType":5126,"count":1,"max":[0],"min":[0],"type":"SCALAR"},{"bufferView":9,"componentType":5126,"count":1,"max":[0.03125,-0.2750000059604645,0.4375],"min":[0.03125,-0.2750000059604645,0.4375],"type":"VEC3"},{"bufferView":10,"componentType":5126,"count":1,"max":[0],"min":[0],"type":"SCALAR"},{"bufferView":11,"componentType":5126,"count":1,"max":[1,1.5,1],"min":[1,1.5,1],"type":"VEC3"},{"bufferView":12,"componentType":5126,"count":87,"max":[5.449999809265137],"min":[0],"type":"SCALAR"},{"bufferView":13,"componentType":5126,"count":87,"max":[0.19238872826099396,0.002138773910701275,0.0916149914264679,1],"min":[-0.047978129237890244,-0.007324732840061188,-0.030176149681210518,0.9813153743743896],"type":"VEC4"},{"bufferView":14,"componentType":5126,"count":91,"max":[5.449999809265137],"min":[0],"type":"SCALAR"},{"bufferView":15,"componentType":5126,"count":91,"max":[0.5200944542884827,0.4050000011920929,1.1586098670959473],"min":[0.4986707866191864,0.33125001192092896,0.96875],"type":"VEC3"},{"bufferView":16,"componentType":5126,"count":83,"max":[5.050000190734863],"min":[0],"type":"SCALAR"},{"bufferView":17,"componentType":5126,"count":83,"max":[0.021185344085097313,0.0019406866049394011,0.4613751471042633,1],"min":[0,-0.03412863612174988,-0.32137730717658997,0.8863424062728882],"type":"VEC4"},{"bufferView":18,"componentType":5126,"count":53,"max":[5.050000190734863],"min":[0],"type":"SCALAR"},{"bufferView":19,"componentType":5126,"count":53,"max":[0.09375,0.03125,-0.33125001192092896],"min":[-0.012500000186264515,-0.0011552640935406089,-0.4378906190395355],"type":"VEC3"},{"bufferView":20,"componentType":5126,"count":85,"max":[5.199999809265137],"min":[0],"type":"SCALAR"},{"bufferView":21,"componentType":5126,"count":85,"max":[0.011951588094234467,0.0007901973440311849,0.025613633915781975,1],"min":[-0.10532528162002563,-0.062320776283741,-0.0010100790532305837,0.9925815463066101],"type":"VEC4"}]}