{"asset":{"version":"2.0","generator":"Blockbench 4.2.4 glTF exporter"},"scenes":[{"nodes":[10],"name":"blockbench_export"}],"scene":0,"nodes":[{"translation":[0.375,-0.6875,0],"name":"RightHand"},{"translation":[-0.375,0.7875,-0.16249999999999998],"name":"R","children":[0]},{"translation":[-0.03515625,0.22109375,-0.5023437500000001],"name":"bolt2"},{"translation":[0,-0.16875,-0.6625000000000001],"name":"magazine2"},{"translation":[0,-0.18750000000000003,0.5000000000000001],"name":"sks_tactical","children":[2,3]},{"translation":[0,0,-0.4375000000000001],"name":"bone","children":[1,4]},{"translation":[-0.375,-0.6875,0],"name":"LeftHand"},{"translation":[0.375,0.7875,-0.6000000000000001],"name":"l","children":[6]},{"translation":[0.5,0.4,1.1],"name":"bone2","children":[5,7]},{"translation":[0.375,0.5875,1.44375],"name":"camera"},{"children":[8,9]}],"animations":[{"name":"draw","samplers":[{"input":0,"output":1,"interpolation":"LINEAR"},{"input":2,"output":3,"interpolation":"LINEAR"},{"input":4,"output":5,"interpolation":"LINEAR"},{"input":6,"output":7,"interpolation":"LINEAR"},{"input":8,"output":9,"interpolation":"LINEAR"},{"input":10,"output":11,"interpolation":"LINEAR"},{"input":12,"output":13,"interpolation":"LINEAR"},{"input":14,"output":15,"interpolation":"LINEAR"},{"input":16,"output":17,"interpolation":"LINEAR"},{"input":18,"output":19,"interpolation":"LINEAR"},{"input":20,"output":21,"interpolation":"LINEAR"}],"channels":[{"sampler":0,"target":{"node":7,"path":"rotation"}},{"sampler":1,"target":{"node":7,"path":"translation"}},{"sampler":2,"target":{"node":7,"path":"scale"}},{"sampler":3,"target":{"node":1,"path":"rotation"}},{"sampler":4,"target":{"node":1,"path":"translation"}},{"sampler":5,"target":{"node":1,"path":"scale"}},{"sampler":6,"target":{"node":8,"path":"rotation"}},{"sampler":7,"target":{"node":8,"path":"translation"}},{"sampler":8,"target":{"node":5,"path":"rotation"}},{"sampler":9,"target":{"node":5,"path":"translation"}},{"sampler":10,"target":{"node":9,"path":"rotation"}}]}],"bufferViews":[{"buffer":0,"byteOffset":0,"byteLength":36},{"buffer":0,"byteOffset":36,"byteLength":144},{"buffer":0,"byteOffset":180,"byteLength":32},{"buffer":0,"byteOffset":212,"byteLength":96},{"buffer":0,"byteOffset":308,"byteLength":4},{"buffer":0,"byteOffset":312,"byteLength":12},{"buffer":0,"byteOffset":324,"byteLength":4},{"buffer":0,"byteOffset":328,"byteLength":16},{"buffer":0,"byteOffset":344,"byteLength":4},{"buffer":0,"byteOffset":348,"byteLength":12},{"buffer":0,"byteOffset":360,"byteLength":4},{"buffer":0,"byteOffset":364,"byteLength":12},{"buffer":0,"byteOffset":376,"byteLength":52},{"buffer":0,"byteOffset":428,"byteLength":208},{"buffer":0,"byteOffset":636,"byteLength":52},{"buffer":0,"byteOffset":688,"byteLength":156},{"buffer":0,"byteOffset":844,"byteLength":4},{"buffer":0,"byteOffset":848,"byteLength":16},{"buffer":0,"byteOffset":864,"byteLength":4},{"buffer":0,"byteOffset":868,"byteLength":12},{"buffer":0,"byteOffset":880,"byteLength":48},{"buffer":0,"byteOffset":928,"byteLength":192}],"buffers":[{"byteLength":1120,"uri":"data:application/octet-stream;base64,"}],"accessors":[{"bufferView":0,"componentType":5126,"count":9,"max":[0.5],"min":[0],"type":"SCALAR"},{"bufferView":1,"componentType":5126,"count":9,"max":[-0.011614082381129265,0.6787146329879761,-0.5118154287338257,0.6250649094581604],"min":[-0.1674308031797409,0.5082207322120667,-0.5923433899879456,0.49100542068481445],"type":"VEC4"},{"bufferView":2,"componentType":5126,"count":8,"max":[0.4000000059604645],"min":[0],"type":"SCALAR"},{"bufferView":3,"componentType":5126,"count":8,"max":[0.00937500037252903,-0.15000000596046448,-1.0750000476837158],"min":[-0.06875000149011612,-0.19687500596046448,-1.0750000476837158],"type":"VEC3"},{"bufferView":4,"componentType":5126,"count":1,"max":[0],"min":[0],"type":"SCALAR"},{"bufferView":5,"componentType":5126,"count":1,"max":[1,1.5,1],"min":[1,1.5,1],"type":"VEC3"},{"bufferView":6,"componentType":5126,"count":1,"max":[0],"min":[0],"type":"SCALAR"},{"bufferView":7,"componentType":5126,"count":1,"max":[-4.478249957243685e-17,0.7313537001609802,-0.6819983720779419,4.176035549980496e-17],"min":[-4.478249957243685e-17,0.7313537001609802,-0.6819983720779419,4.176035549980496e-17],"type":"VEC4"},{"bufferView":8,"componentType":5126,"count":1,"max":[0],"min":[0],"type":"SCALAR"},{"bufferView":9,"componentType":5126,"count":1,"max":[0.03125,-0.2750000059604645,0.4375],"min":[0.03125,-0.2750000059604645,0.4375],"type":"VEC3"},{"bufferView":10,"componentType":5126,"count":1,"max":[0],"min":[0],"type":"SCALAR"},{"bufferView":11,"componentType":5126,"count":1,"max":[1,1.5,1],"min":[1,1.5,1],"type":"VEC3"},{"bufferView":12,"componentType":5126,"count":13,"max":[0.800000011920929],"min":[0],"type":"SCALAR"},{"bufferView":13,"componentType":5126,"count":13,"max":[0.0005762733053416014,0.26363682746887207,0.4587271511554718,1],"min":[-0.1446361094713211,-0.009630744345486164,-0.034479301422834396,0.8361491560935974],"type":"VEC4"},{"bufferView":14,"componentType":5126,"count":13,"max":[0.800000011920929],"min":[0],"type":"SCALAR"},{"bufferView":15,"componentType":5126,"count":13,"max":[0.5137500166893005,0.4000000059604645,1.225000023841858],"min":[0.49687498807907104,-0.10000000149011612,1.006250023841858],"type":"VEC3"},{"bufferView":16,"componentType":5126,"count":1,"max":[0],"min":[0],"type":"SCALAR"},{"bufferView":17,"componentType":5126,"count":1,"max":[0,0,0,1],"min":[0,0,0,1],"type":"VEC4"},{"bufferView":18,"componentType":5126,"count":1,"max":[0],"min":[0],"type":"SCALAR"},{"bufferView":19,"componentType":5126,"count":1,"max":[0,0,-0.4375],"min":[0,0,-0.4375],"type":"VEC3"},{"bufferView":20,"componentType":5126,"count":12,"max":[0.699999988079071],"min":[0],"type":"SCALAR"},{"bufferView":21,"componentType":5126,"count":12,"max":[0.0005455078207887709,1.4647527279976202e-7,0.006546712480485439,1],"min":[-0.008727495558559895,-0.0000951902475208044,-0.0065449378453195095,0.9999404549598694],"type":"VEC4"}]}