{"asset":{"version":"2.0","generator":"Blockbench 4.2.4 glTF exporter"},"scenes":[{"nodes":[10],"name":"blockbench_export"}],"scene":0,"nodes":[{"translation":[0.375,-0.6875,0],"name":"RightHand"},{"translation":[-0.375,0.7875,-0.16249999999999998],"name":"R","children":[0]},{"translation":[-0.03515625,0.22109375,-0.5023437500000001],"name":"bolt2"},{"translation":[0,-0.16875,-0.6625000000000001],"name":"magazine2"},{"translation":[0,-0.18750000000000003,0.5000000000000001],"name":"sks_tactical","children":[2,3]},{"translation":[0,0,-0.4375000000000001],"name":"bone","children":[1,4]},{"translation":[-0.375,-0.6875,0],"name":"LeftHand"},{"translation":[0.375,0.7875,-0.6000000000000001],"name":"l","children":[6]},{"translation":[0.5,0.4,1.1],"name":"bone2","children":[5,7]},{"translation":[0.375,0.5875,1.44375],"name":"camera"},{"children":[8,9]}],"animations":[{"name":"reload_empty","samplers":[{"input":0,"output":1,"interpolation":"LINEAR"},{"input":2,"output":3,"interpolation":"LINEAR"},{"input":4,"output":5,"interpolation":"LINEAR"},{"input":6,"output":7,"interpolation":"LINEAR"},{"input":8,"output":9,"interpolation":"LINEAR"},{"input":10,"output":11,"interpolation":"LINEAR"},{"input":12,"output":13,"interpolation":"LINEAR"},{"input":14,"output":15,"interpolation":"LINEAR"},{"input":16,"output":17,"interpolation":"LINEAR"},{"input":18,"output":19,"interpolation":"LINEAR"},{"input":20,"output":21,"interpolation":"LINEAR"},{"input":22,"output":23,"interpolation":"LINEAR"},{"input":24,"output":25,"interpolation":"LINEAR"},{"input":26,"output":27,"interpolation":"LINEAR"}],"channels":[{"sampler":0,"target":{"node":7,"path":"rotation"}},{"sampler":1,"target":{"node":7,"path":"translation"}},{"sampler":2,"target":{"node":7,"path":"scale"}},{"sampler":3,"target":{"node":1,"path":"rotation"}},{"sampler":4,"target":{"node":1,"path":"translation"}},{"sampler":5,"target":{"node":1,"path":"scale"}},{"sampler":6,"target":{"node":8,"path":"rotation"}},{"sampler":7,"target":{"node":8,"path":"translation"}},{"sampler":8,"target":{"node":5,"path":"rotation"}},{"sampler":9,"target":{"node":5,"path":"translation"}},{"sampler":10,"target":{"node":2,"path":"translation"}},{"sampler":11,"target":{"node":3,"path":"rotation"}},{"sampler":12,"target":{"node":3,"path":"translation"}},{"sampler":13,"target":{"node":9,"path":"rotation"}}]}],"bufferViews":[{"buffer":0,"byteOffset":0,"byteLength":208},{"buffer":0,"byteOffset":208,"byteLength":832},{"buffer":0,"byteOffset":1040,"byteLength":88},{"buffer":0,"byteOffset":1128,"byteLength":264},{"buffer":0,"byteOffset":1392,"byteLength":4},{"buffer":0,"byteOffset":1396,"byteLength":12},{"buffer":0,"byteOffset":1408,"byteLength":168},{"buffer":0,"byteOffset":1576,"byteLength":672},{"buffer":0,"byteOffset":2248,"byteLength":172},{"buffer":0,"byteOffset":2420,"byteLength":516},{"buffer":0,"byteOffset":2936,"byteLength":4},{"buffer":0,"byteOffset":2940,"byteLength":12},{"buffer":0,"byteOffset":2952,"byteLength":216},{"buffer":0,"byteOffset":3168,"byteLength":864},{"buffer":0,"byteOffset":4032,"byteLength":216},{"buffer":0,"byteOffset":4248,"byteLength":648},{"buffer":0,"byteOffset":4896,"byteLength":188},{"buffer":0,"byteOffset":5084,"byteLength":752},{"buffer":0,"byteOffset":5836,"byteLength":48},{"buffer":0,"byteOffset":5884,"byteLength":144},{"buffer":0,"byteOffset":6028,"byteLength":196},{"buffer":0,"byteOffset":6224,"byteLength":588},{"buffer":0,"byteOffset":6812,"byteLength":108},{"buffer":0,"byteOffset":6920,"byteLength":432},{"buffer":0,"byteOffset":7352,"byteLength":116},{"buffer":0,"byteOffset":7468,"byteLength":348},{"buffer":0,"byteOffset":7816,"byteLength":196},{"buffer":0,"byteOffset":8012,"byteLength":784}],"buffers":[{"byteLength":8796,"uri":"data:application/octet-stream;base64,"}],"accessors":[{"bufferView":0,"componentType":5126,"count":52,"max":[2.950000047683716],"min":[0],"type":"SCALAR"},{"bufferView":1,"componentType":5126,"count":52,"max":[0.11617071181535721,0.6671850085258484,-0.5191695690155029,0.6687958836555481],"min":[-0.1526741236448288,0.3606790602207184,-0.6681981682777405,0.494456022977829],"type":"VEC4"},{"bufferView":2,"componentType":5126,"count":22,"max":[2.950000047683716],"min":[0],"type":"SCALAR"},{"bufferView":3,"componentType":5126,"count":22,"max":[-0.015625,-0.11249999701976776,-0.887499988079071],"min":[-0.10335937142372131,-0.20000000298023224,-1.0750000476837158],"type":"VEC3"},{"bufferView":4,"componentType":5126,"count":1,"max":[0],"min":[0],"type":"SCALAR"},{"bufferView":5,"componentType":5126,"count":1,"max":[1,1.5,1],"min":[1,1.5,1],"type":"VEC3"},{"bufferView":6,"componentType":5126,"count":42,"max":[2.9000000953674316],"min":[0],"type":"SCALAR"},{"bufferView":7,"componentType":5126,"count":42,"max":[0.3829914331436157,0.9136625528335571,-0.25093722343444824,0.26523491740226746],"min":[-0.5491040945053101,0.4462958872318268,-0.759842038154602,-0.7144529223442078],"type":"VEC4"},{"bufferView":8,"componentType":5126,"count":43,"max":[2.9000000953674316],"min":[0],"type":"SCALAR"},{"bufferView":9,"componentType":5126,"count":43,"max":[0.25687500834465027,0.012500000186264515,0.965624988079071],"min":[-0.4937500059604645,-2.700000047683716,-0.328125],"type":"VEC3"},{"bufferView":10,"componentType":5126,"count":1,"max":[0],"min":[0],"type":"SCALAR"},{"bufferView":11,"componentType":5126,"count":1,"max":[1,1.5,1],"min":[1,1.5,1],"type":"VEC3"},{"bufferView":12,"componentType":5126,"count":54,"max":[3.200000047683716],"min":[0],"type":"SCALAR"},{"bufferView":13,"componentType":5126,"count":54,"max":[0.253851056098938,0.002764021046459675,0.49746274948120117,1],"min":[-0.010904718190431595,-0.08550845831632614,-0.008723565377295017,0.8335059285163879],"type":"VEC4"},{"bufferView":14,"componentType":5126,"count":54,"max":[3.25],"min":[0],"type":"SCALAR"},{"bufferView":15,"componentType":5126,"count":54,"max":[0.5,0.40625,1.1687500476837158],"min":[0.4293749928474426,0.12687499821186066,1.0031249523162842],"type":"VEC3"},{"bufferView":16,"componentType":5126,"count":47,"max":[3.200000047683716],"min":[0],"type":"SCALAR"},{"bufferView":17,"componentType":5126,"count":47,"max":[0.02615199238061905,0.006025286391377449,0.09107153862714767,1],"min":[-0.002488788915798068,-0.06689073890447617,-0.09068136662244797,0.9958369731903076],"type":"VEC4"},{"bufferView":18,"componentType":5126,"count":12,"max":[2.950000047683716],"min":[0],"type":"SCALAR"},{"bufferView":19,"componentType":5126,"count":12,"max":[0,0,-0.4312500059604645],"min":[0,-0.012500000186264515,-0.4375],"type":"VEC3"},{"bufferView":20,"componentType":5126,"count":49,"max":[2.5999999046325684],"min":[0],"type":"SCALAR"},{"bufferView":21,"componentType":5126,"count":49,"max":[-0.03515625,0.22109374403953552,-0.21484375],"min":[-0.03515625,0.22109374403953552,-0.5023437738418579],"type":"VEC3"},{"bufferView":22,"componentType":5126,"count":27,"max":[2],"min":[0],"type":"SCALAR"},{"bufferView":23,"componentType":5126,"count":27,"max":[0.9995813965797424,0.13041646778583527,0.20639966428279877,1],"min":[-0.1403382271528244,-0.07846493273973465,-0.0512557290494442,-0.28788620233535767],"type":"VEC4"},{"bufferView":24,"componentType":5126,"count":29,"max":[2],"min":[0],"type":"SCALAR"},{"bufferView":25,"componentType":5126,"count":29,"max":[0.13516396284103394,-0.16875000298023224,-0.2957499921321869],"min":[-1.5627331733703613,-3.9437263011932373,-1.194346308708191],"type":"VEC3"},{"bufferView":26,"componentType":5126,"count":49,"max":[3.1500000953674316],"min":[0],"type":"SCALAR"},{"bufferView":27,"componentType":5126,"count":49,"max":[0,0.0008703420171514153,0.016128284856677055,1],"min":[-0.019121190533041954,-0.019896170124411583,-0.018220828846096992,0.9995588064193726],"type":"VEC4"}]}