{"asset":{"version":"2.0","generator":"Blockbench 4.2.4 glTF exporter"},"scenes":[{"nodes":[13],"name":"blockbench_export"}],"scene":0,"nodes":[{"translation":[0.3125,0.875,1.5625],"name":"bone3"},{"translation":[-0.02734375,0.21875,0.73046875],"name":"pull"},{"translation":[0,0.125,-0.5625],"name":"SPR","children":[1]},{"translation":[0,0.007813124999999976,-0.34668],"name":"mb2"},{"translation":[-0.5,-0.382813125,-0.71582],"name":"bullet2"},{"translation":[0,0.007813124999999976,-0.34668],"name":"mb","children":[4]},{"name":"spr_","children":[2,3,5]},{"translation":[0.375,-0.6875,0],"name":"RightHand"},{"translation":[-0.375,0.8125,-0.5625],"name":"R2","children":[7]},{"name":"bone","children":[6,8]},{"translation":[-0.375,-0.6875,0],"name":"LeftHand"},{"translation":[0.375,0.8125,-0.5625],"name":"l2","children":[10]},{"translation":[0.5,0.375,1.0625],"name":"bone2","children":[9,11]},{"children":[0,12]}],"animations":[{"name":"reload_norm","samplers":[{"input":0,"output":1,"interpolation":"LINEAR"},{"input":2,"output":3,"interpolation":"LINEAR"},{"input":4,"output":5,"interpolation":"LINEAR"},{"input":6,"output":7,"interpolation":"LINEAR"},{"input":8,"output":9,"interpolation":"LINEAR"},{"input":10,"output":11,"interpolation":"LINEAR"},{"input":12,"output":13,"interpolation":"LINEAR"},{"input":14,"output":15,"interpolation":"LINEAR"},{"input":16,"output":17,"interpolation":"LINEAR"},{"input":18,"output":19,"interpolation":"LINEAR"},{"input":20,"output":21,"interpolation":"LINEAR"},{"input":22,"output":23,"interpolation":"LINEAR"},{"input":24,"output":25,"interpolation":"LINEAR"},{"input":26,"output":27,"interpolation":"LINEAR"}],"channels":[{"sampler":0,"target":{"node":8,"path":"rotation"}},{"sampler":1,"target":{"node":8,"path":"translation"}},{"sampler":2,"target":{"node":8,"path":"scale"}},{"sampler":3,"target":{"node":11,"path":"rotation"}},{"sampler":4,"target":{"node":11,"path":"translation"}},{"sampler":5,"target":{"node":11,"path":"scale"}},{"sampler":6,"target":{"node":12,"path":"rotation"}},{"sampler":7,"target":{"node":12,"path":"translation"}},{"sampler":8,"target":{"node":5,"path":"rotation"}},{"sampler":9,"target":{"node":5,"path":"translation"}},{"sampler":10,"target":{"node":3,"path":"rotation"}},{"sampler":11,"target":{"node":3,"path":"translation"}},{"sampler":12,"target":{"node":4,"path":"translation"}},{"sampler":13,"target":{"node":0,"path":"rotation"}}]}],"bufferViews":[{"buffer":0,"byteOffset":0,"byteLength":4},{"buffer":0,"byteOffset":4,"byteLength":16},{"buffer":0,"byteOffset":20,"byteLength":4},{"buffer":0,"byteOffset":24,"byteLength":12},{"buffer":0,"byteOffset":36,"byteLength":4},{"buffer":0,"byteOffset":40,"byteLength":12},{"buffer":0,"byteOffset":52,"byteLength":152},{"buffer":0,"byteOffset":204,"byteLength":608},{"buffer":0,"byteOffset":812,"byteLength":136},{"buffer":0,"byteOffset":948,"byteLength":408},{"buffer":0,"byteOffset":1356,"byteLength":4},{"buffer":0,"byteOffset":1360,"byteLength":12},{"buffer":0,"byteOffset":1372,"byteLength":164},{"buffer":0,"byteOffset":1536,"byteLength":656},{"buffer":0,"byteOffset":2192,"byteLength":168},{"buffer":0,"byteOffset":2360,"byteLength":504},{"buffer":0,"byteOffset":2864,"byteLength":72},{"buffer":0,"byteOffset":2936,"byteLength":288},{"buffer":0,"byteOffset":3224,"byteLength":68},{"buffer":0,"byteOffset":3292,"byteLength":204},{"buffer":0,"byteOffset":3496,"byteLength":72},{"buffer":0,"byteOffset":3568,"byteLength":288},{"buffer":0,"byteOffset":3856,"byteLength":76},{"buffer":0,"byteOffset":3932,"byteLength":228},{"buffer":0,"byteOffset":4160,"byteLength":4},{"buffer":0,"byteOffset":4164,"byteLength":12},{"buffer":0,"byteOffset":4176,"byteLength":168},{"buffer":0,"byteOffset":4344,"byteLength":672}],"buffers":[{"byteLength":5016,"uri":"data:application/octet-stream;base64,"}],"accessors":[{"bufferView":0,"componentType":5126,"count":1,"max":[0],"min":[0],"type":"SCALAR"},{"bufferView":1,"componentType":5126,"count":1,"max":[0.02357778325676918,-0.7368282079696655,0.6751786470413208,-0.02573060803115368],"min":[0.02357778325676918,-0.7368282079696655,0.6751786470413208,-0.02573060803115368],"type":"VEC4"},{"bufferView":2,"componentType":5126,"count":1,"max":[0],"min":[0],"type":"SCALAR"},{"bufferView":3,"componentType":5126,"count":1,"max":[0.03125,-0.05000000074505806,-0.04374999925494194],"min":[0.03125,-0.05000000074505806,-0.04374999925494194],"type":"VEC3"},{"bufferView":4,"componentType":5126,"count":1,"max":[0],"min":[0],"type":"SCALAR"},{"bufferView":5,"componentType":5126,"count":1,"max":[1,1.5,1],"min":[1,1.5,1],"type":"VEC3"},{"bufferView":6,"componentType":5126,"count":38,"max":[2.200000047683716],"min":[0],"type":"SCALAR"},{"bufferView":7,"componentType":5126,"count":38,"max":[0.47626885771751404,0.8706620931625366,-0.42998409271240234,0.44462302327156067],"min":[-0.15247908234596252,0.6618756651878357,-0.7466034889221191,-0.2849561274051666],"type":"VEC4"},{"bufferView":8,"componentType":5126,"count":34,"max":[2.200000047683716],"min":[0],"type":"SCALAR"},{"bufferView":9,"componentType":5126,"count":34,"max":[0.004999999888241291,0.11249999701976776,0.6217148900032043],"min":[-0.7361903786659241,-1.6171966791152954,-0.8812500238418579],"type":"VEC3"},{"bufferView":10,"componentType":5126,"count":1,"max":[0],"min":[0],"type":"SCALAR"},{"bufferView":11,"componentType":5126,"count":1,"max":[1,1.5,1],"min":[1,1.5,1],"type":"VEC3"},{"bufferView":12,"componentType":5126,"count":41,"max":[2.6500000953674316],"min":[0],"type":"SCALAR"},{"bufferView":13,"componentType":5126,"count":41,"max":[0.27235111594200134,0.15364453196525574,0.030539415776729584,1],"min":[0,0,-0.4421692192554474,0.8481499552726746],"type":"VEC4"},{"bufferView":14,"componentType":5126,"count":42,"max":[2.5999999046325684],"min":[0],"type":"SCALAR"},{"bufferView":15,"componentType":5126,"count":42,"max":[0.5,0.4375,1.118749976158142],"min":[0.38799625635147095,0.34812501072883606,0.9993749856948853],"type":"VEC3"},{"bufferView":16,"componentType":5126,"count":18,"max":[1.850000023841858],"min":[0],"type":"SCALAR"},{"bufferView":17,"componentType":5126,"count":18,"max":[0.017452405765652657,0.0873885452747345,0.004015824291855097,1],"min":[-0.5260004997253418,-0.16694357991218567,-0.781710147857666,0.5299637317657471],"type":"VEC4"},{"bufferView":18,"componentType":5126,"count":17,"max":[1.850000023841858],"min":[0],"type":"SCALAR"},{"bufferView":19,"componentType":5126,"count":17,"max":[0.10499999672174454,0.007813124917447567,0.22832000255584717],"min":[-0.3125,-0.9359368681907654,-0.39105498790740967],"type":"VEC3"},{"bufferView":20,"componentType":5126,"count":18,"max":[1.5],"min":[0],"type":"SCALAR"},{"bufferView":21,"componentType":5126,"count":18,"max":[0.334150493144989,0.034834641963243484,0.06753455102443695,1],"min":[-0.011040466837584972,-0.0730544701218605,-0.1968912035226822,0.9421647787094116],"type":"VEC4"},{"bufferView":22,"componentType":5126,"count":19,"max":[1.5],"min":[0],"type":"SCALAR"},{"bufferView":23,"componentType":5126,"count":19,"max":[0,0.08882874995470047,0.56667560338974],"min":[-0.6246606111526489,-1.4143749475479126,-0.3466799855232239],"type":"VEC3"},{"bufferView":24,"componentType":5126,"count":1,"max":[0],"min":[0],"type":"SCALAR"},{"bufferView":25,"componentType":5126,"count":1,"max":[-0.5,-0.32031312584877014,-0.7158200144767761],"min":[-0.5,-0.32031312584877014,-0.7158200144767761],"type":"VEC3"},{"bufferView":26,"componentType":5126,"count":42,"max":[2.549999952316284],"min":[0],"type":"SCALAR"},{"bufferView":27,"componentType":5126,"count":42,"max":[0.002617990830913186,0.0016828844090923667,0.03349928930401802,1],"min":[-0.020774515345692635,-0.007300497964024544,-0.006478837225586176,0.9992436170578003],"type":"VEC4"}]}