{"asset":{"version":"2.0","generator":"Blockbench 4.2.4 glTF exporter"},"scenes":[{"nodes":[13],"name":"blockbench_export"}],"scene":0,"nodes":[{"translation":[0.3125,0.875,1.5625],"name":"bone3"},{"translation":[-0.02734375,0.21875,0.73046875],"name":"pull"},{"translation":[0,0.125,-0.5625],"name":"SPR","children":[1]},{"translation":[0,0.007813124999999976,-0.34668],"name":"mb2"},{"translation":[-0.5,-0.382813125,-0.71582],"name":"bullet2"},{"translation":[0,0.007813124999999976,-0.34668],"name":"mb","children":[4]},{"name":"spr_","children":[2,3,5]},{"translation":[0.375,-0.6875,0],"name":"RightHand"},{"translation":[-0.375,0.8125,-0.5625],"name":"R2","children":[7]},{"name":"bone","children":[6,8]},{"translation":[-0.375,-0.6875,0],"name":"LeftHand"},{"translation":[0.375,0.8125,-0.5625],"name":"l2","children":[10]},{"translation":[0.5,0.375,1.0625],"name":"bone2","children":[9,11]},{"children":[0,12]}],"animations":[{"name":"draw","samplers":[{"input":0,"output":1,"interpolation":"LINEAR"},{"input":2,"output":3,"interpolation":"LINEAR"},{"input":4,"output":5,"interpolation":"LINEAR"},{"input":6,"output":7,"interpolation":"LINEAR"},{"input":8,"output":9,"interpolation":"LINEAR"},{"input":10,"output":11,"interpolation":"LINEAR"},{"input":12,"output":13,"interpolation":"LINEAR"},{"input":14,"output":15,"interpolation":"LINEAR"}],"channels":[{"sampler":0,"target":{"node":8,"path":"rotation"}},{"sampler":1,"target":{"node":8,"path":"translation"}},{"sampler":2,"target":{"node":8,"path":"scale"}},{"sampler":3,"target":{"node":11,"path":"rotation"}},{"sampler":4,"target":{"node":11,"path":"translation"}},{"sampler":5,"target":{"node":11,"path":"scale"}},{"sampler":6,"target":{"node":12,"path":"rotation"}},{"sampler":7,"target":{"node":12,"path":"translation"}}]}],"bufferViews":[{"buffer":0,"byteOffset":0,"byteLength":4},{"buffer":0,"byteOffset":4,"byteLength":16},{"buffer":0,"byteOffset":20,"byteLength":4},{"buffer":0,"byteOffset":24,"byteLength":12},{"buffer":0,"byteOffset":36,"byteLength":4},{"buffer":0,"byteOffset":40,"byteLength":12},{"buffer":0,"byteOffset":52,"byteLength":4},{"buffer":0,"byteOffset":56,"byteLength":16},{"buffer":0,"byteOffset":72,"byteLength":4},{"buffer":0,"byteOffset":76,"byteLength":12},{"buffer":0,"byteOffset":88,"byteLength":4},{"buffer":0,"byteOffset":92,"byteLength":12},{"buffer":0,"byteOffset":104,"byteLength":52},{"buffer":0,"byteOffset":156,"byteLength":208},{"buffer":0,"byteOffset":364,"byteLength":44},{"buffer":0,"byteOffset":408,"byteLength":132}],"buffers":[{"byteLength":540,"uri":"data:application/octet-stream;base64,"}],"accessors":[{"bufferView":0,"componentType":5126,"count":1,"max":[0],"min":[0],"type":"SCALAR"},{"bufferView":1,"componentType":5126,"count":1,"max":[0.02357778325676918,-0.7368282079696655,0.6751786470413208,-0.02573060803115368],"min":[0.02357778325676918,-0.7368282079696655,0.6751786470413208,-0.02573060803115368],"type":"VEC4"},{"bufferView":2,"componentType":5126,"count":1,"max":[0],"min":[0],"type":"SCALAR"},{"bufferView":3,"componentType":5126,"count":1,"max":[0.03125,-0.05000000074505806,-0.04374999925494194],"min":[0.03125,-0.05000000074505806,-0.04374999925494194],"type":"VEC3"},{"bufferView":4,"componentType":5126,"count":1,"max":[0],"min":[0],"type":"SCALAR"},{"bufferView":5,"componentType":5126,"count":1,"max":[1,1.5,1],"min":[1,1.5,1],"type":"VEC3"},{"bufferView":6,"componentType":5126,"count":1,"max":[0],"min":[0],"type":"SCALAR"},{"bufferView":7,"componentType":5126,"count":1,"max":[-0.15247908234596252,0.681479811668396,-0.5609329342842102,0.44462302327156067],"min":[-0.15247908234596252,0.681479811668396,-0.5609329342842102,0.44462302327156067],"type":"VEC4"},{"bufferView":8,"componentType":5126,"count":1,"max":[0],"min":[0],"type":"SCALAR"},{"bufferView":9,"componentType":5126,"count":1,"max":[-0.09375,0.11249999701976776,-0.8812500238418579],"min":[-0.09375,0.11249999701976776,-0.8812500238418579],"type":"VEC3"},{"bufferView":10,"componentType":5126,"count":1,"max":[0],"min":[0],"type":"SCALAR"},{"bufferView":11,"componentType":5126,"count":1,"max":[1,1.5,1],"min":[1,1.5,1],"type":"VEC3"},{"bufferView":12,"componentType":5126,"count":13,"max":[0.75],"min":[0],"type":"SCALAR"},{"bufferView":13,"componentType":5126,"count":13,"max":[0.00015600524784531444,0.3766167461872101,0.3941556215286255,1],"min":[-0.14940835535526276,-0.0006095947464928031,-0.010907676070928574,0.8249111175537109],"type":"VEC4"},{"bufferView":14,"componentType":5126,"count":11,"max":[0.699999988079071],"min":[0],"type":"SCALAR"},{"bufferView":15,"componentType":5126,"count":11,"max":[0.5393750071525574,0.375,1.0625],"min":[0.49687498807907104,-0.2581250071525574,0.8812500238418579],"type":"VEC3"}]}