{"asset":{"version":"2.0","generator":"Blockbench 4.2.4 glTF exporter"},"scenes":[{"nodes":[13],"name":"blockbench_export"}],"scene":0,"nodes":[{"translation":[0.3125,0.875,1.5625],"name":"bone3"},{"translation":[-0.02734375,0.21875,0.73046875],"name":"pull"},{"translation":[0,0.125,-0.5625],"name":"SPR","children":[1]},{"translation":[0,0.007813124999999976,-0.34668],"name":"mb2"},{"translation":[-0.5,-0.382813125,-0.71582],"name":"bullet2"},{"translation":[0,0.007813124999999976,-0.34668],"name":"mb","children":[4]},{"name":"spr_","children":[2,3,5]},{"translation":[0.375,-0.6875,0],"name":"RightHand"},{"translation":[-0.375,0.8125,-0.5625],"name":"R2","children":[7]},{"name":"bone","children":[6,8]},{"translation":[-0.375,-0.6875,0],"name":"LeftHand"},{"translation":[0.375,0.8125,-0.5625],"name":"l2","children":[10]},{"translation":[0.5,0.375,1.0625],"name":"bone2","children":[9,11]},{"children":[0,12]}],"animations":[{"name":"reload_empty","samplers":[{"input":0,"output":1,"interpolation":"LINEAR"},{"input":2,"output":3,"interpolation":"LINEAR"},{"input":4,"output":5,"interpolation":"LINEAR"},{"input":6,"output":7,"interpolation":"LINEAR"},{"input":8,"output":9,"interpolation":"LINEAR"},{"input":10,"output":11,"interpolation":"LINEAR"},{"input":12,"output":13,"interpolation":"LINEAR"},{"input":14,"output":15,"interpolation":"LINEAR"},{"input":16,"output":17,"interpolation":"LINEAR"},{"input":18,"output":19,"interpolation":"LINEAR"},{"input":20,"output":21,"interpolation":"LINEAR"},{"input":22,"output":23,"interpolation":"LINEAR"},{"input":24,"output":25,"interpolation":"LINEAR"}],"channels":[{"sampler":0,"target":{"node":8,"path":"rotation"}},{"sampler":1,"target":{"node":8,"path":"translation"}},{"sampler":2,"target":{"node":8,"path":"scale"}},{"sampler":3,"target":{"node":11,"path":"rotation"}},{"sampler":4,"target":{"node":11,"path":"translation"}},{"sampler":5,"target":{"node":11,"path":"scale"}},{"sampler":6,"target":{"node":12,"path":"rotation"}},{"sampler":7,"target":{"node":12,"path":"translation"}},{"sampler":8,"target":{"node":1,"path":"translation"}},{"sampler":9,"target":{"node":3,"path":"translation"}},{"sampler":10,"target":{"node":5,"path":"rotation"}},{"sampler":11,"target":{"node":5,"path":"translation"}},{"sampler":12,"target":{"node":4,"path":"translation"}}]}],"bufferViews":[{"buffer":0,"byteOffset":0,"byteLength":4},{"buffer":0,"byteOffset":4,"byteLength":16},{"buffer":0,"byteOffset":20,"byteLength":4},{"buffer":0,"byteOffset":24,"byteLength":12},{"buffer":0,"byteOffset":36,"byteLength":4},{"buffer":0,"byteOffset":40,"byteLength":12},{"buffer":0,"byteOffset":52,"byteLength":64},{"buffer":0,"byteOffset":116,"byteLength":256},{"buffer":0,"byteOffset":372,"byteLength":92},{"buffer":0,"byteOffset":464,"byteLength":276},{"buffer":0,"byteOffset":740,"byteLength":4},{"buffer":0,"byteOffset":744,"byteLength":12},{"buffer":0,"byteOffset":756,"byteLength":192},{"buffer":0,"byteOffset":948,"byteLength":768},{"buffer":0,"byteOffset":1716,"byteLength":172},{"buffer":0,"byteOffset":1888,"byteLength":516},{"buffer":0,"byteOffset":2404,"byteLength":20},{"buffer":0,"byteOffset":2424,"byteLength":60},{"buffer":0,"byteOffset":2484,"byteLength":4},{"buffer":0,"byteOffset":2488,"byteLength":12},{"buffer":0,"byteOffset":2500,"byteLength":52},{"buffer":0,"byteOffset":2552,"byteLength":208},{"buffer":0,"byteOffset":2760,"byteLength":52},{"buffer":0,"byteOffset":2812,"byteLength":156},{"buffer":0,"byteOffset":2968,"byteLength":8},{"buffer":0,"byteOffset":2976,"byteLength":24}],"buffers":[{"byteLength":3000,"uri":"data:application/octet-stream;base64,"}],"accessors":[{"bufferView":0,"componentType":5126,"count":1,"max":[0],"min":[0],"type":"SCALAR"},{"bufferView":1,"componentType":5126,"count":1,"max":[0.02357778325676918,-0.7368282079696655,0.6751786470413208,-0.02573060803115368],"min":[0.02357778325676918,-0.7368282079696655,0.6751786470413208,-0.02573060803115368],"type":"VEC4"},{"bufferView":2,"componentType":5126,"count":1,"max":[0],"min":[0],"type":"SCALAR"},{"bufferView":3,"componentType":5126,"count":1,"max":[0.03125,-0.05000000074505806,-0.04374999925494194],"min":[0.03125,-0.05000000074505806,-0.04374999925494194],"type":"VEC3"},{"bufferView":4,"componentType":5126,"count":1,"max":[0],"min":[0],"type":"SCALAR"},{"bufferView":5,"componentType":5126,"count":1,"max":[1,1.5,1],"min":[1,1.5,1],"type":"VEC3"},{"bufferView":6,"componentType":5126,"count":16,"max":[2.5999999046325684],"min":[0],"type":"SCALAR"},{"bufferView":7,"componentType":5126,"count":16,"max":[0.7523756623268127,0.7801896929740906,-0.04408816993236542,0.618441104888916],"min":[-0.4277988076210022,0.42678722739219666,-0.6573817133903503,-0.28519266843795776],"type":"VEC4"},{"bufferView":8,"componentType":5126,"count":23,"max":[2.5999999046325684],"min":[0],"type":"SCALAR"},{"bufferView":9,"componentType":5126,"count":23,"max":[0.21907250583171844,0.22069312632083893,0.390625],"min":[-1.2937500476837158,-2.418750047683716,-0.8812500238418579],"type":"VEC3"},{"bufferView":10,"componentType":5126,"count":1,"max":[0],"min":[0],"type":"SCALAR"},{"bufferView":11,"componentType":5126,"count":1,"max":[1,1.5,1],"min":[1,1.5,1],"type":"VEC3"},{"bufferView":12,"componentType":5126,"count":48,"max":[2.950000047683716],"min":[0],"type":"SCALAR"},{"bufferView":13,"componentType":5126,"count":48,"max":[0.20044894516468048,0.10057736188173294,0.41978204250335693,1],"min":[-0.00571040203794837,-0.008420429192483425,-0.4058133661746979,0.8986332416534424],"type":"VEC4"},{"bufferView":14,"componentType":5126,"count":43,"max":[2.950000047683716],"min":[0],"type":"SCALAR"},{"bufferView":15,"componentType":5126,"count":43,"max":[0.6749776601791382,0.46281251311302185,1.0750000476837158],"min":[0.3963874280452728,0.33125001192092896,0.9312499761581421],"type":"VEC3"},{"bufferView":16,"componentType":5126,"count":5,"max":[2.4000000953674316],"min":[2.0999999046325684],"type":"SCALAR"},{"bufferView":17,"componentType":5126,"count":5,"max":[-0.02734375,0.21875,1.017968773841858],"min":[-0.02734375,0.21875,0.73046875],"type":"VEC3"},{"bufferView":18,"componentType":5126,"count":1,"max":[0],"min":[0],"type":"SCALAR"},{"bufferView":19,"componentType":5126,"count":1,"max":[0,-0.8671869039535522,1.2158199548721313],"min":[0,-0.8671869039535522,1.2158199548721313],"type":"VEC3"},{"bufferView":20,"componentType":5126,"count":13,"max":[1.350000023841858],"min":[0],"type":"SCALAR"},{"bufferView":21,"componentType":5126,"count":13,"max":[0.050738103687763214,0.09763974696397781,0.014572983607649803,1],"min":[-0.10308931767940521,-0.057795945554971695,-0.9849838018417358,-0.9655687212944031],"type":"VEC4"},{"bufferView":22,"componentType":5126,"count":13,"max":[1.350000023841858],"min":[0],"type":"SCALAR"},{"bufferView":23,"componentType":5126,"count":13,"max":[0.006859375163912773,0.007813124917447567,-0.2616818845272064],"min":[-1.243749976158142,-2.2546868324279785,-0.3466799855232239],"type":"VEC3"},{"bufferView":24,"componentType":5126,"count":2,"max":[0.800000011920929],"min":[0],"type":"SCALAR"},{"bufferView":25,"componentType":5126,"count":2,"max":[-0.5,-0.32031312584877014,-0.7158200144767761],"min":[-0.5,-0.38281312584877014,-0.7158200144767761],"type":"VEC3"}]}