{"asset":{"version":"2.0","generator":"Blockbench 4.2.4 glTF exporter"},"scenes":[{"nodes":[13],"name":"blockbench_export"}],"scene":0,"nodes":[{"translation":[0.3125,0.875,1.5625],"name":"bone3"},{"translation":[-0.02734375,0.21875,0.73046875],"name":"pull"},{"translation":[0,0.125,-0.5625],"name":"SPR","children":[1]},{"translation":[0,0.007813124999999976,-0.34668],"name":"mb2"},{"translation":[-0.5,-0.382813125,-0.71582],"name":"bullet2"},{"translation":[0,0.007813124999999976,-0.34668],"name":"mb","children":[4]},{"name":"spr_","children":[2,3,5]},{"translation":[0.375,-0.6875,0],"name":"RightHand"},{"translation":[-0.375,0.8125,-0.5625],"name":"R2","children":[7]},{"name":"bone","children":[6,8]},{"translation":[-0.375,-0.6875,0],"name":"LeftHand"},{"translation":[0.375,0.8125,-0.5625],"name":"l2","children":[10]},{"translation":[0.5,0.375,1.0625],"name":"bone2","children":[9,11]},{"children":[0,12]}],"animations":[{"name":"inspect","samplers":[{"input":0,"output":1,"interpolation":"LINEAR"},{"input":2,"output":3,"interpolation":"LINEAR"},{"input":4,"output":5,"interpolation":"LINEAR"},{"input":6,"output":7,"interpolation":"LINEAR"},{"input":8,"output":9,"interpolation":"LINEAR"},{"input":10,"output":11,"interpolation":"LINEAR"},{"input":12,"output":13,"interpolation":"LINEAR"},{"input":14,"output":15,"interpolation":"LINEAR"}],"channels":[{"sampler":0,"target":{"node":8,"path":"rotation"}},{"sampler":1,"target":{"node":8,"path":"translation"}},{"sampler":2,"target":{"node":8,"path":"scale"}},{"sampler":3,"target":{"node":11,"path":"rotation"}},{"sampler":4,"target":{"node":11,"path":"translation"}},{"sampler":5,"target":{"node":11,"path":"scale"}},{"sampler":6,"target":{"node":12,"path":"rotation"}},{"sampler":7,"target":{"node":12,"path":"translation"}}]}],"bufferViews":[{"buffer":0,"byteOffset":0,"byteLength":4},{"buffer":0,"byteOffset":4,"byteLength":16},{"buffer":0,"byteOffset":20,"byteLength":4},{"buffer":0,"byteOffset":24,"byteLength":12},{"buffer":0,"byteOffset":36,"byteLength":4},{"buffer":0,"byteOffset":40,"byteLength":12},{"buffer":0,"byteOffset":52,"byteLength":232},{"buffer":0,"byteOffset":284,"byteLength":928},{"buffer":0,"byteOffset":1212,"byteLength":84},{"buffer":0,"byteOffset":1296,"byteLength":252},{"buffer":0,"byteOffset":1548,"byteLength":4},{"buffer":0,"byteOffset":1552,"byteLength":12},{"buffer":0,"byteOffset":1564,"byteLength":476},{"buffer":0,"byteOffset":2040,"byteLength":1904},{"buffer":0,"byteOffset":3944,"byteLength":300},{"buffer":0,"byteOffset":4244,"byteLength":900}],"buffers":[{"byteLength":5144,"uri":"data:application/octet-stream;base64,"}],"accessors":[{"bufferView":0,"componentType":5126,"count":1,"max":[0],"min":[0],"type":"SCALAR"},{"bufferView":1,"componentType":5126,"count":1,"max":[0.02357778325676918,-0.7368282079696655,0.6751786470413208,-0.02573060803115368],"min":[0.02357778325676918,-0.7368282079696655,0.6751786470413208,-0.02573060803115368],"type":"VEC4"},{"bufferView":2,"componentType":5126,"count":1,"max":[0],"min":[0],"type":"SCALAR"},{"bufferView":3,"componentType":5126,"count":1,"max":[0.03125,-0.05000000074505806,-0.04374999925494194],"min":[0.03125,-0.05000000074505806,-0.04374999925494194],"type":"VEC3"},{"bufferView":4,"componentType":5126,"count":1,"max":[0],"min":[0],"type":"SCALAR"},{"bufferView":5,"componentType":5126,"count":1,"max":[1,1.5,1],"min":[1,1.5,1],"type":"VEC3"},{"bufferView":6,"componentType":5126,"count":58,"max":[6.25],"min":[0],"type":"SCALAR"},{"bufferView":7,"componentType":5126,"count":58,"max":[0.3573695719242096,0.7189701199531555,-0.2578694820404053,0.7117735743522644],"min":[-0.16184605658054352,0.5400274395942688,-0.7549018263816833,0.10382954776287079],"type":"VEC4"},{"bufferView":8,"componentType":5126,"count":21,"max":[6.25],"min":[0],"type":"SCALAR"},{"bufferView":9,"componentType":5126,"count":21,"max":[-0.04374999925494194,0.26875001192092896,-0.6875],"min":[-0.16875000298023224,-0.004323130939155817,-0.956250011920929],"type":"VEC3"},{"bufferView":10,"componentType":5126,"count":1,"max":[0],"min":[0],"type":"SCALAR"},{"bufferView":11,"componentType":5126,"count":1,"max":[1,1.5,1],"min":[1,1.5,1],"type":"VEC3"},{"bufferView":12,"componentType":5126,"count":119,"max":[6.699999809265137],"min":[0],"type":"SCALAR"},{"bufferView":13,"componentType":5126,"count":119,"max":[0.31569811701774597,0.45746541023254395,0.6324988007545471,1],"min":[-0.010847194120287895,-0.0065449378453195095,-0.2401771992444992,0.7009284496307373],"type":"VEC4"},{"bufferView":14,"componentType":5126,"count":75,"max":[6.75],"min":[0],"type":"SCALAR"},{"bufferView":15,"componentType":5126,"count":75,"max":[0.5478658080101013,0.6187499761581421,1.0812499523162842],"min":[0.4749999940395355,0.359375,0.981249988079071],"type":"VEC3"}]}