{"asset":{"version":"2.0","generator":"Blockbench 4.5.2 glTF exporter"},"scenes":[{"nodes":[10],"name":"blockbench_export"}],"scene":0,"nodes":[{"translation":[0.078125,-0.8125,0.375],"name":"magazine2"},{"name":"slide"},{"name":"main","children":[1]},{"name":"bone2","children":[0,2]},{"translation":[0.375,-0.6875,0],"name":"RightHand"},{"translation":[-0.375,0.6875,0],"name":"r","children":[4]},{"name":"body","children":[3,5]},{"translation":[-0.375,-0.6875,0],"name":"LeftHand"},{"translation":[0.375,0.6875,0],"name":"l","children":[7]},{"translation":[0.5,0.5,0.5],"name":"bone","children":[6,8]},{"children":[9]}],"animations":[{"name":"reload_norm","samplers":[{"input":0,"output":1,"interpolation":"LINEAR"},{"input":2,"output":3,"interpolation":"LINEAR"},{"input":4,"output":5,"interpolation":"LINEAR"},{"input":6,"output":7,"interpolation":"LINEAR"},{"input":8,"output":9,"interpolation":"LINEAR"},{"input":10,"output":11,"interpolation":"LINEAR"},{"input":12,"output":13,"interpolation":"LINEAR"},{"input":14,"output":15,"interpolation":"LINEAR"},{"input":16,"output":17,"interpolation":"LINEAR"},{"input":18,"output":19,"interpolation":"LINEAR"}],"channels":[{"sampler":0,"target":{"node":5,"path":"rotation"}},{"sampler":1,"target":{"node":5,"path":"translation"}},{"sampler":2,"target":{"node":5,"path":"scale"}},{"sampler":3,"target":{"node":8,"path":"rotation"}},{"sampler":4,"target":{"node":8,"path":"translation"}},{"sampler":5,"target":{"node":8,"path":"scale"}},{"sampler":6,"target":{"node":9,"path":"rotation"}},{"sampler":7,"target":{"node":9,"path":"translation"}},{"sampler":8,"target":{"node":0,"path":"rotation"}},{"sampler":9,"target":{"node":0,"path":"translation"}}]}],"bufferViews":[{"buffer":0,"byteOffset":0,"byteLength":4},{"buffer":0,"byteOffset":4,"byteLength":16},{"buffer":0,"byteOffset":20,"byteLength":4},{"buffer":0,"byteOffset":24,"byteLength":12},{"buffer":0,"byteOffset":36,"byteLength":4},{"buffer":0,"byteOffset":40,"byteLength":12},{"buffer":0,"byteOffset":52,"byteLength":144},{"buffer":0,"byteOffset":196,"byteLength":576},{"buffer":0,"byteOffset":772,"byteLength":128},{"buffer":0,"byteOffset":900,"byteLength":384},{"buffer":0,"byteOffset":1284,"byteLength":4},{"buffer":0,"byteOffset":1288,"byteLength":12},{"buffer":0,"byteOffset":1300,"byteLength":140},{"buffer":0,"byteOffset":1440,"byteLength":560},{"buffer":0,"byteOffset":2000,"byteLength":136},{"buffer":0,"byteOffset":2136,"byteLength":408},{"buffer":0,"byteOffset":2544,"byteLength":68},{"buffer":0,"byteOffset":2612,"byteLength":272},{"buffer":0,"byteOffset":2884,"byteLength":92},{"buffer":0,"byteOffset":2976,"byteLength":276}],"buffers":[{"byteLength":3252,"uri":"data:application/octet-stream;base64,"}],"accessors":[{"bufferView":0,"componentType":5126,"count":1,"max":[0],"min":[0],"type":"SCALAR"},{"bufferView":1,"componentType":5126,"count":1,"max":[-0.009376103058457375,0.7162405848503113,-0.6977306604385376,0.009133795276284218],"min":[-0.009376103058457375,0.7162405848503113,-0.6977306604385376,0.009133795276284218],"type":"VEC4"},{"bufferView":2,"componentType":5126,"count":1,"max":[0],"min":[0],"type":"SCALAR"},{"bufferView":3,"componentType":5126,"count":1,"max":[0.03750000149011612,-0.26249998807907104,0.13750000298023224],"min":[0.03750000149011612,-0.26249998807907104,0.13750000298023224],"type":"VEC3"},{"bufferView":4,"componentType":5126,"count":1,"max":[0],"min":[0],"type":"SCALAR"},{"bufferView":5,"componentType":5126,"count":1,"max":[1.75,2,1.75],"min":[1.75,2,1.75],"type":"VEC3"},{"bufferView":6,"componentType":5126,"count":36,"max":[2.0999999046325684],"min":[0],"type":"SCALAR"},{"bufferView":7,"componentType":5126,"count":36,"max":[-4.329780301713277e-17,-0.606597900390625,0.7265766859054565,0.0004080002545379102],"min":[-0.3963370621204376,-0.9515776634216309,0.30616623163223267,-0.5252111554145813],"type":"VEC4"},{"bufferView":8,"componentType":5126,"count":32,"max":[2.0999999046325684],"min":[0],"type":"SCALAR"},{"bufferView":9,"componentType":5126,"count":32,"max":[0.7861668467521667,-0.6446431279182434,2.473759412765503],"min":[-1.6875,-2.0625,-0.1875],"type":"VEC3"},{"bufferView":10,"componentType":5126,"count":1,"max":[0],"min":[0],"type":"SCALAR"},{"bufferView":11,"componentType":5126,"count":1,"max":[1.75,2,1.75],"min":[1.75,2,1.75],"type":"VEC3"},{"bufferView":12,"componentType":5126,"count":35,"max":[2.25],"min":[0],"type":"SCALAR"},{"bufferView":13,"componentType":5126,"count":35,"max":[0.37640905380249023,0.21328610181808472,0.006559060886502266,1],"min":[-0.007476006634533405,0,-0.4284832775592804,0.8112672567367554],"type":"VEC4"},{"bufferView":14,"componentType":5126,"count":34,"max":[2.0999999046325684],"min":[0],"type":"SCALAR"},{"bufferView":15,"componentType":5126,"count":34,"max":[0.8942492604255676,0.7529296875,0.828125],"min":[0.49531251192092896,0.4749999940395355,0.5],"type":"VEC3"},{"bufferView":16,"componentType":5126,"count":17,"max":[1.5],"min":[0],"type":"SCALAR"},{"bufferView":17,"componentType":5126,"count":17,"max":[0.36951306462287903,0.005648184567689896,0.04361938685178757,1],"min":[-0.02650115266442299,-0.10607586055994034,-0.1736481785774231,0.911876380443573],"type":"VEC4"},{"bufferView":18,"componentType":5126,"count":23,"max":[1.7000000476837158],"min":[0],"type":"SCALAR"},{"bufferView":19,"componentType":5126,"count":23,"max":[0.8843749761581421,-0.8125,2.222053050994873],"min":[-0.12051030248403549,-2.8039631843566895,0.375],"type":"VEC3"}]}