{"asset":{"version":"2.0","generator":"Blockbench 4.5.2 glTF exporter"},"scenes":[{"nodes":[10],"name":"blockbench_export"}],"scene":0,"nodes":[{"translation":[0.078125,-0.8125,0.375],"name":"magazine2"},{"name":"slide"},{"name":"main","children":[1]},{"name":"bone2","children":[0,2]},{"translation":[0.375,-0.6875,0],"name":"RightHand"},{"translation":[-0.375,0.6875,0],"name":"r","children":[4]},{"name":"body","children":[3,5]},{"translation":[-0.375,-0.6875,0],"name":"LeftHand"},{"translation":[0.375,0.6875,0],"name":"l","children":[7]},{"translation":[0.5,0.5,0.5],"name":"bone","children":[6,8]},{"children":[9]}],"animations":[{"name":"inspect","samplers":[{"input":0,"output":1,"interpolation":"LINEAR"},{"input":2,"output":3,"interpolation":"LINEAR"},{"input":4,"output":5,"interpolation":"LINEAR"},{"input":6,"output":7,"interpolation":"LINEAR"},{"input":8,"output":9,"interpolation":"LINEAR"},{"input":10,"output":11,"interpolation":"LINEAR"},{"input":12,"output":13,"interpolation":"LINEAR"},{"input":14,"output":15,"interpolation":"LINEAR"},{"input":16,"output":17,"interpolation":"LINEAR"}],"channels":[{"sampler":0,"target":{"node":5,"path":"rotation"}},{"sampler":1,"target":{"node":5,"path":"translation"}},{"sampler":2,"target":{"node":5,"path":"scale"}},{"sampler":3,"target":{"node":8,"path":"rotation"}},{"sampler":4,"target":{"node":8,"path":"translation"}},{"sampler":5,"target":{"node":8,"path":"scale"}},{"sampler":6,"target":{"node":9,"path":"rotation"}},{"sampler":7,"target":{"node":9,"path":"translation"}},{"sampler":8,"target":{"node":3,"path":"translation"}}]}],"bufferViews":[{"buffer":0,"byteOffset":0,"byteLength":4},{"buffer":0,"byteOffset":4,"byteLength":16},{"buffer":0,"byteOffset":20,"byteLength":4},{"buffer":0,"byteOffset":24,"byteLength":12},{"buffer":0,"byteOffset":36,"byteLength":4},{"buffer":0,"byteOffset":40,"byteLength":12},{"buffer":0,"byteOffset":52,"byteLength":4},{"buffer":0,"byteOffset":56,"byteLength":16},{"buffer":0,"byteOffset":72,"byteLength":40},{"buffer":0,"byteOffset":112,"byteLength":120},{"buffer":0,"byteOffset":232,"byteLength":4},{"buffer":0,"byteOffset":236,"byteLength":12},{"buffer":0,"byteOffset":248,"byteLength":260},{"buffer":0,"byteOffset":508,"byteLength":1040},{"buffer":0,"byteOffset":1548,"byteLength":264},{"buffer":0,"byteOffset":1812,"byteLength":792},{"buffer":0,"byteOffset":2604,"byteLength":16},{"buffer":0,"byteOffset":2620,"byteLength":48}],"buffers":[{"byteLength":2668,"uri":"data:application/octet-stream;base64,"}],"accessors":[{"bufferView":0,"componentType":5126,"count":1,"max":[0],"min":[0],"type":"SCALAR"},{"bufferView":1,"componentType":5126,"count":1,"max":[-0.009376103058457375,0.7162405848503113,-0.6977306604385376,0.009133795276284218],"min":[-0.009376103058457375,0.7162405848503113,-0.6977306604385376,0.009133795276284218],"type":"VEC4"},{"bufferView":2,"componentType":5126,"count":1,"max":[0],"min":[0],"type":"SCALAR"},{"bufferView":3,"componentType":5126,"count":1,"max":[0.03750000149011612,-0.26249998807907104,0.13750000298023224],"min":[0.03750000149011612,-0.26249998807907104,0.13750000298023224],"type":"VEC3"},{"bufferView":4,"componentType":5126,"count":1,"max":[0],"min":[0],"type":"SCALAR"},{"bufferView":5,"componentType":5126,"count":1,"max":[1.75,2,1.75],"min":[1.75,2,1.75],"type":"VEC3"},{"bufferView":6,"componentType":5126,"count":1,"max":[0],"min":[0],"type":"SCALAR"},{"bufferView":7,"componentType":5126,"count":1,"max":[-4.329780301713277e-17,-0.7071067690849304,0.7071067690849304,4.329780301713277e-17],"min":[-4.329780301713277e-17,-0.7071067690849304,0.7071067690849304,4.329780301713277e-17],"type":"VEC4"},{"bufferView":8,"componentType":5126,"count":10,"max":[4],"min":[0],"type":"SCALAR"},{"bufferView":9,"componentType":5126,"count":10,"max":[-0.09751062840223312,0.9900575280189514,1.8805899620056152],"min":[-2.6169323921203613,-2.2886950969696045,-0.1875],"type":"VEC3"},{"bufferView":10,"componentType":5126,"count":1,"max":[0],"min":[0],"type":"SCALAR"},{"bufferView":11,"componentType":5126,"count":1,"max":[1.75,2,1.75],"min":[1.75,2,1.75],"type":"VEC3"},{"bufferView":12,"componentType":5126,"count":65,"max":[4.300000190734863],"min":[0],"type":"SCALAR"},{"bufferView":13,"componentType":5126,"count":65,"max":[0.4645848274230957,0.1794108897447586,0.5922033190727234,1],"min":[0,-0.1748412400484085,-0.3223330080509186,0.678337574005127],"type":"VEC4"},{"bufferView":14,"componentType":5126,"count":66,"max":[4.25],"min":[0],"type":"SCALAR"},{"bufferView":15,"componentType":5126,"count":66,"max":[0.5062500238418579,0.7737500071525574,0.9136283993721008],"min":[0.3922436535358429,0.4877057671546936,0.41874998807907104],"type":"VEC3"},{"bufferView":16,"componentType":5126,"count":4,"max":[2.0999999046325684],"min":[0.05000000074505806],"type":"SCALAR"},{"bufferView":17,"componentType":5126,"count":4,"max":[0,0,0],"min":[-0.18125000596046448,0,0],"type":"VEC3"}]}