{"asset":{"version":"2.0","generator":"Blockbench 4.5.2 glTF exporter"},"scenes":[{"nodes":[10],"name":"blockbench_export"}],"scene":0,"nodes":[{"translation":[0.078125,-0.8125,0.375],"name":"magazine2"},{"name":"slide"},{"name":"main","children":[1]},{"name":"bone2","children":[0,2]},{"translation":[0.375,-0.6875,0],"name":"RightHand"},{"translation":[-0.375,0.6875,0],"name":"r","children":[4]},{"name":"body","children":[3,5]},{"translation":[-0.375,-0.6875,0],"name":"LeftHand"},{"translation":[0.375,0.6875,0],"name":"l","children":[7]},{"translation":[0.5,0.5,0.5],"name":"bone","children":[6,8]},{"children":[9]}],"animations":[{"name":"reload_empty","samplers":[{"input":0,"output":1,"interpolation":"LINEAR"},{"input":2,"output":3,"interpolation":"LINEAR"},{"input":4,"output":5,"interpolation":"LINEAR"},{"input":6,"output":7,"interpolation":"LINEAR"},{"input":8,"output":9,"interpolation":"LINEAR"},{"input":10,"output":11,"interpolation":"LINEAR"},{"input":12,"output":13,"interpolation":"LINEAR"},{"input":14,"output":15,"interpolation":"LINEAR"},{"input":16,"output":17,"interpolation":"LINEAR"},{"input":18,"output":19,"interpolation":"LINEAR"},{"input":20,"output":21,"interpolation":"LINEAR"}],"channels":[{"sampler":0,"target":{"node":5,"path":"rotation"}},{"sampler":1,"target":{"node":5,"path":"translation"}},{"sampler":2,"target":{"node":5,"path":"scale"}},{"sampler":3,"target":{"node":8,"path":"rotation"}},{"sampler":4,"target":{"node":8,"path":"translation"}},{"sampler":5,"target":{"node":8,"path":"scale"}},{"sampler":6,"target":{"node":9,"path":"rotation"}},{"sampler":7,"target":{"node":9,"path":"translation"}},{"sampler":8,"target":{"node":0,"path":"rotation"}},{"sampler":9,"target":{"node":0,"path":"translation"}},{"sampler":10,"target":{"node":1,"path":"translation"}}]}],"bufferViews":[{"buffer":0,"byteOffset":0,"byteLength":4},{"buffer":0,"byteOffset":4,"byteLength":16},{"buffer":0,"byteOffset":20,"byteLength":4},{"buffer":0,"byteOffset":24,"byteLength":12},{"buffer":0,"byteOffset":36,"byteLength":4},{"buffer":0,"byteOffset":40,"byteLength":12},{"buffer":0,"byteOffset":52,"byteLength":152},{"buffer":0,"byteOffset":204,"byteLength":608},{"buffer":0,"byteOffset":812,"byteLength":144},{"buffer":0,"byteOffset":956,"byteLength":432},{"buffer":0,"byteOffset":1388,"byteLength":4},{"buffer":0,"byteOffset":1392,"byteLength":12},{"buffer":0,"byteOffset":1404,"byteLength":180},{"buffer":0,"byteOffset":1584,"byteLength":720},{"buffer":0,"byteOffset":2304,"byteLength":168},{"buffer":0,"byteOffset":2472,"byteLength":504},{"buffer":0,"byteOffset":2976,"byteLength":76},{"buffer":0,"byteOffset":3052,"byteLength":304},{"buffer":0,"byteOffset":3356,"byteLength":104},{"buffer":0,"byteOffset":3460,"byteLength":312},{"buffer":0,"byteOffset":3772,"byteLength":16},{"buffer":0,"byteOffset":3788,"byteLength":48}],"buffers":[{"byteLength":3836,"uri":"data:application/octet-stream;base64,"}],"accessors":[{"bufferView":0,"componentType":5126,"count":1,"max":[0],"min":[0],"type":"SCALAR"},{"bufferView":1,"componentType":5126,"count":1,"max":[-0.009376103058457375,0.7162405848503113,-0.6977306604385376,0.009133795276284218],"min":[-0.009376103058457375,0.7162405848503113,-0.6977306604385376,0.009133795276284218],"type":"VEC4"},{"bufferView":2,"componentType":5126,"count":1,"max":[0],"min":[0],"type":"SCALAR"},{"bufferView":3,"componentType":5126,"count":1,"max":[0.03750000149011612,-0.26249998807907104,0.13750000298023224],"min":[0.03750000149011612,-0.26249998807907104,0.13750000298023224],"type":"VEC3"},{"bufferView":4,"componentType":5126,"count":1,"max":[0],"min":[0],"type":"SCALAR"},{"bufferView":5,"componentType":5126,"count":1,"max":[1.75,2,1.75],"min":[1.75,2,1.75],"type":"VEC3"},{"bufferView":6,"componentType":5126,"count":38,"max":[2.5],"min":[0],"type":"SCALAR"},{"bufferView":7,"componentType":5126,"count":38,"max":[0.1668400764465332,-0.4951839745044708,0.7675443887710571,0.176703542470932],"min":[-0.6963642239570618,-0.9278350472450256,0.12278780341148376,-0.4957224428653717],"type":"VEC4"},{"bufferView":8,"componentType":5126,"count":36,"max":[2.5],"min":[0],"type":"SCALAR"},{"bufferView":9,"componentType":5126,"count":36,"max":[1.984375,0.06369999796152115,1.3763428926467896],"min":[-2.983551263809204,-2.823018789291382,-0.1875],"type":"VEC3"},{"bufferView":10,"componentType":5126,"count":1,"max":[0],"min":[0],"type":"SCALAR"},{"bufferView":11,"componentType":5126,"count":1,"max":[1.75,2,1.75],"min":[1.75,2,1.75],"type":"VEC3"},{"bufferView":12,"componentType":5126,"count":45,"max":[2.9000000953674316],"min":[0],"type":"SCALAR"},{"bufferView":13,"componentType":5126,"count":45,"max":[0.31248587369918823,0.21879704296588898,0.42125317454338074,1],"min":[-0.0013804967748001218,-0.1444065272808075,-0.4406827688217163,0.8352807760238647],"type":"VEC4"},{"bufferView":14,"componentType":5126,"count":42,"max":[2.75],"min":[0],"type":"SCALAR"},{"bufferView":15,"componentType":5126,"count":42,"max":[1.034999966621399,0.96875,0.75],"min":[0.4821668267250061,0.2536030113697052,0.46875],"type":"VEC3"},{"bufferView":16,"componentType":5126,"count":19,"max":[1.5],"min":[0],"type":"SCALAR"},{"bufferView":17,"componentType":5126,"count":19,"max":[0.36951306462287903,0.003693582722917199,0.2164396196603775,1],"min":[-0.02468557469546795,-0.10607586055994034,-0.14383848011493683,0.911876380443573],"type":"VEC4"},{"bufferView":18,"componentType":5126,"count":26,"max":[1.7000000476837158],"min":[0],"type":"SCALAR"},{"bufferView":19,"componentType":5126,"count":26,"max":[1.953125,-0.8125,0.8125],"min":[0.078125,-2.6875,0.375],"type":"VEC3"},{"bufferView":20,"componentType":5126,"count":4,"max":[2.3499999046325684],"min":[0],"type":"SCALAR"},{"bufferView":21,"componentType":5126,"count":4,"max":[0,0,0.28125],"min":[0,0,0],"type":"VEC3"}]}