{"asset":{"version":"2.0","generator":"Blockbench 4.2.4 glTF exporter"},"scenes":[{"nodes":[9],"name":"blockbench_export"}],"scene":0,"nodes":[{"translation":[-0.375,-0.6875,0],"name":"LeftHand"},{"translation":[0.375,0.8125,-0.5],"name":"l","children":[0]},{"translation":[0.375,-0.6875,0],"name":"RightHand"},{"translation":[-0.375,0.8125,-0.5],"name":"R","children":[2]},{"name":"bolt"},{"translation":[0.375,0.375,0.5],"name":"magazine"},{"translation":[-0.375,-0.375,-1],"name":"NorincoType81_1","children":[4,5]},{"name":"bone","children":[3,6]},{"translation":[0.5,0.375,1],"name":"bone2","children":[1,7]},{"children":[8]}],"animations":[{"name":"reload_empty","samplers":[{"input":0,"output":1,"interpolation":"LINEAR"},{"input":2,"output":3,"interpolation":"LINEAR"},{"input":4,"output":5,"interpolation":"LINEAR"},{"input":6,"output":7,"interpolation":"LINEAR"},{"input":8,"output":9,"interpolation":"LINEAR"},{"input":10,"output":11,"interpolation":"LINEAR"},{"input":12,"output":13,"interpolation":"LINEAR"},{"input":14,"output":15,"interpolation":"LINEAR"},{"input":16,"output":17,"interpolation":"LINEAR"},{"input":18,"output":19,"interpolation":"LINEAR"},{"input":20,"output":21,"interpolation":"LINEAR"}],"channels":[{"sampler":0,"target":{"node":3,"path":"rotation"}},{"sampler":1,"target":{"node":3,"path":"translation"}},{"sampler":2,"target":{"node":3,"path":"scale"}},{"sampler":3,"target":{"node":1,"path":"rotation"}},{"sampler":4,"target":{"node":1,"path":"translation"}},{"sampler":5,"target":{"node":1,"path":"scale"}},{"sampler":6,"target":{"node":8,"path":"rotation"}},{"sampler":7,"target":{"node":8,"path":"translation"}},{"sampler":8,"target":{"node":4,"path":"translation"}},{"sampler":9,"target":{"node":5,"path":"rotation"}},{"sampler":10,"target":{"node":5,"path":"translation"}}]}],"bufferViews":[{"buffer":0,"byteOffset":0,"byteLength":4},{"buffer":0,"byteOffset":4,"byteLength":16},{"buffer":0,"byteOffset":20,"byteLength":4},{"buffer":0,"byteOffset":24,"byteLength":12},{"buffer":0,"byteOffset":36,"byteLength":4},{"buffer":0,"byteOffset":40,"byteLength":12},{"buffer":0,"byteOffset":52,"byteLength":200},{"buffer":0,"byteOffset":252,"byteLength":800},{"buffer":0,"byteOffset":1052,"byteLength":204},{"buffer":0,"byteOffset":1256,"byteLength":612},{"buffer":0,"byteOffset":1868,"byteLength":4},{"buffer":0,"byteOffset":1872,"byteLength":12},{"buffer":0,"byteOffset":1884,"byteLength":220},{"buffer":0,"byteOffset":2104,"byteLength":880},{"buffer":0,"byteOffset":2984,"byteLength":224},{"buffer":0,"byteOffset":3208,"byteLength":672},{"buffer":0,"byteOffset":3880,"byteLength":16},{"buffer":0,"byteOffset":3896,"byteLength":48},{"buffer":0,"byteOffset":3944,"byteLength":112},{"buffer":0,"byteOffset":4056,"byteLength":448},{"buffer":0,"byteOffset":4504,"byteLength":108},{"buffer":0,"byteOffset":4612,"byteLength":324}],"buffers":[{"byteLength":4936,"uri":"data:application/octet-stream;base64,"}],"accessors":[{"bufferView":0,"componentType":5126,"count":1,"max":[0],"min":[0],"type":"SCALAR"},{"bufferView":1,"componentType":5126,"count":1,"max":[-4.6036909045206166e-17,0.751839816570282,-0.659345805644989,4.037328610911684e-17],"min":[-4.6036909045206166e-17,0.751839816570282,-0.659345805644989,4.037328610911684e-17],"type":"VEC4"},{"bufferView":2,"componentType":5126,"count":1,"max":[0],"min":[0],"type":"SCALAR"},{"bufferView":3,"componentType":5126,"count":1,"max":[0.03125,-0.0625,-0.11874999850988388],"min":[0.03125,-0.0625,-0.11874999850988388],"type":"VEC3"},{"bufferView":4,"componentType":5126,"count":1,"max":[0],"min":[0],"type":"SCALAR"},{"bufferView":5,"componentType":5126,"count":1,"max":[1,1.5,1],"min":[1,1.5,1],"type":"VEC3"},{"bufferView":6,"componentType":5126,"count":50,"max":[3.200000047683716],"min":[0],"type":"SCALAR"},{"bufferView":7,"componentType":5126,"count":50,"max":[0.35859811305999756,0.9180965423583984,-0.008890352211892605,0.5958219170570374],"min":[-0.20529688894748688,0.41338327527046204,-0.8600459694862366,-0.33992376923561096],"type":"VEC4"},{"bufferView":8,"componentType":5126,"count":51,"max":[3.200000047683716],"min":[0],"type":"SCALAR"},{"bufferView":9,"componentType":5126,"count":51,"max":[0.2563016414642334,0.317695289850235,0.26271188259124756],"min":[-0.5331888794898987,-1.413261890411377,-1.0167231559753418],"type":"VEC3"},{"bufferView":10,"componentType":5126,"count":1,"max":[0],"min":[0],"type":"SCALAR"},{"bufferView":11,"componentType":5126,"count":1,"max":[1,1.5,1],"min":[1,1.5,1],"type":"VEC3"},{"bufferView":12,"componentType":5126,"count":55,"max":[3.5],"min":[0],"type":"SCALAR"},{"bufferView":13,"componentType":5126,"count":55,"max":[0.21886175870895386,0.1331752985715866,0.016579868271946907,1],"min":[-0.002754744840785861,-0.0011057226220145822,-0.46768179535865784,0.850063145160675],"type":"VEC4"},{"bufferView":14,"componentType":5126,"count":56,"max":[3.4000000953674316],"min":[0],"type":"SCALAR"},{"bufferView":15,"componentType":5126,"count":56,"max":[0.5013183355331421,0.4112499952316284,1.0449999570846558],"min":[0.45249998569488525,0.31623125076293945,0.9049999713897705],"type":"VEC3"},{"bufferView":16,"componentType":5126,"count":4,"max":[2.75],"min":[0],"type":"SCALAR"},{"bufferView":17,"componentType":5126,"count":4,"max":[0,0,0.34375],"min":[0,0,0],"type":"VEC3"},{"bufferView":18,"componentType":5126,"count":28,"max":[2.049999952316284],"min":[0],"type":"SCALAR"},{"bufferView":19,"componentType":5126,"count":28,"max":[0.26211029291152954,0.11813269555568695,0.015821989625692368,1],"min":[0,-0.047394879162311554,-0.9960158467292786,-0.3932822346687317],"type":"VEC4"},{"bufferView":20,"componentType":5126,"count":27,"max":[2.049999952316284],"min":[0],"type":"SCALAR"},{"bufferView":21,"componentType":5126,"count":27,"max":[0.389943391084671,0.375,0.9115847945213318],"min":[0.015298200771212578,-1.3360188007354736,0.37016749382019043],"type":"VEC3"}]}