{"asset":{"version":"2.0","generator":"Blockbench 4.2.4 glTF exporter"},"scenes":[{"nodes":[9],"name":"blockbench_export"}],"scene":0,"nodes":[{"translation":[-0.375,-0.6875,0],"name":"LeftHand"},{"translation":[0.375,0.8125,-0.5],"name":"l","children":[0]},{"translation":[0.375,-0.6875,0],"name":"RightHand"},{"translation":[-0.375,0.8125,-0.5],"name":"R","children":[2]},{"name":"bolt"},{"translation":[0.375,0.375,0.5],"name":"magazine"},{"translation":[-0.375,-0.375,-1],"name":"NorincoType81_1","children":[4,5]},{"name":"bone","children":[3,6]},{"translation":[0.5,0.375,1],"name":"bone2","children":[1,7]},{"children":[8]}],"animations":[{"name":"inspect","samplers":[{"input":0,"output":1,"interpolation":"LINEAR"},{"input":2,"output":3,"interpolation":"LINEAR"},{"input":4,"output":5,"interpolation":"LINEAR"},{"input":6,"output":7,"interpolation":"LINEAR"},{"input":8,"output":9,"interpolation":"LINEAR"},{"input":10,"output":11,"interpolation":"LINEAR"},{"input":12,"output":13,"interpolation":"LINEAR"},{"input":14,"output":15,"interpolation":"LINEAR"}],"channels":[{"sampler":0,"target":{"node":3,"path":"rotation"}},{"sampler":1,"target":{"node":3,"path":"translation"}},{"sampler":2,"target":{"node":3,"path":"scale"}},{"sampler":3,"target":{"node":1,"path":"rotation"}},{"sampler":4,"target":{"node":1,"path":"translation"}},{"sampler":5,"target":{"node":1,"path":"scale"}},{"sampler":6,"target":{"node":8,"path":"rotation"}},{"sampler":7,"target":{"node":8,"path":"translation"}}]}],"bufferViews":[{"buffer":0,"byteOffset":0,"byteLength":4},{"buffer":0,"byteOffset":4,"byteLength":16},{"buffer":0,"byteOffset":20,"byteLength":4},{"buffer":0,"byteOffset":24,"byteLength":12},{"buffer":0,"byteOffset":36,"byteLength":4},{"buffer":0,"byteOffset":40,"byteLength":12},{"buffer":0,"byteOffset":52,"byteLength":276},{"buffer":0,"byteOffset":328,"byteLength":1104},{"buffer":0,"byteOffset":1432,"byteLength":272},{"buffer":0,"byteOffset":1704,"byteLength":816},{"buffer":0,"byteOffset":2520,"byteLength":4},{"buffer":0,"byteOffset":2524,"byteLength":12},{"buffer":0,"byteOffset":2536,"byteLength":284},{"buffer":0,"byteOffset":2820,"byteLength":1136},{"buffer":0,"byteOffset":3956,"byteLength":300},{"buffer":0,"byteOffset":4256,"byteLength":900}],"buffers":[{"byteLength":5156,"uri":"data:application/octet-stream;base64,"}],"accessors":[{"bufferView":0,"componentType":5126,"count":1,"max":[0],"min":[0],"type":"SCALAR"},{"bufferView":1,"componentType":5126,"count":1,"max":[-4.6036909045206166e-17,0.751839816570282,-0.659345805644989,4.037328610911684e-17],"min":[-4.6036909045206166e-17,0.751839816570282,-0.659345805644989,4.037328610911684e-17],"type":"VEC4"},{"bufferView":2,"componentType":5126,"count":1,"max":[0],"min":[0],"type":"SCALAR"},{"bufferView":3,"componentType":5126,"count":1,"max":[0.03125,-0.0625,-0.11874999850988388],"min":[0.03125,-0.0625,-0.11874999850988388],"type":"VEC3"},{"bufferView":4,"componentType":5126,"count":1,"max":[0],"min":[0],"type":"SCALAR"},{"bufferView":5,"componentType":5126,"count":1,"max":[1,1.5,1],"min":[1,1.5,1],"type":"VEC3"},{"bufferView":6,"componentType":5126,"count":69,"max":[4.25],"min":[0],"type":"SCALAR"},{"bufferView":7,"componentType":5126,"count":69,"max":[0.12534527480602264,0.8372921347618103,-0.4772223234176636,0.48358505964279175],"min":[-0.20529688894748688,0.5853791832923889,-0.79848712682724,0.06444023549556732],"type":"VEC4"},{"bufferView":8,"componentType":5126,"count":68,"max":[4.25],"min":[0],"type":"SCALAR"},{"bufferView":9,"componentType":5126,"count":68,"max":[-0.06875000149011612,0.27007052302360535,0.027380995452404022],"min":[-0.8850089311599731,-1.39260995388031,-1.0125000476837158],"type":"VEC3"},{"bufferView":10,"componentType":5126,"count":1,"max":[0],"min":[0],"type":"SCALAR"},{"bufferView":11,"componentType":5126,"count":1,"max":[1,1.5,1],"min":[1,1.5,1],"type":"VEC3"},{"bufferView":12,"componentType":5126,"count":71,"max":[4.599999904632568],"min":[0],"type":"SCALAR"},{"bufferView":13,"componentType":5126,"count":71,"max":[0.2250898778438568,0.05422573536634445,0.5866196751594543,1],"min":[-0.020762240514159203,-0.0012734312331303954,-0.2442224621772766,0.7775838971138],"type":"VEC4"},{"bufferView":14,"componentType":5126,"count":75,"max":[4.550000190734863],"min":[0],"type":"SCALAR"},{"bufferView":15,"componentType":5126,"count":75,"max":[0.578050434589386,0.4124999940395355,1.0187499523162842],"min":[0.4498128592967987,0.34922417998313904,0.8968750238418579],"type":"VEC3"}]}