{"asset":{"version":"2.0","generator":"Blockbench 4.2.4 glTF exporter"},"scenes":[{"nodes":[9],"name":"blockbench_export"}],"scene":0,"nodes":[{"translation":[-0.375,-0.6875,0],"name":"LeftHand"},{"translation":[0.375,0.8125,-0.5],"name":"l","children":[0]},{"translation":[0.375,-0.6875,0],"name":"RightHand"},{"translation":[-0.375,0.8125,-0.5],"name":"R","children":[2]},{"name":"bolt"},{"translation":[0.375,0.375,0.5],"name":"magazine"},{"translation":[-0.375,-0.375,-1],"name":"NorincoType81_1","children":[4,5]},{"name":"bone","children":[3,6]},{"translation":[0.5,0.375,1],"name":"bone2","children":[1,7]},{"children":[8]}],"animations":[{"name":"reload_norm","samplers":[{"input":0,"output":1,"interpolation":"LINEAR"},{"input":2,"output":3,"interpolation":"LINEAR"},{"input":4,"output":5,"interpolation":"LINEAR"},{"input":6,"output":7,"interpolation":"LINEAR"},{"input":8,"output":9,"interpolation":"LINEAR"},{"input":10,"output":11,"interpolation":"LINEAR"},{"input":12,"output":13,"interpolation":"LINEAR"},{"input":14,"output":15,"interpolation":"LINEAR"},{"input":16,"output":17,"interpolation":"LINEAR"},{"input":18,"output":19,"interpolation":"LINEAR"}],"channels":[{"sampler":0,"target":{"node":3,"path":"rotation"}},{"sampler":1,"target":{"node":3,"path":"translation"}},{"sampler":2,"target":{"node":3,"path":"scale"}},{"sampler":3,"target":{"node":1,"path":"rotation"}},{"sampler":4,"target":{"node":1,"path":"translation"}},{"sampler":5,"target":{"node":1,"path":"scale"}},{"sampler":6,"target":{"node":8,"path":"rotation"}},{"sampler":7,"target":{"node":8,"path":"translation"}},{"sampler":8,"target":{"node":5,"path":"rotation"}},{"sampler":9,"target":{"node":5,"path":"translation"}}]}],"bufferViews":[{"buffer":0,"byteOffset":0,"byteLength":4},{"buffer":0,"byteOffset":4,"byteLength":16},{"buffer":0,"byteOffset":20,"byteLength":4},{"buffer":0,"byteOffset":24,"byteLength":12},{"buffer":0,"byteOffset":36,"byteLength":4},{"buffer":0,"byteOffset":40,"byteLength":12},{"buffer":0,"byteOffset":52,"byteLength":176},{"buffer":0,"byteOffset":228,"byteLength":704},{"buffer":0,"byteOffset":932,"byteLength":172},{"buffer":0,"byteOffset":1104,"byteLength":516},{"buffer":0,"byteOffset":1620,"byteLength":4},{"buffer":0,"byteOffset":1624,"byteLength":12},{"buffer":0,"byteOffset":1636,"byteLength":172},{"buffer":0,"byteOffset":1808,"byteLength":688},{"buffer":0,"byteOffset":2496,"byteLength":196},{"buffer":0,"byteOffset":2692,"byteLength":588},{"buffer":0,"byteOffset":3280,"byteLength":124},{"buffer":0,"byteOffset":3404,"byteLength":496},{"buffer":0,"byteOffset":3900,"byteLength":112},{"buffer":0,"byteOffset":4012,"byteLength":336}],"buffers":[{"byteLength":4348,"uri":"data:application/octet-stream;base64,"}],"accessors":[{"bufferView":0,"componentType":5126,"count":1,"max":[0],"min":[0],"type":"SCALAR"},{"bufferView":1,"componentType":5126,"count":1,"max":[-4.6036909045206166e-17,0.751839816570282,-0.659345805644989,4.037328610911684e-17],"min":[-4.6036909045206166e-17,0.751839816570282,-0.659345805644989,4.037328610911684e-17],"type":"VEC4"},{"bufferView":2,"componentType":5126,"count":1,"max":[0],"min":[0],"type":"SCALAR"},{"bufferView":3,"componentType":5126,"count":1,"max":[0.03125,-0.0625,-0.11874999850988388],"min":[0.03125,-0.0625,-0.11874999850988388],"type":"VEC3"},{"bufferView":4,"componentType":5126,"count":1,"max":[0],"min":[0],"type":"SCALAR"},{"bufferView":5,"componentType":5126,"count":1,"max":[1,1.5,1],"min":[1,1.5,1],"type":"VEC3"},{"bufferView":6,"componentType":5126,"count":44,"max":[2.5],"min":[0],"type":"SCALAR"},{"bufferView":7,"componentType":5126,"count":44,"max":[0.4607568681240082,0.9164827466011047,-0.35329654812812805,0.48358505964279175],"min":[-0.20529688894748688,0.6331811547279358,-0.6752354502677917,-0.45896729826927185],"type":"VEC4"},{"bufferView":8,"componentType":5126,"count":43,"max":[2.5],"min":[0],"type":"SCALAR"},{"bufferView":9,"componentType":5126,"count":43,"max":[-0.014029297046363354,0.03835292533040047,-0.2234564870595932],"min":[-0.4984250068664551,-1.153111457824707,-1.0125000476837158],"type":"VEC3"},{"bufferView":10,"componentType":5126,"count":1,"max":[0],"min":[0],"type":"SCALAR"},{"bufferView":11,"componentType":5126,"count":1,"max":[1,1.5,1],"min":[1,1.5,1],"type":"VEC3"},{"bufferView":12,"componentType":5126,"count":43,"max":[2.799999952316284],"min":[0],"type":"SCALAR"},{"bufferView":13,"componentType":5126,"count":43,"max":[0.07814114540815353,0.025319404900074005,0.00778660224750638,1],"min":[-0.0079385070130229,-0.00043797591933980584,-0.3669220507144928,0.9274168014526367],"type":"VEC4"},{"bufferView":14,"componentType":5126,"count":49,"max":[2.799999952316284],"min":[0],"type":"SCALAR"},{"bufferView":15,"componentType":5126,"count":49,"max":[0.5,0.375,1.0187499523162842],"min":[0.4423828125,0.35624998807907104,0.9200000166893005],"type":"VEC3"},{"bufferView":16,"componentType":5126,"count":31,"max":[2.0999999046325684],"min":[0],"type":"SCALAR"},{"bufferView":17,"componentType":5126,"count":31,"max":[0.17990560829639435,0.0249611958861351,0.061890147626399994,1],"min":[0,-0.07042177021503448,-0.5199593901634216,0.8510478138923645],"type":"VEC4"},{"bufferView":18,"componentType":5126,"count":28,"max":[2.0999999046325684],"min":[0],"type":"SCALAR"},{"bufferView":19,"componentType":5126,"count":28,"max":[0.3777231276035309,0.375,0.8156954646110535],"min":[0.021424999460577965,-0.7153350710868835,0.4139610230922699],"type":"VEC3"}]}