{"asset":{"version":"2.0","generator":"Blockbench 4.2.4 glTF exporter"},"scenes":[{"nodes":[9],"name":"blockbench_export"}],"scene":0,"nodes":[{"translation":[-0.0003906249999999778,-0.074760625,0.3831387500000001],"name":"magazine"},{"translation":[0,0.46834062499999995,-0.37586625],"name":"bolt2"},{"name":"type95","children":[0,1]},{"translation":[0.375,-0.6875,0],"name":"RightHand"},{"translation":[-0.375,0.875,-0.25],"name":"R","children":[3]},{"name":"bone","children":[2,4]},{"translation":[-0.375,-0.6875,0],"name":"LeftHand"},{"translation":[0.375,0.875,-0.25],"name":"l","children":[6]},{"translation":[0.5,0.3125,0.75],"name":"bone2","children":[5,7]},{"children":[8]}],"animations":[{"name":"inspect","samplers":[{"input":0,"output":1,"interpolation":"LINEAR"},{"input":2,"output":3,"interpolation":"LINEAR"},{"input":4,"output":5,"interpolation":"LINEAR"},{"input":6,"output":7,"interpolation":"LINEAR"},{"input":8,"output":9,"interpolation":"LINEAR"},{"input":10,"output":11,"interpolation":"LINEAR"},{"input":12,"output":13,"interpolation":"LINEAR"},{"input":14,"output":15,"interpolation":"LINEAR"}],"channels":[{"sampler":0,"target":{"node":7,"path":"rotation"}},{"sampler":1,"target":{"node":7,"path":"translation"}},{"sampler":2,"target":{"node":7,"path":"scale"}},{"sampler":3,"target":{"node":4,"path":"rotation"}},{"sampler":4,"target":{"node":4,"path":"translation"}},{"sampler":5,"target":{"node":4,"path":"scale"}},{"sampler":6,"target":{"node":8,"path":"rotation"}},{"sampler":7,"target":{"node":8,"path":"translation"}}]}],"bufferViews":[{"buffer":0,"byteOffset":0,"byteLength":88},{"buffer":0,"byteOffset":88,"byteLength":352},{"buffer":0,"byteOffset":440,"byteLength":88},{"buffer":0,"byteOffset":528,"byteLength":264},{"buffer":0,"byteOffset":792,"byteLength":4},{"buffer":0,"byteOffset":796,"byteLength":12},{"buffer":0,"byteOffset":808,"byteLength":20},{"buffer":0,"byteOffset":828,"byteLength":80},{"buffer":0,"byteOffset":908,"byteLength":20},{"buffer":0,"byteOffset":928,"byteLength":60},{"buffer":0,"byteOffset":988,"byteLength":4},{"buffer":0,"byteOffset":992,"byteLength":12},{"buffer":0,"byteOffset":1004,"byteLength":348},{"buffer":0,"byteOffset":1352,"byteLength":1392},{"buffer":0,"byteOffset":2744,"byteLength":348},{"buffer":0,"byteOffset":3092,"byteLength":1044}],"buffers":[{"byteLength":4136,"uri":"data:application/octet-stream;base64,"}],"accessors":[{"bufferView":0,"componentType":5126,"count":22,"max":[5],"min":[0],"type":"SCALAR"},{"bufferView":1,"componentType":5126,"count":22,"max":[0.22162464261054993,0.7966380715370178,-0.5445060729980469,0.5236469507217407],"min":[-0.15336479246616364,0.6015642881393433,-0.7672125697135925,0.013300247490406036],"type":"VEC4"},{"bufferView":2,"componentType":5126,"count":22,"max":[5],"min":[0],"type":"SCALAR"},{"bufferView":3,"componentType":5126,"count":22,"max":[0.6771087646484375,0.3395724892616272,0.5860875248908997],"min":[-0.7910918593406677,-1.1859350204467773,-0.5204787254333496],"type":"VEC3"},{"bufferView":4,"componentType":5126,"count":1,"max":[0],"min":[0],"type":"SCALAR"},{"bufferView":5,"componentType":5126,"count":1,"max":[1,1.5,1],"min":[1,1.5,1],"type":"VEC3"},{"bufferView":6,"componentType":5126,"count":5,"max":[5.050000190734863],"min":[0],"type":"SCALAR"},{"bufferView":7,"componentType":5126,"count":5,"max":[-0.06665751338005066,0.7455614805221558,-0.6331615447998047,0.003148656338453293],"min":[-0.18222777545452118,0.7058034539222717,-0.7052576541900635,-0.10018778592348099],"type":"VEC4"},{"bufferView":8,"componentType":5126,"count":5,"max":[5.050000190734863],"min":[0],"type":"SCALAR"},{"bufferView":9,"componentType":5126,"count":5,"max":[0.05000000074505806,0.02500000037252903,-0.0625],"min":[0.05000000074505806,0.02500000037252903,-0.0625],"type":"VEC3"},{"bufferView":10,"componentType":5126,"count":1,"max":[0],"min":[0],"type":"SCALAR"},{"bufferView":11,"componentType":5126,"count":1,"max":[1,1.5,1],"min":[1,1.5,1],"type":"VEC3"},{"bufferView":12,"componentType":5126,"count":87,"max":[5.349999904632568],"min":[0],"type":"SCALAR"},{"bufferView":13,"componentType":5126,"count":87,"max":[0.2715144455432892,0.1400301605463028,0.5820313096046448,1],"min":[-0.011139788664877415,-0.010807853192090988,-0.5526100993156433,0.7699952721595764],"type":"VEC4"},{"bufferView":14,"componentType":5126,"count":87,"max":[5.300000190734863],"min":[0],"type":"SCALAR"},{"bufferView":15,"componentType":5126,"count":87,"max":[0.5009077191352844,0.572338879108429,0.7875000238418579],"min":[0.2932879626750946,0.2667272090911865,0.46687498688697815],"type":"VEC3"}]}