{"asset":{"version":"2.0","generator":"Blockbench 4.2.4 glTF exporter"},"scenes":[{"nodes":[9],"name":"blockbench_export"}],"scene":0,"nodes":[{"translation":[-0.0003906249999999778,-0.074760625,0.3831387500000001],"name":"magazine"},{"translation":[0,0.46834062499999995,-0.37586625],"name":"bolt2"},{"name":"type95","children":[0,1]},{"translation":[0.375,-0.6875,0],"name":"RightHand"},{"translation":[-0.375,0.875,-0.25],"name":"R","children":[3]},{"name":"bone","children":[2,4]},{"translation":[-0.375,-0.6875,0],"name":"LeftHand"},{"translation":[0.375,0.875,-0.25],"name":"l","children":[6]},{"translation":[0.5,0.3125,0.75],"name":"bone2","children":[5,7]},{"children":[8]}],"animations":[{"name":"empty","samplers":[{"input":0,"output":1,"interpolation":"LINEAR"},{"input":2,"output":3,"interpolation":"LINEAR"},{"input":4,"output":5,"interpolation":"LINEAR"},{"input":6,"output":7,"interpolation":"LINEAR"},{"input":8,"output":9,"interpolation":"LINEAR"},{"input":10,"output":11,"interpolation":"LINEAR"},{"input":12,"output":13,"interpolation":"LINEAR"},{"input":14,"output":15,"interpolation":"LINEAR"},{"input":16,"output":17,"interpolation":"LINEAR"},{"input":18,"output":19,"interpolation":"LINEAR"},{"input":20,"output":21,"interpolation":"LINEAR"}],"channels":[{"sampler":0,"target":{"node":7,"path":"rotation"}},{"sampler":1,"target":{"node":7,"path":"translation"}},{"sampler":2,"target":{"node":7,"path":"scale"}},{"sampler":3,"target":{"node":4,"path":"rotation"}},{"sampler":4,"target":{"node":4,"path":"translation"}},{"sampler":5,"target":{"node":4,"path":"scale"}},{"sampler":6,"target":{"node":8,"path":"rotation"}},{"sampler":7,"target":{"node":8,"path":"translation"}},{"sampler":8,"target":{"node":0,"path":"rotation"}},{"sampler":9,"target":{"node":0,"path":"translation"}},{"sampler":10,"target":{"node":1,"path":"translation"}}]}],"bufferViews":[{"buffer":0,"byteOffset":0,"byteLength":188},{"buffer":0,"byteOffset":188,"byteLength":752},{"buffer":0,"byteOffset":940,"byteLength":184},{"buffer":0,"byteOffset":1124,"byteLength":552},{"buffer":0,"byteOffset":1676,"byteLength":4},{"buffer":0,"byteOffset":1680,"byteLength":12},{"buffer":0,"byteOffset":1692,"byteLength":20},{"buffer":0,"byteOffset":1712,"byteLength":80},{"buffer":0,"byteOffset":1792,"byteLength":4},{"buffer":0,"byteOffset":1796,"byteLength":12},{"buffer":0,"byteOffset":1808,"byteLength":4},{"buffer":0,"byteOffset":1812,"byteLength":12},{"buffer":0,"byteOffset":1824,"byteLength":212},{"buffer":0,"byteOffset":2036,"byteLength":848},{"buffer":0,"byteOffset":2884,"byteLength":212},{"buffer":0,"byteOffset":3096,"byteLength":636},{"buffer":0,"byteOffset":3732,"byteLength":108},{"buffer":0,"byteOffset":3840,"byteLength":432},{"buffer":0,"byteOffset":4272,"byteLength":108},{"buffer":0,"byteOffset":4380,"byteLength":324},{"buffer":0,"byteOffset":4704,"byteLength":24},{"buffer":0,"byteOffset":4728,"byteLength":72}],"buffers":[{"byteLength":4800,"uri":"data:application/octet-stream;base64,"}],"accessors":[{"bufferView":0,"componentType":5126,"count":47,"max":[2.950000047683716],"min":[0],"type":"SCALAR"},{"bufferView":1,"componentType":5126,"count":47,"max":[0.4136908948421478,0.9403153657913208,-0.307105153799057,0.5236469507217407],"min":[-0.15336479246616364,0.5954981446266174,-0.6622552871704102,-0.3753081262111664],"type":"VEC4"},{"bufferView":2,"componentType":5126,"count":46,"max":[2.950000047683716],"min":[0],"type":"SCALAR"},{"bufferView":3,"componentType":5126,"count":46,"max":[-0.02500000037252903,0.2993749976158142,0.36250001192092896],"min":[-0.4552629888057709,-1.4253219366073608,-0.4375],"type":"VEC3"},{"bufferView":4,"componentType":5126,"count":1,"max":[0],"min":[0],"type":"SCALAR"},{"bufferView":5,"componentType":5126,"count":1,"max":[1,1.5,1],"min":[1,1.5,1],"type":"VEC3"},{"bufferView":6,"componentType":5126,"count":5,"max":[3],"min":[0],"type":"SCALAR"},{"bufferView":7,"componentType":5126,"count":5,"max":[-0.15539374947547913,0.7607229351997375,-0.6291831731796265,0.035804633051157],"min":[-0.18222777545452118,0.7455430030822754,-0.6331915259361267,-0.10018778592348099],"type":"VEC4"},{"bufferView":8,"componentType":5126,"count":1,"max":[0],"min":[0],"type":"SCALAR"},{"bufferView":9,"componentType":5126,"count":1,"max":[0.05000000074505806,0.02500000037252903,-0.0625],"min":[0.05000000074505806,0.02500000037252903,-0.0625],"type":"VEC3"},{"bufferView":10,"componentType":5126,"count":1,"max":[0],"min":[0],"type":"SCALAR"},{"bufferView":11,"componentType":5126,"count":1,"max":[1,1.5,1],"min":[1,1.5,1],"type":"VEC3"},{"bufferView":12,"componentType":5126,"count":53,"max":[3.25],"min":[0],"type":"SCALAR"},{"bufferView":13,"componentType":5126,"count":53,"max":[0.22051264345645905,0.03339149430394173,0.2793876528739929,1],"min":[-0.04549136385321617,-0.012898599728941917,-0.3728393316268921,0.9013485908508301],"type":"VEC4"},{"bufferView":14,"componentType":5126,"count":53,"max":[3.25],"min":[0],"type":"SCALAR"},{"bufferView":15,"componentType":5126,"count":53,"max":[0.5,0.5951133966445923,0.768750011920929],"min":[0.421875,0.20000000298023224,0.46083658933639526],"type":"VEC3"},{"bufferView":16,"componentType":5126,"count":27,"max":[1.899999976158142],"min":[0],"type":"SCALAR"},{"bufferView":17,"componentType":5126,"count":27,"max":[0.1718735694885254,0.16943193972110748,0,1],"min":[-0.1308239996433258,-0.0025340719148516655,-0.521457850933075,0.8259900808334351],"type":"VEC4"},{"bufferView":18,"componentType":5126,"count":27,"max":[1.899999976158142],"min":[0],"type":"SCALAR"},{"bufferView":19,"componentType":5126,"count":27,"max":[-0.0003906250058207661,-0.07476062327623367,0.3831387460231781],"min":[-0.3901454210281372,-1.3857688903808594,0.2906387448310852],"type":"VEC3"},{"bufferView":20,"componentType":5126,"count":6,"max":[2.75],"min":[2.3499999046325684],"type":"SCALAR"},{"bufferView":21,"componentType":5126,"count":6,"max":[0,0.4683406352996826,-0.08836624771356583],"min":[0,0.4683406352996826,-0.37586626410484314],"type":"VEC3"}]}