{"asset":{"version":"2.0","generator":"Blockbench 4.2.4 glTF exporter"},"scenes":[{"nodes":[9],"name":"blockbench_export"}],"scene":0,"nodes":[{"translation":[-0.0003906249999999778,-0.074760625,0.3831387500000001],"name":"magazine"},{"translation":[0,0.46834062499999995,-0.37586625],"name":"bolt2"},{"name":"type95","children":[0,1]},{"translation":[0.375,-0.6875,0],"name":"RightHand"},{"translation":[-0.375,0.875,-0.25],"name":"R","children":[3]},{"name":"bone","children":[2,4]},{"translation":[-0.375,-0.6875,0],"name":"LeftHand"},{"translation":[0.375,0.875,-0.25],"name":"l","children":[6]},{"translation":[0.5,0.3125,0.75],"name":"bone2","children":[5,7]},{"children":[8]}],"animations":[{"name":"reload","samplers":[{"input":0,"output":1,"interpolation":"LINEAR"},{"input":2,"output":3,"interpolation":"LINEAR"},{"input":4,"output":5,"interpolation":"LINEAR"},{"input":6,"output":7,"interpolation":"LINEAR"},{"input":8,"output":9,"interpolation":"LINEAR"},{"input":10,"output":11,"interpolation":"LINEAR"},{"input":12,"output":13,"interpolation":"LINEAR"},{"input":14,"output":15,"interpolation":"LINEAR"},{"input":16,"output":17,"interpolation":"LINEAR"},{"input":18,"output":19,"interpolation":"LINEAR"}],"channels":[{"sampler":0,"target":{"node":7,"path":"rotation"}},{"sampler":1,"target":{"node":7,"path":"translation"}},{"sampler":2,"target":{"node":7,"path":"scale"}},{"sampler":3,"target":{"node":4,"path":"rotation"}},{"sampler":4,"target":{"node":4,"path":"translation"}},{"sampler":5,"target":{"node":4,"path":"scale"}},{"sampler":6,"target":{"node":8,"path":"rotation"}},{"sampler":7,"target":{"node":8,"path":"translation"}},{"sampler":8,"target":{"node":0,"path":"rotation"}},{"sampler":9,"target":{"node":0,"path":"translation"}}]}],"bufferViews":[{"buffer":0,"byteOffset":0,"byteLength":52},{"buffer":0,"byteOffset":52,"byteLength":208},{"buffer":0,"byteOffset":260,"byteLength":64},{"buffer":0,"byteOffset":324,"byteLength":192},{"buffer":0,"byteOffset":516,"byteLength":4},{"buffer":0,"byteOffset":520,"byteLength":12},{"buffer":0,"byteOffset":532,"byteLength":4},{"buffer":0,"byteOffset":536,"byteLength":16},{"buffer":0,"byteOffset":552,"byteLength":4},{"buffer":0,"byteOffset":556,"byteLength":12},{"buffer":0,"byteOffset":568,"byteLength":4},{"buffer":0,"byteOffset":572,"byteLength":12},{"buffer":0,"byteOffset":584,"byteLength":156},{"buffer":0,"byteOffset":740,"byteLength":624},{"buffer":0,"byteOffset":1364,"byteLength":160},{"buffer":0,"byteOffset":1524,"byteLength":480},{"buffer":0,"byteOffset":2004,"byteLength":36},{"buffer":0,"byteOffset":2040,"byteLength":144},{"buffer":0,"byteOffset":2184,"byteLength":36},{"buffer":0,"byteOffset":2220,"byteLength":108}],"buffers":[{"byteLength":2328,"uri":"data:application/octet-stream;base64,"}],"accessors":[{"bufferView":0,"componentType":5126,"count":13,"max":[2.1500000953674316],"min":[0],"type":"SCALAR"},{"bufferView":1,"componentType":5126,"count":13,"max":[0.35083848237991333,0.9407416582107544,-0.27798134088516235,0.5236469507217407],"min":[-0.15336479246616364,0.6370134949684143,-0.6162413954734802,-0.45057618618011475],"type":"VEC4"},{"bufferView":2,"componentType":5126,"count":16,"max":[2.1500000953674316],"min":[0],"type":"SCALAR"},{"bufferView":3,"componentType":5126,"count":16,"max":[0.012500000186264515,0.125,0.33125001192092896],"min":[-0.28484562039375305,-1.1134525537490845,-0.4375],"type":"VEC3"},{"bufferView":4,"componentType":5126,"count":1,"max":[0],"min":[0],"type":"SCALAR"},{"bufferView":5,"componentType":5126,"count":1,"max":[1,1.5,1],"min":[1,1.5,1],"type":"VEC3"},{"bufferView":6,"componentType":5126,"count":1,"max":[0],"min":[0],"type":"SCALAR"},{"bufferView":7,"componentType":5126,"count":1,"max":[-0.18222777545452118,0.7455614805221558,-0.6331615447998047,-0.10018778592348099],"min":[-0.18222777545452118,0.7455614805221558,-0.6331615447998047,-0.10018778592348099],"type":"VEC4"},{"bufferView":8,"componentType":5126,"count":1,"max":[0],"min":[0],"type":"SCALAR"},{"bufferView":9,"componentType":5126,"count":1,"max":[0.05000000074505806,0.02500000037252903,-0.0625],"min":[0.05000000074505806,0.02500000037252903,-0.0625],"type":"VEC3"},{"bufferView":10,"componentType":5126,"count":1,"max":[0],"min":[0],"type":"SCALAR"},{"bufferView":11,"componentType":5126,"count":1,"max":[1,1.5,1],"min":[1,1.5,1],"type":"VEC3"},{"bufferView":12,"componentType":5126,"count":39,"max":[2.450000047683716],"min":[0],"type":"SCALAR"},{"bufferView":13,"componentType":5126,"count":39,"max":[0.0653260126709938,0.11105946451425552,0.017452405765652657,1],"min":[-0.01840210147202015,-0.0011901052203029394,-0.29555800557136536,0.9503193497657776],"type":"VEC4"},{"bufferView":14,"componentType":5126,"count":40,"max":[2.450000047683716],"min":[0],"type":"SCALAR"},{"bufferView":15,"componentType":5126,"count":40,"max":[0.5,0.45268937945365906,0.75],"min":[0.36812499165534973,0.2693749964237213,0.5014452934265137],"type":"VEC3"},{"bufferView":16,"componentType":5126,"count":9,"max":[1.75],"min":[0.550000011920929],"type":"SCALAR"},{"bufferView":17,"componentType":5126,"count":9,"max":[0.19292153418064117,0.15834160149097443,0,1],"min":[0,0,-0.5387980937957764,0.804615318775177],"type":"VEC4"},{"bufferView":18,"componentType":5126,"count":9,"max":[1.75],"min":[0.550000011920929],"type":"SCALAR"},{"bufferView":19,"componentType":5126,"count":9,"max":[-0.0003906250058207661,-0.07476062327623367,0.3831387460231781],"min":[-0.2691406309604645,-1.0872606039047241,0.18313874304294586],"type":"VEC3"}]}