{"asset":{"version":"2.0","generator":"Blockbench 4.2.4 glTF exporter"},"scenes":[{"nodes":[13],"name":"blockbench_export"}],"scene":0,"nodes":[{"translation":[-0.5,-0.5,-0.5],"name":"2"},{"translation":[0.1875,0,0.1875],"name":"magazine_short2","children":[0]},{"translation":[0,-0.125,-0.4375],"name":"vector45_standard_mag","children":[1]},{"translation":[0.041331249999999986,-0.0625,0.12168125],"name":"fix"},{"translation":[-0.078579375,0.314453125,-0.51730125],"name":"chargehandle","children":[3]},{"translation":[0,-0.125,-0.25],"name":"vector45_bolt","children":[4]},{"name":"vector45","children":[2,5]},{"translation":[0.375,-0.6875,0],"name":"RightHand"},{"translation":[-0.375,0.5625,-0.25],"name":"R","children":[7]},{"name":"bone","children":[6,8]},{"translation":[-0.375,-0.6875,0],"name":"LeftHand"},{"translation":[0.375,0.5625,-0.25],"name":"l","children":[10]},{"translation":[0.5,0.625,0.75],"name":"bone2","children":[9,11]},{"children":[12]}],"animations":[{"name":"reload_norm","samplers":[{"input":0,"output":1,"interpolation":"LINEAR"},{"input":2,"output":3,"interpolation":"LINEAR"},{"input":4,"output":5,"interpolation":"LINEAR"},{"input":6,"output":7,"interpolation":"LINEAR"},{"input":8,"output":9,"interpolation":"LINEAR"},{"input":10,"output":11,"interpolation":"LINEAR"},{"input":12,"output":13,"interpolation":"LINEAR"},{"input":14,"output":15,"interpolation":"LINEAR"},{"input":16,"output":17,"interpolation":"LINEAR"},{"input":18,"output":19,"interpolation":"LINEAR"},{"input":20,"output":21,"interpolation":"LINEAR"}],"channels":[{"sampler":0,"target":{"node":11,"path":"rotation"}},{"sampler":1,"target":{"node":11,"path":"translation"}},{"sampler":2,"target":{"node":11,"path":"scale"}},{"sampler":3,"target":{"node":8,"path":"rotation"}},{"sampler":4,"target":{"node":8,"path":"translation"}},{"sampler":5,"target":{"node":8,"path":"scale"}},{"sampler":6,"target":{"node":12,"path":"rotation"}},{"sampler":7,"target":{"node":12,"path":"translation"}},{"sampler":8,"target":{"node":2,"path":"rotation"}},{"sampler":9,"target":{"node":2,"path":"translation"}},{"sampler":10,"target":{"node":0,"path":"translation"}}]}],"bufferViews":[{"buffer":0,"byteOffset":0,"byteLength":104},{"buffer":0,"byteOffset":104,"byteLength":416},{"buffer":0,"byteOffset":520,"byteLength":100},{"buffer":0,"byteOffset":620,"byteLength":300},{"buffer":0,"byteOffset":920,"byteLength":4},{"buffer":0,"byteOffset":924,"byteLength":12},{"buffer":0,"byteOffset":936,"byteLength":4},{"buffer":0,"byteOffset":940,"byteLength":16},{"buffer":0,"byteOffset":956,"byteLength":4},{"buffer":0,"byteOffset":960,"byteLength":12},{"buffer":0,"byteOffset":972,"byteLength":4},{"buffer":0,"byteOffset":976,"byteLength":12},{"buffer":0,"byteOffset":988,"byteLength":136},{"buffer":0,"byteOffset":1124,"byteLength":544},{"buffer":0,"byteOffset":1668,"byteLength":128},{"buffer":0,"byteOffset":1796,"byteLength":384},{"buffer":0,"byteOffset":2180,"byteLength":40},{"buffer":0,"byteOffset":2220,"byteLength":160},{"buffer":0,"byteOffset":2380,"byteLength":44},{"buffer":0,"byteOffset":2424,"byteLength":132},{"buffer":0,"byteOffset":2556,"byteLength":16},{"buffer":0,"byteOffset":2572,"byteLength":48}],"buffers":[{"byteLength":2620,"uri":"data:application/octet-stream;base64,"}],"accessors":[{"bufferView":0,"componentType":5126,"count":26,"max":[1.649999976158142],"min":[0],"type":"SCALAR"},{"bufferView":1,"componentType":5126,"count":26,"max":[0.6802637577056885,0.8598762154579163,-0.4369851350784302,0.018960317596793175],"min":[0.08374129980802536,0.4994944930076599,-0.6851803064346313,-0.11261516064405441],"type":"VEC4"},{"bufferView":2,"componentType":5126,"count":25,"max":[1.649999976158142],"min":[0],"type":"SCALAR"},{"bufferView":3,"componentType":5126,"count":25,"max":[0.03897687420248985,-0.08124999701976776,-0.015176874585449696],"min":[-0.4388050138950348,-1.6033200025558472,-0.643750011920929],"type":"VEC3"},{"bufferView":4,"componentType":5126,"count":1,"max":[0],"min":[0],"type":"SCALAR"},{"bufferView":5,"componentType":5126,"count":1,"max":[1,1.5,1],"min":[1,1.5,1],"type":"VEC3"},{"bufferView":6,"componentType":5126,"count":1,"max":[0],"min":[0],"type":"SCALAR"},{"bufferView":7,"componentType":5126,"count":1,"max":[0.032794781029224396,-0.7511242032051086,0.6587182879447937,0.028760306537151337],"min":[0.032794781029224396,-0.7511242032051086,0.6587182879447937,0.028760306537151337],"type":"VEC4"},{"bufferView":8,"componentType":5126,"count":1,"max":[0],"min":[0],"type":"SCALAR"},{"bufferView":9,"componentType":5126,"count":1,"max":[0.03125,-0.0625,-0.0625],"min":[0.03125,-0.0625,-0.0625],"type":"VEC3"},{"bufferView":10,"componentType":5126,"count":1,"max":[0],"min":[0],"type":"SCALAR"},{"bufferView":11,"componentType":5126,"count":1,"max":[1,1.5,1],"min":[1,1.5,1],"type":"VEC3"},{"bufferView":12,"componentType":5126,"count":34,"max":[1.9500000476837158],"min":[0],"type":"SCALAR"},{"bufferView":13,"componentType":5126,"count":34,"max":[0.21207647025585175,0.07989588379859924,0.029565267264842987,1],"min":[-0.008722650818526745,-0.00026082395925186574,-0.40183231234550476,0.8891468644142151],"type":"VEC4"},{"bufferView":14,"componentType":5126,"count":32,"max":[1.899999976158142],"min":[0],"type":"SCALAR"},{"bufferView":15,"componentType":5126,"count":32,"max":[0.5006250143051147,0.6487500071525574,0.78125],"min":[0.48750001192092896,0.5554101467132568,0.6712499856948853],"type":"VEC3"},{"bufferView":16,"componentType":5126,"count":10,"max":[1.350000023841858],"min":[0.5],"type":"SCALAR"},{"bufferView":17,"componentType":5126,"count":10,"max":[0.43051108717918396,0.001490511349402368,0,1],"min":[-0.01988948881626129,-0.00569347245618701,-0.15192514657974243,0.9025852680206299],"type":"VEC4"},{"bufferView":18,"componentType":5126,"count":11,"max":[1.350000023841858],"min":[0.4000000059604645],"type":"SCALAR"},{"bufferView":19,"componentType":5126,"count":11,"max":[0.30329811573028564,-0.125,-0.10085750371217728],"min":[-0.1403387486934662,-1.6596275568008423,-0.4375],"type":"VEC3"},{"bufferView":20,"componentType":5126,"count":4,"max":[1.850000023841858],"min":[0.30000001192092896],"type":"SCALAR"},{"bufferView":21,"componentType":5126,"count":4,"max":[-0.5,-0.4625000059604645,-0.5],"min":[-0.5,-0.5,-0.512499988079071],"type":"VEC3"}]}