{"asset":{"version":"2.0","generator":"Blockbench 4.2.4 glTF exporter"},"scenes":[{"nodes":[13],"name":"blockbench_export"}],"scene":0,"nodes":[{"translation":[-0.5,-0.5,-0.5],"name":"2"},{"translation":[0.1875,0,0.1875],"name":"magazine_short2","children":[0]},{"translation":[0,-0.125,-0.4375],"name":"vector45_standard_mag","children":[1]},{"translation":[0.041331249999999986,-0.0625,0.12168125],"name":"fix"},{"translation":[-0.078579375,0.314453125,-0.51730125],"name":"chargehandle","children":[3]},{"translation":[0,-0.125,-0.25],"name":"vector45_bolt","children":[4]},{"name":"vector45","children":[2,5]},{"translation":[0.375,-0.6875,0],"name":"RightHand"},{"translation":[-0.375,0.5625,-0.25],"name":"R","children":[7]},{"name":"bone","children":[6,8]},{"translation":[-0.375,-0.6875,0],"name":"LeftHand"},{"translation":[0.375,0.5625,-0.25],"name":"l","children":[10]},{"translation":[0.5,0.625,0.75],"name":"bone2","children":[9,11]},{"children":[12]}],"animations":[{"name":"draw","samplers":[{"input":0,"output":1,"interpolation":"LINEAR"},{"input":2,"output":3,"interpolation":"LINEAR"},{"input":4,"output":5,"interpolation":"LINEAR"},{"input":6,"output":7,"interpolation":"LINEAR"},{"input":8,"output":9,"interpolation":"LINEAR"},{"input":10,"output":11,"interpolation":"LINEAR"},{"input":12,"output":13,"interpolation":"LINEAR"},{"input":14,"output":15,"interpolation":"LINEAR"}],"channels":[{"sampler":0,"target":{"node":11,"path":"rotation"}},{"sampler":1,"target":{"node":11,"path":"translation"}},{"sampler":2,"target":{"node":11,"path":"scale"}},{"sampler":3,"target":{"node":8,"path":"rotation"}},{"sampler":4,"target":{"node":8,"path":"translation"}},{"sampler":5,"target":{"node":8,"path":"scale"}},{"sampler":6,"target":{"node":12,"path":"rotation"}},{"sampler":7,"target":{"node":12,"path":"translation"}}]}],"bufferViews":[{"buffer":0,"byteOffset":0,"byteLength":4},{"buffer":0,"byteOffset":4,"byteLength":16},{"buffer":0,"byteOffset":20,"byteLength":4},{"buffer":0,"byteOffset":24,"byteLength":12},{"buffer":0,"byteOffset":36,"byteLength":4},{"buffer":0,"byteOffset":40,"byteLength":12},{"buffer":0,"byteOffset":52,"byteLength":4},{"buffer":0,"byteOffset":56,"byteLength":16},{"buffer":0,"byteOffset":72,"byteLength":4},{"buffer":0,"byteOffset":76,"byteLength":12},{"buffer":0,"byteOffset":88,"byteLength":4},{"buffer":0,"byteOffset":92,"byteLength":12},{"buffer":0,"byteOffset":104,"byteLength":48},{"buffer":0,"byteOffset":152,"byteLength":192},{"buffer":0,"byteOffset":344,"byteLength":44},{"buffer":0,"byteOffset":388,"byteLength":132}],"buffers":[{"byteLength":520,"uri":"data:application/octet-stream;base64,"}],"accessors":[{"bufferView":0,"componentType":5126,"count":1,"max":[0],"min":[0],"type":"SCALAR"},{"bufferView":1,"componentType":5126,"count":1,"max":[0.21277780830860138,0.7602537274360657,-0.6137824058532715,-0.0033188543748110533],"min":[0.21277780830860138,0.7602537274360657,-0.6137824058532715,-0.0033188543748110533],"type":"VEC4"},{"bufferView":2,"componentType":5126,"count":1,"max":[0],"min":[0],"type":"SCALAR"},{"bufferView":3,"componentType":5126,"count":1,"max":[-0.05000000074505806,-0.08124999701976776,-0.643750011920929],"min":[-0.05000000074505806,-0.08124999701976776,-0.643750011920929],"type":"VEC3"},{"bufferView":4,"componentType":5126,"count":1,"max":[0],"min":[0],"type":"SCALAR"},{"bufferView":5,"componentType":5126,"count":1,"max":[1,1.5,1],"min":[1,1.5,1],"type":"VEC3"},{"bufferView":6,"componentType":5126,"count":1,"max":[0],"min":[0],"type":"SCALAR"},{"bufferView":7,"componentType":5126,"count":1,"max":[0.032794781029224396,-0.7511242032051086,0.6587182879447937,0.028760306537151337],"min":[0.032794781029224396,-0.7511242032051086,0.6587182879447937,0.028760306537151337],"type":"VEC4"},{"bufferView":8,"componentType":5126,"count":1,"max":[0],"min":[0],"type":"SCALAR"},{"bufferView":9,"componentType":5126,"count":1,"max":[0.03125,-0.0625,-0.0625],"min":[0.03125,-0.0625,-0.0625],"type":"VEC3"},{"bufferView":10,"componentType":5126,"count":1,"max":[0],"min":[0],"type":"SCALAR"},{"bufferView":11,"componentType":5126,"count":1,"max":[1,1.5,1],"min":[1,1.5,1],"type":"VEC3"},{"bufferView":12,"componentType":5126,"count":12,"max":[0.6499999761581421],"min":[0],"type":"SCALAR"},{"bufferView":13,"componentType":5126,"count":12,"max":[0.0008160840952768922,0.4038445055484772,0.26373377442359924,1],"min":[-0.37543946504592896,-0.0009067239006981254,-0.009603563696146011,0.7914538979530334],"type":"VEC4"},{"bufferView":14,"componentType":5126,"count":11,"max":[0.6499999761581421],"min":[0],"type":"SCALAR"},{"bufferView":15,"componentType":5126,"count":11,"max":[0.501171886920929,0.6262500286102295,0.768750011920929],"min":[0.3499999940395355,0,0.59375],"type":"VEC3"}]}