{"asset":{"version":"2.0","generator":"Blockbench 4.2.4 glTF exporter"},"scenes":[{"nodes":[13],"name":"blockbench_export"}],"scene":0,"nodes":[{"translation":[-0.5,-0.5,-0.5],"name":"2"},{"translation":[0.1875,0,0.1875],"name":"magazine_short2","children":[0]},{"translation":[0,-0.125,-0.4375],"name":"vector45_standard_mag","children":[1]},{"translation":[0.041331249999999986,-0.0625,0.12168125],"name":"fix"},{"translation":[-0.078579375,0.314453125,-0.51730125],"name":"chargehandle","children":[3]},{"translation":[0,-0.125,-0.25],"name":"vector45_bolt","children":[4]},{"name":"vector45","children":[2,5]},{"translation":[0.375,-0.6875,0],"name":"RightHand"},{"translation":[-0.375,0.5625,-0.25],"name":"R","children":[7]},{"name":"bone","children":[6,8]},{"translation":[-0.375,-0.6875,0],"name":"LeftHand"},{"translation":[0.375,0.5625,-0.25],"name":"l","children":[10]},{"translation":[0.5,0.625,0.75],"name":"bone2","children":[9,11]},{"children":[12]}],"animations":[{"name":"reload_empty","samplers":[{"input":0,"output":1,"interpolation":"LINEAR"},{"input":2,"output":3,"interpolation":"LINEAR"},{"input":4,"output":5,"interpolation":"LINEAR"},{"input":6,"output":7,"interpolation":"LINEAR"},{"input":8,"output":9,"interpolation":"LINEAR"},{"input":10,"output":11,"interpolation":"LINEAR"},{"input":12,"output":13,"interpolation":"LINEAR"},{"input":14,"output":15,"interpolation":"LINEAR"},{"input":16,"output":17,"interpolation":"LINEAR"},{"input":18,"output":19,"interpolation":"LINEAR"},{"input":20,"output":21,"interpolation":"LINEAR"},{"input":22,"output":23,"interpolation":"LINEAR"},{"input":24,"output":25,"interpolation":"LINEAR"}],"channels":[{"sampler":0,"target":{"node":11,"path":"rotation"}},{"sampler":1,"target":{"node":11,"path":"translation"}},{"sampler":2,"target":{"node":11,"path":"scale"}},{"sampler":3,"target":{"node":8,"path":"rotation"}},{"sampler":4,"target":{"node":8,"path":"translation"}},{"sampler":5,"target":{"node":8,"path":"scale"}},{"sampler":6,"target":{"node":12,"path":"rotation"}},{"sampler":7,"target":{"node":12,"path":"translation"}},{"sampler":8,"target":{"node":5,"path":"translation"}},{"sampler":9,"target":{"node":3,"path":"rotation"}},{"sampler":10,"target":{"node":2,"path":"rotation"}},{"sampler":11,"target":{"node":2,"path":"translation"}},{"sampler":12,"target":{"node":0,"path":"translation"}}]}],"bufferViews":[{"buffer":0,"byteOffset":0,"byteLength":160},{"buffer":0,"byteOffset":160,"byteLength":640},{"buffer":0,"byteOffset":800,"byteLength":168},{"buffer":0,"byteOffset":968,"byteLength":504},{"buffer":0,"byteOffset":1472,"byteLength":4},{"buffer":0,"byteOffset":1476,"byteLength":12},{"buffer":0,"byteOffset":1488,"byteLength":4},{"buffer":0,"byteOffset":1492,"byteLength":16},{"buffer":0,"byteOffset":1508,"byteLength":4},{"buffer":0,"byteOffset":1512,"byteLength":12},{"buffer":0,"byteOffset":1524,"byteLength":4},{"buffer":0,"byteOffset":1528,"byteLength":12},{"buffer":0,"byteOffset":1540,"byteLength":192},{"buffer":0,"byteOffset":1732,"byteLength":768},{"buffer":0,"byteOffset":2500,"byteLength":176},{"buffer":0,"byteOffset":2676,"byteLength":528},{"buffer":0,"byteOffset":3204,"byteLength":16},{"buffer":0,"byteOffset":3220,"byteLength":48},{"buffer":0,"byteOffset":3268,"byteLength":36},{"buffer":0,"byteOffset":3304,"byteLength":144},{"buffer":0,"byteOffset":3448,"byteLength":40},{"buffer":0,"byteOffset":3488,"byteLength":160},{"buffer":0,"byteOffset":3648,"byteLength":44},{"buffer":0,"byteOffset":3692,"byteLength":132},{"buffer":0,"byteOffset":3824,"byteLength":16},{"buffer":0,"byteOffset":3840,"byteLength":48}],"buffers":[{"byteLength":3888,"uri":"data:application/octet-stream;base64,"}],"accessors":[{"bufferView":0,"componentType":5126,"count":40,"max":[2.5],"min":[0],"type":"SCALAR"},{"bufferView":1,"componentType":5126,"count":40,"max":[0.657642126083374,0.8802383542060852,-0.15817700326442719,0.10312531888484955],"min":[0.0029961708933115005,0.4944850504398346,-0.8298344612121582,-0.671157717704773],"type":"VEC4"},{"bufferView":2,"componentType":5126,"count":42,"max":[2.5],"min":[0],"type":"SCALAR"},{"bufferView":3,"componentType":5126,"count":42,"max":[0.31312501430511475,0.08124999701976776,0.21062499284744263],"min":[-0.7494568824768066,-1.5475000143051147,-0.8187500238418579],"type":"VEC3"},{"bufferView":4,"componentType":5126,"count":1,"max":[0],"min":[0],"type":"SCALAR"},{"bufferView":5,"componentType":5126,"count":1,"max":[1,1.5,1],"min":[1,1.5,1],"type":"VEC3"},{"bufferView":6,"componentType":5126,"count":1,"max":[0],"min":[0],"type":"SCALAR"},{"bufferView":7,"componentType":5126,"count":1,"max":[0.032794781029224396,-0.7511242032051086,0.6587182879447937,0.028760306537151337],"min":[0.032794781029224396,-0.7511242032051086,0.6587182879447937,0.028760306537151337],"type":"VEC4"},{"bufferView":8,"componentType":5126,"count":1,"max":[0],"min":[0],"type":"SCALAR"},{"bufferView":9,"componentType":5126,"count":1,"max":[0.03125,-0.0625,-0.0625],"min":[0.03125,-0.0625,-0.0625],"type":"VEC3"},{"bufferView":10,"componentType":5126,"count":1,"max":[0],"min":[0],"type":"SCALAR"},{"bufferView":11,"componentType":5126,"count":1,"max":[1,1.5,1],"min":[1,1.5,1],"type":"VEC3"},{"bufferView":12,"componentType":5126,"count":48,"max":[2.75],"min":[0],"type":"SCALAR"},{"bufferView":13,"componentType":5126,"count":48,"max":[0.19167491793632507,0.07088427990674973,0.054576605558395386,1],"min":[-0.004623346030712128,-0.00009385187877342105,-0.36400991678237915,0.9110298752784729],"type":"VEC4"},{"bufferView":14,"componentType":5126,"count":44,"max":[2.75],"min":[0],"type":"SCALAR"},{"bufferView":15,"componentType":5126,"count":44,"max":[0.5,0.6381250023841858,0.7766874432563782],"min":[0.47331252694129944,0.5743749737739563,0.6429243683815002],"type":"VEC3"},{"bufferView":16,"componentType":5126,"count":4,"max":[2.200000047683716],"min":[2],"type":"SCALAR"},{"bufferView":17,"componentType":5126,"count":4,"max":[0,-0.125,-0.125],"min":[0,-0.125,-0.25],"type":"VEC3"},{"bufferView":18,"componentType":5126,"count":9,"max":[2.4000000953674316],"min":[1.9500000476837158],"type":"SCALAR"},{"bufferView":19,"componentType":5126,"count":9,"max":[0,0.7071067690849304,0,1],"min":[0,0,0,0.7071067690849304],"type":"VEC4"},{"bufferView":20,"componentType":5126,"count":10,"max":[1.600000023841858],"min":[0.550000011920929],"type":"SCALAR"},{"bufferView":21,"componentType":5126,"count":10,"max":[0.15035292506217957,0.07920458167791367,0.15035292506217957,1],"min":[-0.39604368805885315,-0.0231415294110775,-0.30725347995758057,0.8958379030227661],"type":"VEC4"},{"bufferView":22,"componentType":5126,"count":11,"max":[1.600000023841858],"min":[0.4000000059604645],"type":"SCALAR"},{"bufferView":23,"componentType":5126,"count":11,"max":[0.4296812415122986,-0.125,0.25593188405036926],"min":[-0.20010311901569366,-1.3929593563079834,-0.4375],"type":"VEC3"},{"bufferView":24,"componentType":5126,"count":4,"max":[1.899999976158142],"min":[0.8999999761581421],"type":"SCALAR"},{"bufferView":25,"componentType":5126,"count":4,"max":[-0.5,-0.4625000059604645,-0.5],"min":[-0.5,-0.5,-0.512499988079071],"type":"VEC3"}]}