{"asset":{"version":"2.0","generator":"Blockbench 4.2.4 glTF exporter"},"scenes":[{"nodes":[13],"name":"blockbench_export"}],"scene":0,"nodes":[{"translation":[-0.5,-0.5,-0.5],"name":"2"},{"translation":[0.1875,0,0.1875],"name":"magazine_short2","children":[0]},{"translation":[0,-0.125,-0.4375],"name":"vector45_standard_mag","children":[1]},{"translation":[0.041331249999999986,-0.0625,0.12168125],"name":"fix"},{"translation":[-0.078579375,0.314453125,-0.51730125],"name":"chargehandle","children":[3]},{"translation":[0,-0.125,-0.25],"name":"vector45_bolt","children":[4]},{"name":"vector45","children":[2,5]},{"translation":[0.375,-0.6875,0],"name":"RightHand"},{"translation":[-0.375,0.5625,-0.25],"name":"R","children":[7]},{"name":"bone","children":[6,8]},{"translation":[-0.375,-0.6875,0],"name":"LeftHand"},{"translation":[0.375,0.5625,-0.25],"name":"l","children":[10]},{"translation":[0.5,0.625,0.75],"name":"bone2","children":[9,11]},{"children":[12]}],"animations":[{"name":"static_state","samplers":[{"input":0,"output":1,"interpolation":"LINEAR"},{"input":2,"output":3,"interpolation":"LINEAR"},{"input":4,"output":5,"interpolation":"LINEAR"},{"input":6,"output":7,"interpolation":"LINEAR"},{"input":8,"output":9,"interpolation":"LINEAR"},{"input":10,"output":11,"interpolation":"LINEAR"},{"input":12,"output":13,"interpolation":"LINEAR"},{"input":14,"output":15,"interpolation":"LINEAR"}],"channels":[{"sampler":0,"target":{"node":11,"path":"rotation"}},{"sampler":1,"target":{"node":11,"path":"translation"}},{"sampler":2,"target":{"node":11,"path":"scale"}},{"sampler":3,"target":{"node":8,"path":"rotation"}},{"sampler":4,"target":{"node":8,"path":"translation"}},{"sampler":5,"target":{"node":8,"path":"scale"}},{"sampler":6,"target":{"node":12,"path":"rotation"}},{"sampler":7,"target":{"node":12,"path":"translation"}}]}],"bufferViews":[{"buffer":0,"byteOffset":0,"byteLength":24},{"buffer":0,"byteOffset":24,"byteLength":96},{"buffer":0,"byteOffset":120,"byteLength":84},{"buffer":0,"byteOffset":204,"byteLength":252},{"buffer":0,"byteOffset":456,"byteLength":4},{"buffer":0,"byteOffset":460,"byteLength":12},{"buffer":0,"byteOffset":472,"byteLength":4},{"buffer":0,"byteOffset":476,"byteLength":16},{"buffer":0,"byteOffset":492,"byteLength":4},{"buffer":0,"byteOffset":496,"byteLength":12},{"buffer":0,"byteOffset":508,"byteLength":4},{"buffer":0,"byteOffset":512,"byteLength":12},{"buffer":0,"byteOffset":524,"byteLength":296},{"buffer":0,"byteOffset":820,"byteLength":1184},{"buffer":0,"byteOffset":2004,"byteLength":296},{"buffer":0,"byteOffset":2300,"byteLength":888}],"buffers":[{"byteLength":3188,"uri":"data:application/octet-stream;base64,"}],"accessors":[{"bufferView":0,"componentType":5126,"count":6,"max":[4.550000190734863],"min":[0.05000000074505806],"type":"SCALAR"},{"bufferView":1,"componentType":5126,"count":6,"max":[0.235183447599411,0.7602537274360657,-0.5791404843330383,0.6035497188568115],"min":[-0.0697072297334671,0.543566882610321,-0.7807965874671936,-0.0033188543748110533],"type":"VEC4"},{"bufferView":2,"componentType":5126,"count":21,"max":[4.550000190734863],"min":[0],"type":"SCALAR"},{"bufferView":3,"componentType":5126,"count":21,"max":[0.5081762671470642,-0.02074749954044819,0.37902936339378357],"min":[-0.4165099859237671,-1.4990943670272827,-0.6651381254196167],"type":"VEC3"},{"bufferView":4,"componentType":5126,"count":1,"max":[0],"min":[0],"type":"SCALAR"},{"bufferView":5,"componentType":5126,"count":1,"max":[1,1.5,1],"min":[1,1.5,1],"type":"VEC3"},{"bufferView":6,"componentType":5126,"count":1,"max":[0],"min":[0],"type":"SCALAR"},{"bufferView":7,"componentType":5126,"count":1,"max":[0.032794781029224396,-0.7511242032051086,0.6587182879447937,0.028760306537151337],"min":[0.032794781029224396,-0.7511242032051086,0.6587182879447937,0.028760306537151337],"type":"VEC4"},{"bufferView":8,"componentType":5126,"count":1,"max":[0],"min":[0],"type":"SCALAR"},{"bufferView":9,"componentType":5126,"count":1,"max":[0.03125,-0.0625,-0.0625],"min":[0.03125,-0.0625,-0.0625],"type":"VEC3"},{"bufferView":10,"componentType":5126,"count":1,"max":[0],"min":[0],"type":"SCALAR"},{"bufferView":11,"componentType":5126,"count":1,"max":[1,1.5,1],"min":[1,1.5,1],"type":"VEC3"},{"bufferView":12,"componentType":5126,"count":74,"max":[4.900000095367432],"min":[0],"type":"SCALAR"},{"bufferView":13,"componentType":5126,"count":74,"max":[0.2905741333961487,0.23232755064964294,0.5964714884757996,1],"min":[-0.00015608262037858367,0,-0.5406607389450073,0.7511870265007019],"type":"VEC4"},{"bufferView":14,"componentType":5126,"count":74,"max":[4.849999904632568],"min":[0],"type":"SCALAR"},{"bufferView":15,"componentType":5126,"count":74,"max":[0.5,0.6965625286102295,0.7768750190734863],"min":[0.4012500047683716,0.5693749785423279,0.6581249833106995],"type":"VEC3"}]}