{"asset":{"version":"2.0","generator":"Blockbench 4.2.4 glTF exporter"},"scenes":[{"nodes":[7],"name":"blockbench_export"}],"scene":0,"nodes":[{"translation":[0.5,0.5,0.5],"name":"left"},{"translation":[0,0.125,-0.3125],"name":"right"},{"translation":[0,0.40966812500000005,-0.5625],"name":"slide"},{"translation":[0,0.3125,-0.5625],"name":"Magazine"},{"translation":[0,-0.125,0.25],"name":"magazine2","children":[3]},{"translation":[0,-0.0625,0],"name":"gun","children":[2,4]},{"translation":[0.5,0.375,0.8125],"name":"bone","children":[1,5]},{"children":[0,6]}],"animations":[{"name":"draw","samplers":[{"input":0,"output":1,"interpolation":"LINEAR"},{"input":2,"output":3,"interpolation":"LINEAR"},{"input":4,"output":5,"interpolation":"LINEAR"},{"input":6,"output":7,"interpolation":"LINEAR"},{"input":8,"output":9,"interpolation":"LINEAR"},{"input":10,"output":11,"interpolation":"LINEAR"},{"input":12,"output":13,"interpolation":"LINEAR"},{"input":14,"output":15,"interpolation":"LINEAR"},{"input":16,"output":17,"interpolation":"LINEAR"}],"channels":[{"sampler":0,"target":{"node":0,"path":"rotation"}},{"sampler":1,"target":{"node":0,"path":"translation"}},{"sampler":2,"target":{"node":0,"path":"scale"}},{"sampler":3,"target":{"node":6,"path":"rotation"}},{"sampler":4,"target":{"node":6,"path":"translation"}},{"sampler":5,"target":{"node":6,"path":"scale"}},{"sampler":6,"target":{"node":1,"path":"rotation"}},{"sampler":7,"target":{"node":1,"path":"translation"}},{"sampler":8,"target":{"node":1,"path":"scale"}}]}],"bufferViews":[{"buffer":0,"byteOffset":0,"byteLength":4},{"buffer":0,"byteOffset":4,"byteLength":16},{"buffer":0,"byteOffset":20,"byteLength":4},{"buffer":0,"byteOffset":24,"byteLength":12},{"buffer":0,"byteOffset":36,"byteLength":4},{"buffer":0,"byteOffset":40,"byteLength":12},{"buffer":0,"byteOffset":52,"byteLength":28},{"buffer":0,"byteOffset":80,"byteLength":112},{"buffer":0,"byteOffset":192,"byteLength":28},{"buffer":0,"byteOffset":220,"byteLength":84},{"buffer":0,"byteOffset":304,"byteLength":16},{"buffer":0,"byteOffset":320,"byteLength":48},{"buffer":0,"byteOffset":368,"byteLength":4},{"buffer":0,"byteOffset":372,"byteLength":16},{"buffer":0,"byteOffset":388,"byteLength":4},{"buffer":0,"byteOffset":392,"byteLength":12},{"buffer":0,"byteOffset":404,"byteLength":4},{"buffer":0,"byteOffset":408,"byteLength":12}],"buffers":[{"byteLength":420,"uri":"data:application/octet-stream;base64,"}],"accessors":[{"bufferView":0,"componentType":5126,"count":1,"max":[0],"min":[0],"type":"SCALAR"},{"bufferView":1,"componentType":5126,"count":1,"max":[-0.6087614297866821,0,0,0.7933533191680908],"min":[-0.6087614297866821,0,0,0.7933533191680908],"type":"VEC4"},{"bufferView":2,"componentType":5126,"count":1,"max":[0],"min":[0],"type":"SCALAR"},{"bufferView":3,"componentType":5126,"count":1,"max":[-0.5,-0.4375,2.75],"min":[-0.5,-0.4375,2.75],"type":"VEC3"},{"bufferView":4,"componentType":5126,"count":1,"max":[0],"min":[0],"type":"SCALAR"},{"bufferView":5,"componentType":5126,"count":1,"max":[1.149999976158142,1.625,1.149999976158142],"min":[1.149999976158142,1.625,1.149999976158142],"type":"VEC3"},{"bufferView":6,"componentType":5126,"count":7,"max":[0.7083333134651184],"min":[0],"type":"SCALAR"},{"bufferView":7,"componentType":5126,"count":7,"max":[0.49242356419563293,0.008726535364985466,0,1],"min":[-0.004368457943201065,-0.02617005445063114,-0.0002664026396814734,0.8703557252883911],"type":"VEC4"},{"bufferView":8,"componentType":5126,"count":7,"max":[0.7083333134651184],"min":[0],"type":"SCALAR"},{"bufferView":9,"componentType":5126,"count":7,"max":[0.5,0.6312500238418579,1.521875023841858],"min":[0.5,-0.3031249940395355,0.796875],"type":"VEC3"},{"bufferView":10,"componentType":5126,"count":4,"max":[0.4166666567325592],"min":[0],"type":"SCALAR"},{"bufferView":11,"componentType":5126,"count":4,"max":[1,1,1],"min":[1,1,1],"type":"VEC3"},{"bufferView":12,"componentType":5126,"count":1,"max":[0],"min":[0],"type":"SCALAR"},{"bufferView":13,"componentType":5126,"count":1,"max":[-0.6087614297866821,0,0,0.7933533191680908],"min":[-0.6087614297866821,0,0,0.7933533191680908],"type":"VEC4"},{"bufferView":14,"componentType":5126,"count":1,"max":[0],"min":[0],"type":"SCALAR"},{"bufferView":15,"componentType":5126,"count":1,"max":[0.4281249940395355,-0.390625,1.109375],"min":[0.4281249940395355,-0.390625,1.109375],"type":"VEC3"},{"bufferView":16,"componentType":5126,"count":1,"max":[0],"min":[0],"type":"SCALAR"},{"bufferView":17,"componentType":5126,"count":1,"max":[1.149999976158142,1.625,1.149999976158142],"min":[1.149999976158142,1.625,1.149999976158142],"type":"VEC3"}]}