{"asset":{"version":"2.0","generator":"Blockbench 4.2.4 glTF exporter"},"scenes":[{"nodes":[8],"name":"blockbench_export"}],"scene":0,"nodes":[{"translation":[0.0013943749999999477,-0.4129275,0.7069506249999993],"name":"magazine"},{"name":"slide"},{"translation":[0,-0.1875000000000001,-0.062499999999999556],"name":"Deagle_357","children":[0,1]},{"translation":[0.375,-0.5,0],"name":"RightHand"},{"rotation":[0,1.6732591974474312e-16,0,1],"translation":[-0.375,0.3374999999999999,-0.6187500000000008],"name":"R","children":[3]},{"translation":[0.5,0.6625000000000001,1.1187500000000008],"name":"bone","children":[2,4]},{"translation":[-0.375,-0.5,0],"name":"LeftHand"},{"translation":[0.875,1,0.5],"name":"L","children":[6]},{"children":[5,7]}],"animations":[{"name":"empty_reloading","samplers":[{"input":0,"output":1,"interpolation":"LINEAR"},{"input":2,"output":3,"interpolation":"LINEAR"},{"input":4,"output":5,"interpolation":"LINEAR"},{"input":6,"output":7,"interpolation":"LINEAR"},{"input":8,"output":9,"interpolation":"LINEAR"},{"input":10,"output":11,"interpolation":"LINEAR"},{"input":12,"output":13,"interpolation":"LINEAR"},{"input":14,"output":15,"interpolation":"LINEAR"},{"input":16,"output":17,"interpolation":"LINEAR"},{"input":18,"output":19,"interpolation":"LINEAR"},{"input":20,"output":21,"interpolation":"LINEAR"}],"channels":[{"sampler":0,"target":{"node":0,"path":"rotation"}},{"sampler":1,"target":{"node":0,"path":"translation"}},{"sampler":2,"target":{"node":1,"path":"translation"}},{"sampler":3,"target":{"node":4,"path":"rotation"}},{"sampler":4,"target":{"node":4,"path":"translation"}},{"sampler":5,"target":{"node":4,"path":"scale"}},{"sampler":6,"target":{"node":5,"path":"rotation"}},{"sampler":7,"target":{"node":5,"path":"translation"}},{"sampler":8,"target":{"node":7,"path":"rotation"}},{"sampler":9,"target":{"node":7,"path":"translation"}},{"sampler":10,"target":{"node":7,"path":"scale"}}]}],"bufferViews":[{"buffer":0,"byteOffset":0,"byteLength":84},{"buffer":0,"byteOffset":84,"byteLength":336},{"buffer":0,"byteOffset":420,"byteLength":80},{"buffer":0,"byteOffset":500,"byteLength":240},{"buffer":0,"byteOffset":740,"byteLength":20},{"buffer":0,"byteOffset":760,"byteLength":60},{"buffer":0,"byteOffset":820,"byteLength":144},{"buffer":0,"byteOffset":964,"byteLength":576},{"buffer":0,"byteOffset":1540,"byteLength":140},{"buffer":0,"byteOffset":1680,"byteLength":420},{"buffer":0,"byteOffset":2100,"byteLength":4},{"buffer":0,"byteOffset":2104,"byteLength":12},{"buffer":0,"byteOffset":2116,"byteLength":200},{"buffer":0,"byteOffset":2316,"byteLength":800},{"buffer":0,"byteOffset":3116,"byteLength":204},{"buffer":0,"byteOffset":3320,"byteLength":612},{"buffer":0,"byteOffset":3932,"byteLength":128},{"buffer":0,"byteOffset":4060,"byteLength":512},{"buffer":0,"byteOffset":4572,"byteLength":132},{"buffer":0,"byteOffset":4704,"byteLength":396},{"buffer":0,"byteOffset":5100,"byteLength":4},{"buffer":0,"byteOffset":5104,"byteLength":12}],"buffers":[{"byteLength":5116,"uri":"data:application/octet-stream;base64,"}],"accessors":[{"bufferView":0,"componentType":5126,"count":21,"max":[1.4166666269302368],"min":[0],"type":"SCALAR"},{"bufferView":1,"componentType":5126,"count":21,"max":[0.2847473919391632,0.05145339295268059,0.7798844575881958,1],"min":[-0.015404569916427135,-0.09665871411561966,-0.30656227469444275,0.6259234547615051],"type":"VEC4"},{"bufferView":2,"componentType":5126,"count":20,"max":[1.5416666269302368],"min":[0],"type":"SCALAR"},{"bufferView":3,"componentType":5126,"count":20,"max":[0.2513943612575531,-0.412927508354187,0.8644506335258484],"min":[-0.9592306017875671,-4.036052703857422,0.3007006347179413],"type":"VEC3"},{"bufferView":4,"componentType":5126,"count":5,"max":[2.3333332538604736],"min":[0],"type":"SCALAR"},{"bufferView":5,"componentType":5126,"count":5,"max":[0,0,0.4375],"min":[0,0,0],"type":"VEC3"},{"bufferView":6,"componentType":5126,"count":36,"max":[1.875],"min":[0],"type":"SCALAR"},{"bufferView":7,"componentType":5126,"count":36,"max":[0.08664002269506454,0.7372773289680481,-0.6710081696510315,0.07942372560501099],"min":[-0.005682065617293119,0.7320747375488281,-0.6756265759468079,-0.005192491691559553],"type":"VEC4"},{"bufferView":8,"componentType":5126,"count":35,"max":[1.875],"min":[0],"type":"SCALAR"},{"bufferView":9,"componentType":5126,"count":35,"max":[0.11562500149011612,-0.40797924995422363,0.8046875],"min":[-0.011584999971091747,-0.4537599980831146,0.7250000238418579],"type":"VEC3"},{"bufferView":10,"componentType":5126,"count":1,"max":[0],"min":[0],"type":"SCALAR"},{"bufferView":11,"componentType":5126,"count":1,"max":[2,2.9000000953674316,2],"min":[2,2.9000000953674316,2],"type":"VEC3"},{"bufferView":12,"componentType":5126,"count":50,"max":[3.125],"min":[0],"type":"SCALAR"},{"bufferView":13,"componentType":5126,"count":50,"max":[0.5579977035522461,0.4756513833999634,0.724989116191864,1],"min":[-0.04713654890656471,-0.18339990079402924,-0.3718491494655609,0.6528788805007935],"type":"VEC4"},{"bufferView":14,"componentType":5126,"count":51,"max":[3.0416667461395264],"min":[0],"type":"SCALAR"},{"bufferView":15,"componentType":5126,"count":51,"max":[0.5699218511581421,1.3174999952316284,1.3493750095367432],"min":[0.10125000029802322,0.6212109327316284,1.115908145904541],"type":"VEC3"},{"bufferView":16,"componentType":5126,"count":32,"max":[2.7916667461395264],"min":[0],"type":"SCALAR"},{"bufferView":17,"componentType":5126,"count":32,"max":[0.18437156081199646,0.9923478960990906,0.20266912877559662,0.6797463297843933],"min":[-0.37169915437698364,0.5789628624916077,-0.7223639488220215,-0.21624930202960968],"type":"VEC4"},{"bufferView":18,"componentType":5126,"count":33,"max":[2.7916667461395264],"min":[0],"type":"SCALAR"},{"bufferView":19,"componentType":5126,"count":33,"max":[-0.3410937488079071,0.44874998927116394,2.4375],"min":[-1.3015625476837158,-1.5625,0.8050000071525574],"type":"VEC3"},{"bufferView":20,"componentType":5126,"count":1,"max":[0],"min":[0],"type":"SCALAR"},{"bufferView":21,"componentType":5126,"count":1,"max":[2,2.9000000953674316,2],"min":[2,2.9000000953674316,2],"type":"VEC3"}]}