{"asset":{"version":"2.0","generator":"Blockbench 4.2.4 glTF exporter"},"scenes":[{"nodes":[8],"name":"blockbench_export"}],"scene":0,"nodes":[{"translation":[0.0013943749999999477,-0.4129275,0.7069506249999993],"name":"magazine"},{"name":"slide"},{"translation":[0,-0.1875000000000001,-0.062499999999999556],"name":"Deagle_357","children":[0,1]},{"translation":[0.375,-0.5,0],"name":"RightHand"},{"rotation":[0,1.6732591974474312e-16,0,1],"translation":[-0.375,0.3374999999999999,-0.6187500000000008],"name":"R","children":[3]},{"translation":[0.5,0.6625000000000001,1.1187500000000008],"name":"bone","children":[2,4]},{"translation":[-0.375,-0.5,0],"name":"LeftHand"},{"translation":[0.875,1,0.5],"name":"L","children":[6]},{"children":[5,7]}],"animations":[{"name":"draw","samplers":[{"input":0,"output":1,"interpolation":"LINEAR"},{"input":2,"output":3,"interpolation":"LINEAR"},{"input":4,"output":5,"interpolation":"LINEAR"},{"input":6,"output":7,"interpolation":"STEP"},{"input":8,"output":9,"interpolation":"STEP"},{"input":10,"output":11,"interpolation":"LINEAR"},{"input":12,"output":13,"interpolation":"LINEAR"},{"input":14,"output":15,"interpolation":"LINEAR"}],"channels":[{"sampler":0,"target":{"node":4,"path":"rotation"}},{"sampler":1,"target":{"node":4,"path":"translation"}},{"sampler":2,"target":{"node":4,"path":"scale"}},{"sampler":3,"target":{"node":7,"path":"rotation"}},{"sampler":4,"target":{"node":7,"path":"translation"}},{"sampler":5,"target":{"node":7,"path":"scale"}},{"sampler":6,"target":{"node":5,"path":"rotation"}},{"sampler":7,"target":{"node":5,"path":"translation"}}]}],"bufferViews":[{"buffer":0,"byteOffset":0,"byteLength":4},{"buffer":0,"byteOffset":4,"byteLength":16},{"buffer":0,"byteOffset":20,"byteLength":4},{"buffer":0,"byteOffset":24,"byteLength":12},{"buffer":0,"byteOffset":36,"byteLength":4},{"buffer":0,"byteOffset":40,"byteLength":12},{"buffer":0,"byteOffset":52,"byteLength":4},{"buffer":0,"byteOffset":56,"byteLength":16},{"buffer":0,"byteOffset":72,"byteLength":4},{"buffer":0,"byteOffset":76,"byteLength":12},{"buffer":0,"byteOffset":88,"byteLength":4},{"buffer":0,"byteOffset":92,"byteLength":12},{"buffer":0,"byteOffset":104,"byteLength":52},{"buffer":0,"byteOffset":156,"byteLength":208},{"buffer":0,"byteOffset":364,"byteLength":48},{"buffer":0,"byteOffset":412,"byteLength":144}],"buffers":[{"byteLength":556,"uri":"data:application/octet-stream;base64,"}],"accessors":[{"bufferView":0,"componentType":5126,"count":1,"max":[0],"min":[0],"type":"SCALAR"},{"bufferView":1,"componentType":5126,"count":1,"max":[6.789853824626404e-17,0.7372773289680481,-0.6755902171134949,1.647335748553071e-16],"min":[6.789853824626404e-17,0.7372773289680481,-0.6755902171134949,1.647335748553071e-16],"type":"VEC4"},{"bufferView":2,"componentType":5126,"count":1,"max":[0],"min":[0],"type":"SCALAR"},{"bufferView":3,"componentType":5126,"count":1,"max":[0,-0.44999998807907104,0.7250000238418579],"min":[0,-0.44999998807907104,0.7250000238418579],"type":"VEC3"},{"bufferView":4,"componentType":5126,"count":1,"max":[0],"min":[0],"type":"SCALAR"},{"bufferView":5,"componentType":5126,"count":1,"max":[2,2.9000000953674316,2],"min":[2,2.9000000953674316,2],"type":"VEC3"},{"bufferView":6,"componentType":5126,"count":1,"max":[0],"min":[0],"type":"SCALAR"},{"bufferView":7,"componentType":5126,"count":1,"max":[-4.234296196628321e-17,0.6915130615234375,-0.7223639488220215,4.423203734456241e-17],"min":[-4.234296196628321e-17,0.6915130615234375,-0.7223639488220215,4.423203734456241e-17],"type":"VEC4"},{"bufferView":8,"componentType":5126,"count":1,"max":[0],"min":[0],"type":"SCALAR"},{"bufferView":9,"componentType":5126,"count":1,"max":[-0.75,-1.5625,2.4375],"min":[-0.75,-1.5625,2.4375],"type":"VEC3"},{"bufferView":10,"componentType":5126,"count":1,"max":[0],"min":[0],"type":"SCALAR"},{"bufferView":11,"componentType":5126,"count":1,"max":[2,2.9000000953674316,2],"min":[2,2.9000000953674316,2],"type":"VEC3"},{"bufferView":12,"componentType":5126,"count":13,"max":[0.7638888955116272],"min":[0],"type":"SCALAR"},{"bufferView":13,"componentType":5126,"count":13,"max":[0.018883896991610527,0.5487638711929321,0.30116593837738037,1],"min":[-0.2826597988605499,-0.005739415064454079,-0.008723629638552666,0.7268584966659546],"type":"VEC4"},{"bufferView":14,"componentType":5126,"count":12,"max":[0.8055555820465088],"min":[0],"type":"SCALAR"},{"bufferView":15,"componentType":5126,"count":12,"max":[0.5283203125,0.6788281202316284,1.881250023841858],"min":[-0.17249999940395355,-0.8999999761581421,0.9312499761581421],"type":"VEC3"}]}