{"asset":{"version":"2.0","generator":"Blockbench 4.2.4 glTF exporter"},"scenes":[{"nodes":[9],"name":"blockbench_export"}],"scene":0,"nodes":[{"translation":[0.493688125,0.963275,-0.28859999999999997],"name":"slide"},{"translation":[-0.59257,-0.496985625,-0.14890000000000003],"name":"parts","children":[0]},{"translation":[-0.12930625,-0.067068125,0.1862418749999999],"name":"magazine"},{"name":"glcok17","children":[1,2]},{"translation":[0.375,-0.625,0],"name":"RightHand"},{"translation":[-0.375,0.875,-0.375],"name":"R","children":[4]},{"translation":[0.5,0.25,0.875],"name":"bone","children":[3,5]},{"translation":[-0.375,-0.625,0],"name":"LeftHand"},{"translation":[0.875,1.125,0.5],"name":"L","children":[7]},{"children":[6,8]}],"animations":[{"name":"reload_norm","samplers":[{"input":0,"output":1,"interpolation":"LINEAR"},{"input":2,"output":3,"interpolation":"LINEAR"},{"input":4,"output":5,"interpolation":"LINEAR"},{"input":6,"output":7,"interpolation":"LINEAR"},{"input":8,"output":9,"interpolation":"LINEAR"},{"input":10,"output":11,"interpolation":"LINEAR"},{"input":12,"output":13,"interpolation":"LINEAR"},{"input":14,"output":15,"interpolation":"LINEAR"},{"input":16,"output":17,"interpolation":"LINEAR"},{"input":18,"output":19,"interpolation":"LINEAR"}],"channels":[{"sampler":0,"target":{"node":6,"path":"rotation"}},{"sampler":1,"target":{"node":6,"path":"translation"}},{"sampler":2,"target":{"node":2,"path":"rotation"}},{"sampler":3,"target":{"node":2,"path":"translation"}},{"sampler":4,"target":{"node":5,"path":"rotation"}},{"sampler":5,"target":{"node":5,"path":"translation"}},{"sampler":6,"target":{"node":5,"path":"scale"}},{"sampler":7,"target":{"node":8,"path":"rotation"}},{"sampler":8,"target":{"node":8,"path":"translation"}},{"sampler":9,"target":{"node":8,"path":"scale"}}]}],"bufferViews":[{"buffer":0,"byteOffset":0,"byteLength":112},{"buffer":0,"byteOffset":112,"byteLength":448},{"buffer":0,"byteOffset":560,"byteLength":124},{"buffer":0,"byteOffset":684,"byteLength":372},{"buffer":0,"byteOffset":1056,"byteLength":64},{"buffer":0,"byteOffset":1120,"byteLength":256},{"buffer":0,"byteOffset":1376,"byteLength":64},{"buffer":0,"byteOffset":1440,"byteLength":192},{"buffer":0,"byteOffset":1632,"byteLength":76},{"buffer":0,"byteOffset":1708,"byteLength":304},{"buffer":0,"byteOffset":2012,"byteLength":76},{"buffer":0,"byteOffset":2088,"byteLength":228},{"buffer":0,"byteOffset":2316,"byteLength":4},{"buffer":0,"byteOffset":2320,"byteLength":12},{"buffer":0,"byteOffset":2332,"byteLength":136},{"buffer":0,"byteOffset":2468,"byteLength":544},{"buffer":0,"byteOffset":3012,"byteLength":128},{"buffer":0,"byteOffset":3140,"byteLength":384},{"buffer":0,"byteOffset":3524,"byteLength":4},{"buffer":0,"byteOffset":3528,"byteLength":12}],"buffers":[{"byteLength":3540,"uri":"data:application/octet-stream;base64,"}],"accessors":[{"bufferView":0,"componentType":5126,"count":28,"max":[1.899999976158142],"min":[0],"type":"SCALAR"},{"bufferView":1,"componentType":5126,"count":28,"max":[0.423357218503952,0.3090769052505493,0.005676917731761932,1],"min":[0,0,-0.3296964168548584,0.816804826259613],"type":"VEC4"},{"bufferView":2,"componentType":5126,"count":31,"max":[1.899999976158142],"min":[0],"type":"SCALAR"},{"bufferView":3,"componentType":5126,"count":31,"max":[0.5,0.5249999761581421,1.068750023841858],"min":[0.3687500059604645,0.23028157651424408,0.875],"type":"VEC3"},{"bufferView":4,"componentType":5126,"count":16,"max":[1.399999976158142],"min":[0],"type":"SCALAR"},{"bufferView":5,"componentType":5126,"count":16,"max":[0.4296228587627411,0.003921018913388252,0.005406137555837631,1],"min":[-0.034628868103027344,-0.19726143777370453,-0.3217232823371887,0.8203696012496948],"type":"VEC4"},{"bufferView":6,"componentType":5126,"count":16,"max":[1.399999976158142],"min":[0],"type":"SCALAR"},{"bufferView":7,"componentType":5126,"count":16,"max":[-0.12930625677108765,-0.06706812232732773,1.2074918746948242],"min":[-0.7105562686920166,-2.2201931476593018,0.18624188005924225],"type":"VEC3"},{"bufferView":8,"componentType":5126,"count":19,"max":[1.100000023841858],"min":[0],"type":"SCALAR"},{"bufferView":9,"componentType":5126,"count":19,"max":[-4.6906692768028125e-17,-0.7651759386062622,0.6437192559242249,0.05030037462711334],"min":[-0.041750289499759674,-0.7755012512207031,0.6279526948928833,3.9359390979975894e-17],"type":"VEC4"},{"bufferView":10,"componentType":5126,"count":19,"max":[1.100000023841858],"min":[0],"type":"SCALAR"},{"bufferView":11,"componentType":5126,"count":19,"max":[0,0.05624999850988388,-0.08427762240171432],"min":[0,0.04282931983470917,-0.13124999403953552],"type":"VEC3"},{"bufferView":12,"componentType":5126,"count":1,"max":[0],"min":[0],"type":"SCALAR"},{"bufferView":13,"componentType":5126,"count":1,"max":[1.75,2,1.75],"min":[1.75,2,1.75],"type":"VEC3"},{"bufferView":14,"componentType":5126,"count":34,"max":[1.899999976158142],"min":[0],"type":"SCALAR"},{"bufferView":15,"componentType":5126,"count":34,"max":[0.2596151530742645,0.8510826826095581,-0.3091859817504883,0.48108816146850586],"min":[-0.2352965772151947,0.518279492855072,-0.8540982007980347,-0.09326761960983276],"type":"VEC4"},{"bufferView":16,"componentType":5126,"count":32,"max":[1.899999976158142],"min":[0],"type":"SCALAR"},{"bufferView":17,"componentType":5126,"count":32,"max":[0.13124999403953552,0.3125,0.8187500238418579],"min":[-1.118749976158142,-1.9375,0.3125],"type":"VEC3"},{"bufferView":18,"componentType":5126,"count":1,"max":[0],"min":[0],"type":"SCALAR"},{"bufferView":19,"componentType":5126,"count":1,"max":[1.75,2,1.75],"min":[1.75,2,1.75],"type":"VEC3"}]}