{"asset":{"version":"2.0","generator":"Blockbench 4.2.4 glTF exporter"},"scenes":[{"nodes":[8],"name":"blockbench_export"}],"scene":0,"nodes":[{"translation":[-0.375,-0.6875,0],"name":"LeftHand"},{"translation":[0.375,0.875,-0.5],"name":"l","children":[0]},{"translation":[0.375,-0.6875,0],"name":"RightHand"},{"translation":[-0.375,0.875,-0.5],"name":"r","children":[2]},{"translation":[0,-0.264173125,0.12600187500000004],"name":"magazine"},{"translation":[0,-1.2641731250000001,1.251001875],"name":"magazine2"},{"translation":[0,0.1875,-0.5],"name":"group2","children":[4,5]},{"translation":[0.5,0.3125,1],"name":"bone","children":[1,3,6]},{"children":[7]}],"animations":[{"name":"reload_empty","samplers":[{"input":0,"output":1,"interpolation":"LINEAR"},{"input":2,"output":3,"interpolation":"LINEAR"},{"input":4,"output":5,"interpolation":"LINEAR"},{"input":6,"output":7,"interpolation":"LINEAR"},{"input":8,"output":9,"interpolation":"LINEAR"},{"input":10,"output":11,"interpolation":"LINEAR"},{"input":12,"output":13,"interpolation":"LINEAR"},{"input":14,"output":15,"interpolation":"LINEAR"},{"input":16,"output":17,"interpolation":"LINEAR"},{"input":18,"output":19,"interpolation":"LINEAR"}],"channels":[{"sampler":0,"target":{"node":7,"path":"rotation"}},{"sampler":1,"target":{"node":7,"path":"translation"}},{"sampler":2,"target":{"node":1,"path":"rotation"}},{"sampler":3,"target":{"node":1,"path":"translation"}},{"sampler":4,"target":{"node":1,"path":"scale"}},{"sampler":5,"target":{"node":3,"path":"rotation"}},{"sampler":6,"target":{"node":3,"path":"translation"}},{"sampler":7,"target":{"node":3,"path":"scale"}},{"sampler":8,"target":{"node":4,"path":"rotation"}},{"sampler":9,"target":{"node":4,"path":"translation"}}]}],"bufferViews":[{"buffer":0,"byteOffset":0,"byteLength":192},{"buffer":0,"byteOffset":192,"byteLength":768},{"buffer":0,"byteOffset":960,"byteLength":204},{"buffer":0,"byteOffset":1164,"byteLength":612},{"buffer":0,"byteOffset":1776,"byteLength":180},{"buffer":0,"byteOffset":1956,"byteLength":720},{"buffer":0,"byteOffset":2676,"byteLength":164},{"buffer":0,"byteOffset":2840,"byteLength":492},{"buffer":0,"byteOffset":3332,"byteLength":4},{"buffer":0,"byteOffset":3336,"byteLength":12},{"buffer":0,"byteOffset":3348,"byteLength":4},{"buffer":0,"byteOffset":3352,"byteLength":16},{"buffer":0,"byteOffset":3368,"byteLength":4},{"buffer":0,"byteOffset":3372,"byteLength":12},{"buffer":0,"byteOffset":3384,"byteLength":4},{"buffer":0,"byteOffset":3388,"byteLength":12},{"buffer":0,"byteOffset":3400,"byteLength":72},{"buffer":0,"byteOffset":3472,"byteLength":288},{"buffer":0,"byteOffset":3760,"byteLength":72},{"buffer":0,"byteOffset":3832,"byteLength":216}],"buffers":[{"byteLength":4048,"uri":"data:application/octet-stream;base64,"}],"accessors":[{"bufferView":0,"componentType":5126,"count":48,"max":[3.0999999046325684],"min":[0],"type":"SCALAR"},{"bufferView":1,"componentType":5126,"count":48,"max":[0.2608332633972168,0.22133111953735352,0.30901700258255005,1],"min":[-0.01800399273633957,-0.022401772439479828,-0.4185885488986969,0.8440627455711365],"type":"VEC4"},{"bufferView":2,"componentType":5126,"count":51,"max":[3.0999999046325684],"min":[0],"type":"SCALAR"},{"bufferView":3,"componentType":5126,"count":51,"max":[0.7173500061035156,0.4012500047683716,1.024999976158142],"min":[0.4375,0.2400694489479065,0.84375],"type":"VEC3"},{"bufferView":4,"componentType":5126,"count":45,"max":[2.75],"min":[0],"type":"SCALAR"},{"bufferView":5,"componentType":5126,"count":45,"max":[0.40648528933525085,-0.39195114374160767,0.7949578166007996,0.5132494568824768],"min":[-0.5983021259307861,-0.976058304309845,0.1909453570842743,-0.5091785788536072],"type":"VEC4"},{"bufferView":6,"componentType":5126,"count":41,"max":[2.75],"min":[0],"type":"SCALAR"},{"bufferView":7,"componentType":5126,"count":41,"max":[-0.0054687499068677425,0.16325445473194122,-0.29374998807907104],"min":[-1.0808427333831787,-1.4352778196334839,-0.8644006848335266],"type":"VEC3"},{"bufferView":8,"componentType":5126,"count":1,"max":[0],"min":[0],"type":"SCALAR"},{"bufferView":9,"componentType":5126,"count":1,"max":[1,1.5,1],"min":[1,1.5,1],"type":"VEC3"},{"bufferView":10,"componentType":5126,"count":1,"max":[0],"min":[0],"type":"SCALAR"},{"bufferView":11,"componentType":5126,"count":1,"max":[-4.6906692768028125e-17,-0.7660444378852844,0.6427876353263855,3.9359390979975894e-17],"min":[-4.6906692768028125e-17,-0.7660444378852844,0.6427876353263855,3.9359390979975894e-17],"type":"VEC4"},{"bufferView":12,"componentType":5126,"count":1,"max":[0],"min":[0],"type":"SCALAR"},{"bufferView":13,"componentType":5126,"count":1,"max":[0,-0.02500000037252903,-0.0625],"min":[0,-0.02500000037252903,-0.0625],"type":"VEC3"},{"bufferView":14,"componentType":5126,"count":1,"max":[0],"min":[0],"type":"SCALAR"},{"bufferView":15,"componentType":5126,"count":1,"max":[1,1.5,1],"min":[1,1.5,1],"type":"VEC3"},{"bufferView":16,"componentType":5126,"count":18,"max":[1.2999999523162842],"min":[0],"type":"SCALAR"},{"bufferView":17,"componentType":5126,"count":18,"max":[0.019034069031476974,0.015131362713873386,0.9940796494483948,1],"min":[-0.008710258640348911,-0.0009636043105274439,-0.760405957698822,-0.8419348001480103],"type":"VEC4"},{"bufferView":18,"componentType":5126,"count":18,"max":[1.2999999523162842],"min":[0],"type":"SCALAR"},{"bufferView":19,"componentType":5126,"count":18,"max":[0.03755144029855728,-0.26417312026023865,0.15725187957286835],"min":[-0.8399999737739563,-2.0529232025146484,0.124501533806324],"type":"VEC3"}]}