{"asset":{"version":"2.0","generator":"Blockbench 4.2.4 glTF exporter"},"scenes":[{"nodes":[7],"name":"blockbench_export"}],"scene":0,"nodes":[{"translation":[0,-0.03701437499999999,-0.017927499999999985],"name":"Magazine"},{"name":"gun","children":[0]},{"translation":[0.375,-0.625,0],"name":"RightHand"},{"translation":[-0.375,0.8125,0.125],"name":"R","children":[2]},{"translation":[-0.375,-0.625,0],"name":"LeftHand"},{"translation":[0.375,0.8125,0.125],"name":"L","children":[4]},{"translation":[0.5,0.3125,0.375],"name":"bone","children":[1,3,5]},{"children":[6]}],"animations":[{"name":"reload_norm","samplers":[{"input":0,"output":1,"interpolation":"LINEAR"},{"input":2,"output":3,"interpolation":"LINEAR"},{"input":4,"output":5,"interpolation":"LINEAR"},{"input":6,"output":7,"interpolation":"LINEAR"},{"input":8,"output":9,"interpolation":"LINEAR"},{"input":10,"output":11,"interpolation":"LINEAR"},{"input":12,"output":13,"interpolation":"LINEAR"},{"input":14,"output":15,"interpolation":"LINEAR"},{"input":16,"output":17,"interpolation":"LINEAR"},{"input":18,"output":19,"interpolation":"LINEAR"}],"channels":[{"sampler":0,"target":{"node":6,"path":"rotation"}},{"sampler":1,"target":{"node":6,"path":"translation"}},{"sampler":2,"target":{"node":0,"path":"rotation"}},{"sampler":3,"target":{"node":0,"path":"translation"}},{"sampler":4,"target":{"node":3,"path":"rotation"}},{"sampler":5,"target":{"node":3,"path":"translation"}},{"sampler":6,"target":{"node":3,"path":"scale"}},{"sampler":7,"target":{"node":5,"path":"rotation"}},{"sampler":8,"target":{"node":5,"path":"translation"}},{"sampler":9,"target":{"node":5,"path":"scale"}}]}],"bufferViews":[{"buffer":0,"byteOffset":0,"byteLength":176},{"buffer":0,"byteOffset":176,"byteLength":704},{"buffer":0,"byteOffset":880,"byteLength":160},{"buffer":0,"byteOffset":1040,"byteLength":480},{"buffer":0,"byteOffset":1520,"byteLength":72},{"buffer":0,"byteOffset":1592,"byteLength":288},{"buffer":0,"byteOffset":1880,"byteLength":76},{"buffer":0,"byteOffset":1956,"byteLength":228},{"buffer":0,"byteOffset":2184,"byteLength":24},{"buffer":0,"byteOffset":2208,"byteLength":96},{"buffer":0,"byteOffset":2304,"byteLength":16},{"buffer":0,"byteOffset":2320,"byteLength":48},{"buffer":0,"byteOffset":2368,"byteLength":4},{"buffer":0,"byteOffset":2372,"byteLength":12},{"buffer":0,"byteOffset":2384,"byteLength":148},{"buffer":0,"byteOffset":2532,"byteLength":592},{"buffer":0,"byteOffset":3124,"byteLength":144},{"buffer":0,"byteOffset":3268,"byteLength":432},{"buffer":0,"byteOffset":3700,"byteLength":4},{"buffer":0,"byteOffset":3704,"byteLength":12}],"buffers":[{"byteLength":3716,"uri":"data:application/octet-stream;base64,"}],"accessors":[{"bufferView":0,"componentType":5126,"count":44,"max":[2.6500000953674316],"min":[0],"type":"SCALAR"},{"bufferView":1,"componentType":5126,"count":44,"max":[0.19492162764072418,0.048548150807619095,0.024121128022670746,1],"min":[-0.01042404118925333,-0.002882060594856739,-0.2581592798233032,0.9464592933654785],"type":"VEC4"},{"bufferView":2,"componentType":5126,"count":40,"max":[2.549999952316284],"min":[0],"type":"SCALAR"},{"bufferView":3,"componentType":5126,"count":40,"max":[0.5010156035423279,0.4980182647705078,0.4749999940395355],"min":[0.44999998807907104,0.29164063930511475,0.3440234363079071],"type":"VEC3"},{"bufferView":4,"componentType":5126,"count":18,"max":[1.7000000476837158],"min":[0],"type":"SCALAR"},{"bufferView":5,"componentType":5126,"count":18,"max":[0.09174806624650955,0.030769189819693565,0.03536929562687874,1],"min":[-0.44232413172721863,-0.2012462019920349,-0.31221985816955566,0.8273035287857056],"type":"VEC4"},{"bufferView":6,"componentType":5126,"count":19,"max":[1.7000000476837158],"min":[0],"type":"SCALAR"},{"bufferView":7,"componentType":5126,"count":19,"max":[0.0011718750465661287,-0.03701437637209892,0.25648921728134155],"min":[-0.3639252781867981,-1.1520463228225708,-0.0179274994879961],"type":"VEC3"},{"bufferView":8,"componentType":5126,"count":6,"max":[2.25],"min":[0],"type":"SCALAR"},{"bufferView":9,"componentType":5126,"count":6,"max":[-4.6906692768028125e-17,0.7724947929382324,-0.6171878576278687,3.9359390979975894e-17],"min":[-0.11322857439517975,0.7576301097869873,-0.6427876353263855,-0.14355427026748657],"type":"VEC4"},{"bufferView":10,"componentType":5126,"count":4,"max":[2.25],"min":[0],"type":"SCALAR"},{"bufferView":11,"componentType":5126,"count":4,"max":[0.02500000037252903,-0.01875000074505806,0.10000000149011612],"min":[0,-0.01875000074505806,0.0625],"type":"VEC3"},{"bufferView":12,"componentType":5126,"count":1,"max":[0],"min":[0],"type":"SCALAR"},{"bufferView":13,"componentType":5126,"count":1,"max":[1,1.5,1],"min":[1,1.5,1],"type":"VEC3"},{"bufferView":14,"componentType":5126,"count":37,"max":[2.299999952316284],"min":[0],"type":"SCALAR"},{"bufferView":15,"componentType":5126,"count":37,"max":[-0.05518955737352371,-0.3100876212120056,0.8706620931625366,-0.0001573802001075819],"min":[-0.37897977232933044,-0.8891860842704773,0.3637617528438568,-0.27720198035240173],"type":"VEC4"},{"bufferView":16,"componentType":5126,"count":36,"max":[2.299999952316284],"min":[0],"type":"SCALAR"},{"bufferView":17,"componentType":5126,"count":36,"max":[0.013124999590218067,-0.02207031287252903,0.4406469762325287],"min":[-0.569418728351593,-1.219366192817688,-0.48750001192092896],"type":"VEC3"},{"bufferView":18,"componentType":5126,"count":1,"max":[0],"min":[0],"type":"SCALAR"},{"bufferView":19,"componentType":5126,"count":1,"max":[1,1.5,1],"min":[1,1.5,1],"type":"VEC3"}]}