{"asset":{"version":"2.0","generator":"Blockbench 4.2.4 glTF exporter"},"scenes":[{"nodes":[7],"name":"blockbench_export"}],"scene":0,"nodes":[{"translation":[0,-0.03701437499999999,-0.017927499999999985],"name":"Magazine"},{"name":"gun","children":[0]},{"translation":[0.375,-0.625,0],"name":"RightHand"},{"translation":[-0.375,0.8125,0.125],"name":"R","children":[2]},{"translation":[-0.375,-0.625,0],"name":"LeftHand"},{"translation":[0.375,0.8125,0.125],"name":"L","children":[4]},{"translation":[0.5,0.3125,0.375],"name":"bone","children":[1,3,5]},{"children":[6]}],"animations":[{"name":"reload_empty","samplers":[{"input":0,"output":1,"interpolation":"LINEAR"},{"input":2,"output":3,"interpolation":"LINEAR"},{"input":4,"output":5,"interpolation":"LINEAR"},{"input":6,"output":7,"interpolation":"LINEAR"},{"input":8,"output":9,"interpolation":"LINEAR"},{"input":10,"output":11,"interpolation":"LINEAR"},{"input":12,"output":13,"interpolation":"LINEAR"},{"input":14,"output":15,"interpolation":"LINEAR"},{"input":16,"output":17,"interpolation":"LINEAR"},{"input":18,"output":19,"interpolation":"LINEAR"}],"channels":[{"sampler":0,"target":{"node":6,"path":"rotation"}},{"sampler":1,"target":{"node":6,"path":"translation"}},{"sampler":2,"target":{"node":0,"path":"rotation"}},{"sampler":3,"target":{"node":0,"path":"translation"}},{"sampler":4,"target":{"node":3,"path":"rotation"}},{"sampler":5,"target":{"node":3,"path":"translation"}},{"sampler":6,"target":{"node":3,"path":"scale"}},{"sampler":7,"target":{"node":5,"path":"rotation"}},{"sampler":8,"target":{"node":5,"path":"translation"}},{"sampler":9,"target":{"node":5,"path":"scale"}}]}],"bufferViews":[{"buffer":0,"byteOffset":0,"byteLength":216},{"buffer":0,"byteOffset":216,"byteLength":864},{"buffer":0,"byteOffset":1080,"byteLength":200},{"buffer":0,"byteOffset":1280,"byteLength":600},{"buffer":0,"byteOffset":1880,"byteLength":48},{"buffer":0,"byteOffset":1928,"byteLength":192},{"buffer":0,"byteOffset":2120,"byteLength":56},{"buffer":0,"byteOffset":2176,"byteLength":168},{"buffer":0,"byteOffset":2344,"byteLength":48},{"buffer":0,"byteOffset":2392,"byteLength":192},{"buffer":0,"byteOffset":2584,"byteLength":28},{"buffer":0,"byteOffset":2612,"byteLength":84},{"buffer":0,"byteOffset":2696,"byteLength":4},{"buffer":0,"byteOffset":2700,"byteLength":12},{"buffer":0,"byteOffset":2712,"byteLength":192},{"buffer":0,"byteOffset":2904,"byteLength":768},{"buffer":0,"byteOffset":3672,"byteLength":188},{"buffer":0,"byteOffset":3860,"byteLength":564},{"buffer":0,"byteOffset":4424,"byteLength":4},{"buffer":0,"byteOffset":4428,"byteLength":12}],"buffers":[{"byteLength":4440,"uri":"data:application/octet-stream;base64,"}],"accessors":[{"bufferView":0,"componentType":5126,"count":54,"max":[3.3499999046325684],"min":[0],"type":"SCALAR"},{"bufferView":1,"componentType":5126,"count":54,"max":[0.21750138700008392,0.06106771156191826,0.03213756904006004,1],"min":[-0.005483926273882389,-0.0029265806078910828,-0.25281715393066406,0.9507653117179871],"type":"VEC4"},{"bufferView":2,"componentType":5126,"count":50,"max":[3.3499999046325684],"min":[0],"type":"SCALAR"},{"bufferView":3,"componentType":5126,"count":50,"max":[0.5034224987030029,0.512499988079071,0.5022639036178589],"min":[0.41874998807907104,0.2775000035762787,0.21375000476837158],"type":"VEC3"},{"bufferView":4,"componentType":5126,"count":12,"max":[2.200000047683716],"min":[0],"type":"SCALAR"},{"bufferView":5,"componentType":5126,"count":12,"max":[0.026096252724528313,0.0020538195967674255,0.017452405765652657,1],"min":[-0.2575168013572693,-0.025930577889084816,-0.9733792543411255,-0.30901700258255005],"type":"VEC4"},{"bufferView":6,"componentType":5126,"count":14,"max":[2.200000047683716],"min":[0],"type":"SCALAR"},{"bufferView":7,"componentType":5126,"count":14,"max":[0.01875000074505806,-0.03701437637209892,-0.0179274994879961],"min":[-0.41874998807907104,-2.2682642936706543,-0.21167750656604767],"type":"VEC3"},{"bufferView":8,"componentType":5126,"count":12,"max":[2.950000047683716],"min":[0],"type":"SCALAR"},{"bufferView":9,"componentType":5126,"count":12,"max":[-4.6906692768028125e-17,0.7847861647605896,-0.6125625371932983,3.9359390979975894e-17],"min":[-0.09324482083320618,0.7597063779830933,-0.6450453400611877,-0.07003546506166458],"type":"VEC4"},{"bufferView":10,"componentType":5126,"count":7,"max":[2.950000047683716],"min":[0],"type":"SCALAR"},{"bufferView":11,"componentType":5126,"count":7,"max":[0.02500000037252903,-0.01875000074505806,0.0625],"min":[0,-0.01875000074505806,0.0625],"type":"VEC3"},{"bufferView":12,"componentType":5126,"count":1,"max":[0],"min":[0],"type":"SCALAR"},{"bufferView":13,"componentType":5126,"count":1,"max":[1,1.5,1],"min":[1,1.5,1],"type":"VEC3"},{"bufferView":14,"componentType":5126,"count":48,"max":[3],"min":[0],"type":"SCALAR"},{"bufferView":15,"componentType":5126,"count":48,"max":[-0.08690974116325378,0.035763293504714966,0.8669303059577942,0.39210453629493713],"min":[-0.4784696698188782,-0.8225345015525818,0.5412625074386597,-0.17530283331871033],"type":"VEC4"},{"bufferView":16,"componentType":5126,"count":47,"max":[3],"min":[0],"type":"SCALAR"},{"bufferView":17,"componentType":5126,"count":47,"max":[-0.042222220450639725,-0.0145399309694767,0.06735031306743622],"min":[-1.193750023841858,-2.236875057220459,-0.550000011920929],"type":"VEC3"},{"bufferView":18,"componentType":5126,"count":1,"max":[0],"min":[0],"type":"SCALAR"},{"bufferView":19,"componentType":5126,"count":1,"max":[1,1.5,1],"min":[1,1.5,1],"type":"VEC3"}]}