{"asset":{"version":"2.0","generator":"Blockbench 4.0.4 glTF exporter"},"scenes":[{"nodes":[6],"name":"blockbench_export"}],"scene":0,"nodes":[{"translation":[-0.5,-0.5,-0.5],"name":"cube","mesh":0},{"translation":[0.5,0.5,0.5],"name":"ppsh","children":[0]},{"translation":[-0.03125,-0.4921875,-0.50390625],"name":"cube","mesh":1},{"translation":[0.5,0.5,0.5],"name":"ppsh_41_standard_mag","children":[2]},{"name":"cube","mesh":2},{"name":"left","children":[4]},{"children":[1,3,5]}],"bufferViews":[{"buffer":0,"byteOffset":0,"byteLength":288,"target":34962,"byteStride":12},{"buffer":0,"byteOffset":288,"byteLength":288,"target":34962,"byteStride":12},{"buffer":0,"byteOffset":576,"byteLength":192,"target":34962,"byteStride":8},{"buffer":0,"byteOffset":768,"byteLength":72,"target":34963},{"buffer":0,"byteOffset":840,"byteLength":288,"target":34962,"byteStride":12},{"buffer":0,"byteOffset":1128,"byteLength":288,"target":34962,"byteStride":12},{"buffer":0,"byteOffset":1416,"byteLength":192,"target":34962,"byteStride":8},{"buffer":0,"byteOffset":1608,"byteLength":60,"target":34963},{"buffer":0,"byteOffset":1668,"byteLength":288,"target":34962,"byteStride":12},{"buffer":0,"byteOffset":1956,"byteLength":288,"target":34962,"byteStride":12},{"buffer":0,"byteOffset":2244,"byteLength":192,"target":34962,"byteStride":8},{"buffer":0,"byteOffset":2436,"byteLength":72,"target":34963},{"buffer":0,"byteOffset":2508,"byteLength":32},{"buffer":0,"byteOffset":2540,"byteLength":128},{"buffer":0,"byteOffset":2668,"byteLength":36},{"buffer":0,"byteOffset":2704,"byteLength":108},{"buffer":0,"byteOffset":2812,"byteLength":28},{"buffer":0,"byteOffset":2840,"byteLength":112},{"buffer":0,"byteOffset":2952,"byteLength":24},{"buffer":0,"byteOffset":2976,"byteLength":72},{"buffer":0,"byteOffset":3048,"byteLength":4},{"buffer":0,"byteOffset":3052,"byteLength":12},{"buffer":0,"byteOffset":3064,"byteLength":12},{"buffer":0,"byteOffset":3076,"byteLength":48},{"buffer":0,"byteOffset":3124,"byteLength":20},{"buffer":0,"byteOffset":3144,"byteLength":60}],"buffers":[{"byteLength":3204,"uri":"data:application/octet-stream;base64,"}],"accessors":[{"bufferView":0,"componentType":5126,"count":24,"max":[1,0.25,0.75],"min":[0.75,0,0],"type":"VEC3"},{"bufferView":1,"componentType":5126,"count":24,"max":[1,1,1],"min":[-1,-1,-1],"type":"VEC3"},{"bufferView":2,"componentType":5126,"count":24,"max":[0.75,1],"min":[0,0.25],"type":"VEC2"},{"bufferView":3,"componentType":5123,"count":36,"max":[23],"min":[0],"type":"SCALAR"},{"bufferView":4,"componentType":5126,"count":24,"max":[0.0625,0.53125,0.20703125],"min":[0,0.25,0.09375],"type":"VEC3"},{"bufferView":5,"componentType":5126,"count":24,"max":[1,1,1],"min":[-1,-1,-1],"type":"VEC3"},{"bufferView":6,"componentType":5126,"count":24,"max":[1,1],"min":[0,0],"type":"VEC2"},{"bufferView":7,"componentType":5123,"count":30,"max":[23],"min":[0],"type":"SCALAR"},{"bufferView":8,"componentType":5126,"count":24,"max":[0.25,0.25,0.75],"min":[0,0,0],"type":"VEC3"},{"bufferView":9,"componentType":5126,"count":24,"max":[1,1,1],"min":[-1,-1,-1],"type":"VEC3"},{"bufferView":10,"componentType":5126,"count":24,"max":[0.75,1],"min":[0,0.25],"type":"VEC2"},{"bufferView":11,"componentType":5123,"count":36,"max":[23],"min":[0],"type":"SCALAR"},{"bufferView":12,"componentType":5126,"count":8,"max":[2.5416667461395264],"min":[0],"type":"SCALAR"},{"bufferView":13,"componentType":5126,"count":8,"max":[0.4050082266330719,-0.25,0.16655439138412476,0.9032815098762512],"min":[0.2161584049463272,-0.4536551237106323,-0.1035533919930458,0.8067765831947327],"type":"VEC4"},{"bufferView":14,"componentType":5126,"count":9,"max":[2.5416667461395264],"min":[0],"type":"SCALAR"},{"bufferView":15,"componentType":5126,"count":9,"max":[0.5634765625,0.3125,0.03125],"min":[0.40625,-0.3419140577316284,-0.25],"type":"VEC3"},{"bufferView":16,"componentType":5126,"count":7,"max":[2.2083332538604736],"min":[0],"type":"SCALAR"},{"bufferView":17,"componentType":5126,"count":7,"max":[0.09115342795848846,0,0,1],"min":[0,-0.007974891923367977,-0.12615571916103363,0.9916650056838989],"type":"VEC4"},{"bufferView":18,"componentType":5126,"count":6,"max":[2.25],"min":[0],"type":"SCALAR"},{"bufferView":19,"componentType":5126,"count":6,"max":[0.534375011920929,0.543749988079071,0.5],"min":[0.5,0.5,0.5],"type":"VEC3"},{"bufferView":20,"componentType":5126,"count":1,"max":[0],"min":[0],"type":"SCALAR"},{"bufferView":21,"componentType":5126,"count":1,"max":[1,1,1],"min":[1,1,1],"type":"VEC3"},{"bufferView":22,"componentType":5126,"count":3,"max":[2.2083332538604736],"min":[0],"type":"SCALAR"},{"bufferView":23,"componentType":5126,"count":3,"max":[0.2064221352338791,0,0,1],"min":[0,-0.06508464366197586,-0.2935778796672821,0.9311100244522095],"type":"VEC4"},{"bufferView":24,"componentType":5126,"count":5,"max":[2.2083332538604736],"min":[0],"type":"SCALAR"},{"bufferView":25,"componentType":5126,"count":5,"max":[0.5,0.5,0.5],"min":[0.421875,-0.3125,0.5],"type":"VEC3"}],"materials":[{"pbrMetallicRoughness":{"metallicFactor":0,"roughnessFactor":1},"alphaMode":"MASK","alphaCutoff":0.05,"doubleSided":true},{"pbrMetallicRoughness":{"metallicFactor":0,"roughnessFactor":1},"alphaMode":"MASK","alphaCutoff":0.05,"doubleSided":true}],"meshes":[{"primitives":[{"mode":4,"attributes":{"POSITION":0,"NORMAL":1,"TEXCOORD_0":2},"indices":3,"material":0}]},{"primitives":[{"mode":4,"attributes":{"POSITION":4,"NORMAL":5,"TEXCOORD_0":6},"indices":7,"material":1}]},{"primitives":[{"mode":4,"attributes":{"POSITION":8,"NORMAL":9,"TEXCOORD_0":10},"indices":11,"material":0}]}],"animations":[{"name":"ppsh_tactical","samplers":[{"input":12,"output":13,"interpolation":"LINEAR"},{"input":14,"output":15,"interpolation":"LINEAR"},{"input":16,"output":17,"interpolation":"LINEAR"},{"input":18,"output":19,"interpolation":"LINEAR"},{"input":20,"output":21,"interpolation":"LINEAR"},{"input":22,"output":23,"interpolation":"LINEAR"},{"input":24,"output":25,"interpolation":"LINEAR"}],"channels":[{"sampler":0,"target":{"node":5,"path":"rotation"}},{"sampler":1,"target":{"node":5,"path":"translation"}},{"sampler":2,"target":{"node":1,"path":"rotation"}},{"sampler":3,"target":{"node":1,"path":"translation"}},{"sampler":4,"target":{"node":1,"path":"scale"}},{"sampler":5,"target":{"node":3,"path":"rotation"}},{"sampler":6,"target":{"node":3,"path":"translation"}}]}]}